<?xml version="1.0" encoding="utf-8" standalone="no"?>
<!DOCTYPE svg PUBLIC "-//W3C//DTD SVG 1.1//EN"
  "http://www.w3.org/Graphics/SVG/1.1/DTD/svg11.dtd">
<svg xmlns:xlink="http://www.w3.org/1999/xlink" width="558.885625pt" height="501.337656pt" viewBox="0 0 558.885625 501.337656" xmlns="http://www.w3.org/2000/svg" version="1.1">
 <metadata>
  <rdf:RDF xmlns:dc="http://purl.org/dc/elements/1.1/" xmlns:cc="http://creativecommons.org/ns#" xmlns:rdf="http://www.w3.org/1999/02/22-rdf-syntax-ns#">
   <cc:Work>
    <dc:type rdf:resource="http://purl.org/dc/dcmitype/StillImage"/>
    <dc:date>2025-11-18T20:42:02.424431</dc:date>
    <dc:format>image/svg+xml</dc:format>
    <dc:creator>
     <cc:Agent>
      <dc:title>Matplotlib v3.10.7, https://matplotlib.org/</dc:title>
     </cc:Agent>
    </dc:creator>
   </cc:Work>
  </rdf:RDF>
 </metadata>
 <defs>
  <style type="text/css">*{stroke-linejoin: round; stroke-linecap: butt}</style>
 </defs>
 <g id="figure_1">
  <g id="patch_1">
   <path d="M 0 501.337656 
L 558.885625 501.337656 
L 558.885625 0 
L 0 0 
z
" style="fill: #ffffff"/>
  </g>
  <g id="axes_1">
   <g id="patch_2">
    <path d="M 58.471875 456.038906 
L 504.871875 456.038906 
L 504.871875 12.518906 
L 58.471875 12.518906 
z
" style="fill: #ffffff"/>
   </g>
   <g id="matplotlib.axis_1">
    <g id="xtick_1">
     <g id="line2d_1">
      <path d="M 58.471875 456.038906 
L 58.471875 12.518906 
" clip-path="url(#pf1e2a03202)" style="fill: none; stroke-dasharray: 0.8,1.32; stroke-dashoffset: 0; stroke: #808080; stroke-opacity: 0.3; stroke-width: 0.8"/>
     </g>
     <g id="line2d_2">
      <defs>
       <path id="m35bdc58505" d="M 0 0 
L 0 3.5 
" style="stroke: #000000; stroke-width: 0.8"/>
      </defs>
      <g>
       <use xlink:href="#m35bdc58505" x="58.471875" y="456.038906" style="stroke: #000000; stroke-width: 0.8"/>
      </g>
     </g>
     <g id="text_1">
      <!-- 0 -->
      <g transform="translate(54.018125 473.676719) scale(0.14 -0.14)">
       <defs>
        <path id="DejaVuSans-30" d="M 2034 4250 
Q 1547 4250 1301 3770 
Q 1056 3291 1056 2328 
Q 1056 1369 1301 889 
Q 1547 409 2034 409 
Q 2525 409 2770 889 
Q 3016 1369 3016 2328 
Q 3016 3291 2770 3770 
Q 2525 4250 2034 4250 
z
M 2034 4750 
Q 2819 4750 3233 4129 
Q 3647 3509 3647 2328 
Q 3647 1150 3233 529 
Q 2819 -91 2034 -91 
Q 1250 -91 836 529 
Q 422 1150 422 2328 
Q 422 3509 836 4129 
Q 1250 4750 2034 4750 
z
" transform="scale(0.015625)"/>
       </defs>
       <use xlink:href="#DejaVuSans-30"/>
      </g>
     </g>
    </g>
    <g id="xtick_2">
     <g id="line2d_3">
      <path d="M 114.271875 456.038906 
L 114.271875 12.518906 
" clip-path="url(#pf1e2a03202)" style="fill: none; stroke-dasharray: 0.8,1.32; stroke-dashoffset: 0; stroke: #808080; stroke-opacity: 0.3; stroke-width: 0.8"/>
     </g>
     <g id="line2d_4">
      <g>
       <use xlink:href="#m35bdc58505" x="114.271875" y="456.038906" style="stroke: #000000; stroke-width: 0.8"/>
      </g>
     </g>
     <g id="text_2">
      <!-- 1 -->
      <g transform="translate(109.818125 473.676719) scale(0.14 -0.14)">
       <defs>
        <path id="DejaVuSans-31" d="M 794 531 
L 1825 531 
L 1825 4091 
L 703 3866 
L 703 4441 
L 1819 4666 
L 2450 4666 
L 2450 531 
L 3481 531 
L 3481 0 
L 794 0 
L 794 531 
z
" transform="scale(0.015625)"/>
       </defs>
       <use xlink:href="#DejaVuSans-31"/>
      </g>
     </g>
    </g>
    <g id="xtick_3">
     <g id="line2d_5">
      <path d="M 170.071875 456.038906 
L 170.071875 12.518906 
" clip-path="url(#pf1e2a03202)" style="fill: none; stroke-dasharray: 0.8,1.32; stroke-dashoffset: 0; stroke: #808080; stroke-opacity: 0.3; stroke-width: 0.8"/>
     </g>
     <g id="line2d_6">
      <g>
       <use xlink:href="#m35bdc58505" x="170.071875" y="456.038906" style="stroke: #000000; stroke-width: 0.8"/>
      </g>
     </g>
     <g id="text_3">
      <!-- 2 -->
      <g transform="translate(165.618125 473.676719) scale(0.14 -0.14)">
       <defs>
        <path id="DejaVuSans-32" d="M 1228 531 
L 3431 531 
L 3431 0 
L 469 0 
L 469 531 
Q 828 903 1448 1529 
Q 2069 2156 2228 2338 
Q 2531 2678 2651 2914 
Q 2772 3150 2772 3378 
Q 2772 3750 2511 3984 
Q 2250 4219 1831 4219 
Q 1534 4219 1204 4116 
Q 875 4013 500 3803 
L 500 4441 
Q 881 4594 1212 4672 
Q 1544 4750 1819 4750 
Q 2544 4750 2975 4387 
Q 3406 4025 3406 3419 
Q 3406 3131 3298 2873 
Q 3191 2616 2906 2266 
Q 2828 2175 2409 1742 
Q 1991 1309 1228 531 
z
" transform="scale(0.015625)"/>
       </defs>
       <use xlink:href="#DejaVuSans-32"/>
      </g>
     </g>
    </g>
    <g id="xtick_4">
     <g id="line2d_7">
      <path d="M 225.871875 456.038906 
L 225.871875 12.518906 
" clip-path="url(#pf1e2a03202)" style="fill: none; stroke-dasharray: 0.8,1.32; stroke-dashoffset: 0; stroke: #808080; stroke-opacity: 0.3; stroke-width: 0.8"/>
     </g>
     <g id="line2d_8">
      <g>
       <use xlink:href="#m35bdc58505" x="225.871875" y="456.038906" style="stroke: #000000; stroke-width: 0.8"/>
      </g>
     </g>
     <g id="text_4">
      <!-- 3 -->
      <g transform="translate(221.418125 473.676719) scale(0.14 -0.14)">
       <defs>
        <path id="DejaVuSans-33" d="M 2597 2516 
Q 3050 2419 3304 2112 
Q 3559 1806 3559 1356 
Q 3559 666 3084 287 
Q 2609 -91 1734 -91 
Q 1441 -91 1130 -33 
Q 819 25 488 141 
L 488 750 
Q 750 597 1062 519 
Q 1375 441 1716 441 
Q 2309 441 2620 675 
Q 2931 909 2931 1356 
Q 2931 1769 2642 2001 
Q 2353 2234 1838 2234 
L 1294 2234 
L 1294 2753 
L 1863 2753 
Q 2328 2753 2575 2939 
Q 2822 3125 2822 3475 
Q 2822 3834 2567 4026 
Q 2313 4219 1838 4219 
Q 1578 4219 1281 4162 
Q 984 4106 628 3988 
L 628 4550 
Q 988 4650 1302 4700 
Q 1616 4750 1894 4750 
Q 2613 4750 3031 4423 
Q 3450 4097 3450 3541 
Q 3450 3153 3228 2886 
Q 3006 2619 2597 2516 
z
" transform="scale(0.015625)"/>
       </defs>
       <use xlink:href="#DejaVuSans-33"/>
      </g>
     </g>
    </g>
    <g id="xtick_5">
     <g id="line2d_9">
      <path d="M 281.671875 456.038906 
L 281.671875 12.518906 
" clip-path="url(#pf1e2a03202)" style="fill: none; stroke-dasharray: 0.8,1.32; stroke-dashoffset: 0; stroke: #808080; stroke-opacity: 0.3; stroke-width: 0.8"/>
     </g>
     <g id="line2d_10">
      <g>
       <use xlink:href="#m35bdc58505" x="281.671875" y="456.038906" style="stroke: #000000; stroke-width: 0.8"/>
      </g>
     </g>
     <g id="text_5">
      <!-- 4 -->
      <g transform="translate(277.218125 473.676719) scale(0.14 -0.14)">
       <defs>
        <path id="DejaVuSans-34" d="M 2419 4116 
L 825 1625 
L 2419 1625 
L 2419 4116 
z
M 2253 4666 
L 3047 4666 
L 3047 1625 
L 3713 1625 
L 3713 1100 
L 3047 1100 
L 3047 0 
L 2419 0 
L 2419 1100 
L 313 1100 
L 313 1709 
L 2253 4666 
z
" transform="scale(0.015625)"/>
       </defs>
       <use xlink:href="#DejaVuSans-34"/>
      </g>
     </g>
    </g>
    <g id="xtick_6">
     <g id="line2d_11">
      <path d="M 337.471875 456.038906 
L 337.471875 12.518906 
" clip-path="url(#pf1e2a03202)" style="fill: none; stroke-dasharray: 0.8,1.32; stroke-dashoffset: 0; stroke: #808080; stroke-opacity: 0.3; stroke-width: 0.8"/>
     </g>
     <g id="line2d_12">
      <g>
       <use xlink:href="#m35bdc58505" x="337.471875" y="456.038906" style="stroke: #000000; stroke-width: 0.8"/>
      </g>
     </g>
     <g id="text_6">
      <!-- 5 -->
      <g transform="translate(333.018125 473.676719) scale(0.14 -0.14)">
       <defs>
        <path id="DejaVuSans-35" d="M 691 4666 
L 3169 4666 
L 3169 4134 
L 1269 4134 
L 1269 2991 
Q 1406 3038 1543 3061 
Q 1681 3084 1819 3084 
Q 2600 3084 3056 2656 
Q 3513 2228 3513 1497 
Q 3513 744 3044 326 
Q 2575 -91 1722 -91 
Q 1428 -91 1123 -41 
Q 819 9 494 109 
L 494 744 
Q 775 591 1075 516 
Q 1375 441 1709 441 
Q 2250 441 2565 725 
Q 2881 1009 2881 1497 
Q 2881 1984 2565 2268 
Q 2250 2553 1709 2553 
Q 1456 2553 1204 2497 
Q 953 2441 691 2322 
L 691 4666 
z
" transform="scale(0.015625)"/>
       </defs>
       <use xlink:href="#DejaVuSans-35"/>
      </g>
     </g>
    </g>
    <g id="xtick_7">
     <g id="line2d_13">
      <path d="M 393.271875 456.038906 
L 393.271875 12.518906 
" clip-path="url(#pf1e2a03202)" style="fill: none; stroke-dasharray: 0.8,1.32; stroke-dashoffset: 0; stroke: #808080; stroke-opacity: 0.3; stroke-width: 0.8"/>
     </g>
     <g id="line2d_14">
      <g>
       <use xlink:href="#m35bdc58505" x="393.271875" y="456.038906" style="stroke: #000000; stroke-width: 0.8"/>
      </g>
     </g>
     <g id="text_7">
      <!-- 6 -->
      <g transform="translate(388.818125 473.676719) scale(0.14 -0.14)">
       <defs>
        <path id="DejaVuSans-36" d="M 2113 2584 
Q 1688 2584 1439 2293 
Q 1191 2003 1191 1497 
Q 1191 994 1439 701 
Q 1688 409 2113 409 
Q 2538 409 2786 701 
Q 3034 994 3034 1497 
Q 3034 2003 2786 2293 
Q 2538 2584 2113 2584 
z
M 3366 4563 
L 3366 3988 
Q 3128 4100 2886 4159 
Q 2644 4219 2406 4219 
Q 1781 4219 1451 3797 
Q 1122 3375 1075 2522 
Q 1259 2794 1537 2939 
Q 1816 3084 2150 3084 
Q 2853 3084 3261 2657 
Q 3669 2231 3669 1497 
Q 3669 778 3244 343 
Q 2819 -91 2113 -91 
Q 1303 -91 875 529 
Q 447 1150 447 2328 
Q 447 3434 972 4092 
Q 1497 4750 2381 4750 
Q 2619 4750 2861 4703 
Q 3103 4656 3366 4563 
z
" transform="scale(0.015625)"/>
       </defs>
       <use xlink:href="#DejaVuSans-36"/>
      </g>
     </g>
    </g>
    <g id="xtick_8">
     <g id="line2d_15">
      <path d="M 449.071875 456.038906 
L 449.071875 12.518906 
" clip-path="url(#pf1e2a03202)" style="fill: none; stroke-dasharray: 0.8,1.32; stroke-dashoffset: 0; stroke: #808080; stroke-opacity: 0.3; stroke-width: 0.8"/>
     </g>
     <g id="line2d_16">
      <g>
       <use xlink:href="#m35bdc58505" x="449.071875" y="456.038906" style="stroke: #000000; stroke-width: 0.8"/>
      </g>
     </g>
     <g id="text_8">
      <!-- 7 -->
      <g transform="translate(444.618125 473.676719) scale(0.14 -0.14)">
       <defs>
        <path id="DejaVuSans-37" d="M 525 4666 
L 3525 4666 
L 3525 4397 
L 1831 0 
L 1172 0 
L 2766 4134 
L 525 4134 
L 525 4666 
z
" transform="scale(0.015625)"/>
       </defs>
       <use xlink:href="#DejaVuSans-37"/>
      </g>
     </g>
    </g>
    <g id="xtick_9">
     <g id="line2d_17">
      <path d="M 504.871875 456.038906 
L 504.871875 12.518906 
" clip-path="url(#pf1e2a03202)" style="fill: none; stroke-dasharray: 0.8,1.32; stroke-dashoffset: 0; stroke: #808080; stroke-opacity: 0.3; stroke-width: 0.8"/>
     </g>
     <g id="line2d_18">
      <g>
       <use xlink:href="#m35bdc58505" x="504.871875" y="456.038906" style="stroke: #000000; stroke-width: 0.8"/>
      </g>
     </g>
     <g id="text_9">
      <!-- 8 -->
      <g transform="translate(500.418125 473.676719) scale(0.14 -0.14)">
       <defs>
        <path id="DejaVuSans-38" d="M 2034 2216 
Q 1584 2216 1326 1975 
Q 1069 1734 1069 1313 
Q 1069 891 1326 650 
Q 1584 409 2034 409 
Q 2484 409 2743 651 
Q 3003 894 3003 1313 
Q 3003 1734 2745 1975 
Q 2488 2216 2034 2216 
z
M 1403 2484 
Q 997 2584 770 2862 
Q 544 3141 544 3541 
Q 544 4100 942 4425 
Q 1341 4750 2034 4750 
Q 2731 4750 3128 4425 
Q 3525 4100 3525 3541 
Q 3525 3141 3298 2862 
Q 3072 2584 2669 2484 
Q 3125 2378 3379 2068 
Q 3634 1759 3634 1313 
Q 3634 634 3220 271 
Q 2806 -91 2034 -91 
Q 1263 -91 848 271 
Q 434 634 434 1313 
Q 434 1759 690 2068 
Q 947 2378 1403 2484 
z
M 1172 3481 
Q 1172 3119 1398 2916 
Q 1625 2713 2034 2713 
Q 2441 2713 2670 2916 
Q 2900 3119 2900 3481 
Q 2900 3844 2670 4047 
Q 2441 4250 2034 4250 
Q 1625 4250 1398 4047 
Q 1172 3844 1172 3481 
z
" transform="scale(0.015625)"/>
       </defs>
       <use xlink:href="#DejaVuSans-38"/>
      </g>
     </g>
    </g>
    <g id="text_10">
     <!-- t -->
     <g transform="translate(278.927656 491.226094) scale(0.14 -0.14)">
      <defs>
       <path id="DejaVuSans-74" d="M 1172 4494 
L 1172 3500 
L 2356 3500 
L 2356 3053 
L 1172 3053 
L 1172 1153 
Q 1172 725 1289 603 
Q 1406 481 1766 481 
L 2356 481 
L 2356 0 
L 1766 0 
Q 1100 0 847 248 
Q 594 497 594 1153 
L 594 3053 
L 172 3053 
L 172 3500 
L 594 3500 
L 594 4494 
L 1172 4494 
z
" transform="scale(0.015625)"/>
      </defs>
      <use xlink:href="#DejaVuSans-74"/>
     </g>
    </g>
   </g>
   <g id="matplotlib.axis_2">
    <g id="ytick_1">
     <g id="line2d_19">
      <path d="M 58.471875 456.038906 
L 504.871875 456.038906 
" clip-path="url(#pf1e2a03202)" style="fill: none; stroke-dasharray: 0.8,1.32; stroke-dashoffset: 0; stroke: #808080; stroke-opacity: 0.3; stroke-width: 0.8"/>
     </g>
     <g id="line2d_20">
      <defs>
       <path id="m48247ebbf0" d="M 0 0 
L -3.5 0 
" style="stroke: #000000; stroke-width: 0.8"/>
      </defs>
      <g>
       <use xlink:href="#m48247ebbf0" x="58.471875" y="456.038906" style="stroke: #000000; stroke-width: 0.8"/>
      </g>
     </g>
     <g id="text_11">
      <!-- 0 -->
      <g transform="translate(42.564375 461.357813) scale(0.14 -0.14)">
       <use xlink:href="#DejaVuSans-30"/>
      </g>
     </g>
    </g>
    <g id="ytick_2">
     <g id="line2d_21">
      <path d="M 58.471875 367.334906 
L 504.871875 367.334906 
" clip-path="url(#pf1e2a03202)" style="fill: none; stroke-dasharray: 0.8,1.32; stroke-dashoffset: 0; stroke: #808080; stroke-opacity: 0.3; stroke-width: 0.8"/>
     </g>
     <g id="line2d_22">
      <g>
       <use xlink:href="#m48247ebbf0" x="58.471875" y="367.334906" style="stroke: #000000; stroke-width: 0.8"/>
      </g>
     </g>
     <g id="text_12">
      <!-- 100 -->
      <g transform="translate(24.749375 372.653813) scale(0.14 -0.14)">
       <use xlink:href="#DejaVuSans-31"/>
       <use xlink:href="#DejaVuSans-30" transform="translate(63.623047 0)"/>
       <use xlink:href="#DejaVuSans-30" transform="translate(127.246094 0)"/>
      </g>
     </g>
    </g>
    <g id="ytick_3">
     <g id="line2d_23">
      <path d="M 58.471875 278.630906 
L 504.871875 278.630906 
" clip-path="url(#pf1e2a03202)" style="fill: none; stroke-dasharray: 0.8,1.32; stroke-dashoffset: 0; stroke: #808080; stroke-opacity: 0.3; stroke-width: 0.8"/>
     </g>
     <g id="line2d_24">
      <g>
       <use xlink:href="#m48247ebbf0" x="58.471875" y="278.630906" style="stroke: #000000; stroke-width: 0.8"/>
      </g>
     </g>
     <g id="text_13">
      <!-- 200 -->
      <g transform="translate(24.749375 283.949813) scale(0.14 -0.14)">
       <use xlink:href="#DejaVuSans-32"/>
       <use xlink:href="#DejaVuSans-30" transform="translate(63.623047 0)"/>
       <use xlink:href="#DejaVuSans-30" transform="translate(127.246094 0)"/>
      </g>
     </g>
    </g>
    <g id="ytick_4">
     <g id="line2d_25">
      <path d="M 58.471875 189.926906 
L 504.871875 189.926906 
" clip-path="url(#pf1e2a03202)" style="fill: none; stroke-dasharray: 0.8,1.32; stroke-dashoffset: 0; stroke: #808080; stroke-opacity: 0.3; stroke-width: 0.8"/>
     </g>
     <g id="line2d_26">
      <g>
       <use xlink:href="#m48247ebbf0" x="58.471875" y="189.926906" style="stroke: #000000; stroke-width: 0.8"/>
      </g>
     </g>
     <g id="text_14">
      <!-- 300 -->
      <g transform="translate(24.749375 195.245812) scale(0.14 -0.14)">
       <use xlink:href="#DejaVuSans-33"/>
       <use xlink:href="#DejaVuSans-30" transform="translate(63.623047 0)"/>
       <use xlink:href="#DejaVuSans-30" transform="translate(127.246094 0)"/>
      </g>
     </g>
    </g>
    <g id="ytick_5">
     <g id="line2d_27">
      <path d="M 58.471875 101.222906 
L 504.871875 101.222906 
" clip-path="url(#pf1e2a03202)" style="fill: none; stroke-dasharray: 0.8,1.32; stroke-dashoffset: 0; stroke: #808080; stroke-opacity: 0.3; stroke-width: 0.8"/>
     </g>
     <g id="line2d_28">
      <g>
       <use xlink:href="#m48247ebbf0" x="58.471875" y="101.222906" style="stroke: #000000; stroke-width: 0.8"/>
      </g>
     </g>
     <g id="text_15">
      <!-- 400 -->
      <g transform="translate(24.749375 106.541813) scale(0.14 -0.14)">
       <use xlink:href="#DejaVuSans-34"/>
       <use xlink:href="#DejaVuSans-30" transform="translate(63.623047 0)"/>
       <use xlink:href="#DejaVuSans-30" transform="translate(127.246094 0)"/>
      </g>
     </g>
    </g>
    <g id="ytick_6">
     <g id="line2d_29">
      <path d="M 58.471875 12.518906 
L 504.871875 12.518906 
" clip-path="url(#pf1e2a03202)" style="fill: none; stroke-dasharray: 0.8,1.32; stroke-dashoffset: 0; stroke: #808080; stroke-opacity: 0.3; stroke-width: 0.8"/>
     </g>
     <g id="line2d_30">
      <g>
       <use xlink:href="#m48247ebbf0" x="58.471875" y="12.518906" style="stroke: #000000; stroke-width: 0.8"/>
      </g>
     </g>
     <g id="text_16">
      <!-- 500 -->
      <g transform="translate(24.749375 17.837812) scale(0.14 -0.14)">
       <use xlink:href="#DejaVuSans-35"/>
       <use xlink:href="#DejaVuSans-30" transform="translate(63.623047 0)"/>
       <use xlink:href="#DejaVuSans-30" transform="translate(127.246094 0)"/>
      </g>
     </g>
    </g>
    <g id="text_17">
     <!-- s -->
     <g transform="translate(17.837813 237.925469) rotate(-90) scale(0.14 -0.14)">
      <defs>
       <path id="DejaVuSans-73" d="M 2834 3397 
L 2834 2853 
Q 2591 2978 2328 3040 
Q 2066 3103 1784 3103 
Q 1356 3103 1142 2972 
Q 928 2841 928 2578 
Q 928 2378 1081 2264 
Q 1234 2150 1697 2047 
L 1894 2003 
Q 2506 1872 2764 1633 
Q 3022 1394 3022 966 
Q 3022 478 2636 193 
Q 2250 -91 1575 -91 
Q 1294 -91 989 -36 
Q 684 19 347 128 
L 347 722 
Q 666 556 975 473 
Q 1284 391 1588 391 
Q 1994 391 2212 530 
Q 2431 669 2431 922 
Q 2431 1156 2273 1281 
Q 2116 1406 1581 1522 
L 1381 1569 
Q 847 1681 609 1914 
Q 372 2147 372 2553 
Q 372 3047 722 3315 
Q 1072 3584 1716 3584 
Q 2034 3584 2315 3537 
Q 2597 3491 2834 3397 
z
" transform="scale(0.015625)"/>
      </defs>
      <use xlink:href="#DejaVuSans-73"/>
     </g>
    </g>
   </g>
   <g id="line2d_31">
    <path d="M 58.471875 101.222906 
L 58.962964 221.039083 
L 59.498698 298.372438 
L 60.034431 345.74772 
L 60.614809 378.260027 
L 61.195187 399.392739 
L 61.82021 414.563061 
L 62.489877 425.481641 
L 63.159544 432.96291 
L 63.873855 438.537893 
L 64.588167 442.49448 
L 65.347123 445.524879 
L 66.150723 447.848292 
L 66.998968 449.633212 
L 67.891857 451.008188 
L 68.874035 452.113928 
L 69.945502 452.989943 
L 71.195547 453.720605 
L 72.668815 454.318854 
L 74.499238 454.814555 
L 76.910039 455.222222 
L 80.213729 455.539766 
L 85.213909 455.776331 
L 93.830291 455.933054 
L 113.250633 456.015864 
L 200.843072 456.038442 
L 504.871875 456.038906 
L 504.871875 456.038906 
" clip-path="url(#pf1e2a03202)" style="fill: none; stroke: #00ffff; stroke-width: 1.5; stroke-linecap: square"/>
   </g>
   <g id="line2d_32">
    <path d="M 58.471875 101.222906 
L 59.498698 159.567838 
L 60.570165 208.086846 
L 61.641632 246.970397 
L 62.757744 279.625352 
L 63.873855 306.091231 
L 65.034611 328.517457 
L 66.240012 347.512503 
L 67.445412 363.07872 
L 68.695457 376.370339 
L 69.945502 387.360535 
L 71.240192 396.812281 
L 72.534881 404.690321 
L 73.874215 411.509012 
L 75.258194 417.40805 
L 76.642172 422.363868 
L 78.070795 426.676492 
L 79.544062 430.428082 
L 81.061974 433.691013 
L 82.62453 436.528818 
L 84.231731 438.997101 
L 85.928221 441.197656 
L 87.713999 443.147886 
L 89.589067 444.867289 
L 91.598068 446.407597 
L 93.785646 447.799429 
L 96.151803 449.03813 
L 98.785826 450.160483 
L 101.732361 451.167514 
L 105.080696 452.069444 
L 108.92012 452.867414 
L 113.429211 453.571388 
L 118.831191 454.183181 
L 125.527861 454.708231 
L 134.054953 455.142891 
L 145.483936 455.489777 
L 161.913099 455.74936 
L 188.5212 455.923501 
L 242.808869 456.015466 
L 455.941542 456.038713 
L 504.871875 456.038833 
L 504.871875 456.038833 
" clip-path="url(#pf1e2a03202)" style="fill: none; stroke: #000000; stroke-width: 1.5; stroke-linecap: square"/>
   </g>
   <g id="line2d_33">
    <path d="M 58.471875 101.222906 
L 60.302298 137.680675 
L 62.132721 169.752315 
L 63.963144 198.00899 
L 65.838212 223.545574 
L 67.713279 246.103686 
L 69.632991 266.532394 
L 71.552703 284.624553 
L 73.51706 301.040503 
L 75.481416 315.613661 
L 77.490417 328.860383 
L 79.499418 340.646427 
L 81.553063 351.377628 
L 83.606708 360.945575 
L 85.704998 369.670765 
L 87.803288 377.465467 
L 89.946222 384.583921 
L 92.133801 391.080433 
L 94.32138 396.893552 
L 96.553603 402.206187 
L 98.830471 407.058411 
L 101.151983 411.487574 
L 103.51814 415.528403 
L 105.928941 419.213123 
L 108.429031 422.629258 
L 110.973765 425.73447 
L 113.607789 428.602077 
L 116.331101 431.242255 
L 119.188347 433.702351 
L 122.179526 435.981672 
L 125.304638 438.082367 
L 128.608329 440.033617 
L 132.090597 441.832425 
L 135.840732 443.516517 
L 139.858734 445.073637 
L 144.189247 446.51075 
L 148.92156 447.842705 
L 154.100318 449.064992 
L 159.814809 450.18153 
L 166.198968 451.198147 
L 173.386726 452.113591 
L 181.601308 452.931412 
L 191.155223 453.653594 
L 202.494917 454.280395 
L 216.245412 454.809596 
L 233.52282 455.242536 
L 256.380786 455.580246 
L 288.971245 455.822426 
L 342.366024 455.971201 
L 463.21859 456.033007 
L 504.871875 456.036266 
L 504.871875 456.036266 
" clip-path="url(#pf1e2a03202)" style="fill: none; stroke: #008000; stroke-width: 1.5; stroke-linecap: square"/>
   </g>
   <g id="line2d_34">
    <path d="M 58.471875 101.222906 
L 61.284476 129.827719 
L 63.9185 154.371958 
L 66.552523 176.87846 
L 69.231191 197.862643 
L 71.909859 217.103589 
L 74.588527 234.761635 
L 77.311839 251.239834 
L 80.035151 266.367043 
L 82.758464 280.265645 
L 85.52642 293.246542 
L 88.294377 305.176096 
L 91.106979 316.317689 
L 93.91958 326.559213 
L 96.732181 335.980577 
L 99.589427 344.785891 
L 102.491317 353.008776 
L 105.393207 360.570215 
L 108.339742 367.631046 
L 111.286276 374.124957 
L 114.277456 380.188461 
L 117.313279 385.845692 
L 120.393747 391.119865 
L 123.51886 396.033261 
L 126.688617 400.607223 
L 129.903018 404.862158 
L 133.206708 408.869374 
L 136.599688 412.634226 
L 140.037312 416.119901 
L 143.608869 419.424013 
L 147.269715 422.507235 
L 151.064494 425.410738 
L 154.993207 428.134395 
L 159.055853 430.679796 
L 163.297078 433.073929 
L 167.71688 435.313776 
L 172.359904 437.417673 
L 177.270795 439.397415 
L 182.449553 441.244673 
L 187.985466 442.980782 
L 193.878536 444.593819 
L 200.21805 446.096061 
L 207.048653 447.484097 
L 214.504278 448.768767 
L 222.674215 449.946451 
L 231.692397 451.017122 
L 241.737402 451.981274 
L 253.077096 452.841346 
L 266.068635 453.597878 
L 281.203108 454.250134 
L 299.284116 454.799426 
L 321.606348 455.246061 
L 350.535961 455.590761 
L 390.983846 455.834358 
L 456.209409 455.979705 
L 504.871875 456.015084 
L 504.871875 456.015084 
" clip-path="url(#pf1e2a03202)" style="fill: none; stroke: #0000ff; stroke-width: 1.5; stroke-linecap: square"/>
   </g>
   <g id="line2d_35">
    <path d="M 58.471875 101.222906 
L 62.22201 126.922503 
L 65.614989 148.62806 
L 68.963324 168.616961 
L 72.311659 187.270112 
L 75.659994 204.677759 
L 79.008329 220.925564 
L 82.356663 236.093401 
L 85.749643 250.437844 
L 89.142622 263.821224 
L 92.535601 276.310063 
L 95.928581 287.9661 
L 99.366204 298.984887 
L 102.803828 309.262957 
L 106.241452 318.851641 
L 109.72372 327.910757 
L 113.205988 336.357307 
L 116.732901 344.331382 
L 120.259814 351.761898 
L 123.831371 358.771529 
L 127.447573 365.378196 
L 131.063774 371.526352 
L 134.72462 377.316782 
L 138.430111 382.765476 
L 142.180246 387.888095 
L 145.975025 392.699943 
L 149.859094 397.26648 
L 153.787807 401.544241 
L 157.805808 405.591311 
L 161.913099 409.412145 
L 166.109679 413.011968 
L 170.395547 416.396673 
L 174.815349 419.603765 
L 179.369085 422.632397 
L 184.056753 425.483111 
L 188.923 428.181329 
L 193.967825 430.723467 
L 199.235871 433.127166 
L 204.727141 435.386635 
L 210.486276 437.51402 
L 216.557924 439.516838 
L 222.942082 441.386656 
L 229.728041 443.139866 
L 236.960444 444.775395 
L 244.683936 446.291117 
L 252.987807 447.691577 
L 262.005988 448.983285 
L 271.827771 450.161646 
L 282.631731 451.229868 
L 294.641092 452.189184 
L 308.12372 453.038436 
L 323.52606 453.780362 
L 341.428491 454.414103 
L 362.813189 454.941403 
L 389.287357 455.362726 
L 423.931461 455.679427 
L 473.531461 455.892948 
L 504.871875 455.956193 
L 504.871875 455.956193 
" clip-path="url(#pf1e2a03202)" style="fill: none; stroke: #ff0000; stroke-width: 1.5; stroke-linecap: square"/>
   </g>
   <g id="patch_3">
    <path d="M 58.471875 456.038906 
L 58.471875 12.518906 
" style="fill: none; stroke: #000000; stroke-width: 0.8; stroke-linejoin: miter; stroke-linecap: square"/>
   </g>
   <g id="patch_4">
    <path d="M 504.871875 456.038906 
L 504.871875 12.518906 
" style="fill: none; stroke: #000000; stroke-width: 0.8; stroke-linejoin: miter; stroke-linecap: square"/>
   </g>
   <g id="patch_5">
    <path d="M 58.471875 456.038906 
L 504.871875 456.038906 
" style="fill: none; stroke: #000000; stroke-width: 0.8; stroke-linejoin: miter; stroke-linecap: square"/>
   </g>
   <g id="patch_6">
    <path d="M 58.471875 12.518906 
L 504.871875 12.518906 
" style="fill: none; stroke: #000000; stroke-width: 0.8; stroke-linejoin: miter; stroke-linecap: square"/>
   </g>
  </g>
  <g id="axes_2">
   <g id="matplotlib.axis_3">
    <g id="ytick_7">
     <g id="line2d_36">
      <defs>
       <path id="m5e15d420ef" d="M 0 0 
L 3.5 0 
" style="stroke: #000000; stroke-width: 0.8"/>
      </defs>
      <g>
       <use xlink:href="#m5e15d420ef" x="504.871875" y="456.038906" style="stroke: #000000; stroke-width: 0.8"/>
      </g>
     </g>
     <g id="text_18">
      <!-- 0.0 -->
      <g transform="translate(511.871875 461.357813) scale(0.14 -0.14)">
       <defs>
        <path id="DejaVuSans-2e" d="M 684 794 
L 1344 794 
L 1344 0 
L 684 0 
L 684 794 
z
" transform="scale(0.015625)"/>
       </defs>
       <use xlink:href="#DejaVuSans-30"/>
       <use xlink:href="#DejaVuSans-2e" transform="translate(63.623047 0)"/>
       <use xlink:href="#DejaVuSans-30" transform="translate(95.410156 0)"/>
      </g>
     </g>
    </g>
    <g id="ytick_8">
     <g id="line2d_37">
      <g>
       <use xlink:href="#m5e15d420ef" x="504.871875" y="367.334906" style="stroke: #000000; stroke-width: 0.8"/>
      </g>
     </g>
     <g id="text_19">
      <!-- 0.2 -->
      <g transform="translate(511.871875 372.653812) scale(0.14 -0.14)">
       <use xlink:href="#DejaVuSans-30"/>
       <use xlink:href="#DejaVuSans-2e" transform="translate(63.623047 0)"/>
       <use xlink:href="#DejaVuSans-32" transform="translate(95.410156 0)"/>
      </g>
     </g>
    </g>
    <g id="ytick_9">
     <g id="line2d_38">
      <g>
       <use xlink:href="#m5e15d420ef" x="504.871875" y="278.630906" style="stroke: #000000; stroke-width: 0.8"/>
      </g>
     </g>
     <g id="text_20">
      <!-- 0.4 -->
      <g transform="translate(511.871875 283.949813) scale(0.14 -0.14)">
       <use xlink:href="#DejaVuSans-30"/>
       <use xlink:href="#DejaVuSans-2e" transform="translate(63.623047 0)"/>
       <use xlink:href="#DejaVuSans-34" transform="translate(95.410156 0)"/>
      </g>
     </g>
    </g>
    <g id="ytick_10">
     <g id="line2d_39">
      <g>
       <use xlink:href="#m5e15d420ef" x="504.871875" y="189.926906" style="stroke: #000000; stroke-width: 0.8"/>
      </g>
     </g>
     <g id="text_21">
      <!-- 0.6 -->
      <g transform="translate(511.871875 195.245812) scale(0.14 -0.14)">
       <use xlink:href="#DejaVuSans-30"/>
       <use xlink:href="#DejaVuSans-2e" transform="translate(63.623047 0)"/>
       <use xlink:href="#DejaVuSans-36" transform="translate(95.410156 0)"/>
      </g>
     </g>
    </g>
    <g id="ytick_11">
     <g id="line2d_40">
      <g>
       <use xlink:href="#m5e15d420ef" x="504.871875" y="101.222906" style="stroke: #000000; stroke-width: 0.8"/>
      </g>
     </g>
     <g id="text_22">
      <!-- 0.8 -->
      <g transform="translate(511.871875 106.541812) scale(0.14 -0.14)">
       <use xlink:href="#DejaVuSans-30"/>
       <use xlink:href="#DejaVuSans-2e" transform="translate(63.623047 0)"/>
       <use xlink:href="#DejaVuSans-38" transform="translate(95.410156 0)"/>
      </g>
     </g>
    </g>
    <g id="ytick_12">
     <g id="line2d_41">
      <g>
       <use xlink:href="#m5e15d420ef" x="504.871875" y="12.518906" style="stroke: #000000; stroke-width: 0.8"/>
      </g>
     </g>
     <g id="text_23">
      <!-- 1.0 -->
      <g transform="translate(511.871875 17.837812) scale(0.14 -0.14)">
       <use xlink:href="#DejaVuSans-31"/>
       <use xlink:href="#DejaVuSans-2e" transform="translate(63.623047 0)"/>
       <use xlink:href="#DejaVuSans-30" transform="translate(95.410156 0)"/>
      </g>
     </g>
    </g>
    <g id="text_24">
     <!-- w -->
     <g transform="translate(548.774063 240.003594) rotate(-90) scale(0.14 -0.14)">
      <defs>
       <path id="DejaVuSans-77" d="M 269 3500 
L 844 3500 
L 1563 769 
L 2278 3500 
L 2956 3500 
L 3675 769 
L 4391 3500 
L 4966 3500 
L 4050 0 
L 3372 0 
L 2619 2869 
L 1863 0 
L 1184 0 
L 269 3500 
z
" transform="scale(0.015625)"/>
      </defs>
      <use xlink:href="#DejaVuSans-77"/>
     </g>
    </g>
   </g>
   <g id="line2d_42">
    <path d="M 58.471875 447.168506 
L 69.409769 422.348342 
L 76.195727 407.665735 
L 82.981686 393.50915 
L 89.812289 379.77158 
L 96.642892 366.529353 
L 103.51814 353.68271 
L 110.438032 341.223352 
L 117.357924 329.219011 
L 124.32246 317.57984 
L 131.331641 306.297903 
L 138.385466 295.365302 
L 145.483936 284.774188 
L 152.582406 274.579656 
L 159.72552 264.706318 
L 166.957924 255.088491 
L 174.234971 245.781471 
L 181.556663 236.777712 
L 188.923 228.069749 
L 196.378626 219.600482 
L 203.878896 211.416238 
L 211.468455 203.463765 
L 219.102658 195.785261 
L 226.82615 188.331115 
L 234.638932 181.099212 
L 242.541002 174.087209 
L 250.532361 167.29255 
L 258.613009 160.712479 
L 266.827591 154.310017 
L 275.131461 148.119053 
L 283.569265 142.105058 
L 292.141002 136.268648 
L 300.846672 130.610039 
L 309.686276 125.12906 
L 318.704458 119.799421 
L 327.856573 114.648457 
L 337.187267 109.65151 
L 346.696537 104.810401 
L 356.429031 100.105395 
L 366.384746 95.540555 
L 376.563684 91.119239 
L 386.965844 86.844127 
L 397.635871 82.700396 
L 408.573765 78.692316 
L 419.779526 74.823346 
L 431.297798 71.082106 
L 443.173225 67.459919 
L 455.405808 63.962891 
L 467.995547 60.596045 
L 480.987087 57.352593 
L 494.42507 54.227724 
L 504.871875 51.949695 
L 504.871875 51.949695 
" clip-path="url(#pf1e2a03202)" style="fill: none; stroke-dasharray: 5.55,2.4; stroke-dashoffset: 0; stroke: #00ffff; stroke-width: 1.5"/>
   </g>
   <g id="line2d_43">
    <path d="M 58.471875 411.686906 
L 59.454053 409.656051 
L 66.597168 394.694713 
L 73.427771 380.914394 
L 80.258374 367.63096 
L 87.133621 354.744342 
L 94.053513 342.246212 
L 100.973405 330.204517 
L 107.937942 318.529127 
L 114.947123 307.212083 
L 122.000948 296.245462 
L 129.054773 285.68695 
L 136.153243 275.458239 
L 143.296357 265.551799 
L 150.484116 255.960153 
L 157.761164 246.619689 
L 165.082856 237.583576 
L 172.449193 228.84432 
L 179.860174 220.394509 
L 187.360444 212.178883 
L 194.905358 204.24193 
L 202.539562 196.532133 
L 210.263054 189.04761 
L 218.075835 181.786234 
L 225.977906 174.745655 
L 233.969265 167.923305 
L 242.049913 161.316418 
L 250.264494 154.887864 
L 258.568365 148.67167 
L 267.006168 142.633166 
L 275.577906 136.77297 
L 284.283576 131.0913 
L 293.12318 125.587984 
L 302.096717 120.262483 
L 311.248833 115.089286 
L 320.579526 110.070771 
L 330.088797 105.208765 
L 339.82129 100.483451 
L 349.732361 95.918923 
L 359.866654 91.496411 
L 370.268815 87.200784 
L 380.894197 83.054098 
L 391.787447 79.041783 
L 402.993207 75.152381 
L 414.511479 71.391382 
L 426.342262 67.763325 
L 438.530201 64.259402 
L 451.075295 60.884758 
L 464.02219 57.632655 
L 477.415529 54.498341 
L 491.299958 51.478786 
L 504.871875 48.737227 
L 504.871875 48.737227 
" clip-path="url(#pf1e2a03202)" style="fill: none; stroke-dasharray: 5.55,2.4; stroke-dashoffset: 0; stroke: #000000; stroke-width: 1.5"/>
   </g>
   <g id="line2d_44">
    <path d="M 58.471875 322.982906 
L 58.91832 322.564985 
L 59.72192 321.453603 
L 62.043432 317.71375 
L 69.588347 305.585818 
L 76.642172 294.67972 
L 83.740642 284.114278 
L 90.883756 273.881715 
L 98.071515 263.974309 
L 105.303918 254.3844 
L 112.580966 245.104395 
L 119.902658 236.126771 
L 127.268995 227.444083 
L 134.72462 218.9994 
L 142.22489 210.838911 
L 149.814449 202.909522 
L 157.448653 195.253305 
L 165.172145 187.820797 
L 172.984926 180.609885 
L 180.886997 173.618235 
L 188.878356 166.843298 
L 197.003648 160.246864 
L 205.21823 153.864519 
L 213.566744 147.660566 
L 222.004548 141.666904 
L 230.576285 135.850229 
L 239.281956 130.210752 
L 248.166204 124.72137 
L 257.184386 119.411027 
L 266.381146 114.25429 
L 275.756483 109.253407 
L 285.310399 104.41008 
L 295.042892 99.725483 
L 304.998608 95.180443 
L 315.177546 90.778304 
L 325.579706 86.521736 
L 336.249733 82.395979 
L 347.187627 78.405285 
L 358.438032 74.538209 
L 370.000948 70.800099 
L 381.876375 67.195355 
L 394.108959 63.715167 
L 406.743342 60.35305 
L 419.779526 57.115286 
L 433.262154 53.997001 
L 447.235871 50.995032 
L 461.700678 48.116219 
L 476.745862 45.350198 
L 492.371425 42.704768 
L 504.871875 40.742744 
L 504.871875 40.742744 
" clip-path="url(#pf1e2a03202)" style="fill: none; stroke-dasharray: 5.55,2.4; stroke-dashoffset: 0; stroke: #008000; stroke-width: 1.5"/>
   </g>
   <g id="line2d_45">
    <path d="M 58.471875 189.926906 
L 58.91832 190.271527 
L 59.409409 190.377935 
L 59.989787 190.264269 
L 60.793387 189.851772 
L 62.043432 188.917481 
L 64.498878 186.742613 
L 76.865394 175.566185 
L 84.856753 168.709369 
L 92.937402 162.069065 
L 101.107339 155.642344 
L 109.411209 149.393207 
L 117.804368 143.354102 
L 126.331461 137.491429 
L 134.992487 131.805535 
L 143.832091 126.269069 
L 152.805628 120.911489 
L 161.957744 115.707131 
L 171.243792 110.681944 
L 180.753063 105.789478 
L 190.440912 101.055808 
L 200.351983 96.461579 
L 210.486276 92.010291 
L 220.843792 87.704759 
L 231.42453 83.547136 
L 242.273135 79.522856 
L 253.434251 75.620471 
L 264.907879 71.845602 
L 276.694017 68.202918 
L 288.837312 64.683633 
L 301.337762 61.293024 
L 314.240012 58.024391 
L 327.588707 54.873026 
L 341.383846 51.845394 
L 355.714719 48.929165 
L 370.581326 46.132232 
L 386.028311 43.453475 
L 402.144962 40.885881 
L 418.931281 38.437914 
L 436.5212 36.0991 
L 454.959364 33.873721 
L 474.335061 31.761126 
L 494.737582 29.762071 
L 504.871875 28.847706 
L 504.871875 28.847706 
" clip-path="url(#pf1e2a03202)" style="fill: none; stroke-dasharray: 5.55,2.4; stroke-dashoffset: 0; stroke: #0000ff; stroke-width: 1.5"/>
   </g>
   <g id="line2d_46">
    <path d="M 58.471875 56.870906 
L 59.141542 58.440241 
L 59.811209 59.465528 
L 60.52552 60.154222 
L 61.284476 60.580025 
L 62.177366 60.820484 
L 63.293477 60.880981 
L 64.856033 60.726203 
L 67.445412 60.214296 
L 74.365304 58.534941 
L 88.606889 55.146694 
L 102.402028 52.099531 
L 116.688257 49.173255 
L 131.510219 46.365694 
L 146.912559 43.675809 
L 162.939922 41.10348 
L 179.681596 38.643005 
L 197.182226 36.297097 
L 215.531101 34.063371 
L 234.81751 31.941336 
L 255.130741 29.931916 
L 276.604728 28.033267 
L 299.373405 26.245757 
L 323.570705 24.57127 
L 349.41985 23.007485 
L 377.188707 21.552877 
L 407.145142 20.209023 
L 439.690957 18.974574 
L 475.31724 17.849269 
L 504.871875 17.066159 
L 504.871875 17.066159 
" clip-path="url(#pf1e2a03202)" style="fill: none; stroke-dasharray: 5.55,2.4; stroke-dashoffset: 0; stroke: #ff0000; stroke-width: 1.5"/>
   </g>
   <g id="patch_7">
    <path d="M 58.471875 456.038906 
L 58.471875 12.518906 
" style="fill: none; stroke: #000000; stroke-width: 0.8; stroke-linejoin: miter; stroke-linecap: square"/>
   </g>
   <g id="patch_8">
    <path d="M 504.871875 456.038906 
L 504.871875 12.518906 
" style="fill: none; stroke: #000000; stroke-width: 0.8; stroke-linejoin: miter; stroke-linecap: square"/>
   </g>
   <g id="patch_9">
    <path d="M 58.471875 456.038906 
L 504.871875 456.038906 
" style="fill: none; stroke: #000000; stroke-width: 0.8; stroke-linejoin: miter; stroke-linecap: square"/>
   </g>
   <g id="patch_10">
    <path d="M 58.471875 12.518906 
L 504.871875 12.518906 
" style="fill: none; stroke: #000000; stroke-width: 0.8; stroke-linejoin: miter; stroke-linecap: square"/>
   </g>
  </g>
 </g>
 <defs>
  <clipPath id="pf1e2a03202">
   <rect x="58.471875" y="12.518906" width="446.4" height="443.52"/>
  </clipPath>
 </defs>
</svg>
