<?xml version="1.0" encoding="utf-8" standalone="no"?>
<!DOCTYPE svg PUBLIC "-//W3C//DTD SVG 1.1//EN"
  "http://www.w3.org/Graphics/SVG/1.1/DTD/svg11.dtd">
<svg xmlns:xlink="http://www.w3.org/1999/xlink" width="1008pt" height="432pt" viewBox="0 0 1008 432" xmlns="http://www.w3.org/2000/svg" version="1.1">
 <metadata>
  <rdf:RDF xmlns:dc="http://purl.org/dc/elements/1.1/" xmlns:cc="http://creativecommons.org/ns#" xmlns:rdf="http://www.w3.org/1999/02/22-rdf-syntax-ns#">
   <cc:Work>
    <dc:type rdf:resource="http://purl.org/dc/dcmitype/StillImage"/>
    <dc:date>2025-11-18T20:47:07.372930</dc:date>
    <dc:format>image/svg+xml</dc:format>
    <dc:creator>
     <cc:Agent>
      <dc:title>Matplotlib v3.10.7, https://matplotlib.org/</dc:title>
     </cc:Agent>
    </dc:creator>
   </cc:Work>
  </rdf:RDF>
 </metadata>
 <defs>
  <style type="text/css">*{stroke-linejoin: round; stroke-linecap: butt}</style>
 </defs>
 <g id="figure_1">
  <g id="patch_1">
   <path d="M 0 432 
L 1008 432 
L 1008 0 
L 0 0 
z
" style="fill: #ffffff"/>
  </g>
  <g id="axes_1">
   <g id="patch_2">
    <path d="M 47.72 390.04 
L 489.015 390.04 
L 489.015 26.88 
L 47.72 26.88 
z
" style="fill: #ffffff"/>
   </g>
   <g id="matplotlib.axis_1">
    <g id="xtick_1">
     <g id="line2d_1">
      <path d="M 97.605226 390.04 
L 97.605226 26.88 
" clip-path="url(#pc6ae4b4ab2)" style="fill: none; stroke: #b0b0b0; stroke-opacity: 0.3; stroke-width: 0.8; stroke-linecap: square"/>
     </g>
     <g id="line2d_2">
      <defs>
       <path id="ma0cbca7c96" d="M 0 0 
L 0 3.5 
" style="stroke: #000000; stroke-width: 0.8"/>
      </defs>
      <g>
       <use xlink:href="#ma0cbca7c96" x="97.605226" y="390.04" style="stroke: #000000; stroke-width: 0.8"/>
      </g>
     </g>
     <g id="text_1">
      <!-- 0.3 -->
      <g transform="translate(89.653663 404.638438) scale(0.1 -0.1)">
       <defs>
        <path id="DejaVuSans-30" d="M 2034 4250 
Q 1547 4250 1301 3770 
Q 1056 3291 1056 2328 
Q 1056 1369 1301 889 
Q 1547 409 2034 409 
Q 2525 409 2770 889 
Q 3016 1369 3016 2328 
Q 3016 3291 2770 3770 
Q 2525 4250 2034 4250 
z
M 2034 4750 
Q 2819 4750 3233 4129 
Q 3647 3509 3647 2328 
Q 3647 1150 3233 529 
Q 2819 -91 2034 -91 
Q 1250 -91 836 529 
Q 422 1150 422 2328 
Q 422 3509 836 4129 
Q 1250 4750 2034 4750 
z
" transform="scale(0.015625)"/>
        <path id="DejaVuSans-2e" d="M 684 794 
L 1344 794 
L 1344 0 
L 684 0 
L 684 794 
z
" transform="scale(0.015625)"/>
        <path id="DejaVuSans-33" d="M 2597 2516 
Q 3050 2419 3304 2112 
Q 3559 1806 3559 1356 
Q 3559 666 3084 287 
Q 2609 -91 1734 -91 
Q 1441 -91 1130 -33 
Q 819 25 488 141 
L 488 750 
Q 750 597 1062 519 
Q 1375 441 1716 441 
Q 2309 441 2620 675 
Q 2931 909 2931 1356 
Q 2931 1769 2642 2001 
Q 2353 2234 1838 2234 
L 1294 2234 
L 1294 2753 
L 1863 2753 
Q 2328 2753 2575 2939 
Q 2822 3125 2822 3475 
Q 2822 3834 2567 4026 
Q 2313 4219 1838 4219 
Q 1578 4219 1281 4162 
Q 984 4106 628 3988 
L 628 4550 
Q 988 4650 1302 4700 
Q 1616 4750 1894 4750 
Q 2613 4750 3031 4423 
Q 3450 4097 3450 3541 
Q 3450 3153 3228 2886 
Q 3006 2619 2597 2516 
z
" transform="scale(0.015625)"/>
       </defs>
       <use xlink:href="#DejaVuSans-30"/>
       <use xlink:href="#DejaVuSans-2e" transform="translate(63.623047 0)"/>
       <use xlink:href="#DejaVuSans-33" transform="translate(95.410156 0)"/>
      </g>
     </g>
    </g>
    <g id="xtick_2">
     <g id="line2d_3">
      <path d="M 150.808647 390.04 
L 150.808647 26.88 
" clip-path="url(#pc6ae4b4ab2)" style="fill: none; stroke: #b0b0b0; stroke-opacity: 0.3; stroke-width: 0.8; stroke-linecap: square"/>
     </g>
     <g id="line2d_4">
      <g>
       <use xlink:href="#ma0cbca7c96" x="150.808647" y="390.04" style="stroke: #000000; stroke-width: 0.8"/>
      </g>
     </g>
     <g id="text_2">
      <!-- 0.4 -->
      <g transform="translate(142.857085 404.638438) scale(0.1 -0.1)">
       <defs>
        <path id="DejaVuSans-34" d="M 2419 4116 
L 825 1625 
L 2419 1625 
L 2419 4116 
z
M 2253 4666 
L 3047 4666 
L 3047 1625 
L 3713 1625 
L 3713 1100 
L 3047 1100 
L 3047 0 
L 2419 0 
L 2419 1100 
L 313 1100 
L 313 1709 
L 2253 4666 
z
" transform="scale(0.015625)"/>
       </defs>
       <use xlink:href="#DejaVuSans-30"/>
       <use xlink:href="#DejaVuSans-2e" transform="translate(63.623047 0)"/>
       <use xlink:href="#DejaVuSans-34" transform="translate(95.410156 0)"/>
      </g>
     </g>
    </g>
    <g id="xtick_3">
     <g id="line2d_5">
      <path d="M 204.012069 390.04 
L 204.012069 26.88 
" clip-path="url(#pc6ae4b4ab2)" style="fill: none; stroke: #b0b0b0; stroke-opacity: 0.3; stroke-width: 0.8; stroke-linecap: square"/>
     </g>
     <g id="line2d_6">
      <g>
       <use xlink:href="#ma0cbca7c96" x="204.012069" y="390.04" style="stroke: #000000; stroke-width: 0.8"/>
      </g>
     </g>
     <g id="text_3">
      <!-- 0.5 -->
      <g transform="translate(196.060507 404.638438) scale(0.1 -0.1)">
       <defs>
        <path id="DejaVuSans-35" d="M 691 4666 
L 3169 4666 
L 3169 4134 
L 1269 4134 
L 1269 2991 
Q 1406 3038 1543 3061 
Q 1681 3084 1819 3084 
Q 2600 3084 3056 2656 
Q 3513 2228 3513 1497 
Q 3513 744 3044 326 
Q 2575 -91 1722 -91 
Q 1428 -91 1123 -41 
Q 819 9 494 109 
L 494 744 
Q 775 591 1075 516 
Q 1375 441 1709 441 
Q 2250 441 2565 725 
Q 2881 1009 2881 1497 
Q 2881 1984 2565 2268 
Q 2250 2553 1709 2553 
Q 1456 2553 1204 2497 
Q 953 2441 691 2322 
L 691 4666 
z
" transform="scale(0.015625)"/>
       </defs>
       <use xlink:href="#DejaVuSans-30"/>
       <use xlink:href="#DejaVuSans-2e" transform="translate(63.623047 0)"/>
       <use xlink:href="#DejaVuSans-35" transform="translate(95.410156 0)"/>
      </g>
     </g>
    </g>
    <g id="xtick_4">
     <g id="line2d_7">
      <path d="M 257.215491 390.04 
L 257.215491 26.88 
" clip-path="url(#pc6ae4b4ab2)" style="fill: none; stroke: #b0b0b0; stroke-opacity: 0.3; stroke-width: 0.8; stroke-linecap: square"/>
     </g>
     <g id="line2d_8">
      <g>
       <use xlink:href="#ma0cbca7c96" x="257.215491" y="390.04" style="stroke: #000000; stroke-width: 0.8"/>
      </g>
     </g>
     <g id="text_4">
      <!-- 0.6 -->
      <g transform="translate(249.263928 404.638438) scale(0.1 -0.1)">
       <defs>
        <path id="DejaVuSans-36" d="M 2113 2584 
Q 1688 2584 1439 2293 
Q 1191 2003 1191 1497 
Q 1191 994 1439 701 
Q 1688 409 2113 409 
Q 2538 409 2786 701 
Q 3034 994 3034 1497 
Q 3034 2003 2786 2293 
Q 2538 2584 2113 2584 
z
M 3366 4563 
L 3366 3988 
Q 3128 4100 2886 4159 
Q 2644 4219 2406 4219 
Q 1781 4219 1451 3797 
Q 1122 3375 1075 2522 
Q 1259 2794 1537 2939 
Q 1816 3084 2150 3084 
Q 2853 3084 3261 2657 
Q 3669 2231 3669 1497 
Q 3669 778 3244 343 
Q 2819 -91 2113 -91 
Q 1303 -91 875 529 
Q 447 1150 447 2328 
Q 447 3434 972 4092 
Q 1497 4750 2381 4750 
Q 2619 4750 2861 4703 
Q 3103 4656 3366 4563 
z
" transform="scale(0.015625)"/>
       </defs>
       <use xlink:href="#DejaVuSans-30"/>
       <use xlink:href="#DejaVuSans-2e" transform="translate(63.623047 0)"/>
       <use xlink:href="#DejaVuSans-36" transform="translate(95.410156 0)"/>
      </g>
     </g>
    </g>
    <g id="xtick_5">
     <g id="line2d_9">
      <path d="M 310.418912 390.04 
L 310.418912 26.88 
" clip-path="url(#pc6ae4b4ab2)" style="fill: none; stroke: #b0b0b0; stroke-opacity: 0.3; stroke-width: 0.8; stroke-linecap: square"/>
     </g>
     <g id="line2d_10">
      <g>
       <use xlink:href="#ma0cbca7c96" x="310.418912" y="390.04" style="stroke: #000000; stroke-width: 0.8"/>
      </g>
     </g>
     <g id="text_5">
      <!-- 0.7 -->
      <g transform="translate(302.46735 404.638438) scale(0.1 -0.1)">
       <defs>
        <path id="DejaVuSans-37" d="M 525 4666 
L 3525 4666 
L 3525 4397 
L 1831 0 
L 1172 0 
L 2766 4134 
L 525 4134 
L 525 4666 
z
" transform="scale(0.015625)"/>
       </defs>
       <use xlink:href="#DejaVuSans-30"/>
       <use xlink:href="#DejaVuSans-2e" transform="translate(63.623047 0)"/>
       <use xlink:href="#DejaVuSans-37" transform="translate(95.410156 0)"/>
      </g>
     </g>
    </g>
    <g id="xtick_6">
     <g id="line2d_11">
      <path d="M 363.622334 390.04 
L 363.622334 26.88 
" clip-path="url(#pc6ae4b4ab2)" style="fill: none; stroke: #b0b0b0; stroke-opacity: 0.3; stroke-width: 0.8; stroke-linecap: square"/>
     </g>
     <g id="line2d_12">
      <g>
       <use xlink:href="#ma0cbca7c96" x="363.622334" y="390.04" style="stroke: #000000; stroke-width: 0.8"/>
      </g>
     </g>
     <g id="text_6">
      <!-- 0.8 -->
      <g transform="translate(355.670771 404.638438) scale(0.1 -0.1)">
       <defs>
        <path id="DejaVuSans-38" d="M 2034 2216 
Q 1584 2216 1326 1975 
Q 1069 1734 1069 1313 
Q 1069 891 1326 650 
Q 1584 409 2034 409 
Q 2484 409 2743 651 
Q 3003 894 3003 1313 
Q 3003 1734 2745 1975 
Q 2488 2216 2034 2216 
z
M 1403 2484 
Q 997 2584 770 2862 
Q 544 3141 544 3541 
Q 544 4100 942 4425 
Q 1341 4750 2034 4750 
Q 2731 4750 3128 4425 
Q 3525 4100 3525 3541 
Q 3525 3141 3298 2862 
Q 3072 2584 2669 2484 
Q 3125 2378 3379 2068 
Q 3634 1759 3634 1313 
Q 3634 634 3220 271 
Q 2806 -91 2034 -91 
Q 1263 -91 848 271 
Q 434 634 434 1313 
Q 434 1759 690 2068 
Q 947 2378 1403 2484 
z
M 1172 3481 
Q 1172 3119 1398 2916 
Q 1625 2713 2034 2713 
Q 2441 2713 2670 2916 
Q 2900 3119 2900 3481 
Q 2900 3844 2670 4047 
Q 2441 4250 2034 4250 
Q 1625 4250 1398 4047 
Q 1172 3844 1172 3481 
z
" transform="scale(0.015625)"/>
       </defs>
       <use xlink:href="#DejaVuSans-30"/>
       <use xlink:href="#DejaVuSans-2e" transform="translate(63.623047 0)"/>
       <use xlink:href="#DejaVuSans-38" transform="translate(95.410156 0)"/>
      </g>
     </g>
    </g>
    <g id="xtick_7">
     <g id="line2d_13">
      <path d="M 416.825755 390.04 
L 416.825755 26.88 
" clip-path="url(#pc6ae4b4ab2)" style="fill: none; stroke: #b0b0b0; stroke-opacity: 0.3; stroke-width: 0.8; stroke-linecap: square"/>
     </g>
     <g id="line2d_14">
      <g>
       <use xlink:href="#ma0cbca7c96" x="416.825755" y="390.04" style="stroke: #000000; stroke-width: 0.8"/>
      </g>
     </g>
     <g id="text_7">
      <!-- 0.9 -->
      <g transform="translate(408.874193 404.638438) scale(0.1 -0.1)">
       <defs>
        <path id="DejaVuSans-39" d="M 703 97 
L 703 672 
Q 941 559 1184 500 
Q 1428 441 1663 441 
Q 2288 441 2617 861 
Q 2947 1281 2994 2138 
Q 2813 1869 2534 1725 
Q 2256 1581 1919 1581 
Q 1219 1581 811 2004 
Q 403 2428 403 3163 
Q 403 3881 828 4315 
Q 1253 4750 1959 4750 
Q 2769 4750 3195 4129 
Q 3622 3509 3622 2328 
Q 3622 1225 3098 567 
Q 2575 -91 1691 -91 
Q 1453 -91 1209 -44 
Q 966 3 703 97 
z
M 1959 2075 
Q 2384 2075 2632 2365 
Q 2881 2656 2881 3163 
Q 2881 3666 2632 3958 
Q 2384 4250 1959 4250 
Q 1534 4250 1286 3958 
Q 1038 3666 1038 3163 
Q 1038 2656 1286 2365 
Q 1534 2075 1959 2075 
z
" transform="scale(0.015625)"/>
       </defs>
       <use xlink:href="#DejaVuSans-30"/>
       <use xlink:href="#DejaVuSans-2e" transform="translate(63.623047 0)"/>
       <use xlink:href="#DejaVuSans-39" transform="translate(95.410156 0)"/>
      </g>
     </g>
    </g>
    <g id="xtick_8">
     <g id="line2d_15">
      <path d="M 470.029177 390.04 
L 470.029177 26.88 
" clip-path="url(#pc6ae4b4ab2)" style="fill: none; stroke: #b0b0b0; stroke-opacity: 0.3; stroke-width: 0.8; stroke-linecap: square"/>
     </g>
     <g id="line2d_16">
      <g>
       <use xlink:href="#ma0cbca7c96" x="470.029177" y="390.04" style="stroke: #000000; stroke-width: 0.8"/>
      </g>
     </g>
     <g id="text_8">
      <!-- 1.0 -->
      <g transform="translate(462.077614 404.638438) scale(0.1 -0.1)">
       <defs>
        <path id="DejaVuSans-31" d="M 794 531 
L 1825 531 
L 1825 4091 
L 703 3866 
L 703 4441 
L 1819 4666 
L 2450 4666 
L 2450 531 
L 3481 531 
L 3481 0 
L 794 0 
L 794 531 
z
" transform="scale(0.015625)"/>
       </defs>
       <use xlink:href="#DejaVuSans-31"/>
       <use xlink:href="#DejaVuSans-2e" transform="translate(63.623047 0)"/>
       <use xlink:href="#DejaVuSans-30" transform="translate(95.410156 0)"/>
      </g>
     </g>
    </g>
    <g id="text_9">
     <!-- s* -->
     <g transform="translate(263.262812 418.316562) scale(0.1 -0.1)">
      <defs>
       <path id="DejaVuSans-73" d="M 2834 3397 
L 2834 2853 
Q 2591 2978 2328 3040 
Q 2066 3103 1784 3103 
Q 1356 3103 1142 2972 
Q 928 2841 928 2578 
Q 928 2378 1081 2264 
Q 1234 2150 1697 2047 
L 1894 2003 
Q 2506 1872 2764 1633 
Q 3022 1394 3022 966 
Q 3022 478 2636 193 
Q 2250 -91 1575 -91 
Q 1294 -91 989 -36 
Q 684 19 347 128 
L 347 722 
Q 666 556 975 473 
Q 1284 391 1588 391 
Q 1994 391 2212 530 
Q 2431 669 2431 922 
Q 2431 1156 2273 1281 
Q 2116 1406 1581 1522 
L 1381 1569 
Q 847 1681 609 1914 
Q 372 2147 372 2553 
Q 372 3047 722 3315 
Q 1072 3584 1716 3584 
Q 2034 3584 2315 3537 
Q 2597 3491 2834 3397 
z
" transform="scale(0.015625)"/>
       <path id="DejaVuSans-2a" d="M 3009 3897 
L 1888 3291 
L 3009 2681 
L 2828 2375 
L 1778 3009 
L 1778 1831 
L 1422 1831 
L 1422 3009 
L 372 2375 
L 191 2681 
L 1313 3291 
L 191 3897 
L 372 4206 
L 1422 3572 
L 1422 4750 
L 1778 4750 
L 1778 3572 
L 2828 4206 
L 3009 3897 
z
" transform="scale(0.015625)"/>
      </defs>
      <use xlink:href="#DejaVuSans-73"/>
      <use xlink:href="#DejaVuSans-2a" transform="translate(52.099609 0)"/>
     </g>
    </g>
   </g>
   <g id="matplotlib.axis_2">
    <g id="ytick_1">
     <g id="line2d_17">
      <path d="M 47.72 369.54673 
L 489.015 369.54673 
" clip-path="url(#pc6ae4b4ab2)" style="fill: none; stroke: #b0b0b0; stroke-opacity: 0.3; stroke-width: 0.8; stroke-linecap: square"/>
     </g>
     <g id="line2d_18">
      <defs>
       <path id="m435191436a" d="M 0 0 
L -3.5 0 
" style="stroke: #000000; stroke-width: 0.8"/>
      </defs>
      <g>
       <use xlink:href="#m435191436a" x="47.72" y="369.54673" style="stroke: #000000; stroke-width: 0.8"/>
      </g>
     </g>
     <g id="text_10">
      <!-- 0.5 -->
      <g transform="translate(24.816875 373.345949) scale(0.1 -0.1)">
       <use xlink:href="#DejaVuSans-30"/>
       <use xlink:href="#DejaVuSans-2e" transform="translate(63.623047 0)"/>
       <use xlink:href="#DejaVuSans-35" transform="translate(95.410156 0)"/>
      </g>
     </g>
    </g>
    <g id="ytick_2">
     <g id="line2d_19">
      <path d="M 47.72 304.182943 
L 489.015 304.182943 
" clip-path="url(#pc6ae4b4ab2)" style="fill: none; stroke: #b0b0b0; stroke-opacity: 0.3; stroke-width: 0.8; stroke-linecap: square"/>
     </g>
     <g id="line2d_20">
      <g>
       <use xlink:href="#m435191436a" x="47.72" y="304.182943" style="stroke: #000000; stroke-width: 0.8"/>
      </g>
     </g>
     <g id="text_11">
      <!-- 0.6 -->
      <g transform="translate(24.816875 307.982161) scale(0.1 -0.1)">
       <use xlink:href="#DejaVuSans-30"/>
       <use xlink:href="#DejaVuSans-2e" transform="translate(63.623047 0)"/>
       <use xlink:href="#DejaVuSans-36" transform="translate(95.410156 0)"/>
      </g>
     </g>
    </g>
    <g id="ytick_3">
     <g id="line2d_21">
      <path d="M 47.72 238.819155 
L 489.015 238.819155 
" clip-path="url(#pc6ae4b4ab2)" style="fill: none; stroke: #b0b0b0; stroke-opacity: 0.3; stroke-width: 0.8; stroke-linecap: square"/>
     </g>
     <g id="line2d_22">
      <g>
       <use xlink:href="#m435191436a" x="47.72" y="238.819155" style="stroke: #000000; stroke-width: 0.8"/>
      </g>
     </g>
     <g id="text_12">
      <!-- 0.7 -->
      <g transform="translate(24.816875 242.618373) scale(0.1 -0.1)">
       <use xlink:href="#DejaVuSans-30"/>
       <use xlink:href="#DejaVuSans-2e" transform="translate(63.623047 0)"/>
       <use xlink:href="#DejaVuSans-37" transform="translate(95.410156 0)"/>
      </g>
     </g>
    </g>
    <g id="ytick_4">
     <g id="line2d_23">
      <path d="M 47.72 173.455367 
L 489.015 173.455367 
" clip-path="url(#pc6ae4b4ab2)" style="fill: none; stroke: #b0b0b0; stroke-opacity: 0.3; stroke-width: 0.8; stroke-linecap: square"/>
     </g>
     <g id="line2d_24">
      <g>
       <use xlink:href="#m435191436a" x="47.72" y="173.455367" style="stroke: #000000; stroke-width: 0.8"/>
      </g>
     </g>
     <g id="text_13">
      <!-- 0.8 -->
      <g transform="translate(24.816875 177.254585) scale(0.1 -0.1)">
       <use xlink:href="#DejaVuSans-30"/>
       <use xlink:href="#DejaVuSans-2e" transform="translate(63.623047 0)"/>
       <use xlink:href="#DejaVuSans-38" transform="translate(95.410156 0)"/>
      </g>
     </g>
    </g>
    <g id="ytick_5">
     <g id="line2d_25">
      <path d="M 47.72 108.091579 
L 489.015 108.091579 
" clip-path="url(#pc6ae4b4ab2)" style="fill: none; stroke: #b0b0b0; stroke-opacity: 0.3; stroke-width: 0.8; stroke-linecap: square"/>
     </g>
     <g id="line2d_26">
      <g>
       <use xlink:href="#m435191436a" x="47.72" y="108.091579" style="stroke: #000000; stroke-width: 0.8"/>
      </g>
     </g>
     <g id="text_14">
      <!-- 0.9 -->
      <g transform="translate(24.816875 111.890798) scale(0.1 -0.1)">
       <use xlink:href="#DejaVuSans-30"/>
       <use xlink:href="#DejaVuSans-2e" transform="translate(63.623047 0)"/>
       <use xlink:href="#DejaVuSans-39" transform="translate(95.410156 0)"/>
      </g>
     </g>
    </g>
    <g id="ytick_6">
     <g id="line2d_27">
      <path d="M 47.72 42.727791 
L 489.015 42.727791 
" clip-path="url(#pc6ae4b4ab2)" style="fill: none; stroke: #b0b0b0; stroke-opacity: 0.3; stroke-width: 0.8; stroke-linecap: square"/>
     </g>
     <g id="line2d_28">
      <g>
       <use xlink:href="#m435191436a" x="47.72" y="42.727791" style="stroke: #000000; stroke-width: 0.8"/>
      </g>
     </g>
     <g id="text_15">
      <!-- 1.0 -->
      <g transform="translate(24.816875 46.52701) scale(0.1 -0.1)">
       <use xlink:href="#DejaVuSans-31"/>
       <use xlink:href="#DejaVuSans-2e" transform="translate(63.623047 0)"/>
       <use xlink:href="#DejaVuSans-30" transform="translate(95.410156 0)"/>
      </g>
     </g>
    </g>
    <g id="text_16">
     <!-- w* -->
     <g transform="translate(18.737187 215.049062) rotate(-90) scale(0.1 -0.1)">
      <defs>
       <path id="DejaVuSans-77" d="M 269 3500 
L 844 3500 
L 1563 769 
L 2278 3500 
L 2956 3500 
L 3675 769 
L 4391 3500 
L 4966 3500 
L 4050 0 
L 3372 0 
L 2619 2869 
L 1863 0 
L 1184 0 
L 269 3500 
z
" transform="scale(0.015625)"/>
      </defs>
      <use xlink:href="#DejaVuSans-77"/>
      <use xlink:href="#DejaVuSans-2a" transform="translate(81.787109 0)"/>
     </g>
    </g>
   </g>
   <g id="line2d_29">
    <path d="M 468.855404 43.449216 
L 468.77075 43.501277 
L 468.680003 43.55709 
L 468.582727 43.616923 
L 468.478455 43.681066 
L 468.366686 43.749828 
L 468.246885 43.823539 
L 468.118477 43.902555 
L 467.980847 43.987256 
L 467.833339 44.078048 
L 467.675249 44.175369 
L 467.505823 44.279683 
L 467.324255 44.391492 
L 467.129683 44.51133 
L 466.921185 44.63977 
L 466.697774 44.777424 
L 466.458396 44.924949 
L 466.201923 45.083046 
L 465.92715 45.252467 
L 465.63279 45.434014 
L 465.317466 45.628546 
L 464.97971 45.836982 
L 464.617952 46.060303 
L 464.230519 46.29956 
L 463.815624 46.555873 
L 463.371362 46.830441 
L 462.895701 47.124543 
L 462.386476 47.439545 
L 461.84138 47.776907 
L 461.257957 48.138183 
L 460.633594 48.525035 
L 459.96551 48.939231 
L 459.250751 49.382659 
L 458.486177 49.857328 
L 457.668456 50.365378 
L 456.794052 50.909088 
L 455.859218 51.490881 
L 454.859986 52.113332 
L 453.792156 52.77918 
L 452.651291 53.491332 
L 451.432705 54.252872 
L 450.131455 55.067069 
L 448.742336 55.937389 
L 447.259871 56.867498 
L 445.678311 57.861275 
L 443.991623 58.922817 
L 442.193493 60.056446 
L 440.277323 61.26672 
L 438.236234 62.558437 
L 436.063067 63.93664 
L 433.750391 65.406625 
L 431.290513 66.973943 
L 428.675492 68.644402 
L 425.897155 70.424069 
L 422.947124 72.319272 
L 419.816837 74.336591 
L 416.497586 76.48286 
L 412.980557 78.765154 
L 409.256873 81.190779 
L 405.317649 83.767262 
L 401.154054 86.50233 
L 396.757377 89.403888 
L 392.119106 92.479995 
L 387.231014 95.738834 
L 382.08525 99.188675 
L 376.674441 102.837835 
L 370.991806 106.694634 
L 365.031265 110.76734 
L 358.787573 115.064117 
L 352.25644 119.592957 
L 345.43467 124.361616 
L 338.320297 129.377538 
L 330.912719 134.647776 
L 323.212837 140.178909 
L 315.223186 145.976955 
L 306.948059 152.047275 
L 298.393623 158.394484 
L 289.568022 165.02235 
L 280.481462 171.933699 
L 271.146281 179.130319 
L 261.576986 186.612864 
L 251.790277 194.380763 
L 241.805033 202.432134 
L 231.642264 210.763702 
L 221.32504 219.37073 
L 210.878374 228.24696 
L 200.329074 237.384557 
L 189.705552 246.774084 
L 179.037611 256.404471 
L 168.356182 266.263022 
L 157.693041 276.335427 
L 147.080497 286.605798 
L 136.551053 297.056725 
L 126.137058 307.669357 
L 115.870345 318.423497 
L 105.781865 329.297725 
L 95.901331 340.269539 
L 86.256872 351.315515 
L 76.87471 362.411484 
L 67.778864 373.532727 
" clip-path="url(#pc6ae4b4ab2)" style="fill: none; stroke: #000000; stroke-width: 1.5; stroke-linecap: square"/>
   </g>
   <g id="line2d_30">
    <path d="M 468.956136 43.387273 
L 468.87872 43.434878 
L 468.795728 43.485916 
L 468.706761 43.540632 
L 468.611389 43.599293 
L 468.509155 43.66218 
L 468.399567 43.729598 
L 468.282097 43.801873 
L 468.156183 43.879351 
L 468.02122 43.962408 
L 467.876563 44.051443 
L 467.721519 44.146884 
L 467.555348 44.249189 
L 467.377258 44.358852 
L 467.186399 44.476396 
L 466.981866 44.602386 
L 466.762687 44.737426 
L 466.527823 44.882159 
L 466.276165 45.037278 
L 466.006525 45.203521 
L 465.717634 45.381681 
L 465.408136 45.572603 
L 465.076582 45.777193 
L 464.721423 45.99642 
L 464.341006 46.23132 
L 463.933567 46.483 
L 463.497223 46.752643 
L 463.029963 47.041515 
L 462.529646 47.350966 
L 461.993985 47.682441 
L 461.420549 48.037481 
L 460.806742 48.41773 
L 460.149807 48.824945 
L 459.446805 49.260999 
L 458.694615 49.72789 
L 457.889916 50.227746 
L 457.029186 50.762835 
L 456.108684 51.335575 
L 455.124443 51.948535 
L 454.072261 52.604454 
L 452.947689 53.306238 
L 451.746024 54.056981 
L 450.462294 54.859964 
L 449.091255 55.718671 
L 447.627379 56.636795 
L 446.06485 57.61825 
L 444.397551 58.667179 
L 442.619066 59.787961 
L 440.722674 60.985226 
L 438.701346 62.263856 
L 436.547748 63.629 
L 434.254242 65.086075 
L 431.812895 66.640779 
L 429.215491 68.29909 
L 426.453539 70.067272 
L 423.518299 71.95188 
L 420.400804 73.959757 
L 417.091887 76.098032 
L 413.582224 78.374118 
L 409.862372 80.795703 
L 405.922825 83.370737 
L 401.754072 86.107422 
L 397.346665 89.014187 
L 392.6913 92.099669 
L 387.778904 95.372683 
L 382.600732 98.842186 
L 377.148481 102.517237 
L 371.414403 106.40695 
L 365.391438 110.520438 
L 359.073353 114.866755 
L 352.454889 119.454824 
L 345.531915 124.293359 
L 338.301591 129.390784 
L 330.762533 134.755139 
L 322.914978 140.393979 
L 314.76095 146.314267 
L 306.30442 152.522264 
L 297.551455 159.023408 
L 288.510358 165.822192 
L 279.191787 172.922037 
L 269.608853 180.325169 
L 259.777187 188.032492 
L 249.714979 196.043466 
L 239.442976 204.355993 
L 228.984438 212.966309 
L 218.36505 221.868889 
L 207.612786 231.056372 
L 196.75772 240.519493 
L 185.831791 250.247047 
L 174.868513 260.225874 
L 163.902647 270.440865 
L 152.969824 280.875005 
L 142.106139 291.509442 
L 131.347715 302.323582 
L 120.730253 313.295225 
L 110.288573 324.400721 
L 100.056162 335.615158 
L 90.064741 346.912577 
L 80.343859 358.266204 
L 70.920527 369.648702 
" clip-path="url(#pc6ae4b4ab2)" style="fill: none; stroke-dasharray: 5.55,2.4; stroke-dashoffset: 0; stroke: #0000ff; stroke-width: 1.5"/>
   </g>
   <g id="line2d_31">
    <path d="M 468.860863 43.445859 
L 468.776599 43.49768 
L 468.686271 43.553235 
L 468.589444 43.612792 
L 468.485652 43.676639 
L 468.374398 43.745083 
L 468.255147 43.818455 
L 468.127328 43.897108 
L 467.990329 43.98142 
L 467.843496 44.071796 
L 467.686128 44.168671 
L 467.517475 44.272509 
L 467.336733 44.383808 
L 467.143046 44.5031 
L 466.935493 44.630955 
L 466.713092 44.767985 
L 466.474794 44.914842 
L 466.219476 45.072225 
L 465.945936 45.240883 
L 465.652892 45.421614 
L 465.338975 45.615275 
L 465.002719 45.82278 
L 464.642563 46.045107 
L 464.256839 46.283303 
L 463.843766 46.538485 
L 463.401445 46.811845 
L 462.927852 47.104659 
L 462.42083 47.41829 
L 461.878078 47.754189 
L 461.297149 48.113908 
L 460.675437 48.499102 
L 460.01017 48.911535 
L 459.298402 49.353088 
L 458.537001 49.825764 
L 457.722644 50.331699 
L 456.851803 50.873164 
L 455.92074 51.452576 
L 454.925495 52.072506 
L 453.861877 52.735685 
L 452.725455 53.445014 
L 451.51155 54.203571 
L 450.215226 55.014622 
L 448.831284 55.881625 
L 447.354252 56.808243 
L 445.778382 57.79835 
L 444.097644 58.856039 
L 442.305724 59.985631 
L 440.396023 61.191681 
L 438.361656 62.478987 
L 436.195458 63.852593 
L 433.889987 65.317798 
L 431.437537 66.880156 
L 428.83015 68.545483 
L 426.059633 70.319855 
L 423.117579 72.209609 
L 419.995399 74.221341 
L 416.684348 76.3619 
L 413.175571 78.638383 
L 409.460145 81.05812 
L 405.529134 83.628664 
L 401.373647 86.357773 
L 396.984911 89.253388 
L 392.354346 92.323607 
L 387.47365 95.576655 
L 382.334893 99.020849 
L 376.930622 102.664556 
L 371.253969 106.516149 
L 365.298771 110.583952 
L 359.059692 114.876188 
L 352.53236 119.400908 
L 345.713496 124.165927 
L 338.601057 129.17875 
L 331.19437 134.446486 
L 323.494279 139.975771 
L 315.503267 145.77267 
L 307.225592 151.84259 
L 298.667404 158.190184 
L 289.836843 164.819249 
L 280.744133 171.732631 
L 271.401645 178.932124 
L 261.823944 186.418379 
L 252.027806 194.190809 
L 242.032203 202.247502 
L 231.858259 210.585139 
L 221.529171 219.198931 
L 211.070091 228.082548 
L 200.507975 237.228081 
L 189.871392 246.626001 
L 179.1903 256.265146 
L 168.495784 266.132718 
L 157.819768 276.214303 
L 147.194697 286.49391 
L 136.653199 296.954028 
L 126.227729 307.575707 
L 115.950209 318.338661 
L 105.851659 329.221389 
L 95.96184 340.201318 
L 86.308911 351.254965 
L 76.919102 362.358115 
L 67.816423 373.486017 
" clip-path="url(#pc6ae4b4ab2)" style="fill: none; stroke-dasharray: 1.5,2.475; stroke-dashoffset: 0; stroke: #ff0000; stroke-width: 1.5"/>
   </g>
   <g id="patch_3">
    <path d="M 47.72 390.04 
L 47.72 26.88 
" style="fill: none; stroke: #000000; stroke-width: 0.8; stroke-linejoin: miter; stroke-linecap: square"/>
   </g>
   <g id="patch_4">
    <path d="M 489.015 390.04 
L 489.015 26.88 
" style="fill: none; stroke: #000000; stroke-width: 0.8; stroke-linejoin: miter; stroke-linecap: square"/>
   </g>
   <g id="patch_5">
    <path d="M 47.72 390.04 
L 489.015 390.04 
" style="fill: none; stroke: #000000; stroke-width: 0.8; stroke-linejoin: miter; stroke-linecap: square"/>
   </g>
   <g id="patch_6">
    <path d="M 47.72 26.88 
L 489.015 26.88 
" style="fill: none; stroke: #000000; stroke-width: 0.8; stroke-linejoin: miter; stroke-linecap: square"/>
   </g>
   <g id="text_17">
    <!-- Кривые {s*(b), w*(b)} -->
    <g transform="translate(200.064062 20.88) scale(0.12 -0.12)">
     <defs>
      <path id="DejaVuSans-41a" d="M 628 4666 
L 1259 4666 
L 1259 2359 
L 3516 4666 
L 4325 4666 
L 2522 2822 
L 4419 0 
L 3731 0 
L 2113 2403 
L 1259 1531 
L 1259 0 
L 628 0 
L 628 4666 
z
" transform="scale(0.015625)"/>
      <path id="DejaVuSans-440" d="M 1159 525 
L 1159 -1331 
L 581 -1331 
L 581 3500 
L 1159 3500 
L 1159 2969 
Q 1341 3281 1617 3432 
Q 1894 3584 2278 3584 
Q 2916 3584 3314 3078 
Q 3713 2572 3713 1747 
Q 3713 922 3314 415 
Q 2916 -91 2278 -91 
Q 1894 -91 1617 61 
Q 1341 213 1159 525 
z
M 3116 1747 
Q 3116 2381 2855 2742 
Q 2594 3103 2138 3103 
Q 1681 3103 1420 2742 
Q 1159 2381 1159 1747 
Q 1159 1113 1420 752 
Q 1681 391 2138 391 
Q 2594 391 2855 752 
Q 3116 1113 3116 1747 
z
" transform="scale(0.015625)"/>
      <path id="DejaVuSans-438" d="M 3578 3500 
L 3578 0 
L 3006 0 
L 3006 2809 
L 1319 0 
L 581 0 
L 581 3500 
L 1153 3500 
L 1153 697 
L 2838 3500 
L 3578 3500 
z
" transform="scale(0.015625)"/>
      <path id="DejaVuSans-432" d="M 1156 1613 
L 1156 459 
L 1975 459 
Q 2369 459 2575 607 
Q 2781 756 2781 1038 
Q 2781 1319 2575 1466 
Q 2369 1613 1975 1613 
L 1156 1613 
z
M 1156 3041 
L 1156 2072 
L 1913 2072 
Q 2238 2072 2444 2201 
Q 2650 2331 2650 2563 
Q 2650 2794 2444 2917 
Q 2238 3041 1913 3041 
L 1156 3041 
z
M 581 3500 
L 1950 3500 
Q 2566 3500 2897 3275 
Q 3228 3050 3228 2634 
Q 3228 2313 3059 2123 
Q 2891 1934 2559 1888 
Q 2956 1813 3175 1575 
Q 3394 1338 3394 981 
Q 3394 513 3033 256 
Q 2672 0 2003 0 
L 581 0 
L 581 3500 
z
" transform="scale(0.015625)"/>
      <path id="DejaVuSans-44b" d="M 3907 3500 
L 4482 3500 
L 4482 0 
L 3907 0 
L 3907 3500 
z
M 4195 3584 
L 4195 3584 
z
M 2781 1038 
Q 2781 1319 2576 1466 
Q 2372 1613 1978 1613 
L 1159 1613 
L 1159 459 
L 1978 459 
Q 2372 459 2576 607 
Q 2781 756 2781 1038 
z
M 581 3500 
L 1159 3500 
L 1159 2072 
L 2003 2072 
Q 2672 2072 3033 1817 
Q 3394 1563 3394 1038 
Q 3394 513 3033 256 
Q 2672 0 2003 0 
L 581 0 
L 581 3500 
z
" transform="scale(0.015625)"/>
      <path id="DejaVuSans-435" d="M 3597 1894 
L 3597 1613 
L 953 1613 
Q 991 1019 1311 708 
Q 1631 397 2203 397 
Q 2534 397 2845 478 
Q 3156 559 3463 722 
L 3463 178 
Q 3153 47 2828 -22 
Q 2503 -91 2169 -91 
Q 1331 -91 842 396 
Q 353 884 353 1716 
Q 353 2575 817 3079 
Q 1281 3584 2069 3584 
Q 2775 3584 3186 3129 
Q 3597 2675 3597 1894 
z
M 3022 2063 
Q 3016 2534 2758 2815 
Q 2500 3097 2075 3097 
Q 1594 3097 1305 2825 
Q 1016 2553 972 2059 
L 3022 2063 
z
" transform="scale(0.015625)"/>
      <path id="DejaVuSans-20" transform="scale(0.015625)"/>
      <path id="DejaVuSans-7b" d="M 3272 -594 
L 3272 -1044 
L 3078 -1044 
Q 2300 -1044 2036 -812 
Q 1772 -581 1772 109 
L 1772 856 
Q 1772 1328 1603 1509 
Q 1434 1691 991 1691 
L 800 1691 
L 800 2138 
L 991 2138 
Q 1438 2138 1605 2317 
Q 1772 2497 1772 2963 
L 1772 3713 
Q 1772 4403 2036 4633 
Q 2300 4863 3078 4863 
L 3272 4863 
L 3272 4416 
L 3059 4416 
Q 2619 4416 2484 4278 
Q 2350 4141 2350 3700 
L 2350 2925 
Q 2350 2434 2208 2212 
Q 2066 1991 1722 1913 
Q 2069 1828 2209 1606 
Q 2350 1384 2350 897 
L 2350 122 
Q 2350 -319 2484 -456 
Q 2619 -594 3059 -594 
L 3272 -594 
z
" transform="scale(0.015625)"/>
      <path id="DejaVuSans-28" d="M 1984 4856 
Q 1566 4138 1362 3434 
Q 1159 2731 1159 2009 
Q 1159 1288 1364 580 
Q 1569 -128 1984 -844 
L 1484 -844 
Q 1016 -109 783 600 
Q 550 1309 550 2009 
Q 550 2706 781 3412 
Q 1013 4119 1484 4856 
L 1984 4856 
z
" transform="scale(0.015625)"/>
      <path id="DejaVuSans-62" d="M 3116 1747 
Q 3116 2381 2855 2742 
Q 2594 3103 2138 3103 
Q 1681 3103 1420 2742 
Q 1159 2381 1159 1747 
Q 1159 1113 1420 752 
Q 1681 391 2138 391 
Q 2594 391 2855 752 
Q 3116 1113 3116 1747 
z
M 1159 2969 
Q 1341 3281 1617 3432 
Q 1894 3584 2278 3584 
Q 2916 3584 3314 3078 
Q 3713 2572 3713 1747 
Q 3713 922 3314 415 
Q 2916 -91 2278 -91 
Q 1894 -91 1617 61 
Q 1341 213 1159 525 
L 1159 0 
L 581 0 
L 581 4863 
L 1159 4863 
L 1159 2969 
z
" transform="scale(0.015625)"/>
      <path id="DejaVuSans-29" d="M 513 4856 
L 1013 4856 
Q 1481 4119 1714 3412 
Q 1947 2706 1947 2009 
Q 1947 1309 1714 600 
Q 1481 -109 1013 -844 
L 513 -844 
Q 928 -128 1133 580 
Q 1338 1288 1338 2009 
Q 1338 2731 1133 3434 
Q 928 4138 513 4856 
z
" transform="scale(0.015625)"/>
      <path id="DejaVuSans-2c" d="M 750 794 
L 1409 794 
L 1409 256 
L 897 -744 
L 494 -744 
L 750 256 
L 750 794 
z
" transform="scale(0.015625)"/>
      <path id="DejaVuSans-7d" d="M 800 -594 
L 1019 -594 
Q 1456 -594 1589 -459 
Q 1722 -325 1722 122 
L 1722 897 
Q 1722 1384 1862 1606 
Q 2003 1828 2350 1913 
Q 2003 1991 1862 2212 
Q 1722 2434 1722 2925 
L 1722 3700 
Q 1722 4144 1589 4280 
Q 1456 4416 1019 4416 
L 800 4416 
L 800 4863 
L 997 4863 
Q 1775 4863 2036 4633 
Q 2297 4403 2297 3713 
L 2297 2963 
Q 2297 2497 2465 2317 
Q 2634 2138 3078 2138 
L 3272 2138 
L 3272 1691 
L 3078 1691 
Q 2634 1691 2465 1509 
Q 2297 1328 2297 856 
L 2297 109 
Q 2297 -581 2036 -812 
Q 1775 -1044 997 -1044 
L 800 -1044 
L 800 -594 
z
" transform="scale(0.015625)"/>
     </defs>
     <use xlink:href="#DejaVuSans-41a"/>
     <use xlink:href="#DejaVuSans-440" transform="translate(70.996094 0)"/>
     <use xlink:href="#DejaVuSans-438" transform="translate(134.472656 0)"/>
     <use xlink:href="#DejaVuSans-432" transform="translate(199.462891 0)"/>
     <use xlink:href="#DejaVuSans-44b" transform="translate(258.398438 0)"/>
     <use xlink:href="#DejaVuSans-435" transform="translate(337.353516 0)"/>
     <use xlink:href="#DejaVuSans-20" transform="translate(398.876953 0)"/>
     <use xlink:href="#DejaVuSans-7b" transform="translate(430.664062 0)"/>
     <use xlink:href="#DejaVuSans-73" transform="translate(494.287109 0)"/>
     <use xlink:href="#DejaVuSans-2a" transform="translate(546.386719 0)"/>
     <use xlink:href="#DejaVuSans-28" transform="translate(596.386719 0)"/>
     <use xlink:href="#DejaVuSans-62" transform="translate(635.400391 0)"/>
     <use xlink:href="#DejaVuSans-29" transform="translate(698.876953 0)"/>
     <use xlink:href="#DejaVuSans-2c" transform="translate(737.890625 0)"/>
     <use xlink:href="#DejaVuSans-20" transform="translate(769.677734 0)"/>
     <use xlink:href="#DejaVuSans-77" transform="translate(801.464844 0)"/>
     <use xlink:href="#DejaVuSans-2a" transform="translate(883.251953 0)"/>
     <use xlink:href="#DejaVuSans-28" transform="translate(933.251953 0)"/>
     <use xlink:href="#DejaVuSans-62" transform="translate(972.265625 0)"/>
     <use xlink:href="#DejaVuSans-29" transform="translate(1035.742188 0)"/>
     <use xlink:href="#DejaVuSans-7d" transform="translate(1074.755859 0)"/>
    </g>
   </g>
   <g id="legend_1">
    <g id="patch_7">
     <path d="M 54.72 78.914375 
L 149.046562 78.914375 
Q 151.046562 78.914375 151.046562 76.914375 
L 151.046562 33.88 
Q 151.046562 31.88 149.046562 31.88 
L 54.72 31.88 
Q 52.72 31.88 52.72 33.88 
L 52.72 76.914375 
Q 52.72 78.914375 54.72 78.914375 
z
" style="fill: #ffffff; opacity: 0.8; stroke: #cccccc; stroke-linejoin: miter"/>
    </g>
    <g id="line2d_32">
     <path d="M 56.72 39.978437 
L 66.72 39.978437 
L 76.72 39.978437 
" style="fill: none; stroke: #000000; stroke-width: 1.5; stroke-linecap: square"/>
    </g>
    <g id="text_18">
     <!-- g=exp -->
     <g transform="translate(84.72 43.478437) scale(0.1 -0.1)">
      <defs>
       <path id="DejaVuSans-67" d="M 2906 1791 
Q 2906 2416 2648 2759 
Q 2391 3103 1925 3103 
Q 1463 3103 1205 2759 
Q 947 2416 947 1791 
Q 947 1169 1205 825 
Q 1463 481 1925 481 
Q 2391 481 2648 825 
Q 2906 1169 2906 1791 
z
M 3481 434 
Q 3481 -459 3084 -895 
Q 2688 -1331 1869 -1331 
Q 1566 -1331 1297 -1286 
Q 1028 -1241 775 -1147 
L 775 -588 
Q 1028 -725 1275 -790 
Q 1522 -856 1778 -856 
Q 2344 -856 2625 -561 
Q 2906 -266 2906 331 
L 2906 616 
Q 2728 306 2450 153 
Q 2172 0 1784 0 
Q 1141 0 747 490 
Q 353 981 353 1791 
Q 353 2603 747 3093 
Q 1141 3584 1784 3584 
Q 2172 3584 2450 3431 
Q 2728 3278 2906 2969 
L 2906 3500 
L 3481 3500 
L 3481 434 
z
" transform="scale(0.015625)"/>
       <path id="DejaVuSans-3d" d="M 678 2906 
L 4684 2906 
L 4684 2381 
L 678 2381 
L 678 2906 
z
M 678 1631 
L 4684 1631 
L 4684 1100 
L 678 1100 
L 678 1631 
z
" transform="scale(0.015625)"/>
       <path id="DejaVuSans-65" d="M 3597 1894 
L 3597 1613 
L 953 1613 
Q 991 1019 1311 708 
Q 1631 397 2203 397 
Q 2534 397 2845 478 
Q 3156 559 3463 722 
L 3463 178 
Q 3153 47 2828 -22 
Q 2503 -91 2169 -91 
Q 1331 -91 842 396 
Q 353 884 353 1716 
Q 353 2575 817 3079 
Q 1281 3584 2069 3584 
Q 2775 3584 3186 3129 
Q 3597 2675 3597 1894 
z
M 3022 2063 
Q 3016 2534 2758 2815 
Q 2500 3097 2075 3097 
Q 1594 3097 1305 2825 
Q 1016 2553 972 2059 
L 3022 2063 
z
" transform="scale(0.015625)"/>
       <path id="DejaVuSans-78" d="M 3513 3500 
L 2247 1797 
L 3578 0 
L 2900 0 
L 1881 1375 
L 863 0 
L 184 0 
L 1544 1831 
L 300 3500 
L 978 3500 
L 1906 2253 
L 2834 3500 
L 3513 3500 
z
" transform="scale(0.015625)"/>
       <path id="DejaVuSans-70" d="M 1159 525 
L 1159 -1331 
L 581 -1331 
L 581 3500 
L 1159 3500 
L 1159 2969 
Q 1341 3281 1617 3432 
Q 1894 3584 2278 3584 
Q 2916 3584 3314 3078 
Q 3713 2572 3713 1747 
Q 3713 922 3314 415 
Q 2916 -91 2278 -91 
Q 1894 -91 1617 61 
Q 1341 213 1159 525 
z
M 3116 1747 
Q 3116 2381 2855 2742 
Q 2594 3103 2138 3103 
Q 1681 3103 1420 2742 
Q 1159 2381 1159 1747 
Q 1159 1113 1420 752 
Q 1681 391 2138 391 
Q 2594 391 2855 752 
Q 3116 1113 3116 1747 
z
" transform="scale(0.015625)"/>
      </defs>
      <use xlink:href="#DejaVuSans-67"/>
      <use xlink:href="#DejaVuSans-3d" transform="translate(63.476562 0)"/>
      <use xlink:href="#DejaVuSans-65" transform="translate(147.265625 0)"/>
      <use xlink:href="#DejaVuSans-78" transform="translate(207.039062 0)"/>
      <use xlink:href="#DejaVuSans-70" transform="translate(266.21875 0)"/>
     </g>
    </g>
    <g id="line2d_33">
     <path d="M 56.72 54.656563 
L 66.72 54.656563 
L 76.72 54.656563 
" style="fill: none; stroke-dasharray: 5.55,2.4; stroke-dashoffset: 0; stroke: #0000ff; stroke-width: 1.5"/>
    </g>
    <g id="text_19">
     <!-- g=quadratic -->
     <g transform="translate(84.72 58.156563) scale(0.1 -0.1)">
      <defs>
       <path id="DejaVuSans-71" d="M 947 1747 
Q 947 1113 1208 752 
Q 1469 391 1925 391 
Q 2381 391 2643 752 
Q 2906 1113 2906 1747 
Q 2906 2381 2643 2742 
Q 2381 3103 1925 3103 
Q 1469 3103 1208 2742 
Q 947 2381 947 1747 
z
M 2906 525 
Q 2725 213 2448 61 
Q 2172 -91 1784 -91 
Q 1150 -91 751 415 
Q 353 922 353 1747 
Q 353 2572 751 3078 
Q 1150 3584 1784 3584 
Q 2172 3584 2448 3432 
Q 2725 3281 2906 2969 
L 2906 3500 
L 3481 3500 
L 3481 -1331 
L 2906 -1331 
L 2906 525 
z
" transform="scale(0.015625)"/>
       <path id="DejaVuSans-75" d="M 544 1381 
L 544 3500 
L 1119 3500 
L 1119 1403 
Q 1119 906 1312 657 
Q 1506 409 1894 409 
Q 2359 409 2629 706 
Q 2900 1003 2900 1516 
L 2900 3500 
L 3475 3500 
L 3475 0 
L 2900 0 
L 2900 538 
Q 2691 219 2414 64 
Q 2138 -91 1772 -91 
Q 1169 -91 856 284 
Q 544 659 544 1381 
z
M 1991 3584 
L 1991 3584 
z
" transform="scale(0.015625)"/>
       <path id="DejaVuSans-61" d="M 2194 1759 
Q 1497 1759 1228 1600 
Q 959 1441 959 1056 
Q 959 750 1161 570 
Q 1363 391 1709 391 
Q 2188 391 2477 730 
Q 2766 1069 2766 1631 
L 2766 1759 
L 2194 1759 
z
M 3341 1997 
L 3341 0 
L 2766 0 
L 2766 531 
Q 2569 213 2275 61 
Q 1981 -91 1556 -91 
Q 1019 -91 701 211 
Q 384 513 384 1019 
Q 384 1609 779 1909 
Q 1175 2209 1959 2209 
L 2766 2209 
L 2766 2266 
Q 2766 2663 2505 2880 
Q 2244 3097 1772 3097 
Q 1472 3097 1187 3025 
Q 903 2953 641 2809 
L 641 3341 
Q 956 3463 1253 3523 
Q 1550 3584 1831 3584 
Q 2591 3584 2966 3190 
Q 3341 2797 3341 1997 
z
" transform="scale(0.015625)"/>
       <path id="DejaVuSans-64" d="M 2906 2969 
L 2906 4863 
L 3481 4863 
L 3481 0 
L 2906 0 
L 2906 525 
Q 2725 213 2448 61 
Q 2172 -91 1784 -91 
Q 1150 -91 751 415 
Q 353 922 353 1747 
Q 353 2572 751 3078 
Q 1150 3584 1784 3584 
Q 2172 3584 2448 3432 
Q 2725 3281 2906 2969 
z
M 947 1747 
Q 947 1113 1208 752 
Q 1469 391 1925 391 
Q 2381 391 2643 752 
Q 2906 1113 2906 1747 
Q 2906 2381 2643 2742 
Q 2381 3103 1925 3103 
Q 1469 3103 1208 2742 
Q 947 2381 947 1747 
z
" transform="scale(0.015625)"/>
       <path id="DejaVuSans-72" d="M 2631 2963 
Q 2534 3019 2420 3045 
Q 2306 3072 2169 3072 
Q 1681 3072 1420 2755 
Q 1159 2438 1159 1844 
L 1159 0 
L 581 0 
L 581 3500 
L 1159 3500 
L 1159 2956 
Q 1341 3275 1631 3429 
Q 1922 3584 2338 3584 
Q 2397 3584 2469 3576 
Q 2541 3569 2628 3553 
L 2631 2963 
z
" transform="scale(0.015625)"/>
       <path id="DejaVuSans-74" d="M 1172 4494 
L 1172 3500 
L 2356 3500 
L 2356 3053 
L 1172 3053 
L 1172 1153 
Q 1172 725 1289 603 
Q 1406 481 1766 481 
L 2356 481 
L 2356 0 
L 1766 0 
Q 1100 0 847 248 
Q 594 497 594 1153 
L 594 3053 
L 172 3053 
L 172 3500 
L 594 3500 
L 594 4494 
L 1172 4494 
z
" transform="scale(0.015625)"/>
       <path id="DejaVuSans-69" d="M 603 3500 
L 1178 3500 
L 1178 0 
L 603 0 
L 603 3500 
z
M 603 4863 
L 1178 4863 
L 1178 4134 
L 603 4134 
L 603 4863 
z
" transform="scale(0.015625)"/>
       <path id="DejaVuSans-63" d="M 3122 3366 
L 3122 2828 
Q 2878 2963 2633 3030 
Q 2388 3097 2138 3097 
Q 1578 3097 1268 2742 
Q 959 2388 959 1747 
Q 959 1106 1268 751 
Q 1578 397 2138 397 
Q 2388 397 2633 464 
Q 2878 531 3122 666 
L 3122 134 
Q 2881 22 2623 -34 
Q 2366 -91 2075 -91 
Q 1284 -91 818 406 
Q 353 903 353 1747 
Q 353 2603 823 3093 
Q 1294 3584 2113 3584 
Q 2378 3584 2631 3529 
Q 2884 3475 3122 3366 
z
" transform="scale(0.015625)"/>
      </defs>
      <use xlink:href="#DejaVuSans-67"/>
      <use xlink:href="#DejaVuSans-3d" transform="translate(63.476562 0)"/>
      <use xlink:href="#DejaVuSans-71" transform="translate(147.265625 0)"/>
      <use xlink:href="#DejaVuSans-75" transform="translate(210.742188 0)"/>
      <use xlink:href="#DejaVuSans-61" transform="translate(274.121094 0)"/>
      <use xlink:href="#DejaVuSans-64" transform="translate(335.400391 0)"/>
      <use xlink:href="#DejaVuSans-72" transform="translate(398.876953 0)"/>
      <use xlink:href="#DejaVuSans-61" transform="translate(439.990234 0)"/>
      <use xlink:href="#DejaVuSans-74" transform="translate(501.269531 0)"/>
      <use xlink:href="#DejaVuSans-69" transform="translate(540.478516 0)"/>
      <use xlink:href="#DejaVuSans-63" transform="translate(568.261719 0)"/>
     </g>
    </g>
    <g id="line2d_34">
     <path d="M 56.72 69.334687 
L 66.72 69.334687 
L 76.72 69.334687 
" style="fill: none; stroke-dasharray: 1.5,2.475; stroke-dashoffset: 0; stroke: #ff0000; stroke-width: 1.5"/>
    </g>
    <g id="text_20">
     <!-- g=linear -->
     <g transform="translate(84.72 72.834687) scale(0.1 -0.1)">
      <defs>
       <path id="DejaVuSans-6c" d="M 603 4863 
L 1178 4863 
L 1178 0 
L 603 0 
L 603 4863 
z
" transform="scale(0.015625)"/>
       <path id="DejaVuSans-6e" d="M 3513 2113 
L 3513 0 
L 2938 0 
L 2938 2094 
Q 2938 2591 2744 2837 
Q 2550 3084 2163 3084 
Q 1697 3084 1428 2787 
Q 1159 2491 1159 1978 
L 1159 0 
L 581 0 
L 581 3500 
L 1159 3500 
L 1159 2956 
Q 1366 3272 1645 3428 
Q 1925 3584 2291 3584 
Q 2894 3584 3203 3211 
Q 3513 2838 3513 2113 
z
" transform="scale(0.015625)"/>
      </defs>
      <use xlink:href="#DejaVuSans-67"/>
      <use xlink:href="#DejaVuSans-3d" transform="translate(63.476562 0)"/>
      <use xlink:href="#DejaVuSans-6c" transform="translate(147.265625 0)"/>
      <use xlink:href="#DejaVuSans-69" transform="translate(175.048828 0)"/>
      <use xlink:href="#DejaVuSans-6e" transform="translate(202.832031 0)"/>
      <use xlink:href="#DejaVuSans-65" transform="translate(266.210938 0)"/>
      <use xlink:href="#DejaVuSans-61" transform="translate(327.734375 0)"/>
      <use xlink:href="#DejaVuSans-72" transform="translate(389.013672 0)"/>
     </g>
    </g>
   </g>
  </g>
  <g id="axes_2">
   <g id="patch_8">
    <path d="M 555.905 390.04 
L 997.2 390.04 
L 997.2 26.88 
L 555.905 26.88 
z
" style="fill: #ffffff"/>
   </g>
   <g id="matplotlib.axis_3">
    <g id="xtick_9">
     <g id="line2d_35">
      <path d="M 588.07298 390.04 
L 588.07298 26.88 
" clip-path="url(#p8e83b6a4d8)" style="fill: none; stroke: #b0b0b0; stroke-opacity: 0.3; stroke-width: 0.8; stroke-linecap: square"/>
     </g>
     <g id="line2d_36">
      <g>
       <use xlink:href="#ma0cbca7c96" x="588.07298" y="390.04" style="stroke: #000000; stroke-width: 0.8"/>
      </g>
     </g>
     <g id="text_21">
      <!-- 0.90 -->
      <g transform="translate(576.940167 404.638438) scale(0.1 -0.1)">
       <use xlink:href="#DejaVuSans-30"/>
       <use xlink:href="#DejaVuSans-2e" transform="translate(63.623047 0)"/>
       <use xlink:href="#DejaVuSans-39" transform="translate(95.410156 0)"/>
       <use xlink:href="#DejaVuSans-30" transform="translate(159.033203 0)"/>
      </g>
     </g>
    </g>
    <g id="xtick_10">
     <g id="line2d_37">
      <path d="M 666.676108 390.04 
L 666.676108 26.88 
" clip-path="url(#p8e83b6a4d8)" style="fill: none; stroke: #b0b0b0; stroke-opacity: 0.3; stroke-width: 0.8; stroke-linecap: square"/>
     </g>
     <g id="line2d_38">
      <g>
       <use xlink:href="#ma0cbca7c96" x="666.676108" y="390.04" style="stroke: #000000; stroke-width: 0.8"/>
      </g>
     </g>
     <g id="text_22">
      <!-- 0.92 -->
      <g transform="translate(655.543295 404.638438) scale(0.1 -0.1)">
       <defs>
        <path id="DejaVuSans-32" d="M 1228 531 
L 3431 531 
L 3431 0 
L 469 0 
L 469 531 
Q 828 903 1448 1529 
Q 2069 2156 2228 2338 
Q 2531 2678 2651 2914 
Q 2772 3150 2772 3378 
Q 2772 3750 2511 3984 
Q 2250 4219 1831 4219 
Q 1534 4219 1204 4116 
Q 875 4013 500 3803 
L 500 4441 
Q 881 4594 1212 4672 
Q 1544 4750 1819 4750 
Q 2544 4750 2975 4387 
Q 3406 4025 3406 3419 
Q 3406 3131 3298 2873 
Q 3191 2616 2906 2266 
Q 2828 2175 2409 1742 
Q 1991 1309 1228 531 
z
" transform="scale(0.015625)"/>
       </defs>
       <use xlink:href="#DejaVuSans-30"/>
       <use xlink:href="#DejaVuSans-2e" transform="translate(63.623047 0)"/>
       <use xlink:href="#DejaVuSans-39" transform="translate(95.410156 0)"/>
       <use xlink:href="#DejaVuSans-32" transform="translate(159.033203 0)"/>
      </g>
     </g>
    </g>
    <g id="xtick_11">
     <g id="line2d_39">
      <path d="M 745.279236 390.04 
L 745.279236 26.88 
" clip-path="url(#p8e83b6a4d8)" style="fill: none; stroke: #b0b0b0; stroke-opacity: 0.3; stroke-width: 0.8; stroke-linecap: square"/>
     </g>
     <g id="line2d_40">
      <g>
       <use xlink:href="#ma0cbca7c96" x="745.279236" y="390.04" style="stroke: #000000; stroke-width: 0.8"/>
      </g>
     </g>
     <g id="text_23">
      <!-- 0.94 -->
      <g transform="translate(734.146424 404.638438) scale(0.1 -0.1)">
       <use xlink:href="#DejaVuSans-30"/>
       <use xlink:href="#DejaVuSans-2e" transform="translate(63.623047 0)"/>
       <use xlink:href="#DejaVuSans-39" transform="translate(95.410156 0)"/>
       <use xlink:href="#DejaVuSans-34" transform="translate(159.033203 0)"/>
      </g>
     </g>
    </g>
    <g id="xtick_12">
     <g id="line2d_41">
      <path d="M 823.882364 390.04 
L 823.882364 26.88 
" clip-path="url(#p8e83b6a4d8)" style="fill: none; stroke: #b0b0b0; stroke-opacity: 0.3; stroke-width: 0.8; stroke-linecap: square"/>
     </g>
     <g id="line2d_42">
      <g>
       <use xlink:href="#ma0cbca7c96" x="823.882364" y="390.04" style="stroke: #000000; stroke-width: 0.8"/>
      </g>
     </g>
     <g id="text_24">
      <!-- 0.96 -->
      <g transform="translate(812.749552 404.638438) scale(0.1 -0.1)">
       <use xlink:href="#DejaVuSans-30"/>
       <use xlink:href="#DejaVuSans-2e" transform="translate(63.623047 0)"/>
       <use xlink:href="#DejaVuSans-39" transform="translate(95.410156 0)"/>
       <use xlink:href="#DejaVuSans-36" transform="translate(159.033203 0)"/>
      </g>
     </g>
    </g>
    <g id="xtick_13">
     <g id="line2d_43">
      <path d="M 902.485492 390.04 
L 902.485492 26.88 
" clip-path="url(#p8e83b6a4d8)" style="fill: none; stroke: #b0b0b0; stroke-opacity: 0.3; stroke-width: 0.8; stroke-linecap: square"/>
     </g>
     <g id="line2d_44">
      <g>
       <use xlink:href="#ma0cbca7c96" x="902.485492" y="390.04" style="stroke: #000000; stroke-width: 0.8"/>
      </g>
     </g>
     <g id="text_25">
      <!-- 0.98 -->
      <g transform="translate(891.35268 404.638438) scale(0.1 -0.1)">
       <use xlink:href="#DejaVuSans-30"/>
       <use xlink:href="#DejaVuSans-2e" transform="translate(63.623047 0)"/>
       <use xlink:href="#DejaVuSans-39" transform="translate(95.410156 0)"/>
       <use xlink:href="#DejaVuSans-38" transform="translate(159.033203 0)"/>
      </g>
     </g>
    </g>
    <g id="xtick_14">
     <g id="line2d_45">
      <path d="M 981.088621 390.04 
L 981.088621 26.88 
" clip-path="url(#p8e83b6a4d8)" style="fill: none; stroke: #b0b0b0; stroke-opacity: 0.3; stroke-width: 0.8; stroke-linecap: square"/>
     </g>
     <g id="line2d_46">
      <g>
       <use xlink:href="#ma0cbca7c96" x="981.088621" y="390.04" style="stroke: #000000; stroke-width: 0.8"/>
      </g>
     </g>
     <g id="text_26">
      <!-- 1.00 -->
      <g transform="translate(969.955808 404.638438) scale(0.1 -0.1)">
       <use xlink:href="#DejaVuSans-31"/>
       <use xlink:href="#DejaVuSans-2e" transform="translate(63.623047 0)"/>
       <use xlink:href="#DejaVuSans-30" transform="translate(95.410156 0)"/>
       <use xlink:href="#DejaVuSans-30" transform="translate(159.033203 0)"/>
      </g>
     </g>
    </g>
    <g id="text_27">
     <!-- s* -->
     <g transform="translate(771.447812 418.316562) scale(0.1 -0.1)">
      <use xlink:href="#DejaVuSans-73"/>
      <use xlink:href="#DejaVuSans-2a" transform="translate(52.099609 0)"/>
     </g>
    </g>
   </g>
   <g id="matplotlib.axis_4">
    <g id="ytick_7">
     <g id="line2d_47">
      <path d="M 555.905 328.383252 
L 997.2 328.383252 
" clip-path="url(#p8e83b6a4d8)" style="fill: none; stroke: #b0b0b0; stroke-opacity: 0.3; stroke-width: 0.8; stroke-linecap: square"/>
     </g>
     <g id="line2d_48">
      <g>
       <use xlink:href="#m435191436a" x="555.905" y="328.383252" style="stroke: #000000; stroke-width: 0.8"/>
      </g>
     </g>
     <g id="text_28">
      <!-- 0.9892 -->
      <g transform="translate(513.914375 332.182471) scale(0.1 -0.1)">
       <use xlink:href="#DejaVuSans-30"/>
       <use xlink:href="#DejaVuSans-2e" transform="translate(63.623047 0)"/>
       <use xlink:href="#DejaVuSans-39" transform="translate(95.410156 0)"/>
       <use xlink:href="#DejaVuSans-38" transform="translate(159.033203 0)"/>
       <use xlink:href="#DejaVuSans-39" transform="translate(222.65625 0)"/>
       <use xlink:href="#DejaVuSans-32" transform="translate(286.279297 0)"/>
      </g>
     </g>
    </g>
    <g id="ytick_8">
     <g id="line2d_49">
      <path d="M 555.905 258.770746 
L 997.2 258.770746 
" clip-path="url(#p8e83b6a4d8)" style="fill: none; stroke: #b0b0b0; stroke-opacity: 0.3; stroke-width: 0.8; stroke-linecap: square"/>
     </g>
     <g id="line2d_50">
      <g>
       <use xlink:href="#m435191436a" x="555.905" y="258.770746" style="stroke: #000000; stroke-width: 0.8"/>
      </g>
     </g>
     <g id="text_29">
      <!-- 0.9894 -->
      <g transform="translate(513.914375 262.569965) scale(0.1 -0.1)">
       <use xlink:href="#DejaVuSans-30"/>
       <use xlink:href="#DejaVuSans-2e" transform="translate(63.623047 0)"/>
       <use xlink:href="#DejaVuSans-39" transform="translate(95.410156 0)"/>
       <use xlink:href="#DejaVuSans-38" transform="translate(159.033203 0)"/>
       <use xlink:href="#DejaVuSans-39" transform="translate(222.65625 0)"/>
       <use xlink:href="#DejaVuSans-34" transform="translate(286.279297 0)"/>
      </g>
     </g>
    </g>
    <g id="ytick_9">
     <g id="line2d_51">
      <path d="M 555.905 189.15824 
L 997.2 189.15824 
" clip-path="url(#p8e83b6a4d8)" style="fill: none; stroke: #b0b0b0; stroke-opacity: 0.3; stroke-width: 0.8; stroke-linecap: square"/>
     </g>
     <g id="line2d_52">
      <g>
       <use xlink:href="#m435191436a" x="555.905" y="189.15824" style="stroke: #000000; stroke-width: 0.8"/>
      </g>
     </g>
     <g id="text_30">
      <!-- 0.9896 -->
      <g transform="translate(513.914375 192.957459) scale(0.1 -0.1)">
       <use xlink:href="#DejaVuSans-30"/>
       <use xlink:href="#DejaVuSans-2e" transform="translate(63.623047 0)"/>
       <use xlink:href="#DejaVuSans-39" transform="translate(95.410156 0)"/>
       <use xlink:href="#DejaVuSans-38" transform="translate(159.033203 0)"/>
       <use xlink:href="#DejaVuSans-39" transform="translate(222.65625 0)"/>
       <use xlink:href="#DejaVuSans-36" transform="translate(286.279297 0)"/>
      </g>
     </g>
    </g>
    <g id="ytick_10">
     <g id="line2d_53">
      <path d="M 555.905 119.545734 
L 997.2 119.545734 
" clip-path="url(#p8e83b6a4d8)" style="fill: none; stroke: #b0b0b0; stroke-opacity: 0.3; stroke-width: 0.8; stroke-linecap: square"/>
     </g>
     <g id="line2d_54">
      <g>
       <use xlink:href="#m435191436a" x="555.905" y="119.545734" style="stroke: #000000; stroke-width: 0.8"/>
      </g>
     </g>
     <g id="text_31">
      <!-- 0.9898 -->
      <g transform="translate(513.914375 123.344953) scale(0.1 -0.1)">
       <use xlink:href="#DejaVuSans-30"/>
       <use xlink:href="#DejaVuSans-2e" transform="translate(63.623047 0)"/>
       <use xlink:href="#DejaVuSans-39" transform="translate(95.410156 0)"/>
       <use xlink:href="#DejaVuSans-38" transform="translate(159.033203 0)"/>
       <use xlink:href="#DejaVuSans-39" transform="translate(222.65625 0)"/>
       <use xlink:href="#DejaVuSans-38" transform="translate(286.279297 0)"/>
      </g>
     </g>
    </g>
    <g id="ytick_11">
     <g id="line2d_55">
      <path d="M 555.905 49.933228 
L 997.2 49.933228 
" clip-path="url(#p8e83b6a4d8)" style="fill: none; stroke: #b0b0b0; stroke-opacity: 0.3; stroke-width: 0.8; stroke-linecap: square"/>
     </g>
     <g id="line2d_56">
      <g>
       <use xlink:href="#m435191436a" x="555.905" y="49.933228" style="stroke: #000000; stroke-width: 0.8"/>
      </g>
     </g>
     <g id="text_32">
      <!-- 0.9900 -->
      <g transform="translate(513.914375 53.732446) scale(0.1 -0.1)">
       <use xlink:href="#DejaVuSans-30"/>
       <use xlink:href="#DejaVuSans-2e" transform="translate(63.623047 0)"/>
       <use xlink:href="#DejaVuSans-39" transform="translate(95.410156 0)"/>
       <use xlink:href="#DejaVuSans-39" transform="translate(159.033203 0)"/>
       <use xlink:href="#DejaVuSans-30" transform="translate(222.65625 0)"/>
       <use xlink:href="#DejaVuSans-30" transform="translate(286.279297 0)"/>
      </g>
     </g>
    </g>
    <g id="text_33">
     <!-- w* -->
     <g transform="translate(507.834687 215.049062) rotate(-90) scale(0.1 -0.1)">
      <use xlink:href="#DejaVuSans-77"/>
      <use xlink:href="#DejaVuSans-2a" transform="translate(81.787109 0)"/>
     </g>
    </g>
   </g>
   <g id="line2d_57">
    <path d="M 976.771797 373.532727 
L 972.460654 373.12001 
L 968.155183 372.70788 
L 963.855374 372.296336 
L 959.561215 371.885377 
L 955.272697 371.475001 
L 950.98981 371.065208 
L 946.712543 370.655996 
L 942.440886 370.247365 
L 938.174829 369.839312 
L 933.914363 369.431838 
L 929.659476 369.02494 
L 925.410159 368.618618 
L 921.166401 368.21287 
L 916.928194 367.807696 
L 912.695527 367.403094 
L 908.468389 366.999064 
L 904.246772 366.595603 
L 900.030664 366.192711 
L 895.820057 365.790387 
L 891.614941 365.38863 
L 887.415305 364.987438 
L 883.22114 364.586811 
L 879.032436 364.186747 
L 874.849184 363.787245 
L 870.671373 363.388305 
L 866.498994 362.989925 
L 862.332037 362.592103 
L 858.170493 362.19484 
L 854.014352 361.798134 
L 849.863605 361.401983 
L 845.718242 361.006387 
L 841.578253 360.611344 
L 837.443629 360.216855 
L 833.31436 359.822916 
L 829.190438 359.429528 
L 825.071851 359.03669 
L 820.958592 358.644399 
L 816.850651 358.252656 
L 812.748018 357.861459 
L 808.650684 357.470808 
L 804.55864 357.0807 
L 800.471876 356.691136 
L 796.390383 356.302113 
L 792.314152 355.913631 
L 788.243174 355.52569 
L 784.17744 355.138287 
L 780.116939 354.751422 
L 776.061664 354.365094 
L 772.011605 353.979302 
L 767.966752 353.594045 
L 763.927098 353.209321 
L 759.892632 352.82513 
L 755.863346 352.441471 
L 751.839231 352.058343 
L 747.820277 351.675744 
L 743.806477 351.293674 
L 739.79782 350.912132 
L 735.794297 350.531117 
L 731.795901 350.150627 
L 727.802622 349.770662 
L 723.814452 349.391221 
L 719.83138 349.012303 
L 715.8534 348.633906 
L 711.880501 348.25603 
L 707.912675 347.878674 
L 703.949913 347.501837 
L 699.992207 347.125518 
L 696.039548 346.749715 
L 692.091927 346.374429 
L 688.149336 345.999657 
L 684.211765 345.625399 
L 680.279207 345.251655 
L 676.351653 344.878422 
L 672.429093 344.505701 
L 668.51152 344.13349 
L 664.598925 343.761787 
L 660.6913 343.390594 
L 656.788636 343.019907 
L 652.890924 342.649727 
L 648.998156 342.280052 
L 645.110324 341.910882 
L 641.227419 341.542215 
L 637.349434 341.174051 
L 633.476358 340.806388 
L 629.608185 340.439226 
L 625.744906 340.072564 
L 621.886512 339.706401 
L 618.032995 339.340736 
L 614.184348 338.975568 
L 610.340561 338.610895 
L 606.501627 338.246719 
L 602.667537 337.883036 
L 598.838283 337.519847 
L 595.013857 337.15715 
L 591.194251 336.794945 
L 587.379457 336.43323 
L 583.569466 336.072006 
L 579.764271 335.71127 
L 575.963864 335.351022 
" clip-path="url(#p8e83b6a4d8)" style="fill: none; stroke: #000000; stroke-width: 1.5; stroke-linecap: square"/>
   </g>
   <g id="line2d_58">
    <path d="M 977.141136 49.520152 
L 973.197773 49.451798 
L 969.258524 49.383584 
L 965.323387 49.31551 
L 961.392355 49.247575 
L 957.465424 49.17978 
L 953.542589 49.112123 
L 949.623845 49.044604 
L 945.709187 48.977223 
L 941.798611 48.90998 
L 937.89211 48.842875 
L 933.989682 48.775907 
L 930.09132 48.709076 
L 926.19702 48.642381 
L 922.306777 48.575823 
L 918.420587 48.509401 
L 914.538444 48.443115 
L 910.660343 48.376964 
L 906.78628 48.310948 
L 902.916251 48.245067 
L 899.050249 48.179321 
L 895.188271 48.113709 
L 891.330312 48.048231 
L 887.476367 47.982887 
L 883.626431 47.917677 
L 879.780499 47.852599 
L 875.938567 47.787654 
L 872.10063 47.722842 
L 868.266683 47.658163 
L 864.436722 47.593615 
L 860.610742 47.529199 
L 856.788737 47.464915 
L 852.970705 47.400761 
L 849.156639 47.336739 
L 845.346535 47.272848 
L 841.540388 47.209086 
L 837.738194 47.145455 
L 833.939949 47.081954 
L 830.145647 47.018582 
L 826.355283 46.955339 
L 822.568854 46.892225 
L 818.786355 46.829241 
L 815.00778 46.766384 
L 811.233126 46.703656 
L 807.462387 46.641055 
L 803.69556 46.578582 
L 799.932639 46.516237 
L 796.173621 46.454019 
L 792.418499 46.391927 
L 788.667271 46.329962 
L 784.919931 46.268123 
L 781.176475 46.20641 
L 777.436897 46.144823 
L 773.701195 46.083362 
L 769.969363 46.022025 
L 766.241396 45.960814 
L 762.517291 45.899727 
L 758.797042 45.838765 
L 755.080645 45.777926 
L 751.368096 45.717212 
L 747.65939 45.656621 
L 743.954522 45.596154 
L 740.253489 45.53581 
L 736.556286 45.475588 
L 732.862908 45.415489 
L 729.173351 45.355513 
L 725.48761 45.295658 
L 721.805681 45.235925 
L 718.127559 45.176314 
L 714.453241 45.116824 
L 710.782722 45.057455 
L 707.115996 44.998207 
L 703.453061 44.93908 
L 699.793911 44.880072 
L 696.138542 44.821185 
L 692.48695 44.762418 
L 688.83913 44.703769 
L 685.195079 44.645241 
L 681.554791 44.586831 
L 677.918262 44.52854 
L 674.285488 44.470367 
L 670.656465 44.412313 
L 667.031188 44.354376 
L 663.409653 44.296558 
L 659.791855 44.238857 
L 656.177791 44.181273 
L 652.567456 44.123806 
L 648.960846 44.066456 
L 645.357956 44.009222 
L 641.758782 43.952105 
L 638.16332 43.895104 
L 634.571565 43.838218 
L 630.983514 43.781448 
L 627.399162 43.724793 
L 623.818505 43.668254 
L 620.241539 43.611829 
L 616.668258 43.555519 
L 613.09866 43.499323 
L 609.53274 43.443241 
L 605.970493 43.387273 
" clip-path="url(#p8e83b6a4d8)" style="fill: none; stroke-dasharray: 5.55,2.4; stroke-dashoffset: 0; stroke: #0000ff; stroke-width: 1.5"/>
   </g>
   <g id="line2d_59">
    <path d="M 976.791829 355.966126 
L 972.500581 355.594308 
L 968.214869 355.222969 
L 963.934683 354.852108 
L 959.660012 354.481724 
L 955.390848 354.111817 
L 951.127182 353.742385 
L 946.869003 353.373427 
L 942.616302 353.004944 
L 938.36907 352.636934 
L 934.127298 352.269396 
L 929.890976 351.902329 
L 925.660095 351.535733 
L 921.434646 351.169607 
L 917.214619 350.80395 
L 913.000005 350.438762 
L 908.790795 350.07404 
L 904.58698 349.709786 
L 900.38855 349.345997 
L 896.195496 348.982673 
L 892.007809 348.619814 
L 887.825481 348.257418 
L 883.648501 347.895485 
L 879.476861 347.534014 
L 875.310552 347.173004 
L 871.149565 346.812454 
L 866.99389 346.452364 
L 862.843519 346.092733 
L 858.698443 345.73356 
L 854.558653 345.374844 
L 850.424139 345.016584 
L 846.294894 344.658781 
L 842.170908 344.301432 
L 838.052171 343.944537 
L 833.938677 343.588096 
L 829.830415 343.232108 
L 825.727376 342.876571 
L 821.629553 342.521486 
L 817.536935 342.166851 
L 813.449516 341.812666 
L 809.367284 341.458929 
L 805.290233 341.105641 
L 801.218354 340.7528 
L 797.151637 340.400406 
L 793.090074 340.048457 
L 789.033656 339.696954 
L 784.982376 339.345895 
L 780.936224 338.99528 
L 776.895191 338.645108 
L 772.85927 338.295378 
L 768.828451 337.946089 
L 764.802726 337.597241 
L 760.782087 337.248834 
L 756.766525 336.900865 
L 752.756032 336.553335 
L 748.7506 336.206243 
L 744.750219 335.859588 
L 740.754882 335.513369 
L 736.76458 335.167586 
L 732.779305 334.822237 
L 728.799049 334.477323 
L 724.823803 334.132843 
L 720.853558 333.788795 
L 716.888308 333.445179 
L 712.928043 333.101995 
L 708.972755 332.759241 
L 705.022436 332.416917 
L 701.077078 332.075022 
L 697.136673 331.733556 
L 693.201212 331.392518 
L 689.270687 331.051906 
L 685.345091 330.711722 
L 681.424415 330.371962 
L 677.508651 330.032628 
L 673.597791 329.693718 
L 669.691827 329.355232 
L 665.790751 329.017169 
L 661.894555 328.679528 
L 658.003231 328.342308 
L 654.11677 328.00551 
L 650.235166 327.669131 
L 646.35841 327.333172 
L 642.486495 326.997632 
L 638.619411 326.66251 
L 634.757152 326.327805 
L 630.89971 325.993517 
L 627.047076 325.659645 
L 623.199243 325.326189 
L 619.356204 324.993147 
L 615.517949 324.660519 
L 611.684473 324.328305 
L 607.855766 323.996503 
L 604.031821 323.665114 
L 600.21263 323.334136 
L 596.398186 323.003568 
L 592.588481 322.673411 
L 588.783507 322.343663 
L 584.983257 322.014324 
L 581.187723 321.685393 
L 577.396898 321.356869 
" clip-path="url(#p8e83b6a4d8)" style="fill: none; stroke-dasharray: 1.5,2.475; stroke-dashoffset: 0; stroke: #ff0000; stroke-width: 1.5"/>
   </g>
   <g id="patch_9">
    <path d="M 555.905 390.04 
L 555.905 26.88 
" style="fill: none; stroke: #000000; stroke-width: 0.8; stroke-linejoin: miter; stroke-linecap: square"/>
   </g>
   <g id="patch_10">
    <path d="M 997.2 390.04 
L 997.2 26.88 
" style="fill: none; stroke: #000000; stroke-width: 0.8; stroke-linejoin: miter; stroke-linecap: square"/>
   </g>
   <g id="patch_11">
    <path d="M 555.905 390.04 
L 997.2 390.04 
" style="fill: none; stroke: #000000; stroke-width: 0.8; stroke-linejoin: miter; stroke-linecap: square"/>
   </g>
   <g id="patch_12">
    <path d="M 555.905 26.88 
L 997.2 26.88 
" style="fill: none; stroke: #000000; stroke-width: 0.8; stroke-linejoin: miter; stroke-linecap: square"/>
   </g>
   <g id="text_34">
    <!-- Кривые {s*(α), w*(α)} -->
    <g transform="translate(707.956562 20.88) scale(0.12 -0.12)">
     <defs>
      <path id="DejaVuSans-3b1" d="M 2644 1628 
L 2506 2350 
Q 2366 3091 1809 3091 
Q 1391 3091 1200 2747 
Q 959 2316 959 1747 
Q 959 1059 1194 731 
Q 1431 397 1809 397 
Q 2228 397 2453 1063 
L 2644 1628 
z
M 2966 2584 
L 3275 3500 
L 3788 3500 
L 3147 1603 
L 3272 919 
Q 3300 766 3409 638 
Q 3538 488 3638 488 
L 3913 488 
L 3913 0 
L 3569 0 
Q 3275 0 3013 263 
Q 2884 394 2831 669 
Q 2688 322 2394 50 
Q 2256 -78 1809 -78 
Q 1075 -78 719 397 
Q 353 888 353 1747 
Q 353 2666 750 3097 
Q 1191 3578 1809 3578 
Q 2781 3578 2966 2584 
z
" transform="scale(0.015625)"/>
     </defs>
     <use xlink:href="#DejaVuSans-41a"/>
     <use xlink:href="#DejaVuSans-440" transform="translate(70.996094 0)"/>
     <use xlink:href="#DejaVuSans-438" transform="translate(134.472656 0)"/>
     <use xlink:href="#DejaVuSans-432" transform="translate(199.462891 0)"/>
     <use xlink:href="#DejaVuSans-44b" transform="translate(258.398438 0)"/>
     <use xlink:href="#DejaVuSans-435" transform="translate(337.353516 0)"/>
     <use xlink:href="#DejaVuSans-20" transform="translate(398.876953 0)"/>
     <use xlink:href="#DejaVuSans-7b" transform="translate(430.664062 0)"/>
     <use xlink:href="#DejaVuSans-73" transform="translate(494.287109 0)"/>
     <use xlink:href="#DejaVuSans-2a" transform="translate(546.386719 0)"/>
     <use xlink:href="#DejaVuSans-28" transform="translate(596.386719 0)"/>
     <use xlink:href="#DejaVuSans-3b1" transform="translate(635.400391 0)"/>
     <use xlink:href="#DejaVuSans-29" transform="translate(701.318359 0)"/>
     <use xlink:href="#DejaVuSans-2c" transform="translate(740.332031 0)"/>
     <use xlink:href="#DejaVuSans-20" transform="translate(772.119141 0)"/>
     <use xlink:href="#DejaVuSans-77" transform="translate(803.90625 0)"/>
     <use xlink:href="#DejaVuSans-2a" transform="translate(885.693359 0)"/>
     <use xlink:href="#DejaVuSans-28" transform="translate(935.693359 0)"/>
     <use xlink:href="#DejaVuSans-3b1" transform="translate(974.707031 0)"/>
     <use xlink:href="#DejaVuSans-29" transform="translate(1040.625 0)"/>
     <use xlink:href="#DejaVuSans-7d" transform="translate(1079.638672 0)"/>
    </g>
   </g>
   <g id="legend_2">
    <g id="patch_13">
     <path d="M 895.873437 231.977188 
L 990.2 231.977188 
Q 992.2 231.977188 992.2 229.977188 
L 992.2 186.942813 
Q 992.2 184.942813 990.2 184.942813 
L 895.873437 184.942813 
Q 893.873437 184.942813 893.873437 186.942813 
L 893.873437 229.977188 
Q 893.873437 231.977188 895.873437 231.977188 
z
" style="fill: #ffffff; opacity: 0.8; stroke: #cccccc; stroke-linejoin: miter"/>
    </g>
    <g id="line2d_60">
     <path d="M 897.873437 193.04125 
L 907.873437 193.04125 
L 917.873437 193.04125 
" style="fill: none; stroke: #000000; stroke-width: 1.5; stroke-linecap: square"/>
    </g>
    <g id="text_35">
     <!-- g=exp -->
     <g transform="translate(925.873437 196.54125) scale(0.1 -0.1)">
      <use xlink:href="#DejaVuSans-67"/>
      <use xlink:href="#DejaVuSans-3d" transform="translate(63.476562 0)"/>
      <use xlink:href="#DejaVuSans-65" transform="translate(147.265625 0)"/>
      <use xlink:href="#DejaVuSans-78" transform="translate(207.039062 0)"/>
      <use xlink:href="#DejaVuSans-70" transform="translate(266.21875 0)"/>
     </g>
    </g>
    <g id="line2d_61">
     <path d="M 897.873437 207.719375 
L 907.873437 207.719375 
L 917.873437 207.719375 
" style="fill: none; stroke-dasharray: 5.55,2.4; stroke-dashoffset: 0; stroke: #0000ff; stroke-width: 1.5"/>
    </g>
    <g id="text_36">
     <!-- g=quadratic -->
     <g transform="translate(925.873437 211.219375) scale(0.1 -0.1)">
      <use xlink:href="#DejaVuSans-67"/>
      <use xlink:href="#DejaVuSans-3d" transform="translate(63.476562 0)"/>
      <use xlink:href="#DejaVuSans-71" transform="translate(147.265625 0)"/>
      <use xlink:href="#DejaVuSans-75" transform="translate(210.742188 0)"/>
      <use xlink:href="#DejaVuSans-61" transform="translate(274.121094 0)"/>
      <use xlink:href="#DejaVuSans-64" transform="translate(335.400391 0)"/>
      <use xlink:href="#DejaVuSans-72" transform="translate(398.876953 0)"/>
      <use xlink:href="#DejaVuSans-61" transform="translate(439.990234 0)"/>
      <use xlink:href="#DejaVuSans-74" transform="translate(501.269531 0)"/>
      <use xlink:href="#DejaVuSans-69" transform="translate(540.478516 0)"/>
      <use xlink:href="#DejaVuSans-63" transform="translate(568.261719 0)"/>
     </g>
    </g>
    <g id="line2d_62">
     <path d="M 897.873437 222.3975 
L 907.873437 222.3975 
L 917.873437 222.3975 
" style="fill: none; stroke-dasharray: 1.5,2.475; stroke-dashoffset: 0; stroke: #ff0000; stroke-width: 1.5"/>
    </g>
    <g id="text_37">
     <!-- g=linear -->
     <g transform="translate(925.873437 225.8975) scale(0.1 -0.1)">
      <use xlink:href="#DejaVuSans-67"/>
      <use xlink:href="#DejaVuSans-3d" transform="translate(63.476562 0)"/>
      <use xlink:href="#DejaVuSans-6c" transform="translate(147.265625 0)"/>
      <use xlink:href="#DejaVuSans-69" transform="translate(175.048828 0)"/>
      <use xlink:href="#DejaVuSans-6e" transform="translate(202.832031 0)"/>
      <use xlink:href="#DejaVuSans-65" transform="translate(266.210938 0)"/>
      <use xlink:href="#DejaVuSans-61" transform="translate(327.734375 0)"/>
      <use xlink:href="#DejaVuSans-72" transform="translate(389.013672 0)"/>
     </g>
    </g>
   </g>
  </g>
 </g>
 <defs>
  <clipPath id="pc6ae4b4ab2">
   <rect x="47.72" y="26.88" width="441.295" height="363.16"/>
  </clipPath>
  <clipPath id="p8e83b6a4d8">
   <rect x="555.905" y="26.88" width="441.295" height="363.16"/>
  </clipPath>
 </defs>
</svg>
