<?xml version="1.0" encoding="utf-8" standalone="no"?>
<!DOCTYPE svg PUBLIC "-//W3C//DTD SVG 1.1//EN"
  "http://www.w3.org/Graphics/SVG/1.1/DTD/svg11.dtd">
<svg xmlns:xlink="http://www.w3.org/1999/xlink" width="864pt" height="360pt" viewBox="0 0 864 360" xmlns="http://www.w3.org/2000/svg" version="1.1">
 <metadata>
  <rdf:RDF xmlns:dc="http://purl.org/dc/elements/1.1/" xmlns:cc="http://creativecommons.org/ns#" xmlns:rdf="http://www.w3.org/1999/02/22-rdf-syntax-ns#">
   <cc:Work>
    <dc:type rdf:resource="http://purl.org/dc/dcmitype/StillImage"/>
    <dc:date>2025-11-18T20:47:06.924399</dc:date>
    <dc:format>image/svg+xml</dc:format>
    <dc:creator>
     <cc:Agent>
      <dc:title>Matplotlib v3.10.7, https://matplotlib.org/</dc:title>
     </cc:Agent>
    </dc:creator>
   </cc:Work>
  </rdf:RDF>
 </metadata>
 <defs>
  <style type="text/css">*{stroke-linejoin: round; stroke-linecap: butt}</style>
 </defs>
 <g id="figure_1">
  <g id="patch_1">
   <path d="M 0 360 
L 864 360 
L 864 0 
L 0 0 
z
" style="fill: #ffffff"/>
  </g>
  <g id="axes_1">
   <g id="patch_2">
    <path d="M 44.57 318.04 
L 418.725 318.04 
L 418.725 10.8 
L 44.57 10.8 
z
" style="fill: #ffffff"/>
   </g>
   <g id="matplotlib.axis_1">
    <g id="xtick_1">
     <g id="line2d_1">
      <path d="M 60.8954 318.04 
L 60.8954 10.8 
" clip-path="url(#p1ce84200a5)" style="fill: none; stroke: #b0b0b0; stroke-opacity: 0.3; stroke-width: 0.8; stroke-linecap: square"/>
     </g>
     <g id="line2d_2">
      <defs>
       <path id="ma43f7d87c1" d="M 0 0 
L 0 3.5 
" style="stroke: #000000; stroke-width: 0.8"/>
      </defs>
      <g>
       <use xlink:href="#ma43f7d87c1" x="60.8954" y="318.04" style="stroke: #000000; stroke-width: 0.8"/>
      </g>
     </g>
     <g id="text_1">
      <!-- 0 -->
      <g transform="translate(57.71415 332.638438) scale(0.1 -0.1)">
       <defs>
        <path id="DejaVuSans-30" d="M 2034 4250 
Q 1547 4250 1301 3770 
Q 1056 3291 1056 2328 
Q 1056 1369 1301 889 
Q 1547 409 2034 409 
Q 2525 409 2770 889 
Q 3016 1369 3016 2328 
Q 3016 3291 2770 3770 
Q 2525 4250 2034 4250 
z
M 2034 4750 
Q 2819 4750 3233 4129 
Q 3647 3509 3647 2328 
Q 3647 1150 3233 529 
Q 2819 -91 2034 -91 
Q 1250 -91 836 529 
Q 422 1150 422 2328 
Q 422 3509 836 4129 
Q 1250 4750 2034 4750 
z
" transform="scale(0.015625)"/>
       </defs>
       <use xlink:href="#DejaVuSans-30"/>
      </g>
     </g>
    </g>
    <g id="xtick_2">
     <g id="line2d_3">
      <path d="M 129.059911 318.04 
L 129.059911 10.8 
" clip-path="url(#p1ce84200a5)" style="fill: none; stroke: #b0b0b0; stroke-opacity: 0.3; stroke-width: 0.8; stroke-linecap: square"/>
     </g>
     <g id="line2d_4">
      <g>
       <use xlink:href="#ma43f7d87c1" x="129.059911" y="318.04" style="stroke: #000000; stroke-width: 0.8"/>
      </g>
     </g>
     <g id="text_2">
      <!-- 10 -->
      <g transform="translate(122.697411 332.638438) scale(0.1 -0.1)">
       <defs>
        <path id="DejaVuSans-31" d="M 794 531 
L 1825 531 
L 1825 4091 
L 703 3866 
L 703 4441 
L 1819 4666 
L 2450 4666 
L 2450 531 
L 3481 531 
L 3481 0 
L 794 0 
L 794 531 
z
" transform="scale(0.015625)"/>
       </defs>
       <use xlink:href="#DejaVuSans-31"/>
       <use xlink:href="#DejaVuSans-30" transform="translate(63.623047 0)"/>
      </g>
     </g>
    </g>
    <g id="xtick_3">
     <g id="line2d_5">
      <path d="M 197.224422 318.04 
L 197.224422 10.8 
" clip-path="url(#p1ce84200a5)" style="fill: none; stroke: #b0b0b0; stroke-opacity: 0.3; stroke-width: 0.8; stroke-linecap: square"/>
     </g>
     <g id="line2d_6">
      <g>
       <use xlink:href="#ma43f7d87c1" x="197.224422" y="318.04" style="stroke: #000000; stroke-width: 0.8"/>
      </g>
     </g>
     <g id="text_3">
      <!-- 20 -->
      <g transform="translate(190.861922 332.638438) scale(0.1 -0.1)">
       <defs>
        <path id="DejaVuSans-32" d="M 1228 531 
L 3431 531 
L 3431 0 
L 469 0 
L 469 531 
Q 828 903 1448 1529 
Q 2069 2156 2228 2338 
Q 2531 2678 2651 2914 
Q 2772 3150 2772 3378 
Q 2772 3750 2511 3984 
Q 2250 4219 1831 4219 
Q 1534 4219 1204 4116 
Q 875 4013 500 3803 
L 500 4441 
Q 881 4594 1212 4672 
Q 1544 4750 1819 4750 
Q 2544 4750 2975 4387 
Q 3406 4025 3406 3419 
Q 3406 3131 3298 2873 
Q 3191 2616 2906 2266 
Q 2828 2175 2409 1742 
Q 1991 1309 1228 531 
z
" transform="scale(0.015625)"/>
       </defs>
       <use xlink:href="#DejaVuSans-32"/>
       <use xlink:href="#DejaVuSans-30" transform="translate(63.623047 0)"/>
      </g>
     </g>
    </g>
    <g id="xtick_4">
     <g id="line2d_7">
      <path d="M 265.388933 318.04 
L 265.388933 10.8 
" clip-path="url(#p1ce84200a5)" style="fill: none; stroke: #b0b0b0; stroke-opacity: 0.3; stroke-width: 0.8; stroke-linecap: square"/>
     </g>
     <g id="line2d_8">
      <g>
       <use xlink:href="#ma43f7d87c1" x="265.388933" y="318.04" style="stroke: #000000; stroke-width: 0.8"/>
      </g>
     </g>
     <g id="text_4">
      <!-- 30 -->
      <g transform="translate(259.026433 332.638438) scale(0.1 -0.1)">
       <defs>
        <path id="DejaVuSans-33" d="M 2597 2516 
Q 3050 2419 3304 2112 
Q 3559 1806 3559 1356 
Q 3559 666 3084 287 
Q 2609 -91 1734 -91 
Q 1441 -91 1130 -33 
Q 819 25 488 141 
L 488 750 
Q 750 597 1062 519 
Q 1375 441 1716 441 
Q 2309 441 2620 675 
Q 2931 909 2931 1356 
Q 2931 1769 2642 2001 
Q 2353 2234 1838 2234 
L 1294 2234 
L 1294 2753 
L 1863 2753 
Q 2328 2753 2575 2939 
Q 2822 3125 2822 3475 
Q 2822 3834 2567 4026 
Q 2313 4219 1838 4219 
Q 1578 4219 1281 4162 
Q 984 4106 628 3988 
L 628 4550 
Q 988 4650 1302 4700 
Q 1616 4750 1894 4750 
Q 2613 4750 3031 4423 
Q 3450 4097 3450 3541 
Q 3450 3153 3228 2886 
Q 3006 2619 2597 2516 
z
" transform="scale(0.015625)"/>
       </defs>
       <use xlink:href="#DejaVuSans-33"/>
       <use xlink:href="#DejaVuSans-30" transform="translate(63.623047 0)"/>
      </g>
     </g>
    </g>
    <g id="xtick_5">
     <g id="line2d_9">
      <path d="M 333.553444 318.04 
L 333.553444 10.8 
" clip-path="url(#p1ce84200a5)" style="fill: none; stroke: #b0b0b0; stroke-opacity: 0.3; stroke-width: 0.8; stroke-linecap: square"/>
     </g>
     <g id="line2d_10">
      <g>
       <use xlink:href="#ma43f7d87c1" x="333.553444" y="318.04" style="stroke: #000000; stroke-width: 0.8"/>
      </g>
     </g>
     <g id="text_5">
      <!-- 40 -->
      <g transform="translate(327.190944 332.638438) scale(0.1 -0.1)">
       <defs>
        <path id="DejaVuSans-34" d="M 2419 4116 
L 825 1625 
L 2419 1625 
L 2419 4116 
z
M 2253 4666 
L 3047 4666 
L 3047 1625 
L 3713 1625 
L 3713 1100 
L 3047 1100 
L 3047 0 
L 2419 0 
L 2419 1100 
L 313 1100 
L 313 1709 
L 2253 4666 
z
" transform="scale(0.015625)"/>
       </defs>
       <use xlink:href="#DejaVuSans-34"/>
       <use xlink:href="#DejaVuSans-30" transform="translate(63.623047 0)"/>
      </g>
     </g>
    </g>
    <g id="xtick_6">
     <g id="line2d_11">
      <path d="M 401.717955 318.04 
L 401.717955 10.8 
" clip-path="url(#p1ce84200a5)" style="fill: none; stroke: #b0b0b0; stroke-opacity: 0.3; stroke-width: 0.8; stroke-linecap: square"/>
     </g>
     <g id="line2d_12">
      <g>
       <use xlink:href="#ma43f7d87c1" x="401.717955" y="318.04" style="stroke: #000000; stroke-width: 0.8"/>
      </g>
     </g>
     <g id="text_6">
      <!-- 50 -->
      <g transform="translate(395.355455 332.638438) scale(0.1 -0.1)">
       <defs>
        <path id="DejaVuSans-35" d="M 691 4666 
L 3169 4666 
L 3169 4134 
L 1269 4134 
L 1269 2991 
Q 1406 3038 1543 3061 
Q 1681 3084 1819 3084 
Q 2600 3084 3056 2656 
Q 3513 2228 3513 1497 
Q 3513 744 3044 326 
Q 2575 -91 1722 -91 
Q 1428 -91 1123 -41 
Q 819 9 494 109 
L 494 744 
Q 775 591 1075 516 
Q 1375 441 1709 441 
Q 2250 441 2565 725 
Q 2881 1009 2881 1497 
Q 2881 1984 2565 2268 
Q 2250 2553 1709 2553 
Q 1456 2553 1204 2497 
Q 953 2441 691 2322 
L 691 4666 
z
" transform="scale(0.015625)"/>
       </defs>
       <use xlink:href="#DejaVuSans-35"/>
       <use xlink:href="#DejaVuSans-30" transform="translate(63.623047 0)"/>
      </g>
     </g>
    </g>
    <g id="text_7">
     <!-- a -->
     <g transform="translate(228.583438 346.316563) scale(0.1 -0.1)">
      <defs>
       <path id="DejaVuSans-61" d="M 2194 1759 
Q 1497 1759 1228 1600 
Q 959 1441 959 1056 
Q 959 750 1161 570 
Q 1363 391 1709 391 
Q 2188 391 2477 730 
Q 2766 1069 2766 1631 
L 2766 1759 
L 2194 1759 
z
M 3341 1997 
L 3341 0 
L 2766 0 
L 2766 531 
Q 2569 213 2275 61 
Q 1981 -91 1556 -91 
Q 1019 -91 701 211 
Q 384 513 384 1019 
Q 384 1609 779 1909 
Q 1175 2209 1959 2209 
L 2766 2209 
L 2766 2266 
Q 2766 2663 2505 2880 
Q 2244 3097 1772 3097 
Q 1472 3097 1187 3025 
Q 903 2953 641 2809 
L 641 3341 
Q 956 3463 1253 3523 
Q 1550 3584 1831 3584 
Q 2591 3584 2966 3190 
Q 3341 2797 3341 1997 
z
" transform="scale(0.015625)"/>
      </defs>
      <use xlink:href="#DejaVuSans-61"/>
     </g>
    </g>
   </g>
   <g id="matplotlib.axis_2">
    <g id="ytick_1">
     <g id="line2d_13">
      <path d="M 44.57 304.685181 
L 418.725 304.685181 
" clip-path="url(#p1ce84200a5)" style="fill: none; stroke: #b0b0b0; stroke-opacity: 0.3; stroke-width: 0.8; stroke-linecap: square"/>
     </g>
     <g id="line2d_14">
      <defs>
       <path id="mbe6aa44686" d="M 0 0 
L -3.5 0 
" style="stroke: #000000; stroke-width: 0.8"/>
      </defs>
      <g>
       <use xlink:href="#mbe6aa44686" x="44.57" y="304.685181" style="stroke: #000000; stroke-width: 0.8"/>
      </g>
     </g>
     <g id="text_8">
      <!-- 0 -->
      <g transform="translate(31.2075 308.4844) scale(0.1 -0.1)">
       <use xlink:href="#DejaVuSans-30"/>
      </g>
     </g>
    </g>
    <g id="ytick_2">
     <g id="line2d_15">
      <path d="M 44.57 242.382073 
L 418.725 242.382073 
" clip-path="url(#p1ce84200a5)" style="fill: none; stroke: #b0b0b0; stroke-opacity: 0.3; stroke-width: 0.8; stroke-linecap: square"/>
     </g>
     <g id="line2d_16">
      <g>
       <use xlink:href="#mbe6aa44686" x="44.57" y="242.382073" style="stroke: #000000; stroke-width: 0.8"/>
      </g>
     </g>
     <g id="text_9">
      <!-- 10 -->
      <g transform="translate(24.845 246.181292) scale(0.1 -0.1)">
       <use xlink:href="#DejaVuSans-31"/>
       <use xlink:href="#DejaVuSans-30" transform="translate(63.623047 0)"/>
      </g>
     </g>
    </g>
    <g id="ytick_3">
     <g id="line2d_17">
      <path d="M 44.57 180.078965 
L 418.725 180.078965 
" clip-path="url(#p1ce84200a5)" style="fill: none; stroke: #b0b0b0; stroke-opacity: 0.3; stroke-width: 0.8; stroke-linecap: square"/>
     </g>
     <g id="line2d_18">
      <g>
       <use xlink:href="#mbe6aa44686" x="44.57" y="180.078965" style="stroke: #000000; stroke-width: 0.8"/>
      </g>
     </g>
     <g id="text_10">
      <!-- 20 -->
      <g transform="translate(24.845 183.878184) scale(0.1 -0.1)">
       <use xlink:href="#DejaVuSans-32"/>
       <use xlink:href="#DejaVuSans-30" transform="translate(63.623047 0)"/>
      </g>
     </g>
    </g>
    <g id="ytick_4">
     <g id="line2d_19">
      <path d="M 44.57 117.775857 
L 418.725 117.775857 
" clip-path="url(#p1ce84200a5)" style="fill: none; stroke: #b0b0b0; stroke-opacity: 0.3; stroke-width: 0.8; stroke-linecap: square"/>
     </g>
     <g id="line2d_20">
      <g>
       <use xlink:href="#mbe6aa44686" x="44.57" y="117.775857" style="stroke: #000000; stroke-width: 0.8"/>
      </g>
     </g>
     <g id="text_11">
      <!-- 30 -->
      <g transform="translate(24.845 121.575076) scale(0.1 -0.1)">
       <use xlink:href="#DejaVuSans-33"/>
       <use xlink:href="#DejaVuSans-30" transform="translate(63.623047 0)"/>
      </g>
     </g>
    </g>
    <g id="ytick_5">
     <g id="line2d_21">
      <path d="M 44.57 55.47275 
L 418.725 55.47275 
" clip-path="url(#p1ce84200a5)" style="fill: none; stroke: #b0b0b0; stroke-opacity: 0.3; stroke-width: 0.8; stroke-linecap: square"/>
     </g>
     <g id="line2d_22">
      <g>
       <use xlink:href="#mbe6aa44686" x="44.57" y="55.47275" style="stroke: #000000; stroke-width: 0.8"/>
      </g>
     </g>
     <g id="text_12">
      <!-- 40 -->
      <g transform="translate(24.845 59.271968) scale(0.1 -0.1)">
       <use xlink:href="#DejaVuSans-34"/>
       <use xlink:href="#DejaVuSans-30" transform="translate(63.623047 0)"/>
      </g>
     </g>
    </g>
    <g id="text_13">
     <!-- s* -->
     <g transform="translate(18.765313 169.524688) rotate(-90) scale(0.1 -0.1)">
      <defs>
       <path id="DejaVuSans-73" d="M 2834 3397 
L 2834 2853 
Q 2591 2978 2328 3040 
Q 2066 3103 1784 3103 
Q 1356 3103 1142 2972 
Q 928 2841 928 2578 
Q 928 2378 1081 2264 
Q 1234 2150 1697 2047 
L 1894 2003 
Q 2506 1872 2764 1633 
Q 3022 1394 3022 966 
Q 3022 478 2636 193 
Q 2250 -91 1575 -91 
Q 1294 -91 989 -36 
Q 684 19 347 128 
L 347 722 
Q 666 556 975 473 
Q 1284 391 1588 391 
Q 1994 391 2212 530 
Q 2431 669 2431 922 
Q 2431 1156 2273 1281 
Q 2116 1406 1581 1522 
L 1381 1569 
Q 847 1681 609 1914 
Q 372 2147 372 2553 
Q 372 3047 722 3315 
Q 1072 3584 1716 3584 
Q 2034 3584 2315 3537 
Q 2597 3491 2834 3397 
z
" transform="scale(0.015625)"/>
       <path id="DejaVuSans-2a" d="M 3009 3897 
L 1888 3291 
L 3009 2681 
L 2828 2375 
L 1778 3009 
L 1778 1831 
L 1422 1831 
L 1422 3009 
L 372 2375 
L 191 2681 
L 1313 3291 
L 191 3897 
L 372 4206 
L 1422 3572 
L 1422 4750 
L 1778 4750 
L 1778 3572 
L 2828 4206 
L 3009 3897 
z
" transform="scale(0.015625)"/>
      </defs>
      <use xlink:href="#DejaVuSans-73"/>
      <use xlink:href="#DejaVuSans-2a" transform="translate(52.099609 0)"/>
     </g>
    </g>
   </g>
   <g id="line2d_23">
    <path d="M 61.577045 304.074545 
L 65.012812 301.000422 
L 68.448579 297.932838 
L 71.884346 294.872247 
L 75.320112 291.819126 
L 78.755879 288.773974 
L 82.191646 285.737314 
L 85.627413 282.709693 
L 89.06318 279.691682 
L 92.498946 276.683876 
L 95.934713 273.686891 
L 99.37048 270.701369 
L 102.806247 267.727974 
L 106.242013 264.76739 
L 109.67778 261.820324 
L 113.113547 258.887501 
L 116.549314 255.969665 
L 119.98508 253.067577 
L 123.420847 250.182012 
L 126.856614 247.313758 
L 130.292381 244.463612 
L 133.728147 241.632382 
L 137.163914 238.820878 
L 140.599681 236.029914 
L 144.035448 233.260302 
L 147.471214 230.512851 
L 150.906981 227.788361 
L 154.342748 225.087622 
L 157.778515 222.41141 
L 161.214281 219.760481 
L 164.650048 217.135572 
L 168.085815 214.537393 
L 171.521582 211.966626 
L 174.957348 209.423921 
L 178.393115 206.909896 
L 181.828882 204.425128 
L 185.264649 201.970157 
L 188.700416 199.545478 
L 192.136182 197.151545 
L 195.571949 194.788764 
L 199.007716 192.457495 
L 202.443483 190.158049 
L 205.879249 187.89069 
L 209.315016 185.655632 
L 212.750783 183.453041 
L 216.18655 181.283034 
L 219.622316 179.145682 
L 223.058083 177.041009 
L 226.49385 174.968992 
L 229.929617 172.929568 
L 233.365383 170.92263 
L 236.80115 168.948031 
L 240.236917 167.005587 
L 243.672684 165.095079 
L 247.10845 163.216254 
L 250.544217 161.368826 
L 253.979984 159.552485 
L 257.415751 157.766891 
L 260.851517 156.011682 
L 264.287284 154.286473 
L 267.723051 152.590861 
L 271.158818 150.924426 
L 274.594584 149.286733 
L 278.030351 147.677335 
L 281.466118 146.095771 
L 284.901885 144.541575 
L 288.337652 143.014272 
L 291.773418 141.513381 
L 295.209185 140.038418 
L 298.644952 138.588896 
L 302.080719 137.164326 
L 305.516485 135.76422 
L 308.952252 134.38809 
L 312.388019 133.03545 
L 315.823786 131.70582 
L 319.259552 130.398719 
L 322.695319 129.113673 
L 326.131086 127.850214 
L 329.566853 126.607878 
L 333.002619 125.386207 
L 336.438386 124.184752 
L 339.874153 123.003069 
L 343.30992 121.840722 
L 346.745686 120.697282 
L 350.181453 119.572328 
L 353.61722 118.465449 
L 357.052987 117.37624 
L 360.488753 116.304304 
L 363.92452 115.249253 
L 367.360287 114.210709 
L 370.796054 113.188299 
L 374.23182 112.181661 
L 377.667587 111.19044 
L 381.103354 110.21429 
L 384.539121 109.252872 
L 387.974888 108.305857 
L 391.410654 107.372922 
L 394.846421 106.453753 
L 398.282188 105.548043 
L 401.717955 104.655494 
" clip-path="url(#p1ce84200a5)" style="fill: none; stroke: #000000; stroke-width: 1.5; stroke-linecap: square"/>
   </g>
   <g id="line2d_24">
    <path d="M 61.577045 304.074428 
L 65.012812 300.996231 
L 68.448579 297.919104 
L 71.884346 294.843935 
L 75.320112 291.771608 
L 78.755879 288.703001 
L 82.191646 285.63898 
L 85.627413 282.5804 
L 89.06318 279.528101 
L 92.498946 276.482909 
L 95.934713 273.445631 
L 99.37048 270.417054 
L 102.806247 267.397943 
L 106.242013 264.389043 
L 109.67778 261.391071 
L 113.113547 258.404723 
L 116.549314 255.430664 
L 119.98508 252.469535 
L 123.420847 249.521947 
L 126.856614 246.588484 
L 130.292381 243.669701 
L 133.728147 240.76612 
L 137.163914 237.878238 
L 140.599681 235.006521 
L 144.035448 232.151402 
L 147.471214 229.313291 
L 150.906981 226.492562 
L 154.342748 223.689567 
L 157.778515 220.904624 
L 161.214281 218.138027 
L 164.650048 215.390042 
L 168.085815 212.660909 
L 171.521582 209.950842 
L 174.957348 207.260029 
L 178.393115 204.588638 
L 181.828882 201.93681 
L 185.264649 199.304666 
L 188.700416 196.692305 
L 192.136182 194.099807 
L 195.571949 191.52723 
L 199.007716 188.974616 
L 202.443483 186.441988 
L 205.879249 183.929355 
L 209.315016 181.436706 
L 212.750783 178.964019 
L 216.18655 176.511256 
L 219.622316 174.078366 
L 223.058083 171.665288 
L 226.49385 169.271945 
L 229.929617 166.898255 
L 233.365383 164.544121 
L 236.80115 162.209439 
L 240.236917 159.894097 
L 243.672684 157.597974 
L 247.10845 155.320942 
L 250.544217 153.062866 
L 253.979984 150.823606 
L 257.415751 148.603015 
L 260.851517 146.400943 
L 264.287284 144.217232 
L 267.723051 142.051724 
L 271.158818 139.904256 
L 274.594584 137.774659 
L 278.030351 135.662766 
L 281.466118 133.568403 
L 284.901885 131.491398 
L 288.337652 129.431574 
L 291.773418 127.388754 
L 295.209185 125.362759 
L 298.644952 123.353411 
L 302.080719 121.36053 
L 305.516485 119.383934 
L 308.952252 117.423444 
L 312.388019 115.478879 
L 315.823786 113.550059 
L 319.259552 111.636803 
L 322.695319 109.738932 
L 326.131086 107.856267 
L 329.566853 105.98863 
L 333.002619 104.135843 
L 336.438386 102.297732 
L 339.874153 100.47412 
L 343.30992 98.664834 
L 346.745686 96.869701 
L 350.181453 95.088551 
L 353.61722 93.321213 
L 357.052987 91.56752 
L 360.488753 89.827304 
L 363.92452 88.100402 
L 367.360287 86.38665 
L 370.796054 84.685887 
L 374.23182 82.997952 
L 377.667587 81.322688 
L 381.103354 79.659938 
L 384.539121 78.009548 
L 387.974888 76.371366 
L 391.410654 74.745242 
L 394.846421 73.131025 
L 398.282188 71.528569 
L 401.717955 69.93773 
" clip-path="url(#p1ce84200a5)" style="fill: none; stroke-dasharray: 5.55,2.4; stroke-dashoffset: 0; stroke: #0000ff; stroke-width: 1.5"/>
   </g>
   <g id="line2d_25">
    <path d="M 61.577045 304.074545 
L 65.012812 301.000292 
L 68.448579 297.932026 
L 71.884346 294.869717 
L 75.320112 291.813334 
L 78.755879 288.762848 
L 82.191646 285.718229 
L 85.627413 282.679446 
L 89.06318 279.646472 
L 92.498946 276.619277 
L 95.934713 273.597831 
L 99.37048 270.582108 
L 102.806247 267.572077 
L 106.242013 264.567711 
L 109.67778 261.568983 
L 113.113547 258.575864 
L 116.549314 255.588328 
L 119.98508 252.606346 
L 123.420847 249.629892 
L 126.856614 246.65894 
L 130.292381 243.693462 
L 133.728147 240.733432 
L 137.163914 237.778824 
L 140.599681 234.829612 
L 144.035448 231.885771 
L 147.471214 228.947274 
L 150.906981 226.014096 
L 154.342748 223.086213 
L 157.778515 220.1636 
L 161.214281 217.24623 
L 164.650048 214.334081 
L 168.085815 211.427127 
L 171.521582 208.525344 
L 174.957348 205.628709 
L 178.393115 202.737197 
L 181.828882 199.850785 
L 185.264649 196.969449 
L 188.700416 194.093166 
L 192.136182 191.221913 
L 195.571949 188.355667 
L 199.007716 185.494404 
L 202.443483 182.638104 
L 205.879249 179.786742 
L 209.315016 176.940297 
L 212.750783 174.098746 
L 216.18655 171.262068 
L 219.622316 168.430241 
L 223.058083 165.603242 
L 226.49385 162.781052 
L 229.929617 159.963647 
L 233.365383 157.151008 
L 236.80115 154.343113 
L 240.236917 151.539941 
L 243.672684 148.741471 
L 247.10845 145.947684 
L 250.544217 143.158557 
L 253.979984 140.374072 
L 257.415751 137.594208 
L 260.851517 134.818945 
L 264.287284 132.048263 
L 267.723051 129.282142 
L 271.158818 126.520563 
L 274.594584 123.763507 
L 278.030351 121.010953 
L 281.466118 118.262884 
L 284.901885 115.519279 
L 288.337652 112.78012 
L 291.773418 110.045388 
L 295.209185 107.315065 
L 298.644952 104.589132 
L 302.080719 101.86757 
L 305.516485 99.150361 
L 308.952252 96.437488 
L 312.388019 93.728931 
L 315.823786 91.024674 
L 319.259552 88.324698 
L 322.695319 85.628986 
L 326.131086 82.93752 
L 329.566853 80.250282 
L 333.002619 77.567256 
L 336.438386 74.888425 
L 339.874153 72.21377 
L 343.30992 69.543276 
L 346.745686 66.876925 
L 350.181453 64.2147 
L 353.61722 61.556585 
L 357.052987 58.902564 
L 360.488753 56.252619 
L 363.92452 53.606736 
L 367.360287 50.964896 
L 370.796054 48.327085 
L 374.23182 45.693287 
L 377.667587 43.063484 
L 381.103354 40.437663 
L 384.539121 37.815806 
L 387.974888 35.197899 
L 391.410654 32.583925 
L 394.846421 29.97387 
L 398.282188 27.367718 
L 401.717955 24.765455 
" clip-path="url(#p1ce84200a5)" style="fill: none; stroke-dasharray: 1.5,2.475; stroke-dashoffset: 0; stroke: #ff0000; stroke-width: 1.5"/>
   </g>
   <g id="patch_3">
    <path d="M 44.57 318.04 
L 44.57 10.8 
" style="fill: none; stroke: #000000; stroke-width: 0.8; stroke-linejoin: miter; stroke-linecap: square"/>
   </g>
   <g id="patch_4">
    <path d="M 418.725 318.04 
L 418.725 10.8 
" style="fill: none; stroke: #000000; stroke-width: 0.8; stroke-linejoin: miter; stroke-linecap: square"/>
   </g>
   <g id="patch_5">
    <path d="M 44.57 318.04 
L 418.725 318.04 
" style="fill: none; stroke: #000000; stroke-width: 0.8; stroke-linejoin: miter; stroke-linecap: square"/>
   </g>
   <g id="patch_6">
    <path d="M 44.57 10.8 
L 418.725 10.8 
" style="fill: none; stroke: #000000; stroke-width: 0.8; stroke-linejoin: miter; stroke-linecap: square"/>
   </g>
   <g id="legend_1">
    <g id="patch_7">
     <path d="M 51.57 62.834375 
L 145.896562 62.834375 
Q 147.896562 62.834375 147.896562 60.834375 
L 147.896562 17.8 
Q 147.896562 15.8 145.896562 15.8 
L 51.57 15.8 
Q 49.57 15.8 49.57 17.8 
L 49.57 60.834375 
Q 49.57 62.834375 51.57 62.834375 
z
" style="fill: #ffffff; opacity: 0.8; stroke: #cccccc; stroke-linejoin: miter"/>
    </g>
    <g id="line2d_26">
     <path d="M 53.57 23.898438 
L 63.57 23.898438 
L 73.57 23.898438 
" style="fill: none; stroke: #000000; stroke-width: 1.5; stroke-linecap: square"/>
    </g>
    <g id="text_14">
     <!-- g=exp -->
     <g transform="translate(81.57 27.398438) scale(0.1 -0.1)">
      <defs>
       <path id="DejaVuSans-67" d="M 2906 1791 
Q 2906 2416 2648 2759 
Q 2391 3103 1925 3103 
Q 1463 3103 1205 2759 
Q 947 2416 947 1791 
Q 947 1169 1205 825 
Q 1463 481 1925 481 
Q 2391 481 2648 825 
Q 2906 1169 2906 1791 
z
M 3481 434 
Q 3481 -459 3084 -895 
Q 2688 -1331 1869 -1331 
Q 1566 -1331 1297 -1286 
Q 1028 -1241 775 -1147 
L 775 -588 
Q 1028 -725 1275 -790 
Q 1522 -856 1778 -856 
Q 2344 -856 2625 -561 
Q 2906 -266 2906 331 
L 2906 616 
Q 2728 306 2450 153 
Q 2172 0 1784 0 
Q 1141 0 747 490 
Q 353 981 353 1791 
Q 353 2603 747 3093 
Q 1141 3584 1784 3584 
Q 2172 3584 2450 3431 
Q 2728 3278 2906 2969 
L 2906 3500 
L 3481 3500 
L 3481 434 
z
" transform="scale(0.015625)"/>
       <path id="DejaVuSans-3d" d="M 678 2906 
L 4684 2906 
L 4684 2381 
L 678 2381 
L 678 2906 
z
M 678 1631 
L 4684 1631 
L 4684 1100 
L 678 1100 
L 678 1631 
z
" transform="scale(0.015625)"/>
       <path id="DejaVuSans-65" d="M 3597 1894 
L 3597 1613 
L 953 1613 
Q 991 1019 1311 708 
Q 1631 397 2203 397 
Q 2534 397 2845 478 
Q 3156 559 3463 722 
L 3463 178 
Q 3153 47 2828 -22 
Q 2503 -91 2169 -91 
Q 1331 -91 842 396 
Q 353 884 353 1716 
Q 353 2575 817 3079 
Q 1281 3584 2069 3584 
Q 2775 3584 3186 3129 
Q 3597 2675 3597 1894 
z
M 3022 2063 
Q 3016 2534 2758 2815 
Q 2500 3097 2075 3097 
Q 1594 3097 1305 2825 
Q 1016 2553 972 2059 
L 3022 2063 
z
" transform="scale(0.015625)"/>
       <path id="DejaVuSans-78" d="M 3513 3500 
L 2247 1797 
L 3578 0 
L 2900 0 
L 1881 1375 
L 863 0 
L 184 0 
L 1544 1831 
L 300 3500 
L 978 3500 
L 1906 2253 
L 2834 3500 
L 3513 3500 
z
" transform="scale(0.015625)"/>
       <path id="DejaVuSans-70" d="M 1159 525 
L 1159 -1331 
L 581 -1331 
L 581 3500 
L 1159 3500 
L 1159 2969 
Q 1341 3281 1617 3432 
Q 1894 3584 2278 3584 
Q 2916 3584 3314 3078 
Q 3713 2572 3713 1747 
Q 3713 922 3314 415 
Q 2916 -91 2278 -91 
Q 1894 -91 1617 61 
Q 1341 213 1159 525 
z
M 3116 1747 
Q 3116 2381 2855 2742 
Q 2594 3103 2138 3103 
Q 1681 3103 1420 2742 
Q 1159 2381 1159 1747 
Q 1159 1113 1420 752 
Q 1681 391 2138 391 
Q 2594 391 2855 752 
Q 3116 1113 3116 1747 
z
" transform="scale(0.015625)"/>
      </defs>
      <use xlink:href="#DejaVuSans-67"/>
      <use xlink:href="#DejaVuSans-3d" transform="translate(63.476562 0)"/>
      <use xlink:href="#DejaVuSans-65" transform="translate(147.265625 0)"/>
      <use xlink:href="#DejaVuSans-78" transform="translate(207.039062 0)"/>
      <use xlink:href="#DejaVuSans-70" transform="translate(266.21875 0)"/>
     </g>
    </g>
    <g id="line2d_27">
     <path d="M 53.57 38.576563 
L 63.57 38.576563 
L 73.57 38.576563 
" style="fill: none; stroke-dasharray: 5.55,2.4; stroke-dashoffset: 0; stroke: #0000ff; stroke-width: 1.5"/>
    </g>
    <g id="text_15">
     <!-- g=quadratic -->
     <g transform="translate(81.57 42.076563) scale(0.1 -0.1)">
      <defs>
       <path id="DejaVuSans-71" d="M 947 1747 
Q 947 1113 1208 752 
Q 1469 391 1925 391 
Q 2381 391 2643 752 
Q 2906 1113 2906 1747 
Q 2906 2381 2643 2742 
Q 2381 3103 1925 3103 
Q 1469 3103 1208 2742 
Q 947 2381 947 1747 
z
M 2906 525 
Q 2725 213 2448 61 
Q 2172 -91 1784 -91 
Q 1150 -91 751 415 
Q 353 922 353 1747 
Q 353 2572 751 3078 
Q 1150 3584 1784 3584 
Q 2172 3584 2448 3432 
Q 2725 3281 2906 2969 
L 2906 3500 
L 3481 3500 
L 3481 -1331 
L 2906 -1331 
L 2906 525 
z
" transform="scale(0.015625)"/>
       <path id="DejaVuSans-75" d="M 544 1381 
L 544 3500 
L 1119 3500 
L 1119 1403 
Q 1119 906 1312 657 
Q 1506 409 1894 409 
Q 2359 409 2629 706 
Q 2900 1003 2900 1516 
L 2900 3500 
L 3475 3500 
L 3475 0 
L 2900 0 
L 2900 538 
Q 2691 219 2414 64 
Q 2138 -91 1772 -91 
Q 1169 -91 856 284 
Q 544 659 544 1381 
z
M 1991 3584 
L 1991 3584 
z
" transform="scale(0.015625)"/>
       <path id="DejaVuSans-64" d="M 2906 2969 
L 2906 4863 
L 3481 4863 
L 3481 0 
L 2906 0 
L 2906 525 
Q 2725 213 2448 61 
Q 2172 -91 1784 -91 
Q 1150 -91 751 415 
Q 353 922 353 1747 
Q 353 2572 751 3078 
Q 1150 3584 1784 3584 
Q 2172 3584 2448 3432 
Q 2725 3281 2906 2969 
z
M 947 1747 
Q 947 1113 1208 752 
Q 1469 391 1925 391 
Q 2381 391 2643 752 
Q 2906 1113 2906 1747 
Q 2906 2381 2643 2742 
Q 2381 3103 1925 3103 
Q 1469 3103 1208 2742 
Q 947 2381 947 1747 
z
" transform="scale(0.015625)"/>
       <path id="DejaVuSans-72" d="M 2631 2963 
Q 2534 3019 2420 3045 
Q 2306 3072 2169 3072 
Q 1681 3072 1420 2755 
Q 1159 2438 1159 1844 
L 1159 0 
L 581 0 
L 581 3500 
L 1159 3500 
L 1159 2956 
Q 1341 3275 1631 3429 
Q 1922 3584 2338 3584 
Q 2397 3584 2469 3576 
Q 2541 3569 2628 3553 
L 2631 2963 
z
" transform="scale(0.015625)"/>
       <path id="DejaVuSans-74" d="M 1172 4494 
L 1172 3500 
L 2356 3500 
L 2356 3053 
L 1172 3053 
L 1172 1153 
Q 1172 725 1289 603 
Q 1406 481 1766 481 
L 2356 481 
L 2356 0 
L 1766 0 
Q 1100 0 847 248 
Q 594 497 594 1153 
L 594 3053 
L 172 3053 
L 172 3500 
L 594 3500 
L 594 4494 
L 1172 4494 
z
" transform="scale(0.015625)"/>
       <path id="DejaVuSans-69" d="M 603 3500 
L 1178 3500 
L 1178 0 
L 603 0 
L 603 3500 
z
M 603 4863 
L 1178 4863 
L 1178 4134 
L 603 4134 
L 603 4863 
z
" transform="scale(0.015625)"/>
       <path id="DejaVuSans-63" d="M 3122 3366 
L 3122 2828 
Q 2878 2963 2633 3030 
Q 2388 3097 2138 3097 
Q 1578 3097 1268 2742 
Q 959 2388 959 1747 
Q 959 1106 1268 751 
Q 1578 397 2138 397 
Q 2388 397 2633 464 
Q 2878 531 3122 666 
L 3122 134 
Q 2881 22 2623 -34 
Q 2366 -91 2075 -91 
Q 1284 -91 818 406 
Q 353 903 353 1747 
Q 353 2603 823 3093 
Q 1294 3584 2113 3584 
Q 2378 3584 2631 3529 
Q 2884 3475 3122 3366 
z
" transform="scale(0.015625)"/>
      </defs>
      <use xlink:href="#DejaVuSans-67"/>
      <use xlink:href="#DejaVuSans-3d" transform="translate(63.476562 0)"/>
      <use xlink:href="#DejaVuSans-71" transform="translate(147.265625 0)"/>
      <use xlink:href="#DejaVuSans-75" transform="translate(210.742188 0)"/>
      <use xlink:href="#DejaVuSans-61" transform="translate(274.121094 0)"/>
      <use xlink:href="#DejaVuSans-64" transform="translate(335.400391 0)"/>
      <use xlink:href="#DejaVuSans-72" transform="translate(398.876953 0)"/>
      <use xlink:href="#DejaVuSans-61" transform="translate(439.990234 0)"/>
      <use xlink:href="#DejaVuSans-74" transform="translate(501.269531 0)"/>
      <use xlink:href="#DejaVuSans-69" transform="translate(540.478516 0)"/>
      <use xlink:href="#DejaVuSans-63" transform="translate(568.261719 0)"/>
     </g>
    </g>
    <g id="line2d_28">
     <path d="M 53.57 53.254688 
L 63.57 53.254688 
L 73.57 53.254688 
" style="fill: none; stroke-dasharray: 1.5,2.475; stroke-dashoffset: 0; stroke: #ff0000; stroke-width: 1.5"/>
    </g>
    <g id="text_16">
     <!-- g=linear -->
     <g transform="translate(81.57 56.754688) scale(0.1 -0.1)">
      <defs>
       <path id="DejaVuSans-6c" d="M 603 4863 
L 1178 4863 
L 1178 0 
L 603 0 
L 603 4863 
z
" transform="scale(0.015625)"/>
       <path id="DejaVuSans-6e" d="M 3513 2113 
L 3513 0 
L 2938 0 
L 2938 2094 
Q 2938 2591 2744 2837 
Q 2550 3084 2163 3084 
Q 1697 3084 1428 2787 
Q 1159 2491 1159 1978 
L 1159 0 
L 581 0 
L 581 3500 
L 1159 3500 
L 1159 2956 
Q 1366 3272 1645 3428 
Q 1925 3584 2291 3584 
Q 2894 3584 3203 3211 
Q 3513 2838 3513 2113 
z
" transform="scale(0.015625)"/>
      </defs>
      <use xlink:href="#DejaVuSans-67"/>
      <use xlink:href="#DejaVuSans-3d" transform="translate(63.476562 0)"/>
      <use xlink:href="#DejaVuSans-6c" transform="translate(147.265625 0)"/>
      <use xlink:href="#DejaVuSans-69" transform="translate(175.048828 0)"/>
      <use xlink:href="#DejaVuSans-6e" transform="translate(202.832031 0)"/>
      <use xlink:href="#DejaVuSans-65" transform="translate(266.210938 0)"/>
      <use xlink:href="#DejaVuSans-61" transform="translate(327.734375 0)"/>
      <use xlink:href="#DejaVuSans-72" transform="translate(389.013672 0)"/>
     </g>
    </g>
   </g>
  </g>
  <g id="axes_2">
   <g id="patch_8">
    <path d="M 479.045 318.04 
L 853.2 318.04 
L 853.2 10.8 
L 479.045 10.8 
z
" style="fill: #ffffff"/>
   </g>
   <g id="matplotlib.axis_3">
    <g id="xtick_7">
     <g id="line2d_29">
      <path d="M 495.3704 318.04 
L 495.3704 10.8 
" clip-path="url(#p84c7d2fa75)" style="fill: none; stroke: #b0b0b0; stroke-opacity: 0.3; stroke-width: 0.8; stroke-linecap: square"/>
     </g>
     <g id="line2d_30">
      <g>
       <use xlink:href="#ma43f7d87c1" x="495.3704" y="318.04" style="stroke: #000000; stroke-width: 0.8"/>
      </g>
     </g>
     <g id="text_17">
      <!-- 0 -->
      <g transform="translate(492.18915 332.638438) scale(0.1 -0.1)">
       <use xlink:href="#DejaVuSans-30"/>
      </g>
     </g>
    </g>
    <g id="xtick_8">
     <g id="line2d_31">
      <path d="M 563.534911 318.04 
L 563.534911 10.8 
" clip-path="url(#p84c7d2fa75)" style="fill: none; stroke: #b0b0b0; stroke-opacity: 0.3; stroke-width: 0.8; stroke-linecap: square"/>
     </g>
     <g id="line2d_32">
      <g>
       <use xlink:href="#ma43f7d87c1" x="563.534911" y="318.04" style="stroke: #000000; stroke-width: 0.8"/>
      </g>
     </g>
     <g id="text_18">
      <!-- 10 -->
      <g transform="translate(557.172411 332.638438) scale(0.1 -0.1)">
       <use xlink:href="#DejaVuSans-31"/>
       <use xlink:href="#DejaVuSans-30" transform="translate(63.623047 0)"/>
      </g>
     </g>
    </g>
    <g id="xtick_9">
     <g id="line2d_33">
      <path d="M 631.699422 318.04 
L 631.699422 10.8 
" clip-path="url(#p84c7d2fa75)" style="fill: none; stroke: #b0b0b0; stroke-opacity: 0.3; stroke-width: 0.8; stroke-linecap: square"/>
     </g>
     <g id="line2d_34">
      <g>
       <use xlink:href="#ma43f7d87c1" x="631.699422" y="318.04" style="stroke: #000000; stroke-width: 0.8"/>
      </g>
     </g>
     <g id="text_19">
      <!-- 20 -->
      <g transform="translate(625.336922 332.638438) scale(0.1 -0.1)">
       <use xlink:href="#DejaVuSans-32"/>
       <use xlink:href="#DejaVuSans-30" transform="translate(63.623047 0)"/>
      </g>
     </g>
    </g>
    <g id="xtick_10">
     <g id="line2d_35">
      <path d="M 699.863933 318.04 
L 699.863933 10.8 
" clip-path="url(#p84c7d2fa75)" style="fill: none; stroke: #b0b0b0; stroke-opacity: 0.3; stroke-width: 0.8; stroke-linecap: square"/>
     </g>
     <g id="line2d_36">
      <g>
       <use xlink:href="#ma43f7d87c1" x="699.863933" y="318.04" style="stroke: #000000; stroke-width: 0.8"/>
      </g>
     </g>
     <g id="text_20">
      <!-- 30 -->
      <g transform="translate(693.501433 332.638438) scale(0.1 -0.1)">
       <use xlink:href="#DejaVuSans-33"/>
       <use xlink:href="#DejaVuSans-30" transform="translate(63.623047 0)"/>
      </g>
     </g>
    </g>
    <g id="xtick_11">
     <g id="line2d_37">
      <path d="M 768.028444 318.04 
L 768.028444 10.8 
" clip-path="url(#p84c7d2fa75)" style="fill: none; stroke: #b0b0b0; stroke-opacity: 0.3; stroke-width: 0.8; stroke-linecap: square"/>
     </g>
     <g id="line2d_38">
      <g>
       <use xlink:href="#ma43f7d87c1" x="768.028444" y="318.04" style="stroke: #000000; stroke-width: 0.8"/>
      </g>
     </g>
     <g id="text_21">
      <!-- 40 -->
      <g transform="translate(761.665944 332.638438) scale(0.1 -0.1)">
       <use xlink:href="#DejaVuSans-34"/>
       <use xlink:href="#DejaVuSans-30" transform="translate(63.623047 0)"/>
      </g>
     </g>
    </g>
    <g id="xtick_12">
     <g id="line2d_39">
      <path d="M 836.192955 318.04 
L 836.192955 10.8 
" clip-path="url(#p84c7d2fa75)" style="fill: none; stroke: #b0b0b0; stroke-opacity: 0.3; stroke-width: 0.8; stroke-linecap: square"/>
     </g>
     <g id="line2d_40">
      <g>
       <use xlink:href="#ma43f7d87c1" x="836.192955" y="318.04" style="stroke: #000000; stroke-width: 0.8"/>
      </g>
     </g>
     <g id="text_22">
      <!-- 50 -->
      <g transform="translate(829.830455 332.638438) scale(0.1 -0.1)">
       <use xlink:href="#DejaVuSans-35"/>
       <use xlink:href="#DejaVuSans-30" transform="translate(63.623047 0)"/>
      </g>
     </g>
    </g>
    <g id="text_23">
     <!-- a -->
     <g transform="translate(663.058437 346.316563) scale(0.1 -0.1)">
      <use xlink:href="#DejaVuSans-61"/>
     </g>
    </g>
   </g>
   <g id="matplotlib.axis_4">
    <g id="ytick_6">
     <g id="line2d_41">
      <path d="M 479.045 306.031383 
L 853.2 306.031383 
" clip-path="url(#p84c7d2fa75)" style="fill: none; stroke: #b0b0b0; stroke-opacity: 0.3; stroke-width: 0.8; stroke-linecap: square"/>
     </g>
     <g id="line2d_42">
      <g>
       <use xlink:href="#mbe6aa44686" x="479.045" y="306.031383" style="stroke: #000000; stroke-width: 0.8"/>
      </g>
     </g>
     <g id="text_24">
      <!-- 0.800 -->
      <g transform="translate(443.416875 309.830602) scale(0.1 -0.1)">
       <defs>
        <path id="DejaVuSans-2e" d="M 684 794 
L 1344 794 
L 1344 0 
L 684 0 
L 684 794 
z
" transform="scale(0.015625)"/>
        <path id="DejaVuSans-38" d="M 2034 2216 
Q 1584 2216 1326 1975 
Q 1069 1734 1069 1313 
Q 1069 891 1326 650 
Q 1584 409 2034 409 
Q 2484 409 2743 651 
Q 3003 894 3003 1313 
Q 3003 1734 2745 1975 
Q 2488 2216 2034 2216 
z
M 1403 2484 
Q 997 2584 770 2862 
Q 544 3141 544 3541 
Q 544 4100 942 4425 
Q 1341 4750 2034 4750 
Q 2731 4750 3128 4425 
Q 3525 4100 3525 3541 
Q 3525 3141 3298 2862 
Q 3072 2584 2669 2484 
Q 3125 2378 3379 2068 
Q 3634 1759 3634 1313 
Q 3634 634 3220 271 
Q 2806 -91 2034 -91 
Q 1263 -91 848 271 
Q 434 634 434 1313 
Q 434 1759 690 2068 
Q 947 2378 1403 2484 
z
M 1172 3481 
Q 1172 3119 1398 2916 
Q 1625 2713 2034 2713 
Q 2441 2713 2670 2916 
Q 2900 3119 2900 3481 
Q 2900 3844 2670 4047 
Q 2441 4250 2034 4250 
Q 1625 4250 1398 4047 
Q 1172 3844 1172 3481 
z
" transform="scale(0.015625)"/>
       </defs>
       <use xlink:href="#DejaVuSans-30"/>
       <use xlink:href="#DejaVuSans-2e" transform="translate(63.623047 0)"/>
       <use xlink:href="#DejaVuSans-38" transform="translate(95.410156 0)"/>
       <use xlink:href="#DejaVuSans-30" transform="translate(159.033203 0)"/>
       <use xlink:href="#DejaVuSans-30" transform="translate(222.65625 0)"/>
      </g>
     </g>
    </g>
    <g id="ytick_7">
     <g id="line2d_43">
      <path d="M 479.045 269.041801 
L 853.2 269.041801 
" clip-path="url(#p84c7d2fa75)" style="fill: none; stroke: #b0b0b0; stroke-opacity: 0.3; stroke-width: 0.8; stroke-linecap: square"/>
     </g>
     <g id="line2d_44">
      <g>
       <use xlink:href="#mbe6aa44686" x="479.045" y="269.041801" style="stroke: #000000; stroke-width: 0.8"/>
      </g>
     </g>
     <g id="text_25">
      <!-- 0.825 -->
      <g transform="translate(443.416875 272.841019) scale(0.1 -0.1)">
       <use xlink:href="#DejaVuSans-30"/>
       <use xlink:href="#DejaVuSans-2e" transform="translate(63.623047 0)"/>
       <use xlink:href="#DejaVuSans-38" transform="translate(95.410156 0)"/>
       <use xlink:href="#DejaVuSans-32" transform="translate(159.033203 0)"/>
       <use xlink:href="#DejaVuSans-35" transform="translate(222.65625 0)"/>
      </g>
     </g>
    </g>
    <g id="ytick_8">
     <g id="line2d_45">
      <path d="M 479.045 232.052218 
L 853.2 232.052218 
" clip-path="url(#p84c7d2fa75)" style="fill: none; stroke: #b0b0b0; stroke-opacity: 0.3; stroke-width: 0.8; stroke-linecap: square"/>
     </g>
     <g id="line2d_46">
      <g>
       <use xlink:href="#mbe6aa44686" x="479.045" y="232.052218" style="stroke: #000000; stroke-width: 0.8"/>
      </g>
     </g>
     <g id="text_26">
      <!-- 0.850 -->
      <g transform="translate(443.416875 235.851437) scale(0.1 -0.1)">
       <use xlink:href="#DejaVuSans-30"/>
       <use xlink:href="#DejaVuSans-2e" transform="translate(63.623047 0)"/>
       <use xlink:href="#DejaVuSans-38" transform="translate(95.410156 0)"/>
       <use xlink:href="#DejaVuSans-35" transform="translate(159.033203 0)"/>
       <use xlink:href="#DejaVuSans-30" transform="translate(222.65625 0)"/>
      </g>
     </g>
    </g>
    <g id="ytick_9">
     <g id="line2d_47">
      <path d="M 479.045 195.062635 
L 853.2 195.062635 
" clip-path="url(#p84c7d2fa75)" style="fill: none; stroke: #b0b0b0; stroke-opacity: 0.3; stroke-width: 0.8; stroke-linecap: square"/>
     </g>
     <g id="line2d_48">
      <g>
       <use xlink:href="#mbe6aa44686" x="479.045" y="195.062635" style="stroke: #000000; stroke-width: 0.8"/>
      </g>
     </g>
     <g id="text_27">
      <!-- 0.875 -->
      <g transform="translate(443.416875 198.861854) scale(0.1 -0.1)">
       <defs>
        <path id="DejaVuSans-37" d="M 525 4666 
L 3525 4666 
L 3525 4397 
L 1831 0 
L 1172 0 
L 2766 4134 
L 525 4134 
L 525 4666 
z
" transform="scale(0.015625)"/>
       </defs>
       <use xlink:href="#DejaVuSans-30"/>
       <use xlink:href="#DejaVuSans-2e" transform="translate(63.623047 0)"/>
       <use xlink:href="#DejaVuSans-38" transform="translate(95.410156 0)"/>
       <use xlink:href="#DejaVuSans-37" transform="translate(159.033203 0)"/>
       <use xlink:href="#DejaVuSans-35" transform="translate(222.65625 0)"/>
      </g>
     </g>
    </g>
    <g id="ytick_10">
     <g id="line2d_49">
      <path d="M 479.045 158.073052 
L 853.2 158.073052 
" clip-path="url(#p84c7d2fa75)" style="fill: none; stroke: #b0b0b0; stroke-opacity: 0.3; stroke-width: 0.8; stroke-linecap: square"/>
     </g>
     <g id="line2d_50">
      <g>
       <use xlink:href="#mbe6aa44686" x="479.045" y="158.073052" style="stroke: #000000; stroke-width: 0.8"/>
      </g>
     </g>
     <g id="text_28">
      <!-- 0.900 -->
      <g transform="translate(443.416875 161.872271) scale(0.1 -0.1)">
       <defs>
        <path id="DejaVuSans-39" d="M 703 97 
L 703 672 
Q 941 559 1184 500 
Q 1428 441 1663 441 
Q 2288 441 2617 861 
Q 2947 1281 2994 2138 
Q 2813 1869 2534 1725 
Q 2256 1581 1919 1581 
Q 1219 1581 811 2004 
Q 403 2428 403 3163 
Q 403 3881 828 4315 
Q 1253 4750 1959 4750 
Q 2769 4750 3195 4129 
Q 3622 3509 3622 2328 
Q 3622 1225 3098 567 
Q 2575 -91 1691 -91 
Q 1453 -91 1209 -44 
Q 966 3 703 97 
z
M 1959 2075 
Q 2384 2075 2632 2365 
Q 2881 2656 2881 3163 
Q 2881 3666 2632 3958 
Q 2384 4250 1959 4250 
Q 1534 4250 1286 3958 
Q 1038 3666 1038 3163 
Q 1038 2656 1286 2365 
Q 1534 2075 1959 2075 
z
" transform="scale(0.015625)"/>
       </defs>
       <use xlink:href="#DejaVuSans-30"/>
       <use xlink:href="#DejaVuSans-2e" transform="translate(63.623047 0)"/>
       <use xlink:href="#DejaVuSans-39" transform="translate(95.410156 0)"/>
       <use xlink:href="#DejaVuSans-30" transform="translate(159.033203 0)"/>
       <use xlink:href="#DejaVuSans-30" transform="translate(222.65625 0)"/>
      </g>
     </g>
    </g>
    <g id="ytick_11">
     <g id="line2d_51">
      <path d="M 479.045 121.083469 
L 853.2 121.083469 
" clip-path="url(#p84c7d2fa75)" style="fill: none; stroke: #b0b0b0; stroke-opacity: 0.3; stroke-width: 0.8; stroke-linecap: square"/>
     </g>
     <g id="line2d_52">
      <g>
       <use xlink:href="#mbe6aa44686" x="479.045" y="121.083469" style="stroke: #000000; stroke-width: 0.8"/>
      </g>
     </g>
     <g id="text_29">
      <!-- 0.925 -->
      <g transform="translate(443.416875 124.882688) scale(0.1 -0.1)">
       <use xlink:href="#DejaVuSans-30"/>
       <use xlink:href="#DejaVuSans-2e" transform="translate(63.623047 0)"/>
       <use xlink:href="#DejaVuSans-39" transform="translate(95.410156 0)"/>
       <use xlink:href="#DejaVuSans-32" transform="translate(159.033203 0)"/>
       <use xlink:href="#DejaVuSans-35" transform="translate(222.65625 0)"/>
      </g>
     </g>
    </g>
    <g id="ytick_12">
     <g id="line2d_53">
      <path d="M 479.045 84.093887 
L 853.2 84.093887 
" clip-path="url(#p84c7d2fa75)" style="fill: none; stroke: #b0b0b0; stroke-opacity: 0.3; stroke-width: 0.8; stroke-linecap: square"/>
     </g>
     <g id="line2d_54">
      <g>
       <use xlink:href="#mbe6aa44686" x="479.045" y="84.093887" style="stroke: #000000; stroke-width: 0.8"/>
      </g>
     </g>
     <g id="text_30">
      <!-- 0.950 -->
      <g transform="translate(443.416875 87.893105) scale(0.1 -0.1)">
       <use xlink:href="#DejaVuSans-30"/>
       <use xlink:href="#DejaVuSans-2e" transform="translate(63.623047 0)"/>
       <use xlink:href="#DejaVuSans-39" transform="translate(95.410156 0)"/>
       <use xlink:href="#DejaVuSans-35" transform="translate(159.033203 0)"/>
       <use xlink:href="#DejaVuSans-30" transform="translate(222.65625 0)"/>
      </g>
     </g>
    </g>
    <g id="ytick_13">
     <g id="line2d_55">
      <path d="M 479.045 47.104304 
L 853.2 47.104304 
" clip-path="url(#p84c7d2fa75)" style="fill: none; stroke: #b0b0b0; stroke-opacity: 0.3; stroke-width: 0.8; stroke-linecap: square"/>
     </g>
     <g id="line2d_56">
      <g>
       <use xlink:href="#mbe6aa44686" x="479.045" y="47.104304" style="stroke: #000000; stroke-width: 0.8"/>
      </g>
     </g>
     <g id="text_31">
      <!-- 0.975 -->
      <g transform="translate(443.416875 50.903523) scale(0.1 -0.1)">
       <use xlink:href="#DejaVuSans-30"/>
       <use xlink:href="#DejaVuSans-2e" transform="translate(63.623047 0)"/>
       <use xlink:href="#DejaVuSans-39" transform="translate(95.410156 0)"/>
       <use xlink:href="#DejaVuSans-37" transform="translate(159.033203 0)"/>
       <use xlink:href="#DejaVuSans-35" transform="translate(222.65625 0)"/>
      </g>
     </g>
    </g>
    <g id="text_32">
     <!-- w* -->
     <g transform="translate(437.337187 171.009063) rotate(-90) scale(0.1 -0.1)">
      <defs>
       <path id="DejaVuSans-77" d="M 269 3500 
L 844 3500 
L 1563 769 
L 2278 3500 
L 2956 3500 
L 3675 769 
L 4391 3500 
L 4966 3500 
L 4050 0 
L 3372 0 
L 2619 2869 
L 1863 0 
L 1184 0 
L 269 3500 
z
" transform="scale(0.015625)"/>
      </defs>
      <use xlink:href="#DejaVuSans-77"/>
      <use xlink:href="#DejaVuSans-2a" transform="translate(81.787109 0)"/>
     </g>
    </g>
   </g>
   <g id="line2d_57">
    <path d="M 496.052045 24.906903 
L 499.487812 25.647222 
L 502.923579 26.422487 
L 506.359346 27.234096 
L 509.795112 28.083473 
L 513.230879 28.972066 
L 516.666646 29.901346 
L 520.102413 30.8728 
L 523.53818 31.887929 
L 526.973946 32.948241 
L 530.409713 34.055248 
L 533.84548 35.21046 
L 537.281247 36.41538 
L 540.717013 37.671494 
L 544.15278 38.980266 
L 547.588547 40.343132 
L 551.024314 41.76149 
L 554.46008 43.236692 
L 557.895847 44.770038 
L 561.331614 46.362763 
L 564.767381 48.016032 
L 568.203147 49.730929 
L 571.638914 51.508449 
L 575.074681 53.349489 
L 578.510448 55.254841 
L 581.946214 57.22518 
L 585.381981 59.261061 
L 588.817748 61.362911 
L 592.253515 63.53102 
L 595.689281 65.76554 
L 599.125048 68.066477 
L 602.560815 70.433687 
L 605.996582 72.866879 
L 609.432348 75.365608 
L 612.868115 77.929279 
L 616.303882 80.557144 
L 619.739649 83.248309 
L 623.175416 86.001734 
L 626.611182 88.81624 
L 630.046949 91.690513 
L 633.482716 94.623112 
L 636.918483 97.612476 
L 640.354249 100.656932 
L 643.790016 103.754704 
L 647.225783 106.903924 
L 650.66155 110.10264 
L 654.097316 113.348829 
L 657.533083 116.640404 
L 660.96885 119.975227 
L 664.404617 123.351118 
L 667.840383 126.765867 
L 671.27615 130.217242 
L 674.711917 133.702999 
L 678.147684 137.220893 
L 681.58345 140.768684 
L 685.019217 144.344146 
L 688.454984 147.945075 
L 691.890751 151.569295 
L 695.326517 155.214667 
L 698.762284 158.87909 
L 702.198051 162.56051 
L 705.633818 166.25692 
L 709.069584 169.966371 
L 712.505351 173.686968 
L 715.941118 177.416874 
L 719.376885 181.154317 
L 722.812652 184.897585 
L 726.248418 188.645031 
L 729.684185 192.395074 
L 733.119952 196.146198 
L 736.555719 199.89695 
L 739.991485 203.645946 
L 743.427252 207.391864 
L 746.863019 211.133445 
L 750.298786 214.869495 
L 753.734552 218.598879 
L 757.170319 222.320524 
L 760.606086 226.033415 
L 764.041853 229.736594 
L 767.477619 233.429158 
L 770.913386 237.110257 
L 774.349153 240.779095 
L 777.78492 244.434925 
L 781.220686 248.077046 
L 784.656453 251.704806 
L 788.09222 255.317596 
L 791.527987 258.91485 
L 794.963753 262.496044 
L 798.39952 266.06069 
L 801.835287 269.60834 
L 805.271054 273.13858 
L 808.70682 276.65103 
L 812.142587 280.145343 
L 815.578354 283.621202 
L 819.014121 287.078319 
L 822.449888 290.516433 
L 825.885654 293.93531 
L 829.321421 297.334742 
L 832.757188 300.714542 
L 836.192955 304.074545 
" clip-path="url(#p84c7d2fa75)" style="fill: none; stroke: #000000; stroke-width: 1.5; stroke-linecap: square"/>
   </g>
   <g id="line2d_58">
    <path d="M 496.052045 24.765455 
L 499.487812 24.814908 
L 502.923579 24.935102 
L 506.359346 25.125862 
L 509.795112 25.386913 
L 513.230879 25.717881 
L 516.666646 26.11829 
L 520.102413 26.587573 
L 523.53818 27.125067 
L 526.973946 27.730021 
L 530.409713 28.401595 
L 533.84548 29.13887 
L 537.281247 29.940847 
L 540.717013 30.806455 
L 544.15278 31.734553 
L 547.588547 32.723937 
L 551.024314 33.773344 
L 554.46008 34.881457 
L 557.895847 36.046911 
L 561.331614 37.268298 
L 564.767381 38.544172 
L 568.203147 39.873055 
L 571.638914 41.253439 
L 575.074681 42.683796 
L 578.510448 44.162579 
L 581.946214 45.688227 
L 585.381981 47.259171 
L 588.817748 48.873838 
L 592.253515 50.530654 
L 595.689281 52.228047 
L 599.125048 53.964454 
L 602.560815 55.73832 
L 605.996582 57.548107 
L 609.432348 59.392289 
L 612.868115 61.269361 
L 616.303882 63.177838 
L 619.739649 65.116261 
L 623.175416 67.083193 
L 626.611182 69.077225 
L 630.046949 71.096977 
L 633.482716 73.141098 
L 636.918483 75.208269 
L 640.354249 77.297201 
L 643.790016 79.406637 
L 647.225783 81.535357 
L 650.66155 83.682169 
L 654.097316 85.845919 
L 657.533083 88.025485 
L 660.96885 90.219779 
L 664.404617 92.427747 
L 667.840383 94.648369 
L 671.27615 96.880659 
L 674.711917 99.123664 
L 678.147684 101.376462 
L 681.58345 103.638167 
L 685.019217 105.907922 
L 688.454984 108.184903 
L 691.890751 110.468314 
L 695.326517 112.757393 
L 698.762284 115.051405 
L 702.198051 117.349644 
L 705.633818 119.651433 
L 709.069584 121.956121 
L 712.505351 124.263086 
L 715.941118 126.571729 
L 719.376885 128.881478 
L 722.812652 131.191785 
L 726.248418 133.502126 
L 729.684185 135.812 
L 733.119952 138.120927 
L 736.555719 140.42845 
L 739.991485 142.734132 
L 743.427252 145.037557 
L 746.863019 147.338328 
L 750.298786 149.636065 
L 753.734552 151.930409 
L 757.170319 154.221016 
L 760.606086 156.507561 
L 764.041853 158.789734 
L 767.477619 161.067239 
L 770.913386 163.339797 
L 774.349153 165.607144 
L 777.78492 167.869029 
L 781.220686 170.125212 
L 784.656453 172.37547 
L 788.09222 174.61959 
L 791.527987 176.857369 
L 794.963753 179.08862 
L 798.39952 181.313163 
L 801.835287 183.530829 
L 805.271054 185.74146 
L 808.70682 187.944908 
L 812.142587 190.141032 
L 815.578354 192.329703 
L 819.014121 194.510797 
L 822.449888 196.6842 
L 825.885654 198.849806 
L 829.321421 201.007516 
L 832.757188 203.157237 
L 836.192955 205.298884 
" clip-path="url(#p84c7d2fa75)" style="fill: none; stroke-dasharray: 5.55,2.4; stroke-dashoffset: 0; stroke: #0000ff; stroke-width: 1.5"/>
   </g>
   <g id="line2d_59">
    <path d="M 496.052045 24.906204 
L 499.487812 25.621409 
L 502.923579 26.334524 
L 506.359346 27.045563 
L 509.795112 27.754537 
L 513.230879 28.461458 
L 516.666646 29.166339 
L 520.102413 29.86919 
L 523.53818 30.570023 
L 526.973946 31.268851 
L 530.409713 31.965684 
L 533.84548 32.660534 
L 537.281247 33.353412 
L 540.717013 34.044329 
L 544.15278 34.733296 
L 547.588547 35.420324 
L 551.024314 36.105424 
L 554.46008 36.788608 
L 557.895847 37.469884 
L 561.331614 38.149264 
L 564.767381 38.826759 
L 568.203147 39.502379 
L 571.638914 40.176135 
L 575.074681 40.848035 
L 578.510448 41.518091 
L 581.946214 42.186313 
L 585.381981 42.852711 
L 588.817748 43.517294 
L 592.253515 44.180072 
L 595.689281 44.841056 
L 599.125048 45.500254 
L 602.560815 46.157677 
L 605.996582 46.813333 
L 609.432348 47.467233 
L 612.868115 48.119385 
L 616.303882 48.769799 
L 619.739649 49.418484 
L 623.175416 50.065449 
L 626.611182 50.710704 
L 630.046949 51.354256 
L 633.482716 51.996116 
L 636.918483 52.636291 
L 640.354249 53.274792 
L 643.790016 53.911625 
L 647.225783 54.546801 
L 650.66155 55.180327 
L 654.097316 55.812212 
L 657.533083 56.442464 
L 660.96885 57.071093 
L 664.404617 57.698105 
L 667.840383 58.32351 
L 671.27615 58.947315 
L 674.711917 59.569529 
L 678.147684 60.190159 
L 681.58345 60.809214 
L 685.019217 61.426702 
L 688.454984 62.04263 
L 691.890751 62.657006 
L 695.326517 63.269838 
L 698.762284 63.881133 
L 702.198051 64.4909 
L 705.633818 65.099146 
L 709.069584 65.705877 
L 712.505351 66.311103 
L 715.941118 66.914829 
L 719.376885 67.517065 
L 722.812652 68.117815 
L 726.248418 68.717089 
L 729.684185 69.314893 
L 733.119952 69.911234 
L 736.555719 70.506119 
L 739.991485 71.099556 
L 743.427252 71.691551 
L 746.863019 72.282112 
L 750.298786 72.871244 
L 753.734552 73.458955 
L 757.170319 74.045252 
L 760.606086 74.630142 
L 764.041853 75.21363 
L 767.477619 75.795725 
L 770.913386 76.376431 
L 774.349153 76.955757 
L 777.78492 77.533707 
L 781.220686 78.110289 
L 784.656453 78.68551 
L 788.09222 79.259375 
L 791.527987 79.83189 
L 794.963753 80.403063 
L 798.39952 80.972899 
L 801.835287 81.541404 
L 805.271054 82.108585 
L 808.70682 82.674447 
L 812.142587 83.238997 
L 815.578354 83.802241 
L 819.014121 84.364184 
L 822.449888 84.924833 
L 825.885654 85.484193 
L 829.321421 86.042271 
L 832.757188 86.599071 
L 836.192955 87.1546 
" clip-path="url(#p84c7d2fa75)" style="fill: none; stroke-dasharray: 1.5,2.475; stroke-dashoffset: 0; stroke: #ff0000; stroke-width: 1.5"/>
   </g>
   <g id="patch_9">
    <path d="M 479.045 318.04 
L 479.045 10.8 
" style="fill: none; stroke: #000000; stroke-width: 0.8; stroke-linejoin: miter; stroke-linecap: square"/>
   </g>
   <g id="patch_10">
    <path d="M 853.2 318.04 
L 853.2 10.8 
" style="fill: none; stroke: #000000; stroke-width: 0.8; stroke-linejoin: miter; stroke-linecap: square"/>
   </g>
   <g id="patch_11">
    <path d="M 479.045 318.04 
L 853.2 318.04 
" style="fill: none; stroke: #000000; stroke-width: 0.8; stroke-linejoin: miter; stroke-linecap: square"/>
   </g>
   <g id="patch_12">
    <path d="M 479.045 10.8 
L 853.2 10.8 
" style="fill: none; stroke: #000000; stroke-width: 0.8; stroke-linejoin: miter; stroke-linecap: square"/>
   </g>
   <g id="legend_2">
    <g id="patch_13">
     <path d="M 751.873437 62.834375 
L 846.2 62.834375 
Q 848.2 62.834375 848.2 60.834375 
L 848.2 17.8 
Q 848.2 15.8 846.2 15.8 
L 751.873437 15.8 
Q 749.873437 15.8 749.873437 17.8 
L 749.873437 60.834375 
Q 749.873437 62.834375 751.873437 62.834375 
z
" style="fill: #ffffff; opacity: 0.8; stroke: #cccccc; stroke-linejoin: miter"/>
    </g>
    <g id="line2d_60">
     <path d="M 753.873437 23.898438 
L 763.873437 23.898438 
L 773.873437 23.898438 
" style="fill: none; stroke: #000000; stroke-width: 1.5; stroke-linecap: square"/>
    </g>
    <g id="text_33">
     <!-- g=exp -->
     <g transform="translate(781.873437 27.398438) scale(0.1 -0.1)">
      <use xlink:href="#DejaVuSans-67"/>
      <use xlink:href="#DejaVuSans-3d" transform="translate(63.476562 0)"/>
      <use xlink:href="#DejaVuSans-65" transform="translate(147.265625 0)"/>
      <use xlink:href="#DejaVuSans-78" transform="translate(207.039062 0)"/>
      <use xlink:href="#DejaVuSans-70" transform="translate(266.21875 0)"/>
     </g>
    </g>
    <g id="line2d_61">
     <path d="M 753.873437 38.576563 
L 763.873437 38.576563 
L 773.873437 38.576563 
" style="fill: none; stroke-dasharray: 5.55,2.4; stroke-dashoffset: 0; stroke: #0000ff; stroke-width: 1.5"/>
    </g>
    <g id="text_34">
     <!-- g=quadratic -->
     <g transform="translate(781.873437 42.076563) scale(0.1 -0.1)">
      <use xlink:href="#DejaVuSans-67"/>
      <use xlink:href="#DejaVuSans-3d" transform="translate(63.476562 0)"/>
      <use xlink:href="#DejaVuSans-71" transform="translate(147.265625 0)"/>
      <use xlink:href="#DejaVuSans-75" transform="translate(210.742188 0)"/>
      <use xlink:href="#DejaVuSans-61" transform="translate(274.121094 0)"/>
      <use xlink:href="#DejaVuSans-64" transform="translate(335.400391 0)"/>
      <use xlink:href="#DejaVuSans-72" transform="translate(398.876953 0)"/>
      <use xlink:href="#DejaVuSans-61" transform="translate(439.990234 0)"/>
      <use xlink:href="#DejaVuSans-74" transform="translate(501.269531 0)"/>
      <use xlink:href="#DejaVuSans-69" transform="translate(540.478516 0)"/>
      <use xlink:href="#DejaVuSans-63" transform="translate(568.261719 0)"/>
     </g>
    </g>
    <g id="line2d_62">
     <path d="M 753.873437 53.254688 
L 763.873437 53.254688 
L 773.873437 53.254688 
" style="fill: none; stroke-dasharray: 1.5,2.475; stroke-dashoffset: 0; stroke: #ff0000; stroke-width: 1.5"/>
    </g>
    <g id="text_35">
     <!-- g=linear -->
     <g transform="translate(781.873437 56.754688) scale(0.1 -0.1)">
      <use xlink:href="#DejaVuSans-67"/>
      <use xlink:href="#DejaVuSans-3d" transform="translate(63.476562 0)"/>
      <use xlink:href="#DejaVuSans-6c" transform="translate(147.265625 0)"/>
      <use xlink:href="#DejaVuSans-69" transform="translate(175.048828 0)"/>
      <use xlink:href="#DejaVuSans-6e" transform="translate(202.832031 0)"/>
      <use xlink:href="#DejaVuSans-65" transform="translate(266.210938 0)"/>
      <use xlink:href="#DejaVuSans-61" transform="translate(327.734375 0)"/>
      <use xlink:href="#DejaVuSans-72" transform="translate(389.013672 0)"/>
     </g>
    </g>
   </g>
  </g>
 </g>
 <defs>
  <clipPath id="p1ce84200a5">
   <rect x="44.57" y="10.8" width="374.155" height="307.24"/>
  </clipPath>
  <clipPath id="p84c7d2fa75">
   <rect x="479.045" y="10.8" width="374.155" height="307.24"/>
  </clipPath>
 </defs>
</svg>
