<?xml version="1.0" encoding="utf-8" standalone="no"?>
<!DOCTYPE svg PUBLIC "-//W3C//DTD SVG 1.1//EN"
  "http://www.w3.org/Graphics/SVG/1.1/DTD/svg11.dtd">
<svg xmlns:xlink="http://www.w3.org/1999/xlink" width="558.885625pt" height="501.337656pt" viewBox="0 0 558.885625 501.337656" xmlns="http://www.w3.org/2000/svg" version="1.1">
 <metadata>
  <rdf:RDF xmlns:dc="http://purl.org/dc/elements/1.1/" xmlns:cc="http://creativecommons.org/ns#" xmlns:rdf="http://www.w3.org/1999/02/22-rdf-syntax-ns#">
   <cc:Work>
    <dc:type rdf:resource="http://purl.org/dc/dcmitype/StillImage"/>
    <dc:date>2025-11-19T08:46:45.934333</dc:date>
    <dc:format>image/svg+xml</dc:format>
    <dc:creator>
     <cc:Agent>
      <dc:title>Matplotlib v3.10.7, https://matplotlib.org/</dc:title>
     </cc:Agent>
    </dc:creator>
   </cc:Work>
  </rdf:RDF>
 </metadata>
 <defs>
  <style type="text/css">*{stroke-linejoin: round; stroke-linecap: butt}</style>
 </defs>
 <g id="figure_1">
  <g id="patch_1">
   <path d="M 0 501.337656 
L 558.885625 501.337656 
L 558.885625 0 
L 0 0 
z
" style="fill: #ffffff"/>
  </g>
  <g id="axes_1">
   <g id="patch_2">
    <path d="M 58.471875 456.038906 
L 504.871875 456.038906 
L 504.871875 12.518906 
L 58.471875 12.518906 
z
" style="fill: #ffffff"/>
   </g>
   <g id="matplotlib.axis_1">
    <g id="xtick_1">
     <g id="line2d_1">
      <path d="M 58.471875 456.038906 
L 58.471875 12.518906 
" clip-path="url(#pcabc624a36)" style="fill: none; stroke-dasharray: 0.5,0.825; stroke-dashoffset: 0; stroke: #808080; stroke-opacity: 0.3; stroke-width: 0.5"/>
     </g>
     <g id="line2d_2">
      <defs>
       <path id="macd3755f62" d="M 0 0 
L 0 3.5 
" style="stroke: #000000; stroke-width: 0.8"/>
      </defs>
      <g>
       <use xlink:href="#macd3755f62" x="58.471875" y="456.038906" style="stroke: #000000; stroke-width: 0.8"/>
      </g>
     </g>
     <g id="text_1">
      <!-- 0 -->
      <g transform="translate(54.018125 473.676719) scale(0.14 -0.14)">
       <defs>
        <path id="DejaVuSans-30" d="M 2034 4250 
Q 1547 4250 1301 3770 
Q 1056 3291 1056 2328 
Q 1056 1369 1301 889 
Q 1547 409 2034 409 
Q 2525 409 2770 889 
Q 3016 1369 3016 2328 
Q 3016 3291 2770 3770 
Q 2525 4250 2034 4250 
z
M 2034 4750 
Q 2819 4750 3233 4129 
Q 3647 3509 3647 2328 
Q 3647 1150 3233 529 
Q 2819 -91 2034 -91 
Q 1250 -91 836 529 
Q 422 1150 422 2328 
Q 422 3509 836 4129 
Q 1250 4750 2034 4750 
z
" transform="scale(0.015625)"/>
       </defs>
       <use xlink:href="#DejaVuSans-30"/>
      </g>
     </g>
    </g>
    <g id="xtick_2">
     <g id="line2d_3">
      <path d="M 122.243304 456.038906 
L 122.243304 12.518906 
" clip-path="url(#pcabc624a36)" style="fill: none; stroke-dasharray: 0.5,0.825; stroke-dashoffset: 0; stroke: #808080; stroke-opacity: 0.3; stroke-width: 0.5"/>
     </g>
     <g id="line2d_4">
      <g>
       <use xlink:href="#macd3755f62" x="122.243304" y="456.038906" style="stroke: #000000; stroke-width: 0.8"/>
      </g>
     </g>
     <g id="text_2">
      <!-- 1 -->
      <g transform="translate(117.789554 473.676719) scale(0.14 -0.14)">
       <defs>
        <path id="DejaVuSans-31" d="M 794 531 
L 1825 531 
L 1825 4091 
L 703 3866 
L 703 4441 
L 1819 4666 
L 2450 4666 
L 2450 531 
L 3481 531 
L 3481 0 
L 794 0 
L 794 531 
z
" transform="scale(0.015625)"/>
       </defs>
       <use xlink:href="#DejaVuSans-31"/>
      </g>
     </g>
    </g>
    <g id="xtick_3">
     <g id="line2d_5">
      <path d="M 186.014732 456.038906 
L 186.014732 12.518906 
" clip-path="url(#pcabc624a36)" style="fill: none; stroke-dasharray: 0.5,0.825; stroke-dashoffset: 0; stroke: #808080; stroke-opacity: 0.3; stroke-width: 0.5"/>
     </g>
     <g id="line2d_6">
      <g>
       <use xlink:href="#macd3755f62" x="186.014732" y="456.038906" style="stroke: #000000; stroke-width: 0.8"/>
      </g>
     </g>
     <g id="text_3">
      <!-- 2 -->
      <g transform="translate(181.560982 473.676719) scale(0.14 -0.14)">
       <defs>
        <path id="DejaVuSans-32" d="M 1228 531 
L 3431 531 
L 3431 0 
L 469 0 
L 469 531 
Q 828 903 1448 1529 
Q 2069 2156 2228 2338 
Q 2531 2678 2651 2914 
Q 2772 3150 2772 3378 
Q 2772 3750 2511 3984 
Q 2250 4219 1831 4219 
Q 1534 4219 1204 4116 
Q 875 4013 500 3803 
L 500 4441 
Q 881 4594 1212 4672 
Q 1544 4750 1819 4750 
Q 2544 4750 2975 4387 
Q 3406 4025 3406 3419 
Q 3406 3131 3298 2873 
Q 3191 2616 2906 2266 
Q 2828 2175 2409 1742 
Q 1991 1309 1228 531 
z
" transform="scale(0.015625)"/>
       </defs>
       <use xlink:href="#DejaVuSans-32"/>
      </g>
     </g>
    </g>
    <g id="xtick_4">
     <g id="line2d_7">
      <path d="M 249.786161 456.038906 
L 249.786161 12.518906 
" clip-path="url(#pcabc624a36)" style="fill: none; stroke-dasharray: 0.5,0.825; stroke-dashoffset: 0; stroke: #808080; stroke-opacity: 0.3; stroke-width: 0.5"/>
     </g>
     <g id="line2d_8">
      <g>
       <use xlink:href="#macd3755f62" x="249.786161" y="456.038906" style="stroke: #000000; stroke-width: 0.8"/>
      </g>
     </g>
     <g id="text_4">
      <!-- 3 -->
      <g transform="translate(245.332411 473.676719) scale(0.14 -0.14)">
       <defs>
        <path id="DejaVuSans-33" d="M 2597 2516 
Q 3050 2419 3304 2112 
Q 3559 1806 3559 1356 
Q 3559 666 3084 287 
Q 2609 -91 1734 -91 
Q 1441 -91 1130 -33 
Q 819 25 488 141 
L 488 750 
Q 750 597 1062 519 
Q 1375 441 1716 441 
Q 2309 441 2620 675 
Q 2931 909 2931 1356 
Q 2931 1769 2642 2001 
Q 2353 2234 1838 2234 
L 1294 2234 
L 1294 2753 
L 1863 2753 
Q 2328 2753 2575 2939 
Q 2822 3125 2822 3475 
Q 2822 3834 2567 4026 
Q 2313 4219 1838 4219 
Q 1578 4219 1281 4162 
Q 984 4106 628 3988 
L 628 4550 
Q 988 4650 1302 4700 
Q 1616 4750 1894 4750 
Q 2613 4750 3031 4423 
Q 3450 4097 3450 3541 
Q 3450 3153 3228 2886 
Q 3006 2619 2597 2516 
z
" transform="scale(0.015625)"/>
       </defs>
       <use xlink:href="#DejaVuSans-33"/>
      </g>
     </g>
    </g>
    <g id="xtick_5">
     <g id="line2d_9">
      <path d="M 313.557589 456.038906 
L 313.557589 12.518906 
" clip-path="url(#pcabc624a36)" style="fill: none; stroke-dasharray: 0.5,0.825; stroke-dashoffset: 0; stroke: #808080; stroke-opacity: 0.3; stroke-width: 0.5"/>
     </g>
     <g id="line2d_10">
      <g>
       <use xlink:href="#macd3755f62" x="313.557589" y="456.038906" style="stroke: #000000; stroke-width: 0.8"/>
      </g>
     </g>
     <g id="text_5">
      <!-- 4 -->
      <g transform="translate(309.103839 473.676719) scale(0.14 -0.14)">
       <defs>
        <path id="DejaVuSans-34" d="M 2419 4116 
L 825 1625 
L 2419 1625 
L 2419 4116 
z
M 2253 4666 
L 3047 4666 
L 3047 1625 
L 3713 1625 
L 3713 1100 
L 3047 1100 
L 3047 0 
L 2419 0 
L 2419 1100 
L 313 1100 
L 313 1709 
L 2253 4666 
z
" transform="scale(0.015625)"/>
       </defs>
       <use xlink:href="#DejaVuSans-34"/>
      </g>
     </g>
    </g>
    <g id="xtick_6">
     <g id="line2d_11">
      <path d="M 377.329018 456.038906 
L 377.329018 12.518906 
" clip-path="url(#pcabc624a36)" style="fill: none; stroke-dasharray: 0.5,0.825; stroke-dashoffset: 0; stroke: #808080; stroke-opacity: 0.3; stroke-width: 0.5"/>
     </g>
     <g id="line2d_12">
      <g>
       <use xlink:href="#macd3755f62" x="377.329018" y="456.038906" style="stroke: #000000; stroke-width: 0.8"/>
      </g>
     </g>
     <g id="text_6">
      <!-- 5 -->
      <g transform="translate(372.875268 473.676719) scale(0.14 -0.14)">
       <defs>
        <path id="DejaVuSans-35" d="M 691 4666 
L 3169 4666 
L 3169 4134 
L 1269 4134 
L 1269 2991 
Q 1406 3038 1543 3061 
Q 1681 3084 1819 3084 
Q 2600 3084 3056 2656 
Q 3513 2228 3513 1497 
Q 3513 744 3044 326 
Q 2575 -91 1722 -91 
Q 1428 -91 1123 -41 
Q 819 9 494 109 
L 494 744 
Q 775 591 1075 516 
Q 1375 441 1709 441 
Q 2250 441 2565 725 
Q 2881 1009 2881 1497 
Q 2881 1984 2565 2268 
Q 2250 2553 1709 2553 
Q 1456 2553 1204 2497 
Q 953 2441 691 2322 
L 691 4666 
z
" transform="scale(0.015625)"/>
       </defs>
       <use xlink:href="#DejaVuSans-35"/>
      </g>
     </g>
    </g>
    <g id="xtick_7">
     <g id="line2d_13">
      <path d="M 441.100446 456.038906 
L 441.100446 12.518906 
" clip-path="url(#pcabc624a36)" style="fill: none; stroke-dasharray: 0.5,0.825; stroke-dashoffset: 0; stroke: #808080; stroke-opacity: 0.3; stroke-width: 0.5"/>
     </g>
     <g id="line2d_14">
      <g>
       <use xlink:href="#macd3755f62" x="441.100446" y="456.038906" style="stroke: #000000; stroke-width: 0.8"/>
      </g>
     </g>
     <g id="text_7">
      <!-- 6 -->
      <g transform="translate(436.646696 473.676719) scale(0.14 -0.14)">
       <defs>
        <path id="DejaVuSans-36" d="M 2113 2584 
Q 1688 2584 1439 2293 
Q 1191 2003 1191 1497 
Q 1191 994 1439 701 
Q 1688 409 2113 409 
Q 2538 409 2786 701 
Q 3034 994 3034 1497 
Q 3034 2003 2786 2293 
Q 2538 2584 2113 2584 
z
M 3366 4563 
L 3366 3988 
Q 3128 4100 2886 4159 
Q 2644 4219 2406 4219 
Q 1781 4219 1451 3797 
Q 1122 3375 1075 2522 
Q 1259 2794 1537 2939 
Q 1816 3084 2150 3084 
Q 2853 3084 3261 2657 
Q 3669 2231 3669 1497 
Q 3669 778 3244 343 
Q 2819 -91 2113 -91 
Q 1303 -91 875 529 
Q 447 1150 447 2328 
Q 447 3434 972 4092 
Q 1497 4750 2381 4750 
Q 2619 4750 2861 4703 
Q 3103 4656 3366 4563 
z
" transform="scale(0.015625)"/>
       </defs>
       <use xlink:href="#DejaVuSans-36"/>
      </g>
     </g>
    </g>
    <g id="xtick_8">
     <g id="line2d_15">
      <path d="M 504.871875 456.038906 
L 504.871875 12.518906 
" clip-path="url(#pcabc624a36)" style="fill: none; stroke-dasharray: 0.5,0.825; stroke-dashoffset: 0; stroke: #808080; stroke-opacity: 0.3; stroke-width: 0.5"/>
     </g>
     <g id="line2d_16">
      <g>
       <use xlink:href="#macd3755f62" x="504.871875" y="456.038906" style="stroke: #000000; stroke-width: 0.8"/>
      </g>
     </g>
     <g id="text_8">
      <!-- 7 -->
      <g transform="translate(500.418125 473.676719) scale(0.14 -0.14)">
       <defs>
        <path id="DejaVuSans-37" d="M 525 4666 
L 3525 4666 
L 3525 4397 
L 1831 0 
L 1172 0 
L 2766 4134 
L 525 4134 
L 525 4666 
z
" transform="scale(0.015625)"/>
       </defs>
       <use xlink:href="#DejaVuSans-37"/>
      </g>
     </g>
    </g>
    <g id="text_9">
     <!-- t -->
     <g transform="translate(278.927656 491.226094) scale(0.14 -0.14)">
      <defs>
       <path id="DejaVuSans-74" d="M 1172 4494 
L 1172 3500 
L 2356 3500 
L 2356 3053 
L 1172 3053 
L 1172 1153 
Q 1172 725 1289 603 
Q 1406 481 1766 481 
L 2356 481 
L 2356 0 
L 1766 0 
Q 1100 0 847 248 
Q 594 497 594 1153 
L 594 3053 
L 172 3053 
L 172 3500 
L 594 3500 
L 594 4494 
L 1172 4494 
z
" transform="scale(0.015625)"/>
      </defs>
      <use xlink:href="#DejaVuSans-74"/>
     </g>
    </g>
   </g>
   <g id="matplotlib.axis_2">
    <g id="ytick_1">
     <g id="line2d_17">
      <path d="M 58.471875 456.038906 
L 504.871875 456.038906 
" clip-path="url(#pcabc624a36)" style="fill: none; stroke-dasharray: 0.5,0.825; stroke-dashoffset: 0; stroke: #808080; stroke-opacity: 0.3; stroke-width: 0.5"/>
     </g>
     <g id="line2d_18">
      <defs>
       <path id="m89d046b9c3" d="M 0 0 
L -3.5 0 
" style="stroke: #000000; stroke-width: 0.8"/>
      </defs>
      <g>
       <use xlink:href="#m89d046b9c3" x="58.471875" y="456.038906" style="stroke: #000000; stroke-width: 0.8"/>
      </g>
     </g>
     <g id="text_10">
      <!-- 0 -->
      <g transform="translate(42.564375 461.357813) scale(0.14 -0.14)">
       <use xlink:href="#DejaVuSans-30"/>
      </g>
     </g>
    </g>
    <g id="ytick_2">
     <g id="line2d_19">
      <path d="M 58.471875 367.334906 
L 504.871875 367.334906 
" clip-path="url(#pcabc624a36)" style="fill: none; stroke-dasharray: 0.5,0.825; stroke-dashoffset: 0; stroke: #808080; stroke-opacity: 0.3; stroke-width: 0.5"/>
     </g>
     <g id="line2d_20">
      <g>
       <use xlink:href="#m89d046b9c3" x="58.471875" y="367.334906" style="stroke: #000000; stroke-width: 0.8"/>
      </g>
     </g>
     <g id="text_11">
      <!-- 100 -->
      <g transform="translate(24.749375 372.653813) scale(0.14 -0.14)">
       <use xlink:href="#DejaVuSans-31"/>
       <use xlink:href="#DejaVuSans-30" transform="translate(63.623047 0)"/>
       <use xlink:href="#DejaVuSans-30" transform="translate(127.246094 0)"/>
      </g>
     </g>
    </g>
    <g id="ytick_3">
     <g id="line2d_21">
      <path d="M 58.471875 278.630906 
L 504.871875 278.630906 
" clip-path="url(#pcabc624a36)" style="fill: none; stroke-dasharray: 0.5,0.825; stroke-dashoffset: 0; stroke: #808080; stroke-opacity: 0.3; stroke-width: 0.5"/>
     </g>
     <g id="line2d_22">
      <g>
       <use xlink:href="#m89d046b9c3" x="58.471875" y="278.630906" style="stroke: #000000; stroke-width: 0.8"/>
      </g>
     </g>
     <g id="text_12">
      <!-- 200 -->
      <g transform="translate(24.749375 283.949813) scale(0.14 -0.14)">
       <use xlink:href="#DejaVuSans-32"/>
       <use xlink:href="#DejaVuSans-30" transform="translate(63.623047 0)"/>
       <use xlink:href="#DejaVuSans-30" transform="translate(127.246094 0)"/>
      </g>
     </g>
    </g>
    <g id="ytick_4">
     <g id="line2d_23">
      <path d="M 58.471875 189.926906 
L 504.871875 189.926906 
" clip-path="url(#pcabc624a36)" style="fill: none; stroke-dasharray: 0.5,0.825; stroke-dashoffset: 0; stroke: #808080; stroke-opacity: 0.3; stroke-width: 0.5"/>
     </g>
     <g id="line2d_24">
      <g>
       <use xlink:href="#m89d046b9c3" x="58.471875" y="189.926906" style="stroke: #000000; stroke-width: 0.8"/>
      </g>
     </g>
     <g id="text_13">
      <!-- 300 -->
      <g transform="translate(24.749375 195.245812) scale(0.14 -0.14)">
       <use xlink:href="#DejaVuSans-33"/>
       <use xlink:href="#DejaVuSans-30" transform="translate(63.623047 0)"/>
       <use xlink:href="#DejaVuSans-30" transform="translate(127.246094 0)"/>
      </g>
     </g>
    </g>
    <g id="ytick_5">
     <g id="line2d_25">
      <path d="M 58.471875 101.222906 
L 504.871875 101.222906 
" clip-path="url(#pcabc624a36)" style="fill: none; stroke-dasharray: 0.5,0.825; stroke-dashoffset: 0; stroke: #808080; stroke-opacity: 0.3; stroke-width: 0.5"/>
     </g>
     <g id="line2d_26">
      <g>
       <use xlink:href="#m89d046b9c3" x="58.471875" y="101.222906" style="stroke: #000000; stroke-width: 0.8"/>
      </g>
     </g>
     <g id="text_14">
      <!-- 400 -->
      <g transform="translate(24.749375 106.541813) scale(0.14 -0.14)">
       <use xlink:href="#DejaVuSans-34"/>
       <use xlink:href="#DejaVuSans-30" transform="translate(63.623047 0)"/>
       <use xlink:href="#DejaVuSans-30" transform="translate(127.246094 0)"/>
      </g>
     </g>
    </g>
    <g id="ytick_6">
     <g id="line2d_27">
      <path d="M 58.471875 12.518906 
L 504.871875 12.518906 
" clip-path="url(#pcabc624a36)" style="fill: none; stroke-dasharray: 0.5,0.825; stroke-dashoffset: 0; stroke: #808080; stroke-opacity: 0.3; stroke-width: 0.5"/>
     </g>
     <g id="line2d_28">
      <g>
       <use xlink:href="#m89d046b9c3" x="58.471875" y="12.518906" style="stroke: #000000; stroke-width: 0.8"/>
      </g>
     </g>
     <g id="text_15">
      <!-- 500 -->
      <g transform="translate(24.749375 17.837812) scale(0.14 -0.14)">
       <use xlink:href="#DejaVuSans-35"/>
       <use xlink:href="#DejaVuSans-30" transform="translate(63.623047 0)"/>
       <use xlink:href="#DejaVuSans-30" transform="translate(127.246094 0)"/>
      </g>
     </g>
    </g>
    <g id="text_16">
     <!-- s -->
     <g transform="translate(17.837813 237.925469) rotate(-90) scale(0.14 -0.14)">
      <defs>
       <path id="DejaVuSans-73" d="M 2834 3397 
L 2834 2853 
Q 2591 2978 2328 3040 
Q 2066 3103 1784 3103 
Q 1356 3103 1142 2972 
Q 928 2841 928 2578 
Q 928 2378 1081 2264 
Q 1234 2150 1697 2047 
L 1894 2003 
Q 2506 1872 2764 1633 
Q 3022 1394 3022 966 
Q 3022 478 2636 193 
Q 2250 -91 1575 -91 
Q 1294 -91 989 -36 
Q 684 19 347 128 
L 347 722 
Q 666 556 975 473 
Q 1284 391 1588 391 
Q 1994 391 2212 530 
Q 2431 669 2431 922 
Q 2431 1156 2273 1281 
Q 2116 1406 1581 1522 
L 1381 1569 
Q 847 1681 609 1914 
Q 372 2147 372 2553 
Q 372 3047 722 3315 
Q 1072 3584 1716 3584 
Q 2034 3584 2315 3537 
Q 2597 3491 2834 3397 
z
" transform="scale(0.015625)"/>
      </defs>
      <use xlink:href="#DejaVuSans-73"/>
     </g>
    </g>
   </g>
   <g id="line2d_29">
    <path d="M 58.471875 278.630906 
L 63.216944 286.417176 
L 68.013035 293.859692 
L 72.860148 300.973836 
L 77.809306 307.843195 
L 82.809486 314.405503 
L 87.91171 320.736398 
L 93.115979 326.839224 
L 98.422293 332.717773 
L 103.830651 338.376222 
L 109.341053 343.819082 
L 114.9535 349.051144 
L 120.719014 354.121002 
L 126.586572 358.985315 
L 132.607197 363.688528 
L 138.780889 368.229719 
L 145.107647 372.608714 
L 151.638495 376.858203 
L 158.373431 380.973404 
L 165.312456 384.950656 
L 172.455571 388.787332 
L 179.853796 392.506564 
L 187.456111 396.079485 
L 195.364559 399.549581 
L 203.57914 402.908943 
L 212.099855 406.151199 
L 220.926703 409.271404 
L 230.16173 412.298134 
L 239.753912 415.206841 
L 249.805294 418.020646 
L 260.315877 420.730059 
L 271.336681 423.339173 
L 282.867709 425.839427 
L 295.011003 428.243631 
L 307.817587 430.550719 
L 321.338482 432.758718 
L 335.675733 434.872226 
L 350.880362 436.886231 
L 367.054413 438.801741 
L 384.299932 440.617743 
L 402.769985 442.336328 
L 422.617638 443.95662 
L 443.995959 445.475775 
L 467.160058 446.895703 
L 492.365047 448.214628 
L 504.916519 448.795347 
L 504.916519 448.795347 
" clip-path="url(#pcabc624a36)" style="fill: none; stroke: #0000ff; stroke-width: 2; stroke-linecap: square"/>
   </g>
   <g id="line2d_30">
    <path d="M 58.471875 189.926906 
L 63.318988 200.751151 
L 68.217124 211.150556 
L 73.166282 221.141159 
L 78.166462 230.738476 
L 83.217664 239.9575 
L 88.319888 248.812699 
L 93.524157 257.400128 
L 98.779449 265.643073 
L 104.085762 273.555114 
L 109.49412 281.219811 
L 114.9535 288.572256 
L 120.514925 295.688704 
L 126.127372 302.511281 
L 131.841863 309.109513 
L 137.658399 315.486344 
L 143.57698 321.645064 
L 149.597605 327.589263 
L 155.720274 333.322798 
L 161.99601 338.893852 
L 168.373791 344.257979 
L 174.904638 349.459497 
L 181.588552 354.496934 
L 188.425533 359.369489 
L 195.415581 364.076982 
L 202.558695 368.619797 
L 209.905898 373.028572 
L 217.457191 377.299543 
L 225.212572 381.429829 
L 233.172042 385.417374 
L 241.386624 389.284161 
L 249.856316 393.025275 
L 258.632142 396.657283 
L 267.714102 400.173307 
L 277.102195 403.567747 
L 286.847444 406.852804 
L 296.949849 410.021716 
L 307.460431 413.083425 
L 318.379191 416.030679 
L 329.757152 418.87 
L 341.645335 421.605499 
L 354.043741 424.228926 
L 367.054413 426.752815 
L 380.677353 429.16754 
L 395.014604 431.48136 
L 410.117188 433.691549 
L 426.036129 435.795039 
L 442.924492 437.800165 
L 460.8333 439.700264 
L 479.915619 441.498646 
L 500.273495 443.19142 
L 504.916519 443.547958 
L 504.916519 443.547958 
" clip-path="url(#pcabc624a36)" style="fill: none; stroke: #00ffff; stroke-width: 2; stroke-linecap: square"/>
   </g>
   <g id="line2d_31">
    <path d="M 58.471875 101.222906 
L 64.747611 118.235358 
L 70.104947 132.115567 
L 75.309216 144.988293 
L 80.513485 157.271853 
L 85.717754 168.992022 
L 90.973045 180.284471 
L 96.279359 191.162818 
L 101.636694 201.640857 
L 107.045052 211.732186 
L 112.504433 221.450078 
L 118.014835 230.807431 
L 123.57626 239.816756 
L 129.188707 248.490172 
L 134.903198 256.912864 
L 140.668712 265.01595 
L 146.485248 272.810896 
L 152.403828 280.372424 
L 158.424453 287.702283 
L 164.4961 294.744872 
L 170.669792 301.56598 
L 176.945528 308.168119 
L 183.323309 314.554105 
L 189.803134 320.727036 
L 196.385003 326.690258 
L 203.068918 332.447337 
L 209.905898 338.042732 
L 216.844924 343.435573 
L 223.937016 348.666866 
L 231.182175 353.735395 
L 238.5804 358.640513 
L 246.182715 363.41327 
L 253.938096 368.019507 
L 261.897566 372.488112 
L 270.061125 376.815874 
L 278.428774 381.000347 
L 287.051533 385.063137 
L 295.929404 388.99904 
L 305.062385 392.803831 
L 314.501501 396.493525 
L 324.195727 400.043932 
L 334.24711 403.487414 
L 344.655648 406.816532 
L 355.421341 410.025166 
L 366.595213 413.122087 
L 378.177263 416.100651 
L 390.218513 418.967305 
L 402.769985 421.726206 
L 415.882702 424.379576 
L 429.607686 426.92805 
L 443.944937 429.362726 
L 458.996499 431.691813 
L 474.813395 433.912984 
L 491.497669 436.029715 
L 504.916519 437.579816 
L 504.916519 437.579816 
" clip-path="url(#pcabc624a36)" style="fill: none; stroke: #000080; stroke-width: 2; stroke-linecap: square"/>
   </g>
   <g id="line2d_32">
    <path d="M 58.471875 278.630906 
L 61.022987 292.194281 
L 63.5741 304.580412 
L 66.176234 316.121268 
L 68.778369 326.666547 
L 71.431525 336.493969 
L 74.084682 345.478603 
L 76.788861 353.853049 
L 79.49304 361.513356 
L 82.248241 368.654547 
L 85.003442 375.190043 
L 87.809666 381.283532 
L 90.666912 386.959835 
L 93.57518 392.242969 
L 96.53447 397.156092 
L 99.544782 401.721466 
L 102.606117 405.960435 
L 105.718474 409.893404 
L 108.932875 413.595946 
L 112.198299 417.020479 
L 115.565767 420.232282 
L 119.03528 423.236402 
L 122.657859 426.07703 
L 126.382483 428.715759 
L 130.260174 431.192133 
L 134.341953 433.533544 
L 138.627822 435.732725 
L 143.11778 437.785453 
L 147.862848 439.709665 
L 152.914051 441.516377 
L 158.322409 443.211264 
L 164.087922 444.783156 
L 170.312636 446.24782 
L 177.098595 447.611981 
L 184.49682 448.868053 
L 192.609357 450.016546 
L 201.640295 451.066081 
L 211.742699 452.011811 
L 223.222704 452.857875 
L 236.437466 453.602822 
L 251.948228 454.247521 
L 270.571348 454.791263 
L 293.735447 455.235479 
L 323.889594 455.579538 
L 366.28908 455.825 
L 434.760932 455.974075 
L 504.916519 456.019108 
L 504.916519 456.019108 
" clip-path="url(#pcabc624a36)" style="fill: none; stroke: #ff0000; stroke-width: 2; stroke-linecap: square"/>
   </g>
   <g id="line2d_33">
    <path d="M 58.471875 189.926906 
L 61.278098 208.666218 
L 64.084322 225.941916 
L 66.941568 242.159256 
L 69.798813 257.112113 
L 72.656059 270.909873 
L 75.564327 283.869927 
L 78.472595 295.830033 
L 81.431885 307.06162 
L 84.391176 317.427561 
L 87.350466 327.001497 
L 90.360778 335.996725 
L 93.371091 344.305098 
L 96.432425 352.109375 
L 99.544782 359.433415 
L 102.657139 366.194212 
L 105.820518 372.537607 
L 109.03492 378.484127 
L 112.249321 383.970225 
L 115.514745 389.112065 
L 118.831191 393.927161 
L 122.249681 398.497997 
L 125.719194 402.765152 
L 129.239729 406.74574 
L 132.862308 410.506971 
L 136.586932 414.05198 
L 140.413601 417.385049 
L 144.342313 420.511441 
L 148.373071 423.437249 
L 152.556895 426.201396 
L 156.893786 428.802288 
L 161.434766 431.266393 
L 166.179834 433.587568 
L 171.180014 435.783378 
L 176.435306 437.845593 
L 181.99673 439.785804 
L 187.864289 441.595707 
L 194.140025 443.296325 
L 200.823939 444.875834 
L 208.018075 446.346311 
L 215.824479 447.712604 
L 224.345194 448.974516 
L 233.682265 450.128851 
L 244.03978 451.180634 
L 255.62183 452.127903 
L 268.683525 452.968405 
L 283.684065 453.705915 
L 301.286739 454.342096 
L 322.409949 454.875095 
L 348.635383 455.305249 
L 382.973354 455.634066 
L 431.801642 455.862405 
L 504.916519 455.98668 
L 504.916519 455.98668 
" clip-path="url(#pcabc624a36)" style="fill: none; stroke: #ffa500; stroke-width: 2; stroke-linecap: square"/>
   </g>
   <g id="line2d_34">
    <path d="M 58.471875 101.222906 
L 61.53321 124.670481 
L 64.594544 146.440968 
L 67.706901 166.989675 
L 70.819258 186.065453 
L 73.931615 203.783065 
L 77.043972 220.247526 
L 80.207351 235.796808 
L 83.370731 250.243312 
L 86.53411 263.671728 
L 89.748511 276.353791 
L 92.962913 288.139432 
L 96.177314 299.09707 
L 99.442738 309.445392 
L 102.708161 319.064314 
L 106.024607 328.143887 
L 109.341053 336.581373 
L 112.708522 344.541858 
L 116.07599 351.937513 
L 119.49448 358.911671 
L 122.912971 365.389303 
L 126.382483 371.494799 
L 129.903018 377.244402 
L 133.474575 382.654103 
L 137.097155 387.73959 
L 140.770756 392.516218 
L 144.49538 396.998976 
L 148.322049 401.257039 
L 152.199739 405.241666 
L 156.179474 409.013908 
L 160.261254 412.57686 
L 164.445078 415.934565 
L 168.781969 419.127862 
L 173.220904 422.120262 
L 177.812906 424.948595 
L 182.608997 427.639411 
L 187.558155 430.161077 
L 192.762424 432.560907 
L 198.170782 434.809183 
L 203.885273 436.941478 
L 209.905898 438.947391 
L 216.232657 440.819815 
L 222.967593 442.579699 
L 230.16173 444.227261 
L 237.866089 445.760946 
L 246.182715 447.186411 
L 255.16263 448.497454 
L 264.958901 449.700694 
L 275.775617 450.801327 
L 287.765844 451.793683 
L 301.235717 452.680714 
L 316.542391 453.461081 
L 334.298132 454.137692 
L 355.319297 454.709202 
L 380.983486 455.176257 
L 413.79079 455.540135 
L 458.741388 455.801558 
L 504.916519 455.927356 
L 504.916519 455.927356 
" clip-path="url(#pcabc624a36)" style="fill: none; stroke: #8b0000; stroke-width: 2; stroke-linecap: square"/>
   </g>
   <g id="patch_3">
    <path d="M 58.471875 456.038906 
L 58.471875 12.518906 
" style="fill: none; stroke: #000000; stroke-width: 0.8; stroke-linejoin: miter; stroke-linecap: square"/>
   </g>
   <g id="patch_4">
    <path d="M 504.871875 456.038906 
L 504.871875 12.518906 
" style="fill: none; stroke: #000000; stroke-width: 0.8; stroke-linejoin: miter; stroke-linecap: square"/>
   </g>
   <g id="patch_5">
    <path d="M 58.471875 456.038906 
L 504.871875 456.038906 
" style="fill: none; stroke: #000000; stroke-width: 0.8; stroke-linejoin: miter; stroke-linecap: square"/>
   </g>
  </g>
  <g id="axes_2">
   <g id="matplotlib.axis_3">
    <g id="ytick_7">
     <g id="line2d_35">
      <defs>
       <path id="md5d9bc4f7f" d="M 0 0 
L 3.5 0 
" style="stroke: #000000; stroke-width: 0.8"/>
      </defs>
      <g>
       <use xlink:href="#md5d9bc4f7f" x="504.871875" y="456.038906" style="stroke: #000000; stroke-width: 0.8"/>
      </g>
     </g>
     <g id="text_17">
      <!-- 0.0 -->
      <g transform="translate(511.871875 461.357813) scale(0.14 -0.14)">
       <defs>
        <path id="DejaVuSans-2e" d="M 684 794 
L 1344 794 
L 1344 0 
L 684 0 
L 684 794 
z
" transform="scale(0.015625)"/>
       </defs>
       <use xlink:href="#DejaVuSans-30"/>
       <use xlink:href="#DejaVuSans-2e" transform="translate(63.623047 0)"/>
       <use xlink:href="#DejaVuSans-30" transform="translate(95.410156 0)"/>
      </g>
     </g>
    </g>
    <g id="ytick_8">
     <g id="line2d_36">
      <g>
       <use xlink:href="#md5d9bc4f7f" x="504.871875" y="367.334906" style="stroke: #000000; stroke-width: 0.8"/>
      </g>
     </g>
     <g id="text_18">
      <!-- 0.2 -->
      <g transform="translate(511.871875 372.653812) scale(0.14 -0.14)">
       <use xlink:href="#DejaVuSans-30"/>
       <use xlink:href="#DejaVuSans-2e" transform="translate(63.623047 0)"/>
       <use xlink:href="#DejaVuSans-32" transform="translate(95.410156 0)"/>
      </g>
     </g>
    </g>
    <g id="ytick_9">
     <g id="line2d_37">
      <g>
       <use xlink:href="#md5d9bc4f7f" x="504.871875" y="278.630906" style="stroke: #000000; stroke-width: 0.8"/>
      </g>
     </g>
     <g id="text_19">
      <!-- 0.4 -->
      <g transform="translate(511.871875 283.949813) scale(0.14 -0.14)">
       <use xlink:href="#DejaVuSans-30"/>
       <use xlink:href="#DejaVuSans-2e" transform="translate(63.623047 0)"/>
       <use xlink:href="#DejaVuSans-34" transform="translate(95.410156 0)"/>
      </g>
     </g>
    </g>
    <g id="ytick_10">
     <g id="line2d_38">
      <g>
       <use xlink:href="#md5d9bc4f7f" x="504.871875" y="189.926906" style="stroke: #000000; stroke-width: 0.8"/>
      </g>
     </g>
     <g id="text_20">
      <!-- 0.6 -->
      <g transform="translate(511.871875 195.245812) scale(0.14 -0.14)">
       <use xlink:href="#DejaVuSans-30"/>
       <use xlink:href="#DejaVuSans-2e" transform="translate(63.623047 0)"/>
       <use xlink:href="#DejaVuSans-36" transform="translate(95.410156 0)"/>
      </g>
     </g>
    </g>
    <g id="ytick_11">
     <g id="line2d_39">
      <g>
       <use xlink:href="#md5d9bc4f7f" x="504.871875" y="101.222906" style="stroke: #000000; stroke-width: 0.8"/>
      </g>
     </g>
     <g id="text_21">
      <!-- 0.8 -->
      <g transform="translate(511.871875 106.541812) scale(0.14 -0.14)">
       <defs>
        <path id="DejaVuSans-38" d="M 2034 2216 
Q 1584 2216 1326 1975 
Q 1069 1734 1069 1313 
Q 1069 891 1326 650 
Q 1584 409 2034 409 
Q 2484 409 2743 651 
Q 3003 894 3003 1313 
Q 3003 1734 2745 1975 
Q 2488 2216 2034 2216 
z
M 1403 2484 
Q 997 2584 770 2862 
Q 544 3141 544 3541 
Q 544 4100 942 4425 
Q 1341 4750 2034 4750 
Q 2731 4750 3128 4425 
Q 3525 4100 3525 3541 
Q 3525 3141 3298 2862 
Q 3072 2584 2669 2484 
Q 3125 2378 3379 2068 
Q 3634 1759 3634 1313 
Q 3634 634 3220 271 
Q 2806 -91 2034 -91 
Q 1263 -91 848 271 
Q 434 634 434 1313 
Q 434 1759 690 2068 
Q 947 2378 1403 2484 
z
M 1172 3481 
Q 1172 3119 1398 2916 
Q 1625 2713 2034 2713 
Q 2441 2713 2670 2916 
Q 2900 3119 2900 3481 
Q 2900 3844 2670 4047 
Q 2441 4250 2034 4250 
Q 1625 4250 1398 4047 
Q 1172 3844 1172 3481 
z
" transform="scale(0.015625)"/>
       </defs>
       <use xlink:href="#DejaVuSans-30"/>
       <use xlink:href="#DejaVuSans-2e" transform="translate(63.623047 0)"/>
       <use xlink:href="#DejaVuSans-38" transform="translate(95.410156 0)"/>
      </g>
     </g>
    </g>
    <g id="ytick_12">
     <g id="line2d_40">
      <g>
       <use xlink:href="#md5d9bc4f7f" x="504.871875" y="12.518906" style="stroke: #000000; stroke-width: 0.8"/>
      </g>
     </g>
     <g id="text_22">
      <!-- 1.0 -->
      <g transform="translate(511.871875 17.837812) scale(0.14 -0.14)">
       <use xlink:href="#DejaVuSans-31"/>
       <use xlink:href="#DejaVuSans-2e" transform="translate(63.623047 0)"/>
       <use xlink:href="#DejaVuSans-30" transform="translate(95.410156 0)"/>
      </g>
     </g>
    </g>
    <g id="text_23">
     <!-- w -->
     <g transform="translate(548.774063 240.003594) rotate(-90) scale(0.14 -0.14)">
      <defs>
       <path id="DejaVuSans-77" d="M 269 3500 
L 844 3500 
L 1563 769 
L 2278 3500 
L 2956 3500 
L 3675 769 
L 4391 3500 
L 4966 3500 
L 4050 0 
L 3372 0 
L 2619 2869 
L 1863 0 
L 1184 0 
L 269 3500 
z
" transform="scale(0.015625)"/>
      </defs>
      <use xlink:href="#DejaVuSans-77"/>
     </g>
    </g>
   </g>
   <g id="line2d_41">
    <path d="M 58.471875 234.278906 
L 66.635434 225.923935 
L 74.850016 217.834454 
L 83.166642 209.956814 
L 91.53429 202.335861 
L 100.003982 194.921487 
L 108.57572 187.712602 
L 117.249501 180.707867 
L 126.025327 173.905709 
L 134.903198 167.304333 
L 143.934136 160.86612 
L 153.067117 154.627465 
L 162.353166 148.553184 
L 171.792281 142.644808 
L 181.384463 136.903452 
L 191.129712 131.329831 
L 201.028028 125.924272 
L 211.130432 120.660774 
L 221.436926 115.542611 
L 231.947508 110.572496 
L 242.66218 105.752595 
L 253.58094 101.084547 
L 264.754812 96.549314 
L 276.183795 92.150693 
L 287.918911 87.873722 
L 299.909139 83.740937 
L 312.2055 79.737937 
L 324.859017 75.853422 
L 337.869689 72.09321 
L 351.237517 68.462171 
L 365.013523 64.951665 
L 379.197708 61.567175 
L 393.841092 58.302142 
L 408.994699 55.152003 
L 424.70955 52.113931 
L 440.985646 49.195392 
L 457.874009 46.394265 
L 475.425662 43.709595 
L 493.742648 41.134477 
L 504.916519 39.669142 
L 504.916519 39.669142 
" clip-path="url(#pcabc624a36)" style="fill: none; stroke-dasharray: 7.4,3.2; stroke-dashoffset: 0; stroke: #0000ff; stroke-width: 2"/>
   </g>
   <g id="line2d_42">
    <path d="M 58.471875 189.926906 
L 67.349746 182.677496 
L 76.125572 175.797377 
L 85.003442 169.119083 
L 93.983358 162.641553 
L 103.116339 156.328279 
L 112.351366 150.21436 
L 121.739459 144.265459 
L 131.280619 138.482831 
L 140.974845 132.867322 
L 150.822139 127.419388 
L 160.873521 122.112799 
L 171.128992 116.950978 
L 181.588552 111.936779 
L 192.252202 107.072508 
L 203.11994 102.359936 
L 214.242789 97.779855 
L 225.62075 93.336218 
L 237.253822 89.032293 
L 249.193027 84.853327 
L 261.438366 80.804194 
L 273.989838 76.888955 
L 286.898466 73.096335 
L 300.16425 69.43147 
L 313.838212 65.885752 
L 327.920351 62.464938 
L 342.461691 59.16253 
L 357.462231 55.984478 
L 373.024016 52.916162 
L 389.147045 49.965444 
L 405.882342 47.13042 
L 423.280927 44.410364 
L 441.393824 41.805495 
L 460.272055 39.316733 
L 480.017664 36.939616 
L 500.681673 34.67742 
L 504.916519 34.240347 
L 504.916519 34.240347 
" clip-path="url(#pcabc624a36)" style="fill: none; stroke-dasharray: 7.4,3.2; stroke-dashoffset: 0; stroke: #00ffff; stroke-width: 2"/>
   </g>
   <g id="line2d_43">
    <path d="M 58.471875 145.574906 
L 59.441298 146.807452 
L 60.41072 147.68065 
L 61.380143 148.266867 
L 62.45161 148.649582 
L 63.5741 148.815518 
L 64.849656 148.779187 
L 66.329301 148.51245 
L 68.166102 147.942142 
L 70.462103 146.982284 
L 73.57446 145.42329 
L 78.421573 142.719111 
L 103.57554 128.381824 
L 113.728966 122.980888 
L 123.984438 117.778977 
L 134.392976 112.749303 
L 145.005603 107.86823 
L 155.822319 103.13777 
L 166.894146 98.538688 
L 178.221084 94.075078 
L 189.803134 89.750342 
L 201.691317 85.549686 
L 213.885634 81.478122 
L 226.386084 77.539847 
L 239.243689 73.723566 
L 252.458451 70.034558 
L 266.030368 66.477163 
L 280.061485 63.030563 
L 294.500781 59.713405 
L 309.450299 56.508377 
L 324.910039 53.422709 
L 340.931024 50.453198 
L 357.564276 47.598082 
L 374.809795 44.864557 
L 392.769625 42.243985 
L 411.494789 39.737554 
L 431.087331 37.340974 
L 451.598273 35.057823 
L 473.129661 32.886667 
L 495.783538 30.827721 
L 504.916519 30.057755 
L 504.916519 30.057755 
" clip-path="url(#pcabc624a36)" style="fill: none; stroke-dasharray: 7.4,3.2; stroke-dashoffset: 0; stroke: #000080; stroke-width: 2"/>
   </g>
   <g id="line2d_44">
    <path d="M 58.471875 234.278906 
L 66.635434 225.923929 
L 74.850016 217.834445 
L 83.166642 209.956805 
L 91.53429 202.335852 
L 100.003982 194.921478 
L 108.57572 187.712593 
L 117.249501 180.707859 
L 126.025327 173.905701 
L 134.903198 167.304325 
L 143.934136 160.866112 
L 153.067117 154.627458 
L 162.353166 148.553177 
L 171.792281 142.644801 
L 181.384463 136.903446 
L 191.129712 131.329825 
L 201.028028 125.924266 
L 211.130432 120.660768 
L 221.436926 115.542606 
L 231.947508 110.572491 
L 242.66218 105.75259 
L 253.58094 101.084543 
L 264.754812 96.549309 
L 276.183795 92.150689 
L 287.918911 87.873718 
L 299.909139 83.740933 
L 312.2055 79.737934 
L 324.859017 75.853419 
L 337.869689 72.093207 
L 351.237517 68.462168 
L 365.013523 64.951662 
L 379.197708 61.567172 
L 393.841092 58.30214 
L 408.994699 55.152001 
L 424.70955 52.113929 
L 440.985646 49.19539 
L 457.874009 46.394263 
L 475.425662 43.709594 
L 493.742648 41.134476 
L 504.916519 39.669141 
L 504.916519 39.669141 
" clip-path="url(#pcabc624a36)" style="fill: none; stroke-dasharray: 7.4,3.2; stroke-dashoffset: 0; stroke: #ff0000; stroke-width: 2"/>
   </g>
   <g id="line2d_45">
    <path d="M 58.471875 189.926906 
L 67.094634 182.874522 
L 75.870461 175.984737 
L 84.748331 169.298319 
L 93.728246 162.813237 
L 102.861228 156.492698 
L 112.096255 150.371774 
L 121.484348 144.416065 
L 131.025508 138.626824 
L 140.719734 133.004895 
L 150.567027 127.550733 
L 160.61841 122.238077 
L 170.873881 117.070355 
L 181.282419 112.074318 
L 191.946068 107.203317 
L 202.813806 102.484226 
L 213.936656 97.897809 
L 225.314616 93.448024 
L 236.947688 89.138145 
L 248.886894 84.953398 
L 261.08121 80.915078 
L 273.632683 76.99348 
L 286.541311 73.194702 
L 299.807094 69.523886 
L 313.481056 65.972411 
L 327.563196 62.546042 
L 342.104535 59.238271 
L 357.105075 56.055058 
L 372.615838 52.991473 
L 388.687845 50.044261 
L 405.372119 47.211595 
L 422.719683 44.492834 
L 440.781557 41.888277 
L 459.659788 39.392481 
L 479.354375 37.014522 
L 500.018384 34.745388 
L 504.916519 34.239094 
L 504.916519 34.239094 
" clip-path="url(#pcabc624a36)" style="fill: none; stroke-dasharray: 7.4,3.2; stroke-dashoffset: 0; stroke: #ffa500; stroke-width: 2"/>
   </g>
   <g id="line2d_46">
    <path d="M 58.471875 145.574906 
L 67.962013 139.76534 
L 77.605217 134.12184 
L 87.45251 128.617115 
L 97.45287 123.281792 
L 107.657319 118.090248 
L 118.065857 113.045475 
L 128.678484 108.149909 
L 139.4952 103.405452 
L 150.567027 98.792776 
L 161.893966 94.315978 
L 173.476015 89.978466 
L 185.313176 85.782984 
L 197.456471 81.715021 
L 209.956921 77.763216 
L 222.763504 73.948568 
L 235.927243 70.259855 
L 249.499161 66.688526 
L 263.479256 63.240597 
L 277.918551 59.909647 
L 292.817047 56.701895 
L 308.225765 53.612515 
L 324.195727 50.638373 
L 340.777957 47.777782 
L 358.023476 45.030253 
L 375.932284 42.40343 
L 394.606426 39.890123 
L 414.147945 37.486101 
L 434.607866 35.195043 
L 456.088231 33.015589 
L 478.691085 30.948033 
L 502.518474 28.993859 
L 504.916519 28.809047 
L 504.916519 28.809047 
" clip-path="url(#pcabc624a36)" style="fill: none; stroke-dasharray: 7.4,3.2; stroke-dashoffset: 0; stroke: #8b0000; stroke-width: 2"/>
   </g>
   <g id="patch_6">
    <path d="M 58.471875 456.038906 
L 58.471875 12.518906 
" style="fill: none; stroke: #000000; stroke-width: 0.8; stroke-linejoin: miter; stroke-linecap: square"/>
   </g>
   <g id="patch_7">
    <path d="M 504.871875 456.038906 
L 504.871875 12.518906 
" style="fill: none; stroke: #000000; stroke-width: 0.8; stroke-linejoin: miter; stroke-linecap: square"/>
   </g>
   <g id="patch_8">
    <path d="M 58.471875 456.038906 
L 504.871875 456.038906 
" style="fill: none; stroke: #000000; stroke-width: 0.8; stroke-linejoin: miter; stroke-linecap: square"/>
   </g>
   <g id="patch_9">
    <path d="M 58.471875 12.518906 
L 504.871875 12.518906 
" style="fill: none; stroke: #000000; stroke-width: 0.8; stroke-linejoin: miter; stroke-linecap: square"/>
   </g>
  </g>
 </g>
 <defs>
  <clipPath id="pcabc624a36">
   <rect x="58.471875" y="12.518906" width="446.4" height="443.52"/>
  </clipPath>
 </defs>
</svg>
