<?xml version="1.0" encoding="utf-8" standalone="no"?>
<!DOCTYPE svg PUBLIC "-//W3C//DTD SVG 1.1//EN"
  "http://www.w3.org/Graphics/SVG/1.1/DTD/svg11.dtd">
<svg xmlns:xlink="http://www.w3.org/1999/xlink" width="519.345312pt" height="501.337656pt" viewBox="0 0 519.345312 501.337656" xmlns="http://www.w3.org/2000/svg" version="1.1">
 <metadata>
  <rdf:RDF xmlns:dc="http://purl.org/dc/elements/1.1/" xmlns:cc="http://creativecommons.org/ns#" xmlns:rdf="http://www.w3.org/1999/02/22-rdf-syntax-ns#">
   <cc:Work>
    <dc:type rdf:resource="http://purl.org/dc/dcmitype/StillImage"/>
    <dc:date>2025-11-14T20:46:59.346080</dc:date>
    <dc:format>image/svg+xml</dc:format>
    <dc:creator>
     <cc:Agent>
      <dc:title>Matplotlib v3.10.7, https://matplotlib.org/</dc:title>
     </cc:Agent>
    </dc:creator>
   </cc:Work>
  </rdf:RDF>
 </metadata>
 <defs>
  <style type="text/css">*{stroke-linejoin: round; stroke-linecap: butt}</style>
 </defs>
 <g id="figure_1">
  <g id="patch_1">
   <path d="M 0 501.337656 
L 519.345312 501.337656 
L 519.345312 0 
L 0 0 
z
" style="fill: #ffffff"/>
  </g>
  <g id="axes_1">
   <g id="patch_2">
    <path d="M 65.745313 456.038906 
L 512.145312 456.038906 
L 512.145312 12.518906 
L 65.745313 12.518906 
z
" style="fill: #ffffff"/>
   </g>
   <g id="matplotlib.axis_1">
    <g id="xtick_1">
     <g id="line2d_1">
      <path d="M 65.745313 456.038906 
L 65.745313 12.518906 
" clip-path="url(#p908c330a79)" style="fill: none; stroke: #b0b0b0; stroke-opacity: 0.3; stroke-width: 0.8; stroke-linecap: square"/>
     </g>
     <g id="line2d_2">
      <defs>
       <path id="m255d53ef11" d="M 0 0 
L 0 3.5 
" style="stroke: #000000; stroke-width: 0.8"/>
      </defs>
      <g>
       <use xlink:href="#m255d53ef11" x="65.745313" y="456.038906" style="stroke: #000000; stroke-width: 0.8"/>
      </g>
     </g>
     <g id="text_1">
      <!-- 0 -->
      <g transform="translate(61.291563 473.676719) scale(0.14 -0.14)">
       <defs>
        <path id="DejaVuSans-30" d="M 2034 4250 
Q 1547 4250 1301 3770 
Q 1056 3291 1056 2328 
Q 1056 1369 1301 889 
Q 1547 409 2034 409 
Q 2525 409 2770 889 
Q 3016 1369 3016 2328 
Q 3016 3291 2770 3770 
Q 2525 4250 2034 4250 
z
M 2034 4750 
Q 2819 4750 3233 4129 
Q 3647 3509 3647 2328 
Q 3647 1150 3233 529 
Q 2819 -91 2034 -91 
Q 1250 -91 836 529 
Q 422 1150 422 2328 
Q 422 3509 836 4129 
Q 1250 4750 2034 4750 
z
" transform="scale(0.015625)"/>
       </defs>
       <use xlink:href="#DejaVuSans-30"/>
      </g>
     </g>
    </g>
    <g id="xtick_2">
     <g id="line2d_3">
      <path d="M 136.828115 456.038906 
L 136.828115 12.518906 
" clip-path="url(#p908c330a79)" style="fill: none; stroke: #b0b0b0; stroke-opacity: 0.3; stroke-width: 0.8; stroke-linecap: square"/>
     </g>
     <g id="line2d_4">
      <g>
       <use xlink:href="#m255d53ef11" x="136.828115" y="456.038906" style="stroke: #000000; stroke-width: 0.8"/>
      </g>
     </g>
     <g id="text_2">
      <!-- 1 -->
      <g transform="translate(132.374365 473.676719) scale(0.14 -0.14)">
       <defs>
        <path id="DejaVuSans-31" d="M 794 531 
L 1825 531 
L 1825 4091 
L 703 3866 
L 703 4441 
L 1819 4666 
L 2450 4666 
L 2450 531 
L 3481 531 
L 3481 0 
L 794 0 
L 794 531 
z
" transform="scale(0.015625)"/>
       </defs>
       <use xlink:href="#DejaVuSans-31"/>
      </g>
     </g>
    </g>
    <g id="xtick_3">
     <g id="line2d_5">
      <path d="M 207.910918 456.038906 
L 207.910918 12.518906 
" clip-path="url(#p908c330a79)" style="fill: none; stroke: #b0b0b0; stroke-opacity: 0.3; stroke-width: 0.8; stroke-linecap: square"/>
     </g>
     <g id="line2d_6">
      <g>
       <use xlink:href="#m255d53ef11" x="207.910918" y="456.038906" style="stroke: #000000; stroke-width: 0.8"/>
      </g>
     </g>
     <g id="text_3">
      <!-- 2 -->
      <g transform="translate(203.457168 473.676719) scale(0.14 -0.14)">
       <defs>
        <path id="DejaVuSans-32" d="M 1228 531 
L 3431 531 
L 3431 0 
L 469 0 
L 469 531 
Q 828 903 1448 1529 
Q 2069 2156 2228 2338 
Q 2531 2678 2651 2914 
Q 2772 3150 2772 3378 
Q 2772 3750 2511 3984 
Q 2250 4219 1831 4219 
Q 1534 4219 1204 4116 
Q 875 4013 500 3803 
L 500 4441 
Q 881 4594 1212 4672 
Q 1544 4750 1819 4750 
Q 2544 4750 2975 4387 
Q 3406 4025 3406 3419 
Q 3406 3131 3298 2873 
Q 3191 2616 2906 2266 
Q 2828 2175 2409 1742 
Q 1991 1309 1228 531 
z
" transform="scale(0.015625)"/>
       </defs>
       <use xlink:href="#DejaVuSans-32"/>
      </g>
     </g>
    </g>
    <g id="xtick_4">
     <g id="line2d_7">
      <path d="M 278.99372 456.038906 
L 278.99372 12.518906 
" clip-path="url(#p908c330a79)" style="fill: none; stroke: #b0b0b0; stroke-opacity: 0.3; stroke-width: 0.8; stroke-linecap: square"/>
     </g>
     <g id="line2d_8">
      <g>
       <use xlink:href="#m255d53ef11" x="278.99372" y="456.038906" style="stroke: #000000; stroke-width: 0.8"/>
      </g>
     </g>
     <g id="text_4">
      <!-- 3 -->
      <g transform="translate(274.53997 473.676719) scale(0.14 -0.14)">
       <defs>
        <path id="DejaVuSans-33" d="M 2597 2516 
Q 3050 2419 3304 2112 
Q 3559 1806 3559 1356 
Q 3559 666 3084 287 
Q 2609 -91 1734 -91 
Q 1441 -91 1130 -33 
Q 819 25 488 141 
L 488 750 
Q 750 597 1062 519 
Q 1375 441 1716 441 
Q 2309 441 2620 675 
Q 2931 909 2931 1356 
Q 2931 1769 2642 2001 
Q 2353 2234 1838 2234 
L 1294 2234 
L 1294 2753 
L 1863 2753 
Q 2328 2753 2575 2939 
Q 2822 3125 2822 3475 
Q 2822 3834 2567 4026 
Q 2313 4219 1838 4219 
Q 1578 4219 1281 4162 
Q 984 4106 628 3988 
L 628 4550 
Q 988 4650 1302 4700 
Q 1616 4750 1894 4750 
Q 2613 4750 3031 4423 
Q 3450 4097 3450 3541 
Q 3450 3153 3228 2886 
Q 3006 2619 2597 2516 
z
" transform="scale(0.015625)"/>
       </defs>
       <use xlink:href="#DejaVuSans-33"/>
      </g>
     </g>
    </g>
    <g id="xtick_5">
     <g id="line2d_9">
      <path d="M 350.076523 456.038906 
L 350.076523 12.518906 
" clip-path="url(#p908c330a79)" style="fill: none; stroke: #b0b0b0; stroke-opacity: 0.3; stroke-width: 0.8; stroke-linecap: square"/>
     </g>
     <g id="line2d_10">
      <g>
       <use xlink:href="#m255d53ef11" x="350.076523" y="456.038906" style="stroke: #000000; stroke-width: 0.8"/>
      </g>
     </g>
     <g id="text_5">
      <!-- 4 -->
      <g transform="translate(345.622773 473.676719) scale(0.14 -0.14)">
       <defs>
        <path id="DejaVuSans-34" d="M 2419 4116 
L 825 1625 
L 2419 1625 
L 2419 4116 
z
M 2253 4666 
L 3047 4666 
L 3047 1625 
L 3713 1625 
L 3713 1100 
L 3047 1100 
L 3047 0 
L 2419 0 
L 2419 1100 
L 313 1100 
L 313 1709 
L 2253 4666 
z
" transform="scale(0.015625)"/>
       </defs>
       <use xlink:href="#DejaVuSans-34"/>
      </g>
     </g>
    </g>
    <g id="xtick_6">
     <g id="line2d_11">
      <path d="M 421.159325 456.038906 
L 421.159325 12.518906 
" clip-path="url(#p908c330a79)" style="fill: none; stroke: #b0b0b0; stroke-opacity: 0.3; stroke-width: 0.8; stroke-linecap: square"/>
     </g>
     <g id="line2d_12">
      <g>
       <use xlink:href="#m255d53ef11" x="421.159325" y="456.038906" style="stroke: #000000; stroke-width: 0.8"/>
      </g>
     </g>
     <g id="text_6">
      <!-- 5 -->
      <g transform="translate(416.705575 473.676719) scale(0.14 -0.14)">
       <defs>
        <path id="DejaVuSans-35" d="M 691 4666 
L 3169 4666 
L 3169 4134 
L 1269 4134 
L 1269 2991 
Q 1406 3038 1543 3061 
Q 1681 3084 1819 3084 
Q 2600 3084 3056 2656 
Q 3513 2228 3513 1497 
Q 3513 744 3044 326 
Q 2575 -91 1722 -91 
Q 1428 -91 1123 -41 
Q 819 9 494 109 
L 494 744 
Q 775 591 1075 516 
Q 1375 441 1709 441 
Q 2250 441 2565 725 
Q 2881 1009 2881 1497 
Q 2881 1984 2565 2268 
Q 2250 2553 1709 2553 
Q 1456 2553 1204 2497 
Q 953 2441 691 2322 
L 691 4666 
z
" transform="scale(0.015625)"/>
       </defs>
       <use xlink:href="#DejaVuSans-35"/>
      </g>
     </g>
    </g>
    <g id="xtick_7">
     <g id="line2d_13">
      <path d="M 492.242128 456.038906 
L 492.242128 12.518906 
" clip-path="url(#p908c330a79)" style="fill: none; stroke: #b0b0b0; stroke-opacity: 0.3; stroke-width: 0.8; stroke-linecap: square"/>
     </g>
     <g id="line2d_14">
      <g>
       <use xlink:href="#m255d53ef11" x="492.242128" y="456.038906" style="stroke: #000000; stroke-width: 0.8"/>
      </g>
     </g>
     <g id="text_7">
      <!-- 6 -->
      <g transform="translate(487.788378 473.676719) scale(0.14 -0.14)">
       <defs>
        <path id="DejaVuSans-36" d="M 2113 2584 
Q 1688 2584 1439 2293 
Q 1191 2003 1191 1497 
Q 1191 994 1439 701 
Q 1688 409 2113 409 
Q 2538 409 2786 701 
Q 3034 994 3034 1497 
Q 3034 2003 2786 2293 
Q 2538 2584 2113 2584 
z
M 3366 4563 
L 3366 3988 
Q 3128 4100 2886 4159 
Q 2644 4219 2406 4219 
Q 1781 4219 1451 3797 
Q 1122 3375 1075 2522 
Q 1259 2794 1537 2939 
Q 1816 3084 2150 3084 
Q 2853 3084 3261 2657 
Q 3669 2231 3669 1497 
Q 3669 778 3244 343 
Q 2819 -91 2113 -91 
Q 1303 -91 875 529 
Q 447 1150 447 2328 
Q 447 3434 972 4092 
Q 1497 4750 2381 4750 
Q 2619 4750 2861 4703 
Q 3103 4656 3366 4563 
z
" transform="scale(0.015625)"/>
       </defs>
       <use xlink:href="#DejaVuSans-36"/>
      </g>
     </g>
    </g>
    <g id="text_8">
     <!-- x -->
     <g transform="translate(284.802188 491.226094) scale(0.14 -0.14)">
      <defs>
       <path id="DejaVuSans-78" d="M 3513 3500 
L 2247 1797 
L 3578 0 
L 2900 0 
L 1881 1375 
L 863 0 
L 184 0 
L 1544 1831 
L 300 3500 
L 978 3500 
L 1906 2253 
L 2834 3500 
L 3513 3500 
z
" transform="scale(0.015625)"/>
      </defs>
      <use xlink:href="#DejaVuSans-78"/>
     </g>
    </g>
   </g>
   <g id="matplotlib.axis_2">
    <g id="ytick_1">
     <g id="line2d_15">
      <path d="M 65.745313 456.038906 
L 512.145312 456.038906 
" clip-path="url(#p908c330a79)" style="fill: none; stroke: #b0b0b0; stroke-opacity: 0.3; stroke-width: 0.8; stroke-linecap: square"/>
     </g>
     <g id="line2d_16">
      <defs>
       <path id="m301f9a7602" d="M 0 0 
L -3.5 0 
" style="stroke: #000000; stroke-width: 0.8"/>
      </defs>
      <g>
       <use xlink:href="#m301f9a7602" x="65.745313" y="456.038906" style="stroke: #000000; stroke-width: 0.8"/>
      </g>
     </g>
     <g id="text_9">
      <!-- −1.5 -->
      <g transform="translate(24.749375 461.357812) scale(0.14 -0.14)">
       <defs>
        <path id="DejaVuSans-2212" d="M 678 2272 
L 4684 2272 
L 4684 1741 
L 678 1741 
L 678 2272 
z
" transform="scale(0.015625)"/>
        <path id="DejaVuSans-2e" d="M 684 794 
L 1344 794 
L 1344 0 
L 684 0 
L 684 794 
z
" transform="scale(0.015625)"/>
       </defs>
       <use xlink:href="#DejaVuSans-2212"/>
       <use xlink:href="#DejaVuSans-31" transform="translate(83.789062 0)"/>
       <use xlink:href="#DejaVuSans-2e" transform="translate(147.412109 0)"/>
       <use xlink:href="#DejaVuSans-35" transform="translate(179.199219 0)"/>
      </g>
     </g>
    </g>
    <g id="ytick_2">
     <g id="line2d_17">
      <path d="M 65.745313 382.118906 
L 512.145312 382.118906 
" clip-path="url(#p908c330a79)" style="fill: none; stroke: #b0b0b0; stroke-opacity: 0.3; stroke-width: 0.8; stroke-linecap: square"/>
     </g>
     <g id="line2d_18">
      <g>
       <use xlink:href="#m301f9a7602" x="65.745313" y="382.118906" style="stroke: #000000; stroke-width: 0.8"/>
      </g>
     </g>
     <g id="text_10">
      <!-- −1.0 -->
      <g transform="translate(24.749375 387.437812) scale(0.14 -0.14)">
       <use xlink:href="#DejaVuSans-2212"/>
       <use xlink:href="#DejaVuSans-31" transform="translate(83.789062 0)"/>
       <use xlink:href="#DejaVuSans-2e" transform="translate(147.412109 0)"/>
       <use xlink:href="#DejaVuSans-30" transform="translate(179.199219 0)"/>
      </g>
     </g>
    </g>
    <g id="ytick_3">
     <g id="line2d_19">
      <path d="M 65.745313 308.198906 
L 512.145312 308.198906 
" clip-path="url(#p908c330a79)" style="fill: none; stroke: #b0b0b0; stroke-opacity: 0.3; stroke-width: 0.8; stroke-linecap: square"/>
     </g>
     <g id="line2d_20">
      <g>
       <use xlink:href="#m301f9a7602" x="65.745313" y="308.198906" style="stroke: #000000; stroke-width: 0.8"/>
      </g>
     </g>
     <g id="text_11">
      <!-- −0.5 -->
      <g transform="translate(24.749375 313.517812) scale(0.14 -0.14)">
       <use xlink:href="#DejaVuSans-2212"/>
       <use xlink:href="#DejaVuSans-30" transform="translate(83.789062 0)"/>
       <use xlink:href="#DejaVuSans-2e" transform="translate(147.412109 0)"/>
       <use xlink:href="#DejaVuSans-35" transform="translate(179.199219 0)"/>
      </g>
     </g>
    </g>
    <g id="ytick_4">
     <g id="line2d_21">
      <path d="M 65.745313 234.278906 
L 512.145312 234.278906 
" clip-path="url(#p908c330a79)" style="fill: none; stroke: #b0b0b0; stroke-opacity: 0.3; stroke-width: 0.8; stroke-linecap: square"/>
     </g>
     <g id="line2d_22">
      <g>
       <use xlink:href="#m301f9a7602" x="65.745313" y="234.278906" style="stroke: #000000; stroke-width: 0.8"/>
      </g>
     </g>
     <g id="text_12">
      <!-- 0.0 -->
      <g transform="translate(36.480938 239.597812) scale(0.14 -0.14)">
       <use xlink:href="#DejaVuSans-30"/>
       <use xlink:href="#DejaVuSans-2e" transform="translate(63.623047 0)"/>
       <use xlink:href="#DejaVuSans-30" transform="translate(95.410156 0)"/>
      </g>
     </g>
    </g>
    <g id="ytick_5">
     <g id="line2d_23">
      <path d="M 65.745313 160.358906 
L 512.145312 160.358906 
" clip-path="url(#p908c330a79)" style="fill: none; stroke: #b0b0b0; stroke-opacity: 0.3; stroke-width: 0.8; stroke-linecap: square"/>
     </g>
     <g id="line2d_24">
      <g>
       <use xlink:href="#m301f9a7602" x="65.745313" y="160.358906" style="stroke: #000000; stroke-width: 0.8"/>
      </g>
     </g>
     <g id="text_13">
      <!-- 0.5 -->
      <g transform="translate(36.480938 165.677813) scale(0.14 -0.14)">
       <use xlink:href="#DejaVuSans-30"/>
       <use xlink:href="#DejaVuSans-2e" transform="translate(63.623047 0)"/>
       <use xlink:href="#DejaVuSans-35" transform="translate(95.410156 0)"/>
      </g>
     </g>
    </g>
    <g id="ytick_6">
     <g id="line2d_25">
      <path d="M 65.745313 86.438906 
L 512.145312 86.438906 
" clip-path="url(#p908c330a79)" style="fill: none; stroke: #b0b0b0; stroke-opacity: 0.3; stroke-width: 0.8; stroke-linecap: square"/>
     </g>
     <g id="line2d_26">
      <g>
       <use xlink:href="#m301f9a7602" x="65.745313" y="86.438906" style="stroke: #000000; stroke-width: 0.8"/>
      </g>
     </g>
     <g id="text_14">
      <!-- 1.0 -->
      <g transform="translate(36.480938 91.757812) scale(0.14 -0.14)">
       <use xlink:href="#DejaVuSans-31"/>
       <use xlink:href="#DejaVuSans-2e" transform="translate(63.623047 0)"/>
       <use xlink:href="#DejaVuSans-30" transform="translate(95.410156 0)"/>
      </g>
     </g>
    </g>
    <g id="ytick_7">
     <g id="line2d_27">
      <path d="M 65.745313 12.518906 
L 512.145312 12.518906 
" clip-path="url(#p908c330a79)" style="fill: none; stroke: #b0b0b0; stroke-opacity: 0.3; stroke-width: 0.8; stroke-linecap: square"/>
     </g>
     <g id="line2d_28">
      <g>
       <use xlink:href="#m301f9a7602" x="65.745313" y="12.518906" style="stroke: #000000; stroke-width: 0.8"/>
      </g>
     </g>
     <g id="text_15">
      <!-- 1.5 -->
      <g transform="translate(36.480938 17.837812) scale(0.14 -0.14)">
       <use xlink:href="#DejaVuSans-31"/>
       <use xlink:href="#DejaVuSans-2e" transform="translate(63.623047 0)"/>
       <use xlink:href="#DejaVuSans-35" transform="translate(95.410156 0)"/>
      </g>
     </g>
    </g>
    <g id="text_16">
     <!-- y -->
     <g transform="translate(17.837813 238.422031) rotate(-90) scale(0.14 -0.14)">
      <defs>
       <path id="DejaVuSans-79" d="M 2059 -325 
Q 1816 -950 1584 -1140 
Q 1353 -1331 966 -1331 
L 506 -1331 
L 506 -850 
L 844 -850 
Q 1081 -850 1212 -737 
Q 1344 -625 1503 -206 
L 1606 56 
L 191 3500 
L 800 3500 
L 1894 763 
L 2988 3500 
L 3597 3500 
L 2059 -325 
z
" transform="scale(0.015625)"/>
      </defs>
      <use xlink:href="#DejaVuSans-79"/>
     </g>
    </g>
   </g>
   <g id="line2d_29">
    <path d="M 65.745313 234.278906 
L 81.236942 202.313435 
L 89.451523 185.882971 
L 96.282126 172.703162 
L 102.353773 161.461074 
L 107.889687 151.671653 
L 113.0238 143.039097 
L 117.800758 135.433443 
L 122.309849 128.663116 
L 126.595718 122.621376 
L 130.703008 117.211886 
L 134.631721 112.402992 
L 138.381856 108.159698 
L 141.998058 104.400198 
L 145.480326 101.097455 
L 148.828661 98.223013 
L 152.087707 95.715038 
L 155.257464 93.555097 
L 158.337932 91.724035 
L 161.329111 90.202174 
L 164.275646 88.95242 
L 167.132891 87.97896 
L 169.945493 87.251542 
L 172.758094 86.754283 
L 175.526051 86.490383 
L 178.294007 86.450549 
L 181.061964 86.63484 
L 183.829921 87.042979 
L 186.597878 87.674345 
L 189.410479 88.543565 
L 192.267725 89.660171 
L 195.169615 91.033349 
L 198.160794 92.698581 
L 201.196618 94.644956 
L 204.32173 96.914535 
L 207.536132 99.525862 
L 210.839822 102.496765 
L 214.277446 105.890161 
L 217.849003 109.733637 
L 221.554493 114.053366 
L 225.393917 118.873629 
L 229.411919 124.278299 
L 233.653143 130.364063 
L 238.072945 137.099246 
L 242.760614 144.652445 
L 247.760794 153.137824 
L 253.11813 162.673507 
L 258.966555 173.545495 
L 265.484646 186.143122 
L 273.074205 201.313744 
L 282.895988 221.477943 
L 307.495087 272.195313 
L 315.129291 287.294119 
L 321.692027 299.791805 
L 327.540452 310.462122 
L 332.897788 319.785852 
L 337.897968 328.051017 
L 342.585637 335.379121 
L 347.050083 341.950093 
L 351.291307 347.799627 
L 355.309309 352.96893 
L 359.148733 357.554473 
L 362.854223 361.639226 
L 366.425781 365.248973 
L 369.863404 368.411244 
L 373.167095 371.154842 
L 376.381496 373.540603 
L 379.506609 375.587158 
L 382.542432 377.313779 
L 385.533611 378.759893 
L 388.435502 379.918399 
L 391.292747 380.821971 
L 394.105349 381.480211 
L 396.873305 381.903032 
L 399.641262 382.102036 
L 402.409219 382.076922 
L 405.177176 381.827728 
L 407.945132 381.354832 
L 410.757734 380.645905 
L 413.570335 379.707852 
L 416.427581 378.521812 
L 419.374115 377.054671 
L 422.365294 375.314419 
L 425.445763 373.261261 
L 428.61552 370.876205 
L 431.874565 368.140855 
L 435.2229 365.037614 
L 438.705168 361.50263 
L 442.32137 357.508706 
L 446.071505 353.03021 
L 450.000218 347.984251 
L 454.107509 342.337909 
L 458.393377 336.061836 
L 462.902468 329.060023 
L 467.679426 321.226985 
L 472.813539 312.371674 
L 478.349453 302.368472 
L 484.4211 290.924917 
L 491.251703 277.561487 
L 499.376996 261.155437 
L 511.029201 237.070976 
L 512.145312 234.749821 
L 512.145312 234.749821 
" clip-path="url(#p908c330a79)" style="fill: none; stroke: #0000ff; stroke-width: 2; stroke-linecap: square"/>
   </g>
   <g id="line2d_30">
    <path d="M 65.745313 86.438906 
L 68.513269 86.550978 
L 71.281226 86.887024 
L 74.049183 87.446534 
L 76.861784 88.243093 
L 79.71903 89.286367 
L 82.62092 90.585686 
L 85.567455 92.149982 
L 88.603278 94.017043 
L 91.728391 96.206173 
L 94.942792 98.736181 
L 98.246483 101.625191 
L 101.639462 104.89043 
L 105.166375 108.596875 
L 108.827221 112.771131 
L 112.622 117.438063 
L 116.595358 122.681165 
L 120.747293 128.532091 
L 125.12245 135.08746 
L 129.72083 142.38171 
L 134.631721 150.595412 
L 139.899768 159.849253 
L 145.614259 170.347666 
L 151.909129 182.387582 
L 159.141532 196.716782 
L 168.115069 215.018761 
L 199.678706 279.856097 
L 206.732531 293.56516 
L 212.893467 305.06617 
L 218.51867 315.105084 
L 223.697428 323.9014 
L 228.563674 331.734405 
L 233.11741 338.651535 
L 237.447923 344.832774 
L 241.555213 350.316716 
L 245.483926 355.200043 
L 249.278706 359.566428 
L 252.894907 363.395326 
L 256.377176 366.766762 
L 259.770155 369.74604 
L 263.029201 372.317232 
L 266.198958 374.539719 
L 269.279426 376.432448 
L 272.270605 378.01491 
L 275.21714 379.324953 
L 278.11903 380.371596 
L 280.976276 381.164289 
L 283.788877 381.71284 
L 286.556834 382.027357 
L 289.32479 382.117869 
L 292.092747 381.984239 
L 294.860704 381.626669 
L 297.628661 381.045702 
L 300.441262 380.227442 
L 303.298508 379.162262 
L 306.200398 377.840876 
L 309.146933 376.254398 
L 312.182756 374.364758 
L 315.307869 372.152721 
L 318.52227 369.599552 
L 321.825961 366.687212 
L 325.21894 363.398566 
L 328.745853 359.668438 
L 332.406699 355.470363 
L 336.246123 350.722438 
L 340.21948 345.451453 
L 344.41606 339.507612 
L 348.791217 332.920767 
L 353.434241 325.522641 
L 358.389777 317.198051 
L 363.702468 307.827176 
L 369.461604 297.206684 
L 375.845763 284.954131 
L 383.167455 270.40549 
L 392.364214 251.607444 
L 421.695628 191.273893 
L 428.928031 177.129435 
L 435.2229 165.294662 
L 440.937392 155.016821 
L 446.205439 145.994008 
L 451.11633 138.018449 
L 455.714709 130.966084 
L 460.089867 124.65688 
L 464.241802 119.053147 
L 468.215159 114.058205 
L 472.009939 109.638148 
L 475.670785 105.710521 
L 479.197698 102.248929 
L 482.590677 99.225389 
L 485.894367 96.576975 
L 489.064124 94.315415 
L 492.144592 92.384146 
L 495.180416 90.741529 
L 498.126951 89.397536 
L 501.028841 88.317179 
L 503.886087 87.491079 
L 506.698688 86.909488 
L 509.466645 86.562356 
L 512.145312 86.439656 
L 512.145312 86.439656 
" clip-path="url(#p908c330a79)" style="fill: none; stroke: #ff0000; stroke-width: 2; stroke-linecap: square"/>
   </g>
   <g id="line2d_31">
    <path d="M 65.745313 234.278906 
L 75.52245 214.199647 
L 80.701208 204.083126 
L 84.987077 196.185873 
L 88.737212 189.725889 
L 92.174835 184.237918 
L 95.344592 179.590989 
L 98.291127 175.66044 
L 101.059084 172.334441 
L 103.648463 169.562623 
L 106.103908 167.251136 
L 108.470065 165.326154 
L 110.702288 163.790053 
L 112.845222 162.576835 
L 114.943512 161.641366 
L 116.997158 160.970864 
L 119.006159 160.551694 
L 120.970515 160.369548 
L 122.934871 160.413118 
L 124.899228 160.682269 
L 126.863584 161.176179 
L 128.872585 161.91222 
L 130.926231 162.903518 
L 133.069165 164.191854 
L 135.256744 165.769723 
L 137.533611 167.687459 
L 139.944412 170.015591 
L 142.444502 172.741984 
L 145.12317 176.000487 
L 147.935772 179.777667 
L 150.971595 184.236694 
L 154.230641 189.428762 
L 157.802198 195.549797 
L 161.775556 202.81577 
L 166.373935 211.708873 
L 172.133071 223.360706 
L 190.61588 261.132886 
L 195.169615 269.71256 
L 199.098328 276.652805 
L 202.62524 282.444993 
L 205.884286 287.377179 
L 208.875466 291.512256 
L 211.688067 295.031373 
L 214.32209 297.982629 
L 216.82218 300.460543 
L 219.232981 302.540071 
L 221.509849 304.215942 
L 223.697428 305.555901 
L 225.795718 306.587583 
L 227.849363 307.353362 
L 229.858364 307.866495 
L 231.82272 308.14095 
L 233.787077 308.189833 
L 235.751433 308.012998 
L 237.71579 307.610982 
L 239.72479 306.968199 
L 241.778436 306.071163 
L 243.876726 304.907154 
L 246.064304 303.431652 
L 248.341172 301.617866 
L 250.707329 299.44034 
L 253.162774 296.875536 
L 255.752153 293.847562 
L 258.52011 290.261713 
L 261.466645 286.072143 
L 264.636402 281.168818 
L 268.074025 275.431155 
L 271.868805 268.652933 
L 276.199318 260.444136 
L 281.378076 250.128877 
L 289.146213 234.096527 
L 298.834061 214.202847 
L 304.012819 204.086162 
L 308.298688 196.188723 
L 312.048823 189.728543 
L 315.486447 184.240366 
L 318.656204 179.593227 
L 321.602738 175.662466 
L 324.370695 172.336256 
L 326.960074 169.56423 
L 329.41552 167.252538 
L 331.781676 165.327353 
L 334.013899 163.791054 
L 336.156834 162.577644 
L 338.255123 161.641982 
L 340.308769 160.971291 
L 342.31777 160.551934 
L 344.282126 160.369605 
L 346.246483 160.41299 
L 348.210839 160.681958 
L 350.175195 161.175686 
L 352.184196 161.911542 
L 354.237842 162.902653 
L 356.380776 164.190797 
L 358.568355 165.768474 
L 360.845222 167.686015 
L 363.256024 170.013948 
L 365.756114 172.740141 
L 368.434781 175.998441 
L 371.247383 179.77542 
L 374.283206 184.234246 
L 377.542252 189.426119 
L 381.113809 195.546964 
L 385.087167 202.81276 
L 389.685547 211.705706 
L 395.444682 223.357417 
L 413.927491 261.129787 
L 418.481226 269.709641 
L 422.409939 276.65008 
L 425.936852 282.44247 
L 429.195898 287.374865 
L 432.187077 291.510151 
L 434.999678 295.029478 
L 437.633701 297.980942 
L 440.133791 300.459062 
L 442.544592 302.538795 
L 444.82146 304.214865 
L 447.009039 305.55502 
L 449.107329 306.586893 
L 451.160974 307.352861 
L 453.169975 307.86618 
L 455.134331 308.140818 
L 457.098688 308.189885 
L 459.063044 308.013233 
L 461.027401 307.6114 
L 463.036402 306.968803 
L 465.090047 306.071955 
L 467.188337 304.908136 
L 469.375916 303.432827 
L 471.652783 301.619238 
L 474.01894 299.44191 
L 476.474385 296.877305 
L 479.063764 293.849531 
L 481.831721 290.263885 
L 484.778256 286.074516 
L 487.948013 281.171389 
L 491.385637 275.433917 
L 495.180416 268.655877 
L 499.510929 260.447246 
L 504.689687 250.132126 
L 512.145312 234.749819 
L 512.145312 234.749819 
" clip-path="url(#p908c330a79)" style="fill: none; stroke-dasharray: 5.55,2.4; stroke-dashoffset: 0; stroke: #008000; stroke-width: 1.5"/>
   </g>
   <g id="patch_3">
    <path d="M 65.745313 456.038906 
L 65.745313 12.518906 
" style="fill: none; stroke: #000000; stroke-width: 0.8; stroke-linejoin: miter; stroke-linecap: square"/>
   </g>
   <g id="patch_4">
    <path d="M 512.145312 456.038906 
L 512.145312 12.518906 
" style="fill: none; stroke: #000000; stroke-width: 0.8; stroke-linejoin: miter; stroke-linecap: square"/>
   </g>
   <g id="patch_5">
    <path d="M 65.745313 456.038906 
L 512.145312 456.038906 
" style="fill: none; stroke: #000000; stroke-width: 0.8; stroke-linejoin: miter; stroke-linecap: square"/>
   </g>
   <g id="patch_6">
    <path d="M 65.745313 12.518906 
L 512.145312 12.518906 
" style="fill: none; stroke: #000000; stroke-width: 0.8; stroke-linejoin: miter; stroke-linecap: square"/>
   </g>
  </g>
 </g>
 <defs>
  <clipPath id="p908c330a79">
   <rect x="65.745313" y="12.518906" width="446.4" height="443.52"/>
  </clipPath>
 </defs>
</svg>
