<?xml version="1.0" encoding="utf-8" standalone="no"?>
<!DOCTYPE svg PUBLIC "-//W3C//DTD SVG 1.1//EN"
  "http://www.w3.org/Graphics/SVG/1.1/DTD/svg11.dtd">
<svg xmlns:xlink="http://www.w3.org/1999/xlink" width="512.123437pt" height="381.195469pt" viewBox="0 0 512.123437 381.195469" xmlns="http://www.w3.org/2000/svg" version="1.1">
 <metadata>
  <rdf:RDF xmlns:dc="http://purl.org/dc/elements/1.1/" xmlns:cc="http://creativecommons.org/ns#" xmlns:rdf="http://www.w3.org/1999/02/22-rdf-syntax-ns#">
   <cc:Work>
    <dc:type rdf:resource="http://purl.org/dc/dcmitype/StillImage"/>
    <dc:date>2025-11-02T12:44:25.233956</dc:date>
    <dc:format>image/svg+xml</dc:format>
    <dc:creator>
     <cc:Agent>
      <dc:title>Matplotlib v3.10.7, https://matplotlib.org/</dc:title>
     </cc:Agent>
    </dc:creator>
   </cc:Work>
  </rdf:RDF>
 </metadata>
 <defs>
  <style type="text/css">*{stroke-linejoin: round; stroke-linecap: butt}</style>
 </defs>
 <g id="figure_1">
  <g id="patch_1">
   <path d="M 0 381.195469 
L 512.123437 381.195469 
L 512.123437 0 
L 0 0 
z
" style="fill: #ffffff"/>
  </g>
  <g id="axes_1">
   <g id="patch_2">
    <path d="M 52.160938 343.639219 
L 498.560937 343.639219 
L 498.560937 10.999219 
L 52.160938 10.999219 
z
" style="fill: #ffffff"/>
   </g>
   <g id="matplotlib.axis_1">
    <g id="xtick_1">
     <g id="line2d_1">
      <path d="M 52.160938 343.639219 
L 52.160938 10.999219 
" clip-path="url(#p39a22d61cc)" style="fill: none; stroke: #b0b0b0; stroke-opacity: 0.3; stroke-width: 0.8; stroke-linecap: square"/>
     </g>
     <g id="line2d_2">
      <defs>
       <path id="m5d2a5cdb07" d="M 0 0 
L 0 3.5 
" style="stroke: #000000; stroke-width: 0.8"/>
      </defs>
      <g>
       <use xlink:href="#m5d2a5cdb07" x="52.160938" y="343.639219" style="stroke: #000000; stroke-width: 0.8"/>
      </g>
     </g>
     <g id="text_1">
      <!-- 0 -->
      <g transform="translate(48.979688 358.237656) scale(0.1 -0.1)">
       <defs>
        <path id="DejaVuSans-30" d="M 2034 4250 
Q 1547 4250 1301 3770 
Q 1056 3291 1056 2328 
Q 1056 1369 1301 889 
Q 1547 409 2034 409 
Q 2525 409 2770 889 
Q 3016 1369 3016 2328 
Q 3016 3291 2770 3770 
Q 2525 4250 2034 4250 
z
M 2034 4750 
Q 2819 4750 3233 4129 
Q 3647 3509 3647 2328 
Q 3647 1150 3233 529 
Q 2819 -91 2034 -91 
Q 1250 -91 836 529 
Q 422 1150 422 2328 
Q 422 3509 836 4129 
Q 1250 4750 2034 4750 
z
" transform="scale(0.015625)"/>
       </defs>
       <use xlink:href="#DejaVuSans-30"/>
      </g>
     </g>
    </g>
    <g id="xtick_2">
     <g id="line2d_3">
      <path d="M 141.440938 343.639219 
L 141.440938 10.999219 
" clip-path="url(#p39a22d61cc)" style="fill: none; stroke: #b0b0b0; stroke-opacity: 0.3; stroke-width: 0.8; stroke-linecap: square"/>
     </g>
     <g id="line2d_4">
      <g>
       <use xlink:href="#m5d2a5cdb07" x="141.440938" y="343.639219" style="stroke: #000000; stroke-width: 0.8"/>
      </g>
     </g>
     <g id="text_2">
      <!-- 2 -->
      <g transform="translate(138.259688 358.237656) scale(0.1 -0.1)">
       <defs>
        <path id="DejaVuSans-32" d="M 1228 531 
L 3431 531 
L 3431 0 
L 469 0 
L 469 531 
Q 828 903 1448 1529 
Q 2069 2156 2228 2338 
Q 2531 2678 2651 2914 
Q 2772 3150 2772 3378 
Q 2772 3750 2511 3984 
Q 2250 4219 1831 4219 
Q 1534 4219 1204 4116 
Q 875 4013 500 3803 
L 500 4441 
Q 881 4594 1212 4672 
Q 1544 4750 1819 4750 
Q 2544 4750 2975 4387 
Q 3406 4025 3406 3419 
Q 3406 3131 3298 2873 
Q 3191 2616 2906 2266 
Q 2828 2175 2409 1742 
Q 1991 1309 1228 531 
z
" transform="scale(0.015625)"/>
       </defs>
       <use xlink:href="#DejaVuSans-32"/>
      </g>
     </g>
    </g>
    <g id="xtick_3">
     <g id="line2d_5">
      <path d="M 230.720937 343.639219 
L 230.720937 10.999219 
" clip-path="url(#p39a22d61cc)" style="fill: none; stroke: #b0b0b0; stroke-opacity: 0.3; stroke-width: 0.8; stroke-linecap: square"/>
     </g>
     <g id="line2d_6">
      <g>
       <use xlink:href="#m5d2a5cdb07" x="230.720937" y="343.639219" style="stroke: #000000; stroke-width: 0.8"/>
      </g>
     </g>
     <g id="text_3">
      <!-- 4 -->
      <g transform="translate(227.539687 358.237656) scale(0.1 -0.1)">
       <defs>
        <path id="DejaVuSans-34" d="M 2419 4116 
L 825 1625 
L 2419 1625 
L 2419 4116 
z
M 2253 4666 
L 3047 4666 
L 3047 1625 
L 3713 1625 
L 3713 1100 
L 3047 1100 
L 3047 0 
L 2419 0 
L 2419 1100 
L 313 1100 
L 313 1709 
L 2253 4666 
z
" transform="scale(0.015625)"/>
       </defs>
       <use xlink:href="#DejaVuSans-34"/>
      </g>
     </g>
    </g>
    <g id="xtick_4">
     <g id="line2d_7">
      <path d="M 320.000938 343.639219 
L 320.000938 10.999219 
" clip-path="url(#p39a22d61cc)" style="fill: none; stroke: #b0b0b0; stroke-opacity: 0.3; stroke-width: 0.8; stroke-linecap: square"/>
     </g>
     <g id="line2d_8">
      <g>
       <use xlink:href="#m5d2a5cdb07" x="320.000938" y="343.639219" style="stroke: #000000; stroke-width: 0.8"/>
      </g>
     </g>
     <g id="text_4">
      <!-- 6 -->
      <g transform="translate(316.819688 358.237656) scale(0.1 -0.1)">
       <defs>
        <path id="DejaVuSans-36" d="M 2113 2584 
Q 1688 2584 1439 2293 
Q 1191 2003 1191 1497 
Q 1191 994 1439 701 
Q 1688 409 2113 409 
Q 2538 409 2786 701 
Q 3034 994 3034 1497 
Q 3034 2003 2786 2293 
Q 2538 2584 2113 2584 
z
M 3366 4563 
L 3366 3988 
Q 3128 4100 2886 4159 
Q 2644 4219 2406 4219 
Q 1781 4219 1451 3797 
Q 1122 3375 1075 2522 
Q 1259 2794 1537 2939 
Q 1816 3084 2150 3084 
Q 2853 3084 3261 2657 
Q 3669 2231 3669 1497 
Q 3669 778 3244 343 
Q 2819 -91 2113 -91 
Q 1303 -91 875 529 
Q 447 1150 447 2328 
Q 447 3434 972 4092 
Q 1497 4750 2381 4750 
Q 2619 4750 2861 4703 
Q 3103 4656 3366 4563 
z
" transform="scale(0.015625)"/>
       </defs>
       <use xlink:href="#DejaVuSans-36"/>
      </g>
     </g>
    </g>
    <g id="xtick_5">
     <g id="line2d_9">
      <path d="M 409.280937 343.639219 
L 409.280937 10.999219 
" clip-path="url(#p39a22d61cc)" style="fill: none; stroke: #b0b0b0; stroke-opacity: 0.3; stroke-width: 0.8; stroke-linecap: square"/>
     </g>
     <g id="line2d_10">
      <g>
       <use xlink:href="#m5d2a5cdb07" x="409.280937" y="343.639219" style="stroke: #000000; stroke-width: 0.8"/>
      </g>
     </g>
     <g id="text_5">
      <!-- 8 -->
      <g transform="translate(406.099688 358.237656) scale(0.1 -0.1)">
       <defs>
        <path id="DejaVuSans-38" d="M 2034 2216 
Q 1584 2216 1326 1975 
Q 1069 1734 1069 1313 
Q 1069 891 1326 650 
Q 1584 409 2034 409 
Q 2484 409 2743 651 
Q 3003 894 3003 1313 
Q 3003 1734 2745 1975 
Q 2488 2216 2034 2216 
z
M 1403 2484 
Q 997 2584 770 2862 
Q 544 3141 544 3541 
Q 544 4100 942 4425 
Q 1341 4750 2034 4750 
Q 2731 4750 3128 4425 
Q 3525 4100 3525 3541 
Q 3525 3141 3298 2862 
Q 3072 2584 2669 2484 
Q 3125 2378 3379 2068 
Q 3634 1759 3634 1313 
Q 3634 634 3220 271 
Q 2806 -91 2034 -91 
Q 1263 -91 848 271 
Q 434 634 434 1313 
Q 434 1759 690 2068 
Q 947 2378 1403 2484 
z
M 1172 3481 
Q 1172 3119 1398 2916 
Q 1625 2713 2034 2713 
Q 2441 2713 2670 2916 
Q 2900 3119 2900 3481 
Q 2900 3844 2670 4047 
Q 2441 4250 2034 4250 
Q 1625 4250 1398 4047 
Q 1172 3844 1172 3481 
z
" transform="scale(0.015625)"/>
       </defs>
       <use xlink:href="#DejaVuSans-38"/>
      </g>
     </g>
    </g>
    <g id="xtick_6">
     <g id="line2d_11">
      <path d="M 498.560937 343.639219 
L 498.560937 10.999219 
" clip-path="url(#p39a22d61cc)" style="fill: none; stroke: #b0b0b0; stroke-opacity: 0.3; stroke-width: 0.8; stroke-linecap: square"/>
     </g>
     <g id="line2d_12">
      <g>
       <use xlink:href="#m5d2a5cdb07" x="498.560937" y="343.639219" style="stroke: #000000; stroke-width: 0.8"/>
      </g>
     </g>
     <g id="text_6">
      <!-- 10 -->
      <g transform="translate(492.198437 358.237656) scale(0.1 -0.1)">
       <defs>
        <path id="DejaVuSans-31" d="M 794 531 
L 1825 531 
L 1825 4091 
L 703 3866 
L 703 4441 
L 1819 4666 
L 2450 4666 
L 2450 531 
L 3481 531 
L 3481 0 
L 794 0 
L 794 531 
z
" transform="scale(0.015625)"/>
       </defs>
       <use xlink:href="#DejaVuSans-31"/>
       <use xlink:href="#DejaVuSans-30" transform="translate(63.623047 0)"/>
      </g>
     </g>
    </g>
    <g id="text_7">
     <!-- t -->
     <g transform="translate(273.400781 371.915781) scale(0.1 -0.1)">
      <defs>
       <path id="DejaVuSans-74" d="M 1172 4494 
L 1172 3500 
L 2356 3500 
L 2356 3053 
L 1172 3053 
L 1172 1153 
Q 1172 725 1289 603 
Q 1406 481 1766 481 
L 2356 481 
L 2356 0 
L 1766 0 
Q 1100 0 847 248 
Q 594 497 594 1153 
L 594 3053 
L 172 3053 
L 172 3500 
L 594 3500 
L 594 4494 
L 1172 4494 
z
" transform="scale(0.015625)"/>
      </defs>
      <use xlink:href="#DejaVuSans-74"/>
     </g>
    </g>
   </g>
   <g id="matplotlib.axis_2">
    <g id="ytick_1">
     <g id="line2d_13">
      <path d="M 52.160938 343.639219 
L 498.560937 343.639219 
" clip-path="url(#p39a22d61cc)" style="fill: none; stroke: #b0b0b0; stroke-opacity: 0.3; stroke-width: 0.8; stroke-linecap: square"/>
     </g>
     <g id="line2d_14">
      <defs>
       <path id="m1fadaf2ae1" d="M 0 0 
L -3.5 0 
" style="stroke: #000000; stroke-width: 0.8"/>
      </defs>
      <g>
       <use xlink:href="#m1fadaf2ae1" x="52.160938" y="343.639219" style="stroke: #000000; stroke-width: 0.8"/>
      </g>
     </g>
     <g id="text_8">
      <!-- −1.5 -->
      <g transform="translate(20.878125 347.438438) scale(0.1 -0.1)">
       <defs>
        <path id="DejaVuSans-2212" d="M 678 2272 
L 4684 2272 
L 4684 1741 
L 678 1741 
L 678 2272 
z
" transform="scale(0.015625)"/>
        <path id="DejaVuSans-2e" d="M 684 794 
L 1344 794 
L 1344 0 
L 684 0 
L 684 794 
z
" transform="scale(0.015625)"/>
        <path id="DejaVuSans-35" d="M 691 4666 
L 3169 4666 
L 3169 4134 
L 1269 4134 
L 1269 2991 
Q 1406 3038 1543 3061 
Q 1681 3084 1819 3084 
Q 2600 3084 3056 2656 
Q 3513 2228 3513 1497 
Q 3513 744 3044 326 
Q 2575 -91 1722 -91 
Q 1428 -91 1123 -41 
Q 819 9 494 109 
L 494 744 
Q 775 591 1075 516 
Q 1375 441 1709 441 
Q 2250 441 2565 725 
Q 2881 1009 2881 1497 
Q 2881 1984 2565 2268 
Q 2250 2553 1709 2553 
Q 1456 2553 1204 2497 
Q 953 2441 691 2322 
L 691 4666 
z
" transform="scale(0.015625)"/>
       </defs>
       <use xlink:href="#DejaVuSans-2212"/>
       <use xlink:href="#DejaVuSans-31" transform="translate(83.789062 0)"/>
       <use xlink:href="#DejaVuSans-2e" transform="translate(147.412109 0)"/>
       <use xlink:href="#DejaVuSans-35" transform="translate(179.199219 0)"/>
      </g>
     </g>
    </g>
    <g id="ytick_2">
     <g id="line2d_15">
      <path d="M 52.160938 288.199219 
L 498.560937 288.199219 
" clip-path="url(#p39a22d61cc)" style="fill: none; stroke: #b0b0b0; stroke-opacity: 0.3; stroke-width: 0.8; stroke-linecap: square"/>
     </g>
     <g id="line2d_16">
      <g>
       <use xlink:href="#m1fadaf2ae1" x="52.160938" y="288.199219" style="stroke: #000000; stroke-width: 0.8"/>
      </g>
     </g>
     <g id="text_9">
      <!-- −1.0 -->
      <g transform="translate(20.878125 291.998438) scale(0.1 -0.1)">
       <use xlink:href="#DejaVuSans-2212"/>
       <use xlink:href="#DejaVuSans-31" transform="translate(83.789062 0)"/>
       <use xlink:href="#DejaVuSans-2e" transform="translate(147.412109 0)"/>
       <use xlink:href="#DejaVuSans-30" transform="translate(179.199219 0)"/>
      </g>
     </g>
    </g>
    <g id="ytick_3">
     <g id="line2d_17">
      <path d="M 52.160938 232.759219 
L 498.560937 232.759219 
" clip-path="url(#p39a22d61cc)" style="fill: none; stroke: #b0b0b0; stroke-opacity: 0.3; stroke-width: 0.8; stroke-linecap: square"/>
     </g>
     <g id="line2d_18">
      <g>
       <use xlink:href="#m1fadaf2ae1" x="52.160938" y="232.759219" style="stroke: #000000; stroke-width: 0.8"/>
      </g>
     </g>
     <g id="text_10">
      <!-- −0.5 -->
      <g transform="translate(20.878125 236.558438) scale(0.1 -0.1)">
       <use xlink:href="#DejaVuSans-2212"/>
       <use xlink:href="#DejaVuSans-30" transform="translate(83.789062 0)"/>
       <use xlink:href="#DejaVuSans-2e" transform="translate(147.412109 0)"/>
       <use xlink:href="#DejaVuSans-35" transform="translate(179.199219 0)"/>
      </g>
     </g>
    </g>
    <g id="ytick_4">
     <g id="line2d_19">
      <path d="M 52.160938 177.319219 
L 498.560937 177.319219 
" clip-path="url(#p39a22d61cc)" style="fill: none; stroke: #b0b0b0; stroke-opacity: 0.3; stroke-width: 0.8; stroke-linecap: square"/>
     </g>
     <g id="line2d_20">
      <g>
       <use xlink:href="#m1fadaf2ae1" x="52.160938" y="177.319219" style="stroke: #000000; stroke-width: 0.8"/>
      </g>
     </g>
     <g id="text_11">
      <!-- 0.0 -->
      <g transform="translate(29.257812 181.118438) scale(0.1 -0.1)">
       <use xlink:href="#DejaVuSans-30"/>
       <use xlink:href="#DejaVuSans-2e" transform="translate(63.623047 0)"/>
       <use xlink:href="#DejaVuSans-30" transform="translate(95.410156 0)"/>
      </g>
     </g>
    </g>
    <g id="ytick_5">
     <g id="line2d_21">
      <path d="M 52.160938 121.879219 
L 498.560937 121.879219 
" clip-path="url(#p39a22d61cc)" style="fill: none; stroke: #b0b0b0; stroke-opacity: 0.3; stroke-width: 0.8; stroke-linecap: square"/>
     </g>
     <g id="line2d_22">
      <g>
       <use xlink:href="#m1fadaf2ae1" x="52.160938" y="121.879219" style="stroke: #000000; stroke-width: 0.8"/>
      </g>
     </g>
     <g id="text_12">
      <!-- 0.5 -->
      <g transform="translate(29.257812 125.678438) scale(0.1 -0.1)">
       <use xlink:href="#DejaVuSans-30"/>
       <use xlink:href="#DejaVuSans-2e" transform="translate(63.623047 0)"/>
       <use xlink:href="#DejaVuSans-35" transform="translate(95.410156 0)"/>
      </g>
     </g>
    </g>
    <g id="ytick_6">
     <g id="line2d_23">
      <path d="M 52.160938 66.439219 
L 498.560937 66.439219 
" clip-path="url(#p39a22d61cc)" style="fill: none; stroke: #b0b0b0; stroke-opacity: 0.3; stroke-width: 0.8; stroke-linecap: square"/>
     </g>
     <g id="line2d_24">
      <g>
       <use xlink:href="#m1fadaf2ae1" x="52.160938" y="66.439219" style="stroke: #000000; stroke-width: 0.8"/>
      </g>
     </g>
     <g id="text_13">
      <!-- 1.0 -->
      <g transform="translate(29.257812 70.238438) scale(0.1 -0.1)">
       <use xlink:href="#DejaVuSans-31"/>
       <use xlink:href="#DejaVuSans-2e" transform="translate(63.623047 0)"/>
       <use xlink:href="#DejaVuSans-30" transform="translate(95.410156 0)"/>
      </g>
     </g>
    </g>
    <g id="ytick_7">
     <g id="line2d_25">
      <path d="M 52.160938 10.999219 
L 498.560937 10.999219 
" clip-path="url(#p39a22d61cc)" style="fill: none; stroke: #b0b0b0; stroke-opacity: 0.3; stroke-width: 0.8; stroke-linecap: square"/>
     </g>
     <g id="line2d_26">
      <g>
       <use xlink:href="#m1fadaf2ae1" x="52.160938" y="10.999219" style="stroke: #000000; stroke-width: 0.8"/>
      </g>
     </g>
     <g id="text_14">
      <!-- 1.5 -->
      <g transform="translate(29.257812 14.798438) scale(0.1 -0.1)">
       <use xlink:href="#DejaVuSans-31"/>
       <use xlink:href="#DejaVuSans-2e" transform="translate(63.623047 0)"/>
       <use xlink:href="#DejaVuSans-35" transform="translate(95.410156 0)"/>
      </g>
     </g>
    </g>
    <g id="text_15">
     <!-- значение -->
     <g transform="translate(14.798437 201.935625) rotate(-90) scale(0.1 -0.1)">
      <defs>
       <path id="DejaVuSans-437" d="M 2206 1888 
Q 2594 1813 2809 1584 
Q 3025 1356 3025 1019 
Q 3025 478 2622 193 
Q 2219 -91 1475 -91 
Q 1225 -91 961 -47 
Q 697 -3 416 84 
L 416 619 
Q 638 503 903 445 
Q 1169 388 1459 388 
Q 1931 388 2195 563 
Q 2459 738 2459 1019 
Q 2459 1294 2225 1461 
Q 1991 1628 1563 1628 
L 1100 1628 
L 1100 2103 
L 1584 2103 
Q 1947 2103 2158 2242 
Q 2369 2381 2369 2600 
Q 2369 2800 2151 2944 
Q 1934 3088 1563 3088 
Q 1341 3088 1089 3047 
Q 838 3006 534 2916 
L 534 3438 
Q 841 3513 1106 3550 
Q 1372 3588 1609 3588 
Q 2222 3588 2576 3342 
Q 2931 3097 2931 2656 
Q 2931 2366 2743 2164 
Q 2556 1963 2206 1888 
z
" transform="scale(0.015625)"/>
       <path id="DejaVuSans-43d" d="M 581 3500 
L 1159 3500 
L 1159 2072 
L 3025 2072 
L 3025 3500 
L 3603 3500 
L 3603 0 
L 3025 0 
L 3025 1613 
L 1159 1613 
L 1159 0 
L 581 0 
L 581 3500 
z
" transform="scale(0.015625)"/>
       <path id="DejaVuSans-430" d="M 2194 1759 
Q 1497 1759 1228 1600 
Q 959 1441 959 1056 
Q 959 750 1161 570 
Q 1363 391 1709 391 
Q 2188 391 2477 730 
Q 2766 1069 2766 1631 
L 2766 1759 
L 2194 1759 
z
M 3341 1997 
L 3341 0 
L 2766 0 
L 2766 531 
Q 2569 213 2275 61 
Q 1981 -91 1556 -91 
Q 1019 -91 701 211 
Q 384 513 384 1019 
Q 384 1609 779 1909 
Q 1175 2209 1959 2209 
L 2766 2209 
L 2766 2266 
Q 2766 2663 2505 2880 
Q 2244 3097 1772 3097 
Q 1472 3097 1187 3025 
Q 903 2953 641 2809 
L 641 3341 
Q 956 3463 1253 3523 
Q 1550 3584 1831 3584 
Q 2591 3584 2966 3190 
Q 3341 2797 3341 1997 
z
" transform="scale(0.015625)"/>
       <path id="DejaVuSans-447" d="M 2625 0 
L 2625 1472 
L 1553 1472 
Q 1075 1472 756 1769 
Q 469 2038 469 2613 
L 469 3500 
L 1044 3500 
L 1044 2666 
Q 1044 2300 1206 2116 
Q 1372 1931 1697 1931 
L 2625 1931 
L 2625 3500 
L 3200 3500 
L 3200 0 
L 2625 0 
z
" transform="scale(0.015625)"/>
       <path id="DejaVuSans-435" d="M 3597 1894 
L 3597 1613 
L 953 1613 
Q 991 1019 1311 708 
Q 1631 397 2203 397 
Q 2534 397 2845 478 
Q 3156 559 3463 722 
L 3463 178 
Q 3153 47 2828 -22 
Q 2503 -91 2169 -91 
Q 1331 -91 842 396 
Q 353 884 353 1716 
Q 353 2575 817 3079 
Q 1281 3584 2069 3584 
Q 2775 3584 3186 3129 
Q 3597 2675 3597 1894 
z
M 3022 2063 
Q 3016 2534 2758 2815 
Q 2500 3097 2075 3097 
Q 1594 3097 1305 2825 
Q 1016 2553 972 2059 
L 3022 2063 
z
" transform="scale(0.015625)"/>
       <path id="DejaVuSans-438" d="M 3578 3500 
L 3578 0 
L 3006 0 
L 3006 2809 
L 1319 0 
L 581 0 
L 581 3500 
L 1153 3500 
L 1153 697 
L 2838 3500 
L 3578 3500 
z
" transform="scale(0.015625)"/>
      </defs>
      <use xlink:href="#DejaVuSans-437"/>
      <use xlink:href="#DejaVuSans-43d" transform="translate(53.173828 0)"/>
      <use xlink:href="#DejaVuSans-430" transform="translate(118.554688 0)"/>
      <use xlink:href="#DejaVuSans-447" transform="translate(179.833984 0)"/>
      <use xlink:href="#DejaVuSans-435" transform="translate(238.916016 0)"/>
      <use xlink:href="#DejaVuSans-43d" transform="translate(300.439453 0)"/>
      <use xlink:href="#DejaVuSans-438" transform="translate(365.820312 0)"/>
      <use xlink:href="#DejaVuSans-435" transform="translate(430.810547 0)"/>
     </g>
    </g>
   </g>
   <g id="line2d_27">
    <path d="M 52.160938 66.439219 
L 54.395172 66.578067 
L 56.629406 66.994266 
L 58.86364 67.686771 
L 61.097874 68.653849 
L 63.332109 69.893078 
L 65.566343 71.401354 
L 67.800577 73.174899 
L 70.034811 75.209273 
L 72.715892 77.987595 
L 75.396974 81.124119 
L 78.078055 84.607535 
L 80.759136 88.425281 
L 83.887064 93.283442 
L 87.014992 98.554035 
L 90.589766 105.049317 
L 94.164541 112.007805 
L 98.186163 120.334143 
L 102.654631 130.124641 
L 107.569947 141.436002 
L 113.825802 156.442252 
L 123.656433 180.734367 
L 133.487064 204.861527 
L 139.296073 218.565848 
L 144.211388 229.626006 
L 148.679856 239.134312 
L 152.701478 247.165241 
L 156.276253 253.830187 
L 159.851028 260.004744 
L 162.978956 264.974015 
L 166.106883 269.513094 
L 168.787965 273.044389 
L 171.469046 276.230487 
L 174.150127 279.059898 
L 176.831208 281.52242 
L 179.065442 283.287811 
L 181.299676 284.787806 
L 183.53391 286.018647 
L 185.768145 286.977252 
L 188.002379 287.66122 
L 190.236613 288.068838 
L 192.470847 288.199085 
L 194.705082 288.051636 
L 196.939316 287.626859 
L 199.17355 286.925818 
L 201.407784 285.950269 
L 203.642019 284.702656 
L 205.876253 283.186102 
L 208.110487 281.404406 
L 210.344721 279.362031 
L 213.025802 276.57433 
L 215.706883 273.428703 
L 218.387965 269.936493 
L 221.069046 266.110293 
L 224.196974 261.24274 
L 227.324901 255.963306 
L 230.899676 249.45865 
L 234.474451 242.491624 
L 238.496073 234.15675 
L 242.964541 224.358172 
L 247.879856 213.039726 
L 254.135712 198.027318 
L 263.966343 173.732238 
L 273.796974 149.610413 
L 279.605983 135.913059 
L 284.521298 124.860908 
L 288.989766 115.361477 
L 293.011388 107.339759 
L 296.586163 100.683912 
L 300.160937 94.519251 
L 303.288865 89.559243 
L 306.416793 85.029943 
L 309.097874 81.507404 
L 311.778956 78.330375 
L 314.460037 75.510313 
L 317.141118 73.057386 
L 319.375352 71.300154 
L 321.609586 69.808445 
L 323.84382 68.585994 
L 326.078055 67.635865 
L 328.312289 66.960435 
L 330.546523 66.561398 
L 332.780757 66.439752 
L 335.014992 66.595802 
L 337.249226 67.029156 
L 339.48346 67.738731 
L 341.717694 68.722749 
L 343.951928 69.978744 
L 346.186163 71.503572 
L 348.420397 73.293414 
L 350.654631 75.343786 
L 353.335712 78.140859 
L 356.016793 81.295582 
L 358.697874 84.796578 
L 361.378956 88.631222 
L 364.506883 93.508155 
L 367.634811 98.796417 
L 371.209586 105.310431 
L 374.784361 112.285977 
L 378.805983 120.629369 
L 383.274451 130.436003 
L 388.189766 141.761507 
L 394.445622 156.780038 
L 404.276253 181.078024 
L 414.106883 205.194454 
L 419.915892 218.88481 
L 424.831208 229.928927 
L 429.299676 239.419461 
L 433.321298 247.431948 
L 436.896073 254.078679 
L 440.470847 260.23343 
L 443.598775 265.184164 
L 446.726703 269.703674 
L 449.407784 273.217447 
L 452.088865 276.385399 
L 454.769947 279.196106 
L 457.451028 281.639432 
L 459.685262 283.388501 
L 461.919496 284.871922 
L 464.15373 286.085979 
L 466.387965 287.02763 
L 468.622199 287.694519 
L 470.856433 288.084975 
L 473.090667 288.198019 
L 475.324901 288.033369 
L 477.559136 287.591438 
L 479.79337 286.873331 
L 482.027604 285.880848 
L 484.261838 284.616473 
L 486.496073 283.083375 
L 488.730307 281.285391 
L 490.964541 279.227026 
L 493.645622 276.420588 
L 496.326703 273.256778 
L 498.560937 270.35547 
L 498.560937 270.35547 
" clip-path="url(#p39a22d61cc)" style="fill: none; stroke: #0000ff; stroke-width: 1.5; stroke-linecap: square"/>
   </g>
   <g id="line2d_28">
    <path d="M 52.160938 177.319219 
L 63.332109 204.778254 
L 69.141118 218.486045 
L 74.056433 229.550197 
L 78.524901 239.062932 
L 82.546523 247.09846 
L 86.121298 253.767949 
L 89.696073 259.947448 
L 92.824001 264.921346 
L 95.951928 269.465311 
L 98.63301 273.000981 
L 101.314091 276.191611 
L 103.995172 279.025694 
L 106.676253 281.493011 
L 108.910487 283.262479 
L 111.144721 284.766615 
L 113.378956 286.00165 
L 115.61319 286.964492 
L 117.847424 287.652729 
L 120.081658 288.064637 
L 122.315892 288.199185 
L 124.550127 288.056036 
L 126.784361 287.635549 
L 129.018595 286.938775 
L 131.252829 285.967462 
L 133.487064 284.72404 
L 135.721298 283.211625 
L 137.955532 281.434003 
L 140.189766 279.395628 
L 142.870847 276.612616 
L 145.551928 273.47154 
L 148.23301 269.983726 
L 150.914091 266.161751 
L 154.042019 261.298893 
L 157.169947 256.023878 
L 160.744721 249.523907 
L 164.319496 242.561148 
L 168.341118 234.230539 
L 172.809586 224.435999 
L 177.724901 213.121092 
L 183.980757 198.111758 
L 193.811388 173.818153 
L 203.642019 149.693653 
L 209.451028 135.992812 
L 214.366343 124.936654 
L 218.834811 115.432782 
L 222.856433 107.406457 
L 226.431208 100.746058 
L 230.005983 94.576448 
L 233.13391 89.611806 
L 236.261838 85.077615 
L 238.942919 81.550697 
L 241.624001 78.369133 
L 244.305082 75.544395 
L 246.986163 73.086671 
L 249.220397 71.325358 
L 251.454631 69.829506 
L 253.688865 68.60286 
L 255.9231 67.648492 
L 258.157334 66.968793 
L 260.391568 66.565465 
L 262.625802 66.439519 
L 264.860037 66.591268 
L 267.094271 67.020334 
L 269.328505 67.725642 
L 271.562739 68.705426 
L 273.796974 69.957231 
L 276.031208 71.477922 
L 278.265442 73.263691 
L 280.499676 75.310066 
L 283.180757 78.102454 
L 285.861838 81.252629 
L 288.542919 84.749233 
L 291.224001 88.579657 
L 294.351928 93.451901 
L 297.479856 98.73575 
L 301.054631 105.245087 
L 304.629406 112.216376 
L 308.651028 120.555511 
L 313.119496 130.35812 
L 318.034811 141.680098 
L 324.290667 156.695573 
L 334.121298 180.992113 
L 343.951928 205.111248 
L 349.760938 218.805107 
L 354.676253 229.853244 
L 359.144721 239.348229 
L 363.166343 247.365334 
L 366.741118 254.016626 
L 370.315892 260.176333 
L 373.44382 265.131706 
L 376.571748 269.656112 
L 379.252829 273.174269 
L 381.93391 276.34676 
L 384.614992 279.162146 
L 387.296073 281.610273 
L 389.530307 283.363424 
L 391.764541 284.85099 
L 393.998775 286.069244 
L 396.23301 287.015135 
L 398.467244 287.686294 
L 400.701478 288.08104 
L 402.935712 288.198386 
L 405.169947 288.038036 
L 407.404181 287.600392 
L 409.638415 286.886552 
L 411.872649 285.898301 
L 414.106883 284.638116 
L 416.341118 283.109152 
L 418.575352 281.315239 
L 420.809586 279.260869 
L 423.490667 276.459113 
L 426.171748 273.299846 
L 428.852829 269.79446 
L 431.53391 265.955597 
L 434.661838 261.073978 
L 437.789766 255.781307 
L 441.364541 249.26262 
L 444.939316 242.282819 
L 448.960938 233.935176 
L 453.429406 224.124524 
L 458.344721 212.7955 
L 464.600577 197.773922 
L 474.431208 173.474505 
L 484.261838 149.360793 
L 490.070847 135.673949 
L 494.986163 124.633859 
L 498.560937 116.998158 
L 498.560937 116.998158 
" clip-path="url(#p39a22d61cc)" style="fill: none; stroke-dasharray: 5.55,2.4; stroke-dashoffset: 0; stroke: #ff0000; stroke-width: 1.5"/>
   </g>
   <g id="patch_3">
    <path d="M 52.160938 343.639219 
L 52.160938 10.999219 
" style="fill: none; stroke: #000000; stroke-width: 0.8; stroke-linejoin: miter; stroke-linecap: square"/>
   </g>
   <g id="patch_4">
    <path d="M 498.560937 343.639219 
L 498.560937 10.999219 
" style="fill: none; stroke: #000000; stroke-width: 0.8; stroke-linejoin: miter; stroke-linecap: square"/>
   </g>
   <g id="patch_5">
    <path d="M 52.160938 343.639219 
L 498.560937 343.639219 
" style="fill: none; stroke: #000000; stroke-width: 0.8; stroke-linejoin: miter; stroke-linecap: square"/>
   </g>
   <g id="patch_6">
    <path d="M 52.160938 10.999219 
L 498.560937 10.999219 
" style="fill: none; stroke: #000000; stroke-width: 0.8; stroke-linejoin: miter; stroke-linecap: square"/>
   </g>
   <g id="legend_1">
    <g id="patch_7">
     <path d="M 441.91875 48.355469 
L 491.560938 48.355469 
Q 493.560938 48.355469 493.560938 46.355469 
L 493.560938 17.999219 
Q 493.560938 15.999219 491.560938 15.999219 
L 441.91875 15.999219 
Q 439.91875 15.999219 439.91875 17.999219 
L 439.91875 46.355469 
Q 439.91875 48.355469 441.91875 48.355469 
z
" style="fill: #ffffff; opacity: 0.8; stroke: #cccccc; stroke-linejoin: miter"/>
    </g>
    <g id="line2d_29">
     <path d="M 443.91875 24.097656 
L 453.91875 24.097656 
L 463.91875 24.097656 
" style="fill: none; stroke: #0000ff; stroke-width: 1.5; stroke-linecap: square"/>
    </g>
    <g id="text_16">
     <!-- x(t) -->
     <g transform="translate(471.91875 27.597656) scale(0.1 -0.1)">
      <defs>
       <path id="DejaVuSans-78" d="M 3513 3500 
L 2247 1797 
L 3578 0 
L 2900 0 
L 1881 1375 
L 863 0 
L 184 0 
L 1544 1831 
L 300 3500 
L 978 3500 
L 1906 2253 
L 2834 3500 
L 3513 3500 
z
" transform="scale(0.015625)"/>
       <path id="DejaVuSans-28" d="M 1984 4856 
Q 1566 4138 1362 3434 
Q 1159 2731 1159 2009 
Q 1159 1288 1364 580 
Q 1569 -128 1984 -844 
L 1484 -844 
Q 1016 -109 783 600 
Q 550 1309 550 2009 
Q 550 2706 781 3412 
Q 1013 4119 1484 4856 
L 1984 4856 
z
" transform="scale(0.015625)"/>
       <path id="DejaVuSans-29" d="M 513 4856 
L 1013 4856 
Q 1481 4119 1714 3412 
Q 1947 2706 1947 2009 
Q 1947 1309 1714 600 
Q 1481 -109 1013 -844 
L 513 -844 
Q 928 -128 1133 580 
Q 1338 1288 1338 2009 
Q 1338 2731 1133 3434 
Q 928 4138 513 4856 
z
" transform="scale(0.015625)"/>
      </defs>
      <use xlink:href="#DejaVuSans-78"/>
      <use xlink:href="#DejaVuSans-28" transform="translate(59.179688 0)"/>
      <use xlink:href="#DejaVuSans-74" transform="translate(98.193359 0)"/>
      <use xlink:href="#DejaVuSans-29" transform="translate(137.402344 0)"/>
     </g>
    </g>
    <g id="line2d_30">
     <path d="M 443.91875 38.775781 
L 453.91875 38.775781 
L 463.91875 38.775781 
" style="fill: none; stroke-dasharray: 5.55,2.4; stroke-dashoffset: 0; stroke: #ff0000; stroke-width: 1.5"/>
    </g>
    <g id="text_17">
     <!-- y(t) -->
     <g transform="translate(471.91875 42.275781) scale(0.1 -0.1)">
      <defs>
       <path id="DejaVuSans-79" d="M 2059 -325 
Q 1816 -950 1584 -1140 
Q 1353 -1331 966 -1331 
L 506 -1331 
L 506 -850 
L 844 -850 
Q 1081 -850 1212 -737 
Q 1344 -625 1503 -206 
L 1606 56 
L 191 3500 
L 800 3500 
L 1894 763 
L 2988 3500 
L 3597 3500 
L 2059 -325 
z
" transform="scale(0.015625)"/>
      </defs>
      <use xlink:href="#DejaVuSans-79"/>
      <use xlink:href="#DejaVuSans-28" transform="translate(59.179688 0)"/>
      <use xlink:href="#DejaVuSans-74" transform="translate(98.193359 0)"/>
      <use xlink:href="#DejaVuSans-29" transform="translate(137.402344 0)"/>
     </g>
    </g>
   </g>
  </g>
 </g>
 <defs>
  <clipPath id="p39a22d61cc">
   <rect x="52.160938" y="10.999219" width="446.4" height="332.64"/>
  </clipPath>
 </defs>
</svg>
