<?xml version="1.0" encoding="utf-8" standalone="no"?>
<!DOCTYPE svg PUBLIC "-//W3C//DTD SVG 1.1//EN"
  "http://www.w3.org/Graphics/SVG/1.1/DTD/svg11.dtd">
<svg xmlns:xlink="http://www.w3.org/1999/xlink" width="528.252813pt" height="501.337656pt" viewBox="0 0 528.252813 501.337656" xmlns="http://www.w3.org/2000/svg" version="1.1">
 <metadata>
  <rdf:RDF xmlns:dc="http://purl.org/dc/elements/1.1/" xmlns:cc="http://creativecommons.org/ns#" xmlns:rdf="http://www.w3.org/1999/02/22-rdf-syntax-ns#">
   <cc:Work>
    <dc:type rdf:resource="http://purl.org/dc/dcmitype/StillImage"/>
    <dc:date>2025-11-14T20:46:25.485230</dc:date>
    <dc:format>image/svg+xml</dc:format>
    <dc:creator>
     <cc:Agent>
      <dc:title>Matplotlib v3.10.7, https://matplotlib.org/</dc:title>
     </cc:Agent>
    </dc:creator>
   </cc:Work>
  </rdf:RDF>
 </metadata>
 <defs>
  <style type="text/css">*{stroke-linejoin: round; stroke-linecap: butt}</style>
 </defs>
 <g id="figure_1">
  <g id="patch_1">
   <path d="M 0 501.337656 
L 528.252813 501.337656 
L 528.252813 0 
L 0 0 
z
" style="fill: #ffffff"/>
  </g>
  <g id="axes_1">
   <g id="patch_2">
    <path d="M 65.745313 456.038906 
L 512.145312 456.038906 
L 512.145312 12.518906 
L 65.745313 12.518906 
z
" style="fill: #ffffff"/>
   </g>
   <g id="matplotlib.axis_1">
    <g id="xtick_1">
     <g id="line2d_1">
      <path d="M 65.745313 456.038906 
L 65.745313 12.518906 
" clip-path="url(#p116c3d0e37)" style="fill: none; stroke: #b0b0b0; stroke-opacity: 0.3; stroke-width: 0.8; stroke-linecap: square"/>
     </g>
     <g id="line2d_2">
      <defs>
       <path id="maccf74ce2e" d="M 0 0 
L 0 3.5 
" style="stroke: #000000; stroke-width: 0.8"/>
      </defs>
      <g>
       <use xlink:href="#maccf74ce2e" x="65.745313" y="456.038906" style="stroke: #000000; stroke-width: 0.8"/>
      </g>
     </g>
     <g id="text_1">
      <!-- 0 -->
      <g transform="translate(61.291563 473.676719) scale(0.14 -0.14)">
       <defs>
        <path id="DejaVuSans-30" d="M 2034 4250 
Q 1547 4250 1301 3770 
Q 1056 3291 1056 2328 
Q 1056 1369 1301 889 
Q 1547 409 2034 409 
Q 2525 409 2770 889 
Q 3016 1369 3016 2328 
Q 3016 3291 2770 3770 
Q 2525 4250 2034 4250 
z
M 2034 4750 
Q 2819 4750 3233 4129 
Q 3647 3509 3647 2328 
Q 3647 1150 3233 529 
Q 2819 -91 2034 -91 
Q 1250 -91 836 529 
Q 422 1150 422 2328 
Q 422 3509 836 4129 
Q 1250 4750 2034 4750 
z
" transform="scale(0.015625)"/>
       </defs>
       <use xlink:href="#DejaVuSans-30"/>
      </g>
     </g>
    </g>
    <g id="xtick_2">
     <g id="line2d_3">
      <path d="M 155.025312 456.038906 
L 155.025312 12.518906 
" clip-path="url(#p116c3d0e37)" style="fill: none; stroke: #b0b0b0; stroke-opacity: 0.3; stroke-width: 0.8; stroke-linecap: square"/>
     </g>
     <g id="line2d_4">
      <g>
       <use xlink:href="#maccf74ce2e" x="155.025312" y="456.038906" style="stroke: #000000; stroke-width: 0.8"/>
      </g>
     </g>
     <g id="text_2">
      <!-- 2 -->
      <g transform="translate(150.571562 473.676719) scale(0.14 -0.14)">
       <defs>
        <path id="DejaVuSans-32" d="M 1228 531 
L 3431 531 
L 3431 0 
L 469 0 
L 469 531 
Q 828 903 1448 1529 
Q 2069 2156 2228 2338 
Q 2531 2678 2651 2914 
Q 2772 3150 2772 3378 
Q 2772 3750 2511 3984 
Q 2250 4219 1831 4219 
Q 1534 4219 1204 4116 
Q 875 4013 500 3803 
L 500 4441 
Q 881 4594 1212 4672 
Q 1544 4750 1819 4750 
Q 2544 4750 2975 4387 
Q 3406 4025 3406 3419 
Q 3406 3131 3298 2873 
Q 3191 2616 2906 2266 
Q 2828 2175 2409 1742 
Q 1991 1309 1228 531 
z
" transform="scale(0.015625)"/>
       </defs>
       <use xlink:href="#DejaVuSans-32"/>
      </g>
     </g>
    </g>
    <g id="xtick_3">
     <g id="line2d_5">
      <path d="M 244.305312 456.038906 
L 244.305312 12.518906 
" clip-path="url(#p116c3d0e37)" style="fill: none; stroke: #b0b0b0; stroke-opacity: 0.3; stroke-width: 0.8; stroke-linecap: square"/>
     </g>
     <g id="line2d_6">
      <g>
       <use xlink:href="#maccf74ce2e" x="244.305312" y="456.038906" style="stroke: #000000; stroke-width: 0.8"/>
      </g>
     </g>
     <g id="text_3">
      <!-- 4 -->
      <g transform="translate(239.851562 473.676719) scale(0.14 -0.14)">
       <defs>
        <path id="DejaVuSans-34" d="M 2419 4116 
L 825 1625 
L 2419 1625 
L 2419 4116 
z
M 2253 4666 
L 3047 4666 
L 3047 1625 
L 3713 1625 
L 3713 1100 
L 3047 1100 
L 3047 0 
L 2419 0 
L 2419 1100 
L 313 1100 
L 313 1709 
L 2253 4666 
z
" transform="scale(0.015625)"/>
       </defs>
       <use xlink:href="#DejaVuSans-34"/>
      </g>
     </g>
    </g>
    <g id="xtick_4">
     <g id="line2d_7">
      <path d="M 333.585312 456.038906 
L 333.585312 12.518906 
" clip-path="url(#p116c3d0e37)" style="fill: none; stroke: #b0b0b0; stroke-opacity: 0.3; stroke-width: 0.8; stroke-linecap: square"/>
     </g>
     <g id="line2d_8">
      <g>
       <use xlink:href="#maccf74ce2e" x="333.585312" y="456.038906" style="stroke: #000000; stroke-width: 0.8"/>
      </g>
     </g>
     <g id="text_4">
      <!-- 6 -->
      <g transform="translate(329.131562 473.676719) scale(0.14 -0.14)">
       <defs>
        <path id="DejaVuSans-36" d="M 2113 2584 
Q 1688 2584 1439 2293 
Q 1191 2003 1191 1497 
Q 1191 994 1439 701 
Q 1688 409 2113 409 
Q 2538 409 2786 701 
Q 3034 994 3034 1497 
Q 3034 2003 2786 2293 
Q 2538 2584 2113 2584 
z
M 3366 4563 
L 3366 3988 
Q 3128 4100 2886 4159 
Q 2644 4219 2406 4219 
Q 1781 4219 1451 3797 
Q 1122 3375 1075 2522 
Q 1259 2794 1537 2939 
Q 1816 3084 2150 3084 
Q 2853 3084 3261 2657 
Q 3669 2231 3669 1497 
Q 3669 778 3244 343 
Q 2819 -91 2113 -91 
Q 1303 -91 875 529 
Q 447 1150 447 2328 
Q 447 3434 972 4092 
Q 1497 4750 2381 4750 
Q 2619 4750 2861 4703 
Q 3103 4656 3366 4563 
z
" transform="scale(0.015625)"/>
       </defs>
       <use xlink:href="#DejaVuSans-36"/>
      </g>
     </g>
    </g>
    <g id="xtick_5">
     <g id="line2d_9">
      <path d="M 422.865312 456.038906 
L 422.865312 12.518906 
" clip-path="url(#p116c3d0e37)" style="fill: none; stroke: #b0b0b0; stroke-opacity: 0.3; stroke-width: 0.8; stroke-linecap: square"/>
     </g>
     <g id="line2d_10">
      <g>
       <use xlink:href="#maccf74ce2e" x="422.865312" y="456.038906" style="stroke: #000000; stroke-width: 0.8"/>
      </g>
     </g>
     <g id="text_5">
      <!-- 8 -->
      <g transform="translate(418.411562 473.676719) scale(0.14 -0.14)">
       <defs>
        <path id="DejaVuSans-38" d="M 2034 2216 
Q 1584 2216 1326 1975 
Q 1069 1734 1069 1313 
Q 1069 891 1326 650 
Q 1584 409 2034 409 
Q 2484 409 2743 651 
Q 3003 894 3003 1313 
Q 3003 1734 2745 1975 
Q 2488 2216 2034 2216 
z
M 1403 2484 
Q 997 2584 770 2862 
Q 544 3141 544 3541 
Q 544 4100 942 4425 
Q 1341 4750 2034 4750 
Q 2731 4750 3128 4425 
Q 3525 4100 3525 3541 
Q 3525 3141 3298 2862 
Q 3072 2584 2669 2484 
Q 3125 2378 3379 2068 
Q 3634 1759 3634 1313 
Q 3634 634 3220 271 
Q 2806 -91 2034 -91 
Q 1263 -91 848 271 
Q 434 634 434 1313 
Q 434 1759 690 2068 
Q 947 2378 1403 2484 
z
M 1172 3481 
Q 1172 3119 1398 2916 
Q 1625 2713 2034 2713 
Q 2441 2713 2670 2916 
Q 2900 3119 2900 3481 
Q 2900 3844 2670 4047 
Q 2441 4250 2034 4250 
Q 1625 4250 1398 4047 
Q 1172 3844 1172 3481 
z
" transform="scale(0.015625)"/>
       </defs>
       <use xlink:href="#DejaVuSans-38"/>
      </g>
     </g>
    </g>
    <g id="xtick_6">
     <g id="line2d_11">
      <path d="M 512.145312 456.038906 
L 512.145312 12.518906 
" clip-path="url(#p116c3d0e37)" style="fill: none; stroke: #b0b0b0; stroke-opacity: 0.3; stroke-width: 0.8; stroke-linecap: square"/>
     </g>
     <g id="line2d_12">
      <g>
       <use xlink:href="#maccf74ce2e" x="512.145312" y="456.038906" style="stroke: #000000; stroke-width: 0.8"/>
      </g>
     </g>
     <g id="text_6">
      <!-- 10 -->
      <g transform="translate(503.237812 473.676719) scale(0.14 -0.14)">
       <defs>
        <path id="DejaVuSans-31" d="M 794 531 
L 1825 531 
L 1825 4091 
L 703 3866 
L 703 4441 
L 1819 4666 
L 2450 4666 
L 2450 531 
L 3481 531 
L 3481 0 
L 794 0 
L 794 531 
z
" transform="scale(0.015625)"/>
       </defs>
       <use xlink:href="#DejaVuSans-31"/>
       <use xlink:href="#DejaVuSans-30" transform="translate(63.623047 0)"/>
      </g>
     </g>
    </g>
    <g id="text_7">
     <!-- t -->
     <g transform="translate(286.201094 491.226094) scale(0.14 -0.14)">
      <defs>
       <path id="DejaVuSans-74" d="M 1172 4494 
L 1172 3500 
L 2356 3500 
L 2356 3053 
L 1172 3053 
L 1172 1153 
Q 1172 725 1289 603 
Q 1406 481 1766 481 
L 2356 481 
L 2356 0 
L 1766 0 
Q 1100 0 847 248 
Q 594 497 594 1153 
L 594 3053 
L 172 3053 
L 172 3500 
L 594 3500 
L 594 4494 
L 1172 4494 
z
" transform="scale(0.015625)"/>
      </defs>
      <use xlink:href="#DejaVuSans-74"/>
     </g>
    </g>
   </g>
   <g id="matplotlib.axis_2">
    <g id="ytick_1">
     <g id="line2d_13">
      <path d="M 65.745313 456.038906 
L 512.145312 456.038906 
" clip-path="url(#p116c3d0e37)" style="fill: none; stroke: #b0b0b0; stroke-opacity: 0.3; stroke-width: 0.8; stroke-linecap: square"/>
     </g>
     <g id="line2d_14">
      <defs>
       <path id="m55591ffad8" d="M 0 0 
L -3.5 0 
" style="stroke: #000000; stroke-width: 0.8"/>
      </defs>
      <g>
       <use xlink:href="#m55591ffad8" x="65.745313" y="456.038906" style="stroke: #000000; stroke-width: 0.8"/>
      </g>
     </g>
     <g id="text_8">
      <!-- −1.5 -->
      <g transform="translate(24.749375 461.357812) scale(0.14 -0.14)">
       <defs>
        <path id="DejaVuSans-2212" d="M 678 2272 
L 4684 2272 
L 4684 1741 
L 678 1741 
L 678 2272 
z
" transform="scale(0.015625)"/>
        <path id="DejaVuSans-2e" d="M 684 794 
L 1344 794 
L 1344 0 
L 684 0 
L 684 794 
z
" transform="scale(0.015625)"/>
        <path id="DejaVuSans-35" d="M 691 4666 
L 3169 4666 
L 3169 4134 
L 1269 4134 
L 1269 2991 
Q 1406 3038 1543 3061 
Q 1681 3084 1819 3084 
Q 2600 3084 3056 2656 
Q 3513 2228 3513 1497 
Q 3513 744 3044 326 
Q 2575 -91 1722 -91 
Q 1428 -91 1123 -41 
Q 819 9 494 109 
L 494 744 
Q 775 591 1075 516 
Q 1375 441 1709 441 
Q 2250 441 2565 725 
Q 2881 1009 2881 1497 
Q 2881 1984 2565 2268 
Q 2250 2553 1709 2553 
Q 1456 2553 1204 2497 
Q 953 2441 691 2322 
L 691 4666 
z
" transform="scale(0.015625)"/>
       </defs>
       <use xlink:href="#DejaVuSans-2212"/>
       <use xlink:href="#DejaVuSans-31" transform="translate(83.789062 0)"/>
       <use xlink:href="#DejaVuSans-2e" transform="translate(147.412109 0)"/>
       <use xlink:href="#DejaVuSans-35" transform="translate(179.199219 0)"/>
      </g>
     </g>
    </g>
    <g id="ytick_2">
     <g id="line2d_15">
      <path d="M 65.745313 382.118906 
L 512.145312 382.118906 
" clip-path="url(#p116c3d0e37)" style="fill: none; stroke: #b0b0b0; stroke-opacity: 0.3; stroke-width: 0.8; stroke-linecap: square"/>
     </g>
     <g id="line2d_16">
      <g>
       <use xlink:href="#m55591ffad8" x="65.745313" y="382.118906" style="stroke: #000000; stroke-width: 0.8"/>
      </g>
     </g>
     <g id="text_9">
      <!-- −1.0 -->
      <g transform="translate(24.749375 387.437812) scale(0.14 -0.14)">
       <use xlink:href="#DejaVuSans-2212"/>
       <use xlink:href="#DejaVuSans-31" transform="translate(83.789062 0)"/>
       <use xlink:href="#DejaVuSans-2e" transform="translate(147.412109 0)"/>
       <use xlink:href="#DejaVuSans-30" transform="translate(179.199219 0)"/>
      </g>
     </g>
    </g>
    <g id="ytick_3">
     <g id="line2d_17">
      <path d="M 65.745313 308.198906 
L 512.145312 308.198906 
" clip-path="url(#p116c3d0e37)" style="fill: none; stroke: #b0b0b0; stroke-opacity: 0.3; stroke-width: 0.8; stroke-linecap: square"/>
     </g>
     <g id="line2d_18">
      <g>
       <use xlink:href="#m55591ffad8" x="65.745313" y="308.198906" style="stroke: #000000; stroke-width: 0.8"/>
      </g>
     </g>
     <g id="text_10">
      <!-- −0.5 -->
      <g transform="translate(24.749375 313.517812) scale(0.14 -0.14)">
       <use xlink:href="#DejaVuSans-2212"/>
       <use xlink:href="#DejaVuSans-30" transform="translate(83.789062 0)"/>
       <use xlink:href="#DejaVuSans-2e" transform="translate(147.412109 0)"/>
       <use xlink:href="#DejaVuSans-35" transform="translate(179.199219 0)"/>
      </g>
     </g>
    </g>
    <g id="ytick_4">
     <g id="line2d_19">
      <path d="M 65.745313 234.278906 
L 512.145312 234.278906 
" clip-path="url(#p116c3d0e37)" style="fill: none; stroke: #b0b0b0; stroke-opacity: 0.3; stroke-width: 0.8; stroke-linecap: square"/>
     </g>
     <g id="line2d_20">
      <g>
       <use xlink:href="#m55591ffad8" x="65.745313" y="234.278906" style="stroke: #000000; stroke-width: 0.8"/>
      </g>
     </g>
     <g id="text_11">
      <!-- 0.0 -->
      <g transform="translate(36.480938 239.597812) scale(0.14 -0.14)">
       <use xlink:href="#DejaVuSans-30"/>
       <use xlink:href="#DejaVuSans-2e" transform="translate(63.623047 0)"/>
       <use xlink:href="#DejaVuSans-30" transform="translate(95.410156 0)"/>
      </g>
     </g>
    </g>
    <g id="ytick_5">
     <g id="line2d_21">
      <path d="M 65.745313 160.358906 
L 512.145312 160.358906 
" clip-path="url(#p116c3d0e37)" style="fill: none; stroke: #b0b0b0; stroke-opacity: 0.3; stroke-width: 0.8; stroke-linecap: square"/>
     </g>
     <g id="line2d_22">
      <g>
       <use xlink:href="#m55591ffad8" x="65.745313" y="160.358906" style="stroke: #000000; stroke-width: 0.8"/>
      </g>
     </g>
     <g id="text_12">
      <!-- 0.5 -->
      <g transform="translate(36.480938 165.677813) scale(0.14 -0.14)">
       <use xlink:href="#DejaVuSans-30"/>
       <use xlink:href="#DejaVuSans-2e" transform="translate(63.623047 0)"/>
       <use xlink:href="#DejaVuSans-35" transform="translate(95.410156 0)"/>
      </g>
     </g>
    </g>
    <g id="ytick_6">
     <g id="line2d_23">
      <path d="M 65.745313 86.438906 
L 512.145312 86.438906 
" clip-path="url(#p116c3d0e37)" style="fill: none; stroke: #b0b0b0; stroke-opacity: 0.3; stroke-width: 0.8; stroke-linecap: square"/>
     </g>
     <g id="line2d_24">
      <g>
       <use xlink:href="#m55591ffad8" x="65.745313" y="86.438906" style="stroke: #000000; stroke-width: 0.8"/>
      </g>
     </g>
     <g id="text_13">
      <!-- 1.0 -->
      <g transform="translate(36.480938 91.757812) scale(0.14 -0.14)">
       <use xlink:href="#DejaVuSans-31"/>
       <use xlink:href="#DejaVuSans-2e" transform="translate(63.623047 0)"/>
       <use xlink:href="#DejaVuSans-30" transform="translate(95.410156 0)"/>
      </g>
     </g>
    </g>
    <g id="ytick_7">
     <g id="line2d_25">
      <path d="M 65.745313 12.518906 
L 512.145312 12.518906 
" clip-path="url(#p116c3d0e37)" style="fill: none; stroke: #b0b0b0; stroke-opacity: 0.3; stroke-width: 0.8; stroke-linecap: square"/>
     </g>
     <g id="line2d_26">
      <g>
       <use xlink:href="#m55591ffad8" x="65.745313" y="12.518906" style="stroke: #000000; stroke-width: 0.8"/>
      </g>
     </g>
     <g id="text_14">
      <!-- 1.5 -->
      <g transform="translate(36.480938 17.837812) scale(0.14 -0.14)">
       <use xlink:href="#DejaVuSans-31"/>
       <use xlink:href="#DejaVuSans-2e" transform="translate(63.623047 0)"/>
       <use xlink:href="#DejaVuSans-35" transform="translate(95.410156 0)"/>
      </g>
     </g>
    </g>
    <g id="text_15">
     <!-- значение -->
     <g transform="translate(17.837813 268.741875) rotate(-90) scale(0.14 -0.14)">
      <defs>
       <path id="DejaVuSans-437" d="M 2206 1888 
Q 2594 1813 2809 1584 
Q 3025 1356 3025 1019 
Q 3025 478 2622 193 
Q 2219 -91 1475 -91 
Q 1225 -91 961 -47 
Q 697 -3 416 84 
L 416 619 
Q 638 503 903 445 
Q 1169 388 1459 388 
Q 1931 388 2195 563 
Q 2459 738 2459 1019 
Q 2459 1294 2225 1461 
Q 1991 1628 1563 1628 
L 1100 1628 
L 1100 2103 
L 1584 2103 
Q 1947 2103 2158 2242 
Q 2369 2381 2369 2600 
Q 2369 2800 2151 2944 
Q 1934 3088 1563 3088 
Q 1341 3088 1089 3047 
Q 838 3006 534 2916 
L 534 3438 
Q 841 3513 1106 3550 
Q 1372 3588 1609 3588 
Q 2222 3588 2576 3342 
Q 2931 3097 2931 2656 
Q 2931 2366 2743 2164 
Q 2556 1963 2206 1888 
z
" transform="scale(0.015625)"/>
       <path id="DejaVuSans-43d" d="M 581 3500 
L 1159 3500 
L 1159 2072 
L 3025 2072 
L 3025 3500 
L 3603 3500 
L 3603 0 
L 3025 0 
L 3025 1613 
L 1159 1613 
L 1159 0 
L 581 0 
L 581 3500 
z
" transform="scale(0.015625)"/>
       <path id="DejaVuSans-430" d="M 2194 1759 
Q 1497 1759 1228 1600 
Q 959 1441 959 1056 
Q 959 750 1161 570 
Q 1363 391 1709 391 
Q 2188 391 2477 730 
Q 2766 1069 2766 1631 
L 2766 1759 
L 2194 1759 
z
M 3341 1997 
L 3341 0 
L 2766 0 
L 2766 531 
Q 2569 213 2275 61 
Q 1981 -91 1556 -91 
Q 1019 -91 701 211 
Q 384 513 384 1019 
Q 384 1609 779 1909 
Q 1175 2209 1959 2209 
L 2766 2209 
L 2766 2266 
Q 2766 2663 2505 2880 
Q 2244 3097 1772 3097 
Q 1472 3097 1187 3025 
Q 903 2953 641 2809 
L 641 3341 
Q 956 3463 1253 3523 
Q 1550 3584 1831 3584 
Q 2591 3584 2966 3190 
Q 3341 2797 3341 1997 
z
" transform="scale(0.015625)"/>
       <path id="DejaVuSans-447" d="M 2625 0 
L 2625 1472 
L 1553 1472 
Q 1075 1472 756 1769 
Q 469 2038 469 2613 
L 469 3500 
L 1044 3500 
L 1044 2666 
Q 1044 2300 1206 2116 
Q 1372 1931 1697 1931 
L 2625 1931 
L 2625 3500 
L 3200 3500 
L 3200 0 
L 2625 0 
z
" transform="scale(0.015625)"/>
       <path id="DejaVuSans-435" d="M 3597 1894 
L 3597 1613 
L 953 1613 
Q 991 1019 1311 708 
Q 1631 397 2203 397 
Q 2534 397 2845 478 
Q 3156 559 3463 722 
L 3463 178 
Q 3153 47 2828 -22 
Q 2503 -91 2169 -91 
Q 1331 -91 842 396 
Q 353 884 353 1716 
Q 353 2575 817 3079 
Q 1281 3584 2069 3584 
Q 2775 3584 3186 3129 
Q 3597 2675 3597 1894 
z
M 3022 2063 
Q 3016 2534 2758 2815 
Q 2500 3097 2075 3097 
Q 1594 3097 1305 2825 
Q 1016 2553 972 2059 
L 3022 2063 
z
" transform="scale(0.015625)"/>
       <path id="DejaVuSans-438" d="M 3578 3500 
L 3578 0 
L 3006 0 
L 3006 2809 
L 1319 0 
L 581 0 
L 581 3500 
L 1153 3500 
L 1153 697 
L 2838 3500 
L 3578 3500 
z
" transform="scale(0.015625)"/>
      </defs>
      <use xlink:href="#DejaVuSans-437"/>
      <use xlink:href="#DejaVuSans-43d" transform="translate(53.173828 0)"/>
      <use xlink:href="#DejaVuSans-430" transform="translate(118.554688 0)"/>
      <use xlink:href="#DejaVuSans-447" transform="translate(179.833984 0)"/>
      <use xlink:href="#DejaVuSans-435" transform="translate(238.916016 0)"/>
      <use xlink:href="#DejaVuSans-43d" transform="translate(300.439453 0)"/>
      <use xlink:href="#DejaVuSans-438" transform="translate(365.820312 0)"/>
      <use xlink:href="#DejaVuSans-435" transform="translate(430.810547 0)"/>
     </g>
    </g>
   </g>
   <g id="line2d_27">
    <path d="M 65.745313 86.438906 
L 67.486447 86.551347 
L 69.227581 86.888497 
L 70.968715 87.449845 
L 72.754493 88.257584 
L 74.584916 89.327987 
L 76.504628 90.712364 
L 78.513629 92.445358 
L 80.567275 94.513699 
L 82.754853 97.042127 
L 85.031721 100.023613 
L 87.397878 103.491905 
L 89.897968 107.555448 
L 92.531991 112.266298 
L 95.344592 117.764943 
L 98.291127 124.020968 
L 101.460884 131.286272 
L 104.853863 139.637402 
L 108.514709 149.25925 
L 112.488067 160.34702 
L 116.863224 173.229584 
L 121.863404 188.662546 
L 127.979696 208.297578 
L 138.069345 241.574166 
L 147.400038 272.055136 
L 153.203818 290.267052 
L 158.025421 304.691 
L 162.311289 316.828366 
L 166.195358 327.173977 
L 169.766915 336.068673 
L 173.070605 343.717663 
L 176.195718 350.402418 
L 179.097608 356.100961 
L 181.865565 361.057275 
L 184.454943 365.253036 
L 186.910389 368.825014 
L 189.276546 371.882163 
L 191.508769 374.412085 
L 193.651703 376.511291 
L 195.705349 378.215577 
L 197.669705 379.560805 
L 199.544772 380.582527 
L 201.375195 381.330985 
L 203.160974 381.822958 
L 204.902108 382.075328 
L 206.643242 382.102883 
L 208.384376 381.905582 
L 210.125511 381.483724 
L 211.911289 380.818456 
L 213.741712 379.893223 
L 215.61678 378.691619 
L 217.581136 377.159594 
L 219.590137 375.306646 
L 221.688427 373.066501 
L 223.876006 370.404679 
L 226.197518 367.222578 
L 228.652963 363.465913 
L 231.197698 359.160456 
L 233.92101 354.103833 
L 236.778256 348.319631 
L 239.814079 341.662749 
L 243.073125 333.964729 
L 246.555394 325.153632 
L 250.305529 315.048249 
L 254.412819 303.329506 
L 259.011199 289.521394 
L 264.368535 272.706147 
L 271.288427 250.204101 
L 289.771235 189.726658 
L 295.173215 173.035332 
L 299.771595 159.523603 
L 303.878886 148.120835 
L 307.629021 138.343839 
L 311.111289 129.869685 
L 314.370335 122.513078 
L 317.406159 116.195264 
L 320.263404 110.747289 
L 322.986717 106.025283 
L 325.531451 102.043864 
L 327.986897 98.609268 
L 330.308409 95.739268 
L 332.495988 93.377529 
L 334.594277 91.429996 
L 336.603278 89.860989 
L 338.52299 88.634924 
L 340.398058 87.697345 
L 342.228481 87.031501 
L 344.014259 86.620445 
L 345.755394 86.447146 
L 347.496528 86.498716 
L 349.237662 86.775075 
L 350.978796 87.275805 
L 352.764574 88.021647 
L 354.594997 89.028998 
L 356.470065 90.314088 
L 358.434421 91.932723 
L 360.488067 93.919544 
L 362.631001 96.309334 
L 364.863224 99.136637 
L 367.229381 102.502278 
L 369.684826 106.386151 
L 372.274205 110.900705 
L 375.042162 116.185125 
L 377.944052 122.21224 
L 381.02452 129.127654 
L 384.328211 137.099497 
L 387.899768 146.314782 
L 391.783836 156.973161 
L 396.02506 169.276694 
L 400.846663 183.969644 
L 406.561154 202.12865 
L 414.552513 228.337301 
L 427.811919 271.832524 
L 433.6157 290.053923 
L 438.481946 304.618576 
L 442.767815 316.760034 
L 446.651883 327.109897 
L 450.22344 336.008932 
L 453.527131 343.662277 
L 456.652243 350.351431 
L 459.598778 356.13806 
L 462.366735 361.090958 
L 464.956114 365.283406 
L 467.411559 368.852146 
L 469.777716 371.906099 
L 472.009939 374.432944 
L 474.152873 376.529146 
L 476.206519 378.230515 
L 478.170875 379.572922 
L 480.045943 380.591931 
L 481.876366 381.337725 
L 483.662144 381.827086 
L 485.403278 382.076904 
L 487.144412 382.101904 
L 488.885547 381.90205 
L 490.626681 381.477644 
L 492.412459 380.809773 
L 494.242882 379.881886 
L 496.11795 378.677583 
L 498.082306 377.142756 
L 500.091307 375.286978 
L 502.189597 373.043919 
L 504.377176 370.379112 
L 506.698688 367.193911 
L 509.154133 363.434051 
L 511.698868 359.125385 
L 512.145312 358.327241 
L 512.145312 358.327241 
" clip-path="url(#p116c3d0e37)" style="fill: none; stroke: #0000ff; stroke-width: 1.5; stroke-linecap: square"/>
   </g>
   <g id="line2d_28">
    <path d="M 65.745313 234.278906 
L 76.906429 270.858689 
L 82.799498 289.395507 
L 87.665745 303.993049 
L 91.951613 316.169638 
L 95.835682 326.556046 
L 99.407239 335.492391 
L 102.755574 343.283133 
L 105.880686 350.002272 
L 108.827221 355.818742 
L 111.595177 360.800942 
L 114.229201 365.090768 
L 116.729291 368.741507 
L 119.095448 371.808472 
L 121.327671 374.347844 
L 123.470605 376.456273 
L 125.52425 378.169517 
L 127.488607 379.523404 
L 129.363674 380.553462 
L 131.194097 381.310105 
L 132.979876 381.810097 
L 134.72101 382.070306 
L 136.462144 382.105708 
L 138.203278 381.916249 
L 139.944412 381.502218 
L 141.730191 380.844948 
L 143.560614 379.927868 
L 145.435682 378.734555 
L 147.355394 377.248844 
L 149.364394 375.410987 
L 151.462684 373.186378 
L 153.650263 370.54047 
L 155.971775 367.3749 
L 158.382576 363.706793 
L 160.927311 359.425707 
L 163.605979 354.480348 
L 166.463224 348.728854 
L 169.499048 342.104883 
L 172.713449 334.548618 
L 176.195718 325.777516 
L 179.945853 315.710954 
L 184.053143 304.029357 
L 188.651523 290.255796 
L 193.964214 273.613507 
L 200.794817 251.432514 
L 220.036582 188.510363 
L 225.393917 172.009103 
L 229.992297 158.551331 
L 234.099588 147.205492 
L 237.849723 137.487252 
L 241.287347 129.177006 
L 244.501748 121.969075 
L 247.537572 115.695457 
L 250.394817 110.291193 
L 253.073485 105.685474 
L 255.61822 101.738556 
L 258.029021 98.396375 
L 260.350533 95.552351 
L 262.538112 93.215553 
L 264.636402 91.292309 
L 266.645403 89.746843 
L 268.565114 88.54349 
L 270.440182 87.628258 
L 272.225961 86.997109 
L 274.011739 86.601627 
L 275.752873 86.443541 
L 277.494007 86.51033 
L 279.235141 86.80189 
L 280.976276 87.31778 
L 282.762054 88.079103 
L 284.592477 89.102228 
L 286.512189 90.437431 
L 288.476546 92.078987 
L 290.530191 94.089467 
L 292.673125 96.503561 
L 294.905349 99.355703 
L 297.271505 102.747075 
L 299.771595 106.73162 
L 302.405619 111.362041 
L 305.173575 116.688611 
L 308.12011 122.854957 
L 311.245222 129.924684 
L 314.593557 138.065732 
L 318.165114 147.344699 
L 322.049183 158.06484 
L 326.335051 170.559753 
L 331.201298 185.451645 
L 337.049723 204.099946 
L 345.532171 231.978824 
L 357.407599 270.92215 
L 363.300668 289.456281 
L 368.166915 304.050804 
L 372.452783 316.224164 
L 376.336852 326.607212 
L 379.908409 335.540125 
L 383.256744 343.327372 
L 386.381856 350.043024 
L 389.328391 355.856022 
L 392.096348 360.834813 
L 394.730371 365.121274 
L 397.230461 368.768721 
L 399.596618 371.832491 
L 401.828841 374.368787 
L 403.971775 376.474214 
L 406.025421 378.184542 
L 407.989777 379.53561 
L 409.864844 380.562954 
L 411.695267 381.316933 
L 413.481046 381.814314 
L 415.22218 382.071971 
L 416.963314 382.104819 
L 418.704448 381.912806 
L 420.445583 381.496227 
L 422.231361 380.836353 
L 424.061784 379.916619 
L 425.936852 378.720606 
L 427.856564 377.232156 
L 429.865565 375.391467 
L 431.963854 373.163941 
L 434.151433 370.515046 
L 436.472945 367.346372 
L 438.883746 363.675124 
L 441.428481 359.390822 
L 444.107149 354.442202 
L 446.964394 348.68738 
L 450.000218 342.06006 
L 453.214619 334.500475 
L 456.696888 325.726058 
L 460.447023 315.656277 
L 464.554313 303.971598 
L 469.152693 290.195166 
L 474.465385 273.550362 
L 481.295988 251.367454 
L 500.493107 188.588678 
L 505.850443 172.083805 
L 510.448823 158.622072 
L 512.145312 153.850825 
L 512.145312 153.850825 
" clip-path="url(#p116c3d0e37)" style="fill: none; stroke-dasharray: 5.55,2.4; stroke-dashoffset: 0; stroke: #ff0000; stroke-width: 1.5"/>
   </g>
   <g id="patch_3">
    <path d="M 65.745313 456.038906 
L 65.745313 12.518906 
" style="fill: none; stroke: #000000; stroke-width: 0.8; stroke-linejoin: miter; stroke-linecap: square"/>
   </g>
   <g id="patch_4">
    <path d="M 512.145312 456.038906 
L 512.145312 12.518906 
" style="fill: none; stroke: #000000; stroke-width: 0.8; stroke-linejoin: miter; stroke-linecap: square"/>
   </g>
   <g id="patch_5">
    <path d="M 65.745313 456.038906 
L 512.145312 456.038906 
" style="fill: none; stroke: #000000; stroke-width: 0.8; stroke-linejoin: miter; stroke-linecap: square"/>
   </g>
   <g id="patch_6">
    <path d="M 65.745313 12.518906 
L 512.145312 12.518906 
" style="fill: none; stroke: #000000; stroke-width: 0.8; stroke-linejoin: miter; stroke-linecap: square"/>
   </g>
  </g>
 </g>
 <defs>
  <clipPath id="p116c3d0e37">
   <rect x="65.745313" y="12.518906" width="446.4" height="443.52"/>
  </clipPath>
 </defs>
</svg>
