<?xml version="1.0" encoding="utf-8" standalone="no"?>
<!DOCTYPE svg PUBLIC "-//W3C//DTD SVG 1.1//EN"
  "http://www.w3.org/Graphics/SVG/1.1/DTD/svg11.dtd">
<svg xmlns:xlink="http://www.w3.org/1999/xlink" width="525.372815pt" height="496.01875pt" viewBox="0 0 525.372815 496.01875" xmlns="http://www.w3.org/2000/svg" version="1.1">
 <metadata>
  <rdf:RDF xmlns:dc="http://purl.org/dc/elements/1.1/" xmlns:cc="http://creativecommons.org/ns#" xmlns:rdf="http://www.w3.org/1999/02/22-rdf-syntax-ns#">
   <cc:Work>
    <dc:type rdf:resource="http://purl.org/dc/dcmitype/StillImage"/>
    <dc:date>2025-11-14T20:46:37.284734</dc:date>
    <dc:format>image/svg+xml</dc:format>
    <dc:creator>
     <cc:Agent>
      <dc:title>Matplotlib v3.10.7, https://matplotlib.org/</dc:title>
     </cc:Agent>
    </dc:creator>
   </cc:Work>
  </rdf:RDF>
 </metadata>
 <defs>
  <style type="text/css">*{stroke-linejoin: round; stroke-linecap: butt}</style>
 </defs>
 <g id="figure_1">
  <g id="patch_1">
   <path d="M 0 496.01875 
L 525.372815 496.01875 
L 525.372815 0 
L 0 0 
z
" style="fill: #ffffff"/>
  </g>
  <g id="axes_1">
   <g id="patch_2">
    <path d="M 74.652813 450.72 
L 518.172815 450.72 
L 518.172815 7.2 
L 74.652813 7.2 
z
" style="fill: #ffffff"/>
   </g>
   <g id="matplotlib.axis_1">
    <g id="xtick_1">
     <g id="line2d_1">
      <path d="M 94.81281 450.72 
L 94.81281 7.2 
" clip-path="url(#pfaaac38abb)" style="fill: none; stroke: #b0b0b0; stroke-opacity: 0.3; stroke-width: 0.8; stroke-linecap: square"/>
     </g>
     <g id="line2d_2">
      <defs>
       <path id="m5b93428dec" d="M 0 0 
L 0 3.5 
" style="stroke: #000000; stroke-width: 0.8"/>
      </defs>
      <g>
       <use xlink:href="#m5b93428dec" x="94.81281" y="450.72" style="stroke: #000000; stroke-width: 0.8"/>
      </g>
     </g>
     <g id="text_1">
      <!-- −1.00 -->
      <g transform="translate(73.361091 468.357812) scale(0.14 -0.14)">
       <defs>
        <path id="DejaVuSans-2212" d="M 678 2272 
L 4684 2272 
L 4684 1741 
L 678 1741 
L 678 2272 
z
" transform="scale(0.015625)"/>
        <path id="DejaVuSans-31" d="M 794 531 
L 1825 531 
L 1825 4091 
L 703 3866 
L 703 4441 
L 1819 4666 
L 2450 4666 
L 2450 531 
L 3481 531 
L 3481 0 
L 794 0 
L 794 531 
z
" transform="scale(0.015625)"/>
        <path id="DejaVuSans-2e" d="M 684 794 
L 1344 794 
L 1344 0 
L 684 0 
L 684 794 
z
" transform="scale(0.015625)"/>
        <path id="DejaVuSans-30" d="M 2034 4250 
Q 1547 4250 1301 3770 
Q 1056 3291 1056 2328 
Q 1056 1369 1301 889 
Q 1547 409 2034 409 
Q 2525 409 2770 889 
Q 3016 1369 3016 2328 
Q 3016 3291 2770 3770 
Q 2525 4250 2034 4250 
z
M 2034 4750 
Q 2819 4750 3233 4129 
Q 3647 3509 3647 2328 
Q 3647 1150 3233 529 
Q 2819 -91 2034 -91 
Q 1250 -91 836 529 
Q 422 1150 422 2328 
Q 422 3509 836 4129 
Q 1250 4750 2034 4750 
z
" transform="scale(0.015625)"/>
       </defs>
       <use xlink:href="#DejaVuSans-2212"/>
       <use xlink:href="#DejaVuSans-31" transform="translate(83.789062 0)"/>
       <use xlink:href="#DejaVuSans-2e" transform="translate(147.412109 0)"/>
       <use xlink:href="#DejaVuSans-30" transform="translate(179.199219 0)"/>
       <use xlink:href="#DejaVuSans-30" transform="translate(242.822266 0)"/>
      </g>
     </g>
    </g>
    <g id="xtick_2">
     <g id="line2d_3">
      <path d="M 145.21281 450.72 
L 145.21281 7.2 
" clip-path="url(#pfaaac38abb)" style="fill: none; stroke: #b0b0b0; stroke-opacity: 0.3; stroke-width: 0.8; stroke-linecap: square"/>
     </g>
     <g id="line2d_4">
      <g>
       <use xlink:href="#m5b93428dec" x="145.21281" y="450.72" style="stroke: #000000; stroke-width: 0.8"/>
      </g>
     </g>
     <g id="text_2">
      <!-- −0.75 -->
      <g transform="translate(123.761092 468.357812) scale(0.14 -0.14)">
       <defs>
        <path id="DejaVuSans-37" d="M 525 4666 
L 3525 4666 
L 3525 4397 
L 1831 0 
L 1172 0 
L 2766 4134 
L 525 4134 
L 525 4666 
z
" transform="scale(0.015625)"/>
        <path id="DejaVuSans-35" d="M 691 4666 
L 3169 4666 
L 3169 4134 
L 1269 4134 
L 1269 2991 
Q 1406 3038 1543 3061 
Q 1681 3084 1819 3084 
Q 2600 3084 3056 2656 
Q 3513 2228 3513 1497 
Q 3513 744 3044 326 
Q 2575 -91 1722 -91 
Q 1428 -91 1123 -41 
Q 819 9 494 109 
L 494 744 
Q 775 591 1075 516 
Q 1375 441 1709 441 
Q 2250 441 2565 725 
Q 2881 1009 2881 1497 
Q 2881 1984 2565 2268 
Q 2250 2553 1709 2553 
Q 1456 2553 1204 2497 
Q 953 2441 691 2322 
L 691 4666 
z
" transform="scale(0.015625)"/>
       </defs>
       <use xlink:href="#DejaVuSans-2212"/>
       <use xlink:href="#DejaVuSans-30" transform="translate(83.789062 0)"/>
       <use xlink:href="#DejaVuSans-2e" transform="translate(147.412109 0)"/>
       <use xlink:href="#DejaVuSans-37" transform="translate(179.199219 0)"/>
       <use xlink:href="#DejaVuSans-35" transform="translate(242.822266 0)"/>
      </g>
     </g>
    </g>
    <g id="xtick_3">
     <g id="line2d_5">
      <path d="M 195.612811 450.72 
L 195.612811 7.2 
" clip-path="url(#pfaaac38abb)" style="fill: none; stroke: #b0b0b0; stroke-opacity: 0.3; stroke-width: 0.8; stroke-linecap: square"/>
     </g>
     <g id="line2d_6">
      <g>
       <use xlink:href="#m5b93428dec" x="195.612811" y="450.72" style="stroke: #000000; stroke-width: 0.8"/>
      </g>
     </g>
     <g id="text_3">
      <!-- −0.50 -->
      <g transform="translate(174.161092 468.357812) scale(0.14 -0.14)">
       <use xlink:href="#DejaVuSans-2212"/>
       <use xlink:href="#DejaVuSans-30" transform="translate(83.789062 0)"/>
       <use xlink:href="#DejaVuSans-2e" transform="translate(147.412109 0)"/>
       <use xlink:href="#DejaVuSans-35" transform="translate(179.199219 0)"/>
       <use xlink:href="#DejaVuSans-30" transform="translate(242.822266 0)"/>
      </g>
     </g>
    </g>
    <g id="xtick_4">
     <g id="line2d_7">
      <path d="M 246.012812 450.72 
L 246.012812 7.2 
" clip-path="url(#pfaaac38abb)" style="fill: none; stroke: #b0b0b0; stroke-opacity: 0.3; stroke-width: 0.8; stroke-linecap: square"/>
     </g>
     <g id="line2d_8">
      <g>
       <use xlink:href="#m5b93428dec" x="246.012812" y="450.72" style="stroke: #000000; stroke-width: 0.8"/>
      </g>
     </g>
     <g id="text_4">
      <!-- −0.25 -->
      <g transform="translate(224.561093 468.357812) scale(0.14 -0.14)">
       <defs>
        <path id="DejaVuSans-32" d="M 1228 531 
L 3431 531 
L 3431 0 
L 469 0 
L 469 531 
Q 828 903 1448 1529 
Q 2069 2156 2228 2338 
Q 2531 2678 2651 2914 
Q 2772 3150 2772 3378 
Q 2772 3750 2511 3984 
Q 2250 4219 1831 4219 
Q 1534 4219 1204 4116 
Q 875 4013 500 3803 
L 500 4441 
Q 881 4594 1212 4672 
Q 1544 4750 1819 4750 
Q 2544 4750 2975 4387 
Q 3406 4025 3406 3419 
Q 3406 3131 3298 2873 
Q 3191 2616 2906 2266 
Q 2828 2175 2409 1742 
Q 1991 1309 1228 531 
z
" transform="scale(0.015625)"/>
       </defs>
       <use xlink:href="#DejaVuSans-2212"/>
       <use xlink:href="#DejaVuSans-30" transform="translate(83.789062 0)"/>
       <use xlink:href="#DejaVuSans-2e" transform="translate(147.412109 0)"/>
       <use xlink:href="#DejaVuSans-32" transform="translate(179.199219 0)"/>
       <use xlink:href="#DejaVuSans-35" transform="translate(242.822266 0)"/>
      </g>
     </g>
    </g>
    <g id="xtick_5">
     <g id="line2d_9">
      <path d="M 296.412812 450.72 
L 296.412812 7.2 
" clip-path="url(#pfaaac38abb)" style="fill: none; stroke: #b0b0b0; stroke-opacity: 0.3; stroke-width: 0.8; stroke-linecap: square"/>
     </g>
     <g id="line2d_10">
      <g>
       <use xlink:href="#m5b93428dec" x="296.412812" y="450.72" style="stroke: #000000; stroke-width: 0.8"/>
      </g>
     </g>
     <g id="text_5">
      <!-- 0.00 -->
      <g transform="translate(280.826875 468.357812) scale(0.14 -0.14)">
       <use xlink:href="#DejaVuSans-30"/>
       <use xlink:href="#DejaVuSans-2e" transform="translate(63.623047 0)"/>
       <use xlink:href="#DejaVuSans-30" transform="translate(95.410156 0)"/>
       <use xlink:href="#DejaVuSans-30" transform="translate(159.033203 0)"/>
      </g>
     </g>
    </g>
    <g id="xtick_6">
     <g id="line2d_11">
      <path d="M 346.812813 450.72 
L 346.812813 7.2 
" clip-path="url(#pfaaac38abb)" style="fill: none; stroke: #b0b0b0; stroke-opacity: 0.3; stroke-width: 0.8; stroke-linecap: square"/>
     </g>
     <g id="line2d_12">
      <g>
       <use xlink:href="#m5b93428dec" x="346.812813" y="450.72" style="stroke: #000000; stroke-width: 0.8"/>
      </g>
     </g>
     <g id="text_6">
      <!-- 0.25 -->
      <g transform="translate(331.226875 468.357812) scale(0.14 -0.14)">
       <use xlink:href="#DejaVuSans-30"/>
       <use xlink:href="#DejaVuSans-2e" transform="translate(63.623047 0)"/>
       <use xlink:href="#DejaVuSans-32" transform="translate(95.410156 0)"/>
       <use xlink:href="#DejaVuSans-35" transform="translate(159.033203 0)"/>
      </g>
     </g>
    </g>
    <g id="xtick_7">
     <g id="line2d_13">
      <path d="M 397.212813 450.72 
L 397.212813 7.2 
" clip-path="url(#pfaaac38abb)" style="fill: none; stroke: #b0b0b0; stroke-opacity: 0.3; stroke-width: 0.8; stroke-linecap: square"/>
     </g>
     <g id="line2d_14">
      <g>
       <use xlink:href="#m5b93428dec" x="397.212813" y="450.72" style="stroke: #000000; stroke-width: 0.8"/>
      </g>
     </g>
     <g id="text_7">
      <!-- 0.50 -->
      <g transform="translate(381.626876 468.357812) scale(0.14 -0.14)">
       <use xlink:href="#DejaVuSans-30"/>
       <use xlink:href="#DejaVuSans-2e" transform="translate(63.623047 0)"/>
       <use xlink:href="#DejaVuSans-35" transform="translate(95.410156 0)"/>
       <use xlink:href="#DejaVuSans-30" transform="translate(159.033203 0)"/>
      </g>
     </g>
    </g>
    <g id="xtick_8">
     <g id="line2d_15">
      <path d="M 447.612814 450.72 
L 447.612814 7.2 
" clip-path="url(#pfaaac38abb)" style="fill: none; stroke: #b0b0b0; stroke-opacity: 0.3; stroke-width: 0.8; stroke-linecap: square"/>
     </g>
     <g id="line2d_16">
      <g>
       <use xlink:href="#m5b93428dec" x="447.612814" y="450.72" style="stroke: #000000; stroke-width: 0.8"/>
      </g>
     </g>
     <g id="text_8">
      <!-- 0.75 -->
      <g transform="translate(432.026876 468.357812) scale(0.14 -0.14)">
       <use xlink:href="#DejaVuSans-30"/>
       <use xlink:href="#DejaVuSans-2e" transform="translate(63.623047 0)"/>
       <use xlink:href="#DejaVuSans-37" transform="translate(95.410156 0)"/>
       <use xlink:href="#DejaVuSans-35" transform="translate(159.033203 0)"/>
      </g>
     </g>
    </g>
    <g id="xtick_9">
     <g id="line2d_17">
      <path d="M 498.012814 450.72 
L 498.012814 7.2 
" clip-path="url(#pfaaac38abb)" style="fill: none; stroke: #b0b0b0; stroke-opacity: 0.3; stroke-width: 0.8; stroke-linecap: square"/>
     </g>
     <g id="line2d_18">
      <g>
       <use xlink:href="#m5b93428dec" x="498.012814" y="450.72" style="stroke: #000000; stroke-width: 0.8"/>
      </g>
     </g>
     <g id="text_9">
      <!-- 1.00 -->
      <g transform="translate(482.426877 468.357812) scale(0.14 -0.14)">
       <use xlink:href="#DejaVuSans-31"/>
       <use xlink:href="#DejaVuSans-2e" transform="translate(63.623047 0)"/>
       <use xlink:href="#DejaVuSans-30" transform="translate(95.410156 0)"/>
       <use xlink:href="#DejaVuSans-30" transform="translate(159.033203 0)"/>
      </g>
     </g>
    </g>
    <g id="text_10">
     <!-- x -->
     <g transform="translate(292.269689 485.907187) scale(0.14 -0.14)">
      <defs>
       <path id="DejaVuSans-78" d="M 3513 3500 
L 2247 1797 
L 3578 0 
L 2900 0 
L 1881 1375 
L 863 0 
L 184 0 
L 1544 1831 
L 300 3500 
L 978 3500 
L 1906 2253 
L 2834 3500 
L 3513 3500 
z
" transform="scale(0.015625)"/>
      </defs>
      <use xlink:href="#DejaVuSans-78"/>
     </g>
    </g>
   </g>
   <g id="matplotlib.axis_2">
    <g id="ytick_1">
     <g id="line2d_19">
      <path d="M 74.652813 430.560004 
L 518.172815 430.560004 
" clip-path="url(#pfaaac38abb)" style="fill: none; stroke: #b0b0b0; stroke-opacity: 0.3; stroke-width: 0.8; stroke-linecap: square"/>
     </g>
     <g id="line2d_20">
      <defs>
       <path id="m35ebec8d41" d="M 0 0 
L -3.5 0 
" style="stroke: #000000; stroke-width: 0.8"/>
      </defs>
      <g>
       <use xlink:href="#m35ebec8d41" x="74.652813" y="430.560004" style="stroke: #000000; stroke-width: 0.8"/>
      </g>
     </g>
     <g id="text_11">
      <!-- −1.00 -->
      <g transform="translate(24.749375 435.87891) scale(0.14 -0.14)">
       <use xlink:href="#DejaVuSans-2212"/>
       <use xlink:href="#DejaVuSans-31" transform="translate(83.789062 0)"/>
       <use xlink:href="#DejaVuSans-2e" transform="translate(147.412109 0)"/>
       <use xlink:href="#DejaVuSans-30" transform="translate(179.199219 0)"/>
       <use xlink:href="#DejaVuSans-30" transform="translate(242.822266 0)"/>
      </g>
     </g>
    </g>
    <g id="ytick_2">
     <g id="line2d_21">
      <path d="M 74.652813 380.160003 
L 518.172815 380.160003 
" clip-path="url(#pfaaac38abb)" style="fill: none; stroke: #b0b0b0; stroke-opacity: 0.3; stroke-width: 0.8; stroke-linecap: square"/>
     </g>
     <g id="line2d_22">
      <g>
       <use xlink:href="#m35ebec8d41" x="74.652813" y="380.160003" style="stroke: #000000; stroke-width: 0.8"/>
      </g>
     </g>
     <g id="text_12">
      <!-- −0.75 -->
      <g transform="translate(24.749375 385.47891) scale(0.14 -0.14)">
       <use xlink:href="#DejaVuSans-2212"/>
       <use xlink:href="#DejaVuSans-30" transform="translate(83.789062 0)"/>
       <use xlink:href="#DejaVuSans-2e" transform="translate(147.412109 0)"/>
       <use xlink:href="#DejaVuSans-37" transform="translate(179.199219 0)"/>
       <use xlink:href="#DejaVuSans-35" transform="translate(242.822266 0)"/>
      </g>
     </g>
    </g>
    <g id="ytick_3">
     <g id="line2d_23">
      <path d="M 74.652813 329.760003 
L 518.172815 329.760003 
" clip-path="url(#pfaaac38abb)" style="fill: none; stroke: #b0b0b0; stroke-opacity: 0.3; stroke-width: 0.8; stroke-linecap: square"/>
     </g>
     <g id="line2d_24">
      <g>
       <use xlink:href="#m35ebec8d41" x="74.652813" y="329.760003" style="stroke: #000000; stroke-width: 0.8"/>
      </g>
     </g>
     <g id="text_13">
      <!-- −0.50 -->
      <g transform="translate(24.749375 335.078909) scale(0.14 -0.14)">
       <use xlink:href="#DejaVuSans-2212"/>
       <use xlink:href="#DejaVuSans-30" transform="translate(83.789062 0)"/>
       <use xlink:href="#DejaVuSans-2e" transform="translate(147.412109 0)"/>
       <use xlink:href="#DejaVuSans-35" transform="translate(179.199219 0)"/>
       <use xlink:href="#DejaVuSans-30" transform="translate(242.822266 0)"/>
      </g>
     </g>
    </g>
    <g id="ytick_4">
     <g id="line2d_25">
      <path d="M 74.652813 279.360002 
L 518.172815 279.360002 
" clip-path="url(#pfaaac38abb)" style="fill: none; stroke: #b0b0b0; stroke-opacity: 0.3; stroke-width: 0.8; stroke-linecap: square"/>
     </g>
     <g id="line2d_26">
      <g>
       <use xlink:href="#m35ebec8d41" x="74.652813" y="279.360002" style="stroke: #000000; stroke-width: 0.8"/>
      </g>
     </g>
     <g id="text_14">
      <!-- −0.25 -->
      <g transform="translate(24.749375 284.678908) scale(0.14 -0.14)">
       <use xlink:href="#DejaVuSans-2212"/>
       <use xlink:href="#DejaVuSans-30" transform="translate(83.789062 0)"/>
       <use xlink:href="#DejaVuSans-2e" transform="translate(147.412109 0)"/>
       <use xlink:href="#DejaVuSans-32" transform="translate(179.199219 0)"/>
       <use xlink:href="#DejaVuSans-35" transform="translate(242.822266 0)"/>
      </g>
     </g>
    </g>
    <g id="ytick_5">
     <g id="line2d_27">
      <path d="M 74.652813 228.960002 
L 518.172815 228.960002 
" clip-path="url(#pfaaac38abb)" style="fill: none; stroke: #b0b0b0; stroke-opacity: 0.3; stroke-width: 0.8; stroke-linecap: square"/>
     </g>
     <g id="line2d_28">
      <g>
       <use xlink:href="#m35ebec8d41" x="74.652813" y="228.960002" style="stroke: #000000; stroke-width: 0.8"/>
      </g>
     </g>
     <g id="text_15">
      <!-- 0.00 -->
      <g transform="translate(36.480938 234.278908) scale(0.14 -0.14)">
       <use xlink:href="#DejaVuSans-30"/>
       <use xlink:href="#DejaVuSans-2e" transform="translate(63.623047 0)"/>
       <use xlink:href="#DejaVuSans-30" transform="translate(95.410156 0)"/>
       <use xlink:href="#DejaVuSans-30" transform="translate(159.033203 0)"/>
      </g>
     </g>
    </g>
    <g id="ytick_6">
     <g id="line2d_29">
      <path d="M 74.652813 178.560001 
L 518.172815 178.560001 
" clip-path="url(#pfaaac38abb)" style="fill: none; stroke: #b0b0b0; stroke-opacity: 0.3; stroke-width: 0.8; stroke-linecap: square"/>
     </g>
     <g id="line2d_30">
      <g>
       <use xlink:href="#m35ebec8d41" x="74.652813" y="178.560001" style="stroke: #000000; stroke-width: 0.8"/>
      </g>
     </g>
     <g id="text_16">
      <!-- 0.25 -->
      <g transform="translate(36.480938 183.878907) scale(0.14 -0.14)">
       <use xlink:href="#DejaVuSans-30"/>
       <use xlink:href="#DejaVuSans-2e" transform="translate(63.623047 0)"/>
       <use xlink:href="#DejaVuSans-32" transform="translate(95.410156 0)"/>
       <use xlink:href="#DejaVuSans-35" transform="translate(159.033203 0)"/>
      </g>
     </g>
    </g>
    <g id="ytick_7">
     <g id="line2d_31">
      <path d="M 74.652813 128.16 
L 518.172815 128.16 
" clip-path="url(#pfaaac38abb)" style="fill: none; stroke: #b0b0b0; stroke-opacity: 0.3; stroke-width: 0.8; stroke-linecap: square"/>
     </g>
     <g id="line2d_32">
      <g>
       <use xlink:href="#m35ebec8d41" x="74.652813" y="128.16" style="stroke: #000000; stroke-width: 0.8"/>
      </g>
     </g>
     <g id="text_17">
      <!-- 0.50 -->
      <g transform="translate(36.480938 133.478907) scale(0.14 -0.14)">
       <use xlink:href="#DejaVuSans-30"/>
       <use xlink:href="#DejaVuSans-2e" transform="translate(63.623047 0)"/>
       <use xlink:href="#DejaVuSans-35" transform="translate(95.410156 0)"/>
       <use xlink:href="#DejaVuSans-30" transform="translate(159.033203 0)"/>
      </g>
     </g>
    </g>
    <g id="ytick_8">
     <g id="line2d_33">
      <path d="M 74.652813 77.76 
L 518.172815 77.76 
" clip-path="url(#pfaaac38abb)" style="fill: none; stroke: #b0b0b0; stroke-opacity: 0.3; stroke-width: 0.8; stroke-linecap: square"/>
     </g>
     <g id="line2d_34">
      <g>
       <use xlink:href="#m35ebec8d41" x="74.652813" y="77.76" style="stroke: #000000; stroke-width: 0.8"/>
      </g>
     </g>
     <g id="text_18">
      <!-- 0.75 -->
      <g transform="translate(36.480938 83.078906) scale(0.14 -0.14)">
       <use xlink:href="#DejaVuSans-30"/>
       <use xlink:href="#DejaVuSans-2e" transform="translate(63.623047 0)"/>
       <use xlink:href="#DejaVuSans-37" transform="translate(95.410156 0)"/>
       <use xlink:href="#DejaVuSans-35" transform="translate(159.033203 0)"/>
      </g>
     </g>
    </g>
    <g id="ytick_9">
     <g id="line2d_35">
      <path d="M 74.652813 27.359999 
L 518.172815 27.359999 
" clip-path="url(#pfaaac38abb)" style="fill: none; stroke: #b0b0b0; stroke-opacity: 0.3; stroke-width: 0.8; stroke-linecap: square"/>
     </g>
     <g id="line2d_36">
      <g>
       <use xlink:href="#m35ebec8d41" x="74.652813" y="27.359999" style="stroke: #000000; stroke-width: 0.8"/>
      </g>
     </g>
     <g id="text_19">
      <!-- 1.00 -->
      <g transform="translate(36.480938 32.678906) scale(0.14 -0.14)">
       <use xlink:href="#DejaVuSans-31"/>
       <use xlink:href="#DejaVuSans-2e" transform="translate(63.623047 0)"/>
       <use xlink:href="#DejaVuSans-30" transform="translate(95.410156 0)"/>
       <use xlink:href="#DejaVuSans-30" transform="translate(159.033203 0)"/>
      </g>
     </g>
    </g>
    <g id="text_20">
     <!-- y -->
     <g transform="translate(17.837813 233.103125) rotate(-90) scale(0.14 -0.14)">
      <defs>
       <path id="DejaVuSans-79" d="M 2059 -325 
Q 1816 -950 1584 -1140 
Q 1353 -1331 966 -1331 
L 506 -1331 
L 506 -850 
L 844 -850 
Q 1081 -850 1212 -737 
Q 1344 -625 1503 -206 
L 1606 56 
L 191 3500 
L 800 3500 
L 1894 763 
L 2988 3500 
L 3597 3500 
L 2059 -325 
z
" transform="scale(0.015625)"/>
      </defs>
      <use xlink:href="#DejaVuSans-79"/>
     </g>
    </g>
   </g>
   <g id="line2d_37">
    <path d="M 498.012814 228.960002 
L 497.903031 235.612259 
L 497.573801 242.257272 
L 497.025483 248.887802 
L 496.258674 255.496629 
L 495.274208 262.076553 
L 494.073159 268.620411 
L 492.656835 275.121073 
L 491.026777 281.57146 
L 489.184762 287.964547 
L 487.132795 294.293371 
L 484.873111 300.55104 
L 482.408171 306.730737 
L 479.740661 312.825732 
L 476.873484 318.829388 
L 473.809765 324.735166 
L 470.552839 330.536633 
L 467.106254 336.22747 
L 463.473763 341.801481 
L 459.659323 347.252594 
L 455.667089 352.574872 
L 451.501407 357.762519 
L 447.166816 362.809885 
L 442.668035 367.711473 
L 438.009965 372.461943 
L 433.197679 377.056123 
L 428.236418 381.489008 
L 423.131585 385.755771 
L 417.888741 389.851765 
L 412.513595 393.772529 
L 407.012001 397.513792 
L 401.389952 401.07148 
L 395.65357 404.441718 
L 389.809103 407.620836 
L 383.862916 410.605371 
L 377.821486 413.392072 
L 371.691392 415.977905 
L 365.479311 418.360054 
L 359.192008 420.535923 
L 352.836331 422.503143 
L 346.419202 424.259571 
L 339.94761 425.803295 
L 333.428604 427.132633 
L 326.869283 428.246138 
L 320.276791 429.142597 
L 313.658309 429.821033 
L 307.021044 430.280707 
L 300.372226 430.521119 
L 293.719095 430.542007 
L 287.068898 430.343348 
L 280.428878 429.925359 
L 273.806266 429.288494 
L 267.208275 428.433448 
L 260.642092 427.361152 
L 254.114867 426.072773 
L 247.63371 424.569715 
L 241.205679 422.853615 
L 234.837775 420.926342 
L 228.536933 418.789994 
L 222.310017 416.446899 
L 216.163807 413.899608 
L 210.104998 411.150896 
L 204.140188 408.203757 
L 198.275875 405.0614 
L 192.518444 401.727247 
L 186.874166 398.20493 
L 181.349189 394.498286 
L 175.94953 390.61135 
L 170.68107 386.548358 
L 165.549547 382.313732 
L 160.560549 377.912086 
L 155.719511 373.348214 
L 151.031704 368.627086 
L 146.502235 363.753843 
L 142.136036 358.733794 
L 137.937863 353.572406 
L 133.912288 348.2753 
L 130.063695 342.848246 
L 126.396277 337.297154 
L 122.914026 331.628069 
L 119.620737 325.847167 
L 116.519995 319.960744 
L 113.615177 313.97521 
L 110.909448 307.897084 
L 108.405755 301.732986 
L 106.106823 295.48963 
L 104.015157 289.173815 
L 102.133035 282.79242 
L 100.462507 276.352395 
L 99.005392 269.860754 
L 97.763278 263.324567 
L 96.737516 256.750954 
L 95.929225 250.147072 
L 95.339284 243.520116 
L 94.968335 236.877301 
L 94.816784 230.225864 
L 94.884795 223.573049 
L 95.172294 216.9261 
L 95.678968 210.292257 
L 96.404265 203.678746 
L 97.347395 197.092769 
L 98.50733 190.5415 
L 99.882809 184.032073 
L 101.472332 177.571577 
L 103.274169 171.16705 
L 105.286356 164.825466 
L 107.506703 158.553732 
L 109.932791 152.358679 
L 112.561978 146.247054 
L 115.3914 140.225514 
L 118.417976 134.300615 
L 121.63841 128.478812 
L 125.049194 122.766445 
L 128.646613 117.169736 
L 132.42675 111.694779 
L 136.385487 106.347538 
L 140.518513 101.133837 
L 144.821326 96.059353 
L 149.289241 91.129615 
L 153.91739 86.34999 
L 158.700734 81.725684 
L 163.634063 77.261733 
L 168.712003 72.963 
L 173.929025 68.834167 
L 179.279447 64.87973 
L 184.75744 61.103995 
L 190.35704 57.511076 
L 196.072147 54.104885 
L 201.896536 50.889132 
L 207.823866 47.867319 
L 213.847679 45.042738 
L 219.961416 42.418465 
L 226.158417 39.997358 
L 232.431933 37.782053 
L 238.775133 35.774964 
L 245.181106 33.978276 
L 251.642877 32.393947 
L 258.153408 31.023701 
L 264.705608 29.869032 
L 271.292341 28.931197 
L 277.906432 28.211216 
L 284.54068 27.709875 
L 291.187858 27.427719 
L 297.840726 27.365056 
L 304.492039 27.521954 
L 311.134553 27.898242 
L 317.761034 28.49351 
L 324.364263 29.30711 
L 330.93705 30.338155 
L 337.472236 31.585523 
L 343.962704 33.047856 
L 350.401383 34.72356 
L 356.781263 36.610811 
L 363.095395 38.707553 
L 369.336901 41.011503 
L 375.498984 43.520151 
L 381.574933 46.230765 
L 387.558131 49.140393 
L 393.44206 52.245865 
L 399.220313 55.543801 
L 404.886596 59.030607 
L 410.434738 62.702487 
L 415.858697 66.555441 
L 421.152565 70.585272 
L 426.310577 74.787593 
L 431.327115 79.157826 
L 436.196715 83.691211 
L 440.914073 88.382811 
L 445.474053 93.227517 
L 449.871687 98.220051 
L 454.102186 103.354977 
L 458.160942 108.626701 
L 462.043536 114.029483 
L 465.745738 119.557438 
L 469.263517 125.204545 
L 472.59304 130.964654 
L 475.730682 136.831492 
L 478.673026 142.798668 
L 481.416867 148.859685 
L 483.959216 155.00794 
L 486.297305 161.236738 
L 488.428587 167.539295 
L 490.350741 173.908746 
L 492.061673 180.338155 
L 493.559521 186.820518 
L 494.842652 193.348777 
L 495.90967 199.91582 
L 496.759412 206.514496 
L 497.390953 213.137617 
L 497.803604 219.777972 
L 497.996918 226.428326 
L 497.970682 233.081438 
L 497.724925 239.730061 
L 497.259916 246.366954 
L 496.57616 252.984889 
L 495.674402 259.576658 
L 494.555625 266.135081 
L 493.221047 272.653017 
L 491.672121 279.123366 
L 489.910535 285.539081 
L 487.938207 291.893174 
L 485.757284 298.178726 
L 483.370143 304.38889 
L 480.779383 310.516904 
L 477.987827 316.556092 
L 474.998513 322.499878 
L 471.814698 328.341787 
L 468.43985 334.075458 
L 464.877643 339.694646 
L 461.131959 345.19323 
L 457.206876 350.565223 
L 453.106669 355.804773 
L 448.835804 360.906175 
L 444.398932 365.863871 
L 439.800885 370.672462 
L 435.046672 375.326712 
L 430.14147 379.821551 
L 425.090621 384.152084 
L 419.899628 388.313594 
L 414.574142 392.301549 
L 409.119964 396.111606 
L 403.543035 399.739614 
L 397.849429 403.181624 
L 392.045346 406.433885 
L 386.137107 409.492856 
L 380.131149 412.355206 
L 374.034011 415.017816 
L 367.852334 417.477787 
L 361.592852 419.73244 
L 355.26238 421.779319 
L 348.867814 423.616195 
L 342.416119 425.241067 
L 335.91432 426.652166 
L 329.3695 427.847954 
L 322.788786 428.82713 
L 316.179345 429.588626 
L 309.548376 430.131614 
L 302.903101 430.455503 
L 296.250757 430.559939 
L 289.59859 430.444808 
L 282.953844 430.110237 
L 276.323757 429.556589 
L 269.715549 428.784467 
L 263.136417 427.794713 
L 256.593528 426.588404 
L 250.094006 425.166855 
L 243.644931 423.531612 
L 237.253327 421.684458 
L 230.926154 419.627404 
L 224.670305 417.362691 
L 218.492591 414.892785 
L 212.399741 412.220376 
L 206.398392 409.348375 
L 200.495079 406.279909 
L 194.696233 403.01832 
L 189.008167 399.567162 
L 183.437078 395.930192 
L 177.989033 392.111372 
L 172.669966 388.11486 
L 167.485669 383.945009 
L 162.441789 379.606362 
L 157.54382 375.103643 
L 152.797095 370.441756 
L 148.206785 365.625778 
L 143.777889 360.660956 
L 139.515231 355.552695 
L 135.423453 350.30656 
L 131.507011 344.928263 
L 127.770172 339.423664 
L 124.217004 333.798757 
L 120.851378 328.059668 
L 117.676959 322.212647 
L 114.697205 316.264063 
L 111.915361 310.220395 
L 109.334457 304.088224 
L 106.957303 297.87423 
L 104.786488 291.58518 
L 102.824378 285.227924 
L 101.073108 278.809385 
L 99.534587 272.336554 
L 98.210489 265.816482 
L 97.102257 259.256268 
L 96.211099 252.663058 
L 95.537983 246.044032 
L 95.083644 239.4064 
L 94.848577 232.75739 
L 94.833037 226.104245 
L 95.037042 219.45421 
L 95.460369 212.814528 
L 96.102556 206.19243 
L 96.962906 199.595129 
L 98.04048 193.02981 
L 99.334105 186.503622 
L 100.842372 180.023675 
L 102.563639 173.597026 
L 104.496031 167.230673 
L 106.637443 160.931551 
L 108.985542 154.70652 
L 111.537773 148.56236 
L 114.291354 142.505762 
L 117.243288 136.543324 
L 120.390358 130.681538 
L 123.729137 124.926789 
L 127.25599 119.285345 
L 127.25599 119.285345 
" clip-path="url(#pfaaac38abb)" style="fill: none; stroke: #008000; stroke-width: 1.5; stroke-linecap: square"/>
   </g>
   <g id="patch_3">
    <path d="M 74.652813 450.72 
L 74.652813 7.2 
" style="fill: none; stroke: #000000; stroke-width: 0.8; stroke-linejoin: miter; stroke-linecap: square"/>
   </g>
   <g id="patch_4">
    <path d="M 518.172815 450.72 
L 518.172815 7.2 
" style="fill: none; stroke: #000000; stroke-width: 0.8; stroke-linejoin: miter; stroke-linecap: square"/>
   </g>
   <g id="patch_5">
    <path d="M 74.652812 450.72 
L 518.172815 450.72 
" style="fill: none; stroke: #000000; stroke-width: 0.8; stroke-linejoin: miter; stroke-linecap: square"/>
   </g>
   <g id="patch_6">
    <path d="M 74.652812 7.2 
L 518.172815 7.2 
" style="fill: none; stroke: #000000; stroke-width: 0.8; stroke-linejoin: miter; stroke-linecap: square"/>
   </g>
  </g>
 </g>
 <defs>
  <clipPath id="pfaaac38abb">
   <rect x="74.652813" y="7.2" width="443.520002" height="443.52"/>
  </clipPath>
 </defs>
</svg>
