<?xml version="1.0" encoding="utf-8" standalone="no"?>
<!DOCTYPE svg PUBLIC "-//W3C//DTD SVG 1.1//EN"
  "http://www.w3.org/Graphics/SVG/1.1/DTD/svg11.dtd">
<svg xmlns:xlink="http://www.w3.org/1999/xlink" width="512.123437pt" height="381.195469pt" viewBox="0 0 512.123437 381.195469" xmlns="http://www.w3.org/2000/svg" version="1.1">
 <metadata>
  <rdf:RDF xmlns:dc="http://purl.org/dc/elements/1.1/" xmlns:cc="http://creativecommons.org/ns#" xmlns:rdf="http://www.w3.org/1999/02/22-rdf-syntax-ns#">
   <cc:Work>
    <dc:type rdf:resource="http://purl.org/dc/dcmitype/StillImage"/>
    <dc:date>2025-11-06T21:23:33.856600</dc:date>
    <dc:format>image/svg+xml</dc:format>
    <dc:creator>
     <cc:Agent>
      <dc:title>Matplotlib v3.10.7, https://matplotlib.org/</dc:title>
     </cc:Agent>
    </dc:creator>
   </cc:Work>
  </rdf:RDF>
 </metadata>
 <defs>
  <style type="text/css">*{stroke-linejoin: round; stroke-linecap: butt}</style>
 </defs>
 <g id="figure_1">
  <g id="patch_1">
   <path d="M 0 381.195469 
L 512.123437 381.195469 
L 512.123437 0 
L 0 0 
z
" style="fill: #ffffff"/>
  </g>
  <g id="axes_1">
   <g id="patch_2">
    <path d="M 52.160938 343.639219 
L 498.560937 343.639219 
L 498.560937 10.999219 
L 52.160938 10.999219 
z
" style="fill: #ffffff"/>
   </g>
   <g id="matplotlib.axis_1">
    <g id="xtick_1">
     <g id="line2d_1">
      <path d="M 52.160938 343.639219 
L 52.160938 10.999219 
" clip-path="url(#p2e5e29138b)" style="fill: none; stroke: #b0b0b0; stroke-opacity: 0.3; stroke-width: 0.8; stroke-linecap: square"/>
     </g>
     <g id="line2d_2">
      <defs>
       <path id="mb2c1899a19" d="M 0 0 
L 0 3.5 
" style="stroke: #000000; stroke-width: 0.8"/>
      </defs>
      <g>
       <use xlink:href="#mb2c1899a19" x="52.160938" y="343.639219" style="stroke: #000000; stroke-width: 0.8"/>
      </g>
     </g>
     <g id="text_1">
      <!-- 0 -->
      <g transform="translate(48.979688 358.237656) scale(0.1 -0.1)">
       <defs>
        <path id="DejaVuSans-30" d="M 2034 4250 
Q 1547 4250 1301 3770 
Q 1056 3291 1056 2328 
Q 1056 1369 1301 889 
Q 1547 409 2034 409 
Q 2525 409 2770 889 
Q 3016 1369 3016 2328 
Q 3016 3291 2770 3770 
Q 2525 4250 2034 4250 
z
M 2034 4750 
Q 2819 4750 3233 4129 
Q 3647 3509 3647 2328 
Q 3647 1150 3233 529 
Q 2819 -91 2034 -91 
Q 1250 -91 836 529 
Q 422 1150 422 2328 
Q 422 3509 836 4129 
Q 1250 4750 2034 4750 
z
" transform="scale(0.015625)"/>
       </defs>
       <use xlink:href="#DejaVuSans-30"/>
      </g>
     </g>
    </g>
    <g id="xtick_2">
     <g id="line2d_3">
      <path d="M 141.440938 343.639219 
L 141.440938 10.999219 
" clip-path="url(#p2e5e29138b)" style="fill: none; stroke: #b0b0b0; stroke-opacity: 0.3; stroke-width: 0.8; stroke-linecap: square"/>
     </g>
     <g id="line2d_4">
      <g>
       <use xlink:href="#mb2c1899a19" x="141.440938" y="343.639219" style="stroke: #000000; stroke-width: 0.8"/>
      </g>
     </g>
     <g id="text_2">
      <!-- 2 -->
      <g transform="translate(138.259688 358.237656) scale(0.1 -0.1)">
       <defs>
        <path id="DejaVuSans-32" d="M 1228 531 
L 3431 531 
L 3431 0 
L 469 0 
L 469 531 
Q 828 903 1448 1529 
Q 2069 2156 2228 2338 
Q 2531 2678 2651 2914 
Q 2772 3150 2772 3378 
Q 2772 3750 2511 3984 
Q 2250 4219 1831 4219 
Q 1534 4219 1204 4116 
Q 875 4013 500 3803 
L 500 4441 
Q 881 4594 1212 4672 
Q 1544 4750 1819 4750 
Q 2544 4750 2975 4387 
Q 3406 4025 3406 3419 
Q 3406 3131 3298 2873 
Q 3191 2616 2906 2266 
Q 2828 2175 2409 1742 
Q 1991 1309 1228 531 
z
" transform="scale(0.015625)"/>
       </defs>
       <use xlink:href="#DejaVuSans-32"/>
      </g>
     </g>
    </g>
    <g id="xtick_3">
     <g id="line2d_5">
      <path d="M 230.720937 343.639219 
L 230.720937 10.999219 
" clip-path="url(#p2e5e29138b)" style="fill: none; stroke: #b0b0b0; stroke-opacity: 0.3; stroke-width: 0.8; stroke-linecap: square"/>
     </g>
     <g id="line2d_6">
      <g>
       <use xlink:href="#mb2c1899a19" x="230.720937" y="343.639219" style="stroke: #000000; stroke-width: 0.8"/>
      </g>
     </g>
     <g id="text_3">
      <!-- 4 -->
      <g transform="translate(227.539687 358.237656) scale(0.1 -0.1)">
       <defs>
        <path id="DejaVuSans-34" d="M 2419 4116 
L 825 1625 
L 2419 1625 
L 2419 4116 
z
M 2253 4666 
L 3047 4666 
L 3047 1625 
L 3713 1625 
L 3713 1100 
L 3047 1100 
L 3047 0 
L 2419 0 
L 2419 1100 
L 313 1100 
L 313 1709 
L 2253 4666 
z
" transform="scale(0.015625)"/>
       </defs>
       <use xlink:href="#DejaVuSans-34"/>
      </g>
     </g>
    </g>
    <g id="xtick_4">
     <g id="line2d_7">
      <path d="M 320.000938 343.639219 
L 320.000938 10.999219 
" clip-path="url(#p2e5e29138b)" style="fill: none; stroke: #b0b0b0; stroke-opacity: 0.3; stroke-width: 0.8; stroke-linecap: square"/>
     </g>
     <g id="line2d_8">
      <g>
       <use xlink:href="#mb2c1899a19" x="320.000938" y="343.639219" style="stroke: #000000; stroke-width: 0.8"/>
      </g>
     </g>
     <g id="text_4">
      <!-- 6 -->
      <g transform="translate(316.819688 358.237656) scale(0.1 -0.1)">
       <defs>
        <path id="DejaVuSans-36" d="M 2113 2584 
Q 1688 2584 1439 2293 
Q 1191 2003 1191 1497 
Q 1191 994 1439 701 
Q 1688 409 2113 409 
Q 2538 409 2786 701 
Q 3034 994 3034 1497 
Q 3034 2003 2786 2293 
Q 2538 2584 2113 2584 
z
M 3366 4563 
L 3366 3988 
Q 3128 4100 2886 4159 
Q 2644 4219 2406 4219 
Q 1781 4219 1451 3797 
Q 1122 3375 1075 2522 
Q 1259 2794 1537 2939 
Q 1816 3084 2150 3084 
Q 2853 3084 3261 2657 
Q 3669 2231 3669 1497 
Q 3669 778 3244 343 
Q 2819 -91 2113 -91 
Q 1303 -91 875 529 
Q 447 1150 447 2328 
Q 447 3434 972 4092 
Q 1497 4750 2381 4750 
Q 2619 4750 2861 4703 
Q 3103 4656 3366 4563 
z
" transform="scale(0.015625)"/>
       </defs>
       <use xlink:href="#DejaVuSans-36"/>
      </g>
     </g>
    </g>
    <g id="xtick_5">
     <g id="line2d_9">
      <path d="M 409.280937 343.639219 
L 409.280937 10.999219 
" clip-path="url(#p2e5e29138b)" style="fill: none; stroke: #b0b0b0; stroke-opacity: 0.3; stroke-width: 0.8; stroke-linecap: square"/>
     </g>
     <g id="line2d_10">
      <g>
       <use xlink:href="#mb2c1899a19" x="409.280937" y="343.639219" style="stroke: #000000; stroke-width: 0.8"/>
      </g>
     </g>
     <g id="text_5">
      <!-- 8 -->
      <g transform="translate(406.099688 358.237656) scale(0.1 -0.1)">
       <defs>
        <path id="DejaVuSans-38" d="M 2034 2216 
Q 1584 2216 1326 1975 
Q 1069 1734 1069 1313 
Q 1069 891 1326 650 
Q 1584 409 2034 409 
Q 2484 409 2743 651 
Q 3003 894 3003 1313 
Q 3003 1734 2745 1975 
Q 2488 2216 2034 2216 
z
M 1403 2484 
Q 997 2584 770 2862 
Q 544 3141 544 3541 
Q 544 4100 942 4425 
Q 1341 4750 2034 4750 
Q 2731 4750 3128 4425 
Q 3525 4100 3525 3541 
Q 3525 3141 3298 2862 
Q 3072 2584 2669 2484 
Q 3125 2378 3379 2068 
Q 3634 1759 3634 1313 
Q 3634 634 3220 271 
Q 2806 -91 2034 -91 
Q 1263 -91 848 271 
Q 434 634 434 1313 
Q 434 1759 690 2068 
Q 947 2378 1403 2484 
z
M 1172 3481 
Q 1172 3119 1398 2916 
Q 1625 2713 2034 2713 
Q 2441 2713 2670 2916 
Q 2900 3119 2900 3481 
Q 2900 3844 2670 4047 
Q 2441 4250 2034 4250 
Q 1625 4250 1398 4047 
Q 1172 3844 1172 3481 
z
" transform="scale(0.015625)"/>
       </defs>
       <use xlink:href="#DejaVuSans-38"/>
      </g>
     </g>
    </g>
    <g id="xtick_6">
     <g id="line2d_11">
      <path d="M 498.560937 343.639219 
L 498.560937 10.999219 
" clip-path="url(#p2e5e29138b)" style="fill: none; stroke: #b0b0b0; stroke-opacity: 0.3; stroke-width: 0.8; stroke-linecap: square"/>
     </g>
     <g id="line2d_12">
      <g>
       <use xlink:href="#mb2c1899a19" x="498.560937" y="343.639219" style="stroke: #000000; stroke-width: 0.8"/>
      </g>
     </g>
     <g id="text_6">
      <!-- 10 -->
      <g transform="translate(492.198437 358.237656) scale(0.1 -0.1)">
       <defs>
        <path id="DejaVuSans-31" d="M 794 531 
L 1825 531 
L 1825 4091 
L 703 3866 
L 703 4441 
L 1819 4666 
L 2450 4666 
L 2450 531 
L 3481 531 
L 3481 0 
L 794 0 
L 794 531 
z
" transform="scale(0.015625)"/>
       </defs>
       <use xlink:href="#DejaVuSans-31"/>
       <use xlink:href="#DejaVuSans-30" transform="translate(63.623047 0)"/>
      </g>
     </g>
    </g>
    <g id="text_7">
     <!-- t -->
     <g transform="translate(273.400781 371.915781) scale(0.1 -0.1)">
      <defs>
       <path id="DejaVuSans-74" d="M 1172 4494 
L 1172 3500 
L 2356 3500 
L 2356 3053 
L 1172 3053 
L 1172 1153 
Q 1172 725 1289 603 
Q 1406 481 1766 481 
L 2356 481 
L 2356 0 
L 1766 0 
Q 1100 0 847 248 
Q 594 497 594 1153 
L 594 3053 
L 172 3053 
L 172 3500 
L 594 3500 
L 594 4494 
L 1172 4494 
z
" transform="scale(0.015625)"/>
      </defs>
      <use xlink:href="#DejaVuSans-74"/>
     </g>
    </g>
   </g>
   <g id="matplotlib.axis_2">
    <g id="ytick_1">
     <g id="line2d_13">
      <path d="M 52.160938 343.639219 
L 498.560937 343.639219 
" clip-path="url(#p2e5e29138b)" style="fill: none; stroke: #b0b0b0; stroke-opacity: 0.3; stroke-width: 0.8; stroke-linecap: square"/>
     </g>
     <g id="line2d_14">
      <defs>
       <path id="m248fd70adc" d="M 0 0 
L -3.5 0 
" style="stroke: #000000; stroke-width: 0.8"/>
      </defs>
      <g>
       <use xlink:href="#m248fd70adc" x="52.160938" y="343.639219" style="stroke: #000000; stroke-width: 0.8"/>
      </g>
     </g>
     <g id="text_8">
      <!-- −1.5 -->
      <g transform="translate(20.878125 347.438438) scale(0.1 -0.1)">
       <defs>
        <path id="DejaVuSans-2212" d="M 678 2272 
L 4684 2272 
L 4684 1741 
L 678 1741 
L 678 2272 
z
" transform="scale(0.015625)"/>
        <path id="DejaVuSans-2e" d="M 684 794 
L 1344 794 
L 1344 0 
L 684 0 
L 684 794 
z
" transform="scale(0.015625)"/>
        <path id="DejaVuSans-35" d="M 691 4666 
L 3169 4666 
L 3169 4134 
L 1269 4134 
L 1269 2991 
Q 1406 3038 1543 3061 
Q 1681 3084 1819 3084 
Q 2600 3084 3056 2656 
Q 3513 2228 3513 1497 
Q 3513 744 3044 326 
Q 2575 -91 1722 -91 
Q 1428 -91 1123 -41 
Q 819 9 494 109 
L 494 744 
Q 775 591 1075 516 
Q 1375 441 1709 441 
Q 2250 441 2565 725 
Q 2881 1009 2881 1497 
Q 2881 1984 2565 2268 
Q 2250 2553 1709 2553 
Q 1456 2553 1204 2497 
Q 953 2441 691 2322 
L 691 4666 
z
" transform="scale(0.015625)"/>
       </defs>
       <use xlink:href="#DejaVuSans-2212"/>
       <use xlink:href="#DejaVuSans-31" transform="translate(83.789062 0)"/>
       <use xlink:href="#DejaVuSans-2e" transform="translate(147.412109 0)"/>
       <use xlink:href="#DejaVuSans-35" transform="translate(179.199219 0)"/>
      </g>
     </g>
    </g>
    <g id="ytick_2">
     <g id="line2d_15">
      <path d="M 52.160938 288.199219 
L 498.560937 288.199219 
" clip-path="url(#p2e5e29138b)" style="fill: none; stroke: #b0b0b0; stroke-opacity: 0.3; stroke-width: 0.8; stroke-linecap: square"/>
     </g>
     <g id="line2d_16">
      <g>
       <use xlink:href="#m248fd70adc" x="52.160938" y="288.199219" style="stroke: #000000; stroke-width: 0.8"/>
      </g>
     </g>
     <g id="text_9">
      <!-- −1.0 -->
      <g transform="translate(20.878125 291.998438) scale(0.1 -0.1)">
       <use xlink:href="#DejaVuSans-2212"/>
       <use xlink:href="#DejaVuSans-31" transform="translate(83.789062 0)"/>
       <use xlink:href="#DejaVuSans-2e" transform="translate(147.412109 0)"/>
       <use xlink:href="#DejaVuSans-30" transform="translate(179.199219 0)"/>
      </g>
     </g>
    </g>
    <g id="ytick_3">
     <g id="line2d_17">
      <path d="M 52.160938 232.759219 
L 498.560937 232.759219 
" clip-path="url(#p2e5e29138b)" style="fill: none; stroke: #b0b0b0; stroke-opacity: 0.3; stroke-width: 0.8; stroke-linecap: square"/>
     </g>
     <g id="line2d_18">
      <g>
       <use xlink:href="#m248fd70adc" x="52.160938" y="232.759219" style="stroke: #000000; stroke-width: 0.8"/>
      </g>
     </g>
     <g id="text_10">
      <!-- −0.5 -->
      <g transform="translate(20.878125 236.558438) scale(0.1 -0.1)">
       <use xlink:href="#DejaVuSans-2212"/>
       <use xlink:href="#DejaVuSans-30" transform="translate(83.789062 0)"/>
       <use xlink:href="#DejaVuSans-2e" transform="translate(147.412109 0)"/>
       <use xlink:href="#DejaVuSans-35" transform="translate(179.199219 0)"/>
      </g>
     </g>
    </g>
    <g id="ytick_4">
     <g id="line2d_19">
      <path d="M 52.160938 177.319219 
L 498.560937 177.319219 
" clip-path="url(#p2e5e29138b)" style="fill: none; stroke: #b0b0b0; stroke-opacity: 0.3; stroke-width: 0.8; stroke-linecap: square"/>
     </g>
     <g id="line2d_20">
      <g>
       <use xlink:href="#m248fd70adc" x="52.160938" y="177.319219" style="stroke: #000000; stroke-width: 0.8"/>
      </g>
     </g>
     <g id="text_11">
      <!-- 0.0 -->
      <g transform="translate(29.257812 181.118438) scale(0.1 -0.1)">
       <use xlink:href="#DejaVuSans-30"/>
       <use xlink:href="#DejaVuSans-2e" transform="translate(63.623047 0)"/>
       <use xlink:href="#DejaVuSans-30" transform="translate(95.410156 0)"/>
      </g>
     </g>
    </g>
    <g id="ytick_5">
     <g id="line2d_21">
      <path d="M 52.160938 121.879219 
L 498.560937 121.879219 
" clip-path="url(#p2e5e29138b)" style="fill: none; stroke: #b0b0b0; stroke-opacity: 0.3; stroke-width: 0.8; stroke-linecap: square"/>
     </g>
     <g id="line2d_22">
      <g>
       <use xlink:href="#m248fd70adc" x="52.160938" y="121.879219" style="stroke: #000000; stroke-width: 0.8"/>
      </g>
     </g>
     <g id="text_12">
      <!-- 0.5 -->
      <g transform="translate(29.257812 125.678438) scale(0.1 -0.1)">
       <use xlink:href="#DejaVuSans-30"/>
       <use xlink:href="#DejaVuSans-2e" transform="translate(63.623047 0)"/>
       <use xlink:href="#DejaVuSans-35" transform="translate(95.410156 0)"/>
      </g>
     </g>
    </g>
    <g id="ytick_6">
     <g id="line2d_23">
      <path d="M 52.160938 66.439219 
L 498.560937 66.439219 
" clip-path="url(#p2e5e29138b)" style="fill: none; stroke: #b0b0b0; stroke-opacity: 0.3; stroke-width: 0.8; stroke-linecap: square"/>
     </g>
     <g id="line2d_24">
      <g>
       <use xlink:href="#m248fd70adc" x="52.160938" y="66.439219" style="stroke: #000000; stroke-width: 0.8"/>
      </g>
     </g>
     <g id="text_13">
      <!-- 1.0 -->
      <g transform="translate(29.257812 70.238438) scale(0.1 -0.1)">
       <use xlink:href="#DejaVuSans-31"/>
       <use xlink:href="#DejaVuSans-2e" transform="translate(63.623047 0)"/>
       <use xlink:href="#DejaVuSans-30" transform="translate(95.410156 0)"/>
      </g>
     </g>
    </g>
    <g id="ytick_7">
     <g id="line2d_25">
      <path d="M 52.160938 10.999219 
L 498.560937 10.999219 
" clip-path="url(#p2e5e29138b)" style="fill: none; stroke: #b0b0b0; stroke-opacity: 0.3; stroke-width: 0.8; stroke-linecap: square"/>
     </g>
     <g id="line2d_26">
      <g>
       <use xlink:href="#m248fd70adc" x="52.160938" y="10.999219" style="stroke: #000000; stroke-width: 0.8"/>
      </g>
     </g>
     <g id="text_14">
      <!-- 1.5 -->
      <g transform="translate(29.257812 14.798438) scale(0.1 -0.1)">
       <use xlink:href="#DejaVuSans-31"/>
       <use xlink:href="#DejaVuSans-2e" transform="translate(63.623047 0)"/>
       <use xlink:href="#DejaVuSans-35" transform="translate(95.410156 0)"/>
      </g>
     </g>
    </g>
    <g id="text_15">
     <!-- значение -->
     <g transform="translate(14.798437 201.935625) rotate(-90) scale(0.1 -0.1)">
      <defs>
       <path id="DejaVuSans-437" d="M 2206 1888 
Q 2594 1813 2809 1584 
Q 3025 1356 3025 1019 
Q 3025 478 2622 193 
Q 2219 -91 1475 -91 
Q 1225 -91 961 -47 
Q 697 -3 416 84 
L 416 619 
Q 638 503 903 445 
Q 1169 388 1459 388 
Q 1931 388 2195 563 
Q 2459 738 2459 1019 
Q 2459 1294 2225 1461 
Q 1991 1628 1563 1628 
L 1100 1628 
L 1100 2103 
L 1584 2103 
Q 1947 2103 2158 2242 
Q 2369 2381 2369 2600 
Q 2369 2800 2151 2944 
Q 1934 3088 1563 3088 
Q 1341 3088 1089 3047 
Q 838 3006 534 2916 
L 534 3438 
Q 841 3513 1106 3550 
Q 1372 3588 1609 3588 
Q 2222 3588 2576 3342 
Q 2931 3097 2931 2656 
Q 2931 2366 2743 2164 
Q 2556 1963 2206 1888 
z
" transform="scale(0.015625)"/>
       <path id="DejaVuSans-43d" d="M 581 3500 
L 1159 3500 
L 1159 2072 
L 3025 2072 
L 3025 3500 
L 3603 3500 
L 3603 0 
L 3025 0 
L 3025 1613 
L 1159 1613 
L 1159 0 
L 581 0 
L 581 3500 
z
" transform="scale(0.015625)"/>
       <path id="DejaVuSans-430" d="M 2194 1759 
Q 1497 1759 1228 1600 
Q 959 1441 959 1056 
Q 959 750 1161 570 
Q 1363 391 1709 391 
Q 2188 391 2477 730 
Q 2766 1069 2766 1631 
L 2766 1759 
L 2194 1759 
z
M 3341 1997 
L 3341 0 
L 2766 0 
L 2766 531 
Q 2569 213 2275 61 
Q 1981 -91 1556 -91 
Q 1019 -91 701 211 
Q 384 513 384 1019 
Q 384 1609 779 1909 
Q 1175 2209 1959 2209 
L 2766 2209 
L 2766 2266 
Q 2766 2663 2505 2880 
Q 2244 3097 1772 3097 
Q 1472 3097 1187 3025 
Q 903 2953 641 2809 
L 641 3341 
Q 956 3463 1253 3523 
Q 1550 3584 1831 3584 
Q 2591 3584 2966 3190 
Q 3341 2797 3341 1997 
z
" transform="scale(0.015625)"/>
       <path id="DejaVuSans-447" d="M 2625 0 
L 2625 1472 
L 1553 1472 
Q 1075 1472 756 1769 
Q 469 2038 469 2613 
L 469 3500 
L 1044 3500 
L 1044 2666 
Q 1044 2300 1206 2116 
Q 1372 1931 1697 1931 
L 2625 1931 
L 2625 3500 
L 3200 3500 
L 3200 0 
L 2625 0 
z
" transform="scale(0.015625)"/>
       <path id="DejaVuSans-435" d="M 3597 1894 
L 3597 1613 
L 953 1613 
Q 991 1019 1311 708 
Q 1631 397 2203 397 
Q 2534 397 2845 478 
Q 3156 559 3463 722 
L 3463 178 
Q 3153 47 2828 -22 
Q 2503 -91 2169 -91 
Q 1331 -91 842 396 
Q 353 884 353 1716 
Q 353 2575 817 3079 
Q 1281 3584 2069 3584 
Q 2775 3584 3186 3129 
Q 3597 2675 3597 1894 
z
M 3022 2063 
Q 3016 2534 2758 2815 
Q 2500 3097 2075 3097 
Q 1594 3097 1305 2825 
Q 1016 2553 972 2059 
L 3022 2063 
z
" transform="scale(0.015625)"/>
       <path id="DejaVuSans-438" d="M 3578 3500 
L 3578 0 
L 3006 0 
L 3006 2809 
L 1319 0 
L 581 0 
L 581 3500 
L 1153 3500 
L 1153 697 
L 2838 3500 
L 3578 3500 
z
" transform="scale(0.015625)"/>
      </defs>
      <use xlink:href="#DejaVuSans-437"/>
      <use xlink:href="#DejaVuSans-43d" transform="translate(53.173828 0)"/>
      <use xlink:href="#DejaVuSans-430" transform="translate(118.554688 0)"/>
      <use xlink:href="#DejaVuSans-447" transform="translate(179.833984 0)"/>
      <use xlink:href="#DejaVuSans-435" transform="translate(238.916016 0)"/>
      <use xlink:href="#DejaVuSans-43d" transform="translate(300.439453 0)"/>
      <use xlink:href="#DejaVuSans-438" transform="translate(365.820312 0)"/>
      <use xlink:href="#DejaVuSans-435" transform="translate(430.810547 0)"/>
     </g>
    </g>
   </g>
   <g id="line2d_27">
    <path d="M 52.160938 66.439219 
L 54.159548 66.55033 
L 56.165983 66.885181 
L 58.194357 67.450427 
L 60.258321 68.258388 
L 62.370932 69.326784 
L 64.544609 70.678447 
L 66.791251 72.34111 
L 69.122408 74.347291 
L 71.549597 76.73436 
L 74.08468 79.544828 
L 76.740358 82.826918 
L 79.530861 86.635621 
L 82.472815 91.034334 
L 85.586589 96.0976 
L 88.898308 101.915622 
L 92.443215 108.602083 
L 96.271798 116.308777 
L 100.462099 125.255513 
L 105.14882 135.801411 
L 110.610379 148.659316 
L 117.693977 165.94498 
L 135.824558 210.44527 
L 141.340901 223.235525 
L 146.047531 233.602004 
L 150.249729 242.332595 
L 154.087753 249.805418 
L 157.64103 256.247604 
L 160.960282 261.814734 
L 164.080674 266.623038 
L 167.028153 270.764675 
L 169.822907 274.315841 
L 172.481454 277.3414 
L 175.017954 279.897596 
L 177.445165 282.033745 
L 179.775072 283.793187 
L 182.019448 285.213878 
L 184.190191 286.328585 
L 186.299621 287.164923 
L 188.360639 287.74522 
L 190.386748 288.086291 
L 192.391943 288.199216 
L 194.390543 288.089183 
L 196.39691 287.755428 
L 198.425151 287.191322 
L 200.488914 286.384574 
L 202.601257 285.317491 
L 204.774611 283.967263 
L 207.020873 282.306178 
L 209.351595 280.301746 
L 211.778292 277.916617 
L 214.312818 275.108317 
L 216.967882 271.828634 
L 219.757692 268.022627 
L 222.698866 263.626945 
L 225.811747 258.567106 
L 229.122428 252.752996 
L 232.666097 246.071076 
L 236.49314 238.369797 
L 240.681432 229.42977 
L 245.365251 218.892907 
L 250.821866 206.049202 
L 257.892384 188.797938 
L 276.108819 144.089915 
L 281.617407 131.321967 
L 286.319684 120.969128 
L 290.518902 112.248557 
L 294.354661 104.783764 
L 297.906119 98.348292 
L 301.223853 92.786923 
L 304.342939 87.983656 
L 307.289269 83.846471 
L 310.082996 80.299267 
L 312.740627 77.277238 
L 315.276313 74.724193 
L 317.702788 72.590876 
L 320.032047 70.833972 
L 322.275854 69.415572 
L 324.446117 68.30294 
L 326.555157 67.468498 
L 328.615873 66.889959 
L 330.641781 66.550546 
L 332.646887 66.439219 
L 334.645498 66.550838 
L 336.651966 66.886204 
L 338.680408 67.451987 
L 340.744472 68.260521 
L 342.857205 69.329533 
L 345.031039 70.681874 
L 347.27786 72.345282 
L 349.609228 74.352292 
L 352.036651 76.74028 
L 354.571991 79.551763 
L 357.22796 82.834988 
L 360.018786 86.64496 
L 362.961109 91.045101 
L 366.075296 96.109969 
L 369.387494 101.929817 
L 372.932982 108.618409 
L 376.762279 116.327629 
L 380.953529 125.277526 
L 385.641611 135.827666 
L 391.105491 148.692238 
L 398.195272 165.994156 
L 416.285588 210.396998 
L 421.805569 223.19771 
L 426.514241 233.57058 
L 430.717834 242.305857 
L 434.556919 249.782434 
L 438.111044 256.227751 
L 441.43101 261.79758 
L 444.552016 266.608238 
L 447.50003 270.751951 
L 450.295264 274.304966 
L 452.954235 277.332167 
L 455.491126 279.889842 
L 457.918672 282.027303 
L 460.24888 283.787928 
L 462.493513 285.209682 
L 464.664479 286.325356 
L 466.774087 287.162577 
L 468.83525 287.743696 
L 470.861449 288.085539 
L 472.866689 288.199211 
L 474.865288 288.089917 
L 476.8716 287.756914 
L 478.89974 287.193594 
L 480.963369 286.387677 
L 483.075533 285.321493 
L 485.248664 283.972249 
L 487.494659 282.312254 
L 489.825079 280.309025 
L 492.251442 277.925226 
L 494.785588 275.11841 
L 497.440228 271.840383 
L 498.560937 270.35547 
L 498.560937 270.35547 
" clip-path="url(#p2e5e29138b)" style="fill: none; stroke: #0000ff; stroke-width: 1.5; stroke-linecap: square"/>
   </g>
   <g id="line2d_28">
    <path d="M 52.160938 177.319219 
L 63.444713 205.049149 
L 69.405336 219.094697 
L 74.345578 230.182623 
L 78.703681 239.431282 
L 82.65816 247.313738 
L 86.304356 254.096644 
L 89.700991 259.955594 
L 92.88774 265.018312 
L 95.893273 269.384197 
L 98.739509 273.134382 
L 101.444079 276.337329 
L 104.021838 279.052056 
L 106.485955 281.330174 
L 108.848616 283.217032 
L 111.121618 284.752433 
L 113.316779 285.97095 
L 115.446252 286.902017 
L 117.522727 287.569837 
L 119.559494 287.993179 
L 121.570403 288.18516 
L 123.569684 288.15304 
L 125.571698 287.898141 
L 127.590687 287.415872 
L 129.640478 286.695899 
L 131.734351 285.722386 
L 133.88495 284.474286 
L 136.104339 282.925587 
L 138.404159 281.045473 
L 140.795903 278.798312 
L 143.291257 276.143475 
L 145.902552 273.034865 
L 148.643392 269.420041 
L 151.529435 265.23883 
L 154.57953 260.421053 
L 157.817448 254.88277 
L 161.274693 248.519828 
L 164.995348 241.196354 
L 169.045591 232.721771 
L 173.534634 222.799615 
L 178.671593 210.887698 
L 184.986826 195.652072 
L 196.469238 167.229789 
L 204.821874 146.865441 
L 210.548181 133.476718 
L 215.369011 122.754999 
L 219.648458 113.76624 
L 223.544604 106.088091 
L 227.144474 99.474547 
L 230.502652 93.76036 
L 233.656491 88.823703 
L 236.633265 84.56886 
L 239.454033 80.917162 
L 242.135837 77.801984 
L 244.693195 75.165672 
L 247.139054 72.957767 
L 249.4855 71.133908 
L 251.744296 69.655213 
L 253.927314 68.487978 
L 256.046777 67.603667 
L 258.115473 66.978992 
L 260.146805 66.596134 
L 262.154701 66.442972 
L 264.153424 66.513259 
L 266.157358 66.806699 
L 268.180666 67.328879 
L 270.237097 68.091098 
L 272.339831 69.11011 
L 274.501389 70.407822 
L 276.733757 72.011079 
L 279.048542 73.951532 
L 281.457227 76.265636 
L 283.971575 78.99492 
L 286.604097 82.186502 
L 289.368674 85.894022 
L 292.281423 90.179181 
L 295.361896 95.114203 
L 298.634945 100.78593 
L 302.133806 107.302933 
L 305.905507 114.808411 
L 310.021583 123.506158 
L 314.602607 133.720559 
L 319.88757 146.067353 
L 326.532234 162.189874 
L 347.987189 214.687676 
L 353.203697 226.604197 
L 357.735371 236.416183 
L 361.815434 244.732525 
L 365.559893 251.871169 
L 369.037316 258.032234 
L 372.29271 263.356949 
L 375.357938 267.953026 
L 378.256905 271.907103 
L 381.008503 275.291541 
L 383.628414 278.168343 
L 386.130285 280.591502 
L 388.526571 282.608426 
L 390.829147 284.260773 
L 393.049786 285.584904 
L 395.200497 286.612024 
L 397.293767 287.368157 
L 399.342676 287.87397 
L 401.360906 288.144556 
L 403.362575 288.189207 
L 405.362034 288.011294 
L 407.373591 287.608253 
L 409.411239 286.971702 
L 411.488461 286.087673 
L 413.618124 284.93688 
L 415.812471 283.495005 
L 418.083274 281.73287 
L 420.44204 279.616517 
L 422.900343 277.107073 
L 425.470234 274.160397 
L 428.164794 270.726368 
L 430.998865 266.747681 
L 433.990035 262.157942 
L 437.160145 256.878489 
L 440.537607 250.813124 
L 444.161427 243.838692 
L 448.088609 235.787254 
L 452.409839 226.407898 
L 457.288634 215.270635 
L 463.091789 201.444851 
L 471.241904 181.394635 
L 484.427311 148.963255 
L 490.332089 135.073283 
L 495.244632 124.069845 
L 498.560937 116.998158 
L 498.560937 116.998158 
" clip-path="url(#p2e5e29138b)" style="fill: none; stroke-dasharray: 5.55,2.4; stroke-dashoffset: 0; stroke: #ff0000; stroke-width: 1.5"/>
   </g>
   <g id="patch_3">
    <path d="M 52.160938 343.639219 
L 52.160938 10.999219 
" style="fill: none; stroke: #000000; stroke-width: 0.8; stroke-linejoin: miter; stroke-linecap: square"/>
   </g>
   <g id="patch_4">
    <path d="M 498.560937 343.639219 
L 498.560937 10.999219 
" style="fill: none; stroke: #000000; stroke-width: 0.8; stroke-linejoin: miter; stroke-linecap: square"/>
   </g>
   <g id="patch_5">
    <path d="M 52.160938 343.639219 
L 498.560937 343.639219 
" style="fill: none; stroke: #000000; stroke-width: 0.8; stroke-linejoin: miter; stroke-linecap: square"/>
   </g>
   <g id="patch_6">
    <path d="M 52.160938 10.999219 
L 498.560937 10.999219 
" style="fill: none; stroke: #000000; stroke-width: 0.8; stroke-linejoin: miter; stroke-linecap: square"/>
   </g>
   <g id="legend_1">
    <g id="patch_7">
     <path d="M 405.723437 48.355469 
L 491.560938 48.355469 
Q 493.560938 48.355469 493.560938 46.355469 
L 493.560938 17.999219 
Q 493.560938 15.999219 491.560938 15.999219 
L 405.723437 15.999219 
Q 403.723437 15.999219 403.723437 17.999219 
L 403.723437 46.355469 
Q 403.723437 48.355469 405.723437 48.355469 
z
" style="fill: #ffffff; opacity: 0.8; stroke: #cccccc; stroke-linejoin: miter"/>
    </g>
    <g id="line2d_29">
     <path d="M 407.723437 24.097656 
L 417.723437 24.097656 
L 427.723437 24.097656 
" style="fill: none; stroke: #0000ff; stroke-width: 1.5; stroke-linecap: square"/>
    </g>
    <g id="text_16">
     <!-- x(t) - RK45 -->
     <g transform="translate(435.723437 27.597656) scale(0.1 -0.1)">
      <defs>
       <path id="DejaVuSans-78" d="M 3513 3500 
L 2247 1797 
L 3578 0 
L 2900 0 
L 1881 1375 
L 863 0 
L 184 0 
L 1544 1831 
L 300 3500 
L 978 3500 
L 1906 2253 
L 2834 3500 
L 3513 3500 
z
" transform="scale(0.015625)"/>
       <path id="DejaVuSans-28" d="M 1984 4856 
Q 1566 4138 1362 3434 
Q 1159 2731 1159 2009 
Q 1159 1288 1364 580 
Q 1569 -128 1984 -844 
L 1484 -844 
Q 1016 -109 783 600 
Q 550 1309 550 2009 
Q 550 2706 781 3412 
Q 1013 4119 1484 4856 
L 1984 4856 
z
" transform="scale(0.015625)"/>
       <path id="DejaVuSans-29" d="M 513 4856 
L 1013 4856 
Q 1481 4119 1714 3412 
Q 1947 2706 1947 2009 
Q 1947 1309 1714 600 
Q 1481 -109 1013 -844 
L 513 -844 
Q 928 -128 1133 580 
Q 1338 1288 1338 2009 
Q 1338 2731 1133 3434 
Q 928 4138 513 4856 
z
" transform="scale(0.015625)"/>
       <path id="DejaVuSans-20" transform="scale(0.015625)"/>
       <path id="DejaVuSans-2d" d="M 313 2009 
L 1997 2009 
L 1997 1497 
L 313 1497 
L 313 2009 
z
" transform="scale(0.015625)"/>
       <path id="DejaVuSans-52" d="M 2841 2188 
Q 3044 2119 3236 1894 
Q 3428 1669 3622 1275 
L 4263 0 
L 3584 0 
L 2988 1197 
Q 2756 1666 2539 1819 
Q 2322 1972 1947 1972 
L 1259 1972 
L 1259 0 
L 628 0 
L 628 4666 
L 2053 4666 
Q 2853 4666 3247 4331 
Q 3641 3997 3641 3322 
Q 3641 2881 3436 2590 
Q 3231 2300 2841 2188 
z
M 1259 4147 
L 1259 2491 
L 2053 2491 
Q 2509 2491 2742 2702 
Q 2975 2913 2975 3322 
Q 2975 3731 2742 3939 
Q 2509 4147 2053 4147 
L 1259 4147 
z
" transform="scale(0.015625)"/>
       <path id="DejaVuSans-4b" d="M 628 4666 
L 1259 4666 
L 1259 2694 
L 3353 4666 
L 4166 4666 
L 1850 2491 
L 4331 0 
L 3500 0 
L 1259 2247 
L 1259 0 
L 628 0 
L 628 4666 
z
" transform="scale(0.015625)"/>
      </defs>
      <use xlink:href="#DejaVuSans-78"/>
      <use xlink:href="#DejaVuSans-28" transform="translate(59.179688 0)"/>
      <use xlink:href="#DejaVuSans-74" transform="translate(98.193359 0)"/>
      <use xlink:href="#DejaVuSans-29" transform="translate(137.402344 0)"/>
      <use xlink:href="#DejaVuSans-20" transform="translate(176.416016 0)"/>
      <use xlink:href="#DejaVuSans-2d" transform="translate(208.203125 0)"/>
      <use xlink:href="#DejaVuSans-20" transform="translate(244.287109 0)"/>
      <use xlink:href="#DejaVuSans-52" transform="translate(276.074219 0)"/>
      <use xlink:href="#DejaVuSans-4b" transform="translate(345.556641 0)"/>
      <use xlink:href="#DejaVuSans-34" transform="translate(411.132812 0)"/>
      <use xlink:href="#DejaVuSans-35" transform="translate(474.755859 0)"/>
     </g>
    </g>
    <g id="line2d_30">
     <path d="M 407.723437 38.775781 
L 417.723437 38.775781 
L 427.723437 38.775781 
" style="fill: none; stroke-dasharray: 5.55,2.4; stroke-dashoffset: 0; stroke: #ff0000; stroke-width: 1.5"/>
    </g>
    <g id="text_17">
     <!-- y(t) - RK45 -->
     <g transform="translate(435.723437 42.275781) scale(0.1 -0.1)">
      <defs>
       <path id="DejaVuSans-79" d="M 2059 -325 
Q 1816 -950 1584 -1140 
Q 1353 -1331 966 -1331 
L 506 -1331 
L 506 -850 
L 844 -850 
Q 1081 -850 1212 -737 
Q 1344 -625 1503 -206 
L 1606 56 
L 191 3500 
L 800 3500 
L 1894 763 
L 2988 3500 
L 3597 3500 
L 2059 -325 
z
" transform="scale(0.015625)"/>
      </defs>
      <use xlink:href="#DejaVuSans-79"/>
      <use xlink:href="#DejaVuSans-28" transform="translate(59.179688 0)"/>
      <use xlink:href="#DejaVuSans-74" transform="translate(98.193359 0)"/>
      <use xlink:href="#DejaVuSans-29" transform="translate(137.402344 0)"/>
      <use xlink:href="#DejaVuSans-20" transform="translate(176.416016 0)"/>
      <use xlink:href="#DejaVuSans-2d" transform="translate(208.203125 0)"/>
      <use xlink:href="#DejaVuSans-20" transform="translate(244.287109 0)"/>
      <use xlink:href="#DejaVuSans-52" transform="translate(276.074219 0)"/>
      <use xlink:href="#DejaVuSans-4b" transform="translate(345.556641 0)"/>
      <use xlink:href="#DejaVuSans-34" transform="translate(411.132812 0)"/>
      <use xlink:href="#DejaVuSans-35" transform="translate(474.755859 0)"/>
     </g>
    </g>
   </g>
  </g>
 </g>
 <defs>
  <clipPath id="p2e5e29138b">
   <rect x="52.160938" y="10.999219" width="446.4" height="332.64"/>
  </clipPath>
 </defs>
</svg>
