<?xml version="1.0" encoding="utf-8" standalone="no"?>
<!DOCTYPE svg PUBLIC "-//W3C//DTD SVG 1.1//EN"
  "http://www.w3.org/Graphics/SVG/1.1/DTD/svg11.dtd">
<svg xmlns:xlink="http://www.w3.org/1999/xlink" width="399.9525pt" height="381.195469pt" viewBox="0 0 399.9525 381.195469" xmlns="http://www.w3.org/2000/svg" version="1.1">
 <metadata>
  <rdf:RDF xmlns:dc="http://purl.org/dc/elements/1.1/" xmlns:cc="http://creativecommons.org/ns#" xmlns:rdf="http://www.w3.org/1999/02/22-rdf-syntax-ns#">
   <cc:Work>
    <dc:type rdf:resource="http://purl.org/dc/dcmitype/StillImage"/>
    <dc:date>2025-11-02T12:46:25.861926</dc:date>
    <dc:format>image/svg+xml</dc:format>
    <dc:creator>
     <cc:Agent>
      <dc:title>Matplotlib v3.10.7, https://matplotlib.org/</dc:title>
     </cc:Agent>
    </dc:creator>
   </cc:Work>
  </rdf:RDF>
 </metadata>
 <defs>
  <style type="text/css">*{stroke-linejoin: round; stroke-linecap: butt}</style>
 </defs>
 <g id="figure_1">
  <g id="patch_1">
   <path d="M 0 381.195469 
L 399.9525 381.195469 
L 399.9525 0 
L 0 0 
z
" style="fill: #ffffff"/>
  </g>
  <g id="axes_1">
   <g id="patch_2">
    <path d="M 52.160938 343.639219 
L 384.800937 343.639219 
L 384.800937 10.999219 
L 52.160938 10.999219 
z
" style="fill: #ffffff"/>
   </g>
   <g id="matplotlib.axis_1">
    <g id="xtick_1">
     <g id="line2d_1">
      <path d="M 52.160937 343.639219 
L 52.160937 10.999219 
" clip-path="url(#pc50a9e2a80)" style="fill: none; stroke: #b0b0b0; stroke-opacity: 0.3; stroke-width: 0.8; stroke-linecap: square"/>
     </g>
     <g id="line2d_2">
      <defs>
       <path id="mb76162efb7" d="M 0 0 
L 0 3.5 
" style="stroke: #000000; stroke-width: 0.8"/>
      </defs>
      <g>
       <use xlink:href="#mb76162efb7" x="52.160937" y="343.639219" style="stroke: #000000; stroke-width: 0.8"/>
      </g>
     </g>
     <g id="text_1">
      <!-- −2.0 -->
      <g transform="translate(40.019531 358.237656) scale(0.1 -0.1)">
       <defs>
        <path id="DejaVuSans-2212" d="M 678 2272 
L 4684 2272 
L 4684 1741 
L 678 1741 
L 678 2272 
z
" transform="scale(0.015625)"/>
        <path id="DejaVuSans-32" d="M 1228 531 
L 3431 531 
L 3431 0 
L 469 0 
L 469 531 
Q 828 903 1448 1529 
Q 2069 2156 2228 2338 
Q 2531 2678 2651 2914 
Q 2772 3150 2772 3378 
Q 2772 3750 2511 3984 
Q 2250 4219 1831 4219 
Q 1534 4219 1204 4116 
Q 875 4013 500 3803 
L 500 4441 
Q 881 4594 1212 4672 
Q 1544 4750 1819 4750 
Q 2544 4750 2975 4387 
Q 3406 4025 3406 3419 
Q 3406 3131 3298 2873 
Q 3191 2616 2906 2266 
Q 2828 2175 2409 1742 
Q 1991 1309 1228 531 
z
" transform="scale(0.015625)"/>
        <path id="DejaVuSans-2e" d="M 684 794 
L 1344 794 
L 1344 0 
L 684 0 
L 684 794 
z
" transform="scale(0.015625)"/>
        <path id="DejaVuSans-30" d="M 2034 4250 
Q 1547 4250 1301 3770 
Q 1056 3291 1056 2328 
Q 1056 1369 1301 889 
Q 1547 409 2034 409 
Q 2525 409 2770 889 
Q 3016 1369 3016 2328 
Q 3016 3291 2770 3770 
Q 2525 4250 2034 4250 
z
M 2034 4750 
Q 2819 4750 3233 4129 
Q 3647 3509 3647 2328 
Q 3647 1150 3233 529 
Q 2819 -91 2034 -91 
Q 1250 -91 836 529 
Q 422 1150 422 2328 
Q 422 3509 836 4129 
Q 1250 4750 2034 4750 
z
" transform="scale(0.015625)"/>
       </defs>
       <use xlink:href="#DejaVuSans-2212"/>
       <use xlink:href="#DejaVuSans-32" transform="translate(83.789062 0)"/>
       <use xlink:href="#DejaVuSans-2e" transform="translate(147.412109 0)"/>
       <use xlink:href="#DejaVuSans-30" transform="translate(179.199219 0)"/>
      </g>
     </g>
    </g>
    <g id="xtick_2">
     <g id="line2d_3">
      <path d="M 93.740937 343.639219 
L 93.740937 10.999219 
" clip-path="url(#pc50a9e2a80)" style="fill: none; stroke: #b0b0b0; stroke-opacity: 0.3; stroke-width: 0.8; stroke-linecap: square"/>
     </g>
     <g id="line2d_4">
      <g>
       <use xlink:href="#mb76162efb7" x="93.740937" y="343.639219" style="stroke: #000000; stroke-width: 0.8"/>
      </g>
     </g>
     <g id="text_2">
      <!-- −1.5 -->
      <g transform="translate(81.599531 358.237656) scale(0.1 -0.1)">
       <defs>
        <path id="DejaVuSans-31" d="M 794 531 
L 1825 531 
L 1825 4091 
L 703 3866 
L 703 4441 
L 1819 4666 
L 2450 4666 
L 2450 531 
L 3481 531 
L 3481 0 
L 794 0 
L 794 531 
z
" transform="scale(0.015625)"/>
        <path id="DejaVuSans-35" d="M 691 4666 
L 3169 4666 
L 3169 4134 
L 1269 4134 
L 1269 2991 
Q 1406 3038 1543 3061 
Q 1681 3084 1819 3084 
Q 2600 3084 3056 2656 
Q 3513 2228 3513 1497 
Q 3513 744 3044 326 
Q 2575 -91 1722 -91 
Q 1428 -91 1123 -41 
Q 819 9 494 109 
L 494 744 
Q 775 591 1075 516 
Q 1375 441 1709 441 
Q 2250 441 2565 725 
Q 2881 1009 2881 1497 
Q 2881 1984 2565 2268 
Q 2250 2553 1709 2553 
Q 1456 2553 1204 2497 
Q 953 2441 691 2322 
L 691 4666 
z
" transform="scale(0.015625)"/>
       </defs>
       <use xlink:href="#DejaVuSans-2212"/>
       <use xlink:href="#DejaVuSans-31" transform="translate(83.789062 0)"/>
       <use xlink:href="#DejaVuSans-2e" transform="translate(147.412109 0)"/>
       <use xlink:href="#DejaVuSans-35" transform="translate(179.199219 0)"/>
      </g>
     </g>
    </g>
    <g id="xtick_3">
     <g id="line2d_5">
      <path d="M 135.320937 343.639219 
L 135.320937 10.999219 
" clip-path="url(#pc50a9e2a80)" style="fill: none; stroke: #b0b0b0; stroke-opacity: 0.3; stroke-width: 0.8; stroke-linecap: square"/>
     </g>
     <g id="line2d_6">
      <g>
       <use xlink:href="#mb76162efb7" x="135.320937" y="343.639219" style="stroke: #000000; stroke-width: 0.8"/>
      </g>
     </g>
     <g id="text_3">
      <!-- −1.0 -->
      <g transform="translate(123.179531 358.237656) scale(0.1 -0.1)">
       <use xlink:href="#DejaVuSans-2212"/>
       <use xlink:href="#DejaVuSans-31" transform="translate(83.789062 0)"/>
       <use xlink:href="#DejaVuSans-2e" transform="translate(147.412109 0)"/>
       <use xlink:href="#DejaVuSans-30" transform="translate(179.199219 0)"/>
      </g>
     </g>
    </g>
    <g id="xtick_4">
     <g id="line2d_7">
      <path d="M 176.900937 343.639219 
L 176.900937 10.999219 
" clip-path="url(#pc50a9e2a80)" style="fill: none; stroke: #b0b0b0; stroke-opacity: 0.3; stroke-width: 0.8; stroke-linecap: square"/>
     </g>
     <g id="line2d_8">
      <g>
       <use xlink:href="#mb76162efb7" x="176.900937" y="343.639219" style="stroke: #000000; stroke-width: 0.8"/>
      </g>
     </g>
     <g id="text_4">
      <!-- −0.5 -->
      <g transform="translate(164.759531 358.237656) scale(0.1 -0.1)">
       <use xlink:href="#DejaVuSans-2212"/>
       <use xlink:href="#DejaVuSans-30" transform="translate(83.789062 0)"/>
       <use xlink:href="#DejaVuSans-2e" transform="translate(147.412109 0)"/>
       <use xlink:href="#DejaVuSans-35" transform="translate(179.199219 0)"/>
      </g>
     </g>
    </g>
    <g id="xtick_5">
     <g id="line2d_9">
      <path d="M 218.480937 343.639219 
L 218.480937 10.999219 
" clip-path="url(#pc50a9e2a80)" style="fill: none; stroke: #b0b0b0; stroke-opacity: 0.3; stroke-width: 0.8; stroke-linecap: square"/>
     </g>
     <g id="line2d_10">
      <g>
       <use xlink:href="#mb76162efb7" x="218.480937" y="343.639219" style="stroke: #000000; stroke-width: 0.8"/>
      </g>
     </g>
     <g id="text_5">
      <!-- 0.0 -->
      <g transform="translate(210.529375 358.237656) scale(0.1 -0.1)">
       <use xlink:href="#DejaVuSans-30"/>
       <use xlink:href="#DejaVuSans-2e" transform="translate(63.623047 0)"/>
       <use xlink:href="#DejaVuSans-30" transform="translate(95.410156 0)"/>
      </g>
     </g>
    </g>
    <g id="xtick_6">
     <g id="line2d_11">
      <path d="M 260.060937 343.639219 
L 260.060937 10.999219 
" clip-path="url(#pc50a9e2a80)" style="fill: none; stroke: #b0b0b0; stroke-opacity: 0.3; stroke-width: 0.8; stroke-linecap: square"/>
     </g>
     <g id="line2d_12">
      <g>
       <use xlink:href="#mb76162efb7" x="260.060937" y="343.639219" style="stroke: #000000; stroke-width: 0.8"/>
      </g>
     </g>
     <g id="text_6">
      <!-- 0.5 -->
      <g transform="translate(252.109375 358.237656) scale(0.1 -0.1)">
       <use xlink:href="#DejaVuSans-30"/>
       <use xlink:href="#DejaVuSans-2e" transform="translate(63.623047 0)"/>
       <use xlink:href="#DejaVuSans-35" transform="translate(95.410156 0)"/>
      </g>
     </g>
    </g>
    <g id="xtick_7">
     <g id="line2d_13">
      <path d="M 301.640937 343.639219 
L 301.640937 10.999219 
" clip-path="url(#pc50a9e2a80)" style="fill: none; stroke: #b0b0b0; stroke-opacity: 0.3; stroke-width: 0.8; stroke-linecap: square"/>
     </g>
     <g id="line2d_14">
      <g>
       <use xlink:href="#mb76162efb7" x="301.640937" y="343.639219" style="stroke: #000000; stroke-width: 0.8"/>
      </g>
     </g>
     <g id="text_7">
      <!-- 1.0 -->
      <g transform="translate(293.689375 358.237656) scale(0.1 -0.1)">
       <use xlink:href="#DejaVuSans-31"/>
       <use xlink:href="#DejaVuSans-2e" transform="translate(63.623047 0)"/>
       <use xlink:href="#DejaVuSans-30" transform="translate(95.410156 0)"/>
      </g>
     </g>
    </g>
    <g id="xtick_8">
     <g id="line2d_15">
      <path d="M 343.220937 343.639219 
L 343.220937 10.999219 
" clip-path="url(#pc50a9e2a80)" style="fill: none; stroke: #b0b0b0; stroke-opacity: 0.3; stroke-width: 0.8; stroke-linecap: square"/>
     </g>
     <g id="line2d_16">
      <g>
       <use xlink:href="#mb76162efb7" x="343.220937" y="343.639219" style="stroke: #000000; stroke-width: 0.8"/>
      </g>
     </g>
     <g id="text_8">
      <!-- 1.5 -->
      <g transform="translate(335.269375 358.237656) scale(0.1 -0.1)">
       <use xlink:href="#DejaVuSans-31"/>
       <use xlink:href="#DejaVuSans-2e" transform="translate(63.623047 0)"/>
       <use xlink:href="#DejaVuSans-35" transform="translate(95.410156 0)"/>
      </g>
     </g>
    </g>
    <g id="xtick_9">
     <g id="line2d_17">
      <path d="M 384.800937 343.639219 
L 384.800937 10.999219 
" clip-path="url(#pc50a9e2a80)" style="fill: none; stroke: #b0b0b0; stroke-opacity: 0.3; stroke-width: 0.8; stroke-linecap: square"/>
     </g>
     <g id="line2d_18">
      <g>
       <use xlink:href="#mb76162efb7" x="384.800937" y="343.639219" style="stroke: #000000; stroke-width: 0.8"/>
      </g>
     </g>
     <g id="text_9">
      <!-- 2.0 -->
      <g transform="translate(376.849375 358.237656) scale(0.1 -0.1)">
       <use xlink:href="#DejaVuSans-32"/>
       <use xlink:href="#DejaVuSans-2e" transform="translate(63.623047 0)"/>
       <use xlink:href="#DejaVuSans-30" transform="translate(95.410156 0)"/>
      </g>
     </g>
    </g>
    <g id="text_10">
     <!-- x -->
     <g transform="translate(215.521562 371.915781) scale(0.1 -0.1)">
      <defs>
       <path id="DejaVuSans-78" d="M 3513 3500 
L 2247 1797 
L 3578 0 
L 2900 0 
L 1881 1375 
L 863 0 
L 184 0 
L 1544 1831 
L 300 3500 
L 978 3500 
L 1906 2253 
L 2834 3500 
L 3513 3500 
z
" transform="scale(0.015625)"/>
      </defs>
      <use xlink:href="#DejaVuSans-78"/>
     </g>
    </g>
   </g>
   <g id="matplotlib.axis_2">
    <g id="ytick_1">
     <g id="line2d_19">
      <path d="M 52.160938 343.639219 
L 384.800937 343.639219 
" clip-path="url(#pc50a9e2a80)" style="fill: none; stroke: #b0b0b0; stroke-opacity: 0.3; stroke-width: 0.8; stroke-linecap: square"/>
     </g>
     <g id="line2d_20">
      <defs>
       <path id="m219b91f2b7" d="M 0 0 
L -3.5 0 
" style="stroke: #000000; stroke-width: 0.8"/>
      </defs>
      <g>
       <use xlink:href="#m219b91f2b7" x="52.160938" y="343.639219" style="stroke: #000000; stroke-width: 0.8"/>
      </g>
     </g>
     <g id="text_11">
      <!-- −2.0 -->
      <g transform="translate(20.878125 347.438438) scale(0.1 -0.1)">
       <use xlink:href="#DejaVuSans-2212"/>
       <use xlink:href="#DejaVuSans-32" transform="translate(83.789062 0)"/>
       <use xlink:href="#DejaVuSans-2e" transform="translate(147.412109 0)"/>
       <use xlink:href="#DejaVuSans-30" transform="translate(179.199219 0)"/>
      </g>
     </g>
    </g>
    <g id="ytick_2">
     <g id="line2d_21">
      <path d="M 52.160938 302.059219 
L 384.800937 302.059219 
" clip-path="url(#pc50a9e2a80)" style="fill: none; stroke: #b0b0b0; stroke-opacity: 0.3; stroke-width: 0.8; stroke-linecap: square"/>
     </g>
     <g id="line2d_22">
      <g>
       <use xlink:href="#m219b91f2b7" x="52.160938" y="302.059219" style="stroke: #000000; stroke-width: 0.8"/>
      </g>
     </g>
     <g id="text_12">
      <!-- −1.5 -->
      <g transform="translate(20.878125 305.858438) scale(0.1 -0.1)">
       <use xlink:href="#DejaVuSans-2212"/>
       <use xlink:href="#DejaVuSans-31" transform="translate(83.789062 0)"/>
       <use xlink:href="#DejaVuSans-2e" transform="translate(147.412109 0)"/>
       <use xlink:href="#DejaVuSans-35" transform="translate(179.199219 0)"/>
      </g>
     </g>
    </g>
    <g id="ytick_3">
     <g id="line2d_23">
      <path d="M 52.160938 260.479219 
L 384.800937 260.479219 
" clip-path="url(#pc50a9e2a80)" style="fill: none; stroke: #b0b0b0; stroke-opacity: 0.3; stroke-width: 0.8; stroke-linecap: square"/>
     </g>
     <g id="line2d_24">
      <g>
       <use xlink:href="#m219b91f2b7" x="52.160938" y="260.479219" style="stroke: #000000; stroke-width: 0.8"/>
      </g>
     </g>
     <g id="text_13">
      <!-- −1.0 -->
      <g transform="translate(20.878125 264.278438) scale(0.1 -0.1)">
       <use xlink:href="#DejaVuSans-2212"/>
       <use xlink:href="#DejaVuSans-31" transform="translate(83.789062 0)"/>
       <use xlink:href="#DejaVuSans-2e" transform="translate(147.412109 0)"/>
       <use xlink:href="#DejaVuSans-30" transform="translate(179.199219 0)"/>
      </g>
     </g>
    </g>
    <g id="ytick_4">
     <g id="line2d_25">
      <path d="M 52.160938 218.899219 
L 384.800937 218.899219 
" clip-path="url(#pc50a9e2a80)" style="fill: none; stroke: #b0b0b0; stroke-opacity: 0.3; stroke-width: 0.8; stroke-linecap: square"/>
     </g>
     <g id="line2d_26">
      <g>
       <use xlink:href="#m219b91f2b7" x="52.160938" y="218.899219" style="stroke: #000000; stroke-width: 0.8"/>
      </g>
     </g>
     <g id="text_14">
      <!-- −0.5 -->
      <g transform="translate(20.878125 222.698438) scale(0.1 -0.1)">
       <use xlink:href="#DejaVuSans-2212"/>
       <use xlink:href="#DejaVuSans-30" transform="translate(83.789062 0)"/>
       <use xlink:href="#DejaVuSans-2e" transform="translate(147.412109 0)"/>
       <use xlink:href="#DejaVuSans-35" transform="translate(179.199219 0)"/>
      </g>
     </g>
    </g>
    <g id="ytick_5">
     <g id="line2d_27">
      <path d="M 52.160938 177.319219 
L 384.800937 177.319219 
" clip-path="url(#pc50a9e2a80)" style="fill: none; stroke: #b0b0b0; stroke-opacity: 0.3; stroke-width: 0.8; stroke-linecap: square"/>
     </g>
     <g id="line2d_28">
      <g>
       <use xlink:href="#m219b91f2b7" x="52.160938" y="177.319219" style="stroke: #000000; stroke-width: 0.8"/>
      </g>
     </g>
     <g id="text_15">
      <!-- 0.0 -->
      <g transform="translate(29.257812 181.118438) scale(0.1 -0.1)">
       <use xlink:href="#DejaVuSans-30"/>
       <use xlink:href="#DejaVuSans-2e" transform="translate(63.623047 0)"/>
       <use xlink:href="#DejaVuSans-30" transform="translate(95.410156 0)"/>
      </g>
     </g>
    </g>
    <g id="ytick_6">
     <g id="line2d_29">
      <path d="M 52.160938 135.739219 
L 384.800937 135.739219 
" clip-path="url(#pc50a9e2a80)" style="fill: none; stroke: #b0b0b0; stroke-opacity: 0.3; stroke-width: 0.8; stroke-linecap: square"/>
     </g>
     <g id="line2d_30">
      <g>
       <use xlink:href="#m219b91f2b7" x="52.160938" y="135.739219" style="stroke: #000000; stroke-width: 0.8"/>
      </g>
     </g>
     <g id="text_16">
      <!-- 0.5 -->
      <g transform="translate(29.257812 139.538438) scale(0.1 -0.1)">
       <use xlink:href="#DejaVuSans-30"/>
       <use xlink:href="#DejaVuSans-2e" transform="translate(63.623047 0)"/>
       <use xlink:href="#DejaVuSans-35" transform="translate(95.410156 0)"/>
      </g>
     </g>
    </g>
    <g id="ytick_7">
     <g id="line2d_31">
      <path d="M 52.160938 94.159219 
L 384.800937 94.159219 
" clip-path="url(#pc50a9e2a80)" style="fill: none; stroke: #b0b0b0; stroke-opacity: 0.3; stroke-width: 0.8; stroke-linecap: square"/>
     </g>
     <g id="line2d_32">
      <g>
       <use xlink:href="#m219b91f2b7" x="52.160938" y="94.159219" style="stroke: #000000; stroke-width: 0.8"/>
      </g>
     </g>
     <g id="text_17">
      <!-- 1.0 -->
      <g transform="translate(29.257812 97.958438) scale(0.1 -0.1)">
       <use xlink:href="#DejaVuSans-31"/>
       <use xlink:href="#DejaVuSans-2e" transform="translate(63.623047 0)"/>
       <use xlink:href="#DejaVuSans-30" transform="translate(95.410156 0)"/>
      </g>
     </g>
    </g>
    <g id="ytick_8">
     <g id="line2d_33">
      <path d="M 52.160938 52.579219 
L 384.800937 52.579219 
" clip-path="url(#pc50a9e2a80)" style="fill: none; stroke: #b0b0b0; stroke-opacity: 0.3; stroke-width: 0.8; stroke-linecap: square"/>
     </g>
     <g id="line2d_34">
      <g>
       <use xlink:href="#m219b91f2b7" x="52.160938" y="52.579219" style="stroke: #000000; stroke-width: 0.8"/>
      </g>
     </g>
     <g id="text_18">
      <!-- 1.5 -->
      <g transform="translate(29.257812 56.378438) scale(0.1 -0.1)">
       <use xlink:href="#DejaVuSans-31"/>
       <use xlink:href="#DejaVuSans-2e" transform="translate(63.623047 0)"/>
       <use xlink:href="#DejaVuSans-35" transform="translate(95.410156 0)"/>
      </g>
     </g>
    </g>
    <g id="ytick_9">
     <g id="line2d_35">
      <path d="M 52.160938 10.999219 
L 384.800937 10.999219 
" clip-path="url(#pc50a9e2a80)" style="fill: none; stroke: #b0b0b0; stroke-opacity: 0.3; stroke-width: 0.8; stroke-linecap: square"/>
     </g>
     <g id="line2d_36">
      <g>
       <use xlink:href="#m219b91f2b7" x="52.160938" y="10.999219" style="stroke: #000000; stroke-width: 0.8"/>
      </g>
     </g>
     <g id="text_19">
      <!-- 2.0 -->
      <g transform="translate(29.257812 14.798438) scale(0.1 -0.1)">
       <use xlink:href="#DejaVuSans-32"/>
       <use xlink:href="#DejaVuSans-2e" transform="translate(63.623047 0)"/>
       <use xlink:href="#DejaVuSans-30" transform="translate(95.410156 0)"/>
      </g>
     </g>
    </g>
    <g id="text_20">
     <!-- y -->
     <g transform="translate(14.798438 180.278594) rotate(-90) scale(0.1 -0.1)">
      <defs>
       <path id="DejaVuSans-79" d="M 2059 -325 
Q 1816 -950 1584 -1140 
Q 1353 -1331 966 -1331 
L 506 -1331 
L 506 -850 
L 844 -850 
Q 1081 -850 1212 -737 
Q 1344 -625 1503 -206 
L 1606 56 
L 191 3500 
L 800 3500 
L 1894 763 
L 2988 3500 
L 3597 3500 
L 2059 -325 
z
" transform="scale(0.015625)"/>
      </defs>
      <use xlink:href="#DejaVuSans-79"/>
     </g>
    </g>
   </g>
   <g id="line2d_37">
    <path d="M 260.060937 177.319219 
L 259.958904 180.230349 
L 259.653305 183.127191 
L 259.14564 185.99553 
L 258.4384 188.821286 
L 257.535057 191.590593 
L 256.440044 194.289859 
L 255.158735 196.905836 
L 253.697418 199.425685 
L 252.063266 201.837041 
L 250.264298 204.128067 
L 248.309344 206.287521 
L 246.207998 208.304805 
L 243.970572 210.170017 
L 241.608049 211.874003 
L 239.132021 213.408402 
L 236.554643 214.765681 
L 233.888562 215.939181 
L 231.146864 216.923142 
L 228.343003 217.712734 
L 225.490742 218.304082 
L 222.604078 218.694285 
L 219.697178 218.881427 
L 216.784309 218.86459 
L 213.879767 218.643856 
L 210.997807 218.220309 
L 208.152572 217.596027 
L 205.358027 216.774074 
L 202.627886 215.758485 
L 199.97555 214.554243 
L 197.414034 213.167259 
L 194.95591 211.604339 
L 192.613243 209.873155 
L 190.397529 207.982203 
L 188.319644 205.940762 
L 186.389784 203.758853 
L 184.617421 201.447183 
L 183.011254 199.017097 
L 181.579165 196.480523 
L 180.328183 193.849908 
L 179.264447 191.138164 
L 178.393178 188.3586 
L 177.718652 185.524856 
L 177.24418 182.650841 
L 176.972089 179.750659 
L 176.903716 176.838544 
L 177.039396 173.928788 
L 177.378463 171.035672 
L 177.919253 168.173394 
L 178.659111 165.356002 
L 179.594408 162.597323 
L 180.720552 159.910896 
L 182.032017 157.309906 
L 183.522366 154.807118 
L 185.184285 152.414815 
L 187.009617 150.144738 
L 188.989405 148.008028 
L 191.113931 146.015172 
L 193.372769 144.17595 
L 195.754834 142.499388 
L 198.248433 140.993716 
L 200.84133 139.666322 
L 203.520798 138.523721 
L 206.273689 137.571521 
L 209.086489 136.814395 
L 211.945396 136.256059 
L 214.836379 135.899253 
L 217.745247 135.745728 
L 220.657727 135.796237 
L 223.559523 136.050534 
L 226.436395 136.507369 
L 229.274223 137.164501 
L 232.059079 138.018704 
L 234.777297 139.065786 
L 237.415535 140.30061 
L 239.960846 141.717113 
L 242.400737 143.308344 
L 244.723235 145.066494 
L 246.916941 146.982935 
L 248.971088 149.04826 
L 250.875596 151.252333 
L 252.621116 153.584338 
L 254.199084 156.032829 
L 255.601754 158.585789 
L 256.822242 161.230689 
L 257.854558 163.954549 
L 258.693636 166.744 
L 259.335358 169.585352 
L 259.776575 172.46466 
L 260.01512 175.367793 
L 260.049824 178.280504 
L 259.880516 181.188497 
L 259.508026 184.077501 
L 258.934184 186.933335 
L 258.161805 189.741986 
L 257.19468 192.489668 
L 256.037555 195.162897 
L 254.69611 197.748552 
L 253.176928 200.233944 
L 251.487464 202.606875 
L 249.636011 204.8557 
L 247.631655 206.96938 
L 245.484233 208.937543 
L 243.204284 210.75053 
L 240.802997 212.399442 
L 238.292158 213.876187 
L 235.68409 215.173518 
L 232.991591 216.285067 
L 230.227878 217.205379 
L 227.406512 217.929938 
L 224.541342 218.455187 
L 221.646428 218.778549 
L 218.735979 218.898437 
L 215.824278 218.814261 
L 212.925615 218.526436 
L 210.054217 218.036375 
L 207.224175 217.346481 
L 204.44938 216.460141 
L 201.743448 215.381705 
L 199.119661 214.116466 
L 196.590896 212.670633 
L 194.169562 211.051302 
L 191.867544 209.266421 
L 189.69614 207.324749 
L 187.666005 205.235815 
L 185.787105 203.009872 
L 184.068659 200.657845 
L 182.519102 198.191276 
L 181.146039 195.622271 
L 179.956208 192.963439 
L 178.955449 190.227827 
L 178.148674 187.428863 
L 177.539841 184.580282 
L 177.13194 181.696066 
L 176.926971 178.790368 
L 176.925941 175.877451 
L 177.128855 172.97161 
L 177.534717 170.087106 
L 178.141536 167.238095 
L 178.946332 164.438561 
L 179.945156 161.702243 
L 181.133106 159.042569 
L 182.504353 156.472594 
L 183.592343 154.698821 
L 183.592343 154.698821 
" clip-path="url(#pc50a9e2a80)" style="fill: none; stroke: #0000ff; stroke-width: 1.5; stroke-linecap: square"/>
   </g>
   <g id="line2d_38">
    <path d="M 301.640937 177.319219 
L 301.536801 181.479643 
L 301.224652 185.629648 
L 300.705273 189.75884 
L 299.979965 193.856877 
L 299.050543 197.913495 
L 297.919336 201.918536 
L 296.589177 205.861967 
L 295.063397 209.733914 
L 293.345817 213.524679 
L 291.44074 217.224768 
L 289.352935 220.824914 
L 287.087633 224.316101 
L 284.650507 227.689584 
L 282.047659 230.936916 
L 279.28561 234.049963 
L 276.371277 237.020929 
L 273.311958 239.842373 
L 270.115315 242.507228 
L 266.789355 245.008822 
L 263.342408 247.340887 
L 259.783106 249.497585 
L 256.120362 251.473513 
L 252.363352 253.263722 
L 248.521484 254.86373 
L 244.604379 256.269529 
L 240.621849 257.477597 
L 236.583867 258.484911 
L 232.500546 259.288946 
L 228.382114 259.887689 
L 224.238885 260.279641 
L 220.081234 260.46382 
L 215.919576 260.439764 
L 211.764333 260.207534 
L 207.625911 259.767712 
L 203.514676 259.121398 
L 199.440923 258.270213 
L 195.414856 257.216287 
L 191.446557 255.96226 
L 187.545966 254.511272 
L 183.72285 252.866958 
L 179.986786 251.033437 
L 176.34713 249.015299 
L 172.812997 246.817599 
L 169.393239 244.445841 
L 166.096421 241.905967 
L 162.930798 239.204335 
L 159.9043 236.347713 
L 157.024507 233.343256 
L 154.29863 230.198487 
L 151.733496 226.921282 
L 149.335531 223.51985 
L 147.110739 220.002709 
L 145.064693 216.378668 
L 143.202516 212.656804 
L 141.528874 208.846437 
L 140.047956 204.95711 
L 138.763473 200.998565 
L 137.678641 196.980715 
L 136.796177 192.913623 
L 136.118291 188.807476 
L 135.646681 184.672556 
L 135.382528 180.51922 
L 135.326494 176.357869 
L 135.478719 172.198926 
L 135.838822 168.052807 
L 136.405901 163.929896 
L 137.178535 159.840517 
L 138.15479 155.794914 
L 139.332221 151.803219 
L 140.707878 147.875427 
L 142.278317 144.021377 
L 144.039604 140.250722 
L 145.987328 136.572903 
L 148.116612 132.997133 
L 150.422121 129.532367 
L 152.898083 126.187283 
L 155.538297 122.970258 
L 158.336149 119.889349 
L 161.284633 116.952272 
L 164.376364 114.166383 
L 167.603599 111.538659 
L 170.958256 109.075682 
L 174.431932 106.78362 
L 178.015929 104.668213 
L 181.701269 102.734759 
L 185.478724 100.988101 
L 189.338832 99.432613 
L 193.271926 98.072191 
L 197.268156 96.910242 
L 201.317513 95.949676 
L 205.409855 95.192899 
L 209.534934 94.641806 
L 213.682418 94.297777 
L 217.841919 94.161674 
L 222.003021 94.233838 
L 226.155302 94.514088 
L 230.288363 95.001722 
L 234.391852 95.695519 
L 238.455493 96.593741 
L 242.469108 97.694139 
L 246.422644 98.993957 
L 250.306201 100.489939 
L 254.110052 102.178339 
L 257.824671 104.054928 
L 261.440754 106.115007 
L 264.949244 108.353415 
L 268.341356 110.764547 
L 271.608592 113.342364 
L 274.742772 116.080411 
L 277.736044 118.971829 
L 280.580913 122.009377 
L 283.270254 125.185448 
L 285.79733 128.492087 
L 288.155814 131.921012 
L 290.339798 135.463637 
L 292.343813 139.111089 
L 294.162839 142.854232 
L 295.792322 146.683692 
L 297.228179 150.589879 
L 298.466814 154.563008 
L 299.505126 158.593131 
L 300.340515 162.670152 
L 300.970888 166.783862 
L 301.394665 170.923957 
L 301.610787 175.080069 
L 301.618711 179.24179 
L 301.418417 183.398695 
L 301.010409 187.540374 
L 300.395706 191.656455 
L 299.575849 195.736628 
L 298.552891 199.770675 
L 297.329394 203.748492 
L 295.908422 207.660118 
L 294.293535 211.495756 
L 292.488776 215.245799 
L 290.498665 218.900855 
L 288.328187 222.451771 
L 285.982778 225.889653 
L 283.468312 229.205891 
L 280.791085 232.39218 
L 277.957804 235.44054 
L 274.975564 238.343335 
L 271.851834 241.093297 
L 268.594437 243.683537 
L 265.211532 246.107569 
L 261.711591 248.359322 
L 258.103379 250.433155 
L 254.395934 252.323876 
L 250.59854 254.026749 
L 246.720708 255.537509 
L 242.772149 256.852373 
L 238.762754 257.968047 
L 234.702564 258.881737 
L 230.601746 259.591156 
L 226.470572 260.094525 
L 222.319389 260.390585 
L 218.158592 260.478594 
L 213.998602 260.358332 
L 209.849838 260.030099 
L 205.722691 259.494718 
L 201.627496 258.75353 
L 197.574511 257.808391 
L 193.573885 256.661669 
L 189.635639 255.316234 
L 185.769635 253.775457 
L 181.985557 252.043196 
L 178.29288 250.12379 
L 174.700854 248.022047 
L 171.218475 245.743229 
L 167.854463 243.293045 
L 164.617245 240.677629 
L 161.514927 237.903534 
L 158.55528 234.977706 
L 155.745716 231.907474 
L 153.093272 228.700526 
L 150.604589 225.364895 
L 148.285902 221.908933 
L 146.143018 218.341298 
L 144.181302 214.670923 
L 142.405669 210.907002 
L 140.820566 207.05896 
L 139.429961 203.136436 
L 138.237338 199.149253 
L 137.245684 195.107396 
L 136.457483 191.02099 
L 135.874708 186.900268 
L 135.498819 182.75555 
L 135.330758 178.597217 
L 135.370945 174.435684 
L 135.61928 170.281372 
L 136.07514 166.144686 
L 136.737385 162.035986 
L 137.604355 157.965564 
L 138.673879 153.943612 
L 139.943278 149.980204 
L 141.409375 146.085266 
L 143.068495 142.268554 
L 144.916485 138.539625 
L 146.948716 134.907818 
L 148.703749 132.078423 
L 148.703749 132.078423 
" clip-path="url(#pc50a9e2a80)" style="fill: none; stroke: #ff0000; stroke-width: 1.5; stroke-linecap: square"/>
   </g>
   <g id="line2d_39">
    <path d="M 343.220937 177.319219 
L 343.120959 182.312479 
L 342.821184 187.297735 
L 342.322092 192.266995 
L 341.624484 197.212295 
L 340.729479 202.125706 
L 339.63851 206.999352 
L 338.353326 211.825422 
L 336.875989 216.596178 
L 335.208864 221.303974 
L 333.354627 225.941262 
L 331.316247 230.50061 
L 329.096995 234.974709 
L 326.700425 239.356386 
L 324.130381 243.638618 
L 321.390981 247.814541 
L 318.486618 251.877461 
L 315.421946 255.820865 
L 312.201879 259.638431 
L 308.831579 263.32404 
L 305.316446 266.871784 
L 301.662118 270.275976 
L 297.874451 273.53116 
L 293.959516 276.632117 
L 289.923591 279.573876 
L 285.773143 282.351722 
L 281.514827 284.961201 
L 277.155468 287.398132 
L 272.702054 289.658607 
L 268.161724 291.739003 
L 263.541757 293.635985 
L 258.849557 295.346513 
L 254.092647 296.867844 
L 249.278651 298.197539 
L 244.415287 299.333468 
L 239.510351 300.273809 
L 234.571705 301.017055 
L 229.607265 301.562015 
L 224.62499 301.907815 
L 219.632866 302.0539 
L 214.638895 302.000037 
L 209.651084 301.746311 
L 204.677426 301.29313 
L 199.725895 300.64122 
L 194.804429 299.791626 
L 189.920916 298.74571 
L 185.083184 297.505148 
L 180.298988 296.07193 
L 175.575998 294.448352 
L 170.921784 292.637017 
L 166.343807 290.640828 
L 161.849405 288.462987 
L 157.445783 286.106982 
L 153.14 283.576592 
L 148.938957 280.875873 
L 144.84939 278.009153 
L 140.877854 274.981028 
L 137.030714 271.796352 
L 133.314139 268.46023 
L 129.734085 264.97801 
L 126.296291 261.355274 
L 123.006269 257.597829 
L 119.869291 253.711698 
L 116.890387 249.70311 
L 114.074332 245.578492 
L 111.42564 241.344455 
L 108.948556 237.007786 
L 106.647052 232.575436 
L 104.524816 228.054512 
L 102.585251 223.452259 
L 100.831465 218.776056 
L 99.266271 214.033397 
L 97.892177 209.231886 
L 96.711385 204.37922 
L 95.725789 199.483176 
L 94.936968 194.551604 
L 94.346187 189.592408 
L 93.954392 184.613539 
L 93.762213 179.622977 
L 93.769956 174.628722 
L 93.97761 169.63878 
L 94.384842 164.66115 
L 94.990999 159.70381 
L 95.795109 154.774707 
L 96.795883 149.881744 
L 97.991717 145.032762 
L 99.380694 140.235535 
L 100.960588 135.497753 
L 102.728865 130.827011 
L 104.682693 126.230795 
L 106.818937 121.716473 
L 109.134175 117.291282 
L 111.624695 112.962315 
L 114.286504 108.736512 
L 117.115336 104.620646 
L 120.106657 100.621315 
L 123.25567 96.74493 
L 126.557328 92.997705 
L 130.006339 89.385647 
L 133.597174 85.914545 
L 137.324077 82.589965 
L 141.181074 79.417234 
L 145.161981 76.401439 
L 149.260418 73.547415 
L 153.469815 70.859735 
L 157.783424 68.34271 
L 162.194331 66.000373 
L 166.695465 63.836478 
L 171.27961 61.854496 
L 175.939419 60.057602 
L 180.667421 58.448678 
L 185.456038 57.030302 
L 190.297593 55.804748 
L 195.184326 54.77398 
L 200.108404 53.939651 
L 205.061932 53.303099 
L 210.036971 52.865344 
L 215.025546 52.627087 
L 220.019659 52.58871 
L 225.011306 52.750275 
L 229.992485 53.111522 
L 234.955211 53.671874 
L 239.891529 54.430431 
L 244.793526 55.385978 
L 249.653344 56.536982 
L 254.463193 57.881599 
L 259.215362 59.417674 
L 263.902235 61.142744 
L 268.516298 63.054044 
L 273.050155 65.148509 
L 277.496537 67.422783 
L 281.848319 69.87322 
L 286.098523 72.495892 
L 290.240336 75.286595 
L 294.26712 78.240855 
L 298.17242 81.353937 
L 301.949975 84.62085 
L 305.593729 88.036358 
L 309.097843 91.594986 
L 312.456698 95.291029 
L 315.664912 99.118562 
L 318.71734 103.07145 
L 321.60909 107.143356 
L 324.335527 111.327754 
L 326.89228 115.617936 
L 329.275251 120.007024 
L 331.480619 124.487982 
L 333.50485 129.053629 
L 335.344699 133.696646 
L 336.997216 138.409588 
L 338.459752 143.184903 
L 339.729964 148.014935 
L 340.805815 152.891941 
L 341.68558 157.808103 
L 342.367849 162.755542 
L 342.851529 167.726326 
L 343.135844 172.712488 
L 343.220338 177.706034 
L 343.104876 182.69896 
L 342.789643 187.683263 
L 342.275144 192.650952 
L 341.562204 197.594064 
L 340.651967 202.504676 
L 339.54589 207.374916 
L 338.245747 212.196977 
L 336.753622 216.963129 
L 335.071908 221.665732 
L 333.203299 226.297249 
L 331.150791 230.850254 
L 328.917675 235.317449 
L 326.507529 239.691673 
L 323.924218 243.965916 
L 321.171882 248.133324 
L 318.254934 252.187218 
L 315.178049 256.121099 
L 311.946159 259.928661 
L 308.564445 263.603801 
L 305.038329 267.140628 
L 301.373462 270.533472 
L 297.575718 273.776895 
L 293.651187 276.865696 
L 289.606158 279.794926 
L 285.447116 282.559888 
L 281.180729 285.15615 
L 276.813834 287.579551 
L 272.353432 289.826205 
L 267.806673 291.892512 
L 263.180845 293.775159 
L 258.483363 295.471128 
L 253.721758 296.9777 
L 248.903663 298.292461 
L 244.0368 299.413303 
L 239.128971 300.33843 
L 234.188043 301.066358 
L 229.221938 301.59592 
L 224.238614 301.926268 
L 219.246061 302.056872 
L 214.252282 301.987523 
L 209.265281 301.718332 
L 204.293052 301.24973 
L 199.343567 300.582468 
L 194.424759 299.717617 
L 189.544512 298.656562 
L 184.710651 297.401005 
L 179.930923 295.952957 
L 175.21299 294.314741 
L 170.564415 292.488982 
L 165.99265 290.478608 
L 161.505023 288.286839 
L 157.108728 285.917191 
L 152.810812 283.373461 
L 148.618165 280.659727 
L 144.537507 277.780339 
L 140.57538 274.739913 
L 136.738135 271.543323 
L 133.031922 268.195692 
L 129.462684 264.702387 
L 126.036141 261.069008 
L 122.757786 257.301378 
L 119.632874 253.405538 
L 116.666415 249.387733 
L 113.863164 245.254402 
L 111.227614 241.012171 
L 108.76399 236.667842 
L 106.476241 232.228377 
L 104.368035 227.700893 
L 102.442751 223.092648 
L 100.703475 218.411028 
L 99.152995 213.663539 
L 97.793796 208.85779 
L 96.628058 204.001485 
L 95.657649 199.102409 
L 94.884124 194.168415 
L 94.308724 189.207411 
L 93.932371 184.22735 
L 93.755669 179.236216 
L 93.778899 174.24201 
L 94.002026 169.252735 
L 94.424691 164.276392 
L 95.046217 159.320955 
L 95.865608 154.39437 
L 96.881551 149.504534 
L 98.092415 144.659283 
L 99.496262 139.866387 
L 101.09084 135.133527 
L 102.873593 130.46829 
L 104.841664 125.878155 
L 106.991897 121.370479 
L 109.320846 116.952489 
L 111.824778 112.631266 
L 113.815155 109.458025 
L 113.815155 109.458025 
" clip-path="url(#pc50a9e2a80)" style="fill: none; stroke: #008000; stroke-width: 1.5; stroke-linecap: square"/>
   </g>
   <g id="patch_3">
    <path d="M 52.160938 343.639219 
L 52.160938 10.999219 
" style="fill: none; stroke: #000000; stroke-width: 0.8; stroke-linejoin: miter; stroke-linecap: square"/>
   </g>
   <g id="patch_4">
    <path d="M 384.800937 343.639219 
L 384.800937 10.999219 
" style="fill: none; stroke: #000000; stroke-width: 0.8; stroke-linejoin: miter; stroke-linecap: square"/>
   </g>
   <g id="patch_5">
    <path d="M 52.160937 343.639219 
L 384.800937 343.639219 
" style="fill: none; stroke: #000000; stroke-width: 0.8; stroke-linejoin: miter; stroke-linecap: square"/>
   </g>
   <g id="patch_6">
    <path d="M 52.160937 10.999219 
L 384.800937 10.999219 
" style="fill: none; stroke: #000000; stroke-width: 0.8; stroke-linejoin: miter; stroke-linecap: square"/>
   </g>
  </g>
 </g>
 <defs>
  <clipPath id="pc50a9e2a80">
   <rect x="52.160938" y="10.999219" width="332.64" height="332.64"/>
  </clipPath>
 </defs>
</svg>
