<?xml version="1.0" encoding="utf-8" standalone="no"?>
<!DOCTYPE svg PUBLIC "-//W3C//DTD SVG 1.1//EN"
  "http://www.w3.org/Graphics/SVG/1.1/DTD/svg11.dtd">
<svg xmlns:xlink="http://www.w3.org/1999/xlink" width="558.885625pt" height="501.337656pt" viewBox="0 0 558.885625 501.337656" xmlns="http://www.w3.org/2000/svg" version="1.1">
 <metadata>
  <rdf:RDF xmlns:dc="http://purl.org/dc/elements/1.1/" xmlns:cc="http://creativecommons.org/ns#" xmlns:rdf="http://www.w3.org/1999/02/22-rdf-syntax-ns#">
   <cc:Work>
    <dc:type rdf:resource="http://purl.org/dc/dcmitype/StillImage"/>
    <dc:date>2025-11-19T08:45:03.703658</dc:date>
    <dc:format>image/svg+xml</dc:format>
    <dc:creator>
     <cc:Agent>
      <dc:title>Matplotlib v3.10.7, https://matplotlib.org/</dc:title>
     </cc:Agent>
    </dc:creator>
   </cc:Work>
  </rdf:RDF>
 </metadata>
 <defs>
  <style type="text/css">*{stroke-linejoin: round; stroke-linecap: butt}</style>
 </defs>
 <g id="figure_1">
  <g id="patch_1">
   <path d="M 0 501.337656 
L 558.885625 501.337656 
L 558.885625 0 
L 0 0 
z
" style="fill: #ffffff"/>
  </g>
  <g id="axes_1">
   <g id="patch_2">
    <path d="M 58.471875 456.038906 
L 504.871875 456.038906 
L 504.871875 12.518906 
L 58.471875 12.518906 
z
" style="fill: #ffffff"/>
   </g>
   <g id="matplotlib.axis_1">
    <g id="xtick_1">
     <g id="line2d_1">
      <defs>
       <path id="m5d83184e39" d="M 0 0 
L 0 3.5 
" style="stroke: #000000; stroke-width: 0.8"/>
      </defs>
      <g>
       <use xlink:href="#m5d83184e39" x="58.471875" y="456.038906" style="stroke: #000000; stroke-width: 0.8"/>
      </g>
     </g>
     <g id="text_1">
      <!-- 0 -->
      <g transform="translate(54.018125 473.676719) scale(0.14 -0.14)">
       <defs>
        <path id="DejaVuSans-30" d="M 2034 4250 
Q 1547 4250 1301 3770 
Q 1056 3291 1056 2328 
Q 1056 1369 1301 889 
Q 1547 409 2034 409 
Q 2525 409 2770 889 
Q 3016 1369 3016 2328 
Q 3016 3291 2770 3770 
Q 2525 4250 2034 4250 
z
M 2034 4750 
Q 2819 4750 3233 4129 
Q 3647 3509 3647 2328 
Q 3647 1150 3233 529 
Q 2819 -91 2034 -91 
Q 1250 -91 836 529 
Q 422 1150 422 2328 
Q 422 3509 836 4129 
Q 1250 4750 2034 4750 
z
" transform="scale(0.015625)"/>
       </defs>
       <use xlink:href="#DejaVuSans-30"/>
      </g>
     </g>
    </g>
    <g id="xtick_2">
     <g id="line2d_2">
      <g>
       <use xlink:href="#m5d83184e39" x="122.243304" y="456.038906" style="stroke: #000000; stroke-width: 0.8"/>
      </g>
     </g>
     <g id="text_2">
      <!-- 1 -->
      <g transform="translate(117.789554 473.676719) scale(0.14 -0.14)">
       <defs>
        <path id="DejaVuSans-31" d="M 794 531 
L 1825 531 
L 1825 4091 
L 703 3866 
L 703 4441 
L 1819 4666 
L 2450 4666 
L 2450 531 
L 3481 531 
L 3481 0 
L 794 0 
L 794 531 
z
" transform="scale(0.015625)"/>
       </defs>
       <use xlink:href="#DejaVuSans-31"/>
      </g>
     </g>
    </g>
    <g id="xtick_3">
     <g id="line2d_3">
      <g>
       <use xlink:href="#m5d83184e39" x="186.014732" y="456.038906" style="stroke: #000000; stroke-width: 0.8"/>
      </g>
     </g>
     <g id="text_3">
      <!-- 2 -->
      <g transform="translate(181.560982 473.676719) scale(0.14 -0.14)">
       <defs>
        <path id="DejaVuSans-32" d="M 1228 531 
L 3431 531 
L 3431 0 
L 469 0 
L 469 531 
Q 828 903 1448 1529 
Q 2069 2156 2228 2338 
Q 2531 2678 2651 2914 
Q 2772 3150 2772 3378 
Q 2772 3750 2511 3984 
Q 2250 4219 1831 4219 
Q 1534 4219 1204 4116 
Q 875 4013 500 3803 
L 500 4441 
Q 881 4594 1212 4672 
Q 1544 4750 1819 4750 
Q 2544 4750 2975 4387 
Q 3406 4025 3406 3419 
Q 3406 3131 3298 2873 
Q 3191 2616 2906 2266 
Q 2828 2175 2409 1742 
Q 1991 1309 1228 531 
z
" transform="scale(0.015625)"/>
       </defs>
       <use xlink:href="#DejaVuSans-32"/>
      </g>
     </g>
    </g>
    <g id="xtick_4">
     <g id="line2d_4">
      <g>
       <use xlink:href="#m5d83184e39" x="249.786161" y="456.038906" style="stroke: #000000; stroke-width: 0.8"/>
      </g>
     </g>
     <g id="text_4">
      <!-- 3 -->
      <g transform="translate(245.332411 473.676719) scale(0.14 -0.14)">
       <defs>
        <path id="DejaVuSans-33" d="M 2597 2516 
Q 3050 2419 3304 2112 
Q 3559 1806 3559 1356 
Q 3559 666 3084 287 
Q 2609 -91 1734 -91 
Q 1441 -91 1130 -33 
Q 819 25 488 141 
L 488 750 
Q 750 597 1062 519 
Q 1375 441 1716 441 
Q 2309 441 2620 675 
Q 2931 909 2931 1356 
Q 2931 1769 2642 2001 
Q 2353 2234 1838 2234 
L 1294 2234 
L 1294 2753 
L 1863 2753 
Q 2328 2753 2575 2939 
Q 2822 3125 2822 3475 
Q 2822 3834 2567 4026 
Q 2313 4219 1838 4219 
Q 1578 4219 1281 4162 
Q 984 4106 628 3988 
L 628 4550 
Q 988 4650 1302 4700 
Q 1616 4750 1894 4750 
Q 2613 4750 3031 4423 
Q 3450 4097 3450 3541 
Q 3450 3153 3228 2886 
Q 3006 2619 2597 2516 
z
" transform="scale(0.015625)"/>
       </defs>
       <use xlink:href="#DejaVuSans-33"/>
      </g>
     </g>
    </g>
    <g id="xtick_5">
     <g id="line2d_5">
      <g>
       <use xlink:href="#m5d83184e39" x="313.557589" y="456.038906" style="stroke: #000000; stroke-width: 0.8"/>
      </g>
     </g>
     <g id="text_5">
      <!-- 4 -->
      <g transform="translate(309.103839 473.676719) scale(0.14 -0.14)">
       <defs>
        <path id="DejaVuSans-34" d="M 2419 4116 
L 825 1625 
L 2419 1625 
L 2419 4116 
z
M 2253 4666 
L 3047 4666 
L 3047 1625 
L 3713 1625 
L 3713 1100 
L 3047 1100 
L 3047 0 
L 2419 0 
L 2419 1100 
L 313 1100 
L 313 1709 
L 2253 4666 
z
" transform="scale(0.015625)"/>
       </defs>
       <use xlink:href="#DejaVuSans-34"/>
      </g>
     </g>
    </g>
    <g id="xtick_6">
     <g id="line2d_6">
      <g>
       <use xlink:href="#m5d83184e39" x="377.329018" y="456.038906" style="stroke: #000000; stroke-width: 0.8"/>
      </g>
     </g>
     <g id="text_6">
      <!-- 5 -->
      <g transform="translate(372.875268 473.676719) scale(0.14 -0.14)">
       <defs>
        <path id="DejaVuSans-35" d="M 691 4666 
L 3169 4666 
L 3169 4134 
L 1269 4134 
L 1269 2991 
Q 1406 3038 1543 3061 
Q 1681 3084 1819 3084 
Q 2600 3084 3056 2656 
Q 3513 2228 3513 1497 
Q 3513 744 3044 326 
Q 2575 -91 1722 -91 
Q 1428 -91 1123 -41 
Q 819 9 494 109 
L 494 744 
Q 775 591 1075 516 
Q 1375 441 1709 441 
Q 2250 441 2565 725 
Q 2881 1009 2881 1497 
Q 2881 1984 2565 2268 
Q 2250 2553 1709 2553 
Q 1456 2553 1204 2497 
Q 953 2441 691 2322 
L 691 4666 
z
" transform="scale(0.015625)"/>
       </defs>
       <use xlink:href="#DejaVuSans-35"/>
      </g>
     </g>
    </g>
    <g id="xtick_7">
     <g id="line2d_7">
      <g>
       <use xlink:href="#m5d83184e39" x="441.100446" y="456.038906" style="stroke: #000000; stroke-width: 0.8"/>
      </g>
     </g>
     <g id="text_7">
      <!-- 6 -->
      <g transform="translate(436.646696 473.676719) scale(0.14 -0.14)">
       <defs>
        <path id="DejaVuSans-36" d="M 2113 2584 
Q 1688 2584 1439 2293 
Q 1191 2003 1191 1497 
Q 1191 994 1439 701 
Q 1688 409 2113 409 
Q 2538 409 2786 701 
Q 3034 994 3034 1497 
Q 3034 2003 2786 2293 
Q 2538 2584 2113 2584 
z
M 3366 4563 
L 3366 3988 
Q 3128 4100 2886 4159 
Q 2644 4219 2406 4219 
Q 1781 4219 1451 3797 
Q 1122 3375 1075 2522 
Q 1259 2794 1537 2939 
Q 1816 3084 2150 3084 
Q 2853 3084 3261 2657 
Q 3669 2231 3669 1497 
Q 3669 778 3244 343 
Q 2819 -91 2113 -91 
Q 1303 -91 875 529 
Q 447 1150 447 2328 
Q 447 3434 972 4092 
Q 1497 4750 2381 4750 
Q 2619 4750 2861 4703 
Q 3103 4656 3366 4563 
z
" transform="scale(0.015625)"/>
       </defs>
       <use xlink:href="#DejaVuSans-36"/>
      </g>
     </g>
    </g>
    <g id="xtick_8">
     <g id="line2d_8">
      <g>
       <use xlink:href="#m5d83184e39" x="504.871875" y="456.038906" style="stroke: #000000; stroke-width: 0.8"/>
      </g>
     </g>
     <g id="text_8">
      <!-- 7 -->
      <g transform="translate(500.418125 473.676719) scale(0.14 -0.14)">
       <defs>
        <path id="DejaVuSans-37" d="M 525 4666 
L 3525 4666 
L 3525 4397 
L 1831 0 
L 1172 0 
L 2766 4134 
L 525 4134 
L 525 4666 
z
" transform="scale(0.015625)"/>
       </defs>
       <use xlink:href="#DejaVuSans-37"/>
      </g>
     </g>
    </g>
    <g id="text_9">
     <!-- t -->
     <g transform="translate(278.927656 491.226094) scale(0.14 -0.14)">
      <defs>
       <path id="DejaVuSans-74" d="M 1172 4494 
L 1172 3500 
L 2356 3500 
L 2356 3053 
L 1172 3053 
L 1172 1153 
Q 1172 725 1289 603 
Q 1406 481 1766 481 
L 2356 481 
L 2356 0 
L 1766 0 
Q 1100 0 847 248 
Q 594 497 594 1153 
L 594 3053 
L 172 3053 
L 172 3500 
L 594 3500 
L 594 4494 
L 1172 4494 
z
" transform="scale(0.015625)"/>
      </defs>
      <use xlink:href="#DejaVuSans-74"/>
     </g>
    </g>
   </g>
   <g id="matplotlib.axis_2">
    <g id="ytick_1">
     <g id="line2d_9">
      <defs>
       <path id="mfcc60e3ffb" d="M 0 0 
L -3.5 0 
" style="stroke: #000000; stroke-width: 0.8"/>
      </defs>
      <g>
       <use xlink:href="#mfcc60e3ffb" x="58.471875" y="456.038906" style="stroke: #000000; stroke-width: 0.8"/>
      </g>
     </g>
     <g id="text_10">
      <!-- 0 -->
      <g transform="translate(42.564375 461.357813) scale(0.14 -0.14)">
       <use xlink:href="#DejaVuSans-30"/>
      </g>
     </g>
    </g>
    <g id="ytick_2">
     <g id="line2d_10">
      <g>
       <use xlink:href="#mfcc60e3ffb" x="58.471875" y="367.334906" style="stroke: #000000; stroke-width: 0.8"/>
      </g>
     </g>
     <g id="text_11">
      <!-- 100 -->
      <g transform="translate(24.749375 372.653813) scale(0.14 -0.14)">
       <use xlink:href="#DejaVuSans-31"/>
       <use xlink:href="#DejaVuSans-30" transform="translate(63.623047 0)"/>
       <use xlink:href="#DejaVuSans-30" transform="translate(127.246094 0)"/>
      </g>
     </g>
    </g>
    <g id="ytick_3">
     <g id="line2d_11">
      <g>
       <use xlink:href="#mfcc60e3ffb" x="58.471875" y="278.630906" style="stroke: #000000; stroke-width: 0.8"/>
      </g>
     </g>
     <g id="text_12">
      <!-- 200 -->
      <g transform="translate(24.749375 283.949813) scale(0.14 -0.14)">
       <use xlink:href="#DejaVuSans-32"/>
       <use xlink:href="#DejaVuSans-30" transform="translate(63.623047 0)"/>
       <use xlink:href="#DejaVuSans-30" transform="translate(127.246094 0)"/>
      </g>
     </g>
    </g>
    <g id="ytick_4">
     <g id="line2d_12">
      <g>
       <use xlink:href="#mfcc60e3ffb" x="58.471875" y="189.926906" style="stroke: #000000; stroke-width: 0.8"/>
      </g>
     </g>
     <g id="text_13">
      <!-- 300 -->
      <g transform="translate(24.749375 195.245812) scale(0.14 -0.14)">
       <use xlink:href="#DejaVuSans-33"/>
       <use xlink:href="#DejaVuSans-30" transform="translate(63.623047 0)"/>
       <use xlink:href="#DejaVuSans-30" transform="translate(127.246094 0)"/>
      </g>
     </g>
    </g>
    <g id="ytick_5">
     <g id="line2d_13">
      <g>
       <use xlink:href="#mfcc60e3ffb" x="58.471875" y="101.222906" style="stroke: #000000; stroke-width: 0.8"/>
      </g>
     </g>
     <g id="text_14">
      <!-- 400 -->
      <g transform="translate(24.749375 106.541813) scale(0.14 -0.14)">
       <use xlink:href="#DejaVuSans-34"/>
       <use xlink:href="#DejaVuSans-30" transform="translate(63.623047 0)"/>
       <use xlink:href="#DejaVuSans-30" transform="translate(127.246094 0)"/>
      </g>
     </g>
    </g>
    <g id="ytick_6">
     <g id="line2d_14">
      <g>
       <use xlink:href="#mfcc60e3ffb" x="58.471875" y="12.518906" style="stroke: #000000; stroke-width: 0.8"/>
      </g>
     </g>
     <g id="text_15">
      <!-- 500 -->
      <g transform="translate(24.749375 17.837812) scale(0.14 -0.14)">
       <use xlink:href="#DejaVuSans-35"/>
       <use xlink:href="#DejaVuSans-30" transform="translate(63.623047 0)"/>
       <use xlink:href="#DejaVuSans-30" transform="translate(127.246094 0)"/>
      </g>
     </g>
    </g>
    <g id="text_16">
     <!-- s -->
     <g transform="translate(17.837813 237.925469) rotate(-90) scale(0.14 -0.14)">
      <defs>
       <path id="DejaVuSans-73" d="M 2834 3397 
L 2834 2853 
Q 2591 2978 2328 3040 
Q 2066 3103 1784 3103 
Q 1356 3103 1142 2972 
Q 928 2841 928 2578 
Q 928 2378 1081 2264 
Q 1234 2150 1697 2047 
L 1894 2003 
Q 2506 1872 2764 1633 
Q 3022 1394 3022 966 
Q 3022 478 2636 193 
Q 2250 -91 1575 -91 
Q 1294 -91 989 -36 
Q 684 19 347 128 
L 347 722 
Q 666 556 975 473 
Q 1284 391 1588 391 
Q 1994 391 2212 530 
Q 2431 669 2431 922 
Q 2431 1156 2273 1281 
Q 2116 1406 1581 1522 
L 1381 1569 
Q 847 1681 609 1914 
Q 372 2147 372 2553 
Q 372 3047 722 3315 
Q 1072 3584 1716 3584 
Q 2034 3584 2315 3537 
Q 2597 3491 2834 3397 
z
" transform="scale(0.015625)"/>
      </defs>
      <use xlink:href="#DejaVuSans-73"/>
     </g>
    </g>
   </g>
   <g id="line2d_15">
    <path d="M 58.471875 367.334906 
L 65.819078 371.795223 
L 73.319348 376.088901 
L 81.07473 380.271305 
L 89.0342 384.310177 
L 97.248781 388.227704 
L 105.718474 392.018837 
L 114.443278 395.67958 
L 123.474215 399.226304 
L 132.811286 402.653086 
L 142.505513 405.972081 
L 152.556895 409.1762 
L 162.965433 412.259756 
L 173.782149 415.231871 
L 185.058065 418.09883 
L 196.844204 420.864489 
L 209.140565 423.520103 
L 221.99817 426.068472 
L 235.519065 428.519649 
L 249.70325 430.863178 
L 264.652767 433.105531 
L 280.418641 435.243148 
L 297.102915 437.278295 
L 314.756612 439.205646 
L 333.532798 441.029894 
L 353.584541 442.752205 
L 375.064906 444.371183 
L 398.126961 445.883787 
L 423.076838 447.294211 
L 450.16965 448.599541 
L 479.762553 449.799104 
L 504.916519 450.662496 
L 504.916519 450.662496 
" clip-path="url(#p1db9ffe2be)" style="fill: none; stroke: #00ffff; stroke-width: 1.5; stroke-linecap: square"/>
   </g>
   <g id="line2d_16">
    <path d="M 58.471875 278.630906 
L 64.4925 285.979119 
L 70.615169 293.100999 
L 76.788861 299.943588 
L 83.064597 306.569903 
L 89.442378 312.982499 
L 95.922203 319.184218 
L 102.504073 325.17816 
L 109.239009 331.010742 
L 116.07599 336.638141 
L 123.066037 342.103223 
L 130.209152 347.404199 
L 137.45431 352.504912 
L 144.903558 357.476541 
L 152.505873 362.282122 
L 160.261254 366.922071 
L 168.220724 371.425324 
L 176.384283 375.788496 
L 184.751932 380.008972 
L 193.374691 384.108407 
L 202.252562 388.081427 
L 211.385544 391.923637 
L 220.773637 395.631575 
L 230.467863 399.220941 
L 240.468223 402.686436 
L 250.825739 406.03981 
L 261.54041 409.274619 
L 272.66326 412.399505 
L 284.194287 415.407496 
L 296.184515 418.304898 
L 308.684965 421.095711 
L 321.74666 423.781982 
L 335.369599 426.35493 
L 349.604805 428.81611 
L 364.554323 431.173552 
L 380.269175 433.42458 
L 396.800382 435.566156 
L 414.24999 437.600797 
L 432.720043 439.528787 
L 452.363607 441.353252 
L 473.282728 443.070232 
L 495.630471 444.678952 
L 504.916519 445.286086 
L 504.916519 445.286086 
" clip-path="url(#p1db9ffe2be)" style="fill: none; stroke: #000000; stroke-width: 1.5; stroke-linecap: square"/>
   </g>
   <g id="line2d_17">
    <path d="M 58.471875 189.926906 
L 64.135344 200.310074 
L 69.849836 210.325048 
L 75.615349 219.983483 
L 81.431885 229.296763 
L 87.299443 238.275978 
L 93.269046 247.004847 
L 99.289671 255.414428 
L 105.361318 263.515338 
L 111.53501 271.381407 
L 117.759724 278.953365 
L 124.086482 286.299159 
L 130.464263 293.365386 
L 136.944088 300.214518 
L 143.525958 306.848725 
L 150.209872 313.270469 
L 156.99583 319.482484 
L 163.883833 325.487747 
L 170.924903 331.330758 
L 178.068017 336.969582 
L 185.364199 342.445368 
L 192.813446 347.756478 
L 200.415761 352.901841 
L 208.171142 357.880923 
L 216.07959 362.693691 
L 224.192127 367.369188 
L 232.457731 371.876581 
L 240.927423 376.242899 
L 249.652227 380.489808 
L 258.58112 384.588649 
L 267.765124 388.559876 
L 277.20424 392.39931 
L 286.949488 396.122544 
L 297.000871 399.723569 
L 307.358387 403.197466 
L 318.073058 406.555809 
L 329.144885 409.792561 
L 340.62489 412.916285 
L 352.564096 415.932835 
L 364.962501 418.834236 
L 377.871129 421.624669 
L 391.28998 424.29668 
L 405.321097 426.862358 
L 419.964481 429.312914 
L 435.322177 431.65642 
L 451.445207 433.890574 
L 468.435614 436.018799 
L 486.344422 438.03651 
L 504.916519 439.910366 
L 504.916519 439.910366 
" clip-path="url(#p1db9ffe2be)" style="fill: none; stroke: #0000ff; stroke-width: 1.5; stroke-linecap: square"/>
   </g>
   <g id="line2d_18">
    <path d="M 58.471875 101.222906 
L 65.768056 119.165212 
L 71.584592 132.872764 
L 77.197039 145.534218 
L 82.758464 157.538266 
L 88.370911 169.125418 
L 93.983358 180.207343 
L 99.646827 190.902898 
L 105.361318 201.223636 
L 111.126832 211.181068 
L 116.943368 220.786516 
L 122.810926 230.051043 
L 128.729506 238.985435 
L 134.750131 247.672169 
L 140.821779 256.043115 
L 146.944448 264.108624 
L 153.169162 271.941497 
L 159.444898 279.483111 
L 165.822679 286.800502 
L 172.302504 293.895396 
L 178.833351 300.717806 
L 185.466243 307.326999 
L 192.201179 313.725356 
L 199.03816 319.915526 
L 205.977186 325.900401 
L 213.069278 331.723969 
L 220.263414 337.344697 
L 227.610617 342.803275 
L 235.110887 348.098055 
L 242.764224 353.227949 
L 250.570628 358.192402 
L 258.530098 362.991351 
L 266.693657 367.65355 
L 275.061305 372.175237 
L 283.633043 376.553408 
L 292.408869 380.785778 
L 301.439806 384.893272 
L 310.725855 388.87097 
L 320.267015 392.71487 
L 330.063286 396.421848 
L 340.16569 400.007142 
L 350.62525 403.482261 
L 361.441966 406.84009 
L 372.615838 410.074775 
L 384.197888 413.194914 
L 396.188115 416.194132 
L 408.688565 419.090146 
L 421.699238 421.873958 
L 435.220133 424.538305 
L 449.353295 427.095262 
L 464.149746 429.544314 
L 479.660508 431.884028 
L 495.936604 434.112348 
L 504.916519 435.250567 
L 504.916519 435.250567 
" clip-path="url(#p1db9ffe2be)" style="fill: none; stroke: #008000; stroke-width: 1.5; stroke-linecap: square"/>
   </g>
   <g id="line2d_19">
    <path d="M 58.471875 12.518906 
L 58.726986 13.771984 
L 60.002542 22.385662 
L 63.727166 46.916474 
L 67.298723 68.986003 
L 70.768236 89.059103 
L 74.237749 107.833729 
L 77.707261 125.390054 
L 81.176774 141.816826 
L 84.697309 157.418937 
L 88.268866 172.234901 
L 91.840423 186.110606 
L 95.463003 199.298511 
L 99.136604 211.831252 
L 102.810206 223.582249 
L 106.53483 234.75933 
L 110.310476 245.389562 
L 114.137144 255.498955 
L 118.014835 265.11248 
L 121.892526 274.139019 
L 125.821239 282.730567 
L 129.800974 290.907742 
L 133.831731 298.690311 
L 137.964533 306.18692 
L 142.148357 313.315141 
L 146.383203 320.093312 
L 150.669072 326.538908 
L 155.056985 332.738459 
L 159.49592 338.62951 
L 164.0369 344.289585 
L 168.679924 349.722515 
L 173.424993 354.932701 
L 178.272106 359.925023 
L 183.221264 364.704765 
L 188.323489 369.322236 
L 193.527758 373.732949 
L 198.885093 377.982641 
L 204.395496 382.070415 
L 210.058965 385.996315 
L 215.926523 389.793123 
L 221.99817 393.455984 
L 228.273907 396.981415 
L 234.804754 400.392878 
L 241.53969 403.659894 
L 248.58076 406.826881 
L 255.876941 409.864633 
L 263.530278 412.808715 
L 271.54077 415.649318 
L 279.908419 418.378772 
L 288.684245 421.006007 
L 297.919271 423.536757 
L 307.66452 425.974138 
L 317.919991 428.308119 
L 328.787729 430.5513 
L 340.318757 432.701781 
L 352.564096 434.756939 
L 365.62579 436.721054 
L 379.554863 438.588735 
L 394.504381 440.366626 
L 410.576388 442.051704 
L 427.923952 443.644485 
L 446.75116 445.146729 
L 467.21108 446.553327 
L 489.609846 447.867211 
L 504.916519 448.649686 
L 504.916519 448.649686 
" clip-path="url(#p1db9ffe2be)" style="fill: none; stroke: #ff0000; stroke-width: 1.5; stroke-linecap: square"/>
   </g>
   <g id="patch_3">
    <path d="M 58.471875 456.038906 
L 58.471875 12.518906 
" style="fill: none; stroke: #000000; stroke-width: 0.8; stroke-linejoin: miter; stroke-linecap: square"/>
   </g>
   <g id="patch_4">
    <path d="M 504.871875 456.038906 
L 504.871875 12.518906 
" style="fill: none; stroke: #000000; stroke-width: 0.8; stroke-linejoin: miter; stroke-linecap: square"/>
   </g>
   <g id="patch_5">
    <path d="M 58.471875 456.038906 
L 504.871875 456.038906 
" style="fill: none; stroke: #000000; stroke-width: 0.8; stroke-linejoin: miter; stroke-linecap: square"/>
   </g>
  </g>
  <g id="axes_2">
   <g id="matplotlib.axis_3">
    <g id="ytick_7">
     <g id="line2d_20">
      <defs>
       <path id="m9745fc2c9b" d="M 0 0 
L 3.5 0 
" style="stroke: #000000; stroke-width: 0.8"/>
      </defs>
      <g>
       <use xlink:href="#m9745fc2c9b" x="504.871875" y="456.038906" style="stroke: #000000; stroke-width: 0.8"/>
      </g>
     </g>
     <g id="text_17">
      <!-- 0.0 -->
      <g transform="translate(511.871875 461.357813) scale(0.14 -0.14)">
       <defs>
        <path id="DejaVuSans-2e" d="M 684 794 
L 1344 794 
L 1344 0 
L 684 0 
L 684 794 
z
" transform="scale(0.015625)"/>
       </defs>
       <use xlink:href="#DejaVuSans-30"/>
       <use xlink:href="#DejaVuSans-2e" transform="translate(63.623047 0)"/>
       <use xlink:href="#DejaVuSans-30" transform="translate(95.410156 0)"/>
      </g>
     </g>
    </g>
    <g id="ytick_8">
     <g id="line2d_21">
      <g>
       <use xlink:href="#m9745fc2c9b" x="504.871875" y="367.334906" style="stroke: #000000; stroke-width: 0.8"/>
      </g>
     </g>
     <g id="text_18">
      <!-- 0.2 -->
      <g transform="translate(511.871875 372.653812) scale(0.14 -0.14)">
       <use xlink:href="#DejaVuSans-30"/>
       <use xlink:href="#DejaVuSans-2e" transform="translate(63.623047 0)"/>
       <use xlink:href="#DejaVuSans-32" transform="translate(95.410156 0)"/>
      </g>
     </g>
    </g>
    <g id="ytick_9">
     <g id="line2d_22">
      <g>
       <use xlink:href="#m9745fc2c9b" x="504.871875" y="278.630906" style="stroke: #000000; stroke-width: 0.8"/>
      </g>
     </g>
     <g id="text_19">
      <!-- 0.4 -->
      <g transform="translate(511.871875 283.949813) scale(0.14 -0.14)">
       <use xlink:href="#DejaVuSans-30"/>
       <use xlink:href="#DejaVuSans-2e" transform="translate(63.623047 0)"/>
       <use xlink:href="#DejaVuSans-34" transform="translate(95.410156 0)"/>
      </g>
     </g>
    </g>
    <g id="ytick_10">
     <g id="line2d_23">
      <g>
       <use xlink:href="#m9745fc2c9b" x="504.871875" y="189.926906" style="stroke: #000000; stroke-width: 0.8"/>
      </g>
     </g>
     <g id="text_20">
      <!-- 0.6 -->
      <g transform="translate(511.871875 195.245812) scale(0.14 -0.14)">
       <use xlink:href="#DejaVuSans-30"/>
       <use xlink:href="#DejaVuSans-2e" transform="translate(63.623047 0)"/>
       <use xlink:href="#DejaVuSans-36" transform="translate(95.410156 0)"/>
      </g>
     </g>
    </g>
    <g id="ytick_11">
     <g id="line2d_24">
      <g>
       <use xlink:href="#m9745fc2c9b" x="504.871875" y="101.222906" style="stroke: #000000; stroke-width: 0.8"/>
      </g>
     </g>
     <g id="text_21">
      <!-- 0.8 -->
      <g transform="translate(511.871875 106.541812) scale(0.14 -0.14)">
       <defs>
        <path id="DejaVuSans-38" d="M 2034 2216 
Q 1584 2216 1326 1975 
Q 1069 1734 1069 1313 
Q 1069 891 1326 650 
Q 1584 409 2034 409 
Q 2484 409 2743 651 
Q 3003 894 3003 1313 
Q 3003 1734 2745 1975 
Q 2488 2216 2034 2216 
z
M 1403 2484 
Q 997 2584 770 2862 
Q 544 3141 544 3541 
Q 544 4100 942 4425 
Q 1341 4750 2034 4750 
Q 2731 4750 3128 4425 
Q 3525 4100 3525 3541 
Q 3525 3141 3298 2862 
Q 3072 2584 2669 2484 
Q 3125 2378 3379 2068 
Q 3634 1759 3634 1313 
Q 3634 634 3220 271 
Q 2806 -91 2034 -91 
Q 1263 -91 848 271 
Q 434 634 434 1313 
Q 434 1759 690 2068 
Q 947 2378 1403 2484 
z
M 1172 3481 
Q 1172 3119 1398 2916 
Q 1625 2713 2034 2713 
Q 2441 2713 2670 2916 
Q 2900 3119 2900 3481 
Q 2900 3844 2670 4047 
Q 2441 4250 2034 4250 
Q 1625 4250 1398 4047 
Q 1172 3844 1172 3481 
z
" transform="scale(0.015625)"/>
       </defs>
       <use xlink:href="#DejaVuSans-30"/>
       <use xlink:href="#DejaVuSans-2e" transform="translate(63.623047 0)"/>
       <use xlink:href="#DejaVuSans-38" transform="translate(95.410156 0)"/>
      </g>
     </g>
    </g>
    <g id="ytick_12">
     <g id="line2d_25">
      <g>
       <use xlink:href="#m9745fc2c9b" x="504.871875" y="12.518906" style="stroke: #000000; stroke-width: 0.8"/>
      </g>
     </g>
     <g id="text_22">
      <!-- 1.0 -->
      <g transform="translate(511.871875 17.837812) scale(0.14 -0.14)">
       <use xlink:href="#DejaVuSans-31"/>
       <use xlink:href="#DejaVuSans-2e" transform="translate(63.623047 0)"/>
       <use xlink:href="#DejaVuSans-30" transform="translate(95.410156 0)"/>
      </g>
     </g>
    </g>
    <g id="text_23">
     <!-- w -->
     <g transform="translate(548.774063 240.003594) rotate(-90) scale(0.14 -0.14)">
      <defs>
       <path id="DejaVuSans-77" d="M 269 3500 
L 844 3500 
L 1563 769 
L 2278 3500 
L 2956 3500 
L 3675 769 
L 4391 3500 
L 4966 3500 
L 4050 0 
L 3372 0 
L 2619 2869 
L 1863 0 
L 1184 0 
L 269 3500 
z
" transform="scale(0.015625)"/>
      </defs>
      <use xlink:href="#DejaVuSans-77"/>
     </g>
    </g>
   </g>
   <g id="line2d_26">
    <path d="M 58.471875 101.222906 
L 69.645747 96.680588 
L 81.07473 92.275096 
L 92.758824 88.00956 
L 104.749051 83.869325 
L 117.045412 79.859109 
L 129.698929 75.967592 
L 142.658579 72.214928 
L 156.026408 68.57647 
L 169.802414 65.058792 
L 183.986598 61.667387 
L 198.629982 58.395684 
L 213.783589 55.239108 
L 229.447418 52.204354 
L 245.672492 49.287973 
L 262.560855 46.479776 
L 280.112508 43.788329 
L 298.378471 41.213597 
L 317.460791 38.749939 
L 337.410489 36.400159 
L 358.329609 34.161946 
L 380.320197 32.034885 
L 403.484296 30.019988 
L 427.923952 28.119222 
L 453.843252 26.328437 
L 481.446287 24.646775 
L 504.916519 23.379 
L 504.916519 23.379 
" clip-path="url(#p1db9ffe2be)" style="fill: none; stroke-dasharray: 5.55,2.4; stroke-dashoffset: 0; stroke: #00ffff; stroke-width: 1.5"/>
   </g>
   <g id="line2d_27">
    <path d="M 58.471875 101.222906 
L 69.645747 96.680601 
L 81.07473 92.275114 
L 92.758824 88.009579 
L 104.749051 83.869344 
L 117.045412 79.859127 
L 129.698929 75.967609 
L 142.658579 72.214944 
L 156.026408 68.576485 
L 169.802414 65.058806 
L 183.986598 61.6674 
L 198.629982 58.395696 
L 213.783589 55.23912 
L 229.447418 52.204364 
L 245.672492 49.287983 
L 262.560855 46.479785 
L 280.112508 43.788338 
L 298.378471 41.213605 
L 317.460791 38.749946 
L 337.410489 36.400166 
L 358.329609 34.161952 
L 380.320197 32.034891 
L 403.484296 30.019993 
L 427.923952 28.119227 
L 453.843252 26.328441 
L 481.446287 24.646778 
L 504.916519 23.379003 
L 504.916519 23.379003 
" clip-path="url(#p1db9ffe2be)" style="fill: none; stroke-dasharray: 5.55,2.4; stroke-dashoffset: 0; stroke: #000000; stroke-width: 1.5"/>
   </g>
   <g id="line2d_28">
    <path d="M 58.471875 101.222906 
L 70.258014 96.450638 
L 81.840063 92.002371 
L 93.57518 87.733953 
L 105.616429 83.591931 
L 117.963813 79.581254 
L 130.61733 75.705808 
L 143.628002 71.954365 
L 156.99583 68.331791 
L 170.771836 64.829467 
L 185.007043 61.441121 
L 199.701449 58.17352 
L 214.855056 55.032231 
L 230.569908 52.002694 
L 246.846004 49.092354 
L 263.734367 46.299097 
L 281.337042 43.614505 
L 299.654028 41.047237 
L 318.787369 38.591603 
L 338.788089 36.250311 
L 359.758232 34.02098 
L 381.799842 31.90312 
L 405.014964 29.897655 
L 429.556663 28.002741 
L 455.578008 26.218748 
L 483.283088 24.544669 
L 504.916519 23.381022 
L 504.916519 23.381022 
" clip-path="url(#p1db9ffe2be)" style="fill: none; stroke-dasharray: 5.55,2.4; stroke-dashoffset: 0; stroke: #0000ff; stroke-width: 1.5"/>
   </g>
   <g id="line2d_29">
    <path d="M 58.471875 101.222906 
L 59.49232 103.018353 
L 60.512765 104.393368 
L 61.584232 105.47324 
L 62.706721 106.284635 
L 63.880233 106.855316 
L 65.155789 107.223384 
L 66.584412 107.395626 
L 68.217124 107.360299 
L 70.155969 107.087644 
L 72.554015 106.516688 
L 75.717394 105.521828 
L 80.360418 103.807492 
L 90.258734 99.853765 
L 104.544962 94.224539 
L 116.433145 89.78641 
L 128.372351 85.567537 
L 140.566667 81.495297 
L 153.067117 77.556128 
L 165.924723 73.738919 
L 179.139485 70.048994 
L 192.711402 66.490709 
L 206.742519 63.043244 
L 221.181815 59.725254 
L 236.131332 56.519422 
L 251.591073 53.432979 
L 267.612058 50.462722 
L 284.245309 47.60689 
L 301.490828 44.872678 
L 319.450659 42.251449 
L 338.175823 39.744388 
L 357.768365 37.347206 
L 378.279307 35.063482 
L 399.810695 32.891781 
L 422.464571 30.832318 
L 446.342982 28.886485 
L 471.650016 27.049416 
L 498.538739 25.32291 
L 504.916519 24.944457 
L 504.916519 24.944457 
" clip-path="url(#p1db9ffe2be)" style="fill: none; stroke-dasharray: 5.55,2.4; stroke-dashoffset: 0; stroke: #008000; stroke-width: 1.5"/>
   </g>
   <g id="line2d_30">
    <path d="M 58.471875 101.222906 
L 58.675964 374.496829 
L 58.880053 434.581191 
L 59.135164 450.943675 
L 59.390275 454.353271 
L 59.645387 455.175474 
L 59.900498 455.376578 
L 60.308676 455.380981 
L 61.176054 455.118685 
L 62.349566 454.544601 
L 63.523077 453.726134 
L 64.747611 452.590376 
L 66.07419 451.04021 
L 67.604857 448.887596 
L 69.49268 445.820999 
L 72.094814 441.130247 
L 76.890905 431.934279 
L 87.197399 412.18504 
L 94.646647 398.426729 
L 102.044872 385.227548 
L 109.443098 372.479257 
L 116.892346 360.08348 
L 124.392616 348.034008 
L 131.892886 336.402265 
L 139.444178 325.098737 
L 147.046492 314.117303 
L 154.699829 303.451825 
L 162.404188 293.096159 
L 170.159569 283.044159 
L 177.965973 273.289684 
L 185.823399 263.826605 
L 193.731847 254.648806 
L 201.691317 245.750195 
L 209.752832 237.070798 
L 217.865369 228.662507 
L 226.07995 220.469213 
L 234.345554 212.538485 
L 242.713202 204.81788 
L 251.182895 197.306557 
L 259.70361 190.046015 
L 268.326369 182.988896 
L 277.051173 176.133752 
L 285.929044 169.441239 
L 294.908959 162.950246 
L 304.041941 156.623945 
L 313.276967 150.49744 
L 322.66506 144.536303 
L 332.20622 138.741784 
L 341.900446 133.11473 
L 351.74774 127.655595 
L 361.799122 122.338097 
L 372.003571 117.190785 
L 382.412109 112.188993 
L 393.024736 107.335137 
L 403.892474 102.609476 
L 415.015324 98.016674 
L 426.342262 93.580147 
L 437.975334 89.263233 
L 449.863517 85.08907 
L 462.057834 81.043186 
L 474.609306 77.114243 
L 487.466912 73.322943 
L 500.732695 69.644368 
L 504.916519 68.531019 
L 504.916519 68.531019 
" clip-path="url(#p1db9ffe2be)" style="fill: none; stroke-dasharray: 5.55,2.4; stroke-dashoffset: 0; stroke: #ff0000; stroke-width: 1.5"/>
   </g>
   <g id="patch_6">
    <path d="M 58.471875 456.038906 
L 58.471875 12.518906 
" style="fill: none; stroke: #000000; stroke-width: 0.8; stroke-linejoin: miter; stroke-linecap: square"/>
   </g>
   <g id="patch_7">
    <path d="M 504.871875 456.038906 
L 504.871875 12.518906 
" style="fill: none; stroke: #000000; stroke-width: 0.8; stroke-linejoin: miter; stroke-linecap: square"/>
   </g>
   <g id="patch_8">
    <path d="M 58.471875 456.038906 
L 504.871875 456.038906 
" style="fill: none; stroke: #000000; stroke-width: 0.8; stroke-linejoin: miter; stroke-linecap: square"/>
   </g>
   <g id="patch_9">
    <path d="M 58.471875 12.518906 
L 504.871875 12.518906 
" style="fill: none; stroke: #000000; stroke-width: 0.8; stroke-linejoin: miter; stroke-linecap: square"/>
   </g>
  </g>
 </g>
 <defs>
  <clipPath id="p1db9ffe2be">
   <rect x="58.471875" y="12.518906" width="446.4" height="443.52"/>
  </clipPath>
 </defs>
</svg>
