<?xml version="1.0" encoding="utf-8" standalone="no"?>
<!DOCTYPE svg PUBLIC "-//W3C//DTD SVG 1.1//EN"
  "http://www.w3.org/Graphics/SVG/1.1/DTD/svg11.dtd">
<svg xmlns:xlink="http://www.w3.org/1999/xlink" width="546.731875pt" height="499.2125pt" viewBox="0 0 546.731875 499.2125" xmlns="http://www.w3.org/2000/svg" version="1.1">
 <metadata>
  <rdf:RDF xmlns:dc="http://purl.org/dc/elements/1.1/" xmlns:cc="http://creativecommons.org/ns#" xmlns:rdf="http://www.w3.org/1999/02/22-rdf-syntax-ns#">
   <cc:Work>
    <dc:type rdf:resource="http://purl.org/dc/dcmitype/StillImage"/>
    <dc:date>2025-11-11T15:44:58.484827</dc:date>
    <dc:format>image/svg+xml</dc:format>
    <dc:creator>
     <cc:Agent>
      <dc:title>Matplotlib v3.10.7, https://matplotlib.org/</dc:title>
     </cc:Agent>
    </dc:creator>
   </cc:Work>
  </rdf:RDF>
 </metadata>
 <defs>
  <style type="text/css">*{stroke-linejoin: round; stroke-linecap: butt}</style>
 </defs>
 <g id="figure_1">
  <g id="patch_1">
   <path d="M 0 499.2125 
L 546.731875 499.2125 
L 546.731875 0 
L 0 0 
z
" style="fill: #ffffff"/>
  </g>
  <g id="axes_1">
   <g id="patch_2">
    <path d="M 51.915937 455.580625 
L 498.315937 455.580625 
L 498.315937 12.060625 
L 51.915937 12.060625 
z
" style="fill: #ffffff"/>
   </g>
   <g id="matplotlib.axis_1">
    <g id="xtick_1">
     <g id="line2d_1">
      <defs>
       <path id="m47b54099ea" d="M 0 0 
L 0 3.5 
" style="stroke: #000000; stroke-width: 0.8"/>
      </defs>
      <g>
       <use xlink:href="#m47b54099ea" x="51.915937" y="455.580625" style="stroke: #000000; stroke-width: 0.8"/>
      </g>
     </g>
     <g id="text_1">
      <!-- 0 -->
      <g transform="translate(48.415937 472.301875) scale(0.14 -0.14)">
       <defs>
        <path id="TimesNewRomanPSMT-30" d="M 231 2094 
Q 231 2819 450 3342 
Q 669 3866 1031 4122 
Q 1313 4325 1613 4325 
Q 2100 4325 2488 3828 
Q 2972 3213 2972 2159 
Q 2972 1422 2759 906 
Q 2547 391 2217 158 
Q 1888 -75 1581 -75 
Q 975 -75 572 641 
Q 231 1244 231 2094 
z
M 844 2016 
Q 844 1141 1059 588 
Q 1238 122 1591 122 
Q 1759 122 1940 273 
Q 2122 425 2216 781 
Q 2359 1319 2359 2297 
Q 2359 3022 2209 3506 
Q 2097 3866 1919 4016 
Q 1791 4119 1609 4119 
Q 1397 4119 1231 3928 
Q 1006 3669 925 3112 
Q 844 2556 844 2016 
z
" transform="scale(0.015625)"/>
       </defs>
       <use xlink:href="#TimesNewRomanPSMT-30"/>
      </g>
     </g>
    </g>
    <g id="xtick_2">
     <g id="line2d_2">
      <g>
       <use xlink:href="#m47b54099ea" x="115.687366" y="455.580625" style="stroke: #000000; stroke-width: 0.8"/>
      </g>
     </g>
     <g id="text_2">
      <!-- 1 -->
      <g transform="translate(112.187366 472.301875) scale(0.14 -0.14)">
       <defs>
        <path id="TimesNewRomanPSMT-31" d="M 750 3822 
L 1781 4325 
L 1884 4325 
L 1884 747 
Q 1884 391 1914 303 
Q 1944 216 2037 169 
Q 2131 122 2419 116 
L 2419 0 
L 825 0 
L 825 116 
Q 1125 122 1212 167 
Q 1300 213 1334 289 
Q 1369 366 1369 747 
L 1369 3034 
Q 1369 3497 1338 3628 
Q 1316 3728 1258 3775 
Q 1200 3822 1119 3822 
Q 1003 3822 797 3725 
L 750 3822 
z
" transform="scale(0.015625)"/>
       </defs>
       <use xlink:href="#TimesNewRomanPSMT-31"/>
      </g>
     </g>
    </g>
    <g id="xtick_3">
     <g id="line2d_3">
      <g>
       <use xlink:href="#m47b54099ea" x="179.458795" y="455.580625" style="stroke: #000000; stroke-width: 0.8"/>
      </g>
     </g>
     <g id="text_3">
      <!-- 2 -->
      <g transform="translate(175.958795 472.301875) scale(0.14 -0.14)">
       <defs>
        <path id="TimesNewRomanPSMT-32" d="M 2934 816 
L 2638 0 
L 138 0 
L 138 116 
Q 1241 1122 1691 1759 
Q 2141 2397 2141 2925 
Q 2141 3328 1894 3587 
Q 1647 3847 1303 3847 
Q 991 3847 742 3664 
Q 494 3481 375 3128 
L 259 3128 
Q 338 3706 661 4015 
Q 984 4325 1469 4325 
Q 1984 4325 2329 3994 
Q 2675 3663 2675 3213 
Q 2675 2891 2525 2569 
Q 2294 2063 1775 1497 
Q 997 647 803 472 
L 1909 472 
Q 2247 472 2383 497 
Q 2519 522 2628 598 
Q 2738 675 2819 816 
L 2934 816 
z
" transform="scale(0.015625)"/>
       </defs>
       <use xlink:href="#TimesNewRomanPSMT-32"/>
      </g>
     </g>
    </g>
    <g id="xtick_4">
     <g id="line2d_4">
      <g>
       <use xlink:href="#m47b54099ea" x="243.230223" y="455.580625" style="stroke: #000000; stroke-width: 0.8"/>
      </g>
     </g>
     <g id="text_4">
      <!-- 3 -->
      <g transform="translate(239.730223 472.301875) scale(0.14 -0.14)">
       <defs>
        <path id="TimesNewRomanPSMT-33" d="M 325 3431 
Q 506 3859 782 4092 
Q 1059 4325 1472 4325 
Q 1981 4325 2253 3994 
Q 2459 3747 2459 3466 
Q 2459 3003 1878 2509 
Q 2269 2356 2469 2072 
Q 2669 1788 2669 1403 
Q 2669 853 2319 450 
Q 1863 -75 997 -75 
Q 569 -75 414 31 
Q 259 138 259 259 
Q 259 350 332 419 
Q 406 488 509 488 
Q 588 488 669 463 
Q 722 447 909 348 
Q 1097 250 1169 231 
Q 1284 197 1416 197 
Q 1734 197 1970 444 
Q 2206 691 2206 1028 
Q 2206 1275 2097 1509 
Q 2016 1684 1919 1775 
Q 1784 1900 1550 2001 
Q 1316 2103 1072 2103 
L 972 2103 
L 972 2197 
Q 1219 2228 1467 2375 
Q 1716 2522 1828 2728 
Q 1941 2934 1941 3181 
Q 1941 3503 1739 3701 
Q 1538 3900 1238 3900 
Q 753 3900 428 3381 
L 325 3431 
z
" transform="scale(0.015625)"/>
       </defs>
       <use xlink:href="#TimesNewRomanPSMT-33"/>
      </g>
     </g>
    </g>
    <g id="xtick_5">
     <g id="line2d_5">
      <g>
       <use xlink:href="#m47b54099ea" x="307.001652" y="455.580625" style="stroke: #000000; stroke-width: 0.8"/>
      </g>
     </g>
     <g id="text_5">
      <!-- 4 -->
      <g transform="translate(303.501652 472.301875) scale(0.14 -0.14)">
       <defs>
        <path id="TimesNewRomanPSMT-34" d="M 2978 1563 
L 2978 1119 
L 2409 1119 
L 2409 0 
L 1894 0 
L 1894 1119 
L 100 1119 
L 100 1519 
L 2066 4325 
L 2409 4325 
L 2409 1563 
L 2978 1563 
z
M 1894 1563 
L 1894 3666 
L 406 1563 
L 1894 1563 
z
" transform="scale(0.015625)"/>
       </defs>
       <use xlink:href="#TimesNewRomanPSMT-34"/>
      </g>
     </g>
    </g>
    <g id="xtick_6">
     <g id="line2d_6">
      <g>
       <use xlink:href="#m47b54099ea" x="370.77308" y="455.580625" style="stroke: #000000; stroke-width: 0.8"/>
      </g>
     </g>
     <g id="text_6">
      <!-- 5 -->
      <g transform="translate(367.27308 472.301875) scale(0.14 -0.14)">
       <defs>
        <path id="TimesNewRomanPSMT-35" d="M 2778 4238 
L 2534 3706 
L 1259 3706 
L 981 3138 
Q 1809 3016 2294 2522 
Q 2709 2097 2709 1522 
Q 2709 1188 2573 903 
Q 2438 619 2231 419 
Q 2025 219 1772 97 
Q 1413 -75 1034 -75 
Q 653 -75 479 54 
Q 306 184 306 341 
Q 306 428 378 495 
Q 450 563 559 563 
Q 641 563 702 538 
Q 763 513 909 409 
Q 1144 247 1384 247 
Q 1750 247 2026 523 
Q 2303 800 2303 1197 
Q 2303 1581 2056 1914 
Q 1809 2247 1375 2428 
Q 1034 2569 447 2591 
L 1259 4238 
L 2778 4238 
z
" transform="scale(0.015625)"/>
       </defs>
       <use xlink:href="#TimesNewRomanPSMT-35"/>
      </g>
     </g>
    </g>
    <g id="xtick_7">
     <g id="line2d_7">
      <g>
       <use xlink:href="#m47b54099ea" x="434.544509" y="455.580625" style="stroke: #000000; stroke-width: 0.8"/>
      </g>
     </g>
     <g id="text_7">
      <!-- 6 -->
      <g transform="translate(431.044509 472.301875) scale(0.14 -0.14)">
       <defs>
        <path id="TimesNewRomanPSMT-36" d="M 2869 4325 
L 2869 4209 
Q 2456 4169 2195 4045 
Q 1934 3922 1679 3669 
Q 1425 3416 1258 3105 
Q 1091 2794 978 2366 
Q 1428 2675 1881 2675 
Q 2316 2675 2634 2325 
Q 2953 1975 2953 1425 
Q 2953 894 2631 456 
Q 2244 -75 1606 -75 
Q 1172 -75 869 213 
Q 275 772 275 1663 
Q 275 2231 503 2743 
Q 731 3256 1154 3653 
Q 1578 4050 1965 4187 
Q 2353 4325 2688 4325 
L 2869 4325 
z
M 925 2138 
Q 869 1716 869 1456 
Q 869 1156 980 804 
Q 1091 453 1309 247 
Q 1469 100 1697 100 
Q 1969 100 2183 356 
Q 2397 613 2397 1088 
Q 2397 1622 2184 2012 
Q 1972 2403 1581 2403 
Q 1463 2403 1327 2353 
Q 1191 2303 925 2138 
z
" transform="scale(0.015625)"/>
       </defs>
       <use xlink:href="#TimesNewRomanPSMT-36"/>
      </g>
     </g>
    </g>
    <g id="xtick_8">
     <g id="line2d_8">
      <g>
       <use xlink:href="#m47b54099ea" x="498.315937" y="455.580625" style="stroke: #000000; stroke-width: 0.8"/>
      </g>
     </g>
     <g id="text_8">
      <!-- 7 -->
      <g transform="translate(494.815937 472.301875) scale(0.14 -0.14)">
       <defs>
        <path id="TimesNewRomanPSMT-37" d="M 644 4238 
L 2916 4238 
L 2916 4119 
L 1503 -88 
L 1153 -88 
L 2419 3728 
L 1253 3728 
Q 900 3728 750 3644 
Q 488 3500 328 3200 
L 238 3234 
L 644 4238 
z
" transform="scale(0.015625)"/>
       </defs>
       <use xlink:href="#TimesNewRomanPSMT-37"/>
      </g>
     </g>
    </g>
    <g id="text_9">
     <!-- t -->
     <g transform="translate(273.17125 489.017812) scale(0.14 -0.14)">
      <defs>
       <path id="TimesNewRomanPSMT-74" d="M 1031 3803 
L 1031 2863 
L 1700 2863 
L 1700 2644 
L 1031 2644 
L 1031 788 
Q 1031 509 1111 412 
Q 1191 316 1316 316 
Q 1419 316 1516 380 
Q 1613 444 1666 569 
L 1788 569 
Q 1678 263 1478 108 
Q 1278 -47 1066 -47 
Q 922 -47 784 33 
Q 647 113 581 261 
Q 516 409 516 719 
L 516 2644 
L 63 2644 
L 63 2747 
Q 234 2816 414 2980 
Q 594 3144 734 3369 
Q 806 3488 934 3803 
L 1031 3803 
z
" transform="scale(0.015625)"/>
      </defs>
      <use xlink:href="#TimesNewRomanPSMT-74"/>
     </g>
    </g>
   </g>
   <g id="matplotlib.axis_2">
    <g id="ytick_1">
     <g id="line2d_9">
      <defs>
       <path id="mea6331f687" d="M 0 0 
L -3.5 0 
" style="stroke: #000000; stroke-width: 0.8"/>
      </defs>
      <g>
       <use xlink:href="#mea6331f687" x="51.915937" y="455.580625" style="stroke: #000000; stroke-width: 0.8"/>
      </g>
     </g>
     <g id="text_10">
      <!-- 0 -->
      <g transform="translate(37.915937 460.44125) scale(0.14 -0.14)">
       <use xlink:href="#TimesNewRomanPSMT-30"/>
      </g>
     </g>
    </g>
    <g id="ytick_2">
     <g id="line2d_10">
      <g>
       <use xlink:href="#mea6331f687" x="51.915937" y="366.876625" style="stroke: #000000; stroke-width: 0.8"/>
      </g>
     </g>
     <g id="text_11">
      <!-- 100 -->
      <g transform="translate(23.915937 371.73725) scale(0.14 -0.14)">
       <use xlink:href="#TimesNewRomanPSMT-31"/>
       <use xlink:href="#TimesNewRomanPSMT-30" transform="translate(50 0)"/>
       <use xlink:href="#TimesNewRomanPSMT-30" transform="translate(100 0)"/>
      </g>
     </g>
    </g>
    <g id="ytick_3">
     <g id="line2d_11">
      <g>
       <use xlink:href="#mea6331f687" x="51.915937" y="278.172625" style="stroke: #000000; stroke-width: 0.8"/>
      </g>
     </g>
     <g id="text_12">
      <!-- 200 -->
      <g transform="translate(23.915937 283.03325) scale(0.14 -0.14)">
       <use xlink:href="#TimesNewRomanPSMT-32"/>
       <use xlink:href="#TimesNewRomanPSMT-30" transform="translate(50 0)"/>
       <use xlink:href="#TimesNewRomanPSMT-30" transform="translate(100 0)"/>
      </g>
     </g>
    </g>
    <g id="ytick_4">
     <g id="line2d_12">
      <g>
       <use xlink:href="#mea6331f687" x="51.915937" y="189.468625" style="stroke: #000000; stroke-width: 0.8"/>
      </g>
     </g>
     <g id="text_13">
      <!-- 300 -->
      <g transform="translate(23.915937 194.32925) scale(0.14 -0.14)">
       <use xlink:href="#TimesNewRomanPSMT-33"/>
       <use xlink:href="#TimesNewRomanPSMT-30" transform="translate(50 0)"/>
       <use xlink:href="#TimesNewRomanPSMT-30" transform="translate(100 0)"/>
      </g>
     </g>
    </g>
    <g id="ytick_5">
     <g id="line2d_13">
      <g>
       <use xlink:href="#mea6331f687" x="51.915937" y="100.764625" style="stroke: #000000; stroke-width: 0.8"/>
      </g>
     </g>
     <g id="text_14">
      <!-- 400 -->
      <g transform="translate(23.915937 105.62525) scale(0.14 -0.14)">
       <use xlink:href="#TimesNewRomanPSMT-34"/>
       <use xlink:href="#TimesNewRomanPSMT-30" transform="translate(50 0)"/>
       <use xlink:href="#TimesNewRomanPSMT-30" transform="translate(100 0)"/>
      </g>
     </g>
    </g>
    <g id="ytick_6">
     <g id="line2d_14">
      <g>
       <use xlink:href="#mea6331f687" x="51.915937" y="12.060625" style="stroke: #000000; stroke-width: 0.8"/>
      </g>
     </g>
     <g id="text_15">
      <!-- 500 -->
      <g transform="translate(23.915937 16.92125) scale(0.14 -0.14)">
       <use xlink:href="#TimesNewRomanPSMT-35"/>
       <use xlink:href="#TimesNewRomanPSMT-30" transform="translate(50 0)"/>
       <use xlink:href="#TimesNewRomanPSMT-30" transform="translate(100 0)"/>
      </g>
     </g>
    </g>
    <g id="text_16">
     <!-- s -->
     <g transform="translate(16.92125 236.545156) rotate(-90) scale(0.14 -0.14)">
      <defs>
       <path id="TimesNewRomanPSMT-73" d="M 2050 2947 
L 2050 1972 
L 1947 1972 
Q 1828 2431 1642 2597 
Q 1456 2763 1169 2763 
Q 950 2763 815 2647 
Q 681 2531 681 2391 
Q 681 2216 781 2091 
Q 878 1963 1175 1819 
L 1631 1597 
Q 2266 1288 2266 781 
Q 2266 391 1970 151 
Q 1675 -88 1309 -88 
Q 1047 -88 709 6 
Q 606 38 541 38 
Q 469 38 428 -44 
L 325 -44 
L 325 978 
L 428 978 
Q 516 541 762 319 
Q 1009 97 1316 97 
Q 1531 97 1667 223 
Q 1803 350 1803 528 
Q 1803 744 1651 891 
Q 1500 1038 1047 1263 
Q 594 1488 453 1669 
Q 313 1847 313 2119 
Q 313 2472 555 2709 
Q 797 2947 1181 2947 
Q 1350 2947 1591 2875 
Q 1750 2828 1803 2828 
Q 1853 2828 1881 2850 
Q 1909 2872 1947 2947 
L 2050 2947 
z
" transform="scale(0.015625)"/>
      </defs>
      <use xlink:href="#TimesNewRomanPSMT-73"/>
     </g>
    </g>
   </g>
   <g id="line2d_15">
    <path d="M 51.915937 366.876625 
L 53.038427 380.891451 
L 54.160916 392.212623 
L 55.334428 401.822418 
L 56.50794 409.659718 
L 57.732473 416.360036 
L 58.957007 421.871813 
L 60.232563 426.614456 
L 61.559142 430.689289 
L 62.88572 434.068443 
L 64.263321 436.989734 
L 65.691944 439.512451 
L 67.171589 441.689246 
L 68.753278 443.623482 
L 70.437012 445.326842 
L 72.222791 446.81538 
L 74.161636 448.139171 
L 76.304571 449.325651 
L 78.651594 450.367793 
L 81.304751 451.29961 
L 84.366085 452.132821 
L 87.937643 452.867218 
L 92.172489 453.505242 
L 97.376758 454.056722 
L 103.958627 454.520685 
L 112.632409 454.897706 
L 124.826726 455.19 
L 143.653934 455.39805 
L 178.144972 455.524427 
L 270.954436 455.575798 
L 498.360582 455.58057 
L 498.360582 455.58057 
" clip-path="url(#p6845e46209)" style="fill: none; stroke: #0000ff; stroke-width: 1.5; stroke-linecap: square"/>
   </g>
   <g id="line2d_16">
    <path d="M 51.915937 278.172625 
L 53.497627 298.580742 
L 55.079317 316.160005 
L 56.712029 331.824223 
L 58.34474 345.371753 
L 59.977452 357.136653 
L 61.661186 367.691663 
L 63.34492 376.889128 
L 65.079677 385.160415 
L 66.865455 392.589554 
L 68.651234 399.081862 
L 70.488035 404.927081 
L 72.324836 410.051088 
L 74.212659 414.674686 
L 76.151504 418.842495 
L 78.141371 422.596062 
L 80.182261 425.973878 
L 82.274173 429.011448 
L 84.46813 431.802157 
L 86.713109 434.300066 
L 89.060132 436.581652 
L 91.5092 438.65642 
L 94.111334 440.570462 
L 96.866535 442.321772 
L 99.825826 443.938137 
L 102.989205 445.413291 
L 106.458717 446.783153 
L 110.234364 448.032684 
L 114.418188 449.180122 
L 119.112234 450.231269 
L 124.367526 451.176314 
L 130.38815 452.028577 
L 137.378198 452.787706 
L 145.643802 453.454634 
L 155.644162 454.029842 
L 168.09359 454.513031 
L 184.216619 454.90433 
L 206.360273 455.204431 
L 239.728822 455.414204 
L 299.526893 455.536116 
L 464.838967 455.578705 
L 498.360582 455.579559 
L 498.360582 455.579559 
" clip-path="url(#p6845e46209)" style="fill: none; stroke: #ff0000; stroke-width: 1.5; stroke-linecap: square"/>
   </g>
   <g id="line2d_17">
    <path d="M 51.915937 189.468625 
L 53.854783 214.860734 
L 55.793628 237.383087 
L 57.783496 257.908489 
L 59.773363 276.152773 
L 61.763231 292.409739 
L 63.804121 307.281617 
L 65.84501 320.557904 
L 67.936922 332.717215 
L 70.028835 343.590952 
L 72.171769 353.560884 
L 74.314703 362.49155 
L 76.50866 370.688532 
L 78.702616 378.042671 
L 80.947595 384.799383 
L 83.192574 390.870455 
L 85.488575 396.453611 
L 87.835598 401.583171 
L 90.233644 406.291802 
L 92.682711 410.610463 
L 95.182801 414.568395 
L 97.733914 418.193118 
L 100.336048 421.510458 
L 103.040227 424.599769 
L 105.846451 427.46622 
L 108.754719 430.116797 
L 111.765031 432.559909 
L 114.92841 434.839672 
L 118.244856 436.954363 
L 121.765391 438.93198 
L 125.490015 440.76599 
L 129.46975 442.47418 
L 133.704596 444.048945 
L 138.296598 445.517361 
L 143.296778 446.879352 
L 148.756159 448.132803 
L 154.776784 449.283864 
L 161.51172 450.339947 
L 169.063012 451.293942 
L 177.634749 452.148487 
L 187.584087 452.910527 
L 199.268181 453.57509 
L 213.299299 454.142737 
L 230.697884 454.614938 
L 253.198694 454.991709 
L 284.169197 455.273186 
L 331.619885 455.460843 
L 421.72517 455.558056 
L 498.360582 455.574717 
L 498.360582 455.574717 
" clip-path="url(#p6845e46209)" style="fill: none; stroke: #008000; stroke-width: 1.5; stroke-linecap: square"/>
   </g>
   <g id="line2d_18">
    <path d="M 51.915937 100.764625 
L 54.160916 130.433433 
L 56.405895 157.222666 
L 58.701896 181.976282 
L 60.997897 204.352699 
L 63.293898 224.613455 
L 65.640921 243.376024 
L 67.987945 260.381435 
L 70.38599 276.137165 
L 72.784036 290.430865 
L 75.182081 303.417287 
L 77.631149 315.472285 
L 80.080217 326.433803 
L 82.580307 336.612925 
L 85.080397 345.87604 
L 87.631509 354.481041 
L 90.182621 362.317598 
L 92.784756 369.599843 
L 95.38689 376.236543 
L 98.040047 382.405758 
L 100.744226 388.135189 
L 103.499427 393.451549 
L 106.305651 398.380504 
L 109.162896 402.946638 
L 112.071164 407.173422 
L 115.030455 411.083209 
L 118.040767 414.697231 
L 121.153124 418.088572 
L 124.367526 421.261386 
L 127.683971 424.221256 
L 131.102462 426.974939 
L 134.674019 429.565229 
L 138.398643 431.989749 
L 142.276334 434.248481 
L 146.358113 436.36844 
L 150.695004 438.367012 
L 155.287006 440.234502 
L 160.185142 441.982164 
L 165.389411 443.60106 
L 171.001858 445.112033 
L 177.073505 446.514014 
L 183.706397 447.813888 
L 191.002578 449.012286 
L 199.064092 450.106158 
L 208.044007 451.09611 
L 218.197434 451.98702 
L 229.830506 452.77882 
L 243.351401 453.470163 
L 259.423408 454.062422 
L 279.066973 454.555668 
L 304.067873 454.950633 
L 337.793577 455.247367 
L 387.999466 455.447118 
L 479.023151 455.553317 
L 498.360582 455.560963 
L 498.360582 455.560963 
" clip-path="url(#p6845e46209)" style="fill: none; stroke: #ffa500; stroke-width: 1.5; stroke-linecap: square"/>
   </g>
   <g id="line2d_19">
    <path d="M 51.915937 12.060625 
L 54.46705 45.969062 
L 57.018162 76.93439 
L 59.569274 105.245562 
L 62.171409 131.655141 
L 64.773543 155.813678 
L 67.375678 177.937588 
L 70.028835 198.600455 
L 72.681991 217.531555 
L 75.335148 234.894122 
L 78.039327 251.127668 
L 80.743506 266.021813 
L 83.447685 279.700479 
L 86.202886 292.50209 
L 88.958087 304.262696 
L 91.764311 315.268831 
L 94.570534 325.382987 
L 97.376758 334.685814 
L 100.234004 343.399145 
L 103.091249 351.415459 
L 105.999517 358.923163 
L 108.958808 365.948046 
L 111.918098 372.408543 
L 114.92841 378.453213 
L 117.989745 384.103853 
L 121.102102 389.381644 
L 124.265481 394.307103 
L 127.479882 398.900047 
L 130.745306 403.179569 
L 134.061752 407.164015 
L 137.480243 410.92468 
L 141.000777 414.464599 
L 144.572335 417.743396 
L 148.296958 420.859959 
L 152.123627 423.771635 
L 156.103362 426.519111 
L 160.236164 429.100541 
L 164.522032 431.516016 
L 169.01199 433.791832 
L 173.757059 435.945431 
L 178.757239 437.967613 
L 184.01253 439.852528 
L 189.624977 441.627609 
L 195.59458 443.281297 
L 202.023383 444.829254 
L 208.962408 446.268354 
L 216.5137 447.603205 
L 224.728282 448.826427 
L 233.810241 449.9498 
L 243.861623 450.965419 
L 255.188562 451.881646 
L 268.046168 452.69362 
L 282.944663 453.405383 
L 300.496316 454.01427 
L 321.772592 454.52169 
L 348.55927 454.927945 
L 384.22382 455.233449 
L 436.470599 455.439922 
L 498.360582 455.53113 
L 498.360582 455.53113 
" clip-path="url(#p6845e46209)" style="fill: none; stroke: #800080; stroke-width: 1.5; stroke-linecap: square"/>
   </g>
   <g id="line2d_20">
    <path d="M 57.835384 -1 
L 60.691764 31.142424 
L 63.549009 60.790544 
L 66.406255 88.150622 
L 69.263501 113.418357 
L 72.171769 137.171528 
L 75.080037 159.109655 
L 77.988305 179.385986 
L 80.947595 198.455668 
L 83.906885 216.081354 
L 86.866175 232.383495 
L 89.825466 247.471472 
L 92.835778 261.676399 
L 95.846091 274.822947 
L 98.856403 286.997641 
L 101.917738 298.463177 
L 104.979072 309.080465 
L 108.091429 319.075877 
L 111.203786 328.331164 
L 114.367165 337.041376 
L 117.530545 345.106014 
L 120.744946 352.693115 
L 123.959348 359.717294 
L 127.224771 366.323298 
L 130.541217 372.530482 
L 133.857663 378.27291 
L 137.225131 383.666924 
L 140.643622 388.729288 
L 144.113134 393.476371 
L 147.684692 397.98599 
L 151.307271 402.202085 
L 154.980873 406.140684 
L 158.756519 409.865508 
L 162.634209 413.37965 
L 166.613944 416.687242 
L 170.695724 419.793313 
L 174.93057 422.737546 
L 179.318483 425.517316 
L 183.859463 428.131774 
L 188.604532 430.606981 
L 193.55369 432.937652 
L 198.757959 435.141276 
L 204.217339 437.21045 
L 209.982853 439.156852 
L 216.105522 440.987197 
L 222.63637 442.704405 
L 229.626417 444.308679 
L 237.126687 445.798515 
L 245.239224 447.179651 
L 254.066073 448.452851 
L 263.709277 449.615864 
L 274.372926 450.674374 
L 286.261109 451.627153 
L 299.67996 452.475405 
L 315.088678 453.221196 
L 333.09953 453.863499 
L 354.630918 454.401302 
L 381.315552 454.836199 
L 416.112723 455.168814 
L 465.298167 455.40004 
L 498.360582 455.476172 
L 498.360582 455.476172 
" clip-path="url(#p6845e46209)" style="fill: none; stroke: #00ffff; stroke-width: 1.5; stroke-linecap: square"/>
   </g>
   <g id="patch_3">
    <path d="M 51.915937 455.580625 
L 51.915937 12.060625 
" style="fill: none; stroke: #000000; stroke-width: 0.8; stroke-linejoin: miter; stroke-linecap: square"/>
   </g>
   <g id="patch_4">
    <path d="M 498.315937 455.580625 
L 498.315937 12.060625 
" style="fill: none; stroke: #000000; stroke-width: 0.8; stroke-linejoin: miter; stroke-linecap: square"/>
   </g>
   <g id="patch_5">
    <path d="M 51.915937 455.580625 
L 498.315937 455.580625 
" style="fill: none; stroke: #000000; stroke-width: 0.8; stroke-linejoin: miter; stroke-linecap: square"/>
   </g>
  </g>
  <g id="axes_2">
   <g id="matplotlib.axis_3">
    <g id="ytick_7">
     <g id="line2d_21">
      <defs>
       <path id="m5e66b2a638" d="M 0 0 
L 3.5 0 
" style="stroke: #000000; stroke-width: 0.8"/>
      </defs>
      <g>
       <use xlink:href="#m5e66b2a638" x="498.315937" y="455.580625" style="stroke: #000000; stroke-width: 0.8"/>
      </g>
     </g>
     <g id="text_17">
      <!-- 0.0 -->
      <g transform="translate(505.315937 460.44125) scale(0.14 -0.14)">
       <defs>
        <path id="TimesNewRomanPSMT-2e" d="M 800 606 
Q 947 606 1047 504 
Q 1147 403 1147 259 
Q 1147 116 1045 14 
Q 944 -88 800 -88 
Q 656 -88 554 14 
Q 453 116 453 259 
Q 453 406 554 506 
Q 656 606 800 606 
z
" transform="scale(0.015625)"/>
       </defs>
       <use xlink:href="#TimesNewRomanPSMT-30"/>
       <use xlink:href="#TimesNewRomanPSMT-2e" transform="translate(50 0)"/>
       <use xlink:href="#TimesNewRomanPSMT-30" transform="translate(75 0)"/>
      </g>
     </g>
    </g>
    <g id="ytick_8">
     <g id="line2d_22">
      <g>
       <use xlink:href="#m5e66b2a638" x="498.315937" y="366.876625" style="stroke: #000000; stroke-width: 0.8"/>
      </g>
     </g>
     <g id="text_18">
      <!-- 0.2 -->
      <g transform="translate(505.315937 371.73725) scale(0.14 -0.14)">
       <use xlink:href="#TimesNewRomanPSMT-30"/>
       <use xlink:href="#TimesNewRomanPSMT-2e" transform="translate(50 0)"/>
       <use xlink:href="#TimesNewRomanPSMT-32" transform="translate(75 0)"/>
      </g>
     </g>
    </g>
    <g id="ytick_9">
     <g id="line2d_23">
      <g>
       <use xlink:href="#m5e66b2a638" x="498.315937" y="278.172625" style="stroke: #000000; stroke-width: 0.8"/>
      </g>
     </g>
     <g id="text_19">
      <!-- 0.4 -->
      <g transform="translate(505.315937 283.03325) scale(0.14 -0.14)">
       <use xlink:href="#TimesNewRomanPSMT-30"/>
       <use xlink:href="#TimesNewRomanPSMT-2e" transform="translate(50 0)"/>
       <use xlink:href="#TimesNewRomanPSMT-34" transform="translate(75 0)"/>
      </g>
     </g>
    </g>
    <g id="ytick_10">
     <g id="line2d_24">
      <g>
       <use xlink:href="#m5e66b2a638" x="498.315937" y="189.468625" style="stroke: #000000; stroke-width: 0.8"/>
      </g>
     </g>
     <g id="text_20">
      <!-- 0.6 -->
      <g transform="translate(505.315937 194.32925) scale(0.14 -0.14)">
       <use xlink:href="#TimesNewRomanPSMT-30"/>
       <use xlink:href="#TimesNewRomanPSMT-2e" transform="translate(50 0)"/>
       <use xlink:href="#TimesNewRomanPSMT-36" transform="translate(75 0)"/>
      </g>
     </g>
    </g>
    <g id="ytick_11">
     <g id="line2d_25">
      <g>
       <use xlink:href="#m5e66b2a638" x="498.315937" y="100.764625" style="stroke: #000000; stroke-width: 0.8"/>
      </g>
     </g>
     <g id="text_21">
      <!-- 0.8 -->
      <g transform="translate(505.315937 105.62525) scale(0.14 -0.14)">
       <defs>
        <path id="TimesNewRomanPSMT-38" d="M 1228 2134 
Q 725 2547 579 2797 
Q 434 3047 434 3316 
Q 434 3728 753 4026 
Q 1072 4325 1600 4325 
Q 2113 4325 2425 4047 
Q 2738 3769 2738 3413 
Q 2738 3175 2569 2928 
Q 2400 2681 1866 2347 
Q 2416 1922 2594 1678 
Q 2831 1359 2831 1006 
Q 2831 559 2490 242 
Q 2150 -75 1597 -75 
Q 994 -75 656 303 
Q 388 606 388 966 
Q 388 1247 577 1523 
Q 766 1800 1228 2134 
z
M 1719 2469 
Q 2094 2806 2194 3001 
Q 2294 3197 2294 3444 
Q 2294 3772 2109 3958 
Q 1925 4144 1606 4144 
Q 1288 4144 1088 3959 
Q 888 3775 888 3528 
Q 888 3366 970 3203 
Q 1053 3041 1206 2894 
L 1719 2469 
z
M 1375 2016 
Q 1116 1797 991 1539 
Q 866 1281 866 981 
Q 866 578 1086 336 
Q 1306 94 1647 94 
Q 1984 94 2187 284 
Q 2391 475 2391 747 
Q 2391 972 2272 1150 
Q 2050 1481 1375 2016 
z
" transform="scale(0.015625)"/>
       </defs>
       <use xlink:href="#TimesNewRomanPSMT-30"/>
       <use xlink:href="#TimesNewRomanPSMT-2e" transform="translate(50 0)"/>
       <use xlink:href="#TimesNewRomanPSMT-38" transform="translate(75 0)"/>
      </g>
     </g>
    </g>
    <g id="ytick_12">
     <g id="line2d_26">
      <g>
       <use xlink:href="#m5e66b2a638" x="498.315937" y="12.060625" style="stroke: #000000; stroke-width: 0.8"/>
      </g>
     </g>
     <g id="text_22">
      <!-- 1.0 -->
      <g transform="translate(505.315937 16.92125) scale(0.14 -0.14)">
       <use xlink:href="#TimesNewRomanPSMT-31"/>
       <use xlink:href="#TimesNewRomanPSMT-2e" transform="translate(50 0)"/>
       <use xlink:href="#TimesNewRomanPSMT-30" transform="translate(75 0)"/>
      </g>
     </g>
    </g>
    <g id="text_23">
     <!-- w -->
     <g transform="translate(536.537188 238.875937) rotate(-90) scale(0.14 -0.14)">
      <defs>
       <path id="TimesNewRomanPSMT-77" d="M 41 2863 
L 1241 2863 
L 1241 2747 
Q 1075 2734 1023 2687 
Q 972 2641 972 2553 
Q 972 2456 1025 2319 
L 1638 672 
L 2253 2013 
L 2091 2434 
Q 2016 2622 1894 2694 
Q 1825 2738 1638 2747 
L 1638 2863 
L 3000 2863 
L 3000 2747 
Q 2775 2738 2681 2666 
Q 2619 2616 2619 2506 
Q 2619 2444 2644 2378 
L 3294 734 
L 3897 2319 
Q 3959 2488 3959 2588 
Q 3959 2647 3898 2694 
Q 3838 2741 3659 2747 
L 3659 2863 
L 4563 2863 
L 4563 2747 
Q 4291 2706 4163 2378 
L 3206 -88 
L 3078 -88 
L 2363 1741 
L 1528 -88 
L 1413 -88 
L 494 2319 
Q 403 2547 315 2626 
Q 228 2706 41 2747 
L 41 2863 
z
" transform="scale(0.015625)"/>
      </defs>
      <use xlink:href="#TimesNewRomanPSMT-77"/>
     </g>
    </g>
   </g>
   <g id="line2d_27">
    <path d="M 51.915937 411.228625 
L 59.263141 397.667705 
L 66.661366 384.478091 
L 74.059592 371.739624 
L 81.50884 359.353505 
L 89.00911 347.313444 
L 96.50938 335.690792 
L 104.060672 324.3961 
L 111.662986 313.42325 
L 119.316323 302.766109 
L 127.020682 292.418538 
L 134.776064 282.374397 
L 142.582467 272.627548 
L 150.439893 263.171866 
L 158.348341 254.001242 
L 166.307811 245.109587 
L 174.369326 236.436975 
L 182.481863 228.035258 
L 190.696444 219.848368 
L 198.962048 211.92384 
L 207.329696 204.209271 
L 215.799389 196.70382 
L 224.320104 189.448954 
L 232.942863 182.397351 
L 241.718689 175.50833 
L 250.59656 168.822654 
L 259.576475 162.338291 
L 268.709457 156.018453 
L 277.944483 149.898207 
L 287.332576 143.943159 
L 296.873736 138.15456 
L 306.567963 132.533254 
L 316.415256 127.079696 
L 326.466638 121.76763 
L 336.72211 116.600481 
L 347.130648 111.604998 
L 357.794297 106.734537 
L 368.662035 102.015969 
L 379.784884 97.430061 
L 391.162845 92.980769 
L 402.795917 88.671368 
L 414.735122 84.487085 
L 426.929439 80.449213 
L 439.480911 76.52805 
L 452.389539 72.729693 
L 465.655323 69.059284 
L 479.329285 65.508202 
L 493.411424 62.082214 
L 498.360582 60.931048 
L 498.360582 60.931048 
" clip-path="url(#p6845e46209)" style="fill: none; stroke-dasharray: 5.55,2.4; stroke-dashoffset: 0; stroke: #0000ff; stroke-width: 1.5"/>
   </g>
   <g id="line2d_28">
    <path d="M 51.915937 366.876625 
L 59.365185 354.657972 
L 66.865455 342.780697 
L 74.416748 331.238567 
L 82.019062 320.02533 
L 89.621377 309.206033 
L 97.274713 298.698026 
L 104.979072 288.495258 
L 112.734454 278.591672 
L 120.540857 268.981218 
L 128.398283 259.657858 
L 136.357753 250.558314 
L 144.368246 241.738057 
L 152.42976 233.190912 
L 160.59332 224.859659 
L 168.807901 216.793147 
L 177.124527 208.937876 
L 185.492175 201.338563 
L 193.961868 193.945244 
L 202.533605 186.756829 
L 211.207387 179.771986 
L 219.983213 172.989143 
L 228.912106 166.36947 
L 237.943043 159.95108 
L 247.127047 153.697634 
L 256.413096 147.643509 
L 265.852211 141.754738 
L 275.444393 136.032434 
L 285.189642 130.477307 
L 295.13898 125.062558 
L 305.241384 119.817785 
L 315.547878 114.717829 
L 326.05846 109.765395 
L 336.773132 104.96264 
L 347.742914 100.29002 
L 358.916786 95.772004 
L 370.396791 91.371045 
L 382.131908 87.111334 
L 394.173158 82.978204 
L 406.520541 78.976252 
L 419.174058 75.10927 
L 432.18473 71.36603 
L 445.603581 67.738015 
L 459.430609 64.23167 
L 473.665815 60.85236 
L 488.360222 57.593474 
L 498.360582 55.501001 
L 498.360582 55.501001 
" clip-path="url(#p6845e46209)" style="fill: none; stroke-dasharray: 5.55,2.4; stroke-dashoffset: 0; stroke: #ff0000; stroke-width: 1.5"/>
   </g>
   <g id="line2d_29">
    <path d="M 51.915937 322.524625 
L 59.518252 311.617523 
L 67.171589 301.024239 
L 74.875948 290.738669 
L 82.631329 280.75471 
L 90.437733 271.066263 
L 98.295158 261.667239 
L 106.203606 252.551564 
L 114.214099 243.657591 
L 122.275613 235.039013 
L 130.38815 226.689642 
L 138.602732 218.553761 
L 146.868336 210.678606 
L 155.235984 203.012102 
L 163.705676 195.553413 
L 172.277414 188.301441 
L 180.951195 181.254839 
L 189.727021 174.412025 
L 198.604892 167.771192 
L 207.584807 161.330323 
L 216.717789 155.052874 
L 226.003838 148.94082 
L 235.391931 143.027135 
L 244.933091 137.278742 
L 254.678339 131.667768 
L 264.576655 126.225984 
L 274.628037 120.953346 
L 284.883509 115.824549 
L 295.343069 110.842431 
L 306.006718 106.009281 
L 316.925478 101.305436 
L 328.048328 96.755751 
L 339.426289 92.341602 
L 351.110383 88.048 
L 363.049588 83.897763 
L 375.294927 79.876467 
L 387.897421 75.972801 
L 400.857072 72.192724 
L 414.173878 68.541243 
L 427.898862 65.009725 
L 442.032023 61.603796 
L 456.624385 58.31692 
L 471.72697 55.144572 
L 487.339777 52.093585 
L 498.360582 50.070954 
L 498.360582 50.070954 
" clip-path="url(#p6845e46209)" style="fill: none; stroke-dasharray: 5.55,2.4; stroke-dashoffset: 0; stroke: #008000; stroke-width: 1.5"/>
   </g>
   <g id="line2d_30">
    <path d="M 51.915937 278.172625 
L 59.722341 268.577282 
L 67.579767 259.26858 
L 75.539237 250.183342 
L 83.549729 241.376952 
L 91.611244 232.843245 
L 99.774803 224.525092 
L 107.989385 216.471261 
L 116.306011 208.628341 
L 124.724681 200.995621 
L 133.194374 193.615697 
L 141.766111 186.440307 
L 150.439893 179.468119 
L 159.215719 172.697566 
L 168.144612 166.089887 
L 177.175549 159.683126 
L 186.359553 153.44101 
L 195.645602 147.397854 
L 205.084717 141.519753 
L 214.676899 135.807816 
L 224.422148 130.262754 
L 234.371486 124.857816 
L 244.47389 119.622546 
L 254.780384 114.531831 
L 265.290966 109.588369 
L 276.005638 104.794317 
L 286.975421 100.130162 
L 298.200315 95.600279 
L 309.68032 91.208348 
L 321.415436 86.957375 
L 333.456686 82.832723 
L 345.804069 78.838981 
L 358.508608 74.964832 
L 371.519281 71.230167 
L 384.938131 67.610464 
L 398.76516 64.112151 
L 413.000366 60.740583 
L 427.694773 57.489163 
L 442.899402 54.353276 
L 458.665275 51.330038 
L 474.992394 48.426769 
L 491.931779 45.641284 
L 498.360582 44.640907 
L 498.360582 44.640907 
" clip-path="url(#p6845e46209)" style="fill: none; stroke-dasharray: 5.55,2.4; stroke-dashoffset: 0; stroke: #ffa500; stroke-width: 1.5"/>
   </g>
   <g id="line2d_31">
    <path d="M 51.915937 233.820625 
L 60.079497 225.465648 
L 68.294078 217.376164 
L 76.610704 209.498524 
L 84.978352 201.87757 
L 93.448045 194.463197 
L 102.019782 187.254312 
L 110.693564 180.249578 
L 119.46939 173.44742 
L 128.347261 166.846043 
L 137.378198 160.407831 
L 146.51118 154.169177 
L 155.797228 148.094896 
L 165.236344 142.18652 
L 174.828526 136.445165 
L 184.573775 130.871544 
L 194.47209 125.465985 
L 204.574495 120.202487 
L 214.880988 115.084324 
L 225.391571 110.114209 
L 236.106242 105.294309 
L 247.025003 100.626261 
L 258.198874 96.091028 
L 269.627857 91.692408 
L 281.362974 87.415436 
L 293.353201 83.282652 
L 305.649562 79.279652 
L 318.303079 75.395137 
L 331.313752 71.634925 
L 344.68158 68.003887 
L 358.457586 64.493381 
L 372.64177 61.108891 
L 387.285154 57.843859 
L 402.438761 54.69372 
L 418.153613 51.655648 
L 434.429709 48.737108 
L 451.318072 45.935982 
L 468.869724 43.251312 
L 487.18671 40.676194 
L 498.360582 39.21086 
L 498.360582 39.21086 
" clip-path="url(#p6845e46209)" style="fill: none; stroke-dasharray: 5.55,2.4; stroke-dashoffset: 0; stroke: #800080; stroke-width: 1.5"/>
   </g>
   <g id="line2d_32">
    <path d="M 51.915937 189.468625 
L 60.538697 182.416241 
L 69.314523 175.526455 
L 78.192394 168.840038 
L 87.172309 162.354956 
L 96.305291 156.034417 
L 105.540317 149.913492 
L 114.92841 143.957784 
L 124.46957 138.168543 
L 134.163797 132.546614 
L 144.01109 127.092451 
L 154.062472 121.779796 
L 164.317943 116.612074 
L 174.726481 111.616037 
L 185.390131 106.745036 
L 196.257869 102.025945 
L 207.380718 97.439528 
L 218.758679 92.989742 
L 230.391751 88.679864 
L 242.330956 84.495117 
L 254.525273 80.456797 
L 267.076745 76.535199 
L 279.985373 72.736421 
L 293.251157 69.065605 
L 306.925118 65.514129 
L 321.007258 62.087761 
L 335.548598 58.779989 
L 350.549138 55.596777 
L 366.0599 52.533192 
L 382.131908 49.585979 
L 398.816182 46.753314 
L 416.163745 44.034553 
L 434.22562 41.429996 
L 453.103851 38.934199 
L 472.798437 36.556241 
L 493.462446 34.287107 
L 498.360582 33.780813 
L 498.360582 33.780813 
" clip-path="url(#p6845e46209)" style="fill: none; stroke-dasharray: 5.55,2.4; stroke-dashoffset: 0; stroke: #00ffff; stroke-width: 1.5"/>
   </g>
   <g id="patch_6">
    <path d="M 51.915937 455.580625 
L 51.915937 12.060625 
" style="fill: none; stroke: #000000; stroke-width: 0.8; stroke-linejoin: miter; stroke-linecap: square"/>
   </g>
   <g id="patch_7">
    <path d="M 498.315937 455.580625 
L 498.315937 12.060625 
" style="fill: none; stroke: #000000; stroke-width: 0.8; stroke-linejoin: miter; stroke-linecap: square"/>
   </g>
   <g id="patch_8">
    <path d="M 51.915937 455.580625 
L 498.315937 455.580625 
" style="fill: none; stroke: #000000; stroke-width: 0.8; stroke-linejoin: miter; stroke-linecap: square"/>
   </g>
   <g id="patch_9">
    <path d="M 51.915937 12.060625 
L 498.315937 12.060625 
" style="fill: none; stroke: #000000; stroke-width: 0.8; stroke-linejoin: miter; stroke-linecap: square"/>
   </g>
  </g>
 </g>
 <defs>
  <clipPath id="p6845e46209">
   <rect x="51.915937" y="12.060625" width="446.4" height="443.52"/>
  </clipPath>
 </defs>
</svg>
