<?xml version="1.0" encoding="utf-8" standalone="no"?>
<!DOCTYPE svg PUBLIC "-//W3C//DTD SVG 1.1//EN"
  "http://www.w3.org/Graphics/SVG/1.1/DTD/svg11.dtd">
<svg xmlns:xlink="http://www.w3.org/1999/xlink" width="546.731875pt" height="499.2125pt" viewBox="0 0 546.731875 499.2125" xmlns="http://www.w3.org/2000/svg" version="1.1">
 <metadata>
  <rdf:RDF xmlns:dc="http://purl.org/dc/elements/1.1/" xmlns:cc="http://creativecommons.org/ns#" xmlns:rdf="http://www.w3.org/1999/02/22-rdf-syntax-ns#">
   <cc:Work>
    <dc:type rdf:resource="http://purl.org/dc/dcmitype/StillImage"/>
    <dc:date>2025-11-11T14:34:25.197744</dc:date>
    <dc:format>image/svg+xml</dc:format>
    <dc:creator>
     <cc:Agent>
      <dc:title>Matplotlib v3.10.7, https://matplotlib.org/</dc:title>
     </cc:Agent>
    </dc:creator>
   </cc:Work>
  </rdf:RDF>
 </metadata>
 <defs>
  <style type="text/css">*{stroke-linejoin: round; stroke-linecap: butt}</style>
 </defs>
 <g id="figure_1">
  <g id="patch_1">
   <path d="M 0 499.2125 
L 546.731875 499.2125 
L 546.731875 0 
L 0 0 
z
" style="fill: #ffffff"/>
  </g>
  <g id="axes_1">
   <g id="patch_2">
    <path d="M 51.915937 455.580625 
L 498.315937 455.580625 
L 498.315937 12.060625 
L 51.915937 12.060625 
z
" style="fill: #ffffff"/>
   </g>
   <g id="matplotlib.axis_1">
    <g id="xtick_1">
     <g id="line2d_1">
      <defs>
       <path id="m153eb6350e" d="M 0 0 
L 0 3.5 
" style="stroke: #000000; stroke-width: 0.8"/>
      </defs>
      <g>
       <use xlink:href="#m153eb6350e" x="51.915937" y="455.580625" style="stroke: #000000; stroke-width: 0.8"/>
      </g>
     </g>
     <g id="text_1">
      <!-- 0 -->
      <g transform="translate(48.415937 472.301875) scale(0.14 -0.14)">
       <defs>
        <path id="TimesNewRomanPSMT-30" d="M 231 2094 
Q 231 2819 450 3342 
Q 669 3866 1031 4122 
Q 1313 4325 1613 4325 
Q 2100 4325 2488 3828 
Q 2972 3213 2972 2159 
Q 2972 1422 2759 906 
Q 2547 391 2217 158 
Q 1888 -75 1581 -75 
Q 975 -75 572 641 
Q 231 1244 231 2094 
z
M 844 2016 
Q 844 1141 1059 588 
Q 1238 122 1591 122 
Q 1759 122 1940 273 
Q 2122 425 2216 781 
Q 2359 1319 2359 2297 
Q 2359 3022 2209 3506 
Q 2097 3866 1919 4016 
Q 1791 4119 1609 4119 
Q 1397 4119 1231 3928 
Q 1006 3669 925 3112 
Q 844 2556 844 2016 
z
" transform="scale(0.015625)"/>
       </defs>
       <use xlink:href="#TimesNewRomanPSMT-30"/>
      </g>
     </g>
    </g>
    <g id="xtick_2">
     <g id="line2d_2">
      <g>
       <use xlink:href="#m153eb6350e" x="107.715937" y="455.580625" style="stroke: #000000; stroke-width: 0.8"/>
      </g>
     </g>
     <g id="text_2">
      <!-- 1 -->
      <g transform="translate(104.215937 472.301875) scale(0.14 -0.14)">
       <defs>
        <path id="TimesNewRomanPSMT-31" d="M 750 3822 
L 1781 4325 
L 1884 4325 
L 1884 747 
Q 1884 391 1914 303 
Q 1944 216 2037 169 
Q 2131 122 2419 116 
L 2419 0 
L 825 0 
L 825 116 
Q 1125 122 1212 167 
Q 1300 213 1334 289 
Q 1369 366 1369 747 
L 1369 3034 
Q 1369 3497 1338 3628 
Q 1316 3728 1258 3775 
Q 1200 3822 1119 3822 
Q 1003 3822 797 3725 
L 750 3822 
z
" transform="scale(0.015625)"/>
       </defs>
       <use xlink:href="#TimesNewRomanPSMT-31"/>
      </g>
     </g>
    </g>
    <g id="xtick_3">
     <g id="line2d_3">
      <g>
       <use xlink:href="#m153eb6350e" x="163.515938" y="455.580625" style="stroke: #000000; stroke-width: 0.8"/>
      </g>
     </g>
     <g id="text_3">
      <!-- 2 -->
      <g transform="translate(160.015938 472.301875) scale(0.14 -0.14)">
       <defs>
        <path id="TimesNewRomanPSMT-32" d="M 2934 816 
L 2638 0 
L 138 0 
L 138 116 
Q 1241 1122 1691 1759 
Q 2141 2397 2141 2925 
Q 2141 3328 1894 3587 
Q 1647 3847 1303 3847 
Q 991 3847 742 3664 
Q 494 3481 375 3128 
L 259 3128 
Q 338 3706 661 4015 
Q 984 4325 1469 4325 
Q 1984 4325 2329 3994 
Q 2675 3663 2675 3213 
Q 2675 2891 2525 2569 
Q 2294 2063 1775 1497 
Q 997 647 803 472 
L 1909 472 
Q 2247 472 2383 497 
Q 2519 522 2628 598 
Q 2738 675 2819 816 
L 2934 816 
z
" transform="scale(0.015625)"/>
       </defs>
       <use xlink:href="#TimesNewRomanPSMT-32"/>
      </g>
     </g>
    </g>
    <g id="xtick_4">
     <g id="line2d_4">
      <g>
       <use xlink:href="#m153eb6350e" x="219.315937" y="455.580625" style="stroke: #000000; stroke-width: 0.8"/>
      </g>
     </g>
     <g id="text_4">
      <!-- 3 -->
      <g transform="translate(215.815937 472.301875) scale(0.14 -0.14)">
       <defs>
        <path id="TimesNewRomanPSMT-33" d="M 325 3431 
Q 506 3859 782 4092 
Q 1059 4325 1472 4325 
Q 1981 4325 2253 3994 
Q 2459 3747 2459 3466 
Q 2459 3003 1878 2509 
Q 2269 2356 2469 2072 
Q 2669 1788 2669 1403 
Q 2669 853 2319 450 
Q 1863 -75 997 -75 
Q 569 -75 414 31 
Q 259 138 259 259 
Q 259 350 332 419 
Q 406 488 509 488 
Q 588 488 669 463 
Q 722 447 909 348 
Q 1097 250 1169 231 
Q 1284 197 1416 197 
Q 1734 197 1970 444 
Q 2206 691 2206 1028 
Q 2206 1275 2097 1509 
Q 2016 1684 1919 1775 
Q 1784 1900 1550 2001 
Q 1316 2103 1072 2103 
L 972 2103 
L 972 2197 
Q 1219 2228 1467 2375 
Q 1716 2522 1828 2728 
Q 1941 2934 1941 3181 
Q 1941 3503 1739 3701 
Q 1538 3900 1238 3900 
Q 753 3900 428 3381 
L 325 3431 
z
" transform="scale(0.015625)"/>
       </defs>
       <use xlink:href="#TimesNewRomanPSMT-33"/>
      </g>
     </g>
    </g>
    <g id="xtick_5">
     <g id="line2d_5">
      <g>
       <use xlink:href="#m153eb6350e" x="275.115937" y="455.580625" style="stroke: #000000; stroke-width: 0.8"/>
      </g>
     </g>
     <g id="text_5">
      <!-- 4 -->
      <g transform="translate(271.615937 472.301875) scale(0.14 -0.14)">
       <defs>
        <path id="TimesNewRomanPSMT-34" d="M 2978 1563 
L 2978 1119 
L 2409 1119 
L 2409 0 
L 1894 0 
L 1894 1119 
L 100 1119 
L 100 1519 
L 2066 4325 
L 2409 4325 
L 2409 1563 
L 2978 1563 
z
M 1894 1563 
L 1894 3666 
L 406 1563 
L 1894 1563 
z
" transform="scale(0.015625)"/>
       </defs>
       <use xlink:href="#TimesNewRomanPSMT-34"/>
      </g>
     </g>
    </g>
    <g id="xtick_6">
     <g id="line2d_6">
      <g>
       <use xlink:href="#m153eb6350e" x="330.915937" y="455.580625" style="stroke: #000000; stroke-width: 0.8"/>
      </g>
     </g>
     <g id="text_6">
      <!-- 5 -->
      <g transform="translate(327.415937 472.301875) scale(0.14 -0.14)">
       <defs>
        <path id="TimesNewRomanPSMT-35" d="M 2778 4238 
L 2534 3706 
L 1259 3706 
L 981 3138 
Q 1809 3016 2294 2522 
Q 2709 2097 2709 1522 
Q 2709 1188 2573 903 
Q 2438 619 2231 419 
Q 2025 219 1772 97 
Q 1413 -75 1034 -75 
Q 653 -75 479 54 
Q 306 184 306 341 
Q 306 428 378 495 
Q 450 563 559 563 
Q 641 563 702 538 
Q 763 513 909 409 
Q 1144 247 1384 247 
Q 1750 247 2026 523 
Q 2303 800 2303 1197 
Q 2303 1581 2056 1914 
Q 1809 2247 1375 2428 
Q 1034 2569 447 2591 
L 1259 4238 
L 2778 4238 
z
" transform="scale(0.015625)"/>
       </defs>
       <use xlink:href="#TimesNewRomanPSMT-35"/>
      </g>
     </g>
    </g>
    <g id="xtick_7">
     <g id="line2d_7">
      <g>
       <use xlink:href="#m153eb6350e" x="386.715937" y="455.580625" style="stroke: #000000; stroke-width: 0.8"/>
      </g>
     </g>
     <g id="text_7">
      <!-- 6 -->
      <g transform="translate(383.215937 472.301875) scale(0.14 -0.14)">
       <defs>
        <path id="TimesNewRomanPSMT-36" d="M 2869 4325 
L 2869 4209 
Q 2456 4169 2195 4045 
Q 1934 3922 1679 3669 
Q 1425 3416 1258 3105 
Q 1091 2794 978 2366 
Q 1428 2675 1881 2675 
Q 2316 2675 2634 2325 
Q 2953 1975 2953 1425 
Q 2953 894 2631 456 
Q 2244 -75 1606 -75 
Q 1172 -75 869 213 
Q 275 772 275 1663 
Q 275 2231 503 2743 
Q 731 3256 1154 3653 
Q 1578 4050 1965 4187 
Q 2353 4325 2688 4325 
L 2869 4325 
z
M 925 2138 
Q 869 1716 869 1456 
Q 869 1156 980 804 
Q 1091 453 1309 247 
Q 1469 100 1697 100 
Q 1969 100 2183 356 
Q 2397 613 2397 1088 
Q 2397 1622 2184 2012 
Q 1972 2403 1581 2403 
Q 1463 2403 1327 2353 
Q 1191 2303 925 2138 
z
" transform="scale(0.015625)"/>
       </defs>
       <use xlink:href="#TimesNewRomanPSMT-36"/>
      </g>
     </g>
    </g>
    <g id="xtick_8">
     <g id="line2d_8">
      <g>
       <use xlink:href="#m153eb6350e" x="442.515937" y="455.580625" style="stroke: #000000; stroke-width: 0.8"/>
      </g>
     </g>
     <g id="text_8">
      <!-- 7 -->
      <g transform="translate(439.015937 472.301875) scale(0.14 -0.14)">
       <defs>
        <path id="TimesNewRomanPSMT-37" d="M 644 4238 
L 2916 4238 
L 2916 4119 
L 1503 -88 
L 1153 -88 
L 2419 3728 
L 1253 3728 
Q 900 3728 750 3644 
Q 488 3500 328 3200 
L 238 3234 
L 644 4238 
z
" transform="scale(0.015625)"/>
       </defs>
       <use xlink:href="#TimesNewRomanPSMT-37"/>
      </g>
     </g>
    </g>
    <g id="xtick_9">
     <g id="line2d_9">
      <g>
       <use xlink:href="#m153eb6350e" x="498.315937" y="455.580625" style="stroke: #000000; stroke-width: 0.8"/>
      </g>
     </g>
     <g id="text_9">
      <!-- 8 -->
      <g transform="translate(494.815937 472.301875) scale(0.14 -0.14)">
       <defs>
        <path id="TimesNewRomanPSMT-38" d="M 1228 2134 
Q 725 2547 579 2797 
Q 434 3047 434 3316 
Q 434 3728 753 4026 
Q 1072 4325 1600 4325 
Q 2113 4325 2425 4047 
Q 2738 3769 2738 3413 
Q 2738 3175 2569 2928 
Q 2400 2681 1866 2347 
Q 2416 1922 2594 1678 
Q 2831 1359 2831 1006 
Q 2831 559 2490 242 
Q 2150 -75 1597 -75 
Q 994 -75 656 303 
Q 388 606 388 966 
Q 388 1247 577 1523 
Q 766 1800 1228 2134 
z
M 1719 2469 
Q 2094 2806 2194 3001 
Q 2294 3197 2294 3444 
Q 2294 3772 2109 3958 
Q 1925 4144 1606 4144 
Q 1288 4144 1088 3959 
Q 888 3775 888 3528 
Q 888 3366 970 3203 
Q 1053 3041 1206 2894 
L 1719 2469 
z
M 1375 2016 
Q 1116 1797 991 1539 
Q 866 1281 866 981 
Q 866 578 1086 336 
Q 1306 94 1647 94 
Q 1984 94 2187 284 
Q 2391 475 2391 747 
Q 2391 972 2272 1150 
Q 2050 1481 1375 2016 
z
" transform="scale(0.015625)"/>
       </defs>
       <use xlink:href="#TimesNewRomanPSMT-38"/>
      </g>
     </g>
    </g>
    <g id="text_10">
     <!-- t -->
     <g transform="translate(273.17125 489.017812) scale(0.14 -0.14)">
      <defs>
       <path id="TimesNewRomanPSMT-74" d="M 1031 3803 
L 1031 2863 
L 1700 2863 
L 1700 2644 
L 1031 2644 
L 1031 788 
Q 1031 509 1111 412 
Q 1191 316 1316 316 
Q 1419 316 1516 380 
Q 1613 444 1666 569 
L 1788 569 
Q 1678 263 1478 108 
Q 1278 -47 1066 -47 
Q 922 -47 784 33 
Q 647 113 581 261 
Q 516 409 516 719 
L 516 2644 
L 63 2644 
L 63 2747 
Q 234 2816 414 2980 
Q 594 3144 734 3369 
Q 806 3488 934 3803 
L 1031 3803 
z
" transform="scale(0.015625)"/>
      </defs>
      <use xlink:href="#TimesNewRomanPSMT-74"/>
     </g>
    </g>
   </g>
   <g id="matplotlib.axis_2">
    <g id="ytick_1">
     <g id="line2d_10">
      <defs>
       <path id="m63da904b66" d="M 0 0 
L -3.5 0 
" style="stroke: #000000; stroke-width: 0.8"/>
      </defs>
      <g>
       <use xlink:href="#m63da904b66" x="51.915937" y="455.580625" style="stroke: #000000; stroke-width: 0.8"/>
      </g>
     </g>
     <g id="text_11">
      <!-- 0 -->
      <g transform="translate(37.915937 460.44125) scale(0.14 -0.14)">
       <use xlink:href="#TimesNewRomanPSMT-30"/>
      </g>
     </g>
    </g>
    <g id="ytick_2">
     <g id="line2d_11">
      <g>
       <use xlink:href="#m63da904b66" x="51.915937" y="366.876625" style="stroke: #000000; stroke-width: 0.8"/>
      </g>
     </g>
     <g id="text_12">
      <!-- 100 -->
      <g transform="translate(23.915937 371.73725) scale(0.14 -0.14)">
       <use xlink:href="#TimesNewRomanPSMT-31"/>
       <use xlink:href="#TimesNewRomanPSMT-30" transform="translate(50 0)"/>
       <use xlink:href="#TimesNewRomanPSMT-30" transform="translate(100 0)"/>
      </g>
     </g>
    </g>
    <g id="ytick_3">
     <g id="line2d_12">
      <g>
       <use xlink:href="#m63da904b66" x="51.915937" y="278.172625" style="stroke: #000000; stroke-width: 0.8"/>
      </g>
     </g>
     <g id="text_13">
      <!-- 200 -->
      <g transform="translate(23.915937 283.03325) scale(0.14 -0.14)">
       <use xlink:href="#TimesNewRomanPSMT-32"/>
       <use xlink:href="#TimesNewRomanPSMT-30" transform="translate(50 0)"/>
       <use xlink:href="#TimesNewRomanPSMT-30" transform="translate(100 0)"/>
      </g>
     </g>
    </g>
    <g id="ytick_4">
     <g id="line2d_13">
      <g>
       <use xlink:href="#m63da904b66" x="51.915937" y="189.468625" style="stroke: #000000; stroke-width: 0.8"/>
      </g>
     </g>
     <g id="text_14">
      <!-- 300 -->
      <g transform="translate(23.915937 194.32925) scale(0.14 -0.14)">
       <use xlink:href="#TimesNewRomanPSMT-33"/>
       <use xlink:href="#TimesNewRomanPSMT-30" transform="translate(50 0)"/>
       <use xlink:href="#TimesNewRomanPSMT-30" transform="translate(100 0)"/>
      </g>
     </g>
    </g>
    <g id="ytick_5">
     <g id="line2d_14">
      <g>
       <use xlink:href="#m63da904b66" x="51.915937" y="100.764625" style="stroke: #000000; stroke-width: 0.8"/>
      </g>
     </g>
     <g id="text_15">
      <!-- 400 -->
      <g transform="translate(23.915937 105.62525) scale(0.14 -0.14)">
       <use xlink:href="#TimesNewRomanPSMT-34"/>
       <use xlink:href="#TimesNewRomanPSMT-30" transform="translate(50 0)"/>
       <use xlink:href="#TimesNewRomanPSMT-30" transform="translate(100 0)"/>
      </g>
     </g>
    </g>
    <g id="ytick_6">
     <g id="line2d_15">
      <g>
       <use xlink:href="#m63da904b66" x="51.915937" y="12.060625" style="stroke: #000000; stroke-width: 0.8"/>
      </g>
     </g>
     <g id="text_16">
      <!-- 500 -->
      <g transform="translate(23.915937 16.92125) scale(0.14 -0.14)">
       <use xlink:href="#TimesNewRomanPSMT-35"/>
       <use xlink:href="#TimesNewRomanPSMT-30" transform="translate(50 0)"/>
       <use xlink:href="#TimesNewRomanPSMT-30" transform="translate(100 0)"/>
      </g>
     </g>
    </g>
    <g id="text_17">
     <!-- s -->
     <g transform="translate(16.92125 236.545156) rotate(-90) scale(0.14 -0.14)">
      <defs>
       <path id="TimesNewRomanPSMT-73" d="M 2050 2947 
L 2050 1972 
L 1947 1972 
Q 1828 2431 1642 2597 
Q 1456 2763 1169 2763 
Q 950 2763 815 2647 
Q 681 2531 681 2391 
Q 681 2216 781 2091 
Q 878 1963 1175 1819 
L 1631 1597 
Q 2266 1288 2266 781 
Q 2266 391 1970 151 
Q 1675 -88 1309 -88 
Q 1047 -88 709 6 
Q 606 38 541 38 
Q 469 38 428 -44 
L 325 -44 
L 325 978 
L 428 978 
Q 516 541 762 319 
Q 1009 97 1316 97 
Q 1531 97 1667 223 
Q 1803 350 1803 528 
Q 1803 744 1651 891 
Q 1500 1038 1047 1263 
Q 594 1488 453 1669 
Q 313 1847 313 2119 
Q 313 2472 555 2709 
Q 797 2947 1181 2947 
Q 1350 2947 1591 2875 
Q 1750 2828 1803 2828 
Q 1853 2828 1881 2850 
Q 1909 2872 1947 2947 
L 2050 2947 
z
" transform="scale(0.015625)"/>
      </defs>
      <use xlink:href="#TimesNewRomanPSMT-73"/>
     </g>
    </g>
   </g>
   <g id="line2d_16">
    <path d="M 51.915937 100.764625 
L 55.130339 120.089213 
L 58.34474 138.071537 
L 61.603786 155.046835 
L 64.862832 170.862016 
L 68.166523 185.808255 
L 71.514857 199.933559 
L 74.907837 213.283548 
L 78.300816 225.743154 
L 81.73844 237.532735 
L 85.220708 248.688915 
L 88.747621 259.246434 
L 92.319178 269.238218 
L 95.935379 278.695454 
L 99.596226 287.647668 
L 103.301716 296.122795 
L 107.051851 304.147252 
L 110.846631 311.746014 
L 114.686055 318.942675 
L 118.614767 325.835316 
L 122.588125 332.359555 
L 126.650771 338.60262 
L 130.758062 344.509318 
L 134.954641 350.157144 
L 139.24051 355.553136 
L 143.615667 360.704676 
L 148.080114 365.619407 
L 152.678494 370.349551 
L 157.366163 374.852817 
L 162.187765 379.176456 
L 167.1433 383.321225 
L 172.232769 387.28877 
L 177.500816 391.112774 
L 182.947441 394.789752 
L 188.572643 398.317564 
L 194.376424 401.695278 
L 200.403426 404.94621 
L 206.698296 408.087664 
L 213.261032 411.112035 
L 220.091635 414.013623 
L 227.234749 416.805187 
L 234.735019 419.495512 
L 242.592445 422.076062 
L 250.851671 424.553322 
L 259.557342 426.931195 
L 268.754101 429.211536 
L 278.531239 431.404156 
L 288.888755 433.496813 
L 299.915937 435.495838 
L 311.702076 437.403877 
L 324.33646 439.220803 
L 337.908377 440.944561 
L 352.507117 442.571924 
L 368.311257 444.107262 
L 385.499376 445.550566 
L 404.250051 446.898974 
L 424.875793 448.155616 
L 447.64447 449.316231 
L 473.002526 450.381919 
L 498.315937 451.253788 
L 498.315937 451.253788 
" clip-path="url(#p9167a4a6d8)" style="fill: none; stroke: #ffa500; stroke-width: 1.5; stroke-linecap: square"/>
   </g>
   <g id="line2d_17">
    <path d="M 51.915937 100.764625 
L 55.264272 119.385343 
L 58.612607 136.770674 
L 62.005586 153.220201 
L 65.398566 168.586998 
L 68.83619 183.140038 
L 72.318458 196.92274 
L 75.84537 209.976504 
L 79.372283 222.191148 
L 82.94384 233.772663 
L 86.560042 244.754521 
L 90.220888 255.168512 
L 93.926379 265.044809 
L 97.676514 274.412031 
L 101.471293 283.297314 
L 105.310717 291.726374 
L 109.194785 299.72357 
L 113.123498 307.31197 
L 117.1415 314.591761 
L 121.204146 321.4956 
L 125.356082 328.112906 
L 129.552661 334.385606 
L 133.83853 340.393426 
L 138.213687 346.143089 
L 142.678134 351.64168 
L 147.231869 356.896568 
L 151.874893 361.915328 
L 156.607207 366.705687 
L 161.473453 371.31638 
L 166.473633 375.747337 
L 171.607747 379.999407 
L 176.875793 384.074255 
L 182.322418 388.005378 
L 187.947621 391.789417 
L 193.751401 395.42427 
L 199.733759 398.908963 
L 205.93934 402.266812 
L 212.412787 405.515239 
L 219.109457 408.626706 
L 226.118638 411.636844 
L 233.44033 414.536925 
L 241.074533 417.32023 
L 249.065892 419.996204 
L 257.459052 422.571123 
L 266.298656 425.04866 
L 275.629349 427.430393 
L 285.451131 429.706437 
L 295.853291 431.887329 
L 306.925118 433.97888 
L 318.666613 435.96882 
L 331.211707 437.867384 
L 344.649691 439.67354 
L 359.069853 441.384649 
L 374.606127 443.001511 
L 391.392445 444.52235 
L 409.652031 445.950327 
L 429.563462 447.281397 
L 451.43925 448.517482 
L 475.591905 449.655922 
L 498.315937 450.549265 
L 498.315937 450.549265 
" clip-path="url(#p9167a4a6d8)" style="fill: none; stroke: #000000; stroke-width: 1.5; stroke-linecap: square"/>
   </g>
   <g id="line2d_18">
    <path d="M 51.915937 100.764625 
L 55.800006 118.523007 
L 59.550141 134.643342 
L 63.300276 149.800229 
L 67.095055 164.221341 
L 70.934479 177.940957 
L 74.818548 190.993368 
L 78.702616 203.274796 
L 82.631329 214.969914 
L 86.604686 226.10739 
L 90.622688 236.714543 
L 94.685334 246.817381 
L 98.792625 256.440656 
L 102.94456 265.607913 
L 107.14114 274.341541 
L 111.427009 282.747846 
L 115.757522 290.752309 
L 120.132679 298.37504 
L 124.597126 305.706297 
L 129.106217 312.684854 
L 133.704596 319.391832 
L 138.347621 325.773721 
L 143.079934 331.903375 
L 147.901536 337.786902 
L 152.812427 343.430664 
L 157.812607 348.841221 
L 162.946721 354.069381 
L 168.170123 359.072628 
L 173.527459 363.897261 
L 179.018728 368.543537 
L 184.64393 373.012448 
L 190.447711 377.337859 
L 196.385424 381.485724 
L 202.501716 385.487364 
L 208.796586 389.34079 
L 215.314677 393.06965 
L 222.055992 396.668805 
L 229.020528 400.13441 
L 236.252931 403.483744 
L 243.753201 406.710967 
L 251.565983 409.828833 
L 259.691275 412.830417 
L 268.173723 415.725067 
L 277.013327 418.505537 
L 286.254731 421.178733 
L 295.94258 423.749052 
L 306.121518 426.218837 
L 316.83619 428.588792 
L 328.131239 430.858372 
L 340.095956 433.033856 
L 352.774983 435.110928 
L 366.212967 437.085321 
L 380.54384 438.964132 
L 395.856892 440.745048 
L 412.286055 442.429004 
L 429.920618 444.010566 
L 448.983804 445.494364 
L 469.698836 446.880305 
L 492.288935 448.165217 
L 498.315937 448.473135 
L 498.315937 448.473135 
" clip-path="url(#p9167a4a6d8)" style="fill: none; stroke: #00ff00; stroke-width: 1.5; stroke-linecap: square"/>
   </g>
   <g id="line2d_19">
    <path d="M 51.915937 100.764625 
L 57.050051 118.276141 
L 61.648431 133.172455 
L 66.157522 147.034322 
L 70.666613 160.187056 
L 75.220348 172.789857 
L 79.818728 184.864049 
L 84.461752 196.431296 
L 89.149421 207.512774 
L 93.881734 218.128919 
L 98.658692 228.299357 
L 103.480294 238.042901 
L 108.346541 247.377574 
L 113.257432 256.320629 
L 118.212967 264.888585 
L 123.257792 273.168649 
L 128.347261 281.097333 
L 133.526019 288.753988 
L 138.749421 296.082156 
L 144.062112 303.153986 
L 149.464092 309.974192 
L 154.955361 316.547748 
L 160.535919 322.879852 
L 166.205766 328.975886 
L 171.964902 334.841387 
L 177.813327 340.482012 
L 183.795685 345.94316 
L 189.911977 351.224215 
L 196.117558 356.289778 
L 202.501716 361.213273 
L 209.019808 365.958353 
L 215.671833 370.526642 
L 222.502436 374.948252 
L 229.511617 379.220708 
L 236.699376 383.342339 
L 244.110357 387.335529 
L 251.74456 391.19571 
L 259.601986 394.919336 
L 267.727279 398.522972 
L 276.120438 402.00113 
L 284.781464 405.349505 
L 293.755001 408.58041 
L 303.085694 411.702773 
L 312.773543 414.709254 
L 322.863192 417.60635 
L 333.354641 420.386793 
L 344.33718 423.065835 
L 355.810807 425.634176 
L 367.820168 428.093258 
L 380.454551 430.451235 
L 393.713957 432.697965 
L 407.687675 434.838754 
L 422.464992 436.87593 
L 438.135199 438.809511 
L 454.787585 440.637843 
L 472.556082 442.36227 
L 491.574623 443.981602 
L 498.315937 444.505219 
L 498.315937 444.505219 
" clip-path="url(#p9167a4a6d8)" style="fill: none; stroke: #0000ff; stroke-width: 1.5; stroke-linecap: square"/>
   </g>
   <g id="line2d_20">
    <path d="M 51.915937 100.764625 
L 59.996586 121.348594 
L 65.800366 135.506953 
L 71.380924 148.542547 
L 76.961482 161.014545 
L 82.54204 172.942648 
L 88.122598 184.350732 
L 93.747801 195.348496 
L 99.417648 205.948417 
L 105.132139 216.162889 
L 110.891275 226.004077 
L 116.695055 235.48386 
L 122.54348 244.613815 
L 128.43655 253.405215 
L 134.418908 261.931216 
L 140.44591 270.134721 
L 146.517558 278.026459 
L 152.678494 285.670975 
L 158.884074 293.019339 
L 165.178944 300.13096 
L 171.563102 307.008841 
L 178.03655 313.656238 
L 184.599286 320.076645 
L 191.251311 326.273764 
L 197.992625 332.251492 
L 204.867873 338.050618 
L 211.832409 343.635006 
L 218.930879 349.042377 
L 226.163282 354.272361 
L 233.529619 359.325087 
L 241.029889 364.201139 
L 248.708737 368.928275 
L 256.566163 373.503554 
L 264.602166 377.924751 
L 272.816748 382.190313 
L 281.254551 386.320542 
L 289.915577 390.311375 
L 298.799826 394.15962 
L 307.951941 397.880492 
L 317.371923 401.469067 
L 327.059772 404.921446 
L 337.060132 408.249057 
L 347.417648 411.4603 
L 358.132319 414.54852 
L 369.248791 417.519891 
L 380.767063 420.367779 
L 392.776424 423.106571 
L 405.276874 425.72775 
L 418.313057 428.232827 
L 431.974263 430.629642 
L 446.260492 432.908859 
L 461.261032 435.075671 
L 477.065172 437.132503 
L 493.762202 439.079626 
L 498.315937 439.573677 
L 498.315937 439.573677 
" clip-path="url(#p9167a4a6d8)" style="fill: none; stroke: #ff0000; stroke-width: 1.5; stroke-linecap: square"/>
   </g>
   <g id="patch_3">
    <path d="M 51.915937 455.580625 
L 51.915937 12.060625 
" style="fill: none; stroke: #000000; stroke-width: 0.8; stroke-linejoin: miter; stroke-linecap: square"/>
   </g>
   <g id="patch_4">
    <path d="M 51.915937 455.580625 
L 498.315937 455.580625 
" style="fill: none; stroke: #000000; stroke-width: 0.8; stroke-linejoin: miter; stroke-linecap: square"/>
   </g>
  </g>
  <g id="axes_2">
   <g id="matplotlib.axis_3">
    <g id="ytick_7">
     <g id="line2d_21">
      <defs>
       <path id="m75a945bab1" d="M 0 0 
L 3.5 0 
" style="stroke: #000000; stroke-width: 0.8"/>
      </defs>
      <g>
       <use xlink:href="#m75a945bab1" x="498.315937" y="455.580625" style="stroke: #000000; stroke-width: 0.8"/>
      </g>
     </g>
     <g id="text_18">
      <!-- 0.0 -->
      <g transform="translate(505.315937 460.44125) scale(0.14 -0.14)">
       <defs>
        <path id="TimesNewRomanPSMT-2e" d="M 800 606 
Q 947 606 1047 504 
Q 1147 403 1147 259 
Q 1147 116 1045 14 
Q 944 -88 800 -88 
Q 656 -88 554 14 
Q 453 116 453 259 
Q 453 406 554 506 
Q 656 606 800 606 
z
" transform="scale(0.015625)"/>
       </defs>
       <use xlink:href="#TimesNewRomanPSMT-30"/>
       <use xlink:href="#TimesNewRomanPSMT-2e" transform="translate(50 0)"/>
       <use xlink:href="#TimesNewRomanPSMT-30" transform="translate(75 0)"/>
      </g>
     </g>
    </g>
    <g id="ytick_8">
     <g id="line2d_22">
      <g>
       <use xlink:href="#m75a945bab1" x="498.315937" y="366.876625" style="stroke: #000000; stroke-width: 0.8"/>
      </g>
     </g>
     <g id="text_19">
      <!-- 0.2 -->
      <g transform="translate(505.315937 371.73725) scale(0.14 -0.14)">
       <use xlink:href="#TimesNewRomanPSMT-30"/>
       <use xlink:href="#TimesNewRomanPSMT-2e" transform="translate(50 0)"/>
       <use xlink:href="#TimesNewRomanPSMT-32" transform="translate(75 0)"/>
      </g>
     </g>
    </g>
    <g id="ytick_9">
     <g id="line2d_23">
      <g>
       <use xlink:href="#m75a945bab1" x="498.315937" y="278.172625" style="stroke: #000000; stroke-width: 0.8"/>
      </g>
     </g>
     <g id="text_20">
      <!-- 0.4 -->
      <g transform="translate(505.315937 283.03325) scale(0.14 -0.14)">
       <use xlink:href="#TimesNewRomanPSMT-30"/>
       <use xlink:href="#TimesNewRomanPSMT-2e" transform="translate(50 0)"/>
       <use xlink:href="#TimesNewRomanPSMT-34" transform="translate(75 0)"/>
      </g>
     </g>
    </g>
    <g id="ytick_10">
     <g id="line2d_24">
      <g>
       <use xlink:href="#m75a945bab1" x="498.315937" y="189.468625" style="stroke: #000000; stroke-width: 0.8"/>
      </g>
     </g>
     <g id="text_21">
      <!-- 0.6 -->
      <g transform="translate(505.315937 194.32925) scale(0.14 -0.14)">
       <use xlink:href="#TimesNewRomanPSMT-30"/>
       <use xlink:href="#TimesNewRomanPSMT-2e" transform="translate(50 0)"/>
       <use xlink:href="#TimesNewRomanPSMT-36" transform="translate(75 0)"/>
      </g>
     </g>
    </g>
    <g id="ytick_11">
     <g id="line2d_25">
      <g>
       <use xlink:href="#m75a945bab1" x="498.315937" y="100.764625" style="stroke: #000000; stroke-width: 0.8"/>
      </g>
     </g>
     <g id="text_22">
      <!-- 0.8 -->
      <g transform="translate(505.315937 105.62525) scale(0.14 -0.14)">
       <use xlink:href="#TimesNewRomanPSMT-30"/>
       <use xlink:href="#TimesNewRomanPSMT-2e" transform="translate(50 0)"/>
       <use xlink:href="#TimesNewRomanPSMT-38" transform="translate(75 0)"/>
      </g>
     </g>
    </g>
    <g id="ytick_12">
     <g id="line2d_26">
      <g>
       <use xlink:href="#m75a945bab1" x="498.315937" y="12.060625" style="stroke: #000000; stroke-width: 0.8"/>
      </g>
     </g>
     <g id="text_23">
      <!-- 1.0 -->
      <g transform="translate(505.315937 16.92125) scale(0.14 -0.14)">
       <use xlink:href="#TimesNewRomanPSMT-31"/>
       <use xlink:href="#TimesNewRomanPSMT-2e" transform="translate(50 0)"/>
       <use xlink:href="#TimesNewRomanPSMT-30" transform="translate(75 0)"/>
      </g>
     </g>
    </g>
    <g id="text_24">
     <!-- w -->
     <g transform="translate(536.537188 238.875937) rotate(-90) scale(0.14 -0.14)">
      <defs>
       <path id="TimesNewRomanPSMT-77" d="M 41 2863 
L 1241 2863 
L 1241 2747 
Q 1075 2734 1023 2687 
Q 972 2641 972 2553 
Q 972 2456 1025 2319 
L 1638 672 
L 2253 2013 
L 2091 2434 
Q 2016 2622 1894 2694 
Q 1825 2738 1638 2747 
L 1638 2863 
L 3000 2863 
L 3000 2747 
Q 2775 2738 2681 2666 
Q 2619 2616 2619 2506 
Q 2619 2444 2644 2378 
L 3294 734 
L 3897 2319 
Q 3959 2488 3959 2588 
Q 3959 2647 3898 2694 
Q 3838 2741 3659 2747 
L 3659 2863 
L 4563 2863 
L 4563 2747 
Q 4291 2706 4163 2378 
L 3206 -88 
L 3078 -88 
L 2363 1741 
L 1528 -88 
L 1413 -88 
L 494 2319 
Q 403 2547 315 2626 
Q 228 2706 41 2747 
L 41 2863 
z
" transform="scale(0.015625)"/>
      </defs>
      <use xlink:href="#TimesNewRomanPSMT-77"/>
     </g>
    </g>
   </g>
   <g id="line2d_27">
    <path d="M 51.915937 446.710225 
L 63.880654 419.847181 
L 70.755901 405.053487 
L 77.586505 390.883735 
L 84.417108 377.22441 
L 91.292355 363.973048 
L 98.167603 351.202546 
L 105.087495 338.817029 
L 112.007387 326.883832 
L 118.971923 315.31364 
L 125.981104 304.098564 
L 133.034929 293.230755 
L 140.133399 282.702408 
L 147.276514 272.505772 
L 154.464272 262.633152 
L 161.696676 253.076914 
L 168.973723 243.829491 
L 176.295415 234.883388 
L 183.661752 226.231186 
L 191.117378 217.816152 
L 198.617648 209.684316 
L 206.207207 201.782767 
L 213.886055 194.109731 
L 221.609547 186.705095 
L 229.422328 179.521226 
L 237.324398 172.555797 
L 245.315757 165.806267 
L 253.44105 159.234571 
L 261.655631 152.876161 
L 270.004146 146.695474 
L 278.44195 140.72429 
L 287.013687 134.929428 
L 295.719358 129.311101 
L 304.603606 123.842306 
L 313.621788 118.551877 
L 322.818548 113.414479 
L 332.193885 108.432351 
L 341.747801 103.607187 
L 351.524938 98.919308 
L 361.480654 94.392399 
L 371.659592 90.007822 
L 382.106397 85.750545 
L 392.821068 81.625534 
L 403.803606 77.636925 
L 415.054011 73.788049 
L 426.616928 70.067532 
L 438.537 66.466692 
L 450.814227 62.991488 
L 463.448611 59.6468 
L 476.529439 56.415173 
L 490.056712 53.303896 
L 498.315937 51.512578 
L 498.315937 51.512578 
" clip-path="url(#p9167a4a6d8)" style="fill: none; stroke-dasharray: 5.55,2.4; stroke-dashoffset: 0; stroke: #ffa500; stroke-width: 1.5"/>
   </g>
   <g id="line2d_28">
    <path d="M 51.915937 411.228625 
L 54.103516 407.057654 
L 58.969763 397.167325 
L 67.318278 380.325244 
L 74.23817 366.880312 
L 81.113417 354.004921 
L 88.033309 341.517176 
L 94.953201 329.485395 
L 101.917738 317.819599 
L 108.926919 306.511849 
L 115.980744 295.554233 
L 123.034569 285.00439 
L 130.133039 274.784078 
L 137.276154 264.885771 
L 144.463912 255.302 
L 151.74096 245.969204 
L 159.062652 236.94051 
L 166.428989 228.20843 
L 173.884614 219.715708 
L 181.384884 211.508797 
L 188.974443 203.5343 
L 196.608647 195.834531 
L 204.332139 188.359741 
L 212.14492 181.10781 
L 220.046991 174.076387 
L 228.03835 167.26291 
L 236.118998 160.664616 
L 244.333579 154.244423 
L 252.63745 148.036313 
L 261.075253 142.005662 
L 269.646991 136.153089 
L 278.352661 130.478808 
L 287.192265 124.982649 
L 296.210447 119.63825 
L 305.362562 114.473021 
L 314.693255 109.462235 
L 324.202526 104.607718 
L 333.935019 99.889683 
L 343.846091 95.332185 
L 353.980384 90.916484 
L 364.382544 86.627474 
L 375.007927 82.487175 
L 385.901176 78.48104 
L 397.106937 74.597628 
L 408.625208 70.842423 
L 420.455992 67.219954 
L 432.64393 63.721428 
L 445.233669 60.340392 
L 458.225208 57.08327 
L 471.618548 53.955285 
L 485.502976 50.941828 
L 498.315937 48.353594 
L 498.315937 48.353594 
" clip-path="url(#p9167a4a6d8)" style="fill: none; stroke-dasharray: 5.55,2.4; stroke-dashoffset: 0; stroke: #000000; stroke-width: 1.5"/>
   </g>
   <g id="line2d_29">
    <path d="M 51.915937 322.524625 
L 52.808827 321.824296 
L 53.969583 320.60551 
L 55.532139 318.618053 
L 57.898296 315.209371 
L 62.54132 308.046799 
L 72.407747 292.849976 
L 79.64015 282.14762 
L 86.783264 271.973038 
L 93.971023 262.120871 
L 101.203426 252.584237 
L 108.480474 243.355737 
L 115.802166 234.427927 
L 123.213147 225.742118 
L 130.668773 217.346302 
L 138.169043 209.233035 
L 145.758602 201.34953 
L 153.43745 193.694015 
L 161.160942 186.306289 
L 168.973723 179.138825 
L 176.875793 172.189301 
L 184.911797 165.41837 
L 193.03709 158.863254 
L 201.251671 152.520886 
L 209.600186 146.355793 
L 218.082634 140.368874 
L 226.699016 134.560613 
L 235.449331 128.931095 
L 244.333579 123.480024 
L 253.396406 118.181267 
L 262.593165 113.061748 
L 271.968503 108.096958 
L 281.522418 103.288587 
L 291.299556 98.617023 
L 301.299916 94.086178 
L 311.523498 89.699271 
L 321.970303 85.458847 
L 332.684974 81.350164 
L 343.667513 77.377344 
L 354.962562 73.528948 
L 366.570123 69.810185 
L 378.490195 66.22532 
L 390.767423 62.765533 
L 403.446451 59.424315 
L 416.527279 56.207797 
L 430.054551 53.111067 
L 444.072913 50.13091 
L 458.627009 47.265559 
L 473.716838 44.522234 
L 489.431689 41.892268 
L 498.315937 40.500861 
L 498.315937 40.500861 
" clip-path="url(#p9167a4a6d8)" style="fill: none; stroke-dasharray: 5.55,2.4; stroke-dashoffset: 0; stroke: #00ff00; stroke-width: 1.5"/>
   </g>
   <g id="line2d_30">
    <path d="M 51.915937 189.468625 
L 52.719538 190.190329 
L 53.523138 190.612875 
L 54.371383 190.80337 
L 55.308917 190.775959 
L 56.380384 190.511592 
L 57.675073 189.949263 
L 59.282274 188.996093 
L 61.425208 187.449998 
L 64.594965 184.859942 
L 70.979124 179.287867 
L 81.649151 170.03931 
L 89.908377 163.186022 
L 98.122958 156.658754 
L 106.382184 150.378909 
L 114.775343 144.276235 
L 123.302436 138.351753 
L 131.963462 132.605881 
L 140.758422 127.038599 
L 149.687315 121.649493 
L 158.794785 116.412741 
L 168.080834 111.330874 
L 177.54546 106.405867 
L 187.188665 101.639154 
L 197.055091 97.011262 
L 207.100096 92.545152 
L 217.412967 88.204101 
L 227.949061 84.010791 
L 238.753021 79.95057 
L 249.824848 76.027283 
L 261.209187 72.22954 
L 272.906037 68.56226 
L 284.960042 65.016716 
L 297.371203 61.598445 
L 310.184164 58.300824 
L 323.44357 55.119243 
L 337.149421 52.060448 
L 351.346361 49.120965 
L 366.079034 46.298739 
L 381.392085 43.592888 
L 397.330159 41.00346 
L 413.982544 38.524847 
L 431.393885 36.159963 
L 449.608827 33.911797 
L 468.761302 31.773742 
L 488.9406 29.74698 
L 498.315937 28.877593 
L 498.315937 28.877593 
" clip-path="url(#p9167a4a6d8)" style="fill: none; stroke-dasharray: 5.55,2.4; stroke-dashoffset: 0; stroke: #0000ff; stroke-width: 1.5"/>
   </g>
   <g id="line2d_31">
    <path d="M 51.915937 56.412625 
L 52.94276 59.026258 
L 54.014227 61.150577 
L 55.085694 62.785443 
L 56.157162 64.031884 
L 57.273273 65.002871 
L 58.478674 65.756284 
L 59.773363 66.300412 
L 61.201986 66.658302 
L 62.853831 66.837356 
L 64.818188 66.817862 
L 67.273633 66.557709 
L 70.488035 65.97949 
L 75.264992 64.872023 
L 85.399286 62.23538 
L 101.515938 58.106753 
L 115.04321 54.880156 
L 128.83835 51.819842 
L 143.079934 48.88932 
L 157.857252 46.076597 
L 173.214947 43.38079 
L 189.197666 40.801882 
L 205.894695 38.334226 
L 223.350681 35.980634 
L 241.654911 33.738788 
L 260.896676 31.608276 
L 281.165262 29.590108 
L 302.549961 27.686258 
L 325.229349 25.892567 
L 349.33736 24.211092 
L 375.097216 22.639655 
L 402.732139 21.179066 
L 432.554641 19.828237 
L 464.921878 18.587612 
L 498.315937 17.514942 
L 498.315937 17.514942 
" clip-path="url(#p9167a4a6d8)" style="fill: none; stroke-dasharray: 5.55,2.4; stroke-dashoffset: 0; stroke: #ff0000; stroke-width: 1.5"/>
   </g>
   <g id="patch_5">
    <path d="M 51.915937 455.580625 
L 51.915937 12.060625 
" style="fill: none; stroke: #000000; stroke-width: 0.8; stroke-linejoin: miter; stroke-linecap: square"/>
   </g>
   <g id="patch_6">
    <path d="M 498.315937 455.580625 
L 498.315937 12.060625 
" style="fill: none; stroke: #000000; stroke-width: 0.8; stroke-linejoin: miter; stroke-linecap: square"/>
   </g>
   <g id="patch_7">
    <path d="M 51.915937 455.580625 
L 498.315937 455.580625 
" style="fill: none; stroke: #000000; stroke-width: 0.8; stroke-linejoin: miter; stroke-linecap: square"/>
   </g>
   <g id="patch_8">
    <path d="M 51.915937 12.060625 
L 498.315937 12.060625 
" style="fill: none; stroke: #000000; stroke-width: 0.8; stroke-linejoin: miter; stroke-linecap: square"/>
   </g>
  </g>
 </g>
 <defs>
  <clipPath id="p9167a4a6d8">
   <rect x="51.915937" y="12.060625" width="446.4" height="443.52"/>
  </clipPath>
 </defs>
</svg>
