<?xml version="1.0" encoding="utf-8" standalone="no"?>
<!DOCTYPE svg PUBLIC "-//W3C//DTD SVG 1.1//EN"
  "http://www.w3.org/Graphics/SVG/1.1/DTD/svg11.dtd">
<svg xmlns:xlink="http://www.w3.org/1999/xlink" width="505.515937pt" height="499.2125pt" viewBox="0 0 505.515937 499.2125" xmlns="http://www.w3.org/2000/svg" version="1.1">
 <metadata>
  <rdf:RDF xmlns:dc="http://purl.org/dc/elements/1.1/" xmlns:cc="http://creativecommons.org/ns#" xmlns:rdf="http://www.w3.org/1999/02/22-rdf-syntax-ns#">
   <cc:Work>
    <dc:type rdf:resource="http://purl.org/dc/dcmitype/StillImage"/>
    <dc:date>2025-11-09T15:21:43.130837</dc:date>
    <dc:format>image/svg+xml</dc:format>
    <dc:creator>
     <cc:Agent>
      <dc:title>Matplotlib v3.10.7, https://matplotlib.org/</dc:title>
     </cc:Agent>
    </dc:creator>
   </cc:Work>
  </rdf:RDF>
 </metadata>
 <defs>
  <style type="text/css">*{stroke-linejoin: round; stroke-linecap: butt}</style>
 </defs>
 <g id="figure_1">
  <g id="patch_1">
   <path d="M 0 499.2125 
L 505.515937 499.2125 
L 505.515937 0 
L 0 0 
z
" style="fill: #ffffff"/>
  </g>
  <g id="axes_1">
   <g id="patch_2">
    <path d="M 48.415938 455.580625 
L 494.815937 455.580625 
L 494.815937 12.060625 
L 48.415938 12.060625 
z
" style="fill: #ffffff"/>
   </g>
   <g id="matplotlib.axis_1">
    <g id="xtick_1">
     <g id="line2d_1">
      <defs>
       <path id="mb2c60fcdd7" d="M 0 0 
L 0 3.5 
" style="stroke: #000000; stroke-width: 0.8"/>
      </defs>
      <g>
       <use xlink:href="#mb2c60fcdd7" x="48.415938" y="455.580625" style="stroke: #000000; stroke-width: 0.8"/>
      </g>
     </g>
     <g id="text_1">
      <!-- 0 -->
      <g transform="translate(44.915938 472.301875) scale(0.14 -0.14)">
       <defs>
        <path id="TimesNewRomanPSMT-30" d="M 231 2094 
Q 231 2819 450 3342 
Q 669 3866 1031 4122 
Q 1313 4325 1613 4325 
Q 2100 4325 2488 3828 
Q 2972 3213 2972 2159 
Q 2972 1422 2759 906 
Q 2547 391 2217 158 
Q 1888 -75 1581 -75 
Q 975 -75 572 641 
Q 231 1244 231 2094 
z
M 844 2016 
Q 844 1141 1059 588 
Q 1238 122 1591 122 
Q 1759 122 1940 273 
Q 2122 425 2216 781 
Q 2359 1319 2359 2297 
Q 2359 3022 2209 3506 
Q 2097 3866 1919 4016 
Q 1791 4119 1609 4119 
Q 1397 4119 1231 3928 
Q 1006 3669 925 3112 
Q 844 2556 844 2016 
z
" transform="scale(0.015625)"/>
       </defs>
       <use xlink:href="#TimesNewRomanPSMT-30"/>
      </g>
     </g>
    </g>
    <g id="xtick_2">
     <g id="line2d_2">
      <g>
       <use xlink:href="#mb2c60fcdd7" x="104.215937" y="455.580625" style="stroke: #000000; stroke-width: 0.8"/>
      </g>
     </g>
     <g id="text_2">
      <!-- 1 -->
      <g transform="translate(100.715937 472.301875) scale(0.14 -0.14)">
       <defs>
        <path id="TimesNewRomanPSMT-31" d="M 750 3822 
L 1781 4325 
L 1884 4325 
L 1884 747 
Q 1884 391 1914 303 
Q 1944 216 2037 169 
Q 2131 122 2419 116 
L 2419 0 
L 825 0 
L 825 116 
Q 1125 122 1212 167 
Q 1300 213 1334 289 
Q 1369 366 1369 747 
L 1369 3034 
Q 1369 3497 1338 3628 
Q 1316 3728 1258 3775 
Q 1200 3822 1119 3822 
Q 1003 3822 797 3725 
L 750 3822 
z
" transform="scale(0.015625)"/>
       </defs>
       <use xlink:href="#TimesNewRomanPSMT-31"/>
      </g>
     </g>
    </g>
    <g id="xtick_3">
     <g id="line2d_3">
      <g>
       <use xlink:href="#mb2c60fcdd7" x="160.015938" y="455.580625" style="stroke: #000000; stroke-width: 0.8"/>
      </g>
     </g>
     <g id="text_3">
      <!-- 2 -->
      <g transform="translate(156.515938 472.301875) scale(0.14 -0.14)">
       <defs>
        <path id="TimesNewRomanPSMT-32" d="M 2934 816 
L 2638 0 
L 138 0 
L 138 116 
Q 1241 1122 1691 1759 
Q 2141 2397 2141 2925 
Q 2141 3328 1894 3587 
Q 1647 3847 1303 3847 
Q 991 3847 742 3664 
Q 494 3481 375 3128 
L 259 3128 
Q 338 3706 661 4015 
Q 984 4325 1469 4325 
Q 1984 4325 2329 3994 
Q 2675 3663 2675 3213 
Q 2675 2891 2525 2569 
Q 2294 2063 1775 1497 
Q 997 647 803 472 
L 1909 472 
Q 2247 472 2383 497 
Q 2519 522 2628 598 
Q 2738 675 2819 816 
L 2934 816 
z
" transform="scale(0.015625)"/>
       </defs>
       <use xlink:href="#TimesNewRomanPSMT-32"/>
      </g>
     </g>
    </g>
    <g id="xtick_4">
     <g id="line2d_4">
      <g>
       <use xlink:href="#mb2c60fcdd7" x="215.815937" y="455.580625" style="stroke: #000000; stroke-width: 0.8"/>
      </g>
     </g>
     <g id="text_4">
      <!-- 3 -->
      <g transform="translate(212.315937 472.301875) scale(0.14 -0.14)">
       <defs>
        <path id="TimesNewRomanPSMT-33" d="M 325 3431 
Q 506 3859 782 4092 
Q 1059 4325 1472 4325 
Q 1981 4325 2253 3994 
Q 2459 3747 2459 3466 
Q 2459 3003 1878 2509 
Q 2269 2356 2469 2072 
Q 2669 1788 2669 1403 
Q 2669 853 2319 450 
Q 1863 -75 997 -75 
Q 569 -75 414 31 
Q 259 138 259 259 
Q 259 350 332 419 
Q 406 488 509 488 
Q 588 488 669 463 
Q 722 447 909 348 
Q 1097 250 1169 231 
Q 1284 197 1416 197 
Q 1734 197 1970 444 
Q 2206 691 2206 1028 
Q 2206 1275 2097 1509 
Q 2016 1684 1919 1775 
Q 1784 1900 1550 2001 
Q 1316 2103 1072 2103 
L 972 2103 
L 972 2197 
Q 1219 2228 1467 2375 
Q 1716 2522 1828 2728 
Q 1941 2934 1941 3181 
Q 1941 3503 1739 3701 
Q 1538 3900 1238 3900 
Q 753 3900 428 3381 
L 325 3431 
z
" transform="scale(0.015625)"/>
       </defs>
       <use xlink:href="#TimesNewRomanPSMT-33"/>
      </g>
     </g>
    </g>
    <g id="xtick_5">
     <g id="line2d_5">
      <g>
       <use xlink:href="#mb2c60fcdd7" x="271.615937" y="455.580625" style="stroke: #000000; stroke-width: 0.8"/>
      </g>
     </g>
     <g id="text_5">
      <!-- 4 -->
      <g transform="translate(268.115937 472.301875) scale(0.14 -0.14)">
       <defs>
        <path id="TimesNewRomanPSMT-34" d="M 2978 1563 
L 2978 1119 
L 2409 1119 
L 2409 0 
L 1894 0 
L 1894 1119 
L 100 1119 
L 100 1519 
L 2066 4325 
L 2409 4325 
L 2409 1563 
L 2978 1563 
z
M 1894 1563 
L 1894 3666 
L 406 1563 
L 1894 1563 
z
" transform="scale(0.015625)"/>
       </defs>
       <use xlink:href="#TimesNewRomanPSMT-34"/>
      </g>
     </g>
    </g>
    <g id="xtick_6">
     <g id="line2d_6">
      <g>
       <use xlink:href="#mb2c60fcdd7" x="327.415937" y="455.580625" style="stroke: #000000; stroke-width: 0.8"/>
      </g>
     </g>
     <g id="text_6">
      <!-- 5 -->
      <g transform="translate(323.915937 472.301875) scale(0.14 -0.14)">
       <defs>
        <path id="TimesNewRomanPSMT-35" d="M 2778 4238 
L 2534 3706 
L 1259 3706 
L 981 3138 
Q 1809 3016 2294 2522 
Q 2709 2097 2709 1522 
Q 2709 1188 2573 903 
Q 2438 619 2231 419 
Q 2025 219 1772 97 
Q 1413 -75 1034 -75 
Q 653 -75 479 54 
Q 306 184 306 341 
Q 306 428 378 495 
Q 450 563 559 563 
Q 641 563 702 538 
Q 763 513 909 409 
Q 1144 247 1384 247 
Q 1750 247 2026 523 
Q 2303 800 2303 1197 
Q 2303 1581 2056 1914 
Q 1809 2247 1375 2428 
Q 1034 2569 447 2591 
L 1259 4238 
L 2778 4238 
z
" transform="scale(0.015625)"/>
       </defs>
       <use xlink:href="#TimesNewRomanPSMT-35"/>
      </g>
     </g>
    </g>
    <g id="xtick_7">
     <g id="line2d_7">
      <g>
       <use xlink:href="#mb2c60fcdd7" x="383.215937" y="455.580625" style="stroke: #000000; stroke-width: 0.8"/>
      </g>
     </g>
     <g id="text_7">
      <!-- 6 -->
      <g transform="translate(379.715937 472.301875) scale(0.14 -0.14)">
       <defs>
        <path id="TimesNewRomanPSMT-36" d="M 2869 4325 
L 2869 4209 
Q 2456 4169 2195 4045 
Q 1934 3922 1679 3669 
Q 1425 3416 1258 3105 
Q 1091 2794 978 2366 
Q 1428 2675 1881 2675 
Q 2316 2675 2634 2325 
Q 2953 1975 2953 1425 
Q 2953 894 2631 456 
Q 2244 -75 1606 -75 
Q 1172 -75 869 213 
Q 275 772 275 1663 
Q 275 2231 503 2743 
Q 731 3256 1154 3653 
Q 1578 4050 1965 4187 
Q 2353 4325 2688 4325 
L 2869 4325 
z
M 925 2138 
Q 869 1716 869 1456 
Q 869 1156 980 804 
Q 1091 453 1309 247 
Q 1469 100 1697 100 
Q 1969 100 2183 356 
Q 2397 613 2397 1088 
Q 2397 1622 2184 2012 
Q 1972 2403 1581 2403 
Q 1463 2403 1327 2353 
Q 1191 2303 925 2138 
z
" transform="scale(0.015625)"/>
       </defs>
       <use xlink:href="#TimesNewRomanPSMT-36"/>
      </g>
     </g>
    </g>
    <g id="xtick_8">
     <g id="line2d_8">
      <g>
       <use xlink:href="#mb2c60fcdd7" x="439.015937" y="455.580625" style="stroke: #000000; stroke-width: 0.8"/>
      </g>
     </g>
     <g id="text_8">
      <!-- 7 -->
      <g transform="translate(435.515937 472.301875) scale(0.14 -0.14)">
       <defs>
        <path id="TimesNewRomanPSMT-37" d="M 644 4238 
L 2916 4238 
L 2916 4119 
L 1503 -88 
L 1153 -88 
L 2419 3728 
L 1253 3728 
Q 900 3728 750 3644 
Q 488 3500 328 3200 
L 238 3234 
L 644 4238 
z
" transform="scale(0.015625)"/>
       </defs>
       <use xlink:href="#TimesNewRomanPSMT-37"/>
      </g>
     </g>
    </g>
    <g id="xtick_9">
     <g id="line2d_9">
      <g>
       <use xlink:href="#mb2c60fcdd7" x="494.815937" y="455.580625" style="stroke: #000000; stroke-width: 0.8"/>
      </g>
     </g>
     <g id="text_9">
      <!-- 8 -->
      <g transform="translate(491.315937 472.301875) scale(0.14 -0.14)">
       <defs>
        <path id="TimesNewRomanPSMT-38" d="M 1228 2134 
Q 725 2547 579 2797 
Q 434 3047 434 3316 
Q 434 3728 753 4026 
Q 1072 4325 1600 4325 
Q 2113 4325 2425 4047 
Q 2738 3769 2738 3413 
Q 2738 3175 2569 2928 
Q 2400 2681 1866 2347 
Q 2416 1922 2594 1678 
Q 2831 1359 2831 1006 
Q 2831 559 2490 242 
Q 2150 -75 1597 -75 
Q 994 -75 656 303 
Q 388 606 388 966 
Q 388 1247 577 1523 
Q 766 1800 1228 2134 
z
M 1719 2469 
Q 2094 2806 2194 3001 
Q 2294 3197 2294 3444 
Q 2294 3772 2109 3958 
Q 1925 4144 1606 4144 
Q 1288 4144 1088 3959 
Q 888 3775 888 3528 
Q 888 3366 970 3203 
Q 1053 3041 1206 2894 
L 1719 2469 
z
M 1375 2016 
Q 1116 1797 991 1539 
Q 866 1281 866 981 
Q 866 578 1086 336 
Q 1306 94 1647 94 
Q 1984 94 2187 284 
Q 2391 475 2391 747 
Q 2391 972 2272 1150 
Q 2050 1481 1375 2016 
z
" transform="scale(0.015625)"/>
       </defs>
       <use xlink:href="#TimesNewRomanPSMT-38"/>
      </g>
     </g>
    </g>
    <g id="text_10">
     <!-- t -->
     <g transform="translate(269.67125 489.017812) scale(0.14 -0.14)">
      <defs>
       <path id="TimesNewRomanPSMT-74" d="M 1031 3803 
L 1031 2863 
L 1700 2863 
L 1700 2644 
L 1031 2644 
L 1031 788 
Q 1031 509 1111 412 
Q 1191 316 1316 316 
Q 1419 316 1516 380 
Q 1613 444 1666 569 
L 1788 569 
Q 1678 263 1478 108 
Q 1278 -47 1066 -47 
Q 922 -47 784 33 
Q 647 113 581 261 
Q 516 409 516 719 
L 516 2644 
L 63 2644 
L 63 2747 
Q 234 2816 414 2980 
Q 594 3144 734 3369 
Q 806 3488 934 3803 
L 1031 3803 
z
" transform="scale(0.015625)"/>
      </defs>
      <use xlink:href="#TimesNewRomanPSMT-74"/>
     </g>
    </g>
   </g>
   <g id="matplotlib.axis_2">
    <g id="ytick_1">
     <g id="line2d_10">
      <defs>
       <path id="m321744ebd7" d="M 0 0 
L -3.5 0 
" style="stroke: #000000; stroke-width: 0.8"/>
      </defs>
      <g>
       <use xlink:href="#m321744ebd7" x="48.415938" y="455.580625" style="stroke: #000000; stroke-width: 0.8"/>
      </g>
     </g>
     <g id="text_11">
      <!-- 0.0 -->
      <g transform="translate(23.915938 460.44125) scale(0.14 -0.14)">
       <defs>
        <path id="TimesNewRomanPSMT-2e" d="M 800 606 
Q 947 606 1047 504 
Q 1147 403 1147 259 
Q 1147 116 1045 14 
Q 944 -88 800 -88 
Q 656 -88 554 14 
Q 453 116 453 259 
Q 453 406 554 506 
Q 656 606 800 606 
z
" transform="scale(0.015625)"/>
       </defs>
       <use xlink:href="#TimesNewRomanPSMT-30"/>
       <use xlink:href="#TimesNewRomanPSMT-2e" transform="translate(50 0)"/>
       <use xlink:href="#TimesNewRomanPSMT-30" transform="translate(75 0)"/>
      </g>
     </g>
    </g>
    <g id="ytick_2">
     <g id="line2d_11">
      <g>
       <use xlink:href="#m321744ebd7" x="48.415938" y="366.876625" style="stroke: #000000; stroke-width: 0.8"/>
      </g>
     </g>
     <g id="text_12">
      <!-- 0.2 -->
      <g transform="translate(23.915938 371.73725) scale(0.14 -0.14)">
       <use xlink:href="#TimesNewRomanPSMT-30"/>
       <use xlink:href="#TimesNewRomanPSMT-2e" transform="translate(50 0)"/>
       <use xlink:href="#TimesNewRomanPSMT-32" transform="translate(75 0)"/>
      </g>
     </g>
    </g>
    <g id="ytick_3">
     <g id="line2d_12">
      <g>
       <use xlink:href="#m321744ebd7" x="48.415938" y="278.172625" style="stroke: #000000; stroke-width: 0.8"/>
      </g>
     </g>
     <g id="text_13">
      <!-- 0.4 -->
      <g transform="translate(23.915938 283.03325) scale(0.14 -0.14)">
       <use xlink:href="#TimesNewRomanPSMT-30"/>
       <use xlink:href="#TimesNewRomanPSMT-2e" transform="translate(50 0)"/>
       <use xlink:href="#TimesNewRomanPSMT-34" transform="translate(75 0)"/>
      </g>
     </g>
    </g>
    <g id="ytick_4">
     <g id="line2d_13">
      <g>
       <use xlink:href="#m321744ebd7" x="48.415938" y="189.468625" style="stroke: #000000; stroke-width: 0.8"/>
      </g>
     </g>
     <g id="text_14">
      <!-- 0.6 -->
      <g transform="translate(23.915938 194.32925) scale(0.14 -0.14)">
       <use xlink:href="#TimesNewRomanPSMT-30"/>
       <use xlink:href="#TimesNewRomanPSMT-2e" transform="translate(50 0)"/>
       <use xlink:href="#TimesNewRomanPSMT-36" transform="translate(75 0)"/>
      </g>
     </g>
    </g>
    <g id="ytick_5">
     <g id="line2d_14">
      <g>
       <use xlink:href="#m321744ebd7" x="48.415938" y="100.764625" style="stroke: #000000; stroke-width: 0.8"/>
      </g>
     </g>
     <g id="text_15">
      <!-- 0.8 -->
      <g transform="translate(23.915938 105.62525) scale(0.14 -0.14)">
       <use xlink:href="#TimesNewRomanPSMT-30"/>
       <use xlink:href="#TimesNewRomanPSMT-2e" transform="translate(50 0)"/>
       <use xlink:href="#TimesNewRomanPSMT-38" transform="translate(75 0)"/>
      </g>
     </g>
    </g>
    <g id="ytick_6">
     <g id="line2d_15">
      <g>
       <use xlink:href="#m321744ebd7" x="48.415938" y="12.060625" style="stroke: #000000; stroke-width: 0.8"/>
      </g>
     </g>
     <g id="text_16">
      <!-- 1.0 -->
      <g transform="translate(23.915938 16.92125) scale(0.14 -0.14)">
       <use xlink:href="#TimesNewRomanPSMT-31"/>
       <use xlink:href="#TimesNewRomanPSMT-2e" transform="translate(50 0)"/>
       <use xlink:href="#TimesNewRomanPSMT-30" transform="translate(75 0)"/>
      </g>
     </g>
    </g>
    <g id="text_17">
     <!-- w -->
     <g transform="translate(16.92125 238.875937) rotate(-90) scale(0.14 -0.14)">
      <defs>
       <path id="TimesNewRomanPSMT-77" d="M 41 2863 
L 1241 2863 
L 1241 2747 
Q 1075 2734 1023 2687 
Q 972 2641 972 2553 
Q 972 2456 1025 2319 
L 1638 672 
L 2253 2013 
L 2091 2434 
Q 2016 2622 1894 2694 
Q 1825 2738 1638 2747 
L 1638 2863 
L 3000 2863 
L 3000 2747 
Q 2775 2738 2681 2666 
Q 2619 2616 2619 2506 
Q 2619 2444 2644 2378 
L 3294 734 
L 3897 2319 
Q 3959 2488 3959 2588 
Q 3959 2647 3898 2694 
Q 3838 2741 3659 2747 
L 3659 2863 
L 4563 2863 
L 4563 2747 
Q 4291 2706 4163 2378 
L 3206 -88 
L 3078 -88 
L 2363 1741 
L 1528 -88 
L 1413 -88 
L 494 2319 
Q 403 2547 315 2626 
Q 228 2706 41 2747 
L 41 2863 
z
" transform="scale(0.015625)"/>
      </defs>
      <use xlink:href="#TimesNewRomanPSMT-77"/>
     </g>
    </g>
   </g>
   <g id="line2d_16">
    <path d="M 0 0 
" clip-path="url(#pbca9e02f1a)" style="fill: none; stroke: #0000ff; stroke-width: 1.5; stroke-linecap: square"/>
   </g>
   <g id="line2d_17">
    <path d="M 48.415938 446.710225 
L 60.023498 420.659874 
L 66.94339 405.748905 
L 73.773993 391.55606 
L 80.604596 377.873175 
L 87.479844 364.59854 
L 94.355091 351.805461 
L 101.274983 339.397987 
L 108.194875 327.443607 
L 115.159412 315.852862 
L 122.168593 304.617858 
L 129.222418 293.730732 
L 136.320888 283.183671 
L 143.464002 272.968908 
L 150.651761 263.078735 
L 157.884164 253.505506 
L 165.161212 244.241641 
L 172.482904 235.279631 
L 179.849241 226.612045 
L 187.304866 218.182048 
L 194.805136 210.035752 
L 202.394695 202.120152 
L 210.073543 194.433472 
L 217.797036 187.01567 
L 225.609817 179.819026 
L 233.511887 172.841211 
L 241.503246 166.079679 
L 249.628539 159.496297 
L 257.84312 153.126579 
L 266.191635 146.934901 
L 274.629439 140.953099 
L 283.201176 135.147932 
L 291.906847 129.519614 
L 300.791095 124.041094 
L 309.809277 118.741257 
L 319.006037 113.594723 
L 328.381374 108.603735 
L 337.935289 103.769991 
L 347.667783 99.094663 
L 357.623498 94.558616 
L 367.802436 90.165187 
L 378.249241 85.899315 
L 388.919268 81.78271 
L 399.857162 77.800867 
L 411.107567 73.942369 
L 422.670483 70.21255 
L 434.54591 66.615802 
L 446.778494 63.143333 
L 459.412877 59.788674 
L 472.449061 56.558091 
L 485.931689 53.446722 
L 494.815937 51.516392 
L 494.815937 51.516392 
" clip-path="url(#pbca9e02f1a)" style="fill: none; stroke-dasharray: 5.55,2.4; stroke-dashoffset: 0; stroke: #0000ff; stroke-width: 1.5"/>
   </g>
   <g id="line2d_18">
    <path d="M 0 0 
" clip-path="url(#pbca9e02f1a)" style="fill: none; stroke: #ff0000; stroke-width: 1.5; stroke-linecap: square"/>
   </g>
   <g id="line2d_19">
    <path d="M 48.415938 411.228625 
L 51.005316 406.334562 
L 56.228719 395.880254 
L 65.827279 376.746947 
L 72.925748 363.115813 
L 79.890285 350.222148 
L 86.810177 337.875701 
L 93.774713 325.903069 
L 100.73925 314.36971 
L 107.748431 303.18999 
L 114.802256 292.356264 
L 121.900726 281.860839 
L 129.04384 271.69603 
L 136.231599 261.854189 
L 143.464002 252.32772 
L 150.74105 243.10909 
L 158.062742 234.190831 
L 165.473723 225.51431 
L 172.929349 217.127467 
L 180.429619 209.022869 
L 188.019178 201.147783 
L 195.698026 193.500443 
L 203.466163 186.078828 
L 211.278944 178.920731 
L 219.181014 171.980289 
L 227.217018 165.218205 
L 235.34231 158.671652 
L 243.556892 152.337569 
L 251.905406 146.180528 
L 260.387855 140.201428 
L 269.004236 134.400753 
L 277.754551 128.778586 
L 286.6388 123.334633 
L 295.701626 118.042795 
L 304.898386 112.92996 
L 314.273723 107.971653 
L 323.872283 103.147693 
L 333.649421 98.483347 
L 343.649781 93.959503 
L 353.873363 89.579374 
L 364.320168 85.345501 
L 375.034839 81.243166 
L 386.017378 77.276484 
L 397.312427 73.434033 
L 408.919988 69.721015 
L 420.84006 66.141688 
L 433.161932 62.675095 
L 445.84096 59.339838 
L 458.966433 56.118483 
L 472.53835 53.018188 
L 486.556712 50.044776 
L 494.815937 48.395012 
L 494.815937 48.395012 
" clip-path="url(#pbca9e02f1a)" style="fill: none; stroke-dasharray: 5.55,2.4; stroke-dashoffset: 0; stroke: #ff0000; stroke-width: 1.5"/>
   </g>
   <g id="line2d_20">
    <path d="M 0 0 
" clip-path="url(#pbca9e02f1a)" style="fill: none; stroke: #008000; stroke-width: 1.5; stroke-linecap: square"/>
   </g>
   <g id="line2d_21">
    <path d="M 48.415938 322.524625 
L 49.799916 321.515363 
L 51.451761 320.021735 
L 53.460762 317.887249 
L 55.960852 314.887503 
L 59.264542 310.549414 
L 64.0415 303.873744 
L 89.310267 268.037845 
L 96.989115 257.776966 
L 104.534029 248.065093 
L 111.989655 238.828489 
L 119.44528 229.943435 
L 126.94555 221.350159 
L 134.490465 213.043569 
L 142.080024 205.017663 
L 149.714227 197.265946 
L 157.43772 189.739048 
L 165.250501 182.435311 
L 173.152571 175.352708 
L 181.14393 168.488904 
L 189.224578 161.841298 
L 197.394515 155.407055 
L 205.698386 149.150235 
L 214.091545 143.103403 
L 222.618638 137.23298 
L 231.279664 131.539359 
L 240.119268 125.995191 
L 249.092805 120.630006 
L 258.24492 115.41813 
L 267.530969 110.385571 
L 277.04024 105.485826 
L 286.728089 100.745028 
L 296.63916 96.143803 
L 306.728809 91.704779 
L 317.086325 87.391525 
L 327.667063 83.22639 
L 338.515667 79.194788 
L 349.676784 75.285257 
L 361.105766 71.517701 
L 372.891905 67.867389 
L 385.035199 64.340699 
L 397.535649 60.942922 
L 410.4379 57.667348 
L 423.786595 54.50926 
L 437.581734 51.475142 
L 451.867963 48.561399 
L 466.734569 45.757751 
L 482.181554 43.072539 
L 494.815937 41.036121 
L 494.815937 41.036121 
" clip-path="url(#pbca9e02f1a)" style="fill: none; stroke-dasharray: 5.55,2.4; stroke-dashoffset: 0; stroke: #008000; stroke-width: 1.5"/>
   </g>
   <g id="line2d_22">
    <path d="M 0 0 
" clip-path="url(#pbca9e02f1a)" style="fill: none; stroke: #ffa500; stroke-width: 1.5; stroke-linecap: square"/>
   </g>
   <g id="line2d_23">
    <path d="M 48.415938 189.468625 
L 50.201716 191.29217 
L 51.987495 192.79972 
L 53.773273 194.020301 
L 55.603696 195.001561 
L 57.478764 195.750904 
L 59.398476 196.276687 
L 61.407477 196.592632 
L 63.505766 196.694676 
L 65.73799 196.577048 
L 68.104146 196.228952 
L 70.693525 195.619299 
L 73.506127 194.725015 
L 76.631239 193.492576 
L 80.113507 191.874915 
L 84.086865 189.776547 
L 88.685244 187.088221 
L 94.176514 183.610743 
L 101.14105 178.922141 
L 111.230699 171.834756 
L 138.731689 152.407268 
L 149.982094 144.796965 
L 160.428899 137.996066 
L 170.518548 131.691234 
L 180.474263 125.732035 
L 190.34069 120.084349 
L 200.251761 114.667041 
L 210.207477 109.47818 
L 220.297126 104.470747 
L 230.520708 99.646086 
L 240.878224 95.004281 
L 251.414317 90.525944 
L 262.173633 86.194821 
L 273.156172 82.014158 
L 284.406577 77.970679 
L 295.924848 74.068553 
L 307.710987 70.310976 
L 319.809637 66.687286 
L 332.265442 63.189238 
L 345.078404 59.822101 
L 358.33781 56.568874 
L 371.999016 53.446884 
L 386.151311 50.441856 
L 400.794695 47.560685 
L 416.018458 44.793216 
L 431.822598 42.147215 
L 448.296406 39.615608 
L 465.484524 37.200228 
L 483.476244 34.897714 
L 494.815937 33.5558 
L 494.815937 33.5558 
" clip-path="url(#pbca9e02f1a)" style="fill: none; stroke-dasharray: 5.55,2.4; stroke-dashoffset: 0; stroke: #ffa500; stroke-width: 1.5"/>
   </g>
   <g id="line2d_24">
    <path d="M 0 0 
" clip-path="url(#pbca9e02f1a)" style="fill: none; stroke: #800080; stroke-width: 1.5; stroke-linecap: square"/>
   </g>
   <g id="line2d_25">
    <path d="M 48.415938 56.412625 
L 51.317828 64.394389 
L 54.175073 71.621364 
L 57.032319 78.249589 
L 59.84492 84.21728 
L 62.612877 89.577671 
L 65.380834 94.456106 
L 68.104146 98.811026 
L 70.827459 102.749689 
L 73.506127 106.241434 
L 76.184794 109.376909 
L 78.863462 112.178319 
L 81.586775 114.706138 
L 84.310087 116.932707 
L 87.078044 118.908621 
L 89.890645 120.64133 
L 92.747891 122.139002 
L 95.649781 123.410401 
L 98.64096 124.479008 
L 101.721428 125.344646 
L 104.935829 126.016559 
L 108.284164 126.488919 
L 111.811077 126.760534 
L 115.561212 126.822269 
L 119.534569 126.661662 
L 123.775793 126.265417 
L 128.374173 125.608799 
L 133.374353 124.666315 
L 138.865622 123.401873 
L 145.026559 121.750077 
L 152.035739 119.63462 
L 160.250321 116.915892 
L 170.429259 113.301436 
L 184.715487 107.971274 
L 226.190195 92.377024 
L 241.771113 86.827137 
L 256.235919 81.909245 
L 270.254281 77.377401 
L 284.094065 73.137044 
L 297.889205 69.142551 
L 311.818278 65.341277 
L 325.925928 61.722663 
L 340.256802 58.276703 
L 354.900186 54.984597 
L 369.900726 51.840308 
L 385.347711 48.83041 
L 401.285784 45.952684 
L 417.759592 43.205642 
L 434.813777 40.588401 
L 452.53763 38.094535 
L 471.020438 35.720059 
L 490.306847 33.467984 
L 494.815937 32.972515 
L 494.815937 32.972515 
" clip-path="url(#pbca9e02f1a)" style="fill: none; stroke-dasharray: 5.55,2.4; stroke-dashoffset: 0; stroke: #008000; stroke-width: 1.5"/>
   </g>
   <g id="patch_3">
    <path d="M 48.415938 455.580625 
L 48.415938 12.060625 
" style="fill: none; stroke: #000000; stroke-width: 0.8; stroke-linejoin: miter; stroke-linecap: square"/>
   </g>
   <g id="patch_4">
    <path d="M 48.415938 455.580625 
L 494.815937 455.580625 
" style="fill: none; stroke: #000000; stroke-width: 0.8; stroke-linejoin: miter; stroke-linecap: square"/>
   </g>
  </g>
 </g>
 <defs>
  <clipPath id="pbca9e02f1a">
   <rect x="48.415938" y="12.060625" width="446.4" height="443.52"/>
  </clipPath>
 </defs>
</svg>
