<?xml version="1.0" encoding="utf-8" standalone="no"?>
<!DOCTYPE svg PUBLIC "-//W3C//DTD SVG 1.1//EN"
  "http://www.w3.org/Graphics/SVG/1.1/DTD/svg11.dtd">
<svg xmlns:xlink="http://www.w3.org/1999/xlink" width="546.731875pt" height="499.2125pt" viewBox="0 0 546.731875 499.2125" xmlns="http://www.w3.org/2000/svg" version="1.1">
 <metadata>
  <rdf:RDF xmlns:dc="http://purl.org/dc/elements/1.1/" xmlns:cc="http://creativecommons.org/ns#" xmlns:rdf="http://www.w3.org/1999/02/22-rdf-syntax-ns#">
   <cc:Work>
    <dc:type rdf:resource="http://purl.org/dc/dcmitype/StillImage"/>
    <dc:date>2025-11-11T15:29:34.957434</dc:date>
    <dc:format>image/svg+xml</dc:format>
    <dc:creator>
     <cc:Agent>
      <dc:title>Matplotlib v3.10.7, https://matplotlib.org/</dc:title>
     </cc:Agent>
    </dc:creator>
   </cc:Work>
  </rdf:RDF>
 </metadata>
 <defs>
  <style type="text/css">*{stroke-linejoin: round; stroke-linecap: butt}</style>
 </defs>
 <g id="figure_1">
  <g id="patch_1">
   <path d="M 0 499.2125 
L 546.731875 499.2125 
L 546.731875 0 
L 0 0 
z
" style="fill: #ffffff"/>
  </g>
  <g id="axes_1">
   <g id="patch_2">
    <path d="M 51.915937 455.580625 
L 498.315937 455.580625 
L 498.315937 12.060625 
L 51.915937 12.060625 
z
" style="fill: #ffffff"/>
   </g>
   <g id="matplotlib.axis_1">
    <g id="xtick_1">
     <g id="line2d_1">
      <defs>
       <path id="m64b298bea2" d="M 0 0 
L 0 3.5 
" style="stroke: #000000; stroke-width: 0.8"/>
      </defs>
      <g>
       <use xlink:href="#m64b298bea2" x="51.915937" y="455.580625" style="stroke: #000000; stroke-width: 0.8"/>
      </g>
     </g>
     <g id="text_1">
      <!-- 0 -->
      <g transform="translate(48.415937 472.301875) scale(0.14 -0.14)">
       <defs>
        <path id="TimesNewRomanPSMT-30" d="M 231 2094 
Q 231 2819 450 3342 
Q 669 3866 1031 4122 
Q 1313 4325 1613 4325 
Q 2100 4325 2488 3828 
Q 2972 3213 2972 2159 
Q 2972 1422 2759 906 
Q 2547 391 2217 158 
Q 1888 -75 1581 -75 
Q 975 -75 572 641 
Q 231 1244 231 2094 
z
M 844 2016 
Q 844 1141 1059 588 
Q 1238 122 1591 122 
Q 1759 122 1940 273 
Q 2122 425 2216 781 
Q 2359 1319 2359 2297 
Q 2359 3022 2209 3506 
Q 2097 3866 1919 4016 
Q 1791 4119 1609 4119 
Q 1397 4119 1231 3928 
Q 1006 3669 925 3112 
Q 844 2556 844 2016 
z
" transform="scale(0.015625)"/>
       </defs>
       <use xlink:href="#TimesNewRomanPSMT-30"/>
      </g>
     </g>
    </g>
    <g id="xtick_2">
     <g id="line2d_2">
      <g>
       <use xlink:href="#m64b298bea2" x="115.687366" y="455.580625" style="stroke: #000000; stroke-width: 0.8"/>
      </g>
     </g>
     <g id="text_2">
      <!-- 1 -->
      <g transform="translate(112.187366 472.301875) scale(0.14 -0.14)">
       <defs>
        <path id="TimesNewRomanPSMT-31" d="M 750 3822 
L 1781 4325 
L 1884 4325 
L 1884 747 
Q 1884 391 1914 303 
Q 1944 216 2037 169 
Q 2131 122 2419 116 
L 2419 0 
L 825 0 
L 825 116 
Q 1125 122 1212 167 
Q 1300 213 1334 289 
Q 1369 366 1369 747 
L 1369 3034 
Q 1369 3497 1338 3628 
Q 1316 3728 1258 3775 
Q 1200 3822 1119 3822 
Q 1003 3822 797 3725 
L 750 3822 
z
" transform="scale(0.015625)"/>
       </defs>
       <use xlink:href="#TimesNewRomanPSMT-31"/>
      </g>
     </g>
    </g>
    <g id="xtick_3">
     <g id="line2d_3">
      <g>
       <use xlink:href="#m64b298bea2" x="179.458795" y="455.580625" style="stroke: #000000; stroke-width: 0.8"/>
      </g>
     </g>
     <g id="text_3">
      <!-- 2 -->
      <g transform="translate(175.958795 472.301875) scale(0.14 -0.14)">
       <defs>
        <path id="TimesNewRomanPSMT-32" d="M 2934 816 
L 2638 0 
L 138 0 
L 138 116 
Q 1241 1122 1691 1759 
Q 2141 2397 2141 2925 
Q 2141 3328 1894 3587 
Q 1647 3847 1303 3847 
Q 991 3847 742 3664 
Q 494 3481 375 3128 
L 259 3128 
Q 338 3706 661 4015 
Q 984 4325 1469 4325 
Q 1984 4325 2329 3994 
Q 2675 3663 2675 3213 
Q 2675 2891 2525 2569 
Q 2294 2063 1775 1497 
Q 997 647 803 472 
L 1909 472 
Q 2247 472 2383 497 
Q 2519 522 2628 598 
Q 2738 675 2819 816 
L 2934 816 
z
" transform="scale(0.015625)"/>
       </defs>
       <use xlink:href="#TimesNewRomanPSMT-32"/>
      </g>
     </g>
    </g>
    <g id="xtick_4">
     <g id="line2d_4">
      <g>
       <use xlink:href="#m64b298bea2" x="243.230223" y="455.580625" style="stroke: #000000; stroke-width: 0.8"/>
      </g>
     </g>
     <g id="text_4">
      <!-- 3 -->
      <g transform="translate(239.730223 472.301875) scale(0.14 -0.14)">
       <defs>
        <path id="TimesNewRomanPSMT-33" d="M 325 3431 
Q 506 3859 782 4092 
Q 1059 4325 1472 4325 
Q 1981 4325 2253 3994 
Q 2459 3747 2459 3466 
Q 2459 3003 1878 2509 
Q 2269 2356 2469 2072 
Q 2669 1788 2669 1403 
Q 2669 853 2319 450 
Q 1863 -75 997 -75 
Q 569 -75 414 31 
Q 259 138 259 259 
Q 259 350 332 419 
Q 406 488 509 488 
Q 588 488 669 463 
Q 722 447 909 348 
Q 1097 250 1169 231 
Q 1284 197 1416 197 
Q 1734 197 1970 444 
Q 2206 691 2206 1028 
Q 2206 1275 2097 1509 
Q 2016 1684 1919 1775 
Q 1784 1900 1550 2001 
Q 1316 2103 1072 2103 
L 972 2103 
L 972 2197 
Q 1219 2228 1467 2375 
Q 1716 2522 1828 2728 
Q 1941 2934 1941 3181 
Q 1941 3503 1739 3701 
Q 1538 3900 1238 3900 
Q 753 3900 428 3381 
L 325 3431 
z
" transform="scale(0.015625)"/>
       </defs>
       <use xlink:href="#TimesNewRomanPSMT-33"/>
      </g>
     </g>
    </g>
    <g id="xtick_5">
     <g id="line2d_5">
      <g>
       <use xlink:href="#m64b298bea2" x="307.001652" y="455.580625" style="stroke: #000000; stroke-width: 0.8"/>
      </g>
     </g>
     <g id="text_5">
      <!-- 4 -->
      <g transform="translate(303.501652 472.301875) scale(0.14 -0.14)">
       <defs>
        <path id="TimesNewRomanPSMT-34" d="M 2978 1563 
L 2978 1119 
L 2409 1119 
L 2409 0 
L 1894 0 
L 1894 1119 
L 100 1119 
L 100 1519 
L 2066 4325 
L 2409 4325 
L 2409 1563 
L 2978 1563 
z
M 1894 1563 
L 1894 3666 
L 406 1563 
L 1894 1563 
z
" transform="scale(0.015625)"/>
       </defs>
       <use xlink:href="#TimesNewRomanPSMT-34"/>
      </g>
     </g>
    </g>
    <g id="xtick_6">
     <g id="line2d_6">
      <g>
       <use xlink:href="#m64b298bea2" x="370.77308" y="455.580625" style="stroke: #000000; stroke-width: 0.8"/>
      </g>
     </g>
     <g id="text_6">
      <!-- 5 -->
      <g transform="translate(367.27308 472.301875) scale(0.14 -0.14)">
       <defs>
        <path id="TimesNewRomanPSMT-35" d="M 2778 4238 
L 2534 3706 
L 1259 3706 
L 981 3138 
Q 1809 3016 2294 2522 
Q 2709 2097 2709 1522 
Q 2709 1188 2573 903 
Q 2438 619 2231 419 
Q 2025 219 1772 97 
Q 1413 -75 1034 -75 
Q 653 -75 479 54 
Q 306 184 306 341 
Q 306 428 378 495 
Q 450 563 559 563 
Q 641 563 702 538 
Q 763 513 909 409 
Q 1144 247 1384 247 
Q 1750 247 2026 523 
Q 2303 800 2303 1197 
Q 2303 1581 2056 1914 
Q 1809 2247 1375 2428 
Q 1034 2569 447 2591 
L 1259 4238 
L 2778 4238 
z
" transform="scale(0.015625)"/>
       </defs>
       <use xlink:href="#TimesNewRomanPSMT-35"/>
      </g>
     </g>
    </g>
    <g id="xtick_7">
     <g id="line2d_7">
      <g>
       <use xlink:href="#m64b298bea2" x="434.544509" y="455.580625" style="stroke: #000000; stroke-width: 0.8"/>
      </g>
     </g>
     <g id="text_7">
      <!-- 6 -->
      <g transform="translate(431.044509 472.301875) scale(0.14 -0.14)">
       <defs>
        <path id="TimesNewRomanPSMT-36" d="M 2869 4325 
L 2869 4209 
Q 2456 4169 2195 4045 
Q 1934 3922 1679 3669 
Q 1425 3416 1258 3105 
Q 1091 2794 978 2366 
Q 1428 2675 1881 2675 
Q 2316 2675 2634 2325 
Q 2953 1975 2953 1425 
Q 2953 894 2631 456 
Q 2244 -75 1606 -75 
Q 1172 -75 869 213 
Q 275 772 275 1663 
Q 275 2231 503 2743 
Q 731 3256 1154 3653 
Q 1578 4050 1965 4187 
Q 2353 4325 2688 4325 
L 2869 4325 
z
M 925 2138 
Q 869 1716 869 1456 
Q 869 1156 980 804 
Q 1091 453 1309 247 
Q 1469 100 1697 100 
Q 1969 100 2183 356 
Q 2397 613 2397 1088 
Q 2397 1622 2184 2012 
Q 1972 2403 1581 2403 
Q 1463 2403 1327 2353 
Q 1191 2303 925 2138 
z
" transform="scale(0.015625)"/>
       </defs>
       <use xlink:href="#TimesNewRomanPSMT-36"/>
      </g>
     </g>
    </g>
    <g id="xtick_8">
     <g id="line2d_8">
      <g>
       <use xlink:href="#m64b298bea2" x="498.315937" y="455.580625" style="stroke: #000000; stroke-width: 0.8"/>
      </g>
     </g>
     <g id="text_8">
      <!-- 7 -->
      <g transform="translate(494.815937 472.301875) scale(0.14 -0.14)">
       <defs>
        <path id="TimesNewRomanPSMT-37" d="M 644 4238 
L 2916 4238 
L 2916 4119 
L 1503 -88 
L 1153 -88 
L 2419 3728 
L 1253 3728 
Q 900 3728 750 3644 
Q 488 3500 328 3200 
L 238 3234 
L 644 4238 
z
" transform="scale(0.015625)"/>
       </defs>
       <use xlink:href="#TimesNewRomanPSMT-37"/>
      </g>
     </g>
    </g>
    <g id="text_9">
     <!-- t -->
     <g transform="translate(273.17125 489.017812) scale(0.14 -0.14)">
      <defs>
       <path id="TimesNewRomanPSMT-74" d="M 1031 3803 
L 1031 2863 
L 1700 2863 
L 1700 2644 
L 1031 2644 
L 1031 788 
Q 1031 509 1111 412 
Q 1191 316 1316 316 
Q 1419 316 1516 380 
Q 1613 444 1666 569 
L 1788 569 
Q 1678 263 1478 108 
Q 1278 -47 1066 -47 
Q 922 -47 784 33 
Q 647 113 581 261 
Q 516 409 516 719 
L 516 2644 
L 63 2644 
L 63 2747 
Q 234 2816 414 2980 
Q 594 3144 734 3369 
Q 806 3488 934 3803 
L 1031 3803 
z
" transform="scale(0.015625)"/>
      </defs>
      <use xlink:href="#TimesNewRomanPSMT-74"/>
     </g>
    </g>
   </g>
   <g id="matplotlib.axis_2">
    <g id="ytick_1">
     <g id="line2d_9">
      <defs>
       <path id="m8135e9bec2" d="M 0 0 
L -3.5 0 
" style="stroke: #000000; stroke-width: 0.8"/>
      </defs>
      <g>
       <use xlink:href="#m8135e9bec2" x="51.915937" y="455.580625" style="stroke: #000000; stroke-width: 0.8"/>
      </g>
     </g>
     <g id="text_10">
      <!-- 0 -->
      <g transform="translate(37.915937 460.44125) scale(0.14 -0.14)">
       <use xlink:href="#TimesNewRomanPSMT-30"/>
      </g>
     </g>
    </g>
    <g id="ytick_2">
     <g id="line2d_10">
      <g>
       <use xlink:href="#m8135e9bec2" x="51.915937" y="366.876625" style="stroke: #000000; stroke-width: 0.8"/>
      </g>
     </g>
     <g id="text_11">
      <!-- 100 -->
      <g transform="translate(23.915937 371.73725) scale(0.14 -0.14)">
       <use xlink:href="#TimesNewRomanPSMT-31"/>
       <use xlink:href="#TimesNewRomanPSMT-30" transform="translate(50 0)"/>
       <use xlink:href="#TimesNewRomanPSMT-30" transform="translate(100 0)"/>
      </g>
     </g>
    </g>
    <g id="ytick_3">
     <g id="line2d_11">
      <g>
       <use xlink:href="#m8135e9bec2" x="51.915937" y="278.172625" style="stroke: #000000; stroke-width: 0.8"/>
      </g>
     </g>
     <g id="text_12">
      <!-- 200 -->
      <g transform="translate(23.915937 283.03325) scale(0.14 -0.14)">
       <use xlink:href="#TimesNewRomanPSMT-32"/>
       <use xlink:href="#TimesNewRomanPSMT-30" transform="translate(50 0)"/>
       <use xlink:href="#TimesNewRomanPSMT-30" transform="translate(100 0)"/>
      </g>
     </g>
    </g>
    <g id="ytick_4">
     <g id="line2d_12">
      <g>
       <use xlink:href="#m8135e9bec2" x="51.915937" y="189.468625" style="stroke: #000000; stroke-width: 0.8"/>
      </g>
     </g>
     <g id="text_13">
      <!-- 300 -->
      <g transform="translate(23.915937 194.32925) scale(0.14 -0.14)">
       <use xlink:href="#TimesNewRomanPSMT-33"/>
       <use xlink:href="#TimesNewRomanPSMT-30" transform="translate(50 0)"/>
       <use xlink:href="#TimesNewRomanPSMT-30" transform="translate(100 0)"/>
      </g>
     </g>
    </g>
    <g id="ytick_5">
     <g id="line2d_13">
      <g>
       <use xlink:href="#m8135e9bec2" x="51.915937" y="100.764625" style="stroke: #000000; stroke-width: 0.8"/>
      </g>
     </g>
     <g id="text_14">
      <!-- 400 -->
      <g transform="translate(23.915937 105.62525) scale(0.14 -0.14)">
       <use xlink:href="#TimesNewRomanPSMT-34"/>
       <use xlink:href="#TimesNewRomanPSMT-30" transform="translate(50 0)"/>
       <use xlink:href="#TimesNewRomanPSMT-30" transform="translate(100 0)"/>
      </g>
     </g>
    </g>
    <g id="ytick_6">
     <g id="line2d_14">
      <g>
       <use xlink:href="#m8135e9bec2" x="51.915937" y="12.060625" style="stroke: #000000; stroke-width: 0.8"/>
      </g>
     </g>
     <g id="text_15">
      <!-- 500 -->
      <g transform="translate(23.915937 16.92125) scale(0.14 -0.14)">
       <use xlink:href="#TimesNewRomanPSMT-35"/>
       <use xlink:href="#TimesNewRomanPSMT-30" transform="translate(50 0)"/>
       <use xlink:href="#TimesNewRomanPSMT-30" transform="translate(100 0)"/>
      </g>
     </g>
    </g>
    <g id="text_16">
     <!-- s -->
     <g transform="translate(16.92125 236.545156) rotate(-90) scale(0.14 -0.14)">
      <defs>
       <path id="TimesNewRomanPSMT-73" d="M 2050 2947 
L 2050 1972 
L 1947 1972 
Q 1828 2431 1642 2597 
Q 1456 2763 1169 2763 
Q 950 2763 815 2647 
Q 681 2531 681 2391 
Q 681 2216 781 2091 
Q 878 1963 1175 1819 
L 1631 1597 
Q 2266 1288 2266 781 
Q 2266 391 1970 151 
Q 1675 -88 1309 -88 
Q 1047 -88 709 6 
Q 606 38 541 38 
Q 469 38 428 -44 
L 325 -44 
L 325 978 
L 428 978 
Q 516 541 762 319 
Q 1009 97 1316 97 
Q 1531 97 1667 223 
Q 1803 350 1803 528 
Q 1803 744 1651 891 
Q 1500 1038 1047 1263 
Q 594 1488 453 1669 
Q 313 1847 313 2119 
Q 313 2472 555 2709 
Q 797 2947 1181 2947 
Q 1350 2947 1591 2875 
Q 1750 2828 1803 2828 
Q 1853 2828 1881 2850 
Q 1909 2872 1947 2947 
L 2050 2947 
z
" transform="scale(0.015625)"/>
      </defs>
      <use xlink:href="#TimesNewRomanPSMT-73"/>
     </g>
    </g>
   </g>
   <g id="line2d_15">
    <path d="M 51.915937 366.876625 
L 59.263141 371.336941 
L 66.763411 375.63062 
L 74.518792 379.813023 
L 82.478262 383.851896 
L 90.692844 387.769423 
L 99.162536 391.560556 
L 107.88734 395.221298 
L 116.918278 398.768022 
L 126.255349 402.194805 
L 135.949575 405.513799 
L 146.000957 408.717919 
L 156.409495 411.801474 
L 167.226211 414.77359 
L 178.502128 417.640548 
L 190.288266 420.406208 
L 202.584627 423.061822 
L 215.442233 425.610191 
L 228.963128 428.061368 
L 243.147312 430.404897 
L 258.09683 432.64725 
L 273.862704 434.784866 
L 290.546978 436.820014 
L 308.200675 438.747364 
L 326.976861 440.571613 
L 347.028603 442.293924 
L 368.508968 443.912901 
L 391.571023 445.425506 
L 416.520901 446.83593 
L 443.613713 448.141259 
L 473.206615 449.340823 
L 498.360582 450.204215 
L 498.360582 450.204215 
" clip-path="url(#p567bf6e9d0)" style="fill: none; stroke: #00ffff; stroke-width: 1.5; stroke-linecap: square"/>
   </g>
   <g id="line2d_16">
    <path d="M 51.915937 278.172625 
L 57.936562 285.520837 
L 64.059232 292.642718 
L 70.232923 299.485306 
L 76.50866 306.111622 
L 82.88644 312.524218 
L 89.366265 318.725937 
L 95.948135 324.719879 
L 102.683071 330.55246 
L 109.520052 336.179859 
L 116.5101 341.644942 
L 123.653214 346.945917 
L 130.898373 352.046631 
L 138.347621 357.01826 
L 145.949935 361.823841 
L 153.705316 366.46379 
L 161.664787 370.967043 
L 169.828346 375.330214 
L 178.195994 379.55069 
L 186.818753 383.650126 
L 195.696624 387.623146 
L 204.829606 391.465356 
L 214.217699 395.173294 
L 223.911926 398.76266 
L 233.912286 402.228155 
L 244.269801 405.581529 
L 254.984473 408.816338 
L 266.107322 411.941224 
L 277.63835 414.949215 
L 289.628577 417.846617 
L 302.129027 420.637429 
L 315.190722 423.323701 
L 328.813662 425.896649 
L 343.048868 428.357828 
L 357.998386 430.715271 
L 373.713237 432.966299 
L 390.244445 435.107875 
L 407.694052 437.142516 
L 426.164105 439.070506 
L 445.80767 440.89497 
L 466.72679 442.611951 
L 489.074533 444.220671 
L 498.360582 444.827805 
L 498.360582 444.827805 
" clip-path="url(#p567bf6e9d0)" style="fill: none; stroke: #000000; stroke-width: 1.5; stroke-linecap: square"/>
   </g>
   <g id="line2d_17">
    <path d="M 51.915937 189.468625 
L 57.579407 199.851793 
L 63.293898 209.866766 
L 69.059412 219.525201 
L 74.875948 228.838482 
L 80.743506 237.817697 
L 86.713109 246.546566 
L 92.733734 254.956147 
L 98.805381 263.057057 
L 104.979072 270.923126 
L 111.203786 278.495084 
L 117.530545 285.840878 
L 123.908325 292.907105 
L 130.38815 299.756237 
L 136.97002 306.390443 
L 143.653934 312.812188 
L 150.439893 319.024203 
L 157.327896 325.029465 
L 164.368966 330.872477 
L 171.51208 336.511301 
L 178.808261 341.987087 
L 186.257509 347.298197 
L 193.859823 352.44356 
L 201.615205 357.422642 
L 209.523653 362.23541 
L 217.63619 366.910907 
L 225.901793 371.4183 
L 234.371486 375.784617 
L 243.09629 380.031527 
L 252.025183 384.130368 
L 261.209187 388.101594 
L 270.648302 391.941029 
L 280.393551 395.664263 
L 290.444933 399.265288 
L 300.802449 402.739184 
L 311.51712 406.097527 
L 322.588948 409.334279 
L 334.068953 412.458003 
L 346.008158 415.474554 
L 358.406564 418.375955 
L 371.315192 421.166388 
L 384.734042 423.838399 
L 398.76516 426.404076 
L 413.408544 428.854633 
L 428.76624 431.198139 
L 444.889269 433.432293 
L 461.879677 435.560518 
L 479.788485 437.578229 
L 498.360582 439.452085 
L 498.360582 439.452085 
" clip-path="url(#p567bf6e9d0)" style="fill: none; stroke: #00ffff; stroke-width: 1.5; stroke-linecap: square"/>
   </g>
   <g id="line2d_18">
    <path d="M 51.915937 100.764625 
L 59.212119 118.706931 
L 65.028654 132.414483 
L 70.641101 145.075937 
L 76.202526 157.079985 
L 81.814973 168.667136 
L 87.42742 179.749062 
L 93.090889 190.444617 
L 98.805381 200.765354 
L 104.570894 210.722787 
L 110.38743 220.328235 
L 116.254989 229.592762 
L 122.173569 238.527154 
L 128.194194 247.213888 
L 134.265841 255.584834 
L 140.38851 263.650343 
L 146.613224 271.483216 
L 152.888961 279.024829 
L 159.266741 286.342221 
L 165.746566 293.437115 
L 172.277414 300.259525 
L 178.910306 306.868718 
L 185.645242 313.267075 
L 192.482223 319.457244 
L 199.421248 325.442119 
L 206.51334 331.265688 
L 213.707477 336.886415 
L 221.05468 342.344994 
L 228.55495 347.639773 
L 236.208287 352.769668 
L 244.01469 357.734121 
L 251.97416 362.53307 
L 260.13772 367.195269 
L 268.505368 371.716956 
L 277.077105 376.095127 
L 285.852931 380.327497 
L 294.883869 384.434991 
L 304.169917 388.412688 
L 313.711077 392.256588 
L 323.507348 395.963567 
L 333.609753 399.548861 
L 344.069313 403.023979 
L 354.886029 406.381809 
L 366.0599 409.616493 
L 377.64195 412.736633 
L 389.632178 415.735851 
L 402.132628 418.631865 
L 415.1433 421.415677 
L 428.664195 424.080024 
L 442.797357 426.636981 
L 457.593808 429.086033 
L 473.104571 431.425747 
L 489.380667 433.654066 
L 498.360582 434.792286 
L 498.360582 434.792286 
" clip-path="url(#p567bf6e9d0)" style="fill: none; stroke: #000000; stroke-width: 1.5; stroke-linecap: square"/>
   </g>
   <g id="line2d_19">
    <path d="M 51.915937 12.060625 
L 52.171049 13.313703 
L 53.446605 21.927381 
L 57.171229 46.458193 
L 60.742786 68.527722 
L 64.212299 88.600822 
L 67.681811 107.375448 
L 71.151324 124.931773 
L 74.620837 141.358545 
L 78.141371 156.960656 
L 81.712929 171.776619 
L 85.284486 185.652324 
L 88.907065 198.84023 
L 92.580667 211.372971 
L 96.254268 223.123968 
L 99.978892 234.301049 
L 103.754539 244.93128 
L 107.581207 255.040674 
L 111.458898 264.654199 
L 115.336588 273.680738 
L 119.265301 282.272285 
L 123.245036 290.449461 
L 127.275793 298.23203 
L 131.408595 305.728638 
L 135.592419 312.85686 
L 139.827266 319.635031 
L 144.113134 326.080627 
L 148.501047 332.280178 
L 152.939983 338.171229 
L 157.480963 343.831304 
L 162.123987 349.264234 
L 166.869056 354.474419 
L 171.716169 359.466742 
L 176.665327 364.246483 
L 181.767551 368.863954 
L 186.97182 373.274667 
L 192.329156 377.52436 
L 197.839558 381.612134 
L 203.503028 385.538034 
L 209.370586 389.334842 
L 215.442233 392.997702 
L 221.717969 396.523134 
L 228.248817 399.934597 
L 234.983753 403.201613 
L 242.024823 406.368599 
L 249.321004 409.406352 
L 256.97434 412.350434 
L 264.984833 415.191037 
L 273.352481 417.920491 
L 282.128307 420.547726 
L 291.363334 423.078475 
L 301.108582 425.515857 
L 311.364054 427.849838 
L 322.231792 430.093019 
L 333.762819 432.243499 
L 346.008158 434.298658 
L 359.069853 436.262773 
L 372.998926 438.130453 
L 387.948444 439.908344 
L 404.020451 441.593423 
L 421.368014 443.186203 
L 440.195223 444.688448 
L 460.655143 446.095045 
L 483.053908 447.40893 
L 498.360582 448.191405 
L 498.360582 448.191405 
" clip-path="url(#p567bf6e9d0)" style="fill: none; stroke: #ff0000; stroke-width: 1.5; stroke-linecap: square"/>
   </g>
   <g id="patch_3">
    <path d="M 51.915937 455.580625 
L 51.915937 12.060625 
" style="fill: none; stroke: #000000; stroke-width: 0.8; stroke-linejoin: miter; stroke-linecap: square"/>
   </g>
   <g id="patch_4">
    <path d="M 51.915937 455.580625 
L 498.315937 455.580625 
" style="fill: none; stroke: #000000; stroke-width: 0.8; stroke-linejoin: miter; stroke-linecap: square"/>
   </g>
  </g>
  <g id="axes_2">
   <g id="matplotlib.axis_3">
    <g id="ytick_7">
     <g id="line2d_20">
      <defs>
       <path id="m964cbae4ba" d="M 0 0 
L 3.5 0 
" style="stroke: #000000; stroke-width: 0.8"/>
      </defs>
      <g>
       <use xlink:href="#m964cbae4ba" x="498.315937" y="455.580625" style="stroke: #000000; stroke-width: 0.8"/>
      </g>
     </g>
     <g id="text_17">
      <!-- 0.0 -->
      <g transform="translate(505.315937 460.44125) scale(0.14 -0.14)">
       <defs>
        <path id="TimesNewRomanPSMT-2e" d="M 800 606 
Q 947 606 1047 504 
Q 1147 403 1147 259 
Q 1147 116 1045 14 
Q 944 -88 800 -88 
Q 656 -88 554 14 
Q 453 116 453 259 
Q 453 406 554 506 
Q 656 606 800 606 
z
" transform="scale(0.015625)"/>
       </defs>
       <use xlink:href="#TimesNewRomanPSMT-30"/>
       <use xlink:href="#TimesNewRomanPSMT-2e" transform="translate(50 0)"/>
       <use xlink:href="#TimesNewRomanPSMT-30" transform="translate(75 0)"/>
      </g>
     </g>
    </g>
    <g id="ytick_8">
     <g id="line2d_21">
      <g>
       <use xlink:href="#m964cbae4ba" x="498.315937" y="366.876625" style="stroke: #000000; stroke-width: 0.8"/>
      </g>
     </g>
     <g id="text_18">
      <!-- 0.2 -->
      <g transform="translate(505.315937 371.73725) scale(0.14 -0.14)">
       <use xlink:href="#TimesNewRomanPSMT-30"/>
       <use xlink:href="#TimesNewRomanPSMT-2e" transform="translate(50 0)"/>
       <use xlink:href="#TimesNewRomanPSMT-32" transform="translate(75 0)"/>
      </g>
     </g>
    </g>
    <g id="ytick_9">
     <g id="line2d_22">
      <g>
       <use xlink:href="#m964cbae4ba" x="498.315937" y="278.172625" style="stroke: #000000; stroke-width: 0.8"/>
      </g>
     </g>
     <g id="text_19">
      <!-- 0.4 -->
      <g transform="translate(505.315937 283.03325) scale(0.14 -0.14)">
       <use xlink:href="#TimesNewRomanPSMT-30"/>
       <use xlink:href="#TimesNewRomanPSMT-2e" transform="translate(50 0)"/>
       <use xlink:href="#TimesNewRomanPSMT-34" transform="translate(75 0)"/>
      </g>
     </g>
    </g>
    <g id="ytick_10">
     <g id="line2d_23">
      <g>
       <use xlink:href="#m964cbae4ba" x="498.315937" y="189.468625" style="stroke: #000000; stroke-width: 0.8"/>
      </g>
     </g>
     <g id="text_20">
      <!-- 0.6 -->
      <g transform="translate(505.315937 194.32925) scale(0.14 -0.14)">
       <use xlink:href="#TimesNewRomanPSMT-30"/>
       <use xlink:href="#TimesNewRomanPSMT-2e" transform="translate(50 0)"/>
       <use xlink:href="#TimesNewRomanPSMT-36" transform="translate(75 0)"/>
      </g>
     </g>
    </g>
    <g id="ytick_11">
     <g id="line2d_24">
      <g>
       <use xlink:href="#m964cbae4ba" x="498.315937" y="100.764625" style="stroke: #000000; stroke-width: 0.8"/>
      </g>
     </g>
     <g id="text_21">
      <!-- 0.8 -->
      <g transform="translate(505.315937 105.62525) scale(0.14 -0.14)">
       <defs>
        <path id="TimesNewRomanPSMT-38" d="M 1228 2134 
Q 725 2547 579 2797 
Q 434 3047 434 3316 
Q 434 3728 753 4026 
Q 1072 4325 1600 4325 
Q 2113 4325 2425 4047 
Q 2738 3769 2738 3413 
Q 2738 3175 2569 2928 
Q 2400 2681 1866 2347 
Q 2416 1922 2594 1678 
Q 2831 1359 2831 1006 
Q 2831 559 2490 242 
Q 2150 -75 1597 -75 
Q 994 -75 656 303 
Q 388 606 388 966 
Q 388 1247 577 1523 
Q 766 1800 1228 2134 
z
M 1719 2469 
Q 2094 2806 2194 3001 
Q 2294 3197 2294 3444 
Q 2294 3772 2109 3958 
Q 1925 4144 1606 4144 
Q 1288 4144 1088 3959 
Q 888 3775 888 3528 
Q 888 3366 970 3203 
Q 1053 3041 1206 2894 
L 1719 2469 
z
M 1375 2016 
Q 1116 1797 991 1539 
Q 866 1281 866 981 
Q 866 578 1086 336 
Q 1306 94 1647 94 
Q 1984 94 2187 284 
Q 2391 475 2391 747 
Q 2391 972 2272 1150 
Q 2050 1481 1375 2016 
z
" transform="scale(0.015625)"/>
       </defs>
       <use xlink:href="#TimesNewRomanPSMT-30"/>
       <use xlink:href="#TimesNewRomanPSMT-2e" transform="translate(50 0)"/>
       <use xlink:href="#TimesNewRomanPSMT-38" transform="translate(75 0)"/>
      </g>
     </g>
    </g>
    <g id="ytick_12">
     <g id="line2d_25">
      <g>
       <use xlink:href="#m964cbae4ba" x="498.315937" y="12.060625" style="stroke: #000000; stroke-width: 0.8"/>
      </g>
     </g>
     <g id="text_22">
      <!-- 1.0 -->
      <g transform="translate(505.315937 16.92125) scale(0.14 -0.14)">
       <use xlink:href="#TimesNewRomanPSMT-31"/>
       <use xlink:href="#TimesNewRomanPSMT-2e" transform="translate(50 0)"/>
       <use xlink:href="#TimesNewRomanPSMT-30" transform="translate(75 0)"/>
      </g>
     </g>
    </g>
    <g id="text_23">
     <!-- w -->
     <g transform="translate(536.537188 238.875937) rotate(-90) scale(0.14 -0.14)">
      <defs>
       <path id="TimesNewRomanPSMT-77" d="M 41 2863 
L 1241 2863 
L 1241 2747 
Q 1075 2734 1023 2687 
Q 972 2641 972 2553 
Q 972 2456 1025 2319 
L 1638 672 
L 2253 2013 
L 2091 2434 
Q 2016 2622 1894 2694 
Q 1825 2738 1638 2747 
L 1638 2863 
L 3000 2863 
L 3000 2747 
Q 2775 2738 2681 2666 
Q 2619 2616 2619 2506 
Q 2619 2444 2644 2378 
L 3294 734 
L 3897 2319 
Q 3959 2488 3959 2588 
Q 3959 2647 3898 2694 
Q 3838 2741 3659 2747 
L 3659 2863 
L 4563 2863 
L 4563 2747 
Q 4291 2706 4163 2378 
L 3206 -88 
L 3078 -88 
L 2363 1741 
L 1528 -88 
L 1413 -88 
L 494 2319 
Q 403 2547 315 2626 
Q 228 2706 41 2747 
L 41 2863 
z
" transform="scale(0.015625)"/>
      </defs>
      <use xlink:href="#TimesNewRomanPSMT-77"/>
     </g>
    </g>
   </g>
   <g id="line2d_26">
    <path d="M 51.915937 100.764625 
L 63.089809 96.222306 
L 74.518792 91.816815 
L 86.202886 87.551279 
L 98.193114 83.411044 
L 110.489475 79.400828 
L 123.142992 75.509311 
L 136.102642 71.756647 
L 149.47047 68.118189 
L 163.246476 64.600511 
L 177.43066 61.209106 
L 192.074045 57.937402 
L 207.227652 54.780827 
L 222.891481 51.746072 
L 239.116555 48.829692 
L 256.004918 46.021495 
L 273.55657 43.330048 
L 291.822534 40.755316 
L 310.904854 38.291657 
L 330.854551 35.941878 
L 351.773672 33.703665 
L 373.764259 31.576604 
L 396.928359 29.561707 
L 421.368014 27.660941 
L 447.287315 25.870156 
L 474.890349 24.188494 
L 498.360582 22.920719 
L 498.360582 22.920719 
" clip-path="url(#p567bf6e9d0)" style="fill: none; stroke-dasharray: 5.55,2.4; stroke-dashoffset: 0; stroke: #00ffff; stroke-width: 1.5"/>
   </g>
   <g id="line2d_27">
    <path d="M 51.915937 100.764625 
L 63.089809 96.22232 
L 74.518792 91.816832 
L 86.202886 87.551297 
L 98.193114 83.411062 
L 110.489475 79.400846 
L 123.142992 75.509327 
L 136.102642 71.756663 
L 149.47047 68.118204 
L 163.246476 64.600525 
L 177.43066 61.209119 
L 192.074045 57.937415 
L 207.227652 54.780838 
L 222.891481 51.746083 
L 239.116555 48.829702 
L 256.004918 46.021504 
L 273.55657 43.330056 
L 291.822534 40.755324 
L 310.904854 38.291664 
L 330.854551 35.941885 
L 351.773672 33.703671 
L 373.764259 31.57661 
L 396.928359 29.561711 
L 421.368014 27.660945 
L 447.287315 25.87016 
L 474.890349 24.188497 
L 498.360582 22.920722 
L 498.360582 22.920722 
" clip-path="url(#p567bf6e9d0)" style="fill: none; stroke-dasharray: 5.55,2.4; stroke-dashoffset: 0; stroke: #000000; stroke-width: 1.5"/>
   </g>
   <g id="line2d_28">
    <path d="M 51.915937 100.764625 
L 63.702076 95.992356 
L 75.284126 91.544089 
L 87.019242 87.275672 
L 99.060492 83.13365 
L 111.407875 79.122973 
L 124.061392 75.247527 
L 137.072065 71.496084 
L 150.439893 67.873509 
L 164.215899 64.371186 
L 178.451105 60.98284 
L 193.145512 57.715239 
L 208.299119 54.57395 
L 224.01397 51.544413 
L 240.290066 48.634073 
L 257.178429 45.840816 
L 274.781104 43.156223 
L 293.09809 40.588956 
L 312.231432 38.133322 
L 332.232152 35.792029 
L 353.202295 33.562699 
L 375.243905 31.444839 
L 398.459026 29.439373 
L 423.000726 27.54446 
L 449.022071 25.760467 
L 476.72715 24.086388 
L 498.360582 22.922741 
L 498.360582 22.922741 
" clip-path="url(#p567bf6e9d0)" style="fill: none; stroke-dasharray: 5.55,2.4; stroke-dashoffset: 0; stroke: #00ffff; stroke-width: 1.5"/>
   </g>
   <g id="line2d_29">
    <path d="M 51.915937 100.764625 
L 52.936382 102.560072 
L 53.956827 103.935087 
L 55.028294 105.014959 
L 56.150784 105.826353 
L 57.324295 106.397035 
L 58.599852 106.765103 
L 60.028474 106.937344 
L 61.661186 106.902017 
L 63.600032 106.629362 
L 65.998077 106.058407 
L 69.161456 105.063547 
L 73.804481 103.34921 
L 83.702796 99.395484 
L 97.989025 93.766258 
L 109.877208 89.328129 
L 121.816413 85.109255 
L 134.01073 81.037016 
L 146.51118 77.097847 
L 159.368786 73.280637 
L 172.583547 69.590712 
L 186.155464 66.032428 
L 200.186582 62.584963 
L 214.625877 59.266973 
L 229.575395 56.061141 
L 245.035135 52.974698 
L 261.05612 50.004441 
L 277.689372 47.148608 
L 294.934891 44.414397 
L 312.894721 41.793168 
L 331.619885 39.286106 
L 351.212427 36.888925 
L 371.72337 34.605201 
L 393.254757 32.4335 
L 415.908634 30.374037 
L 439.787045 28.428204 
L 465.094078 26.591135 
L 491.982801 24.864629 
L 498.360582 24.486176 
L 498.360582 24.486176 
" clip-path="url(#p567bf6e9d0)" style="fill: none; stroke-dasharray: 5.55,2.4; stroke-dashoffset: 0; stroke: #000000; stroke-width: 1.5"/>
   </g>
   <g id="line2d_30">
    <path d="M 51.915937 100.764625 
L 52.120026 374.038548 
L 52.324115 434.12291 
L 52.579227 450.485394 
L 52.834338 453.89499 
L 53.089449 454.717193 
L 53.34456 454.918297 
L 53.752738 454.9227 
L 54.620116 454.660404 
L 55.793628 454.08632 
L 56.96714 453.267853 
L 58.191674 452.132094 
L 59.518252 450.581929 
L 61.048919 448.429315 
L 62.936742 445.362718 
L 65.538877 440.671966 
L 70.334968 431.475997 
L 80.641461 411.726759 
L 88.090709 397.968448 
L 95.488935 384.769267 
L 102.88716 372.020975 
L 110.336408 359.625199 
L 117.836678 347.575726 
L 125.336948 335.943983 
L 132.88824 324.640456 
L 140.490555 313.659022 
L 148.143892 302.993544 
L 155.848251 292.637878 
L 163.603632 282.585878 
L 171.410035 272.831403 
L 179.267461 263.368324 
L 187.175909 254.190525 
L 195.135379 245.291913 
L 203.196894 236.612517 
L 211.309431 228.204226 
L 219.524013 220.010932 
L 227.789616 212.080203 
L 236.157264 204.359599 
L 244.626957 196.848276 
L 253.147672 189.587734 
L 261.770432 182.530615 
L 270.495235 175.675471 
L 279.373106 168.982958 
L 288.353021 162.491964 
L 297.486003 156.165663 
L 306.721029 150.039159 
L 316.109123 144.078022 
L 325.650282 138.283503 
L 335.344509 132.656449 
L 345.191802 127.197314 
L 355.243185 121.879816 
L 365.447634 116.732504 
L 375.856172 111.730712 
L 386.468799 106.876856 
L 397.336537 102.151195 
L 408.459386 97.558392 
L 419.786325 93.121866 
L 431.419396 88.804951 
L 443.30758 84.630789 
L 455.501896 80.584905 
L 468.053368 76.655962 
L 480.910974 72.864662 
L 494.176758 69.186087 
L 498.360582 68.072738 
L 498.360582 68.072738 
" clip-path="url(#p567bf6e9d0)" style="fill: none; stroke-dasharray: 5.55,2.4; stroke-dashoffset: 0; stroke: #ff0000; stroke-width: 1.5"/>
   </g>
   <g id="patch_5">
    <path d="M 51.915937 455.580625 
L 51.915937 12.060625 
" style="fill: none; stroke: #000000; stroke-width: 0.8; stroke-linejoin: miter; stroke-linecap: square"/>
   </g>
   <g id="patch_6">
    <path d="M 498.315937 455.580625 
L 498.315937 12.060625 
" style="fill: none; stroke: #000000; stroke-width: 0.8; stroke-linejoin: miter; stroke-linecap: square"/>
   </g>
   <g id="patch_7">
    <path d="M 51.915937 455.580625 
L 498.315937 455.580625 
" style="fill: none; stroke: #000000; stroke-width: 0.8; stroke-linejoin: miter; stroke-linecap: square"/>
   </g>
   <g id="patch_8">
    <path d="M 51.915937 12.060625 
L 498.315937 12.060625 
" style="fill: none; stroke: #000000; stroke-width: 0.8; stroke-linejoin: miter; stroke-linecap: square"/>
   </g>
  </g>
 </g>
 <defs>
  <clipPath id="p567bf6e9d0">
   <rect x="51.915937" y="12.060625" width="446.4" height="443.52"/>
  </clipPath>
 </defs>
</svg>
