<?xml version="1.0" encoding="utf-8" standalone="no"?>
<!DOCTYPE svg PUBLIC "-//W3C//DTD SVG 1.1//EN"
  "http://www.w3.org/Graphics/SVG/1.1/DTD/svg11.dtd">
<svg xmlns:xlink="http://www.w3.org/1999/xlink" width="546.731875pt" height="499.2125pt" viewBox="0 0 546.731875 499.2125" xmlns="http://www.w3.org/2000/svg" version="1.1">
 <metadata>
  <rdf:RDF xmlns:dc="http://purl.org/dc/elements/1.1/" xmlns:cc="http://creativecommons.org/ns#" xmlns:rdf="http://www.w3.org/1999/02/22-rdf-syntax-ns#">
   <cc:Work>
    <dc:type rdf:resource="http://purl.org/dc/dcmitype/StillImage"/>
    <dc:date>2025-11-09T15:48:33.243084</dc:date>
    <dc:format>image/svg+xml</dc:format>
    <dc:creator>
     <cc:Agent>
      <dc:title>Matplotlib v3.10.7, https://matplotlib.org/</dc:title>
     </cc:Agent>
    </dc:creator>
   </cc:Work>
  </rdf:RDF>
 </metadata>
 <defs>
  <style type="text/css">*{stroke-linejoin: round; stroke-linecap: butt}</style>
 </defs>
 <g id="figure_1">
  <g id="patch_1">
   <path d="M 0 499.2125 
L 546.731875 499.2125 
L 546.731875 0 
L 0 0 
z
" style="fill: #ffffff"/>
  </g>
  <g id="axes_1">
   <g id="patch_2">
    <path d="M 51.915937 455.580625 
L 498.315937 455.580625 
L 498.315937 12.060625 
L 51.915937 12.060625 
z
" style="fill: #ffffff"/>
   </g>
   <g id="matplotlib.axis_1">
    <g id="xtick_1">
     <g id="line2d_1">
      <defs>
       <path id="m64d97840ab" d="M 0 0 
L 0 3.5 
" style="stroke: #000000; stroke-width: 0.8"/>
      </defs>
      <g>
       <use xlink:href="#m64d97840ab" x="51.915937" y="455.580625" style="stroke: #000000; stroke-width: 0.8"/>
      </g>
     </g>
     <g id="text_1">
      <!-- 0 -->
      <g transform="translate(48.415937 472.301875) scale(0.14 -0.14)">
       <defs>
        <path id="TimesNewRomanPSMT-30" d="M 231 2094 
Q 231 2819 450 3342 
Q 669 3866 1031 4122 
Q 1313 4325 1613 4325 
Q 2100 4325 2488 3828 
Q 2972 3213 2972 2159 
Q 2972 1422 2759 906 
Q 2547 391 2217 158 
Q 1888 -75 1581 -75 
Q 975 -75 572 641 
Q 231 1244 231 2094 
z
M 844 2016 
Q 844 1141 1059 588 
Q 1238 122 1591 122 
Q 1759 122 1940 273 
Q 2122 425 2216 781 
Q 2359 1319 2359 2297 
Q 2359 3022 2209 3506 
Q 2097 3866 1919 4016 
Q 1791 4119 1609 4119 
Q 1397 4119 1231 3928 
Q 1006 3669 925 3112 
Q 844 2556 844 2016 
z
" transform="scale(0.015625)"/>
       </defs>
       <use xlink:href="#TimesNewRomanPSMT-30"/>
      </g>
     </g>
    </g>
    <g id="xtick_2">
     <g id="line2d_2">
      <g>
       <use xlink:href="#m64d97840ab" x="107.715937" y="455.580625" style="stroke: #000000; stroke-width: 0.8"/>
      </g>
     </g>
     <g id="text_2">
      <!-- 1 -->
      <g transform="translate(104.215937 472.301875) scale(0.14 -0.14)">
       <defs>
        <path id="TimesNewRomanPSMT-31" d="M 750 3822 
L 1781 4325 
L 1884 4325 
L 1884 747 
Q 1884 391 1914 303 
Q 1944 216 2037 169 
Q 2131 122 2419 116 
L 2419 0 
L 825 0 
L 825 116 
Q 1125 122 1212 167 
Q 1300 213 1334 289 
Q 1369 366 1369 747 
L 1369 3034 
Q 1369 3497 1338 3628 
Q 1316 3728 1258 3775 
Q 1200 3822 1119 3822 
Q 1003 3822 797 3725 
L 750 3822 
z
" transform="scale(0.015625)"/>
       </defs>
       <use xlink:href="#TimesNewRomanPSMT-31"/>
      </g>
     </g>
    </g>
    <g id="xtick_3">
     <g id="line2d_3">
      <g>
       <use xlink:href="#m64d97840ab" x="163.515938" y="455.580625" style="stroke: #000000; stroke-width: 0.8"/>
      </g>
     </g>
     <g id="text_3">
      <!-- 2 -->
      <g transform="translate(160.015938 472.301875) scale(0.14 -0.14)">
       <defs>
        <path id="TimesNewRomanPSMT-32" d="M 2934 816 
L 2638 0 
L 138 0 
L 138 116 
Q 1241 1122 1691 1759 
Q 2141 2397 2141 2925 
Q 2141 3328 1894 3587 
Q 1647 3847 1303 3847 
Q 991 3847 742 3664 
Q 494 3481 375 3128 
L 259 3128 
Q 338 3706 661 4015 
Q 984 4325 1469 4325 
Q 1984 4325 2329 3994 
Q 2675 3663 2675 3213 
Q 2675 2891 2525 2569 
Q 2294 2063 1775 1497 
Q 997 647 803 472 
L 1909 472 
Q 2247 472 2383 497 
Q 2519 522 2628 598 
Q 2738 675 2819 816 
L 2934 816 
z
" transform="scale(0.015625)"/>
       </defs>
       <use xlink:href="#TimesNewRomanPSMT-32"/>
      </g>
     </g>
    </g>
    <g id="xtick_4">
     <g id="line2d_4">
      <g>
       <use xlink:href="#m64d97840ab" x="219.315937" y="455.580625" style="stroke: #000000; stroke-width: 0.8"/>
      </g>
     </g>
     <g id="text_4">
      <!-- 3 -->
      <g transform="translate(215.815937 472.301875) scale(0.14 -0.14)">
       <defs>
        <path id="TimesNewRomanPSMT-33" d="M 325 3431 
Q 506 3859 782 4092 
Q 1059 4325 1472 4325 
Q 1981 4325 2253 3994 
Q 2459 3747 2459 3466 
Q 2459 3003 1878 2509 
Q 2269 2356 2469 2072 
Q 2669 1788 2669 1403 
Q 2669 853 2319 450 
Q 1863 -75 997 -75 
Q 569 -75 414 31 
Q 259 138 259 259 
Q 259 350 332 419 
Q 406 488 509 488 
Q 588 488 669 463 
Q 722 447 909 348 
Q 1097 250 1169 231 
Q 1284 197 1416 197 
Q 1734 197 1970 444 
Q 2206 691 2206 1028 
Q 2206 1275 2097 1509 
Q 2016 1684 1919 1775 
Q 1784 1900 1550 2001 
Q 1316 2103 1072 2103 
L 972 2103 
L 972 2197 
Q 1219 2228 1467 2375 
Q 1716 2522 1828 2728 
Q 1941 2934 1941 3181 
Q 1941 3503 1739 3701 
Q 1538 3900 1238 3900 
Q 753 3900 428 3381 
L 325 3431 
z
" transform="scale(0.015625)"/>
       </defs>
       <use xlink:href="#TimesNewRomanPSMT-33"/>
      </g>
     </g>
    </g>
    <g id="xtick_5">
     <g id="line2d_5">
      <g>
       <use xlink:href="#m64d97840ab" x="275.115937" y="455.580625" style="stroke: #000000; stroke-width: 0.8"/>
      </g>
     </g>
     <g id="text_5">
      <!-- 4 -->
      <g transform="translate(271.615937 472.301875) scale(0.14 -0.14)">
       <defs>
        <path id="TimesNewRomanPSMT-34" d="M 2978 1563 
L 2978 1119 
L 2409 1119 
L 2409 0 
L 1894 0 
L 1894 1119 
L 100 1119 
L 100 1519 
L 2066 4325 
L 2409 4325 
L 2409 1563 
L 2978 1563 
z
M 1894 1563 
L 1894 3666 
L 406 1563 
L 1894 1563 
z
" transform="scale(0.015625)"/>
       </defs>
       <use xlink:href="#TimesNewRomanPSMT-34"/>
      </g>
     </g>
    </g>
    <g id="xtick_6">
     <g id="line2d_6">
      <g>
       <use xlink:href="#m64d97840ab" x="330.915937" y="455.580625" style="stroke: #000000; stroke-width: 0.8"/>
      </g>
     </g>
     <g id="text_6">
      <!-- 5 -->
      <g transform="translate(327.415937 472.301875) scale(0.14 -0.14)">
       <defs>
        <path id="TimesNewRomanPSMT-35" d="M 2778 4238 
L 2534 3706 
L 1259 3706 
L 981 3138 
Q 1809 3016 2294 2522 
Q 2709 2097 2709 1522 
Q 2709 1188 2573 903 
Q 2438 619 2231 419 
Q 2025 219 1772 97 
Q 1413 -75 1034 -75 
Q 653 -75 479 54 
Q 306 184 306 341 
Q 306 428 378 495 
Q 450 563 559 563 
Q 641 563 702 538 
Q 763 513 909 409 
Q 1144 247 1384 247 
Q 1750 247 2026 523 
Q 2303 800 2303 1197 
Q 2303 1581 2056 1914 
Q 1809 2247 1375 2428 
Q 1034 2569 447 2591 
L 1259 4238 
L 2778 4238 
z
" transform="scale(0.015625)"/>
       </defs>
       <use xlink:href="#TimesNewRomanPSMT-35"/>
      </g>
     </g>
    </g>
    <g id="xtick_7">
     <g id="line2d_7">
      <g>
       <use xlink:href="#m64d97840ab" x="386.715937" y="455.580625" style="stroke: #000000; stroke-width: 0.8"/>
      </g>
     </g>
     <g id="text_7">
      <!-- 6 -->
      <g transform="translate(383.215937 472.301875) scale(0.14 -0.14)">
       <defs>
        <path id="TimesNewRomanPSMT-36" d="M 2869 4325 
L 2869 4209 
Q 2456 4169 2195 4045 
Q 1934 3922 1679 3669 
Q 1425 3416 1258 3105 
Q 1091 2794 978 2366 
Q 1428 2675 1881 2675 
Q 2316 2675 2634 2325 
Q 2953 1975 2953 1425 
Q 2953 894 2631 456 
Q 2244 -75 1606 -75 
Q 1172 -75 869 213 
Q 275 772 275 1663 
Q 275 2231 503 2743 
Q 731 3256 1154 3653 
Q 1578 4050 1965 4187 
Q 2353 4325 2688 4325 
L 2869 4325 
z
M 925 2138 
Q 869 1716 869 1456 
Q 869 1156 980 804 
Q 1091 453 1309 247 
Q 1469 100 1697 100 
Q 1969 100 2183 356 
Q 2397 613 2397 1088 
Q 2397 1622 2184 2012 
Q 1972 2403 1581 2403 
Q 1463 2403 1327 2353 
Q 1191 2303 925 2138 
z
" transform="scale(0.015625)"/>
       </defs>
       <use xlink:href="#TimesNewRomanPSMT-36"/>
      </g>
     </g>
    </g>
    <g id="xtick_8">
     <g id="line2d_8">
      <g>
       <use xlink:href="#m64d97840ab" x="442.515937" y="455.580625" style="stroke: #000000; stroke-width: 0.8"/>
      </g>
     </g>
     <g id="text_8">
      <!-- 7 -->
      <g transform="translate(439.015937 472.301875) scale(0.14 -0.14)">
       <defs>
        <path id="TimesNewRomanPSMT-37" d="M 644 4238 
L 2916 4238 
L 2916 4119 
L 1503 -88 
L 1153 -88 
L 2419 3728 
L 1253 3728 
Q 900 3728 750 3644 
Q 488 3500 328 3200 
L 238 3234 
L 644 4238 
z
" transform="scale(0.015625)"/>
       </defs>
       <use xlink:href="#TimesNewRomanPSMT-37"/>
      </g>
     </g>
    </g>
    <g id="xtick_9">
     <g id="line2d_9">
      <g>
       <use xlink:href="#m64d97840ab" x="498.315937" y="455.580625" style="stroke: #000000; stroke-width: 0.8"/>
      </g>
     </g>
     <g id="text_9">
      <!-- 8 -->
      <g transform="translate(494.815937 472.301875) scale(0.14 -0.14)">
       <defs>
        <path id="TimesNewRomanPSMT-38" d="M 1228 2134 
Q 725 2547 579 2797 
Q 434 3047 434 3316 
Q 434 3728 753 4026 
Q 1072 4325 1600 4325 
Q 2113 4325 2425 4047 
Q 2738 3769 2738 3413 
Q 2738 3175 2569 2928 
Q 2400 2681 1866 2347 
Q 2416 1922 2594 1678 
Q 2831 1359 2831 1006 
Q 2831 559 2490 242 
Q 2150 -75 1597 -75 
Q 994 -75 656 303 
Q 388 606 388 966 
Q 388 1247 577 1523 
Q 766 1800 1228 2134 
z
M 1719 2469 
Q 2094 2806 2194 3001 
Q 2294 3197 2294 3444 
Q 2294 3772 2109 3958 
Q 1925 4144 1606 4144 
Q 1288 4144 1088 3959 
Q 888 3775 888 3528 
Q 888 3366 970 3203 
Q 1053 3041 1206 2894 
L 1719 2469 
z
M 1375 2016 
Q 1116 1797 991 1539 
Q 866 1281 866 981 
Q 866 578 1086 336 
Q 1306 94 1647 94 
Q 1984 94 2187 284 
Q 2391 475 2391 747 
Q 2391 972 2272 1150 
Q 2050 1481 1375 2016 
z
" transform="scale(0.015625)"/>
       </defs>
       <use xlink:href="#TimesNewRomanPSMT-38"/>
      </g>
     </g>
    </g>
    <g id="text_10">
     <!-- t -->
     <g transform="translate(273.17125 489.017812) scale(0.14 -0.14)">
      <defs>
       <path id="TimesNewRomanPSMT-74" d="M 1031 3803 
L 1031 2863 
L 1700 2863 
L 1700 2644 
L 1031 2644 
L 1031 788 
Q 1031 509 1111 412 
Q 1191 316 1316 316 
Q 1419 316 1516 380 
Q 1613 444 1666 569 
L 1788 569 
Q 1678 263 1478 108 
Q 1278 -47 1066 -47 
Q 922 -47 784 33 
Q 647 113 581 261 
Q 516 409 516 719 
L 516 2644 
L 63 2644 
L 63 2747 
Q 234 2816 414 2980 
Q 594 3144 734 3369 
Q 806 3488 934 3803 
L 1031 3803 
z
" transform="scale(0.015625)"/>
      </defs>
      <use xlink:href="#TimesNewRomanPSMT-74"/>
     </g>
    </g>
   </g>
   <g id="matplotlib.axis_2">
    <g id="ytick_1">
     <g id="line2d_10">
      <defs>
       <path id="m0319c8fe6b" d="M 0 0 
L -3.5 0 
" style="stroke: #000000; stroke-width: 0.8"/>
      </defs>
      <g>
       <use xlink:href="#m0319c8fe6b" x="51.915937" y="455.580625" style="stroke: #000000; stroke-width: 0.8"/>
      </g>
     </g>
     <g id="text_11">
      <!-- 0 -->
      <g transform="translate(37.915937 460.44125) scale(0.14 -0.14)">
       <use xlink:href="#TimesNewRomanPSMT-30"/>
      </g>
     </g>
    </g>
    <g id="ytick_2">
     <g id="line2d_11">
      <g>
       <use xlink:href="#m0319c8fe6b" x="51.915937" y="366.876625" style="stroke: #000000; stroke-width: 0.8"/>
      </g>
     </g>
     <g id="text_12">
      <!-- 100 -->
      <g transform="translate(23.915937 371.73725) scale(0.14 -0.14)">
       <use xlink:href="#TimesNewRomanPSMT-31"/>
       <use xlink:href="#TimesNewRomanPSMT-30" transform="translate(50 0)"/>
       <use xlink:href="#TimesNewRomanPSMT-30" transform="translate(100 0)"/>
      </g>
     </g>
    </g>
    <g id="ytick_3">
     <g id="line2d_12">
      <g>
       <use xlink:href="#m0319c8fe6b" x="51.915937" y="278.172625" style="stroke: #000000; stroke-width: 0.8"/>
      </g>
     </g>
     <g id="text_13">
      <!-- 200 -->
      <g transform="translate(23.915937 283.03325) scale(0.14 -0.14)">
       <use xlink:href="#TimesNewRomanPSMT-32"/>
       <use xlink:href="#TimesNewRomanPSMT-30" transform="translate(50 0)"/>
       <use xlink:href="#TimesNewRomanPSMT-30" transform="translate(100 0)"/>
      </g>
     </g>
    </g>
    <g id="ytick_4">
     <g id="line2d_13">
      <g>
       <use xlink:href="#m0319c8fe6b" x="51.915937" y="189.468625" style="stroke: #000000; stroke-width: 0.8"/>
      </g>
     </g>
     <g id="text_14">
      <!-- 300 -->
      <g transform="translate(23.915937 194.32925) scale(0.14 -0.14)">
       <use xlink:href="#TimesNewRomanPSMT-33"/>
       <use xlink:href="#TimesNewRomanPSMT-30" transform="translate(50 0)"/>
       <use xlink:href="#TimesNewRomanPSMT-30" transform="translate(100 0)"/>
      </g>
     </g>
    </g>
    <g id="ytick_5">
     <g id="line2d_14">
      <g>
       <use xlink:href="#m0319c8fe6b" x="51.915937" y="100.764625" style="stroke: #000000; stroke-width: 0.8"/>
      </g>
     </g>
     <g id="text_15">
      <!-- 400 -->
      <g transform="translate(23.915937 105.62525) scale(0.14 -0.14)">
       <use xlink:href="#TimesNewRomanPSMT-34"/>
       <use xlink:href="#TimesNewRomanPSMT-30" transform="translate(50 0)"/>
       <use xlink:href="#TimesNewRomanPSMT-30" transform="translate(100 0)"/>
      </g>
     </g>
    </g>
    <g id="ytick_6">
     <g id="line2d_15">
      <g>
       <use xlink:href="#m0319c8fe6b" x="51.915937" y="12.060625" style="stroke: #000000; stroke-width: 0.8"/>
      </g>
     </g>
     <g id="text_16">
      <!-- 500 -->
      <g transform="translate(23.915937 16.92125) scale(0.14 -0.14)">
       <use xlink:href="#TimesNewRomanPSMT-35"/>
       <use xlink:href="#TimesNewRomanPSMT-30" transform="translate(50 0)"/>
       <use xlink:href="#TimesNewRomanPSMT-30" transform="translate(100 0)"/>
      </g>
     </g>
    </g>
    <g id="text_17">
     <!-- s -->
     <g transform="translate(16.92125 236.545156) rotate(-90) scale(0.14 -0.14)">
      <defs>
       <path id="TimesNewRomanPSMT-73" d="M 2050 2947 
L 2050 1972 
L 1947 1972 
Q 1828 2431 1642 2597 
Q 1456 2763 1169 2763 
Q 950 2763 815 2647 
Q 681 2531 681 2391 
Q 681 2216 781 2091 
Q 878 1963 1175 1819 
L 1631 1597 
Q 2266 1288 2266 781 
Q 2266 391 1970 151 
Q 1675 -88 1309 -88 
Q 1047 -88 709 6 
Q 606 38 541 38 
Q 469 38 428 -44 
L 325 -44 
L 325 978 
L 428 978 
Q 516 541 762 319 
Q 1009 97 1316 97 
Q 1531 97 1667 223 
Q 1803 350 1803 528 
Q 1803 744 1651 891 
Q 1500 1038 1047 1263 
Q 594 1488 453 1669 
Q 313 1847 313 2119 
Q 313 2472 555 2709 
Q 797 2947 1181 2947 
Q 1350 2947 1591 2875 
Q 1750 2828 1803 2828 
Q 1853 2828 1881 2850 
Q 1909 2872 1947 2947 
L 2050 2947 
z
" transform="scale(0.015625)"/>
      </defs>
      <use xlink:href="#TimesNewRomanPSMT-73"/>
     </g>
    </g>
   </g>
   <g id="line2d_16">
    <path d="M 51.915937 366.876625 
L 58.478674 371.427128 
L 65.175343 375.800557 
L 72.050591 380.026241 
L 79.149061 384.127456 
L 86.426109 388.075172 
L 93.926379 391.89134 
L 101.694515 395.592939 
L 109.685874 399.154083 
L 117.9451 402.591206 
L 126.516838 405.916679 
L 135.401086 409.123776 
L 144.64249 412.221578 
L 154.24105 415.202858 
L 164.24141 418.074254 
L 174.64357 420.828631 
L 185.53682 423.481356 
L 196.921158 426.023266 
L 208.84123 428.455933 
L 221.386325 430.787603 
L 234.601086 433.015459 
L 248.530159 435.136337 
L 263.262832 437.152792 
L 278.888395 439.065074 
L 295.496136 440.871774 
L 313.264632 442.578469 
L 332.283174 444.179156 
L 352.730339 445.674412 
L 374.829349 447.064922 
L 398.848071 448.350633 
L 425.14366 449.532215 
L 454.117918 450.607953 
L 486.351221 451.578156 
L 498.315937 451.88726 
L 498.315937 451.88726 
" clip-path="url(#p625974b411)" style="fill: none; stroke: #0000ff; stroke-width: 1.5; stroke-linecap: square"/>
   </g>
   <g id="line2d_17">
    <path d="M 51.915937 278.172625 
L 57.407207 285.82451 
L 62.987765 293.22085 
L 68.657612 300.365658 
L 74.372103 307.211088 
L 80.175883 313.818997 
L 86.068953 320.193778 
L 92.051311 326.340018 
L 98.167603 332.304887 
L 104.373183 338.046512 
L 110.712697 343.608335 
L 117.1415 348.953616 
L 123.704236 354.122294 
L 130.400906 359.114632 
L 137.276154 363.961998 
L 144.285334 368.631632 
L 151.473093 373.152683 
L 158.83943 377.522733 
L 166.384344 381.740109 
L 174.152481 385.826615 
L 182.14384 389.777796 
L 190.358422 393.590159 
L 198.796226 397.261114 
L 207.501896 400.806506 
L 216.520078 404.238322 
L 225.850771 407.549848 
L 235.493975 410.735667 
L 245.494335 413.804796 
L 255.896496 416.763508 
L 266.700456 419.604442 
L 277.950861 422.332202 
L 289.692355 424.949498 
L 301.969583 427.457487 
L 314.827189 429.856102 
L 328.354461 432.151577 
L 342.551401 434.333718 
L 357.551941 436.412453 
L 373.400726 438.382217 
L 390.187045 440.242754 
L 408.089475 442.000748 
L 427.197306 443.650862 
L 447.689115 445.194276 
L 469.74348 446.629413 
L 493.628269 447.957678 
L 498.315937 448.193896 
L 498.315937 448.193896 
" clip-path="url(#p625974b411)" style="fill: none; stroke: #ff0000; stroke-width: 1.5; stroke-linecap: square"/>
   </g>
   <g id="line2d_18">
    <path d="M 51.915937 189.468625 
L 57.13934 200.399851 
L 62.407387 210.913289 
L 67.720078 221.023893 
L 73.077414 230.746158 
L 78.479394 240.094099 
L 83.970663 249.153173 
L 89.506577 257.857826 
L 95.087135 266.221149 
L 100.756982 274.317999 
L 106.471473 282.092443 
L 112.275253 289.613087 
L 118.123678 296.829794 
L 124.061392 303.805387 
L 130.088395 310.543676 
L 136.204686 317.048702 
L 142.410267 323.324709 
L 148.705136 329.376117 
L 155.133939 335.247238 
L 161.652031 340.899026 
L 168.304056 346.372344 
L 175.090015 351.666794 
L 182.009907 356.782511 
L 189.063732 361.720121 
L 196.251491 366.480709 
L 203.617828 371.092949 
L 211.162742 375.55418 
L 218.886235 379.862473 
L 226.832949 384.039358 
L 234.958242 388.058775 
L 243.306757 391.941029 
L 251.923138 395.702014 
L 260.807387 399.336005 
L 269.959502 402.838377 
L 279.424128 406.220962 
L 289.201266 409.478003 
L 299.335559 412.618299 
L 309.827009 415.635568 
L 320.720258 418.53633 
L 332.059952 421.324865 
L 343.890735 424.00356 
L 356.212607 426.564366 
L 369.114857 429.017301 
L 382.64213 431.36092 
L 396.83907 433.593153 
L 411.794965 435.717611 
L 427.554461 437.729954 
L 444.251491 439.635874 
L 461.975343 441.433052 
L 480.859952 443.122157 
L 498.315937 444.501022 
L 498.315937 444.501022 
" clip-path="url(#p625974b411)" style="fill: none; stroke: #008000; stroke-width: 1.5; stroke-linecap: square"/>
   </g>
   <g id="line2d_19">
    <path d="M 51.915937 100.764625 
L 58.612607 119.565359 
L 63.969943 133.939908 
L 69.148701 147.206765 
L 74.327459 159.865674 
L 79.506217 171.941977 
L 84.729619 183.561448 
L 89.997666 194.739386 
L 95.310357 205.491185 
L 100.667693 215.831944 
L 106.069673 225.776341 
L 111.516298 235.338585 
L 117.007567 244.532418 
L 122.54348 253.371114 
L 128.168683 261.933854 
L 133.83853 270.160471 
L 139.553021 278.063346 
L 145.356802 285.711855 
L 151.249871 293.109363 
L 157.187585 300.207458 
L 163.214587 307.067149 
L 169.330879 313.692278 
L 175.53646 320.086905 
L 181.831329 326.255281 
L 188.215487 332.201826 
L 194.733579 337.969609 
L 201.34096 343.520927 
L 208.082274 348.895499 
L 214.957522 354.093064 
L 221.966703 359.113872 
L 229.154461 363.988097 
L 236.476154 368.684253 
L 243.976424 373.230412 
L 251.655271 377.624282 
L 259.512697 381.864275 
L 267.593345 385.971487 
L 275.897216 389.941672 
L 284.424308 393.771499 
L 293.219268 397.476704 
L 302.282094 401.052132 
L 311.612787 404.493696 
L 321.255992 407.813162 
L 331.256352 411.019137 
L 341.613867 414.10465 
L 352.373183 417.075988 
L 363.534299 419.926197 
L 375.14186 422.659941 
L 387.24051 425.280043 
L 399.874893 427.787822 
L 413.134299 430.191129 
L 427.018728 432.480059 
L 441.617468 434.659712 
L 457.019808 436.732321 
L 473.270393 438.692794 
L 490.503156 440.545726 
L 498.315937 441.316293 
L 498.315937 441.316293 
" clip-path="url(#p625974b411)" style="fill: none; stroke: #ffa500; stroke-width: 1.5; stroke-linecap: square"/>
   </g>
   <g id="line2d_20">
    <path d="M 51.915937 12.060625 
L 52.13916 13.313703 
L 53.389205 22.965512 
L 56.871473 49.052915 
L 60.175163 72.167129 
L 63.434209 93.413407 
L 66.648611 112.923165 
L 69.907657 131.341177 
L 73.166703 148.495961 
L 76.470393 164.702487 
L 79.774083 179.815916 
L 83.122418 194.109951 
L 86.515397 207.629359 
L 89.953021 220.416681 
L 93.435289 232.512279 
L 96.917558 243.814384 
L 100.44447 254.517548 
L 104.016028 264.654199 
L 107.632229 274.25509 
L 111.293075 283.34937 
L 114.998566 291.964648 
L 118.748701 300.127065 
L 122.54348 307.861359 
L 126.427549 315.27338 
L 130.356262 322.292366 
L 134.329619 328.940286 
L 138.392265 335.30556 
L 142.499556 341.33148 
L 146.696136 347.09669 
L 150.982004 352.608034 
L 155.357162 357.872721 
L 159.821608 362.898246 
L 164.375343 367.692309 
L 169.063012 372.305227 
L 173.884614 376.736534 
L 178.84015 380.986791 
L 183.929619 385.057473 
L 189.153021 388.950844 
L 194.555001 392.699749 
L 200.135559 396.301444 
L 205.894695 399.75443 
L 211.877054 403.082237 
L 218.082634 406.280165 
L 224.556082 409.365473 
L 231.297396 412.331577 
L 238.351221 415.191037 
L 245.717558 417.936438 
L 253.44105 420.576954 
L 261.566343 423.118542 
L 270.13808 425.564527 
L 279.156262 427.905103 
L 288.710177 430.153042 
L 298.84447 432.306634 
L 309.603786 434.363444 
L 321.077414 436.327907 
L 333.309997 438.194816 
L 346.435469 439.970944 
L 360.54312 441.653427 
L 375.811527 443.247266 
L 392.329979 444.745058 
L 410.321698 446.150056 
L 430.009907 447.461088 
L 451.662472 448.676614 
L 475.681194 449.798109 
L 498.315937 450.676888 
L 498.315937 450.676888 
" clip-path="url(#p625974b411)" style="fill: none; stroke: #800080; stroke-width: 1.5; stroke-linecap: square"/>
   </g>
   <g id="patch_3">
    <path d="M 51.915937 455.580625 
L 51.915937 12.060625 
" style="fill: none; stroke: #000000; stroke-width: 0.8; stroke-linejoin: miter; stroke-linecap: square"/>
   </g>
   <g id="patch_4">
    <path d="M 498.315937 455.580625 
L 498.315937 12.060625 
" style="fill: none; stroke: #000000; stroke-width: 0.8; stroke-linejoin: miter; stroke-linecap: square"/>
   </g>
   <g id="patch_5">
    <path d="M 51.915937 455.580625 
L 498.315937 455.580625 
" style="fill: none; stroke: #000000; stroke-width: 0.8; stroke-linejoin: miter; stroke-linecap: square"/>
   </g>
  </g>
  <g id="axes_2">
   <g id="matplotlib.axis_3">
    <g id="ytick_7">
     <g id="line2d_21">
      <defs>
       <path id="mef23f423a7" d="M 0 0 
L 3.5 0 
" style="stroke: #000000; stroke-width: 0.8"/>
      </defs>
      <g>
       <use xlink:href="#mef23f423a7" x="498.315937" y="455.580625" style="stroke: #000000; stroke-width: 0.8"/>
      </g>
     </g>
     <g id="text_18">
      <!-- 0.0 -->
      <g transform="translate(505.315937 460.44125) scale(0.14 -0.14)">
       <defs>
        <path id="TimesNewRomanPSMT-2e" d="M 800 606 
Q 947 606 1047 504 
Q 1147 403 1147 259 
Q 1147 116 1045 14 
Q 944 -88 800 -88 
Q 656 -88 554 14 
Q 453 116 453 259 
Q 453 406 554 506 
Q 656 606 800 606 
z
" transform="scale(0.015625)"/>
       </defs>
       <use xlink:href="#TimesNewRomanPSMT-30"/>
       <use xlink:href="#TimesNewRomanPSMT-2e" transform="translate(50 0)"/>
       <use xlink:href="#TimesNewRomanPSMT-30" transform="translate(75 0)"/>
      </g>
     </g>
    </g>
    <g id="ytick_8">
     <g id="line2d_22">
      <g>
       <use xlink:href="#mef23f423a7" x="498.315937" y="366.876625" style="stroke: #000000; stroke-width: 0.8"/>
      </g>
     </g>
     <g id="text_19">
      <!-- 0.2 -->
      <g transform="translate(505.315937 371.73725) scale(0.14 -0.14)">
       <use xlink:href="#TimesNewRomanPSMT-30"/>
       <use xlink:href="#TimesNewRomanPSMT-2e" transform="translate(50 0)"/>
       <use xlink:href="#TimesNewRomanPSMT-32" transform="translate(75 0)"/>
      </g>
     </g>
    </g>
    <g id="ytick_9">
     <g id="line2d_23">
      <g>
       <use xlink:href="#mef23f423a7" x="498.315937" y="278.172625" style="stroke: #000000; stroke-width: 0.8"/>
      </g>
     </g>
     <g id="text_20">
      <!-- 0.4 -->
      <g transform="translate(505.315937 283.03325) scale(0.14 -0.14)">
       <use xlink:href="#TimesNewRomanPSMT-30"/>
       <use xlink:href="#TimesNewRomanPSMT-2e" transform="translate(50 0)"/>
       <use xlink:href="#TimesNewRomanPSMT-34" transform="translate(75 0)"/>
      </g>
     </g>
    </g>
    <g id="ytick_10">
     <g id="line2d_24">
      <g>
       <use xlink:href="#mef23f423a7" x="498.315937" y="189.468625" style="stroke: #000000; stroke-width: 0.8"/>
      </g>
     </g>
     <g id="text_21">
      <!-- 0.6 -->
      <g transform="translate(505.315937 194.32925) scale(0.14 -0.14)">
       <use xlink:href="#TimesNewRomanPSMT-30"/>
       <use xlink:href="#TimesNewRomanPSMT-2e" transform="translate(50 0)"/>
       <use xlink:href="#TimesNewRomanPSMT-36" transform="translate(75 0)"/>
      </g>
     </g>
    </g>
    <g id="ytick_11">
     <g id="line2d_25">
      <g>
       <use xlink:href="#mef23f423a7" x="498.315937" y="100.764625" style="stroke: #000000; stroke-width: 0.8"/>
      </g>
     </g>
     <g id="text_22">
      <!-- 0.8 -->
      <g transform="translate(505.315937 105.62525) scale(0.14 -0.14)">
       <use xlink:href="#TimesNewRomanPSMT-30"/>
       <use xlink:href="#TimesNewRomanPSMT-2e" transform="translate(50 0)"/>
       <use xlink:href="#TimesNewRomanPSMT-38" transform="translate(75 0)"/>
      </g>
     </g>
    </g>
    <g id="ytick_12">
     <g id="line2d_26">
      <g>
       <use xlink:href="#mef23f423a7" x="498.315937" y="12.060625" style="stroke: #000000; stroke-width: 0.8"/>
      </g>
     </g>
     <g id="text_23">
      <!-- 1.0 -->
      <g transform="translate(505.315937 16.92125) scale(0.14 -0.14)">
       <use xlink:href="#TimesNewRomanPSMT-31"/>
       <use xlink:href="#TimesNewRomanPSMT-2e" transform="translate(50 0)"/>
       <use xlink:href="#TimesNewRomanPSMT-30" transform="translate(75 0)"/>
      </g>
     </g>
    </g>
    <g id="text_24">
     <!-- w -->
     <g transform="translate(536.537188 238.875937) rotate(-90) scale(0.14 -0.14)">
      <defs>
       <path id="TimesNewRomanPSMT-77" d="M 41 2863 
L 1241 2863 
L 1241 2747 
Q 1075 2734 1023 2687 
Q 972 2641 972 2553 
Q 972 2456 1025 2319 
L 1638 672 
L 2253 2013 
L 2091 2434 
Q 2016 2622 1894 2694 
Q 1825 2738 1638 2747 
L 1638 2863 
L 3000 2863 
L 3000 2747 
Q 2775 2738 2681 2666 
Q 2619 2616 2619 2506 
Q 2619 2444 2644 2378 
L 3294 734 
L 3897 2319 
Q 3959 2488 3959 2588 
Q 3959 2647 3898 2694 
Q 3838 2741 3659 2747 
L 3659 2863 
L 4563 2863 
L 4563 2747 
Q 4291 2706 4163 2378 
L 3206 -88 
L 3078 -88 
L 2363 1741 
L 1528 -88 
L 1413 -88 
L 494 2319 
Q 403 2547 315 2626 
Q 228 2706 41 2747 
L 41 2863 
z
" transform="scale(0.015625)"/>
      </defs>
      <use xlink:href="#TimesNewRomanPSMT-77"/>
     </g>
    </g>
   </g>
   <g id="line2d_27">
    <path d="M 51.915937 100.764625 
L 61.782364 96.181914 
L 71.872013 91.740278 
L 82.229529 87.424548 
L 92.810267 83.257078 
L 103.658872 79.223267 
L 114.819988 75.311639 
L 126.248971 71.542106 
L 138.035109 67.889917 
L 150.178404 64.361451 
L 162.678854 60.961996 
L 175.581104 57.684835 
L 188.929799 54.525248 
L 202.724938 51.489716 
L 217.011167 48.574642 
L 231.833129 45.77783 
L 247.280114 43.090795 
L 263.352121 40.522097 
L 280.13844 38.065975 
L 297.683714 35.72505 
L 316.077234 33.496865 
L 335.408287 31.380852 
L 355.766163 29.377849 
L 377.284794 27.485941 
L 400.098116 25.705415 
L 424.384704 24.035189 
L 450.323138 22.476497 
L 478.181284 21.027667 
L 498.315937 20.10767 
L 498.315937 20.10767 
" clip-path="url(#p625974b411)" style="fill: none; stroke-dasharray: 5.55,2.4; stroke-dashoffset: 0; stroke: #0000ff; stroke-width: 1.5"/>
   </g>
   <g id="line2d_28">
    <path d="M 51.915937 100.764625 
L 61.782364 96.181928 
L 71.872013 91.740295 
L 82.229529 87.424567 
L 92.810267 83.257096 
L 103.658872 79.223284 
L 114.819988 75.311656 
L 126.248971 71.542122 
L 138.035109 67.889932 
L 150.178404 64.361465 
L 162.678854 60.962009 
L 175.581104 57.684847 
L 188.929799 54.525259 
L 202.724938 51.489727 
L 217.011167 48.574652 
L 231.833129 45.77784 
L 247.280114 43.090803 
L 263.352121 40.522105 
L 280.13844 38.065982 
L 297.683714 35.725056 
L 316.077234 33.496871 
L 335.408287 31.380857 
L 355.766163 29.377854 
L 377.284794 27.485945 
L 400.098116 25.705419 
L 424.384704 24.035192 
L 450.323138 22.4765 
L 478.181284 21.027669 
L 498.315937 20.107673 
L 498.315937 20.107673 
" clip-path="url(#p625974b411)" style="fill: none; stroke-dasharray: 5.55,2.4; stroke-dashoffset: 0; stroke: #ff0000; stroke-width: 1.5"/>
   </g>
   <g id="line2d_29">
    <path d="M 51.915937 100.764625 
L 62.362742 95.932005 
L 72.586325 91.448781 
L 82.94384 87.149412 
L 93.569223 82.980285 
L 104.462472 78.946145 
L 115.623588 75.050672 
L 127.097216 71.28248 
L 138.883354 67.646234 
L 151.026649 64.133169 
L 163.527099 60.748553 
L 176.473993 57.474794 
L 189.822688 54.329753 
L 203.662472 51.298777 
L 217.993345 48.389099 
L 232.859952 45.598448 
L 248.351581 42.9183 
L 264.468233 40.357089 
L 281.299196 37.909002 
L 298.889115 35.576561 
L 317.327279 33.357246 
L 336.702976 31.250408 
L 357.150141 29.252674 
L 378.758062 27.367092 
L 401.660672 25.593787 
L 426.03655 23.931524 
L 452.108917 22.378893 
L 480.100996 20.937246 
L 498.315937 20.109168 
L 498.315937 20.109168 
" clip-path="url(#p625974b411)" style="fill: none; stroke-dasharray: 5.55,2.4; stroke-dashoffset: 0; stroke: #008000; stroke-width: 1.5"/>
   </g>
   <g id="line2d_30">
    <path d="M 51.915937 100.764625 
L 52.853471 102.638058 
L 53.835649 104.110325 
L 54.817828 105.184708 
L 55.800006 105.944151 
L 56.871473 106.48965 
L 58.032229 106.82111 
L 59.326919 106.948283 
L 60.800186 106.862646 
L 62.585965 106.526073 
L 64.818188 105.868035 
L 67.854011 104.723667 
L 72.54168 102.690535 
L 99.953381 90.448142 
L 110.44483 86.150906 
L 121.114857 82.020722 
L 132.052751 78.025406 
L 143.303156 74.153763 
L 154.866073 70.411215 
L 166.7415 66.802182 
L 178.974083 63.317851 
L 191.608467 59.951731 
L 204.64465 56.710112 
L 218.127279 53.588113 
L 232.056352 50.591816 
L 246.521158 47.708884 
L 261.521698 44.946796 
L 277.147261 42.296945 
L 293.44249 39.760699 
L 310.452031 37.339926 
L 328.265172 35.031253 
L 346.926559 32.83845 
L 366.570123 30.755992 
L 387.285154 28.785625 
L 409.205586 26.92627 
L 432.465352 25.178822 
L 457.24303 23.542699 
L 483.761842 22.016997 
L 498.315937 21.267633 
L 498.315937 21.267633 
" clip-path="url(#p625974b411)" style="fill: none; stroke-dasharray: 5.55,2.4; stroke-dashoffset: 0; stroke: #ffa500; stroke-width: 1.5"/>
   </g>
   <g id="line2d_31">
    <path d="M 51.915937 100.764625 
L 52.13916 397.987208 
L 52.362382 443.903807 
L 52.585604 452.455487 
L 52.808827 454.360491 
L 53.032049 454.834238 
L 53.299916 454.943151 
L 53.791005 454.851541 
L 54.773183 454.414616 
L 55.84465 453.691464 
L 56.916118 452.688787 
L 58.076874 451.276642 
L 59.371563 449.332319 
L 60.934119 446.566757 
L 63.032409 442.370089 
L 66.514677 434.835446 
L 78.747261 408.100323 
L 85.577864 393.82303 
L 92.408467 380.058045 
L 99.23907 366.789042 
L 106.114317 353.916363 
L 113.034209 341.43174 
L 119.954101 329.403054 
L 126.918638 317.740277 
L 133.927819 306.435458 
L 140.981644 295.480684 
L 148.035469 284.933578 
L 155.133939 274.715917 
L 162.277054 264.820179 
L 169.509457 255.180532 
L 176.786505 245.852397 
L 184.108197 236.828211 
L 191.474533 228.100492 
L 198.930159 219.612011 
L 206.430429 211.409199 
L 214.019988 203.438684 
L 221.654191 195.742759 
L 229.377684 188.271703 
L 237.190465 181.023393 
L 245.092535 173.995481 
L 253.083894 167.185407 
L 261.164542 160.590407 
L 269.379124 154.17342 
L 277.682994 147.968411 
L 286.120798 141.940771 
L 294.692535 136.09112 
L 303.398206 130.419673 
L 312.23781 124.926259 
L 321.255992 119.584529 
L 330.408107 114.421879 
L 339.7388 109.413596 
L 349.248071 104.561503 
L 358.980564 99.845823 
L 368.891635 95.290601 
L 379.025928 90.877106 
L 389.428089 86.590238 
L 400.053471 82.452006 
L 410.946721 78.447871 
L 422.152481 74.566399 
L 433.670753 70.813069 
L 445.501536 67.192409 
L 457.689475 63.69563 
L 470.279214 60.316282 
L 483.270753 57.060787 
L 496.708737 53.924315 
L 498.315937 53.564135 
L 498.315937 53.564135 
" clip-path="url(#p625974b411)" style="fill: none; stroke-dasharray: 5.55,2.4; stroke-dashoffset: 0; stroke: #800080; stroke-width: 1.5"/>
   </g>
   <g id="patch_6">
    <path d="M 51.915937 455.580625 
L 51.915937 12.060625 
" style="fill: none; stroke: #000000; stroke-width: 0.8; stroke-linejoin: miter; stroke-linecap: square"/>
   </g>
   <g id="patch_7">
    <path d="M 498.315937 455.580625 
L 498.315937 12.060625 
" style="fill: none; stroke: #000000; stroke-width: 0.8; stroke-linejoin: miter; stroke-linecap: square"/>
   </g>
   <g id="patch_8">
    <path d="M 51.915937 455.580625 
L 498.315937 455.580625 
" style="fill: none; stroke: #000000; stroke-width: 0.8; stroke-linejoin: miter; stroke-linecap: square"/>
   </g>
   <g id="patch_9">
    <path d="M 51.915937 12.060625 
L 498.315937 12.060625 
" style="fill: none; stroke: #000000; stroke-width: 0.8; stroke-linejoin: miter; stroke-linecap: square"/>
   </g>
  </g>
 </g>
 <defs>
  <clipPath id="p625974b411">
   <rect x="51.915937" y="12.060625" width="446.4" height="443.52"/>
  </clipPath>
 </defs>
</svg>
