<?xml version="1.0" encoding="utf-8" standalone="no"?>
<!DOCTYPE svg PUBLIC "-//W3C//DTD SVG 1.1//EN"
  "http://www.w3.org/Graphics/SVG/1.1/DTD/svg11.dtd">
<svg xmlns:xlink="http://www.w3.org/1999/xlink" width="509.015937pt" height="499.2125pt" viewBox="0 0 509.015937 499.2125" xmlns="http://www.w3.org/2000/svg" version="1.1">
 <metadata>
  <rdf:RDF xmlns:dc="http://purl.org/dc/elements/1.1/" xmlns:cc="http://creativecommons.org/ns#" xmlns:rdf="http://www.w3.org/1999/02/22-rdf-syntax-ns#">
   <cc:Work>
    <dc:type rdf:resource="http://purl.org/dc/dcmitype/StillImage"/>
    <dc:date>2025-11-09T14:25:28.108976</dc:date>
    <dc:format>image/svg+xml</dc:format>
    <dc:creator>
     <cc:Agent>
      <dc:title>Matplotlib v3.10.7, https://matplotlib.org/</dc:title>
     </cc:Agent>
    </dc:creator>
   </cc:Work>
  </rdf:RDF>
 </metadata>
 <defs>
  <style type="text/css">*{stroke-linejoin: round; stroke-linecap: butt}</style>
 </defs>
 <g id="figure_1">
  <g id="patch_1">
   <path d="M 0 499.2125 
L 509.015937 499.2125 
L 509.015937 0 
L 0 0 
z
" style="fill: #ffffff"/>
  </g>
  <g id="axes_1">
   <g id="patch_2">
    <path d="M 51.915937 455.580625 
L 498.315937 455.580625 
L 498.315937 12.060625 
L 51.915937 12.060625 
z
" style="fill: #ffffff"/>
   </g>
   <g id="matplotlib.axis_1">
    <g id="xtick_1">
     <g id="line2d_1">
      <defs>
       <path id="m889574b3e7" d="M 0 0 
L 0 3.5 
" style="stroke: #000000; stroke-width: 0.8"/>
      </defs>
      <g>
       <use xlink:href="#m889574b3e7" x="51.915937" y="455.580625" style="stroke: #000000; stroke-width: 0.8"/>
      </g>
     </g>
     <g id="text_1">
      <!-- 0 -->
      <g transform="translate(48.415937 472.301875) scale(0.14 -0.14)">
       <defs>
        <path id="TimesNewRomanPSMT-30" d="M 231 2094 
Q 231 2819 450 3342 
Q 669 3866 1031 4122 
Q 1313 4325 1613 4325 
Q 2100 4325 2488 3828 
Q 2972 3213 2972 2159 
Q 2972 1422 2759 906 
Q 2547 391 2217 158 
Q 1888 -75 1581 -75 
Q 975 -75 572 641 
Q 231 1244 231 2094 
z
M 844 2016 
Q 844 1141 1059 588 
Q 1238 122 1591 122 
Q 1759 122 1940 273 
Q 2122 425 2216 781 
Q 2359 1319 2359 2297 
Q 2359 3022 2209 3506 
Q 2097 3866 1919 4016 
Q 1791 4119 1609 4119 
Q 1397 4119 1231 3928 
Q 1006 3669 925 3112 
Q 844 2556 844 2016 
z
" transform="scale(0.015625)"/>
       </defs>
       <use xlink:href="#TimesNewRomanPSMT-30"/>
      </g>
     </g>
    </g>
    <g id="xtick_2">
     <g id="line2d_2">
      <g>
       <use xlink:href="#m889574b3e7" x="115.687366" y="455.580625" style="stroke: #000000; stroke-width: 0.8"/>
      </g>
     </g>
     <g id="text_2">
      <!-- 1 -->
      <g transform="translate(112.187366 472.301875) scale(0.14 -0.14)">
       <defs>
        <path id="TimesNewRomanPSMT-31" d="M 750 3822 
L 1781 4325 
L 1884 4325 
L 1884 747 
Q 1884 391 1914 303 
Q 1944 216 2037 169 
Q 2131 122 2419 116 
L 2419 0 
L 825 0 
L 825 116 
Q 1125 122 1212 167 
Q 1300 213 1334 289 
Q 1369 366 1369 747 
L 1369 3034 
Q 1369 3497 1338 3628 
Q 1316 3728 1258 3775 
Q 1200 3822 1119 3822 
Q 1003 3822 797 3725 
L 750 3822 
z
" transform="scale(0.015625)"/>
       </defs>
       <use xlink:href="#TimesNewRomanPSMT-31"/>
      </g>
     </g>
    </g>
    <g id="xtick_3">
     <g id="line2d_3">
      <g>
       <use xlink:href="#m889574b3e7" x="179.458795" y="455.580625" style="stroke: #000000; stroke-width: 0.8"/>
      </g>
     </g>
     <g id="text_3">
      <!-- 2 -->
      <g transform="translate(175.958795 472.301875) scale(0.14 -0.14)">
       <defs>
        <path id="TimesNewRomanPSMT-32" d="M 2934 816 
L 2638 0 
L 138 0 
L 138 116 
Q 1241 1122 1691 1759 
Q 2141 2397 2141 2925 
Q 2141 3328 1894 3587 
Q 1647 3847 1303 3847 
Q 991 3847 742 3664 
Q 494 3481 375 3128 
L 259 3128 
Q 338 3706 661 4015 
Q 984 4325 1469 4325 
Q 1984 4325 2329 3994 
Q 2675 3663 2675 3213 
Q 2675 2891 2525 2569 
Q 2294 2063 1775 1497 
Q 997 647 803 472 
L 1909 472 
Q 2247 472 2383 497 
Q 2519 522 2628 598 
Q 2738 675 2819 816 
L 2934 816 
z
" transform="scale(0.015625)"/>
       </defs>
       <use xlink:href="#TimesNewRomanPSMT-32"/>
      </g>
     </g>
    </g>
    <g id="xtick_4">
     <g id="line2d_4">
      <g>
       <use xlink:href="#m889574b3e7" x="243.230223" y="455.580625" style="stroke: #000000; stroke-width: 0.8"/>
      </g>
     </g>
     <g id="text_4">
      <!-- 3 -->
      <g transform="translate(239.730223 472.301875) scale(0.14 -0.14)">
       <defs>
        <path id="TimesNewRomanPSMT-33" d="M 325 3431 
Q 506 3859 782 4092 
Q 1059 4325 1472 4325 
Q 1981 4325 2253 3994 
Q 2459 3747 2459 3466 
Q 2459 3003 1878 2509 
Q 2269 2356 2469 2072 
Q 2669 1788 2669 1403 
Q 2669 853 2319 450 
Q 1863 -75 997 -75 
Q 569 -75 414 31 
Q 259 138 259 259 
Q 259 350 332 419 
Q 406 488 509 488 
Q 588 488 669 463 
Q 722 447 909 348 
Q 1097 250 1169 231 
Q 1284 197 1416 197 
Q 1734 197 1970 444 
Q 2206 691 2206 1028 
Q 2206 1275 2097 1509 
Q 2016 1684 1919 1775 
Q 1784 1900 1550 2001 
Q 1316 2103 1072 2103 
L 972 2103 
L 972 2197 
Q 1219 2228 1467 2375 
Q 1716 2522 1828 2728 
Q 1941 2934 1941 3181 
Q 1941 3503 1739 3701 
Q 1538 3900 1238 3900 
Q 753 3900 428 3381 
L 325 3431 
z
" transform="scale(0.015625)"/>
       </defs>
       <use xlink:href="#TimesNewRomanPSMT-33"/>
      </g>
     </g>
    </g>
    <g id="xtick_5">
     <g id="line2d_5">
      <g>
       <use xlink:href="#m889574b3e7" x="307.001652" y="455.580625" style="stroke: #000000; stroke-width: 0.8"/>
      </g>
     </g>
     <g id="text_5">
      <!-- 4 -->
      <g transform="translate(303.501652 472.301875) scale(0.14 -0.14)">
       <defs>
        <path id="TimesNewRomanPSMT-34" d="M 2978 1563 
L 2978 1119 
L 2409 1119 
L 2409 0 
L 1894 0 
L 1894 1119 
L 100 1119 
L 100 1519 
L 2066 4325 
L 2409 4325 
L 2409 1563 
L 2978 1563 
z
M 1894 1563 
L 1894 3666 
L 406 1563 
L 1894 1563 
z
" transform="scale(0.015625)"/>
       </defs>
       <use xlink:href="#TimesNewRomanPSMT-34"/>
      </g>
     </g>
    </g>
    <g id="xtick_6">
     <g id="line2d_6">
      <g>
       <use xlink:href="#m889574b3e7" x="370.77308" y="455.580625" style="stroke: #000000; stroke-width: 0.8"/>
      </g>
     </g>
     <g id="text_6">
      <!-- 5 -->
      <g transform="translate(367.27308 472.301875) scale(0.14 -0.14)">
       <defs>
        <path id="TimesNewRomanPSMT-35" d="M 2778 4238 
L 2534 3706 
L 1259 3706 
L 981 3138 
Q 1809 3016 2294 2522 
Q 2709 2097 2709 1522 
Q 2709 1188 2573 903 
Q 2438 619 2231 419 
Q 2025 219 1772 97 
Q 1413 -75 1034 -75 
Q 653 -75 479 54 
Q 306 184 306 341 
Q 306 428 378 495 
Q 450 563 559 563 
Q 641 563 702 538 
Q 763 513 909 409 
Q 1144 247 1384 247 
Q 1750 247 2026 523 
Q 2303 800 2303 1197 
Q 2303 1581 2056 1914 
Q 1809 2247 1375 2428 
Q 1034 2569 447 2591 
L 1259 4238 
L 2778 4238 
z
" transform="scale(0.015625)"/>
       </defs>
       <use xlink:href="#TimesNewRomanPSMT-35"/>
      </g>
     </g>
    </g>
    <g id="xtick_7">
     <g id="line2d_7">
      <g>
       <use xlink:href="#m889574b3e7" x="434.544509" y="455.580625" style="stroke: #000000; stroke-width: 0.8"/>
      </g>
     </g>
     <g id="text_7">
      <!-- 6 -->
      <g transform="translate(431.044509 472.301875) scale(0.14 -0.14)">
       <defs>
        <path id="TimesNewRomanPSMT-36" d="M 2869 4325 
L 2869 4209 
Q 2456 4169 2195 4045 
Q 1934 3922 1679 3669 
Q 1425 3416 1258 3105 
Q 1091 2794 978 2366 
Q 1428 2675 1881 2675 
Q 2316 2675 2634 2325 
Q 2953 1975 2953 1425 
Q 2953 894 2631 456 
Q 2244 -75 1606 -75 
Q 1172 -75 869 213 
Q 275 772 275 1663 
Q 275 2231 503 2743 
Q 731 3256 1154 3653 
Q 1578 4050 1965 4187 
Q 2353 4325 2688 4325 
L 2869 4325 
z
M 925 2138 
Q 869 1716 869 1456 
Q 869 1156 980 804 
Q 1091 453 1309 247 
Q 1469 100 1697 100 
Q 1969 100 2183 356 
Q 2397 613 2397 1088 
Q 2397 1622 2184 2012 
Q 1972 2403 1581 2403 
Q 1463 2403 1327 2353 
Q 1191 2303 925 2138 
z
" transform="scale(0.015625)"/>
       </defs>
       <use xlink:href="#TimesNewRomanPSMT-36"/>
      </g>
     </g>
    </g>
    <g id="xtick_8">
     <g id="line2d_8">
      <g>
       <use xlink:href="#m889574b3e7" x="498.315937" y="455.580625" style="stroke: #000000; stroke-width: 0.8"/>
      </g>
     </g>
     <g id="text_8">
      <!-- 7 -->
      <g transform="translate(494.815937 472.301875) scale(0.14 -0.14)">
       <defs>
        <path id="TimesNewRomanPSMT-37" d="M 644 4238 
L 2916 4238 
L 2916 4119 
L 1503 -88 
L 1153 -88 
L 2419 3728 
L 1253 3728 
Q 900 3728 750 3644 
Q 488 3500 328 3200 
L 238 3234 
L 644 4238 
z
" transform="scale(0.015625)"/>
       </defs>
       <use xlink:href="#TimesNewRomanPSMT-37"/>
      </g>
     </g>
    </g>
    <g id="text_9">
     <!-- t -->
     <g transform="translate(273.17125 489.017812) scale(0.14 -0.14)">
      <defs>
       <path id="TimesNewRomanPSMT-74" d="M 1031 3803 
L 1031 2863 
L 1700 2863 
L 1700 2644 
L 1031 2644 
L 1031 788 
Q 1031 509 1111 412 
Q 1191 316 1316 316 
Q 1419 316 1516 380 
Q 1613 444 1666 569 
L 1788 569 
Q 1678 263 1478 108 
Q 1278 -47 1066 -47 
Q 922 -47 784 33 
Q 647 113 581 261 
Q 516 409 516 719 
L 516 2644 
L 63 2644 
L 63 2747 
Q 234 2816 414 2980 
Q 594 3144 734 3369 
Q 806 3488 934 3803 
L 1031 3803 
z
" transform="scale(0.015625)"/>
      </defs>
      <use xlink:href="#TimesNewRomanPSMT-74"/>
     </g>
    </g>
   </g>
   <g id="matplotlib.axis_2">
    <g id="ytick_1">
     <g id="line2d_9">
      <defs>
       <path id="m18a032ae46" d="M 0 0 
L -3.5 0 
" style="stroke: #000000; stroke-width: 0.8"/>
      </defs>
      <g>
       <use xlink:href="#m18a032ae46" x="51.915937" y="455.580625" style="stroke: #000000; stroke-width: 0.8"/>
      </g>
     </g>
     <g id="text_10">
      <!-- 0 -->
      <g transform="translate(37.915937 460.44125) scale(0.14 -0.14)">
       <use xlink:href="#TimesNewRomanPSMT-30"/>
      </g>
     </g>
    </g>
    <g id="ytick_2">
     <g id="line2d_10">
      <g>
       <use xlink:href="#m18a032ae46" x="51.915937" y="366.876625" style="stroke: #000000; stroke-width: 0.8"/>
      </g>
     </g>
     <g id="text_11">
      <!-- 100 -->
      <g transform="translate(23.915937 371.73725) scale(0.14 -0.14)">
       <use xlink:href="#TimesNewRomanPSMT-31"/>
       <use xlink:href="#TimesNewRomanPSMT-30" transform="translate(50 0)"/>
       <use xlink:href="#TimesNewRomanPSMT-30" transform="translate(100 0)"/>
      </g>
     </g>
    </g>
    <g id="ytick_3">
     <g id="line2d_11">
      <g>
       <use xlink:href="#m18a032ae46" x="51.915937" y="278.172625" style="stroke: #000000; stroke-width: 0.8"/>
      </g>
     </g>
     <g id="text_12">
      <!-- 200 -->
      <g transform="translate(23.915937 283.03325) scale(0.14 -0.14)">
       <use xlink:href="#TimesNewRomanPSMT-32"/>
       <use xlink:href="#TimesNewRomanPSMT-30" transform="translate(50 0)"/>
       <use xlink:href="#TimesNewRomanPSMT-30" transform="translate(100 0)"/>
      </g>
     </g>
    </g>
    <g id="ytick_4">
     <g id="line2d_12">
      <g>
       <use xlink:href="#m18a032ae46" x="51.915937" y="189.468625" style="stroke: #000000; stroke-width: 0.8"/>
      </g>
     </g>
     <g id="text_13">
      <!-- 300 -->
      <g transform="translate(23.915937 194.32925) scale(0.14 -0.14)">
       <use xlink:href="#TimesNewRomanPSMT-33"/>
       <use xlink:href="#TimesNewRomanPSMT-30" transform="translate(50 0)"/>
       <use xlink:href="#TimesNewRomanPSMT-30" transform="translate(100 0)"/>
      </g>
     </g>
    </g>
    <g id="ytick_5">
     <g id="line2d_13">
      <g>
       <use xlink:href="#m18a032ae46" x="51.915937" y="100.764625" style="stroke: #000000; stroke-width: 0.8"/>
      </g>
     </g>
     <g id="text_14">
      <!-- 400 -->
      <g transform="translate(23.915937 105.62525) scale(0.14 -0.14)">
       <use xlink:href="#TimesNewRomanPSMT-34"/>
       <use xlink:href="#TimesNewRomanPSMT-30" transform="translate(50 0)"/>
       <use xlink:href="#TimesNewRomanPSMT-30" transform="translate(100 0)"/>
      </g>
     </g>
    </g>
    <g id="ytick_6">
     <g id="line2d_14">
      <g>
       <use xlink:href="#m18a032ae46" x="51.915937" y="12.060625" style="stroke: #000000; stroke-width: 0.8"/>
      </g>
     </g>
     <g id="text_15">
      <!-- 500 -->
      <g transform="translate(23.915937 16.92125) scale(0.14 -0.14)">
       <use xlink:href="#TimesNewRomanPSMT-35"/>
       <use xlink:href="#TimesNewRomanPSMT-30" transform="translate(50 0)"/>
       <use xlink:href="#TimesNewRomanPSMT-30" transform="translate(100 0)"/>
      </g>
     </g>
    </g>
    <g id="text_16">
     <!-- w -->
     <g transform="translate(16.92125 238.875937) rotate(-90) scale(0.14 -0.14)">
      <defs>
       <path id="TimesNewRomanPSMT-77" d="M 41 2863 
L 1241 2863 
L 1241 2747 
Q 1075 2734 1023 2687 
Q 972 2641 972 2553 
Q 972 2456 1025 2319 
L 1638 672 
L 2253 2013 
L 2091 2434 
Q 2016 2622 1894 2694 
Q 1825 2738 1638 2747 
L 1638 2863 
L 3000 2863 
L 3000 2747 
Q 2775 2738 2681 2666 
Q 2619 2616 2619 2506 
Q 2619 2444 2644 2378 
L 3294 734 
L 3897 2319 
Q 3959 2488 3959 2588 
Q 3959 2647 3898 2694 
Q 3838 2741 3659 2747 
L 3659 2863 
L 4563 2863 
L 4563 2747 
Q 4291 2706 4163 2378 
L 3206 -88 
L 3078 -88 
L 2363 1741 
L 1528 -88 
L 1413 -88 
L 494 2319 
Q 403 2547 315 2626 
Q 228 2706 41 2747 
L 41 2863 
z
" transform="scale(0.015625)"/>
      </defs>
      <use xlink:href="#TimesNewRomanPSMT-77"/>
     </g>
    </g>
   </g>
   <g id="line2d_15">
    <path d="M 51.915937 366.876625 
L 55.84465 371.643048 
L 59.862652 376.169972 
L 63.969943 380.46471 
L 68.211167 384.576661 
L 72.54168 388.466061 
L 77.006127 392.1775 
L 81.604506 395.711892 
L 86.381464 399.101696 
L 91.292355 402.314712 
L 96.426469 405.406827 
L 101.73916 408.346758 
L 107.275073 411.156733 
L 113.078854 413.8528 
L 119.150501 416.427771 
L 125.534659 418.893219 
L 132.275974 421.256695 
L 139.419088 423.522526 
L 146.964002 425.680442 
L 155.000006 427.745074 
L 163.571743 429.714953 
L 172.723858 431.587942 
L 182.590285 433.376933 
L 193.215667 435.074303 
L 204.733939 436.685597 
L 217.234389 438.206833 
L 230.94024 439.646993 
L 245.985424 441.000583 
L 262.63781 442.27154 
L 281.165262 443.458606 
L 301.969583 444.564269 
L 325.497216 445.587289 
L 352.373183 446.528341 
L 383.44573 447.388115 
L 419.786325 448.165026 
L 462.957522 448.858768 
L 498.315937 449.293373 
L 498.315937 449.293373 
" clip-path="url(#pe8b167b946)" style="fill: none; stroke: #0000ff; stroke-width: 1.5; stroke-linecap: square"/>
   </g>
   <g id="line2d_16">
    <path d="M 51.915937 455.491921 
L 498.315937 453.629137 
L 498.315937 453.629137 
" clip-path="url(#pe8b167b946)" style="fill: none; stroke-dasharray: 5.55,2.4; stroke-dashoffset: 0; stroke: #0000ff; stroke-width: 1.5"/>
   </g>
   <g id="line2d_17">
    <path d="M 51.915937 278.172625 
L 55.532139 286.972587 
L 59.192985 295.296626 
L 62.898476 303.169659 
L 66.648611 310.615495 
L 70.44339 317.65686 
L 74.282814 324.315421 
L 78.166883 330.611821 
L 82.14024 336.631089 
L 86.158242 342.317979 
L 90.265532 347.748155 
L 94.462112 352.927962 
L 98.747981 357.864257 
L 103.123138 362.564316 
L 107.587585 367.035739 
L 112.185965 371.326576 
L 116.918278 375.436505 
L 121.784524 379.366334 
L 126.784704 383.117868 
L 131.963462 386.723721 
L 137.320798 390.180735 
L 142.856712 393.487203 
L 148.615847 396.666404 
L 154.598206 399.71357 
L 160.848431 402.645727 
L 167.366523 405.456445 
L 174.197126 408.158188 
L 181.384884 410.759429 
L 188.929799 413.251291 
L 196.876514 415.640209 
L 205.269673 417.930112 
L 214.198566 420.13347 
L 223.663192 422.238314 
L 233.752841 424.252957 
L 244.556802 426.181544 
L 256.164362 428.025089 
L 268.664812 429.782409 
L 282.192085 431.45614 
L 296.835469 433.041148 
L 312.818188 434.544391 
L 330.318818 435.963755 
L 349.605226 437.301087 
L 370.94528 438.554126 
L 394.74078 439.724482 
L 421.43817 440.810651 
L 451.662472 441.813063 
L 486.172643 442.7301 
L 498.315937 443.006121 
L 498.315937 443.006121 
" clip-path="url(#pe8b167b946)" style="fill: none; stroke: #ff0000; stroke-width: 1.5; stroke-linecap: square"/>
   </g>
   <g id="line2d_18">
    <path d="M 51.915937 455.491921 
L 498.315937 453.629137 
L 498.315937 453.629137 
" clip-path="url(#pe8b167b946)" style="fill: none; stroke-dasharray: 5.55,2.4; stroke-dashoffset: 0; stroke: #ff0000; stroke-width: 1.5"/>
   </g>
   <g id="line2d_19">
    <path d="M 51.915937 189.468625 
L 55.44285 202.353296 
L 59.014407 214.564968 
L 62.630609 226.137014 
L 66.246811 236.972078 
L 69.907657 247.246759 
L 73.613147 256.988898 
L 77.363282 266.225199 
L 81.158062 274.981235 
L 84.997486 283.28148 
L 88.881554 291.149322 
L 92.810267 298.607099 
L 96.783624 305.676118 
L 100.801626 312.376695 
L 104.908917 318.795726 
L 109.060852 324.875616 
L 113.302076 330.693994 
L 117.632589 336.257021 
L 122.052391 341.57135 
L 126.561482 346.644029 
L 131.159862 351.482426 
L 135.847531 356.094146 
L 140.669133 360.526637 
L 145.624668 364.779907 
L 150.714137 368.854958 
L 155.93754 372.753669 
L 161.33952 376.50863 
L 166.920078 380.116873 
L 172.679214 383.576741 
L 178.661572 386.911719 
L 184.867153 390.117076 
L 191.3406 393.210144 
L 198.081914 396.184418 
L 205.135739 399.052649 
L 212.502076 401.807613 
L 220.270213 404.473453 
L 228.44015 407.039308 
L 237.011887 409.496938 
L 246.074713 411.862727 
L 255.673273 414.136864 
L 265.852211 416.318454 
L 276.700816 418.4141 
L 288.263732 420.419358 
L 300.674893 422.343213 
L 313.978944 424.177797 
L 328.309817 425.926977 
L 343.801446 427.591239 
L 360.632409 429.17271 
L 378.981284 430.670121 
L 399.071293 432.083038 
L 421.170303 433.410846 
L 445.635469 434.654278 
L 472.868593 435.811791 
L 498.315937 436.718868 
L 498.315937 436.718868 
" clip-path="url(#pe8b167b946)" style="fill: none; stroke: #008000; stroke-width: 1.5; stroke-linecap: square"/>
   </g>
   <g id="line2d_20">
    <path d="M 51.915937 455.491921 
L 498.315937 453.629137 
L 498.315937 453.629137 
" clip-path="url(#pe8b167b946)" style="fill: none; stroke-dasharray: 5.55,2.4; stroke-dashoffset: 0; stroke: #008000; stroke-width: 1.5"/>
   </g>
   <g id="line2d_21">
    <path d="M 51.915937 100.764625 
L 55.44285 117.944187 
L 58.969763 134.029459 
L 62.54132 149.286986 
L 66.112877 163.584141 
L 69.729079 177.154396 
L 73.389925 190.032899 
L 77.050771 202.110835 
L 80.756262 213.580953 
L 84.506397 224.472686 
L 88.301176 234.814293 
L 92.1406 244.632873 
L 96.024668 253.954388 
L 99.953381 262.803683 
L 103.926739 271.204514 
L 107.94474 279.179575 
L 112.007387 286.750528 
L 116.114677 293.938031 
L 120.266613 300.761774 
L 124.507837 307.307285 
L 128.793705 313.51753 
L 133.168863 319.469112 
L 137.633309 325.168073 
L 142.187045 330.620897 
L 146.830069 335.834419 
L 151.562382 340.815759 
L 156.428629 345.614865 
L 161.384164 350.1912 
L 166.473633 354.590165 
L 171.697036 358.812617 
L 177.099016 362.892827 
L 182.634929 366.796275 
L 188.349421 370.554732 
L 194.287135 374.192723 
L 200.403426 377.679423 
L 206.74294 381.038205 
L 213.350321 384.286727 
L 220.225568 387.418173 
L 227.413327 390.445561 
L 234.913597 393.361242 
L 242.771023 396.17486 
L 250.985604 398.878761 
L 259.646631 401.493172 
L 268.754101 404.007762 
L 278.352661 406.425489 
L 288.531599 408.757475 
L 299.290915 410.992335 
L 310.719898 413.137629 
L 322.907837 415.19723 
L 335.94402 417.172179 
L 349.917738 419.061456 
L 364.918278 420.862684 
L 381.124218 422.581633 
L 398.669493 424.21557 
L 417.732679 425.763942 
L 438.492355 427.223937 
L 461.261032 428.599059 
L 486.351221 429.888014 
L 498.315937 430.431616 
L 498.315937 430.431616 
" clip-path="url(#pe8b167b946)" style="fill: none; stroke: #ffa500; stroke-width: 1.5; stroke-linecap: square"/>
   </g>
   <g id="line2d_22">
    <path d="M 51.915937 455.491921 
L 498.315937 453.629137 
L 498.315937 453.629137 
" clip-path="url(#pe8b167b946)" style="fill: none; stroke-dasharray: 5.55,2.4; stroke-dashoffset: 0; stroke: #ffa500; stroke-width: 1.5"/>
   </g>
   <g id="line2d_23">
    <path d="M 51.915937 12.060625 
L 55.398206 33.272022 
L 58.925118 53.395268 
L 62.452031 72.251797 
L 66.023588 90.152134 
L 69.63979 107.142038 
L 73.255992 123.075115 
L 76.916838 138.207811 
L 80.577684 152.410783 
L 84.283174 165.909305 
L 88.033309 178.736903 
L 91.828089 190.925803 
L 95.622868 202.376408 
L 99.462292 213.26471 
L 103.346361 223.617675 
L 107.275073 233.461167 
L 111.248431 242.819972 
L 115.266433 251.717816 
L 119.329079 260.177399 
L 123.43637 268.220414 
L 127.588305 275.86758 
L 131.829529 283.213666 
L 136.115397 290.193635 
L 140.44591 296.826291 
L 144.865712 303.191875 
L 149.374803 309.296231 
L 153.973183 315.145662 
L 158.660852 320.746851 
L 163.43781 326.10679 
L 168.304056 331.23271 
L 173.259592 336.132018 
L 178.349061 340.852344 
L 183.572463 345.393779 
L 188.929799 349.757291 
L 194.421068 353.944622 
L 200.090915 357.988995 
L 205.93934 361.887374 
L 211.966343 365.637908 
L 218.216568 369.264832 
L 224.690015 372.763158 
L 231.386685 376.129332 
L 238.351221 379.381189 
L 245.628269 382.531872 
L 253.217828 385.573301 
L 261.119898 388.499295 
L 269.379124 391.320054 
L 278.04015 394.042664 
L 287.147621 396.671632 
L 296.746181 399.209368 
L 306.880474 401.656633 
L 317.595145 404.012952 
L 328.934839 406.27698 
L 340.988845 408.454508 
L 353.801806 410.541134 
L 367.507657 412.545161 
L 382.151041 414.459101 
L 397.865892 416.286563 
L 414.786145 418.028002 
L 433.090375 419.685466 
L 452.957162 421.257721 
L 474.565082 422.741423 
L 498.182004 424.137045 
L 498.315937 424.144364 
L 498.315937 424.144364 
" clip-path="url(#pe8b167b946)" style="fill: none; stroke: #800080; stroke-width: 1.5; stroke-linecap: square"/>
   </g>
   <g id="line2d_24">
    <path d="M 51.915937 455.491921 
L 498.315937 453.629137 
L 498.315937 453.629137 
" clip-path="url(#pe8b167b946)" style="fill: none; stroke-dasharray: 5.55,2.4; stroke-dashoffset: 0; stroke: #008000; stroke-width: 1.5"/>
   </g>
   <g id="patch_3">
    <path d="M 51.915937 455.580625 
L 51.915937 12.060625 
" style="fill: none; stroke: #000000; stroke-width: 0.8; stroke-linejoin: miter; stroke-linecap: square"/>
   </g>
   <g id="patch_4">
    <path d="M 51.915937 455.580625 
L 498.315937 455.580625 
" style="fill: none; stroke: #000000; stroke-width: 0.8; stroke-linejoin: miter; stroke-linecap: square"/>
   </g>
  </g>
 </g>
 <defs>
  <clipPath id="pe8b167b946">
   <rect x="51.915937" y="12.060625" width="446.4" height="443.52"/>
  </clipPath>
 </defs>
</svg>
