<?xml version="1.0" encoding="utf-8" standalone="no"?>
<!DOCTYPE svg PUBLIC "-//W3C//DTD SVG 1.1//EN"
  "http://www.w3.org/Graphics/SVG/1.1/DTD/svg11.dtd">
<svg xmlns:xlink="http://www.w3.org/1999/xlink" width="558.885625pt" height="501.337656pt" viewBox="0 0 558.885625 501.337656" xmlns="http://www.w3.org/2000/svg" version="1.1">
 <metadata>
  <rdf:RDF xmlns:dc="http://purl.org/dc/elements/1.1/" xmlns:cc="http://creativecommons.org/ns#" xmlns:rdf="http://www.w3.org/1999/02/22-rdf-syntax-ns#">
   <cc:Work>
    <dc:type rdf:resource="http://purl.org/dc/dcmitype/StillImage"/>
    <dc:date>2025-11-19T08:45:30.740555</dc:date>
    <dc:format>image/svg+xml</dc:format>
    <dc:creator>
     <cc:Agent>
      <dc:title>Matplotlib v3.10.7, https://matplotlib.org/</dc:title>
     </cc:Agent>
    </dc:creator>
   </cc:Work>
  </rdf:RDF>
 </metadata>
 <defs>
  <style type="text/css">*{stroke-linejoin: round; stroke-linecap: butt}</style>
 </defs>
 <g id="figure_1">
  <g id="patch_1">
   <path d="M 0 501.337656 
L 558.885625 501.337656 
L 558.885625 0 
L 0 0 
z
" style="fill: #ffffff"/>
  </g>
  <g id="axes_1">
   <g id="patch_2">
    <path d="M 58.471875 456.038906 
L 504.871875 456.038906 
L 504.871875 12.518906 
L 58.471875 12.518906 
z
" style="fill: #ffffff"/>
   </g>
   <g id="matplotlib.axis_1">
    <g id="xtick_1">
     <g id="line2d_1">
      <defs>
       <path id="m93c739ae9e" d="M 0 0 
L 0 3.5 
" style="stroke: #000000; stroke-width: 0.8"/>
      </defs>
      <g>
       <use xlink:href="#m93c739ae9e" x="58.471875" y="456.038906" style="stroke: #000000; stroke-width: 0.8"/>
      </g>
     </g>
     <g id="text_1">
      <!-- 0 -->
      <g transform="translate(54.018125 473.676719) scale(0.14 -0.14)">
       <defs>
        <path id="DejaVuSans-30" d="M 2034 4250 
Q 1547 4250 1301 3770 
Q 1056 3291 1056 2328 
Q 1056 1369 1301 889 
Q 1547 409 2034 409 
Q 2525 409 2770 889 
Q 3016 1369 3016 2328 
Q 3016 3291 2770 3770 
Q 2525 4250 2034 4250 
z
M 2034 4750 
Q 2819 4750 3233 4129 
Q 3647 3509 3647 2328 
Q 3647 1150 3233 529 
Q 2819 -91 2034 -91 
Q 1250 -91 836 529 
Q 422 1150 422 2328 
Q 422 3509 836 4129 
Q 1250 4750 2034 4750 
z
" transform="scale(0.015625)"/>
       </defs>
       <use xlink:href="#DejaVuSans-30"/>
      </g>
     </g>
    </g>
    <g id="xtick_2">
     <g id="line2d_2">
      <g>
       <use xlink:href="#m93c739ae9e" x="122.243304" y="456.038906" style="stroke: #000000; stroke-width: 0.8"/>
      </g>
     </g>
     <g id="text_2">
      <!-- 1 -->
      <g transform="translate(117.789554 473.676719) scale(0.14 -0.14)">
       <defs>
        <path id="DejaVuSans-31" d="M 794 531 
L 1825 531 
L 1825 4091 
L 703 3866 
L 703 4441 
L 1819 4666 
L 2450 4666 
L 2450 531 
L 3481 531 
L 3481 0 
L 794 0 
L 794 531 
z
" transform="scale(0.015625)"/>
       </defs>
       <use xlink:href="#DejaVuSans-31"/>
      </g>
     </g>
    </g>
    <g id="xtick_3">
     <g id="line2d_3">
      <g>
       <use xlink:href="#m93c739ae9e" x="186.014732" y="456.038906" style="stroke: #000000; stroke-width: 0.8"/>
      </g>
     </g>
     <g id="text_3">
      <!-- 2 -->
      <g transform="translate(181.560982 473.676719) scale(0.14 -0.14)">
       <defs>
        <path id="DejaVuSans-32" d="M 1228 531 
L 3431 531 
L 3431 0 
L 469 0 
L 469 531 
Q 828 903 1448 1529 
Q 2069 2156 2228 2338 
Q 2531 2678 2651 2914 
Q 2772 3150 2772 3378 
Q 2772 3750 2511 3984 
Q 2250 4219 1831 4219 
Q 1534 4219 1204 4116 
Q 875 4013 500 3803 
L 500 4441 
Q 881 4594 1212 4672 
Q 1544 4750 1819 4750 
Q 2544 4750 2975 4387 
Q 3406 4025 3406 3419 
Q 3406 3131 3298 2873 
Q 3191 2616 2906 2266 
Q 2828 2175 2409 1742 
Q 1991 1309 1228 531 
z
" transform="scale(0.015625)"/>
       </defs>
       <use xlink:href="#DejaVuSans-32"/>
      </g>
     </g>
    </g>
    <g id="xtick_4">
     <g id="line2d_4">
      <g>
       <use xlink:href="#m93c739ae9e" x="249.786161" y="456.038906" style="stroke: #000000; stroke-width: 0.8"/>
      </g>
     </g>
     <g id="text_4">
      <!-- 3 -->
      <g transform="translate(245.332411 473.676719) scale(0.14 -0.14)">
       <defs>
        <path id="DejaVuSans-33" d="M 2597 2516 
Q 3050 2419 3304 2112 
Q 3559 1806 3559 1356 
Q 3559 666 3084 287 
Q 2609 -91 1734 -91 
Q 1441 -91 1130 -33 
Q 819 25 488 141 
L 488 750 
Q 750 597 1062 519 
Q 1375 441 1716 441 
Q 2309 441 2620 675 
Q 2931 909 2931 1356 
Q 2931 1769 2642 2001 
Q 2353 2234 1838 2234 
L 1294 2234 
L 1294 2753 
L 1863 2753 
Q 2328 2753 2575 2939 
Q 2822 3125 2822 3475 
Q 2822 3834 2567 4026 
Q 2313 4219 1838 4219 
Q 1578 4219 1281 4162 
Q 984 4106 628 3988 
L 628 4550 
Q 988 4650 1302 4700 
Q 1616 4750 1894 4750 
Q 2613 4750 3031 4423 
Q 3450 4097 3450 3541 
Q 3450 3153 3228 2886 
Q 3006 2619 2597 2516 
z
" transform="scale(0.015625)"/>
       </defs>
       <use xlink:href="#DejaVuSans-33"/>
      </g>
     </g>
    </g>
    <g id="xtick_5">
     <g id="line2d_5">
      <g>
       <use xlink:href="#m93c739ae9e" x="313.557589" y="456.038906" style="stroke: #000000; stroke-width: 0.8"/>
      </g>
     </g>
     <g id="text_5">
      <!-- 4 -->
      <g transform="translate(309.103839 473.676719) scale(0.14 -0.14)">
       <defs>
        <path id="DejaVuSans-34" d="M 2419 4116 
L 825 1625 
L 2419 1625 
L 2419 4116 
z
M 2253 4666 
L 3047 4666 
L 3047 1625 
L 3713 1625 
L 3713 1100 
L 3047 1100 
L 3047 0 
L 2419 0 
L 2419 1100 
L 313 1100 
L 313 1709 
L 2253 4666 
z
" transform="scale(0.015625)"/>
       </defs>
       <use xlink:href="#DejaVuSans-34"/>
      </g>
     </g>
    </g>
    <g id="xtick_6">
     <g id="line2d_6">
      <g>
       <use xlink:href="#m93c739ae9e" x="377.329018" y="456.038906" style="stroke: #000000; stroke-width: 0.8"/>
      </g>
     </g>
     <g id="text_6">
      <!-- 5 -->
      <g transform="translate(372.875268 473.676719) scale(0.14 -0.14)">
       <defs>
        <path id="DejaVuSans-35" d="M 691 4666 
L 3169 4666 
L 3169 4134 
L 1269 4134 
L 1269 2991 
Q 1406 3038 1543 3061 
Q 1681 3084 1819 3084 
Q 2600 3084 3056 2656 
Q 3513 2228 3513 1497 
Q 3513 744 3044 326 
Q 2575 -91 1722 -91 
Q 1428 -91 1123 -41 
Q 819 9 494 109 
L 494 744 
Q 775 591 1075 516 
Q 1375 441 1709 441 
Q 2250 441 2565 725 
Q 2881 1009 2881 1497 
Q 2881 1984 2565 2268 
Q 2250 2553 1709 2553 
Q 1456 2553 1204 2497 
Q 953 2441 691 2322 
L 691 4666 
z
" transform="scale(0.015625)"/>
       </defs>
       <use xlink:href="#DejaVuSans-35"/>
      </g>
     </g>
    </g>
    <g id="xtick_7">
     <g id="line2d_7">
      <g>
       <use xlink:href="#m93c739ae9e" x="441.100446" y="456.038906" style="stroke: #000000; stroke-width: 0.8"/>
      </g>
     </g>
     <g id="text_7">
      <!-- 6 -->
      <g transform="translate(436.646696 473.676719) scale(0.14 -0.14)">
       <defs>
        <path id="DejaVuSans-36" d="M 2113 2584 
Q 1688 2584 1439 2293 
Q 1191 2003 1191 1497 
Q 1191 994 1439 701 
Q 1688 409 2113 409 
Q 2538 409 2786 701 
Q 3034 994 3034 1497 
Q 3034 2003 2786 2293 
Q 2538 2584 2113 2584 
z
M 3366 4563 
L 3366 3988 
Q 3128 4100 2886 4159 
Q 2644 4219 2406 4219 
Q 1781 4219 1451 3797 
Q 1122 3375 1075 2522 
Q 1259 2794 1537 2939 
Q 1816 3084 2150 3084 
Q 2853 3084 3261 2657 
Q 3669 2231 3669 1497 
Q 3669 778 3244 343 
Q 2819 -91 2113 -91 
Q 1303 -91 875 529 
Q 447 1150 447 2328 
Q 447 3434 972 4092 
Q 1497 4750 2381 4750 
Q 2619 4750 2861 4703 
Q 3103 4656 3366 4563 
z
" transform="scale(0.015625)"/>
       </defs>
       <use xlink:href="#DejaVuSans-36"/>
      </g>
     </g>
    </g>
    <g id="xtick_8">
     <g id="line2d_8">
      <g>
       <use xlink:href="#m93c739ae9e" x="504.871875" y="456.038906" style="stroke: #000000; stroke-width: 0.8"/>
      </g>
     </g>
     <g id="text_8">
      <!-- 7 -->
      <g transform="translate(500.418125 473.676719) scale(0.14 -0.14)">
       <defs>
        <path id="DejaVuSans-37" d="M 525 4666 
L 3525 4666 
L 3525 4397 
L 1831 0 
L 1172 0 
L 2766 4134 
L 525 4134 
L 525 4666 
z
" transform="scale(0.015625)"/>
       </defs>
       <use xlink:href="#DejaVuSans-37"/>
      </g>
     </g>
    </g>
    <g id="text_9">
     <!-- t -->
     <g transform="translate(278.927656 491.226094) scale(0.14 -0.14)">
      <defs>
       <path id="DejaVuSans-74" d="M 1172 4494 
L 1172 3500 
L 2356 3500 
L 2356 3053 
L 1172 3053 
L 1172 1153 
Q 1172 725 1289 603 
Q 1406 481 1766 481 
L 2356 481 
L 2356 0 
L 1766 0 
Q 1100 0 847 248 
Q 594 497 594 1153 
L 594 3053 
L 172 3053 
L 172 3500 
L 594 3500 
L 594 4494 
L 1172 4494 
z
" transform="scale(0.015625)"/>
      </defs>
      <use xlink:href="#DejaVuSans-74"/>
     </g>
    </g>
   </g>
   <g id="matplotlib.axis_2">
    <g id="ytick_1">
     <g id="line2d_9">
      <defs>
       <path id="m42288baeaa" d="M 0 0 
L -3.5 0 
" style="stroke: #000000; stroke-width: 0.8"/>
      </defs>
      <g>
       <use xlink:href="#m42288baeaa" x="58.471875" y="456.038906" style="stroke: #000000; stroke-width: 0.8"/>
      </g>
     </g>
     <g id="text_10">
      <!-- 0 -->
      <g transform="translate(42.564375 461.357813) scale(0.14 -0.14)">
       <use xlink:href="#DejaVuSans-30"/>
      </g>
     </g>
    </g>
    <g id="ytick_2">
     <g id="line2d_10">
      <g>
       <use xlink:href="#m42288baeaa" x="58.471875" y="367.334906" style="stroke: #000000; stroke-width: 0.8"/>
      </g>
     </g>
     <g id="text_11">
      <!-- 100 -->
      <g transform="translate(24.749375 372.653813) scale(0.14 -0.14)">
       <use xlink:href="#DejaVuSans-31"/>
       <use xlink:href="#DejaVuSans-30" transform="translate(63.623047 0)"/>
       <use xlink:href="#DejaVuSans-30" transform="translate(127.246094 0)"/>
      </g>
     </g>
    </g>
    <g id="ytick_3">
     <g id="line2d_11">
      <g>
       <use xlink:href="#m42288baeaa" x="58.471875" y="278.630906" style="stroke: #000000; stroke-width: 0.8"/>
      </g>
     </g>
     <g id="text_12">
      <!-- 200 -->
      <g transform="translate(24.749375 283.949813) scale(0.14 -0.14)">
       <use xlink:href="#DejaVuSans-32"/>
       <use xlink:href="#DejaVuSans-30" transform="translate(63.623047 0)"/>
       <use xlink:href="#DejaVuSans-30" transform="translate(127.246094 0)"/>
      </g>
     </g>
    </g>
    <g id="ytick_4">
     <g id="line2d_12">
      <g>
       <use xlink:href="#m42288baeaa" x="58.471875" y="189.926906" style="stroke: #000000; stroke-width: 0.8"/>
      </g>
     </g>
     <g id="text_13">
      <!-- 300 -->
      <g transform="translate(24.749375 195.245812) scale(0.14 -0.14)">
       <use xlink:href="#DejaVuSans-33"/>
       <use xlink:href="#DejaVuSans-30" transform="translate(63.623047 0)"/>
       <use xlink:href="#DejaVuSans-30" transform="translate(127.246094 0)"/>
      </g>
     </g>
    </g>
    <g id="ytick_5">
     <g id="line2d_13">
      <g>
       <use xlink:href="#m42288baeaa" x="58.471875" y="101.222906" style="stroke: #000000; stroke-width: 0.8"/>
      </g>
     </g>
     <g id="text_14">
      <!-- 400 -->
      <g transform="translate(24.749375 106.541813) scale(0.14 -0.14)">
       <use xlink:href="#DejaVuSans-34"/>
       <use xlink:href="#DejaVuSans-30" transform="translate(63.623047 0)"/>
       <use xlink:href="#DejaVuSans-30" transform="translate(127.246094 0)"/>
      </g>
     </g>
    </g>
    <g id="ytick_6">
     <g id="line2d_14">
      <g>
       <use xlink:href="#m42288baeaa" x="58.471875" y="12.518906" style="stroke: #000000; stroke-width: 0.8"/>
      </g>
     </g>
     <g id="text_15">
      <!-- 500 -->
      <g transform="translate(24.749375 17.837812) scale(0.14 -0.14)">
       <use xlink:href="#DejaVuSans-35"/>
       <use xlink:href="#DejaVuSans-30" transform="translate(63.623047 0)"/>
       <use xlink:href="#DejaVuSans-30" transform="translate(127.246094 0)"/>
      </g>
     </g>
    </g>
    <g id="text_16">
     <!-- s -->
     <g transform="translate(17.837813 237.925469) rotate(-90) scale(0.14 -0.14)">
      <defs>
       <path id="DejaVuSans-73" d="M 2834 3397 
L 2834 2853 
Q 2591 2978 2328 3040 
Q 2066 3103 1784 3103 
Q 1356 3103 1142 2972 
Q 928 2841 928 2578 
Q 928 2378 1081 2264 
Q 1234 2150 1697 2047 
L 1894 2003 
Q 2506 1872 2764 1633 
Q 3022 1394 3022 966 
Q 3022 478 2636 193 
Q 2250 -91 1575 -91 
Q 1294 -91 989 -36 
Q 684 19 347 128 
L 347 722 
Q 666 556 975 473 
Q 1284 391 1588 391 
Q 1994 391 2212 530 
Q 2431 669 2431 922 
Q 2431 1156 2273 1281 
Q 2116 1406 1581 1522 
L 1381 1569 
Q 847 1681 609 1914 
Q 372 2147 372 2553 
Q 372 3047 722 3315 
Q 1072 3584 1716 3584 
Q 2034 3584 2315 3537 
Q 2597 3491 2834 3397 
z
" transform="scale(0.015625)"/>
      </defs>
      <use xlink:href="#DejaVuSans-73"/>
     </g>
    </g>
   </g>
   <g id="line2d_15">
    <path d="M 58.471875 367.334906 
L 59.594364 381.349732 
L 60.716854 392.670905 
L 61.890365 402.2807 
L 63.063877 410.117999 
L 64.288411 416.818317 
L 65.512945 422.330095 
L 66.788501 427.072737 
L 68.115079 431.14757 
L 69.441658 434.526724 
L 70.819258 437.448015 
L 72.247881 439.970732 
L 73.727526 442.147527 
L 75.309216 444.081763 
L 76.99295 445.785123 
L 78.778729 447.273661 
L 80.717574 448.597452 
L 82.860508 449.783933 
L 85.207531 450.826074 
L 87.860688 451.757892 
L 90.922023 452.591102 
L 94.49358 453.3255 
L 98.728426 453.963523 
L 103.932695 454.515003 
L 110.514565 454.978966 
L 119.188347 455.355987 
L 131.382663 455.648281 
L 150.209872 455.856332 
L 184.700909 455.982708 
L 277.510373 456.034079 
L 504.916519 456.038851 
L 504.916519 456.038851 
" clip-path="url(#p3c5b98fb03)" style="fill: none; stroke: #0000ff; stroke-width: 1.5; stroke-linecap: square"/>
   </g>
   <g id="line2d_16">
    <path d="M 58.471875 278.630906 
L 60.053565 299.039023 
L 61.635254 316.618286 
L 63.267966 332.282505 
L 64.900678 345.830034 
L 66.53339 357.594935 
L 68.217124 368.149945 
L 69.900858 377.34741 
L 71.635614 385.618696 
L 73.421393 393.047835 
L 75.207171 399.540143 
L 77.043972 405.385362 
L 78.880773 410.509369 
L 80.768596 415.132967 
L 82.707441 419.300777 
L 84.697309 423.054344 
L 86.738199 426.43216 
L 88.830111 429.469729 
L 91.024067 432.260438 
L 93.269046 434.758347 
L 95.616069 437.039933 
L 98.065137 439.114701 
L 100.667272 441.028744 
L 103.422473 442.780053 
L 106.381763 444.396418 
L 109.545142 445.871573 
L 113.014655 447.241434 
L 116.790301 448.490965 
L 120.974125 449.638403 
L 125.668172 450.68955 
L 130.923463 451.634595 
L 136.944088 452.486858 
L 143.934136 453.245987 
L 152.199739 453.912916 
L 162.200099 454.488123 
L 174.649527 454.971313 
L 190.772556 455.362611 
L 212.916211 455.662713 
L 246.284759 455.872486 
L 306.08283 455.994397 
L 471.394904 456.036986 
L 504.916519 456.03784 
L 504.916519 456.03784 
" clip-path="url(#p3c5b98fb03)" style="fill: none; stroke: #ff0000; stroke-width: 1.5; stroke-linecap: square"/>
   </g>
   <g id="line2d_17">
    <path d="M 58.471875 189.926906 
L 60.41072 215.319016 
L 62.349566 237.841368 
L 64.339433 258.366771 
L 66.329301 276.611054 
L 68.319168 292.868021 
L 70.360058 307.739899 
L 72.400948 321.016186 
L 74.49286 333.175496 
L 76.584772 344.049233 
L 78.727706 354.019165 
L 80.870641 362.949831 
L 83.064597 371.146813 
L 85.258554 378.500952 
L 87.503532 385.257664 
L 89.748511 391.328736 
L 92.044512 396.911892 
L 94.391536 402.041453 
L 96.789581 406.750083 
L 99.238649 411.068744 
L 101.738739 415.026676 
L 104.289851 418.651399 
L 106.891986 421.968739 
L 109.596165 425.05805 
L 112.402388 427.924501 
L 115.310656 430.575078 
L 118.320968 433.01819 
L 121.484348 435.297953 
L 124.800794 437.412645 
L 128.321329 439.390261 
L 132.045952 441.224271 
L 136.025688 442.932462 
L 140.260534 444.507227 
L 144.852536 445.975642 
L 149.852716 447.337633 
L 155.312096 448.591084 
L 161.332721 449.742145 
L 168.067657 450.798228 
L 175.61895 451.752224 
L 184.190687 452.606768 
L 194.140025 453.368809 
L 205.824119 454.033371 
L 219.855236 454.601018 
L 237.253822 455.073219 
L 259.754632 455.44999 
L 290.725135 455.731467 
L 338.175823 455.919125 
L 428.281107 456.016337 
L 504.916519 456.032998 
L 504.916519 456.032998 
" clip-path="url(#p3c5b98fb03)" style="fill: none; stroke: #008000; stroke-width: 1.5; stroke-linecap: square"/>
   </g>
   <g id="line2d_18">
    <path d="M 58.471875 101.222906 
L 60.716854 130.891715 
L 62.961833 157.680947 
L 65.257834 182.434563 
L 67.553835 204.81098 
L 69.849836 225.071737 
L 72.196859 243.834305 
L 74.543882 260.839716 
L 76.941928 276.595446 
L 79.339973 290.889146 
L 81.738019 303.875569 
L 84.187087 315.930566 
L 86.636154 326.892084 
L 89.136244 337.071207 
L 91.636334 346.334321 
L 94.187447 354.939322 
L 96.738559 362.775879 
L 99.340693 370.058124 
L 101.942828 376.694825 
L 104.595985 382.86404 
L 107.300164 388.593471 
L 110.055365 393.90983 
L 112.861588 398.838786 
L 115.718834 403.404919 
L 118.627102 407.631703 
L 121.586392 411.54149 
L 124.596705 415.155512 
L 127.709062 418.546853 
L 130.923463 421.719667 
L 134.239909 424.679537 
L 137.658399 427.43322 
L 141.229957 430.02351 
L 144.95458 432.44803 
L 148.832271 434.706762 
L 152.914051 436.826721 
L 157.250941 438.825294 
L 161.842944 440.692783 
L 166.741079 442.440445 
L 171.945348 444.059341 
L 177.557795 445.570314 
L 183.629442 446.972295 
L 190.262334 448.272169 
L 197.558515 449.470568 
L 205.62003 450.56444 
L 214.599945 451.554391 
L 224.753372 452.445301 
L 236.386444 453.237101 
L 249.907339 453.928444 
L 265.979346 454.520703 
L 285.62291 455.013949 
L 310.62381 455.408914 
L 344.349514 455.705649 
L 394.555403 455.905399 
L 485.579089 456.011599 
L 504.916519 456.019245 
L 504.916519 456.019245 
" clip-path="url(#p3c5b98fb03)" style="fill: none; stroke: #ffa500; stroke-width: 1.5; stroke-linecap: square"/>
   </g>
   <g id="line2d_19">
    <path d="M 58.471875 12.518906 
L 61.022987 46.427343 
L 63.5741 77.392672 
L 66.125212 105.703844 
L 68.727346 132.113423 
L 71.329481 156.271959 
L 73.931615 178.395869 
L 76.584772 199.058736 
L 79.237929 217.989837 
L 81.891085 235.352403 
L 84.595264 251.585949 
L 87.299443 266.480094 
L 90.003622 280.15876 
L 92.758824 292.960372 
L 95.514025 304.720978 
L 98.320248 315.727113 
L 101.126472 325.841268 
L 103.932695 335.144096 
L 106.789941 343.857426 
L 109.647187 351.87374 
L 112.555455 359.381444 
L 115.514745 366.406327 
L 118.474035 372.866824 
L 121.484348 378.911494 
L 124.545682 384.562134 
L 127.658039 389.839925 
L 130.821419 394.765384 
L 134.03582 399.358329 
L 137.301244 403.63785 
L 140.61769 407.622296 
L 144.03618 411.382962 
L 147.556715 414.92288 
L 151.128272 418.201677 
L 154.852896 421.31824 
L 158.679564 424.229916 
L 162.659299 426.977392 
L 166.792101 429.558822 
L 171.07797 431.974297 
L 175.567927 434.250113 
L 180.312996 436.403712 
L 185.313176 438.425894 
L 190.568468 440.31081 
L 196.180914 442.08589 
L 202.150517 443.739578 
L 208.57932 445.287536 
L 215.518345 446.726636 
L 223.069638 448.061487 
L 231.284219 449.284708 
L 240.366179 450.408081 
L 250.417561 451.4237 
L 261.744499 452.339927 
L 274.602105 453.151901 
L 289.500601 453.863664 
L 307.052253 454.472551 
L 328.328529 454.979971 
L 355.115208 455.386226 
L 390.779757 455.69173 
L 443.026536 455.898204 
L 504.916519 455.989411 
L 504.916519 455.989411 
" clip-path="url(#p3c5b98fb03)" style="fill: none; stroke: #800080; stroke-width: 1.5; stroke-linecap: square"/>
   </g>
   <g id="line2d_20">
    <path d="M 64.352242 -1 
L 67.196679 31.049192 
L 70.053925 60.74007 
L 72.91117 88.139233 
L 75.768416 113.442725 
L 78.676684 137.229199 
L 81.584952 159.197804 
L 84.49322 179.502052 
L 87.45251 198.597759 
L 90.4118 216.247287 
L 93.371091 232.571291 
L 96.330381 247.679332 
L 99.340693 261.902993 
L 102.351006 275.066735 
L 105.361318 287.257224 
L 108.422653 298.737517 
L 111.483988 309.368362 
L 114.596345 319.376437 
L 117.708702 328.64336 
L 120.872081 337.364439 
L 124.03546 345.439063 
L 127.249861 353.035489 
L 130.464263 360.068237 
L 133.729686 366.682242 
L 137.046132 372.896889 
L 140.362578 378.646173 
L 143.730047 384.046581 
L 147.148537 389.114904 
L 150.61805 393.867536 
L 154.189607 398.382389 
L 157.812186 402.603344 
L 161.485788 406.546452 
L 165.261434 410.275511 
L 169.139125 413.79362 
L 173.11886 417.104919 
L 177.200639 420.214448 
L 181.435486 423.161935 
L 185.823399 425.944756 
L 190.364379 428.562063 
L 195.109447 431.039947 
L 200.058605 433.373121 
L 205.262874 435.579093 
L 210.722254 437.650455 
L 216.487768 439.598899 
L 222.610437 441.431149 
L 229.141285 443.150129 
L 236.131332 444.756045 
L 243.631602 446.247392 
L 251.744139 447.629916 
L 260.570988 448.904383 
L 270.214192 450.068544 
L 280.877841 451.128086 
L 292.766024 452.081785 
L 306.184875 452.930847 
L 321.593593 453.677341 
L 339.553423 454.318702 
L 361.084811 454.857493 
L 387.769445 455.293177 
L 422.515594 455.626028 
L 471.650016 455.857707 
L 504.916519 455.934453 
L 504.916519 455.934453 
" clip-path="url(#p3c5b98fb03)" style="fill: none; stroke: #00ffff; stroke-width: 1.5; stroke-linecap: square"/>
   </g>
   <g id="patch_3">
    <path d="M 58.471875 456.038906 
L 58.471875 12.518906 
" style="fill: none; stroke: #000000; stroke-width: 0.8; stroke-linejoin: miter; stroke-linecap: square"/>
   </g>
   <g id="patch_4">
    <path d="M 504.871875 456.038906 
L 504.871875 12.518906 
" style="fill: none; stroke: #000000; stroke-width: 0.8; stroke-linejoin: miter; stroke-linecap: square"/>
   </g>
   <g id="patch_5">
    <path d="M 58.471875 456.038906 
L 504.871875 456.038906 
" style="fill: none; stroke: #000000; stroke-width: 0.8; stroke-linejoin: miter; stroke-linecap: square"/>
   </g>
  </g>
  <g id="axes_2">
   <g id="matplotlib.axis_3">
    <g id="ytick_7">
     <g id="line2d_21">
      <defs>
       <path id="m4f3fa69656" d="M 0 0 
L 3.5 0 
" style="stroke: #000000; stroke-width: 0.8"/>
      </defs>
      <g>
       <use xlink:href="#m4f3fa69656" x="504.871875" y="456.038906" style="stroke: #000000; stroke-width: 0.8"/>
      </g>
     </g>
     <g id="text_17">
      <!-- 0.0 -->
      <g transform="translate(511.871875 461.357813) scale(0.14 -0.14)">
       <defs>
        <path id="DejaVuSans-2e" d="M 684 794 
L 1344 794 
L 1344 0 
L 684 0 
L 684 794 
z
" transform="scale(0.015625)"/>
       </defs>
       <use xlink:href="#DejaVuSans-30"/>
       <use xlink:href="#DejaVuSans-2e" transform="translate(63.623047 0)"/>
       <use xlink:href="#DejaVuSans-30" transform="translate(95.410156 0)"/>
      </g>
     </g>
    </g>
    <g id="ytick_8">
     <g id="line2d_22">
      <g>
       <use xlink:href="#m4f3fa69656" x="504.871875" y="367.334906" style="stroke: #000000; stroke-width: 0.8"/>
      </g>
     </g>
     <g id="text_18">
      <!-- 0.2 -->
      <g transform="translate(511.871875 372.653812) scale(0.14 -0.14)">
       <use xlink:href="#DejaVuSans-30"/>
       <use xlink:href="#DejaVuSans-2e" transform="translate(63.623047 0)"/>
       <use xlink:href="#DejaVuSans-32" transform="translate(95.410156 0)"/>
      </g>
     </g>
    </g>
    <g id="ytick_9">
     <g id="line2d_23">
      <g>
       <use xlink:href="#m4f3fa69656" x="504.871875" y="278.630906" style="stroke: #000000; stroke-width: 0.8"/>
      </g>
     </g>
     <g id="text_19">
      <!-- 0.4 -->
      <g transform="translate(511.871875 283.949813) scale(0.14 -0.14)">
       <use xlink:href="#DejaVuSans-30"/>
       <use xlink:href="#DejaVuSans-2e" transform="translate(63.623047 0)"/>
       <use xlink:href="#DejaVuSans-34" transform="translate(95.410156 0)"/>
      </g>
     </g>
    </g>
    <g id="ytick_10">
     <g id="line2d_24">
      <g>
       <use xlink:href="#m4f3fa69656" x="504.871875" y="189.926906" style="stroke: #000000; stroke-width: 0.8"/>
      </g>
     </g>
     <g id="text_20">
      <!-- 0.6 -->
      <g transform="translate(511.871875 195.245812) scale(0.14 -0.14)">
       <use xlink:href="#DejaVuSans-30"/>
       <use xlink:href="#DejaVuSans-2e" transform="translate(63.623047 0)"/>
       <use xlink:href="#DejaVuSans-36" transform="translate(95.410156 0)"/>
      </g>
     </g>
    </g>
    <g id="ytick_11">
     <g id="line2d_25">
      <g>
       <use xlink:href="#m4f3fa69656" x="504.871875" y="101.222906" style="stroke: #000000; stroke-width: 0.8"/>
      </g>
     </g>
     <g id="text_21">
      <!-- 0.8 -->
      <g transform="translate(511.871875 106.541812) scale(0.14 -0.14)">
       <defs>
        <path id="DejaVuSans-38" d="M 2034 2216 
Q 1584 2216 1326 1975 
Q 1069 1734 1069 1313 
Q 1069 891 1326 650 
Q 1584 409 2034 409 
Q 2484 409 2743 651 
Q 3003 894 3003 1313 
Q 3003 1734 2745 1975 
Q 2488 2216 2034 2216 
z
M 1403 2484 
Q 997 2584 770 2862 
Q 544 3141 544 3541 
Q 544 4100 942 4425 
Q 1341 4750 2034 4750 
Q 2731 4750 3128 4425 
Q 3525 4100 3525 3541 
Q 3525 3141 3298 2862 
Q 3072 2584 2669 2484 
Q 3125 2378 3379 2068 
Q 3634 1759 3634 1313 
Q 3634 634 3220 271 
Q 2806 -91 2034 -91 
Q 1263 -91 848 271 
Q 434 634 434 1313 
Q 434 1759 690 2068 
Q 947 2378 1403 2484 
z
M 1172 3481 
Q 1172 3119 1398 2916 
Q 1625 2713 2034 2713 
Q 2441 2713 2670 2916 
Q 2900 3119 2900 3481 
Q 2900 3844 2670 4047 
Q 2441 4250 2034 4250 
Q 1625 4250 1398 4047 
Q 1172 3844 1172 3481 
z
" transform="scale(0.015625)"/>
       </defs>
       <use xlink:href="#DejaVuSans-30"/>
       <use xlink:href="#DejaVuSans-2e" transform="translate(63.623047 0)"/>
       <use xlink:href="#DejaVuSans-38" transform="translate(95.410156 0)"/>
      </g>
     </g>
    </g>
    <g id="ytick_12">
     <g id="line2d_26">
      <g>
       <use xlink:href="#m4f3fa69656" x="504.871875" y="12.518906" style="stroke: #000000; stroke-width: 0.8"/>
      </g>
     </g>
     <g id="text_22">
      <!-- 1.0 -->
      <g transform="translate(511.871875 17.837812) scale(0.14 -0.14)">
       <use xlink:href="#DejaVuSans-31"/>
       <use xlink:href="#DejaVuSans-2e" transform="translate(63.623047 0)"/>
       <use xlink:href="#DejaVuSans-30" transform="translate(95.410156 0)"/>
      </g>
     </g>
    </g>
    <g id="text_23">
     <!-- w -->
     <g transform="translate(548.774063 240.003594) rotate(-90) scale(0.14 -0.14)">
      <defs>
       <path id="DejaVuSans-77" d="M 269 3500 
L 844 3500 
L 1563 769 
L 2278 3500 
L 2956 3500 
L 3675 769 
L 4391 3500 
L 4966 3500 
L 4050 0 
L 3372 0 
L 2619 2869 
L 1863 0 
L 1184 0 
L 269 3500 
z
" transform="scale(0.015625)"/>
      </defs>
      <use xlink:href="#DejaVuSans-77"/>
     </g>
    </g>
   </g>
   <g id="line2d_27">
    <path d="M 58.471875 411.686906 
L 65.819078 398.125987 
L 73.217304 384.936372 
L 80.615529 372.197905 
L 88.064777 359.811787 
L 95.565047 347.771725 
L 103.065317 336.149073 
L 110.616609 324.854381 
L 118.218924 313.881531 
L 125.872261 303.224391 
L 133.57662 292.87682 
L 141.332001 282.832678 
L 149.138405 273.085829 
L 156.99583 263.630147 
L 164.904278 254.459523 
L 172.863748 245.567868 
L 180.925263 236.895256 
L 189.0378 228.493539 
L 197.252382 220.30665 
L 205.517985 212.382121 
L 213.885634 204.667552 
L 222.355326 197.162101 
L 230.876041 189.907235 
L 239.498801 182.855632 
L 248.274627 175.966611 
L 257.152497 169.280935 
L 266.132412 162.796572 
L 275.265394 156.476734 
L 284.500421 150.356488 
L 293.888514 144.40144 
L 303.429674 138.612841 
L 313.1239 132.991536 
L 322.971194 127.537978 
L 333.022576 122.225912 
L 343.278047 117.058763 
L 353.686585 112.063279 
L 364.350234 107.192819 
L 375.217972 102.474251 
L 386.340822 97.888342 
L 397.718783 93.43905 
L 409.351854 89.129649 
L 421.29106 84.945366 
L 433.485376 80.907494 
L 446.036849 76.986331 
L 458.945477 73.187975 
L 472.21126 69.517565 
L 485.885222 65.966484 
L 499.967362 62.540495 
L 504.916519 61.389329 
L 504.916519 61.389329 
" clip-path="url(#p3c5b98fb03)" style="fill: none; stroke-dasharray: 5.55,2.4; stroke-dashoffset: 0; stroke: #0000ff; stroke-width: 1.5"/>
   </g>
   <g id="line2d_28">
    <path d="M 58.471875 367.334906 
L 65.921123 355.116253 
L 73.421393 343.238978 
L 80.972685 331.696849 
L 88.575 320.483612 
L 96.177314 309.664314 
L 103.830651 299.156308 
L 111.53501 288.953539 
L 119.290391 279.049953 
L 127.096795 269.4395 
L 134.95422 260.116139 
L 142.913691 251.016595 
L 150.924183 242.196338 
L 158.985698 233.649193 
L 167.149257 225.317941 
L 175.363838 217.251428 
L 183.680464 209.396157 
L 192.048113 201.796844 
L 200.517805 194.403525 
L 209.089542 187.215111 
L 217.763324 180.230267 
L 226.53915 173.447425 
L 235.468043 166.827751 
L 244.498981 160.409362 
L 253.682985 154.155916 
L 262.969033 148.10179 
L 272.408149 142.21302 
L 282.000331 136.490715 
L 291.74558 130.935588 
L 301.694917 125.520839 
L 311.797322 120.276066 
L 322.103815 115.176111 
L 332.614398 110.223676 
L 343.329069 105.420922 
L 354.298852 100.748301 
L 365.472724 96.230286 
L 376.952729 91.829326 
L 388.687845 87.569615 
L 400.729095 83.436485 
L 413.076478 79.434533 
L 425.729995 75.567552 
L 438.740668 71.824312 
L 452.159518 68.196296 
L 465.986546 64.689951 
L 480.221753 61.310642 
L 494.916159 58.051756 
L 504.916519 55.959282 
L 504.916519 55.959282 
" clip-path="url(#p3c5b98fb03)" style="fill: none; stroke-dasharray: 5.55,2.4; stroke-dashoffset: 0; stroke: #ff0000; stroke-width: 1.5"/>
   </g>
   <g id="line2d_29">
    <path d="M 58.471875 322.982906 
L 66.07419 312.075804 
L 73.727526 301.48252 
L 81.431885 291.19695 
L 89.187267 281.212992 
L 96.99367 271.524545 
L 104.851096 262.12552 
L 112.759544 253.009845 
L 120.770036 244.115872 
L 128.831551 235.497295 
L 136.944088 227.147924 
L 145.158669 219.012042 
L 153.424273 211.136887 
L 161.791921 203.470383 
L 170.261614 196.011694 
L 178.833351 188.759722 
L 187.507133 181.71312 
L 196.282959 174.870306 
L 205.16083 168.229473 
L 214.140745 161.788604 
L 223.273727 155.511155 
L 232.559775 149.399102 
L 241.947868 143.485416 
L 251.489028 137.737023 
L 261.234277 132.12605 
L 271.132593 126.684265 
L 281.183975 121.411627 
L 291.439446 116.28283 
L 301.899006 111.300712 
L 312.562656 106.467562 
L 323.481416 101.763718 
L 334.604265 97.214032 
L 345.982226 92.799884 
L 357.66632 88.506281 
L 369.605526 84.356044 
L 381.850864 80.334748 
L 394.453359 76.431083 
L 407.413009 72.651006 
L 420.729815 68.999524 
L 434.454799 65.468006 
L 448.587961 62.062077 
L 463.180323 58.775201 
L 478.282908 55.602853 
L 493.895715 52.551866 
L 504.916519 50.529235 
L 504.916519 50.529235 
" clip-path="url(#p3c5b98fb03)" style="fill: none; stroke-dasharray: 5.55,2.4; stroke-dashoffset: 0; stroke: #008000; stroke-width: 1.5"/>
   </g>
   <g id="line2d_30">
    <path d="M 58.471875 278.630906 
L 66.278278 269.035563 
L 74.135704 259.726861 
L 82.095174 250.641624 
L 90.105667 241.835233 
L 98.167182 233.301527 
L 106.330741 224.983373 
L 114.545322 216.929543 
L 122.861948 209.086622 
L 131.280619 201.453903 
L 139.750311 194.073979 
L 148.322049 186.898589 
L 156.99583 179.9264 
L 165.771656 173.155848 
L 174.700549 166.548168 
L 183.731487 160.141407 
L 192.915491 153.899292 
L 202.201539 147.856136 
L 211.640655 141.978034 
L 221.232837 136.266098 
L 230.978086 130.721036 
L 240.927423 125.316098 
L 251.029828 120.080827 
L 261.336321 114.990112 
L 271.846904 110.046651 
L 282.561575 105.252598 
L 293.531358 100.588443 
L 304.756252 96.05856 
L 316.236257 91.666629 
L 327.971374 87.415656 
L 340.012623 83.291004 
L 352.360007 79.297262 
L 365.064546 75.423113 
L 378.075218 71.688449 
L 391.494069 68.068745 
L 405.321097 64.570432 
L 419.556303 61.198864 
L 434.25071 57.947444 
L 449.455339 54.811558 
L 465.221213 51.788319 
L 481.548331 48.885051 
L 498.487717 46.099565 
L 504.916519 45.099188 
L 504.916519 45.099188 
" clip-path="url(#p3c5b98fb03)" style="fill: none; stroke-dasharray: 5.55,2.4; stroke-dashoffset: 0; stroke: #ffa500; stroke-width: 1.5"/>
   </g>
   <g id="line2d_31">
    <path d="M 58.471875 234.278906 
L 66.635434 225.923929 
L 74.850016 217.834445 
L 83.166642 209.956805 
L 91.53429 202.335852 
L 100.003982 194.921478 
L 108.57572 187.712593 
L 117.249501 180.707859 
L 126.025327 173.905701 
L 134.903198 167.304325 
L 143.934136 160.866112 
L 153.067117 154.627458 
L 162.353166 148.553177 
L 171.792281 142.644801 
L 181.384463 136.903446 
L 191.129712 131.329825 
L 201.028028 125.924266 
L 211.130432 120.660768 
L 221.436926 115.542606 
L 231.947508 110.572491 
L 242.66218 105.75259 
L 253.58094 101.084543 
L 264.754812 96.549309 
L 276.183795 92.150689 
L 287.918911 87.873718 
L 299.909139 83.740933 
L 312.2055 79.737934 
L 324.859017 75.853419 
L 337.869689 72.093207 
L 351.237517 68.462168 
L 365.013523 64.951662 
L 379.197708 61.567172 
L 393.841092 58.30214 
L 408.994699 55.152001 
L 424.70955 52.113929 
L 440.985646 49.19539 
L 457.874009 46.394264 
L 475.425662 43.709594 
L 493.742648 41.134476 
L 504.916519 39.669141 
L 504.916519 39.669141 
" clip-path="url(#p3c5b98fb03)" style="fill: none; stroke-dasharray: 5.55,2.4; stroke-dashoffset: 0; stroke: #800080; stroke-width: 1.5"/>
   </g>
   <g id="line2d_32">
    <path d="M 58.471875 189.926906 
L 67.094634 182.874522 
L 75.870461 175.984737 
L 84.748331 169.298319 
L 93.728246 162.813237 
L 102.861228 156.492698 
L 112.096255 150.371774 
L 121.484348 144.416065 
L 131.025508 138.626824 
L 140.719734 133.004895 
L 150.567027 127.550733 
L 160.61841 122.238077 
L 170.873881 117.070356 
L 181.282419 112.074318 
L 191.946068 107.203318 
L 202.813806 102.484226 
L 213.936656 97.897809 
L 225.314616 93.448024 
L 236.947688 89.138145 
L 248.886894 84.953398 
L 261.08121 80.915078 
L 273.632683 76.99348 
L 286.541311 73.194702 
L 299.807094 69.523886 
L 313.481056 65.972411 
L 327.563196 62.546042 
L 342.104535 59.238271 
L 357.105075 56.055058 
L 372.615838 52.991473 
L 388.687845 50.044261 
L 405.372119 47.211595 
L 422.719683 44.492834 
L 440.781557 41.888277 
L 459.659788 39.392481 
L 479.354375 37.014522 
L 500.018384 34.745388 
L 504.916519 34.239094 
L 504.916519 34.239094 
" clip-path="url(#p3c5b98fb03)" style="fill: none; stroke-dasharray: 5.55,2.4; stroke-dashoffset: 0; stroke: #00ffff; stroke-width: 1.5"/>
   </g>
   <g id="patch_6">
    <path d="M 58.471875 456.038906 
L 58.471875 12.518906 
" style="fill: none; stroke: #000000; stroke-width: 0.8; stroke-linejoin: miter; stroke-linecap: square"/>
   </g>
   <g id="patch_7">
    <path d="M 504.871875 456.038906 
L 504.871875 12.518906 
" style="fill: none; stroke: #000000; stroke-width: 0.8; stroke-linejoin: miter; stroke-linecap: square"/>
   </g>
   <g id="patch_8">
    <path d="M 58.471875 456.038906 
L 504.871875 456.038906 
" style="fill: none; stroke: #000000; stroke-width: 0.8; stroke-linejoin: miter; stroke-linecap: square"/>
   </g>
   <g id="patch_9">
    <path d="M 58.471875 12.518906 
L 504.871875 12.518906 
" style="fill: none; stroke: #000000; stroke-width: 0.8; stroke-linejoin: miter; stroke-linecap: square"/>
   </g>
  </g>
 </g>
 <defs>
  <clipPath id="p3c5b98fb03">
   <rect x="58.471875" y="12.518906" width="446.4" height="443.52"/>
  </clipPath>
 </defs>
</svg>
