<?xml version="1.0" encoding="utf-8" standalone="no"?>
<!DOCTYPE svg PUBLIC "-//W3C//DTD SVG 1.1//EN"
  "http://www.w3.org/Graphics/SVG/1.1/DTD/svg11.dtd">
<svg xmlns:xlink="http://www.w3.org/1999/xlink" width="509.015937pt" height="499.2125pt" viewBox="0 0 509.015937 499.2125" xmlns="http://www.w3.org/2000/svg" version="1.1">
 <metadata>
  <rdf:RDF xmlns:dc="http://purl.org/dc/elements/1.1/" xmlns:cc="http://creativecommons.org/ns#" xmlns:rdf="http://www.w3.org/1999/02/22-rdf-syntax-ns#">
   <cc:Work>
    <dc:type rdf:resource="http://purl.org/dc/dcmitype/StillImage"/>
    <dc:date>2025-11-09T10:24:02.302274</dc:date>
    <dc:format>image/svg+xml</dc:format>
    <dc:creator>
     <cc:Agent>
      <dc:title>Matplotlib v3.10.7, https://matplotlib.org/</dc:title>
     </cc:Agent>
    </dc:creator>
   </cc:Work>
  </rdf:RDF>
 </metadata>
 <defs>
  <style type="text/css">*{stroke-linejoin: round; stroke-linecap: butt}</style>
 </defs>
 <g id="figure_1">
  <g id="patch_1">
   <path d="M 0 499.2125 
L 509.015937 499.2125 
L 509.015937 0 
L 0 0 
z
" style="fill: #ffffff"/>
  </g>
  <g id="axes_1">
   <g id="patch_2">
    <path d="M 51.915937 455.580625 
L 498.315937 455.580625 
L 498.315937 12.060625 
L 51.915937 12.060625 
z
" style="fill: #ffffff"/>
   </g>
   <g id="matplotlib.axis_1">
    <g id="xtick_1">
     <g id="line2d_1">
      <defs>
       <path id="m89949c5e50" d="M 0 0 
L 0 3.5 
" style="stroke: #000000; stroke-width: 0.8"/>
      </defs>
      <g>
       <use xlink:href="#m89949c5e50" x="51.915937" y="455.580625" style="stroke: #000000; stroke-width: 0.8"/>
      </g>
     </g>
     <g id="text_1">
      <!-- 0 -->
      <g transform="translate(48.415937 472.301875) scale(0.14 -0.14)">
       <defs>
        <path id="TimesNewRomanPSMT-30" d="M 231 2094 
Q 231 2819 450 3342 
Q 669 3866 1031 4122 
Q 1313 4325 1613 4325 
Q 2100 4325 2488 3828 
Q 2972 3213 2972 2159 
Q 2972 1422 2759 906 
Q 2547 391 2217 158 
Q 1888 -75 1581 -75 
Q 975 -75 572 641 
Q 231 1244 231 2094 
z
M 844 2016 
Q 844 1141 1059 588 
Q 1238 122 1591 122 
Q 1759 122 1940 273 
Q 2122 425 2216 781 
Q 2359 1319 2359 2297 
Q 2359 3022 2209 3506 
Q 2097 3866 1919 4016 
Q 1791 4119 1609 4119 
Q 1397 4119 1231 3928 
Q 1006 3669 925 3112 
Q 844 2556 844 2016 
z
" transform="scale(0.015625)"/>
       </defs>
       <use xlink:href="#TimesNewRomanPSMT-30"/>
      </g>
     </g>
    </g>
    <g id="xtick_2">
     <g id="line2d_2">
      <g>
       <use xlink:href="#m89949c5e50" x="126.315937" y="455.580625" style="stroke: #000000; stroke-width: 0.8"/>
      </g>
     </g>
     <g id="text_2">
      <!-- 1 -->
      <g transform="translate(122.815937 472.301875) scale(0.14 -0.14)">
       <defs>
        <path id="TimesNewRomanPSMT-31" d="M 750 3822 
L 1781 4325 
L 1884 4325 
L 1884 747 
Q 1884 391 1914 303 
Q 1944 216 2037 169 
Q 2131 122 2419 116 
L 2419 0 
L 825 0 
L 825 116 
Q 1125 122 1212 167 
Q 1300 213 1334 289 
Q 1369 366 1369 747 
L 1369 3034 
Q 1369 3497 1338 3628 
Q 1316 3728 1258 3775 
Q 1200 3822 1119 3822 
Q 1003 3822 797 3725 
L 750 3822 
z
" transform="scale(0.015625)"/>
       </defs>
       <use xlink:href="#TimesNewRomanPSMT-31"/>
      </g>
     </g>
    </g>
    <g id="xtick_3">
     <g id="line2d_3">
      <g>
       <use xlink:href="#m89949c5e50" x="200.715937" y="455.580625" style="stroke: #000000; stroke-width: 0.8"/>
      </g>
     </g>
     <g id="text_3">
      <!-- 2 -->
      <g transform="translate(197.215937 472.301875) scale(0.14 -0.14)">
       <defs>
        <path id="TimesNewRomanPSMT-32" d="M 2934 816 
L 2638 0 
L 138 0 
L 138 116 
Q 1241 1122 1691 1759 
Q 2141 2397 2141 2925 
Q 2141 3328 1894 3587 
Q 1647 3847 1303 3847 
Q 991 3847 742 3664 
Q 494 3481 375 3128 
L 259 3128 
Q 338 3706 661 4015 
Q 984 4325 1469 4325 
Q 1984 4325 2329 3994 
Q 2675 3663 2675 3213 
Q 2675 2891 2525 2569 
Q 2294 2063 1775 1497 
Q 997 647 803 472 
L 1909 472 
Q 2247 472 2383 497 
Q 2519 522 2628 598 
Q 2738 675 2819 816 
L 2934 816 
z
" transform="scale(0.015625)"/>
       </defs>
       <use xlink:href="#TimesNewRomanPSMT-32"/>
      </g>
     </g>
    </g>
    <g id="xtick_4">
     <g id="line2d_4">
      <g>
       <use xlink:href="#m89949c5e50" x="275.115937" y="455.580625" style="stroke: #000000; stroke-width: 0.8"/>
      </g>
     </g>
     <g id="text_4">
      <!-- 3 -->
      <g transform="translate(271.615937 472.301875) scale(0.14 -0.14)">
       <defs>
        <path id="TimesNewRomanPSMT-33" d="M 325 3431 
Q 506 3859 782 4092 
Q 1059 4325 1472 4325 
Q 1981 4325 2253 3994 
Q 2459 3747 2459 3466 
Q 2459 3003 1878 2509 
Q 2269 2356 2469 2072 
Q 2669 1788 2669 1403 
Q 2669 853 2319 450 
Q 1863 -75 997 -75 
Q 569 -75 414 31 
Q 259 138 259 259 
Q 259 350 332 419 
Q 406 488 509 488 
Q 588 488 669 463 
Q 722 447 909 348 
Q 1097 250 1169 231 
Q 1284 197 1416 197 
Q 1734 197 1970 444 
Q 2206 691 2206 1028 
Q 2206 1275 2097 1509 
Q 2016 1684 1919 1775 
Q 1784 1900 1550 2001 
Q 1316 2103 1072 2103 
L 972 2103 
L 972 2197 
Q 1219 2228 1467 2375 
Q 1716 2522 1828 2728 
Q 1941 2934 1941 3181 
Q 1941 3503 1739 3701 
Q 1538 3900 1238 3900 
Q 753 3900 428 3381 
L 325 3431 
z
" transform="scale(0.015625)"/>
       </defs>
       <use xlink:href="#TimesNewRomanPSMT-33"/>
      </g>
     </g>
    </g>
    <g id="xtick_5">
     <g id="line2d_5">
      <g>
       <use xlink:href="#m89949c5e50" x="349.515937" y="455.580625" style="stroke: #000000; stroke-width: 0.8"/>
      </g>
     </g>
     <g id="text_5">
      <!-- 4 -->
      <g transform="translate(346.015937 472.301875) scale(0.14 -0.14)">
       <defs>
        <path id="TimesNewRomanPSMT-34" d="M 2978 1563 
L 2978 1119 
L 2409 1119 
L 2409 0 
L 1894 0 
L 1894 1119 
L 100 1119 
L 100 1519 
L 2066 4325 
L 2409 4325 
L 2409 1563 
L 2978 1563 
z
M 1894 1563 
L 1894 3666 
L 406 1563 
L 1894 1563 
z
" transform="scale(0.015625)"/>
       </defs>
       <use xlink:href="#TimesNewRomanPSMT-34"/>
      </g>
     </g>
    </g>
    <g id="xtick_6">
     <g id="line2d_6">
      <g>
       <use xlink:href="#m89949c5e50" x="423.915937" y="455.580625" style="stroke: #000000; stroke-width: 0.8"/>
      </g>
     </g>
     <g id="text_6">
      <!-- 5 -->
      <g transform="translate(420.415937 472.301875) scale(0.14 -0.14)">
       <defs>
        <path id="TimesNewRomanPSMT-35" d="M 2778 4238 
L 2534 3706 
L 1259 3706 
L 981 3138 
Q 1809 3016 2294 2522 
Q 2709 2097 2709 1522 
Q 2709 1188 2573 903 
Q 2438 619 2231 419 
Q 2025 219 1772 97 
Q 1413 -75 1034 -75 
Q 653 -75 479 54 
Q 306 184 306 341 
Q 306 428 378 495 
Q 450 563 559 563 
Q 641 563 702 538 
Q 763 513 909 409 
Q 1144 247 1384 247 
Q 1750 247 2026 523 
Q 2303 800 2303 1197 
Q 2303 1581 2056 1914 
Q 1809 2247 1375 2428 
Q 1034 2569 447 2591 
L 1259 4238 
L 2778 4238 
z
" transform="scale(0.015625)"/>
       </defs>
       <use xlink:href="#TimesNewRomanPSMT-35"/>
      </g>
     </g>
    </g>
    <g id="xtick_7">
     <g id="line2d_7">
      <g>
       <use xlink:href="#m89949c5e50" x="498.315937" y="455.580625" style="stroke: #000000; stroke-width: 0.8"/>
      </g>
     </g>
     <g id="text_7">
      <!-- 6 -->
      <g transform="translate(494.815937 472.301875) scale(0.14 -0.14)">
       <defs>
        <path id="TimesNewRomanPSMT-36" d="M 2869 4325 
L 2869 4209 
Q 2456 4169 2195 4045 
Q 1934 3922 1679 3669 
Q 1425 3416 1258 3105 
Q 1091 2794 978 2366 
Q 1428 2675 1881 2675 
Q 2316 2675 2634 2325 
Q 2953 1975 2953 1425 
Q 2953 894 2631 456 
Q 2244 -75 1606 -75 
Q 1172 -75 869 213 
Q 275 772 275 1663 
Q 275 2231 503 2743 
Q 731 3256 1154 3653 
Q 1578 4050 1965 4187 
Q 2353 4325 2688 4325 
L 2869 4325 
z
M 925 2138 
Q 869 1716 869 1456 
Q 869 1156 980 804 
Q 1091 453 1309 247 
Q 1469 100 1697 100 
Q 1969 100 2183 356 
Q 2397 613 2397 1088 
Q 2397 1622 2184 2012 
Q 1972 2403 1581 2403 
Q 1463 2403 1327 2353 
Q 1191 2303 925 2138 
z
" transform="scale(0.015625)"/>
       </defs>
       <use xlink:href="#TimesNewRomanPSMT-36"/>
      </g>
     </g>
    </g>
    <g id="text_8">
     <!-- s -->
     <g transform="translate(272.391406 489.017812) scale(0.14 -0.14)">
      <defs>
       <path id="TimesNewRomanPSMT-73" d="M 2050 2947 
L 2050 1972 
L 1947 1972 
Q 1828 2431 1642 2597 
Q 1456 2763 1169 2763 
Q 950 2763 815 2647 
Q 681 2531 681 2391 
Q 681 2216 781 2091 
Q 878 1963 1175 1819 
L 1631 1597 
Q 2266 1288 2266 781 
Q 2266 391 1970 151 
Q 1675 -88 1309 -88 
Q 1047 -88 709 6 
Q 606 38 541 38 
Q 469 38 428 -44 
L 325 -44 
L 325 978 
L 428 978 
Q 516 541 762 319 
Q 1009 97 1316 97 
Q 1531 97 1667 223 
Q 1803 350 1803 528 
Q 1803 744 1651 891 
Q 1500 1038 1047 1263 
Q 594 1488 453 1669 
Q 313 1847 313 2119 
Q 313 2472 555 2709 
Q 797 2947 1181 2947 
Q 1350 2947 1591 2875 
Q 1750 2828 1803 2828 
Q 1853 2828 1881 2850 
Q 1909 2872 1947 2947 
L 2050 2947 
z
" transform="scale(0.015625)"/>
      </defs>
      <use xlink:href="#TimesNewRomanPSMT-73"/>
     </g>
    </g>
   </g>
   <g id="matplotlib.axis_2">
    <g id="ytick_1">
     <g id="line2d_8">
      <defs>
       <path id="m1017737523" d="M 0 0 
L -3.5 0 
" style="stroke: #000000; stroke-width: 0.8"/>
      </defs>
      <g>
       <use xlink:href="#m1017737523" x="51.915937" y="455.580625" style="stroke: #000000; stroke-width: 0.8"/>
      </g>
     </g>
     <g id="text_9">
      <!-- 0 -->
      <g transform="translate(37.915937 460.44125) scale(0.14 -0.14)">
       <use xlink:href="#TimesNewRomanPSMT-30"/>
      </g>
     </g>
    </g>
    <g id="ytick_2">
     <g id="line2d_9">
      <g>
       <use xlink:href="#m1017737523" x="51.915937" y="366.876625" style="stroke: #000000; stroke-width: 0.8"/>
      </g>
     </g>
     <g id="text_10">
      <!-- 100 -->
      <g transform="translate(23.915937 371.73725) scale(0.14 -0.14)">
       <use xlink:href="#TimesNewRomanPSMT-31"/>
       <use xlink:href="#TimesNewRomanPSMT-30" transform="translate(50 0)"/>
       <use xlink:href="#TimesNewRomanPSMT-30" transform="translate(100 0)"/>
      </g>
     </g>
    </g>
    <g id="ytick_3">
     <g id="line2d_10">
      <g>
       <use xlink:href="#m1017737523" x="51.915937" y="278.172625" style="stroke: #000000; stroke-width: 0.8"/>
      </g>
     </g>
     <g id="text_11">
      <!-- 200 -->
      <g transform="translate(23.915937 283.03325) scale(0.14 -0.14)">
       <use xlink:href="#TimesNewRomanPSMT-32"/>
       <use xlink:href="#TimesNewRomanPSMT-30" transform="translate(50 0)"/>
       <use xlink:href="#TimesNewRomanPSMT-30" transform="translate(100 0)"/>
      </g>
     </g>
    </g>
    <g id="ytick_4">
     <g id="line2d_11">
      <g>
       <use xlink:href="#m1017737523" x="51.915937" y="189.468625" style="stroke: #000000; stroke-width: 0.8"/>
      </g>
     </g>
     <g id="text_12">
      <!-- 300 -->
      <g transform="translate(23.915937 194.32925) scale(0.14 -0.14)">
       <use xlink:href="#TimesNewRomanPSMT-33"/>
       <use xlink:href="#TimesNewRomanPSMT-30" transform="translate(50 0)"/>
       <use xlink:href="#TimesNewRomanPSMT-30" transform="translate(100 0)"/>
      </g>
     </g>
    </g>
    <g id="ytick_5">
     <g id="line2d_12">
      <g>
       <use xlink:href="#m1017737523" x="51.915937" y="100.764625" style="stroke: #000000; stroke-width: 0.8"/>
      </g>
     </g>
     <g id="text_13">
      <!-- 400 -->
      <g transform="translate(23.915937 105.62525) scale(0.14 -0.14)">
       <use xlink:href="#TimesNewRomanPSMT-34"/>
       <use xlink:href="#TimesNewRomanPSMT-30" transform="translate(50 0)"/>
       <use xlink:href="#TimesNewRomanPSMT-30" transform="translate(100 0)"/>
      </g>
     </g>
    </g>
    <g id="ytick_6">
     <g id="line2d_13">
      <g>
       <use xlink:href="#m1017737523" x="51.915937" y="12.060625" style="stroke: #000000; stroke-width: 0.8"/>
      </g>
     </g>
     <g id="text_14">
      <!-- 500 -->
      <g transform="translate(23.915937 16.92125) scale(0.14 -0.14)">
       <use xlink:href="#TimesNewRomanPSMT-35"/>
       <use xlink:href="#TimesNewRomanPSMT-30" transform="translate(50 0)"/>
       <use xlink:href="#TimesNewRomanPSMT-30" transform="translate(100 0)"/>
      </g>
     </g>
    </g>
    <g id="text_15">
     <!-- w -->
     <g transform="translate(16.92125 238.875937) rotate(-90) scale(0.14 -0.14)">
      <defs>
       <path id="TimesNewRomanPSMT-77" d="M 41 2863 
L 1241 2863 
L 1241 2747 
Q 1075 2734 1023 2687 
Q 972 2641 972 2553 
Q 972 2456 1025 2319 
L 1638 672 
L 2253 2013 
L 2091 2434 
Q 2016 2622 1894 2694 
Q 1825 2738 1638 2747 
L 1638 2863 
L 3000 2863 
L 3000 2747 
Q 2775 2738 2681 2666 
Q 2619 2616 2619 2506 
Q 2619 2444 2644 2378 
L 3294 734 
L 3897 2319 
Q 3959 2488 3959 2588 
Q 3959 2647 3898 2694 
Q 3838 2741 3659 2747 
L 3659 2863 
L 4563 2863 
L 4563 2747 
Q 4291 2706 4163 2378 
L 3206 -88 
L 3078 -88 
L 2363 1741 
L 1528 -88 
L 1413 -88 
L 494 2319 
Q 403 2547 315 2626 
Q 228 2706 41 2747 
L 41 2863 
z
" transform="scale(0.015625)"/>
      </defs>
      <use xlink:href="#TimesNewRomanPSMT-77"/>
     </g>
    </g>
   </g>
   <g id="line2d_14">
    <path d="M 51.915937 366.876625 
L 56.357662 371.505047 
L 60.910987 375.929639 
L 65.590794 380.167497 
L 70.404522 384.226657 
L 75.359612 388.114276 
L 80.470943 391.842005 
L 85.760836 395.424232 
L 91.236731 398.863142 
L 96.913507 402.165048 
L 102.813486 405.338874 
L 108.958988 408.39135 
L 115.372332 411.327393 
L 122.075839 414.150456 
L 129.099269 416.865589 
L 136.472383 419.476027 
L 144.232381 421.985888 
L 152.416463 424.397397 
L 161.069269 426.71324 
L 170.235441 428.934347 
L 179.974498 431.063467 
L 190.353402 433.102638 
L 201.439113 435.051826 
L 213.320912 436.912881 
L 226.102959 438.687249 
L 239.896857 440.37476 
L 254.836527 441.975498 
L 271.085649 443.489862 
L 288.845107 444.918367 
L 308.345542 446.260364 
L 329.884557 447.516037 
L 353.819277 448.68466 
L 380.610984 449.765861 
L 410.847447 450.758868 
L 445.294991 451.662626 
L 484.995228 452.476166 
L 498.320402 452.705572 
L 498.320402 452.705572 
" clip-path="url(#p909a0db0af)" style="fill: none; stroke: #0000ff; stroke-width: 1.5; stroke-linecap: square"/>
   </g>
   <g id="line2d_15">
    <path d="M 51.915937 455.491921 
L 195.353132 455.141299 
L 393.236791 454.895175 
L 498.320402 454.825547 
L 498.320402 454.825547 
" clip-path="url(#p909a0db0af)" style="fill: none; stroke-dasharray: 5.55,2.4; stroke-dashoffset: 0; stroke: #0000ff; stroke-width: 1.5"/>
   </g>
   <g id="line2d_16">
    <path d="M 51.915937 278.172625 
L 55.903817 286.512828 
L 59.943778 294.450413 
L 64.043259 302.017755 
L 68.20226 309.230727 
L 72.420783 316.104737 
L 76.713705 322.676791 
L 81.073589 328.94695 
L 85.515313 334.947002 
L 90.038879 340.685413 
L 94.651725 346.179353 
L 99.361292 351.443943 
L 104.17502 356.49251 
L 109.100349 361.336814 
L 114.15216 365.993886 
L 119.330452 370.465444 
L 124.650105 374.765544 
L 130.126 378.905835 
L 135.765576 382.890808 
L 141.583714 386.729268 
L 147.595294 390.428394 
L 153.815196 393.993984 
L 160.258301 397.430674 
L 166.946928 400.745697 
L 173.903397 403.944473 
L 181.15003 407.030911 
L 188.709145 410.007687 
L 196.610504 412.879092 
L 204.883867 415.647829 
L 213.566434 418.317534 
L 222.695405 420.890137 
L 232.307981 423.366242 
L 242.456243 425.748801 
L 253.18483 428.037352 
L 264.560704 430.234684 
L 276.650825 432.341451 
L 289.537034 434.358951 
L 303.301171 436.286503 
L 318.054839 438.125575 
L 333.909637 439.875235 
L 351.014368 441.536361 
L 369.532714 443.108433 
L 389.665555 444.591286 
L 411.650975 445.984328 
L 435.779136 447.286879 
L 462.422043 448.498738 
L 492.026099 449.618648 
L 498.320402 449.830519 
L 498.320402 449.830519 
" clip-path="url(#p909a0db0af)" style="fill: none; stroke: #ff0000; stroke-width: 1.5; stroke-linecap: square"/>
   </g>
   <g id="line2d_17">
    <path d="M 51.915937 455.491921 
L 195.353132 455.141299 
L 393.236791 454.895175 
L 498.320402 454.825547 
L 498.320402 454.825547 
" clip-path="url(#p909a0db0af)" style="fill: none; stroke-dasharray: 5.55,2.4; stroke-dashoffset: 0; stroke: #ff0000; stroke-width: 1.5"/>
   </g>
   <g id="line2d_18">
    <path d="M 51.915937 189.468625 
L 55.799656 201.662092 
L 59.728016 213.268283 
L 63.693575 224.295928 
L 67.703775 234.794951 
L 71.758616 244.791361 
L 75.858097 254.30994 
L 80.002218 263.374292 
L 84.19842 272.021769 
L 88.454143 280.285203 
L 92.761946 288.167029 
L 97.12927 295.697199 
L 101.563554 302.902082 
L 106.064799 309.793835 
L 110.640445 316.394817 
L 115.297931 322.724731 
L 120.037259 328.7917 
L 124.865867 334.612648 
L 129.791196 340.202513 
L 134.813246 345.566777 
L 139.946898 350.725714 
L 145.19959 355.689554 
L 150.578764 360.467346 
L 156.091859 365.067116 
L 161.753756 369.501637 
L 167.571894 373.776214 
L 173.561154 377.900551 
L 179.736416 381.882622 
L 186.105119 385.724563 
L 192.689585 389.43649 
L 199.504693 393.022483 
L 206.565324 396.485727 
L 213.893797 399.83195 
L 221.512433 403.065365 
L 229.443553 406.188925 
L 237.716916 409.207166 
L 246.362282 412.123015 
L 255.401972 414.93587 
L 264.880627 417.650944 
L 274.835447 420.269387 
L 285.303631 422.791229 
L 296.337262 425.218801 
L 307.988418 427.552754 
L 320.324062 429.79505 
L 333.411152 431.945774 
L 347.324092 434.004683 
L 362.1596 435.972997 
L 378.014398 437.849866 
L 395.014968 439.635979 
L 413.302671 441.331107 
L 433.048629 442.935238 
L 454.446283 444.447444 
L 477.733716 445.867144 
L 498.320402 446.955841 
L 498.320402 446.955841 
" clip-path="url(#p909a0db0af)" style="fill: none; stroke: #008000; stroke-width: 1.5; stroke-linecap: square"/>
   </g>
   <g id="line2d_19">
    <path d="M 51.915937 455.491921 
L 195.866497 455.140385 
L 393.973358 454.894583 
L 498.320402 454.82555 
L 498.320402 454.82555 
" clip-path="url(#p909a0db0af)" style="fill: none; stroke-dasharray: 5.55,2.4; stroke-dashoffset: 0; stroke: #008000; stroke-width: 1.5"/>
   </g>
   <g id="line2d_20">
    <path d="M 51.915937 100.764625 
L 56.372542 119.50344 
L 60.352982 135.283758 
L 64.273901 149.927673 
L 68.20226 163.74795 
L 72.16038 176.86689 
L 76.1557 189.345177 
L 80.18822 201.215897 
L 84.257941 212.510723 
L 88.372302 223.278633 
L 92.531304 233.544887 
L 96.734946 243.33359 
L 100.990668 252.683608 
L 105.298471 261.614164 
L 109.658355 270.143763 
L 114.077759 278.30354 
L 118.556684 286.10834 
L 123.095129 293.572584 
L 127.700535 300.721477 
L 132.380342 307.577264 
L 137.13455 314.149586 
L 141.970598 320.457461 
L 146.895927 326.517686 
L 151.917978 332.345099 
L 157.036749 337.944903 
L 162.259681 343.330044 
L 167.601654 348.518998 
L 173.062669 353.514081 
L 178.657605 358.33057 
L 184.393902 362.975404 
L 190.279001 367.454749 
L 196.327782 371.779257 
L 202.555124 375.957734 
L 208.968468 379.992853 
L 215.582694 383.891301 
L 222.420123 387.662471 
L 229.488193 391.306214 
L 236.809226 394.829468 
L 244.405542 398.237469 
L 252.292021 401.531026 
L 260.498423 404.716167 
L 269.047069 407.794488 
L 277.967718 410.769196 
L 287.290131 413.642179 
L 297.051509 416.416296 
L 307.289051 419.09294 
L 318.039959 421.672352 
L 329.356312 424.157029 
L 341.290191 426.547765 
L 353.901117 428.845343 
L 367.248611 431.049125 
L 381.414512 433.160631 
L 396.488103 435.180408 
L 412.566104 437.108086 
L 429.760116 438.943237 
L 448.2115 440.686422 
L 468.076499 442.337075 
L 489.541114 443.894624 
L 498.320402 444.472081 
L 498.320402 444.472081 
" clip-path="url(#p909a0db0af)" style="fill: none; stroke: #ffa500; stroke-width: 1.5; stroke-linecap: square"/>
   </g>
   <g id="line2d_21">
    <path d="M 51.915937 455.491921 
L 74.868567 455.437401 
L 224.800946 455.099959 
L 433.867037 454.868494 
L 498.320402 454.828463 
L 498.320402 454.828463 
" clip-path="url(#p909a0db0af)" style="fill: none; stroke-dasharray: 5.55,2.4; stroke-dashoffset: 0; stroke: #ffa500; stroke-width: 1.5"/>
   </g>
   <g id="line2d_22">
    <path d="M 51.915937 12.060625 
L 52.109379 13.745461 
L 52.600424 20.673048 
L 55.963338 70.241028 
L 58.284641 100.727113 
L 60.605944 128.328209 
L 62.942128 153.496614 
L 65.300631 176.535883 
L 67.681455 197.638579 
L 70.077159 216.922201 
L 72.495183 234.612247 
L 74.935528 250.85034 
L 77.398192 265.764839 
L 79.883177 279.472126 
L 82.397922 292.113468 
L 84.934988 303.742693 
L 87.501813 314.477375 
L 90.090959 324.362394 
L 92.709865 333.49571 
L 95.358532 341.937396 
L 98.044399 349.763355 
L 100.767466 357.01896 
L 103.527734 363.74639 
L 106.325202 369.984819 
L 109.16731 375.785134 
L 112.061499 381.190669 
L 115.007768 386.226265 
L 118.013558 390.926717 
L 121.086309 395.321844 
L 124.233461 399.437284 
L 127.462453 403.295157 
L 130.780726 406.91463 
L 134.20316 410.319457 
L 137.737196 413.52236 
L 141.397712 416.540481 
L 145.20703 419.392939 
L 149.18003 422.08935 
L 153.331592 424.637409 
L 157.691475 427.051154 
L 162.282001 429.336839 
L 167.13293 431.502003 
L 172.274021 433.551501 
L 177.749916 435.49322 
L 183.605254 437.33143 
L 189.892117 439.069759 
L 196.677465 440.712567 
L 204.035699 442.262268 
L 212.048659 443.719605 
L 220.835387 445.088335 
L 230.529804 446.369683 
L 241.295591 447.564364 
L 253.348512 448.673843 
L 266.963848 449.699097 
L 282.498723 450.640713 
L 300.429303 451.499163 
L 321.425193 452.275475 
L 346.408962 452.969752 
L 376.749586 453.582576 
L 414.530284 454.114219 
L 463.099089 454.564712 
L 498.320402 454.788702 
L 498.320402 454.788702 
" clip-path="url(#p909a0db0af)" style="fill: none; stroke: #800080; stroke-width: 1.5; stroke-linecap: square"/>
   </g>
   <g id="line2d_23">
    <path d="M 51.915937 455.491921 
L 52.14658 456.219584 
L 52.421863 456.398454 
L 53.061709 456.453775 
L 58.12096 456.43568 
L 162.073679 455.83937 
L 279.931898 455.405964 
L 432.631985 455.078447 
L 498.320402 454.988891 
L 498.320402 454.988891 
" clip-path="url(#p909a0db0af)" style="fill: none; stroke-dasharray: 5.55,2.4; stroke-dashoffset: 0; stroke: #800080; stroke-width: 1.5"/>
   </g>
   <g id="patch_3">
    <path d="M 51.915937 455.580625 
L 51.915937 12.060625 
" style="fill: none; stroke: #000000; stroke-width: 0.8; stroke-linejoin: miter; stroke-linecap: square"/>
   </g>
   <g id="patch_4">
    <path d="M 51.915937 455.580625 
L 498.315937 455.580625 
" style="fill: none; stroke: #000000; stroke-width: 0.8; stroke-linejoin: miter; stroke-linecap: square"/>
   </g>
  </g>
 </g>
 <defs>
  <clipPath id="p909a0db0af">
   <rect x="51.915937" y="12.060625" width="446.4" height="443.52"/>
  </clipPath>
 </defs>
</svg>
